<svg xmlns="http://www.w3.org/2000/svg" viewBox="0 0 35 35"><path d="M1 1h7v7h-7zM17 1h1v1h-1zM19 1h4v1h-1v1h1v1h-3v-1h1v-1h-1v1h-1zM24 1h1v1h-1zM27 1h7v7h-7zM2 2v5h5v-5zM11 2h2v1h-1v1h-1v1h-1v4h-1v-6h2zM16 2h1v1h-1zM25 2h1v2h-2v-1h1zM28 2v5h5v-5zM3 3h3v3h-3zM15 3h1v1h-1zM29 3h3v3h-3zM13 4h1v2h1v1h-1v2h1v-2h1v4h1v1h-2v1h-1v3h-1v2h-1v-1h-1v-1h1v-1h-1v1h-1v-1h-2v-1h-1v-1h1v-1h-1v-1h2v3h2v-2h-1v-1h-1v-1h1v-1h1v1h1v1h2v-1h-2v-2h1v-2h-1v-1h1zM19 4h1v1h-1zM23 4h1v1h-1zM15 5h3v1h-3zM21 5h2v2h-1v-1h-1zM24 5h1v1h-1zM11 6h1v2h-1zM18 6h3v1h-1v1h1v-1h1v1h1v-1h1v1h1v-1h1v2h-2v1h-1v-1h-1v2h-3v1h1v1h-2v-2h-1v-1h1v-1h1v1h1v-1h-1v-2h-1zM17 7h1v2h-1zM1 9h1v1h-1zM3 9h5v1h-1v1h-2v-1h-2zM27 9h5v2h1v1h-1v1h-1v1h2v-1h1v2h-1v1h-1v1h-2v-1h-1v-1h1v-1h-1v-3h1v1h1v-1h-1v-1h-2v1h-1zM2 10h1v1h-1zM24 10h1v1h-1zM33 10h1v1h-1zM1 11h1v2h-1zM3 11h1v1h-1zM22 11h1v2h-1zM25 11h1v2h-1zM5 12h2v1h-2zM12 12v1h1v-1zM2 13h1v1h-1zM4 13h1v2h-2v-1h1zM15 13h3v1h-1v1h1v1h-1v1h2v1h-1v3h-1v1h1v1h-2v-3h-1v-1h2v-1h-2v1h-1v-2h1v-2h1v-1h-1zM20 13h1v1h-1zM23 13h2v2h-1v1h-1zM26 13h1v1h-1zM19 14h1v2h-1zM27 14h1v2h-1zM6 15h2v1h-1v1h2v1h1v-1h1v1h1v1h2v1h-7v1h-1v-1h-2v1h-1v1h1v1h1v1h-1v1h4v-1h-2v-1h2v-1h1v1h1v-1h1v1h1v2h-1v2h-2v-1h-6v-3h-1v3h-1v-6h1v-1h-1v-3h4v1h-3v1h4zM21 15h1v1h1v1h-2zM9 16h1v1h-1zM24 16h1v3h-1v-1h-1v-1h1zM28 16h1v1h1v1h-1v1h-3v-2h1v1h1zM20 17h1v1h2v1h1v1h1v1h-3v-2h-2zM33 17h1v2h-1zM7 18v1h1v-1zM30 18h2v1h1v1h-1v1h-1v1h-3v-1h1v-2h1v1h1v-1h-1zM19 19h1v1h-1zM20 20h1v1h-1zM27 20h1v1h-1zM33 20h1v3h-1zM7 21h1v1h-1zM11 21h2v1h-2zM19 21h1v1h-1zM25 21h2v1h1v2h-1v-1h-1v-1h-1zM13 22h2v1h-2zM20 22h2v2h1v1h-2v1h1v1h-2v-3h1v-1h-1zM24 22h1v1h-1zM31 22h1v1h-1zM15 23h1v1h-1zM18 23h2v1h-2zM23 23h1v1h-1zM25 23h1v1h-1zM30 23h1v1h1v-1h1v1h1v1h-3v1h-1v3h1v1h-1v1h-1v1h2v-1h1v2h-2v1h-3v-2h-2v1h1v1h-3v-1h-1v-1h-1v-1h-2v-1h4v1h1v-1h1v1h1v-1h-1v-1h-1v-1h-1v-3h1v1h1v-1h1v-1h1v1h3zM9 24v1h1v-1zM17 24h1v1h-1zM24 24h1v1h-1zM12 25h1v1h-1zM15 25h1v2h-1zM18 25h1v3h1v1h-2v-1h-1v1h-1v1h-1v1h1v-1h1v1h2v1h-2v1h2v1h-5v-1h2v-1h-2v-3h1v-1h1v-1h1v-1h1zM26 26v3h3v-3zM31 26h3v1h-1v1h-1v1h-1zM1 27h7v7h-7zM11 27h1v1h1v-1h1v2h-2v1h-1zM27 27h1v1h-1zM2 28v5h5v-5zM9 28h1v4h-1zM21 28h2v1h-2zM3 29h3v3h-3zM17 29h1v1h-1zM23 29h1v1h-1zM33 29h1v2h-2v-1h1zM12 30h1v4h-1v-1h-1v-2h1zM27 30v1h1v-1zM20 32h1v1h-1zM9 33h1v1h-1zM21 33h1v1h-1zM32 33h1v1h-1z"/></svg>