<svg xmlns="http://www.w3.org/2000/svg" viewBox="0 0 35 35"><path d="M1 1h7v7h-7zM10 1h1v1h1v-1h1v1h1v3h-1v-1h-1v-1h-1v1h-1v1h1v1h1v-1h1v2h-1v1h-1v-1h-1v1h1v1h-2v-6h1zM15 1h1v1h-1zM17 1h1v1h-1zM20 1h3v1h-3zM24 1h1v1h-1zM27 1h7v7h-7zM2 2v5h5v-5zM16 2h1v1h-1zM19 2h1v1h-1zM25 2h1v2h-2v1h1v1h-2v-2h-2v-1h4zM28 2v5h5v-5zM3 3h3v3h-3zM15 3h1v1h-1zM29 3h3v3h-3zM16 4h1v1h1v1h-2v2h-1v-3h1zM19 4h1v1h-1zM21 5h1v1h-1zM20 6h1v1h-1zM22 6h1v1h-1zM25 6h1v3h-1v2h-2v-2h1v-1h1zM13 7h1v1h-1zM17 7h1v2h-1zM19 7h1v1h-1zM21 7h1v1h1v1h-2v1h1v2h1v1h-5v-1h-3v1h-2v-1h1v-1h-1v-1h1v-1h2v1h-1v1h2v-1h1v-1h1v3h2v-1h-1v-3h1zM23 7h1v1h-1zM1 9h1v1h1v-1h5v1h-1v1h4v-1h1v1h1v1h-3v3h-2v-1h-1v-1h2v-1h-4v2h-2v1h1v1h1v-2h1v1h2v1h-2v1h-4v-1h-1v-1h1v-2h1v-1h1v-1h1v-1h-1v1h-1v1h-1v1h-1zM27 9h5v1h2v1h-1v1h-1v1h-1v1h-3v-1h1v-2h1v1h1v-1h-1v-1h-2v2h-1v2h-1v-1h-2v-1h1v-1h1v-1h1zM33 12h1v1h-1zM15 13h1v1h-1zM17 13h1v1h-1zM23 13h1v1h-1zM11 14h1v2h1v-1h1v2h-1v1h-1v-1h-1zM14 14h1v1h-1zM16 14h1v1h1v1h-1v2h-1v1h1v-1h1v2h-1v1h-3v1h1v1h1v3h-1v-1h-1v-2h-1v1h-1v-2h1v-2h2v-1h-1v-1h1v-1h1v-1h-1v-1h1zM19 14h1v2h-1zM22 14h1v3h-1v2h1v-2h1v1h1v1h-1v1h1v-1h1v1h1v2h-2v-1h-3v-1h-1v-1h-1v1h-1v-2h1v-1h1v-2h1zM24 14h1v1h-1zM27 14h1v3h-1zM31 14h3v1h-1v1h-1v1h-2v-2h1zM8 16h2v1h1v3h-1v-1h-1v-2h-1zM24 16h1v1h-1zM1 17h1v1h2v1h1v1h-1v1h1v1h1v2h-1v2h-1v-1h-1v-2h-1v3h-1v-4h2v-1h-2zM7 17h1v1h-1zM18 17h1v1h-1zM26 17h1v1h1v-1h2v1h-1v1h-3zM33 17h1v2h-1v1h1v1h-3v1h1v1h-1v1h1v-1h1v1h1v1h-3v1h-1v3h1v1h-1v1h-1v1h3v1h-2v1h-7v-1h1v-1h1v1h1v-1h-1v-1h1v-1h-1v-1h-1v-1h-1v-3h1v1h1v-1h1v-1h1v1h3v-3h-1v-3h1v1h1v-1h-1v-1h3zM2 19v1h1v-1zM7 19h1v1h-1zM12 19h1v1h-1zM6 20h1v1h-1zM20 20h1v1h-1zM7 21h3v2h-1v1h-2v-1h1v-1h-1zM11 21h1v1h-1zM19 21h1v1h-1zM16 22h3v2h-1v-1h-2zM20 22h3v1h1v1h-1v1h-2v1h1v1h-2v-3h1v-1h-1zM24 22h1v1h-1zM27 22h1v2h-1zM33 22h1v1h-1zM10 23h1v1h-1zM25 23h1v1h-1zM6 24h1v1h-1zM17 24h1v1h-1zM24 24h1v1h-1zM7 25h5v1h1v-1h1v2h3v1h-4v-1h-2v1h-1v-1h-1v-1h-2zM18 25h1v3h2v2h1v2h-1v-1h-2v-1h1v-1h-2v1h-1v1h1v1h-1v2h-2v-1h-2v-1h1v-1h2v-2h1v-1h1v-1h-1v-1h1zM26 26v3h3v-3zM31 26h1v1h1v1h-1v1h-1zM33 26h1v1h-1zM1 27h7v7h-7zM27 27h1v1h-1zM2 28v5h5v-5zM9 28h1v1h4v1h-2v1h1v1h-1v2h-1v-3h-1v1h-1zM22 28h1v1h-1zM33 28h1v3h-3v-1h2zM3 29h3v3h-3zM23 29h1v1h-1zM24 30h1v1h-1zM27 30v1h1v-1zM20 32h1v1h-1zM22 32h1v1h-1zM9 33h1v1h-1zM18 33h1v1h-1zM21 33h1v1h-1zM32 33h1v1h-1z"/></svg>