<svg xmlns="http://www.w3.org/2000/svg" viewBox="0 0 35 35"><path d="M1 1h7v7h-7zM10 1h2v1h-2zM13 1h1v2h-2v-1h1zM17 1h1v3h-1v-1h-1v-1h1zM20 1h5v1h-1v1h-1v-1h-3zM27 1h7v7h-7zM2 2v5h5v-5zM19 2h1v1h-1zM28 2v5h5v-5zM3 3h3v3h-3zM9 3h1v5h1v-1h1v1h1v1h-1v2h-1v1h-2v-1h-1v-1h3v-1h-2zM11 3h1v1h-1zM15 3h1v1h-1zM20 3h3v1h-2v1h-2v-1h1zM24 3h1v1h-1zM29 3h3v3h-3zM13 4h1v1h-1zM16 4h1v1h2v1h-3v4h-1v1h2v-4h1v2h1v1h1v-1h-1v-3h2v1h-1v1h1v-1h1v1h1v-1h1v1h1v-1h1v2h-1v2h-1v1h-1v1h-5v1h-1v-1h-1v-1h-1v1h-2v-1h-1v-1h2v-2h1v-2h-1v1h-1v-2h1v-1h2zM23 4h1v1h1v1h-2v1h-1v-1h-1v-1h2zM25 4h1v1h-1zM11 5h2v1h-2zM1 9h1v1h1v2h-1v-1h-1zM3 9h5v1h-3v1h1v1h-1v1h1v-1h1v1h1v1h-1v1h-1v-1h-1v1h-1v1h1v1h-2v1h2v2h-1v-1h-2v-1h-1v-1h1v-1h-1v-1h2v-1h1v-1h-1v-1h1v-2h-1zM21 9v1h2v-1zM27 9h5v1h2v1h-1v1h1v1h-3v1h3v1h-1v1h-1v1h-1v1h2v-1h1v2h-1v2h-2v1h-3v-1h1v-2h1v1h1v-1h-1v-1h-1v1h-1v1h-1v-2h1v-1h-1v-3h1v1h2v-1h-1v-3h1v1h1v-1h-1v-1h-2v1h-1zM7 11h1v1h-1zM19 11v1h2v-1zM25 11h1v1h-1zM1 12h1v1h-1zM8 12h1v1h-1zM27 12h1v1h-1zM2 13h1v1h-1zM9 13h1v2h-2v-1h1zM12 13h1v1h1v3h2v-3h1v1h1v1h-1v2h-3v1h-1v1h-1v-2h-1v-1h1v-1h-2v-1h1v-1h1zM15 13h1v1h-1zM23 13h1v1h-1zM25 13h2v1h-2zM19 14h1v1h-1zM22 14h1v1h-1zM24 14h1v1h-1zM7 15h1v1h-1zM21 15h1v1h3v1h-1v1h-1v-1h-2zM6 16h1v1h3v1h-3v1h1v1h-1v1h2v1h1v1h-2v-1h-2v-1h-1v-1h1v-2h-1v-1h1zM19 16h1v1h-1zM18 17h1v1h-1zM20 17h1v1h1v1h-2v1h-1v-2h1zM26 17h1v1h-1zM10 18h1v2h-1v1h-1v-2h1zM17 18h1v1h-1zM24 18h1v1h-1zM14 19h1v1h1v2h3v1h1v1h1v-1h-1v-1h-1v-1h2v1h2v2h2v1h-1v1h-1v-1h-1v2h-3v1h4v1h-2v1h2v1h-1v1h-1v-1h-1v1h-3v1h2v1h-3v-2h-2v-2h1v-2h1v-1h1v-3h1v1h1v1h1v-1h-1v-1h-1v-1h-2v1h-1v-3h-1zM16 19h1v1h-1zM22 19h2v1h-1v1h-1zM25 19h1v2h1v1h1v1h1v1h-1v1h2v4h1v1h-1v1h-1v1h1v-1h2v2h-1v1h-3v-2h-2v-1h-2v-1h1v-1h-1v-1h-1v-1h1v-1h1v-1h2v-1h-1v-2h-1v-1h-1v-1h1zM1 20h1v1h1v1h-1v4h-1zM3 20h1v1h-1zM10 21h4v3h-1v1h-1v1h1v-1h3v1h-2v1h1v1h-1v1h-1v-2h-1v2h-1v1h-1v1h1v1h-2v-4h2v-2h-1v1h-1v-2h2v-1h-1v-1h2v-1h-2zM3 22h3v3h2v1h-3v-2h-1v-1h-1zM24 22h1v1h-1zM33 22h1v1h-1zM7 23h1v1h-1zM32 23h1v1h1v1h-4v-1h2zM8 24h1v1h-1zM3 25h1v1h-1zM26 26v3h3v-3zM31 26h3v1h-1v2h-2zM1 27h7v7h-7zM27 27h1v1h-1zM2 28v5h5v-5zM3 29h3v3h-3zM12 29h1v2h-2v-1h1zM18 29v1h-1v1h2v-1h1v-1zM23 29h1v1h-1zM27 30v1h1v-1zM32 30h2v1h-2zM23 31h1v1h1v1h1v1h-3v-1h-1v-1h1zM12 32h2v1h-2zM20 32h1v1h-1zM9 33h2v1h-2zM32 33h1v1h-1z"/></svg>