<svg xmlns="http://www.w3.org/2000/svg" viewBox="0 0 35 35"><path d="M1 1h7v7h-7zM10 1h2v4h-2v1h1v1h-1v2h-1v-6h1v1h1v-1h-1zM17 1h1v3h-1v-1h-1v-1h1zM19 1h4v1h1v1h-1v1h-3v-1h1v-1h-1v1h-1zM24 1h1v1h-1zM27 1h7v7h-7zM2 2v5h5v-5zM13 2h1v1h-1zM28 2v5h5v-5zM3 3h3v3h-3zM15 3h1v1h-1zM25 3h1v2h-1zM29 3h3v3h-3zM13 4h1v1h-1zM16 4h1v1h1v1h-2v5h1v-4h1v2h1v1h1v-2h1v-1h1v1h1v-2h1v3h1v2h-2v-2h-1v2h-3v1h1v1h-2v-1h-3v1h-1v-2h-2v-1h2v-1h1v-4h1zM19 4h1v1h-1zM23 4h1v1h-1zM12 5h1v1h1v2h-1v-1h-1zM21 5h1v1h-1zM24 5h1v1h-1zM19 6h2v1h-1v1h-1zM11 7h1v2h-1zM25 7h1v1h-1zM1 9h1v2h1v-2h5v1h-1v1h-1v1h-1v3h1v1h-2v-2h-2v-2h-1zM27 9h5v1h2v1h-1v3h1v1h-1v1h-1v1h-1v1h1v1h1v1h-1v1h-1v1h-2v-3h1v1h1v-1h-1v-1h-1v1h-2v-1h1v-3h2v-1h-1v-3h1v1h1v-1h-1v-1h-2v1h-1v1h1v1h-1v1h1v1h-2v-1h-1v1h-3v-1h1v-1h-1v-1h3v1h1v-1h-1v-1h1v-1h1zM9 10h2v1h1v1h-1v1h-1v1h-1v-1h-1v-1h1zM7 11h1v1h-1zM12 12h1v1h-1zM6 13h2v1h-1v1h-1zM11 13h1v1h2v1h1v1h1v-2h1v1h2v-1h1v3h-1v-1h-2v2h-2v4h3v1h-2v1h-1v-1h-2v-4h1v-3h-1v-1h-1v1h1v1h-2v1h-1v-4h1zM15 13h1v1h-1zM17 13h1v1h-1zM20 13h1v1h-1zM31 13v1h1v-1zM1 15h2v1h-1v2h-1zM7 15h1v1h-1zM21 15h1v1h5v2h-2v1h-1v1h-1v-1h-3v-2h1zM3 16h1v2h2v2h-1v2h-1v-1h-1v-1h1v-1h-1zM7 17h2v2h-1v-1h-1zM18 17h1v1h-1zM22 17v1h1v-1zM33 17h1v2h-1zM11 18h2v1h-1v4h1v1h2v1h-1v1h-1v1h-1v-2h-1v-2h-1v-1h1zM17 18h1v3h-2v-2h1zM7 19h1v1h-1zM9 19h1v1h-1zM19 19h1v1h-1zM26 19h1v1h-1zM1 20h1v6h-1zM6 20h1v1h2v1h-3zM21 20h2v1h-2zM25 20h1v1h1v1h1v1h-1v1h-2v-1h1v-1h-1zM19 21h1v1h-1zM33 21h1v2h-1zM3 22h1v1h-1zM20 22h3v1h1v4h1v-2h5v4h1v1h3v1h-2v2h-2v1h-7v-1h-1v-1h3v1h1v-1h1v1h1v-1h-1v-1h1v-1h-1v1h-2v-2h-1v-1h-1v-3h-2v1h1v1h-2v-2h-1v-1h-1v-1h2v1h1v-1h-1zM24 22h1v1h-1zM31 22h1v1h-1zM7 23h1v1h-1zM9 23h1v4h-1zM29 23h1v1h-1zM32 23h1v1h1v1h-4v-1h2zM3 24h3v1h-1v1h-1v-1h-1zM17 24h1v1h-1zM7 25h1v1h-1zM15 25h1v1h-1zM18 25h1v3h1v1h-2v1h-1v1h1v1h-1v1h2v1h-3v-1h-1v1h-1v-2h1v-1h-1v-2h1v1h1v-3h1v1h1v-1h-1v-1h1zM14 26h1v2h-1zM26 26v3h3v-3zM31 26h1v1h1v2h-2zM33 26h1v1h-1zM1 27h7v7h-7zM11 27h1v2h-1zM27 27h1v1h-1zM2 28v5h5v-5zM9 28h1v1h1v1h-1v1h1v-1h1v1h1v1h-1v1h-1v-1h-2zM13 28h1v1h-1zM22 28h1v1h-1zM3 29h3v3h-3zM23 29h1v1h-1zM18 30h5v1h-1v1h-1v-1h-1v1h1v1h-2v-2h-1zM29 31v1h2v-1zM9 33h2v1h-2zM21 33h1v1h-1zM32 33h1v1h-1z"/></svg>