<svg xmlns="http://www.w3.org/2000/svg" viewBox="0 0 35 35"><path d="M1 1h7v7h-7zM10 1h2v3h-1v-2h-1zM15 1h1v1h-1zM17 1h1v1h-1zM20 1h5v1h-1v1h-1v1h-1v-2h-2zM27 1h7v7h-7zM2 2v5h5v-5zM13 2h1v1h-1zM16 2h1v1h-1zM19 2h1v1h-1zM28 2v5h5v-5zM3 3h3v3h-3zM9 3h1v1h1v1h-1v3h1v-1h1v1h1v1h3v2h1v-1h1v-1h1v3h4v1h-2v1h-1v-1h-2v1h-1v-2h-2v1h-1v-1h-1v-1h-1v-2h-3zM15 3h1v1h-1zM24 3h1v1h-1zM29 3h3v3h-3zM13 4h1v1h-1zM16 4h1v1h1v1h-2v2h-1v-1h-1v1h-1v-2h2v-1h1zM19 4h2v1h-2zM23 4h1v1h1v1h-1v4h1v1h-1v1h-1v-1h-3v-3h1v-1h1v1h1v-2h-2v-1h2zM18 6h1v1h-1zM20 6h1v1h-1zM25 6h1v2h-1zM17 7h1v2h-1zM19 7h1v1h-1zM1 9h1v2h-1zM3 9h5v1h-1v1h-1v-1h-2v1h-1zM22 9v1h1v-1zM25 9h1v1h-1zM27 9h5v2h1v1h-1v1h-1v1h-3v-1h1v-2h1v1h1v-1h-1v-1h-2v1h-1zM9 10h2v1h1v1h1v2h-1v-1h-1v1h-1v-1h-1v1h-2v-1h1v-1h1zM33 10h1v1h-1zM5 11h1v1h1v1h-4v-1h2zM7 11h1v1h-1zM25 11h2v1h-1v1h-1zM27 12h1v1h-1zM33 12h1v3h-1v1h-1v1h-1v1h2v-1h1v2h-1v1h-1v1h-1v1h-3v-1h1v-2h1v1h1v-1h-1v-1h-1v1h-1v2h-1v-2h-1v-2h1v1h1v-2h-1v-1h-1v-2h1v1h1v1h3v-1h2zM2 13h1v1h1v1h-1v1h1v1h2v-1h1v1h1v1h-2v1h2v1h-1v1h-1v-1h-1v1h-1v-1h-1v1h-2v-4h1v2h1v-2h-1zM15 13h1v1h-1zM23 13h2v2h-3v-1h1zM9 14h1v1h1v1h-2zM11 14h1v1h-1zM13 14h1v1h-1zM16 14h1v1h2v1h-2v2h-1v1h1v-1h1v3h-1v1h1v1h-3v-1h1v-2h-1v-3h1zM19 14h1v1h-1zM7 15h1v1h-1zM14 15h1v1h-1zM21 15h1v1h1v1h-2zM25 15h1v1h-1zM8 16h1v1h-1zM11 16h3v1h-1v1h-1v-1h-1zM24 16h1v1h-1zM10 17h1v1h1v1h-1v1h3v1h-1v3h-1v-3h-1v2h-1v-1h-1v-1h-1v-1h2zM18 17h1v1h-1zM20 17h1v1h1v2h1v1h-3v-1h1v-1h-1v1h-1v-2h1zM23 17h1v1h-1zM8 18h1v1h-1zM24 18h1v1h-1zM7 21h1v1h-1zM14 21h1v1h-1zM19 21h1v1h-1zM26 21h1v1h1v2h-1v-1h-1zM32 21h1v1h-1zM1 22h2v1h-1v3h-1zM8 22h1v1h-1zM20 22h3v1h-1v1h1v1h-1v3h-1v-1h-1v-3h1v-1h-1zM24 22h1v1h-1zM31 22h1v1h1v1h1v1h-3v1h-1v3h1v1h3v1h-5v1h3v1h-1v1h-3v-2h-1v-1h1v-1h-1v1h-1v1h-3v-1h1v-1h1v-1h-1v-1h-1v-3h1v-1h1v1h1v-1h1v1h3v-1h-1v-1h2zM33 22h1v1h-1zM4 23h4v1h-1v1h2v1h-3v-1h-1v1h-2v-1h1zM9 23h1v2h-1zM14 23h1v1h1v1h-2zM23 23h1v1h-1zM25 23h1v1h-1zM11 24h1v1h-1zM17 24h1v1h-1zM12 25h1v1h-1zM18 25h1v3h2v2h2v1h-1v1h-1v-1h-2v-1h1v-1h-2v-2h-1v-1h1zM9 26h1v1h-1zM11 26h1v2h-2v-1h1zM13 26h1v1h-1zM15 26h1v1h1v1h-2v3h-2v-3h1v-1h1zM26 26v3h3v-3zM31 26h1v1h1v1h1v1h-3zM33 26h1v1h-1zM1 27h7v7h-7zM27 27h1v1h-1zM2 28v5h5v-5zM9 28h1v2h1v-1h1v2h-1v2h-1v-1h-1zM22 28h1v1h-1zM3 29h3v3h-3zM16 29h2v1h-1v1h2v1h-2v1h2v1h-3v-1h-1v-1h1zM23 29h1v1h-1zM12 32h1v1h-1zM20 32h1v1h-1zM22 32h1v1h-1zM9 33h1v1h-1zM11 33h1v1h-1zM23 33h3v1h-3zM32 33h1v1h-1z"/></svg>