<svg xmlns="http://www.w3.org/2000/svg" viewBox="0 0 35 35"><path d="M1 1h7v7h-7zM10 1h1v2h-1zM12 1h2v2h-1v-1h-1zM17 1h1v1h-1zM20 1h3v3h-1v-2h-2zM24 1h1v1h-1zM27 1h7v7h-7zM2 2v5h5v-5zM16 2h1v1h1v1h-3v-1h1zM19 2h1v1h-1zM25 2h1v1h-1zM28 2v5h5v-5zM3 3h3v3h-3zM9 3h1v1h2v-1h1v2h-2v2h-1v1h1v-1h1v1h1v1h-4zM20 3h1v2h-2v-1h1zM24 3h1v3h-2v-2h1zM29 3h3v3h-3zM14 5h4v1h-2v5h1v-1h1v-1h1v3h4v1h-5v1h-1v1h1v1h-1v1h2v1h-1v3h-3v3h1v2h-1v-1h-1v-2h-1v-2h1v-1h1v-1h2v-1h-1v-4h-1v-1h1v-1h-1v1h-2v-1h1v-1h-2v-1h2v-1h1v-3h-1zM21 5h1v1h-1zM13 6h1v2h-1zM18 6h3v1h-1v1h1v-1h1v1h1v-1h1v1h1v-1h1v3h-1v-1h-1v1h1v1h-5v-2h-1v-2h-1zM22 6h1v1h-1zM17 7h1v2h-1zM1 9h1v2h1v5h-2v-1h1v-1h-1v-1h1v-1h-1zM3 9h5v1h-1v1h-1v-1h-1v1h-2zM21 9v1h2v-1zM27 9h5v2h1v1h-1v1h-1v2h-1v-1h-1v-3h1v1h1v-1h-1v-1h-2v1h-2v-1h1zM9 10h2v1h-1v1h1v1h-2zM33 10h1v1h-1zM5 11h1v1h-1zM7 11h1v1h-1zM25 11h1v1h-1zM4 12h1v1h-1zM33 12h1v1h-1zM5 13h3v1h-1v1h-1v-1h-1zM11 13h1v1h-1zM23 13h1v1h-1zM26 13h1v1h1v1h-1v3h1v-3h2v1h2v1h-1v1h2v-1h1v2h-1v1h-1v1h-1v1h-3v-1h1v-2h1v1h1v-1h-1v-1h-1v1h-1v1h-1v-1h-1zM32 13h1v1h1v1h-1v1h-1zM9 14h1v1h-1zM13 14h1v1h-1zM19 14h1v2h-1zM22 14h1v1h1v1h1v3h-1v1h-1v-1h-1v1h1v1h-2v-2h-1v1h-1v-2h1v-1h1v-2h1zM24 14h1v1h-1zM7 15h1v1h-1zM10 15h2v1h-2zM14 15h1v2h-1zM5 16h1v1h-1zM4 17h1v1h-1zM7 17h2v1h-2zM10 17h1v1h1v1h1v-1h-1v-1h2v1h1v1h-1v1h-3v-1h-1zM22 17v1h1v-1zM1 18h2v1h1v1h2v1h-1v1h1v1h-1v1h-1v-1h-2v3h-1v-6h1v-1h-1zM6 18h1v1h1v1h-2zM24 20h2v1h1v1h1v2h-1v-1h-1v-1h-1v1h-1zM2 21v1h2v-1zM7 21h1v1h-1zM9 21h1v2h-1zM19 21h1v1h-1zM33 21h1v2h-1zM11 22h1v1h1v3h-1v-2h-1v1h-2v1h-6v-2h1v1h4v-1h-1v-1h2v1h1v-1h1zM16 22h2v1h-2zM20 22h2v1h1v2h-1v3h-1v-1h-2v1h1v1h-2v-1h-2v-1h1v-1h1v-1h1v1h1v-1h-1v-1h2v-1h-1zM31 22h1v1h1v1h1v1h-4v-1h1zM18 23h1v1h-1zM25 23h1v1h-1zM29 23h1v1h-1zM17 24h1v1h-1zM24 24h1v1h-1zM26 24h1v1h1v-1h1v1h1v4h1v2h-2v1h2v-1h1v2h-2v1h-7v-1h1v-1h1v1h3v-1h-1v-1h1v-1h-1v1h-3v-1h1v-1h-1v-1h-1v-3h1v2h1v-2h1zM9 26h3v1h-3zM13 26h1v1h-1zM26 26v3h3v-3zM31 26h3v1h-1v2h-2zM1 27h7v7h-7zM27 27h1v1h-1zM2 28v5h5v-5zM9 28h1v1h1v1h-1v2h-1zM14 28h2v1h-2zM22 28h1v1h-1zM3 29h3v3h-3zM12 29h2v1h-1v1h1v1h1v1h-2v-1h-1zM17 29h1v1h-1zM20 29h1v1h2v1h-1v1h-1v-1h-1v1h1v1h-2v-1h-2v2h-1v-2h-1v-2h2v1h2v-1h1zM23 29h1v1h-1zM32 30h2v1h-2zM10 32h2v1h-2zM22 32h1v1h-1zM9 33h1v1h-1zM12 33h1v1h-1zM18 33h1v1h-1zM21 33h1v1h-1zM32 33h1v1h-1z"/></svg>