<svg xmlns="http://www.w3.org/2000/svg" viewBox="0 0 35 35"><path d="M1 1h7v7h-7zM9 1h1v1h1v2h1v1h-3v-1h1v-1h-1zM12 1h2v1h-1v1h-1zM15 1h1v3h-2v1h-1v-2h2zM17 1h1v1h1v1h-1v1h-1zM19 1h3v1h1v1h-2v-1h-2zM23 1h2v2h-1v-1h-1zM27 1h7v7h-7zM2 2v5h5v-5zM28 2v5h5v-5zM3 3h3v3h-3zM19 3h1v5h1v1h-1v1h-1v1h-2v-1h1v-1h-1v1h-2v-3h-1v1h-1v-2h4v-1h2zM23 3h1v2h-1zM25 3h1v3h-1zM29 3h3v3h-3zM16 4h1v1h-1zM22 5h1v1h-1zM10 6h2v2h1v1h1v1h1v2h-1v-1h-1v1h1v1h-2v-1h-1v1h1v1h1v1h-1v1h-1v-2h-1v2h-1v-2h-2v-1h2v-2h2v-1h1v-1h-1v-2h-1zM18 6v2h1v-2zM23 6h1v2h-1zM9 7h1v2h-1zM16 7v1h1v-1zM21 7h1v1h-1zM25 7h1v1h-1zM1 9h1v1h-1zM3 9h2v1h-2zM6 9h3v1h-3zM10 9h1v1h-1zM22 9h1v1h-1zM24 9h1v2h1v-1h1v-1h1v2h-1v1h-1v1h-2v-1h-1v-2h1zM30 9h1v1h1v1h-1v5h1v2h-1v1h-1v2h-5v-1h1v-1h1v1h2v-4h-1v-5h2zM32 9h2v4h-1v2h-1v-4h1v-1h-1zM2 10h1v1h-1zM5 10h1v1h-1zM20 10h2v1h-2zM3 11h2v1h1v2h-1v1h-1v1h-1v1h-1v-1h-1v-2h3v-1h-3v-1h2zM6 11h2v1h-2zM19 11h1v1h-1zM18 12h1v1h-1zM29 12v1h1v-1zM15 13h1v3h1v1h-1v1h-1v1h1v-1h1v1h1v1h-2v2h-1v-1h-1v-2h-2v1h1v1h-2v-1h-1v1h1v1h-1v2h-5v1h-1v-2h5v-1h-2v-1h1v-1h1v-1h-1v-1h-1v1h-3v-1h2v-1h-1v-1h2v1h3v1h2v-2h1v-1h1v2h1v-2h-1v-1h1zM17 13h1v1h-1zM20 13h1v1h-1zM23 13h1v3h1v1h2v-1h1v3h-1v-1h-1v1h-2v-1h-2v1h-1v-1h-1v3h-2v-1h1v-4h1v1h1v-1h-1v-1h1v-1h1v1h1zM26 13h1v3h-2v-2h1zM6 14h1v1h-1zM29 14v1h1v-1zM7 15h1v1h-1zM10 16h1v1h-1zM1 18h1v1h1v2h-2zM33 18h1v1h-1zM7 19h1v1h-1zM31 19h2v1h1v5h-1v-1h-2v-1h2v-1h-3v-1h2v-1h-1zM4 20h1v1h1v1h-2v1h-3v-1h2v-1h1zM6 20h1v1h-1zM21 20h1v1h-1zM13 21h1v1h-1zM17 21h1v2h-1v2h-2v-1h1v-2h1zM22 21h2v1h-2zM11 22h2v1h1v-1h1v2h-1v1h1v1h2v-1h2v1h-1v1h-3v1h-1v-2h-1v2h-1v-1h-2v1h1v2h-1v-1h-1v-4h1v1h1v-1h2v-1h-2zM20 22h2v1h-2zM24 22h1v1h2v-1h1v2h-2v1h3v-2h1v1h1v1h-1v1h1v1h-1v3h-6v1h2v2h-1v-1h-2v-2h-1v3h-1v1h-4v-1h1v-1h-2v-1h1v-1h-3v-1h4v-2h2v-2h1v-1h1v2h-1v1h1v-1h1v3h1v-3h1v-2h-1zM18 23h2v2h-1v-1h-1zM22 23h1v1h-1zM2 24h1v1h-1zM10 24h1v1h-1zM23 24h1v2h-1zM1 25h1v1h-1zM3 25h1v1h-1zM6 25h2v1h-2zM26 26v3h3v-3zM32 26h1v1h-1zM1 27h7v7h-7zM27 27h1v1h-1zM2 28v5h5v-5zM13 28h1v1h-1zM31 28h1v1h1v-1h1v3h-1v-1h-1v2h-2v-1h1zM3 29h3v3h-3zM12 29h1v2h1v1h1v2h-1v-1h-1v1h-1v-3h-1v-1h1zM20 29v1h-2v1h2v1h1v-3zM9 30h1v1h1v3h-2v-1h1v-1h-1zM27 31h2v1h-2zM29 32h1v1h-1zM33 32h1v1h-1zM22 33h1v1h-1zM24 33h1v1h-1zM31 33h1v1h-1z"/></svg>