<svg xmlns="http://www.w3.org/2000/svg" viewBox="0 0 35 35"><path d="M1 1h7v7h-7zM11 1h1v1h1v1h1v1h-3v1h-1v4h-1v-6h1v-1h1zM17 1h1v3h-1v-1h-1v-1h1zM20 1h2v1h-2zM24 1h1v1h-1zM27 1h7v7h-7zM2 2v5h5v-5zM19 2h1v1h-1zM23 2h1v1h-1zM25 2h1v1h-1zM28 2v5h5v-5zM3 3h3v3h-3zM15 3h1v1h-1zM22 3h1v1h-1zM24 3h1v1h1v1h-1v1h-2v-2h1zM29 3h3v3h-3zM16 4h1v1h2v1h-3v2h-1v-1h-1v1h-1v-1h-1v1h-1v-2h2v-1h3zM19 4h2v1h-2zM21 5h1v1h-1zM19 6h2v1h-1v1h1v-1h1v1h1v1h-1v2h-3v1h1v1h-2v1h-1v1h2v1h-2v2h-1v-1h-1v1h1v1h-2v-1h-1v-1h1v-2h1v1h1v-2h-1v-1h1v-1h-1v1h-1v-1h-1v-1h1v-1h-2v-2h1v1h3v2h1v1h1v-1h-1v-4h1v2h1v1h1v-1h-1zM22 6h1v1h-1zM23 7h1v1h-1zM25 7h1v3h-1v1h-1v-1h-1v-1h1v-1h1zM1 9h1v2h-1zM3 9h5v1h-1v1h-1v-1h-1v1h1v1h-1v1h-1v-1h-2v-1h2v-1h-1zM27 9h5v2h1v1h-1v1h-1v1h1v-1h1v1h1v1h-1v1h-1v-1h-2v-1h-2v-1h1v-2h1v1h1v-1h-1v-1h-2v1h-2v-1h1zM10 10h2v2h1v3h-1v-1h-1v-3h-1zM33 10h1v1h-1zM7 11h3v1h-3zM6 12h1v1h-1zM21 12h2v1h-2zM24 12h3v2h1v1h-2v-1h-1v1h-1v2h3v1h-2v1h-3v1h-1v-1h-1v1h-1v-2h1v-1h1v1h2v-1h-2v-2h1v1h1v-3h1zM7 13h3v2h-1v1h-2v-1h1v-1h-1zM20 13h1v1h-1zM3 14h4v1h-4zM19 14h1v1h-1zM1 15h2v1h2v1h-3v-1h-1zM10 15h2v1h-1v1h1v1h1v2h3v2h-1v-1h-1v1h-1v5h-1v-8h-3v-1h-3v-1h4zM25 15h1v1h-1zM28 15h2v1h-2zM30 16h2v1h-1v1h1v1h1v1h-1v1h-1v1h-2v-3h1v1h1v-1h-1v-1h-1v1h-2v-1h1v-1h2zM1 17h1v2h-1zM18 17h1v1h-1zM33 17h1v2h-1zM3 18h3v1h-3zM17 18h1v2h-2v-1h1zM7 19h2v1h-2zM2 20h1v1h-1zM6 20h1v1h1v1h-3v-1h1zM10 20h1v3h-1v2h1v3h-1v-1h-1v-1h-2v-1h2v-1h-2v-1h1v-1h2zM20 20h1v1h-1zM22 20h1v1h-1zM24 20h2v1h1v1h1v1h-1v1h1v1h2v4h1v2h-2v1h2v-1h1v2h-2v1h-2v-1h-1v-2h1v-1h-1v1h-1v1h-1v-1h-1v-1h1v-1h-1v-1h-1v-1h1v-1h1v-1h-1v-1h1v-1h1v-1h-1v-1h-1zM1 21h1v5h-1zM19 21h1v1h-1zM33 21h1v2h-1zM14 22h1v1h1v2h-2zM16 22h3v1h-3zM20 22h2v1h1v2h-2v1h1v1h-2v-2h-1v-2h1v1h1v-1h-1zM24 22h1v1h-1zM31 22h1v1h1v1h1v1h-4v-2h1zM4 23h2v1h1v1h-1v1h-3v-1h2v-1h-1zM17 24h1v1h-1zM18 25h1v3h4v1h-5v-1h-1v1h-1v-2h1v-1h1zM23 25h1v1h-1zM14 26h2v1h-2zM26 26v3h3v-3zM31 26h1v1h1v1h-1v1h-1zM33 26h1v1h-1zM1 27h7v7h-7zM13 27h1v1h-1zM27 27h1v1h-1zM2 28v5h5v-5zM9 28h1v1h1v1h2v1h1v-2h1v1h2v1h1v-1h5v1h1v1h-1v1h-1v-1h-1v-1h-1v1h1v1h-2v-1h-2v1h2v1h-3v-1h-1v-1h-6zM11 28h2v1h-2zM3 29h3v3h-3zM17 29h1v1h-1zM23 29h1v1h-1zM32 29h1v1h1v1h-2zM9 33h1v1h-1zM11 33h2v1h-2zM14 33h1v1h-1zM21 33h1v1h-1zM23 33h4v1h-4zM32 33h1v1h-1z"/></svg>