<svg xmlns="http://www.w3.org/2000/svg" viewBox="0 0 35 35"><path d="M1 1h7v7h-7zM10 1h3v1h-3zM17 1h1v2h-2v-1h1zM19 1h4v3h-3v-1h1v-1h-1v1h-1zM24 1h1v1h-1zM27 1h7v7h-7zM2 2v5h5v-5zM13 2h1v1h-1zM28 2v5h5v-5zM3 3h3v3h-3zM9 3h1v3h1v1h-1v2h-1zM15 3h1v1h-1zM24 3h1v1h-1zM29 3h3v3h-3zM11 4h3v1h4v1h-3v1h-1v-1h-1v1h-1v-2h-1zM19 4h1v1h-1zM23 4h1v1h1v1h-4v-1h2zM18 6h3v1h-1v1h1v-1h1v1h1v-1h1v3h1v1h-1v3h-1v-1h-2v-2h-2v1h1v1h-2v-1h-3v1h-2v-2h1v-1h-1v-1h2v-2h1v3h-1v1h2v-1h1v-1h1v1h1v-1h-1v-2h-1zM11 7h1v1h-1zM13 7h1v1h-1zM17 7h1v2h-1zM25 7h1v1h-1zM1 9h1v1h1v1h1v2h-1v-1h-1v-1h-1zM3 9h5v1h-2v2h1v1h1v1h-2v-1h-1v-2h-1v-1h-1zM11 9h1v1h-1zM21 9v1h2v-1zM25 9h1v1h-1zM27 9h5v2h1v2h-2v2h-1v-1h-1v-3h1v1h1v-1h-1v-1h-2v1h-1zM10 10h1v3h-1v1h-1v-1h-1v-1h-1v-1h2v1h1zM33 10h1v1h-1zM22 11v1h1v-1zM1 12h1v1h-1zM25 12h1v1h-1zM2 13h1v1h-1zM15 13h3v1h-1v1h1v-1h2v1h-1v1h-2v2h-1v1h-3v-1h1v-1h2v-1h-1v-1h1v-1h-1zM20 13h1v1h-1zM26 13h1v1h1v1h1v1h-3v1h-1v-2h1zM33 13h1v2h-1v1h-1v1h-1v1h2v-1h1v2h-1v1h-1v1h-1v1h1v1h-2v-1h-1v-3h1v1h1v-1h-1v-1h-1v1h-2v-1h1v-1h2v-1h1v-1h1v-1h1zM1 14h1v1h-1zM4 14h1v1h-1zM8 14h1v1h1v1h1v-2h1v3h-2v2h-1v-2h-1v-1h-1v1h1v1h-1v1h-1v-2h-1v-1h1v-1h2zM22 14h1v1h1v1h-1v1h-2v-2h1zM24 14h1v1h-1zM3 15h1v2h-1v1h1v-1h1v2h-4v-3h2zM13 15h1v1h-1zM18 17h1v1h-1zM20 17h1v1h2v-1h2v2h-1v1h-1v-1h-1v1h1v1h-3v-1h1v-1h-1v1h-1v-2h1zM26 17h1v1h-1zM11 18h1v1h-1zM17 18h1v1h-1zM5 19h1v2h-1zM7 19h2v2h-1v-1h-1zM16 19h1v1h-1zM25 19h1v1h-1zM2 20h2v1h1v1h-3zM11 20h1v2h-3v-1h2zM14 20h2v2h-1v-1h-1zM17 20h1v1h-1zM6 21h2v1h-2zM13 21h1v1h-1zM19 21h1v1h-1zM25 21h2v1h1v2h-1v-1h-1v-1h-1zM32 21h1v1h-1zM1 22h1v4h-1zM5 22h1v1h-1zM14 22h1v2h-1zM16 22h2v1h-2zM20 22h2v2h1v1h-2v1h1v1h-3v1h4v1h-5v1h-1v-2h1v-1h-1v-1h1v-1h1v1h1v-2h1v-1h-1zM24 22h1v1h-1zM33 22h1v1h-1zM3 23h2v2h-1v1h-1zM7 23h1v1h-1zM9 23h1v1h-1zM11 23h1v1h1v1h-2zM19 23h1v1h-1zM25 23h1v1h-1zM29 23h1v1h-1zM32 23h1v1h1v1h-3v1h-1v3h1v1h-1v1h-1v1h1v-1h1v-1h1v-1h-1v-3h1v1h1v2h1v2h-2v2h-2v1h-2v-2h-1v-1h1v-1h-1v1h-1v1h-1v-1h-1v-1h1v-1h-1v-1h-1v-1h1v-1h-1v-1h5v-1h1v1h1v-1h2zM6 24h1v1h-1zM8 24h1v1h2v1h-1v1h-1v-1h-2v-1h1zM17 24h1v1h-1zM5 25h1v1h-1zM15 25h1v1h-1zM11 26h1v2h1v1h-2zM14 26h1v3h-1v-1h-1v-1h1zM26 26v3h3v-3zM33 26h1v1h-1zM1 27h7v7h-7zM16 27h1v1h-1zM27 27h1v1h-1zM2 28v5h5v-5zM9 28h1v1h1v1h-1v2h-1zM3 29h3v3h-3zM13 29h1v1h1v-1h1v1h1v1h1v1h-1v2h-2v-2h1v-1h-1v1h-1v1h-1zM23 29h1v1h-1zM11 30h1v2h-1zM18 30h4v1h1v1h1v1h2v1h-3v-1h-1v-1h-1v-1h-3zM10 32h1v2h-2v-1h1zM20 32h1v1h-1zM26 32h1v1h-1zM12 33h1v1h-1zM18 33h1v1h-1zM32 33h1v1h-1z"/></svg>