<svg xmlns="http://www.w3.org/2000/svg" viewBox="0 0 35 35"><path d="M1 1h7v7h-7zM11 1h1v1h-1zM13 1h1v4h5v1h-9v2h1v-1h1v1h1v1h-4v-6h1v1h2v1h1zM15 1h1v1h-1zM17 1h1v3h-3v-1h1v-1h1zM19 1h3v1h-2v1h-1zM23 1h2v1h-1v2h2v1h-1v1h-1v-1h-1v-1h-1v-1h1zM27 1h7v7h-7zM2 2v5h5v-5zM25 2h1v1h-1zM28 2v5h5v-5zM3 3h3v3h-3zM29 3h3v3h-3zM19 4h1v1h-1zM21 5h2v1h1v2h-1v-1h-1v-1h-1zM19 6h2v1h-1v1h-1zM25 6h1v2h-1zM13 7h1v1h-1zM15 7h1v3h-1v1h2v1h-2v1h-1v-3h-1v-1h2zM17 7h1v2h-1zM21 7h1v1h1v1h-1v1h1v1h-3v-3h1zM24 8h1v1h1v1h-1v1h-1v-1h-1v-1h1zM1 9h1v4h-1zM3 9h5v1h-2v2h1v1h1v-1h1v-1h1v-1h2v1h-1v1h-1v1h1v2h-2v1h-2v-1h1v-1h-1v1h-3v-1h2v-1h-2v-1h1v-1h-1v1h-1zM18 9h1v3h2v1h-3v1h-1v1h2v1h-2v1h2v1h-1v3h-1v1h1v1h-2v-1h-1v1h-1v-2h2v-1h-1v-1h2v-1h-1v-1h-1v-2h1v-1h-1v-1h2v-1h1v-1h-1v-1h1zM27 9h5v2h1v1h-1v1h-1v1h-3v-1h1v-2h1v1h1v-1h-1v-1h-2v3h-1v-2h-1v-1h1zM8 10h1v1h-1zM33 10h1v1h-1zM7 11h1v1h-1zM12 11h1v1h-1zM23 11h1v1h1v-1h1v2h1v1h-2v-1h-1v1h-1v-1h-1v-1h1zM11 12h1v1h-1zM33 12h1v1h-1zM2 13h2v1h-1v1h-2v-1h1zM12 13h1v2h-1zM32 13h1v1h1v1h-1v1h-1zM14 14h1v1h-1zM19 14h1v1h-1zM24 14h1v1h-1zM27 14h1v1h2v1h2v1h-1v1h2v-1h1v2h-1v1h-1v1h-1v1h-2v-3h1v1h1v-1h-1v-1h-1v1h-2v1h-1v1h-1v-2h1v-1h-1v-1h1v-1h1v2h1v-2h-1zM21 15h2v1h2v1h-1v1h1v1h-2v-2h-2zM25 15h1v1h-1zM1 16h1v1h-1zM3 16h2v1h-1v1h-1v1h-1v-2h1zM6 16h1v1h1v1h-2zM11 16h3v2h-1v1h-1v2h-1v-1h-1v-1h-1v1h-2v1h1v1h-1v1h-2v-1h1v-2h-2v-1h4v-1h1v-1h1v1h1zM19 16h1v1h-1zM20 17h1v1h1v1h-2zM1 19h1v1h-1zM19 19h1v1h-1zM13 20h1v1h-1zM20 20h4v1h-3v1h2v1h-1v1h1v1h-2v1h1v1h-2v-2h-1v-1h2v-1h-1v-1h-1v-1h1zM27 20h1v1h-1zM3 21h1v3h1v2h-1v-1h-1v-2h-1v3h-1v-4h2zM10 21h1v1h-1zM12 21h1v1h-1zM26 21h1v1h-1zM32 21h1v1h-1zM8 22h1v1h-1zM24 22h1v1h-1zM27 22h1v1h-1zM31 22h1v1h1v1h1v1h-4v4h1v1h3v1h-5v1h3v1h-2v1h-2v-1h-1v-2h1v-1h-1v1h-1v-1h-1v-1h-1v-1h-1v-1h1v-1h1v-1h3v-1h3zM33 22h1v1h-1zM7 23h1v1h-1zM9 23h1v1h-1zM11 23h1v1h2v1h1v-1h1v3h1v1h-2v2h2v1h2v-1h3v2h-1v-1h-1v1h-3v1h2v1h-4v-1h1v-2h-1v1h-1v-4h-1v1h-1v-2h1v-2h-2zM18 23h1v1h-1zM6 24h1v1h3v1h1v3h-1v3h-1v-4h1v-1h-1v-1h-3zM17 24h1v1h-1zM24 24h1v1h-1zM18 25h1v3h4v1h-5v-2h-1v-1h1zM23 25h1v1h-1zM14 26v1h1v-1zM26 26v3h3v-3zM31 26h1v1h1v1h1v1h-3zM33 26h1v1h-1zM1 27h7v7h-7zM27 27h1v1h-1zM2 28v5h5v-5zM3 29h3v3h-3zM11 29h1v1h-1zM17 29h1v1h-1zM23 29h1v1h-1zM10 32h1v1h-1zM12 32h1v2h-1zM20 32h1v1h-1zM22 32h3v1h2v1h-4v-1h-1zM9 33h1v1h-1zM32 33h1v1h-1z"/></svg>