<svg xmlns="http://www.w3.org/2000/svg" viewBox="0 0 35 35"><path d="M1 1h7v7h-7zM12 1h1v1h-1zM15 1h1v1h-1zM17 1h1v1h-1zM20 1h3v1h1v1h1v1h-1v1h-1v-1h-1v-1h-1v-1h-1zM24 1h1v1h-1zM27 1h7v7h-7zM2 2v5h5v-5zM11 2h1v1h-1zM16 2h1v3h1v1h-2v4h-1v1h2v-4h1v2h1v3h2v1h-3v-1h-1v1h-1v-1h-1v1h-1v-1h-1v-2h-1v2h-1v-3h1v-1h1v1h2v-2h-1v-1h1v-1h1v-1h-1v-1h1zM19 2h1v1h-1zM28 2v5h5v-5zM3 3h3v3h-3zM9 3h2v1h-1v1h1v1h-1v2h1v1h-2zM12 3h2v1h-2zM20 3h1v2h-2v-1h1zM29 3h3v3h-3zM11 4h1v1h-1zM12 5h1v1h-1zM21 5h1v1h-1zM24 5h1v1h-1zM19 6h2v1h-1v1h1v-1h1v1h1v-1h1v3h-1v-1h-2v1h2v1h-3v-2h-1zM11 7h1v1h-1zM13 7h1v1h-1zM25 7h1v1h-1zM1 9h1v2h1v1h2v1h1v1h-2v-1h-2v-1h-1zM3 9h5v1h-1v1h1v1h-2v-2h-1v1h-2zM25 9h1v1h-1zM27 9h5v2h1v1h-1v1h-1v1h1v-1h1v1h1v1h-1v1h-1v-1h-1v1h1v1h-2v-1h-3v-2h1v1h2v-1h-1v-3h1v1h1v-1h-1v-1h-2v2h-1zM8 10h2v1h-2zM24 10h1v1h-1zM33 10h1v1h-1zM8 12h1v2h-2v-1h1zM12 12h1v1h-1zM22 12h2v2h1v1h-1v2h1v2h-1v-1h-1v-1h-1v1h1v1h-3v1h-1v-2h1v-1h1v-2h2v-2h-1zM25 12h1v1h-1zM1 13h1v3h-1zM10 13h2v1h-1v2h4v1h-2v2h-2v-1h1v-1h-1v1h-1v1h-1v-2h1v-2h-1v-1h1zM13 13h1v2h-2v-1h1zM15 13h1v1h-1zM17 13h1v1h-1zM26 13h1v1h-1zM3 14h1v2h-1zM16 14h1v1h1v1h-1v1h2v1h-1v1h-1v-1h-1v1h-1v-2h1zM19 14h1v1h-1zM5 15h4v2h-1v-1h-3zM25 15h1v1h1v2h1v-1h2v1h-1v1h-1v2h-1v-1h-2v-1h1v-2h-1zM2 16h1v1h-1zM4 16h1v1h-1zM19 16h1v1h-1zM5 17h3v1h-2v1h-1v1h-1v-1h-3v-1h4zM33 17h1v2h-1v1h-1v1h-1v2h2v1h1v1h-4v-1h-1v-1h1v-1h-1v-3h1v1h1v-1h-1v-1h3zM7 19h1v1h-1zM13 19h2v1h-1v1h-1zM16 19h1v3h1v1h-2v-1h-1v-2h1zM1 20h2v1h3v-1h1v1h1v-1h3v2h-1v-1h-1v1h-2v1h2v-1h1v1h1v1h-1v3h-1v-2h-1v-1h-2v-1h-2v-1h-1v1h-1v3h-1zM21 20h2v1h-2zM12 21h1v1h2v1h-1v1h1v1h-1v2h-3v-2h1v1h1v-1h-1v-1h1v-1h-1zM19 21h1v1h-1zM26 21h1v1h1v1h-1v1h-1v1h2v-1h1v1h1v4h1v1h-1v1h-1v1h2v-1h1v2h-2v1h-3v-1h1v-1h-1v-1h1v-1h-1v1h-1v-1h-1v-1h-1v-1h-1v-1h1v-1h1v-1h-1v1h-1v-1h-1v3h-1v-1h-1v-2h-1v-1h-1v-1h2v1h1v-1h-1v-1h3v2h2v-1h1zM33 21h1v2h-1zM24 22h1v1h-1zM3 24h1v1h-1zM5 24h1v2h-2v-1h1zM17 24h1v1h1v3h2v2h1v1h1v2h-1v-1h-1v-1h-1v1h1v1h-2v-1h-2v2h-3v-4h-2v-1h4v1h1v1h2v-1h1v-1h-2v-2h-1zM7 25h1v1h-1zM26 26v3h3v-3zM31 26h1v1h1v1h-1v1h-1zM33 26h1v1h-1zM1 27h7v7h-7zM16 27h1v1h-1zM27 27h1v1h-1zM2 28v5h5v-5zM9 28h1v1h1v2h1v1h-1v1h1v1h-3v-1h1v-1h-1zM22 28h1v1h-1zM33 28h1v1h-1zM3 29h3v3h-3zM17 29h1v1h-1zM23 29h1v1h-1zM32 29h1v1h1v1h-2zM24 30h1v1h-1zM26 32h1v1h-1zM18 33h1v1h-1zM23 33h3v1h-3zM32 33h1v1h-1z"/></svg>