<svg xmlns="http://www.w3.org/2000/svg" viewBox="0 0 35 35"><path d="M1 1h7v7h-7zM13 1h1v1h-1zM17 1h1v1h-1zM20 1h2v1h-2zM23 1h2v1h-2zM27 1h7v7h-7zM2 2v5h5v-5zM10 2h3v1h-1v1h-2v1h2v4h3v-2h1v3h-1v1h2v1h-2v1h-1v-1h-2v-2h-1v2h-5v-2h-3v-1h5v1h-1v1h1v-1h2v-1h-1v-6h1zM16 2h1v3h1v1h-3v1h-1v1h-1v-3h3v-1h-1v-1h1zM19 2h1v1h-1zM25 2h1v3h-1v1h-1v-1h-1v-1h2zM28 2v5h5v-5zM3 3h3v3h-3zM13 3h1v1h-1zM20 3h1v2h-2v-1h1zM22 3h1v1h-1zM29 3h3v3h-3zM21 5h1v1h-1zM10 6v2h1v-2zM18 6h1v1h-1zM20 6h1v1h-1zM22 6h1v1h-1zM17 7h1v2h1v3h1v1h-2v-2h-1zM19 7h1v1h-1zM21 7h1v1h1v1h-1v2h-2v-3h1zM23 7h1v1h-1zM25 7h1v1h-1zM24 8h1v3h-1v2h2v-1h2v1h-1v1h1v1h-1v1h1v-1h1v2h1v1h-1v1h-2v-1h1v-1h-1v1h-2v1h-2v2h-1v-2h-2v1h-1v-2h1v-1h1v1h2v-1h2v-2h1v-1h-1v1h-2v-2h-2v-1h1v-1h1v-2h1zM1 9h1v2h3v1h1v1h-3v-1h-2zM27 9h5v2h1v2h-2v1h-3v-1h1v-2h1v1h1v-1h-1v-1h-2v1h-2v-1h1zM33 10h1v1h-1zM25 11h1v1h-1zM1 13h1v1h1v1h1v-1h2v-1h4v1h-3v1h-2v1h-2v1h2v-1h2v1h1v1h-3v1h-1v-1h-2v1h-1v-2h1v-1h-1zM11 13h1v1h-1zM15 13h1v1h-1zM17 13h1v1h-1zM33 13h1v2h-1v1h-1v1h-2v-2h2v-1h1zM10 14h1v1h-1zM12 14h1v1h-1zM14 14h1v2h-1zM16 14h1v1h2v-1h1v3h-1v-1h-2v2h-1v-1h-1v-1h1zM7 15h2v1h-2zM11 15h1v1h-1zM21 15h1v1h1v1h-2zM9 17h5v1h-1v1h-1v-1h-1v1h-1v-1h-1zM18 17h1v1h-1zM33 17h1v2h-1zM14 18h2v1h-2zM17 18h1v1h-1zM30 18h2v1h1v1h-1v1h-1v1h-2v-3h1v1h1v-1h-1zM3 19h1v1h-1zM7 19h2v1h-2zM13 19h1v1h2v-1h1v1h1v1h-1v1h2v1h1v1h-2v-1h-4v1h-2v-1h-2v1h1v1h1v1h-2v-1h-2v-1h1v-1h-1v-1h-2v-2h1v1h2v1h2v-2h2zM25 19h1v1h-1zM4 20h1v1h-1zM26 20h2v1h-1v1h-2v-1h1zM33 20h1v1h-1zM2 21h1v2h-1v3h-1v-4h1zM15 21v1h1v-1zM19 21h2v1h2v3h-2v1h1v1h-2v-3h1v-1h-1v-1h-1zM32 21h1v1h-1zM5 22h1v1h2v1h-2v1h-1v-1h-1v1h1v1h-2v-3h2zM24 22h1v1h-1zM27 22h1v1h-1zM31 22h1v1h-1zM33 22h1v1h-1zM25 23h2v1h-1v1h1v-1h5v-1h1v1h1v1h-3v1h-1v3h1v1h-1v1h-1v1h1v-1h2v2h-1v1h-3v-1h-1v-1h-2v-1h1v-1h-1v-1h-1v-1h-1v-1h1v-1h-1v-1h2zM14 24h1v1h-1zM17 24h1v1h1v3h2v1h-3v-1h-1v1h1v1h-1v1h2v1h-2v2h-1v-2h-1v-3h-1v-1h2v-1h1zM7 25h1v1h-1zM9 26h1v1h-1zM26 26v3h3v-3zM31 26h1v1h1v1h1v1h-3zM33 26h1v1h-1zM1 27h7v7h-7zM10 27h1v3h1v1h-2v1h-1v-4h1zM27 27h1v1h-1zM2 28v5h5v-5zM22 28h1v1h-1zM3 29h3v3h-3zM12 29h1v1h-1zM23 29h1v1h-1zM13 30h1v1h-1zM19 30h3v1h1v2h-1v-1h-1v-1h-2zM24 30h1v1h-1zM27 30v1h1v-1zM32 30h2v1h-2zM12 31h1v1h-1zM11 32h1v2h-1zM19 32h2v1h-2zM9 33h1v1h-1zM13 33h2v1h-2zM18 33h1v1h-1zM23 33h4v1h-4zM32 33h1v1h-1z"/></svg>