<svg xmlns="http://www.w3.org/2000/svg" viewBox="0 0 35 35"><path d="M1 1h7v7h-7zM11 1h1v1h1v2h-1v-1h-1zM17 1h1v1h-1zM19 1h4v2h1v1h1v2h-1v2h-1v-1h-1v-1h1v-2h-1v-1h-1v-1h-1v1h-1zM24 1h1v1h-1zM27 1h7v7h-7zM2 2v5h5v-5zM16 2h1v1h1v1h-3v-1h1zM28 2v5h5v-5zM3 3h3v3h-3zM9 3h1v1h1v1h-1v1h1v1h-1v1h1v1h1v1h-1v3h-1v-1h-4v-1h2v-1h1v1h1v-2h-1zM20 3h1v1h-1zM25 3h1v1h-1zM29 3h3v3h-3zM19 4h1v1h-1zM15 5h4v1h2v1h-1v1h1v-1h1v1h1v1h-1v1h1v-1h1v-1h1v1h1v1h-1v1h-1v1h-1v-1h-1v1h-1v-1h-2v1h1v1h-2v1h-1v1h1v1h-1v2h-1v-1h-1v-1h1v-2h-1v-1h1v-1h-1v1h-3v-3h1v2h1v-3h1v-2h-1v-1h1zM21 5h1v1h-1zM16 6v4h-1v1h2v1h1v-1h-1v-1h1v-1h1v1h1v-1h-1v-2h-1v-1zM11 7h1v1h-1zM13 7h1v1h-1zM17 7h1v2h-1zM25 7h1v1h-1zM1 9h1v1h-1zM3 9h5v1h-2v1h-1v-1h-2zM27 9h5v2h1v1h-1v1h-1v1h1v-1h1v1h1v1h-1v1h-1v1h-2v1h-1v1h-1v2h-1v-2h-1v-2h1v1h1v-2h-2v-2h-1v-1h-1v-1h2v1h1v1h1v1h1v1h2v-1h-1v-1h-1v-3h1v1h1v-1h-1v-1h-2v1h-1zM33 10h1v1h-1zM2 12h3v1h1v1h1v1h-1v2h-1v2h-1v1h-1v-1h-1v-3h1v2h1v-2h1v-1h-2v-2h-1zM22 12h1v1h-1zM27 12h1v1h-1zM7 13h1v1h-1zM11 13h1v1h-1zM20 13h1v1h-1zM23 13h1v1h1v1h-1v3h-1v-1h-2v-2h1v1h1v-1h-1v-1h1zM1 14h1v2h-1zM10 14h1v1h2v1h-1v1h2v1h-3v-2h-4v-1h3zM14 14h1v2h-1zM19 14h1v1h-1zM7 17h3v1h-3zM18 17h1v1h-1zM20 17h1v1h2v1h-1v1h-1v-1h-1v1h-1v-2h1zM33 17h1v2h-1zM6 18h1v1h-1zM14 18h1v1h-1zM17 18h1v3h-2v1h2v1h-3v1h-1v-1h-2v-1h-1v-1h-2v-1h2v-1h1v1h1v2h1v-1h1v-1h1v-1h1zM24 18h1v1h-1zM30 18h2v1h1v3h-1v-1h-1v1h1v1h-2v-1h-1v-3h1v1h1v-1h-1zM7 19h1v1h-1zM13 19h1v1h-1zM23 19h1v1h-1zM2 20h1v2h1v1h1v1h-2v-1h-1v3h-1v-4h1zM4 20h1v2h-1zM22 20h1v1h-1zM24 20h1v1h-1zM7 21h2v2h-1v-1h-1zM19 21h2v1h2v1h1v3h-1v-1h-1v3h1v1h-5v-1h-2v-1h1v-1h1v-1h1v1h1v-1h-1v-1h2v-1h-1v-1h-1zM25 21h2v1h-2zM10 22h1v2h-1zM24 22h1v1h-1zM27 22h1v1h-1zM33 22h1v1h-1zM6 23h2v1h-1v1h1v1h-2v-1h-1v-1h1zM26 23h1v2h1v-1h1v-1h1v1h2v-1h1v1h1v1h-3v1h-1v3h1v1h-1v1h-1v1h3v1h-2v1h-2v-1h-1v1h-4v-1h1v-3h1v1h1v-1h-1v-1h-1v-1h-1v-1h2v-3h1zM9 24h1v1h-1zM13 24h1v1h-1zM17 24h1v1h-1zM11 25h1v1h-1zM14 25h1v1h-1zM9 26h2v1h-2zM13 26h1v2h-1v1h-1v-1h-1v-1h2zM26 26v3h3v-3zM31 26h3v1h-1v2h1v2h-3v-1h1v-1h-1zM1 27h7v7h-7zM19 27v1h2v-1zM27 27h1v1h-1zM2 28v5h5v-5zM9 28h1v1h2v1h-1v2h-2zM14 28h2v1h-2zM3 29h3v3h-3zM16 29h2v1h-1v1h1v1h-1v1h2v1h-3v-3h-1v2h-1v-1h-1v-1h1v-1h2zM23 29h1v1h-1zM18 30h4v1h1v2h-1v-1h-1v-1h-3zM27 30v1h1v-1zM20 32h1v1h-1zM25 32v1h1v-1zM9 33h1v1h-1zM11 33h3v1h-3zM21 33h1v1h-1zM32 33h1v1h-1z"/></svg>