<svg xmlns="http://www.w3.org/2000/svg" viewBox="0 0 35 35"><path d="M1 1h7v7h-7zM11 1h2v2h-2zM15 1h1v1h-1zM17 1h1v3h-1v-1h-1v-1h1zM19 1h4v1h-3v1h-1zM24 1h1v1h-1zM27 1h7v7h-7zM2 2v5h5v-5zM28 2v5h5v-5zM3 3h3v3h-3zM9 3h2v1h-1v1h2v-1h1v-1h1v3h1v1h-1v1h-1v-1h-1v1h-1v-1h-1v1h1v1h-2zM15 3h1v1h-1zM20 3h1v2h-2v-1h1zM22 3h1v1h-1zM25 3h1v2h-1zM29 3h3v3h-3zM16 4h1v1h1v1h-3v-1h1zM23 4h1v1h-1zM21 5h2v1h-2zM24 5h1v1h-1zM20 6h1v1h-1zM23 6h1v4h1v1h-1v3h1v1h-1v1h-1v1h-2v-2h1v-1h1v-1h-5v-2h-1v-4h1v2h1v3h2v-1h-1v-3h1v-1h1v1h1zM15 7h1v1h-1zM19 7h1v1h-1zM25 7h1v2h-1zM1 9h1v1h1v3h-1v-2h-1zM3 9h5v1h-1v1h1v-1h2v1h-1v1h-3v-2h-3zM11 9h1v1h-1zM14 9h2v1h-1v1h2v1h-2v1h-1v1h-1v-1h-1v-3h1v2h1zM21 9v1h1v1h1v-2zM27 9h5v2h1v1h1v1h-1v1h1v1h-1v1h-1v1h-2v-1h1v-1h1v-2h-1v1h-3v-1h1v-2h1v1h1v-1h-1v-1h-2v3h-1v-1h-2v-1h2zM33 10h1v1h-1zM4 11h1v1h-1zM5 12h1v1h-1zM9 12h2v1h-2zM1 13h1v2h-1zM3 13h1v1h-1zM7 13h2v1h-2zM15 13h3v1h-1v1h1v1h-1v2h-1v-2h-2v1h1v1h-1v1h-1v2h1v1h-2v-1h-1v1h1v1h1v2h-1v-1h-1v-1h-1v-1h-1v-2h1v-1h2v-1h1v-2h-2v1h1v1h-3v-3h7v-1h-1zM26 13h1v1h1v2h-1v-1h-1zM4 14h2v1h2v1h-2v1h-1v-1h-3v-1h2zM18 14h2v2h-1v-1h-1zM25 15h1v1h-1zM29 15h1v1h-1zM1 16h1v1h-1zM28 16h1v1h1v1h-1v1h-2v-1h1zM4 17h1v1h1v1h3v1h-2v1h1v1h-2v-2h-1v1h-2v2h-1v3h-1v-7h1v1h2zM6 17h2v1h-2zM18 17h1v1h-1zM20 17h1v1h2v1h-3zM23 17h1v1h-1zM26 17h1v1h-1zM33 17h1v2h-1zM17 18h1v3h-1v-1h-1v-1h1zM24 18h1v1h-1zM30 18h2v1h1v2h-2v2h-1v-1h-2v-1h1v-2h1v1h1v-1h-1zM14 19h1v1h1v2h-1v-1h-1zM19 19h1v1h-1zM21 20h2v1h-2zM25 20h2v2h-2v1h-1v-2h1zM19 21h1v1h-1zM16 22h3v1h-3zM20 22h2v1h2v3h-1v-1h-1v3h-1v-1h-1v-2h-1v-2h1v1h1v-1h-1zM27 22h1v1h-1zM33 22h1v1h-1zM5 23h3v1h-2v1h-2v-1h1zM9 23h1v1h-1zM14 23h1v1h-1zM25 23h1v1h3v1h1v-1h1v-1h2v1h1v1h-3v1h-1v3h1v1h-1v1h-1v1h1v-1h2v2h-2v1h-2v-1h-1v-1h-2v-1h1v-1h-1v-1h-1v-1h-1v-1h1v-1h1zM8 24h1v1h-1zM10 24h1v1h1v2h-3v-2h1zM17 24h1v1h-1zM3 25h1v1h-1zM7 25h1v1h-1zM14 25h1v1h-1zM18 25h1v3h2v1h-3v1h-1v1h2v-1h3v1h1v1h2v1h2v1h-4v-1h-1v-1h-1v-1h-1v1h1v1h-2v-1h-2v1h2v1h-5v-1h2v-4h1v-1h1v-1h-1v-1h1zM15 26h1v1h-1zM26 26v3h3v-3zM31 26h3v1h-1v1h-1v1h-1zM1 27h7v7h-7zM14 27h1v1h-1zM16 27h1v1h-1zM27 27h1v1h-1zM2 28v5h5v-5zM9 28h4v1h-1v1h-1v1h2v-1h1v3h-1v-1h-4zM15 28h1v1h-1zM22 28h1v1h-1zM33 28h1v1h-1zM3 29h3v3h-3zM14 29h1v1h-1zM23 29h1v1h-1zM32 29h1v1h1v1h-2zM24 30h1v1h-1zM27 30v1h1v-1zM9 33h1v1h-1zM12 33h1v1h-1zM32 33h1v1h-1z"/></svg>