<svg xmlns="http://www.w3.org/2000/svg" viewBox="0 0 35 35"><path d="M1 1h7v7h-7zM11 1h3v3h-1v-2h-1v3h-2v3h1v-1h1v1h1v-1h-1v-1h1v-1h1v4h-2v1h-1v-1h-2v-6h2zM17 1h1v1h-1zM19 1h6v1h-1v1h-1v-1h-3v1h-1zM27 1h7v7h-7zM2 2v5h5v-5zM16 2h1v2h-2v-1h1zM25 2h1v1h-1zM28 2v5h5v-5zM3 3h3v3h-3zM20 3h1v2h-2v-1h1zM22 3h1v1h-1zM24 3h1v1h-1zM29 3h3v3h-3zM23 4h1v1h-1zM25 4h1v1h-1zM15 5h3v1h-2v2h-1zM21 5h1v1h-1zM24 5h1v1h-1zM18 6h1v1h-1zM20 6h1v1h-1zM25 6h1v4h-1v-1h-1v-1h1zM17 7h1v2h1v3h4v1h-2v1h-1v-1h-2v-1h-1v1h-1v-1h-1v1h-2v-2h1v-2h2v2h1zM19 7h1v1h1v-1h1v1h1v1h-1v2h-2v-2h-1zM23 7h1v1h-1zM1 9h1v1h-1zM3 9h5v1h-5zM23 9h1v1h-1zM27 9h5v2h1v1h1v1h-1v1h1v1h-1v1h-1v-3h-1v1h-3v-1h1v-2h1v1h1v-1h-1v-1h-2v2h-1zM24 10h1v1h-1zM33 10h1v1h-1zM2 11h4v1h-1v2h-1v-2h-2zM7 11h3v1h-1v2h-2v-1h1v-1h-1zM6 12h1v1h-1zM10 12h1v2h2v3h-1v-1h-1v1h-2v1h-4v1h-1v-1h-2v-1h-1v-1h1v-1h1v2h5v-1h2v-1h-1v-1h1zM24 12h1v1h-1zM2 13h1v1h-1zM15 13h1v1h-1zM17 13h1v1h-1zM23 13h1v1h1v1h-2zM25 13h2v1h-2zM16 14h1v1h2v-1h1v3h-1v-1h-2v2h-1v-1h-1v2h-1v-3h2zM27 14h1v2h-1v2h-1v-1h-1v2h-1v1h-1v-1h-3v-2h1v1h2v-1h1v-1h2v-1h1zM7 15h1v1h-1zM21 15h2v2h-2zM29 15h1v1h2v1h-1v1h2v-1h1v2h-1v1h1v1h-3v1h-3v-1h1v-2h1v1h1v-1h-1v-1h-1v1h-1v2h-1v-3h1v-1h1zM11 17h1v1h-1zM18 17h1v1h-1zM1 18h1v1h-1zM12 18h1v2h1v1h-2v-1h-1v-1h1zM17 18h1v2h-1v2h2v1h-4v-1h1v-2h-1v-1h2zM5 19h4v1h-3v2h-3v-2h1v1h1zM19 19h1v1h-1zM9 20h2v1h1v1h-3zM20 20h3v1h-3zM24 20h1v1h-1zM1 21h1v1h1v1h-1v3h-1zM7 21h1v1h-1zM19 21h1v1h-1zM25 21h2v1h1v1h-2v-1h-1zM6 22h1v1h-1zM8 22h1v1h-1zM12 22h1v2h-1zM20 22h3v1h-1v1h1v-1h1v1h1v1h-1v1h-1v-1h-1v2h-2v-3h1v-1h-1zM24 22h1v1h-1zM31 22h1v1h1v1h1v1h-3v1h-1v3h1v1h-1v1h-1v1h3v1h-2v1h-3v-2h-1v-1h-2v-1h1v-1h-1v-1h-1v-1h2v-2h2v-1h2v-1h2zM33 22h1v1h-1zM3 23h1v2h-1zM5 23h1v1h1v1h-1v1h-1zM7 23h1v1h-1zM10 23h1v2h-2v1h-2v-1h1v-1h2zM14 23h1v1h1v1h-1v1h-1v-1h-1v-1h1zM19 23h1v1h-1zM25 23h1v1h-1zM17 24h1v1h1v3h4v1h-5v-1h-1v1h-1v-1h-1v2h-1v1h-1v-1h-1v1h-1v-1h-1v2h-1v-4h1v1h1v-1h-1v-1h2v1h1v1h1v-2h3zM11 25h1v1h-1zM9 26h1v1h-1zM26 26v3h3v-3zM31 26h3v1h-1v1h-1v1h-1zM1 27h7v7h-7zM27 27h1v1h-1zM2 28v5h5v-5zM3 29h3v3h-3zM17 29h1v1h-1zM23 29h1v1h-1zM33 29h1v2h-3v-1h2zM16 30h1v1h2v1h-2v1h2v1h-7v-1h1v-1h2v1h1zM19 30h3v1h2v1h-1v1h-1v-1h-1v-1h-2zM27 30v1h1v-1zM12 31h1v1h-1zM10 32h1v1h-1zM20 32h1v1h-1zM9 33h1v1h-1zM21 33h1v1h-1zM23 33h3v1h-3zM32 33h1v1h-1z"/></svg>