<svg xmlns="http://www.w3.org/2000/svg" viewBox="0 0 35 35"><path d="M1 1h7v7h-7zM10 1h4v4h-1v-1h-3v2h1v-1h2v2h-1v1h-1v-1h-1v2h-1v-6h1zM17 1h1v3h-1v-1h-1v-1h1zM19 1h4v1h1v1h-1v1h-2v-2h-1v1h-1zM24 1h1v1h-1zM27 1h7v7h-7zM2 2v5h5v-5zM11 2v1h2v-1zM25 2h1v3h-1v-1h-1v-1h1zM28 2v5h5v-5zM3 3h3v3h-3zM15 3h1v1h-1zM29 3h3v3h-3zM16 4h1v1h1v1h-3v-1h1zM19 4h1v1h-1zM23 4h1v1h1v1h-1v2h-1v-1h-1v-1h1zM21 5h1v1h-1zM14 6h1v1h-1zM18 6h3v1h-1v1h-1v-1h-1zM25 6h1v3h-1zM13 7h1v2h1v-2h1v4h1v-4h1v2h1v1h1v-2h1v-1h1v1h1v1h-1v1h1v3h-1v-2h-3v1h1v1h-2v1h-1v-2h-2v1h-1v-1h-2v-1h-1v-1h1v-1h1zM1 9h1v1h1v-1h5v1h-4v1h-1v1h1v-1h1v1h1v-1h2v-1h2v1h-1v1h-2v1h2v1h1v1h-2v-1h-2v-1h-1v1h1v2h-1v-1h-2v-1h1v-1h-2v-1h-1zM23 9h1v1h-1zM27 9h5v2h1v2h1v2h-1v1h-1v-1h-1v-1h1v-1h-1v1h-3v-1h1v-2h1v1h1v-1h-1v-1h-2v3h-1zM13 10v1h1v-1zM24 10h1v1h-1zM33 10h1v1h-1zM10 12h2v1h-2zM12 13h1v1h1v2h-1v1h1v1h-1v1h1v-1h1v-1h1v-3h1v1h1v1h-1v2h-1v1h-1v1h-1v1h-1v-1h-2v-1h1v-3h-1v-2h1zM15 13h1v1h-1zM20 13h1v1h-1zM23 13h2v2h-1v-1h-1zM26 13h1v1h-1zM18 14h2v2h-1v-1h-1zM22 14h1v1h1v1h-1v1h-2v-2h1zM27 14h1v1h-1zM1 15h1v1h-1zM7 15h1v1h-1zM26 15h1v3h-2v-1h1zM28 15h2v1h2v1h-2v1h-1v1h-1v1h-2v-1h1v-1h1v-1h1v-1h-1zM2 16h3v1h-2v1h-2v-1h1zM6 16h1v1h3v1h-1v2h-2v1h1v1h-2v2h1v1h4v-1h1v1h1v1h-2v1h-2v-1h-3v-1h-1v-2h-1v-1h1v-1h-4v-1h1v-1h1v1h1v-2h1v1h1v-1h-1v-1h1zM10 16h1v1h-1zM18 17h1v1h-1zM20 17h1v1h2v-1h1v1h1v1h-5v1h-1v-2h1zM33 17h1v2h-1zM7 18v1h1v-1zM10 18h1v1h-1zM17 18h1v1h-1zM30 18h2v1h1v1h1v1h-1v1h-1v-1h-1v3h1v-1h1v1h1v1h-4v4h1v1h-1v1h-1v1h3v1h-2v1h-7v-1h4v-1h-3v-2h1v-1h-1v-1h-1v-1h2v-1h-2v-1h1v-1h2v1h3v-1h1v-2h-2v-1h1v-2h1v1h1v-1h-1zM16 19h1v1h1v1h-2v1h3v1h-4v1h-3v-1h-1v1h-2v-1h1v-1h1v-1h1v1h2v-1h1v-1h1zM9 20h1v2h-1zM22 20h1v1h-1zM19 21h2v1h1v1h1v2h-1v3h1v1h-2v-2h-2v1h1v1h-2v-1h-2v1h2v1h-1v1h1v1h-1v2h-4v-1h3v-1h-1v-1h-2v2h-1v1h-3v-1h1v-1h1v-1h-1v1h-1v-4h1v1h1v1h1v-1h-1v-1h2v-2h2v-2h1v3h1v-1h1v-1h1v1h1v-1h-1v-1h2v-1h-1v-1h-1zM26 21h1v1h-1zM1 22h1v4h-1zM24 22h1v1h-1zM27 22h1v2h-2v-1h1zM33 22h1v1h-1zM3 23h1v2h1v1h-2zM7 23h1v1h-1zM17 24h1v1h-1zM26 26v3h3v-3zM31 26h3v1h-1v1h1v1h-1v1h1v1h-2v-2h-1zM1 27h7v7h-7zM27 27h1v1h-1zM2 28v5h5v-5zM14 28v1h-1v1h1v-1h1v-1zM3 29h3v3h-3zM20 29h1v1h1v2h-1v-1h-1v1h-1v-2h1zM23 29h1v1h-1zM27 30v1h1v-1zM20 32h1v1h-1zM22 32h1v1h-1zM18 33h1v1h-1zM32 33h1v1h-1z"/></svg>