<svg xmlns="http://www.w3.org/2000/svg" viewBox="0 0 35 35"><path d="M1 1h7v7h-7zM11 1h3v4h-1v-1h-1v-1h1v-1h-2zM17 1h1v1h-1zM19 1h3v1h1v2h-1v-1h-1v-1h-1v1h-1zM23 1h2v1h-2zM27 1h7v7h-7zM2 2v5h5v-5zM16 2h1v1h-1zM28 2v5h5v-5zM3 3h3v3h-3zM9 3h2v1h1v1h-1v1h-1v2h1v-1h1v1h1v2h-3v-1h-1zM15 3h1v1h-1zM29 3h3v3h-3zM19 4h2v1h-2zM23 4h2v2h-1v-1h-1zM12 5h1v1h-1zM14 5h5v1h-3v2h-1v-1h-1zM21 5h2v1h-2zM20 6h1v1h-1zM23 6h1v2h1v-1h1v3h-1v1h-1v-1h-1v-1h-1v1h1v1h-4v1h1v1h-2v-2h-1v-1h1v-1h1v1h1v-1h-1v-2h1v1h1v-1h1v1h1zM13 7h1v1h-1zM17 7h1v2h-1zM1 9h1v1h1v1h5v1h-3v1h4v1h-5v-2h-3zM3 9h5v1h-5zM14 9h2v2h1v1h-2v1h-3v-1h-1v-1h2v1h1zM27 9h5v1h2v1h-1v1h-1v1h-1v1h1v-1h1v1h1v1h-1v1h-1v1h-2v1h-1v1h-1v2h-1v-1h-1v-1h1v-1h1v-1h1v-1h2v-1h-1v-1h-2v-1h1v-2h1v1h1v-1h-1v-1h-2v2h-1zM9 10h1v1h-1zM25 11h1v1h-1zM9 12h2v2h-1v-1h-1zM21 12h2v1h-2zM24 12h1v1h-1zM26 12h1v2h-2v-1h1zM33 12h1v1h-1zM15 13h3v1h-1v1h1v-1h2v3h-1v-1h-2v1h2v1h-1v2h-2v1h1v1h1v1h-3v2h1v1h-2v-1h-1v3h-1v-1h-1v-1h1v-1h-2v2h-1v-2h-1v-1h-1v-1h3v1h2v-1h1v1h1v-1h-1v-1h1v-2h1v-2h1v1h1v-1h-1v-1h-1v-2h1v-1h-1zM20 13h1v1h-1zM23 13h1v1h-1zM2 14h2v1h2v1h-2v1h1v1h-3zM11 14h1v1h2v2h-1v-1h-1v1h1v1h1v2h-1v-1h-1v4h-2v-1h-1v-2h2v-2h-1v-2h-1v-1h2zM14 14h1v1h-1zM22 14h1v1h-1zM24 14h1v1h-1zM27 14h1v1h-1zM7 15h1v1h-1zM21 15h1v1h1v1h-2zM25 15h2v1h-2zM28 15h1v1h-1zM6 16h1v1h-1zM27 16h1v1h-1zM7 17h1v1h-1zM14 17h1v1h-1zM20 17h1v1h1v1h-2v1h-1v-2h1zM23 17h1v1h-1zM25 17h2v1h-2zM33 17h1v2h-1zM6 18h1v1h2v1h-3zM24 18h1v1h-1zM30 18h2v1h1v1h-1v1h-1v1h-3v-1h1v-2h1v1h1v-1h-1zM4 19h1v1h1v1h2v1h-2v2h-1v-2h-1v-1h-1v1h-1v4h-1v-6h3zM22 19h2v1h-1v1h-1zM20 20h1v2h1v1h1v2h-2v1h1v2h-1v-1h-2v1h1v1h-2v1h-1v-2h1v-1h-1v-3h1v1h1v1h1v-2h1v-1h-1v-1h-1v-1h1zM25 20h1v1h-1zM26 21h1v1h-1zM3 22h1v2h1v1h1v1h-3zM24 22h1v1h-1zM27 22h1v2h2v-1h1v-1h1v1h1v1h1v1h-4v4h1v1h1v-1h1v1h1v1h-2v2h-1v1h-4v-1h1v-1h-1v-1h1v-1h-1v1h-1v-1h-1v-1h-1v-1h-1v-3h1v1h1v-2h1v-1h1zM33 22h1v1h-1zM18 23h2v1h-2zM7 25h1v1h-1zM26 26v3h3v-3zM31 26h3v1h-1v1h-1v1h-1zM1 27h7v7h-7zM15 27h2v1h-2zM27 27h1v1h-1zM2 28v5h5v-5zM9 28h1v1h1v4h1v1h-3v-1h1v-1h-1zM13 28h1v1h1v1h-2zM22 28h1v1h-1zM3 29h3v3h-3zM23 29h1v1h-1zM16 30h1v1h1v-1h5v1h-1v1h-1v-1h-1v1h-3v2h-1v-1h-1v-1h1zM12 31h3v1h-2v1h-1zM23 31h3v1h-1v1h1v1h-3v-1h-1v-1h1zM29 31v1h1v-1zM20 32h1v1h-1zM18 33h1v1h-1zM21 33h1v1h-1zM32 33h1v1h-1z"/></svg>