<svg xmlns="http://www.w3.org/2000/svg" viewBox="0 0 35 35"><path d="M1 1h7v7h-7zM9 1h2v1h1v1h-1v2h2v-1h1v2h-2v3h-3v-2h1v1h1v-1h-1v-2h-1v-1h1v-1h-1zM15 1h1v3h-2v-1h1zM17 1h1v1h1v1h-1v1h-1zM19 1h3v1h-3zM24 1h1v2h-1zM27 1h7v7h-7zM2 2v5h5v-5zM13 2h1v1h-1zM28 2v5h5v-5zM3 3h3v3h-3zM12 3h1v1h-1zM19 3h1v1h1v1h-1v3h1v1h-1v1h2v3h-2v-1h1v-1h-1v1h-1v-1h-2v-1h1v-1h-1v1h-1v1h-1v1h-1v-1h-1v-1h-1v-1h1v-2h1v3h1v-3h-1v-1h3v-1h1v3h1zM21 3h1v1h-1zM23 3h1v1h1v-1h1v3h-1v-1h-2zM29 3h3v3h-3zM22 6h2v2h-1v-1h-1zM16 7v1h1v-1zM21 7h1v1h-1zM25 7h1v1h-1zM1 9h1v4h4v1h1v1h-1v1h-1v2h-1v2h-1v-2h-2v-1h2v-1h1v-1h-1v-1h-2zM3 9h2v2h1v1h-2v-1h-1zM6 9h3v1h-2v1h-1zM22 9h1v1h-1zM24 9h1v2h1v1h-2zM27 9h1v2h2v-2h1v1h1v-1h2v4h-1v-1h-1v-1h-1v3h-2v1h-1v-2h-1v1h-1v1h-1v-2h1v-1h1zM10 10h2v1h-2zM7 11h1v1h-1zM9 11h1v2h-1v1h2v-1h1v1h2v1h-3v1h2v2h-1v3h2v-1h2v-1h-1v-1h-1v-1h2v1h1v1h1v1h1v-1h1v1h2v1h-4v2h-1v2h-2v-1h-1v-1h2v-1h1v-1h-2v1h-4v-5h-1v-1h-1v-1h-1v-1h-1v-1h1v-1h1zM12 11h1v1h-1zM6 12h1v1h-1zM13 12h1v1h-1zM16 12h3v1h-1v1h-2v1h-1v-2h1zM29 12v1h1v-1zM23 13h1v1h-1zM32 13h1v2h-1zM21 14h1v1h1v2h1v-1h2v1h-1v1h1v-1h1v-1h1v4h1v-3h1v-2h1v1h1v2h-1v1h-1v2h-1v1h-1v-1h-2v-1h1v-1h-1v1h-1v-1h-1v-1h-2v-1h-1v-1h-1v-1h1zM7 15h1v1h-1zM14 15h1v1h-1zM18 15h1v1h-1zM26 15h1v1h-1zM6 16h1v1h1v1h-2zM8 16h1v1h-1zM16 16h1v1h-1zM19 16h1v1h1v1h-2zM9 17h1v1h-1zM17 17h1v1h-1zM8 18h1v1h-1zM13 18h1v1h-1zM21 18h1v1h-1zM33 18h1v1h-1zM1 19h1v1h-1zM5 19h3v1h-1v1h-1v-1h-1zM22 19h2v1h1v1h-1v1h-1v2h-1v-1h-2v-1h2v-1h1v-1h-1zM31 19h2v1h1v1h-1v1h-3v-1h2v-1h-1zM2 20h1v1h-1zM8 20h2v1h-1v1h-2v-1h1zM1 21h1v1h1v-1h3v1h-2v2h-1v-1h-2zM25 21h1v1h-1zM6 22h1v1h1v1h-1v1h-1zM24 22h1v1h1v1h-2zM27 22h1v1h-1zM33 22h1v3h-1v-1h-1v-1h1zM9 23h1v2h1v1h-1v3h-1v-3h-2v-1h2zM11 23h1v2h-1zM18 23h2v2h-1v-1h-1zM28 23h2v1h1v1h-1v1h1v1h-1v3h-5v1h1v1h1v-1h2v1h-1v1h-1v1h-1v-1h-1v-1h-3v1h-1v1h-4v-1h1v-1h3v-3h1v-3h1v3h1v-2h1v-2h2v-1h1v1h1v-1h-1zM2 24h1v1h-1zM21 24h1v2h-1v3h-1v1h-2v2h-2v-1h1v-4h-1v1h-1v-2h3v1h2v-2h1zM23 24h1v2h-1zM1 25h1v1h-1zM4 25h1v1h-1zM13 25h1v3h1v1h-3v-1h-1v-2h1v1h1zM18 25h1v1h-1zM26 26v3h3v-3zM32 26h1v1h-1zM1 27h7v7h-7zM27 27h1v1h-1zM2 28v5h5v-5zM31 28h2v1h1v2h-1v-1h-1v2h-2v-1h1zM3 29h3v3h-3zM10 29h2v2h-1v-1h-1zM9 30h1v2h-1zM13 30h1v1h-1zM14 31h1v1h-1zM12 32h2v2h-3v-1h1zM15 32h1v1h-1zM29 32h1v1h-1zM33 32h1v1h-1zM9 33h1v1h-1zM22 33h1v1h-1zM24 33h1v1h-1zM31 33h1v1h-1z"/></svg>