<svg xmlns="http://www.w3.org/2000/svg" viewBox="0 0 35 35"><path d="M1 1h7v7h-7zM15 1h1v1h-1zM17 1h1v1h-1zM20 1h3v1h1v1h-1v1h-2v-1h1v-1h-2zM24 1h1v1h-1zM27 1h7v7h-7zM2 2v5h5v-5zM10 2h2v1h-2zM16 2h1v1h-1zM19 2h1v1h-1zM28 2v5h5v-5zM3 3h3v3h-3zM9 3h1v1h3v-1h1v5h-1v-1h-1v-1h1v-1h-2v2h-1v2h-1zM15 3h1v1h-1zM17 3h1v1h-1zM25 3h1v1h-1zM29 3h3v3h-3zM16 4h1v1h1v1h-3v-1h1zM19 4h1v1h-1zM23 4h1v1h-1zM21 5h2v2h-1v-1h-1zM24 5h1v1h-1zM19 6h2v1h-1v1h-1zM25 6h1v2h-1zM11 7h1v3h-1v2h-2v1h1v2h-1v-1h-2v-1h1v-1h-1v-1h1v-1h2v-1h1zM15 7h1v1h-1zM17 7h1v2h-1zM21 7h1v1h1v-1h1v1h1v1h1v1h-1v1h-2v-2h-1v2h1v2h-1v-1h-1v-1h-2v1h1v1h-2v-1h-3v1h-1v-1h-1v2h-1v1h-1v-3h1v-2h1v1h1v-1h-1v-1h3v2h1v-1h1v-1h1v1h1v-2h1zM1 9h1v1h-1zM3 9h5v1h-1v1h-1v-1h-3zM27 9h5v1h2v1h-1v1h1v3h-1v1h-1v1h-1v1h1v1h1v3h-1v-1h-1v1h-2v-3h1v1h1v-1h-1v-1h-1v1h-1v2h-1v-1h-2v-1h1v-2h-1v-1h3v-1h4v-1h1v-1h-2v1h-3v-1h1v-2h1v1h1v-1h-1v-1h-2v2h-2v1h1v1h-2v-1h-1v-1h1v-1h2zM1 12h3v1h2v1h-2v3h-1v-3h-1v1h-1zM15 13h3v1h-1v1h2v-1h1v2h-3v2h-1v1h-1v-1h-1v-4h1v2h1v-2h-1zM23 13h1v1h1v1h-1v1h-1v-1h-1v-1h1zM27 14h1v1h-1zM7 15h2v1h1v2h-3v1h-3v-1h1v-2h2v1h1v-1h-1zM10 15h1v1h-1zM21 15h1v1h1v1h-2zM2 17h1v2h-2v-1h1zM11 17h2v1h-2zM18 17h1v1h-1zM20 17h1v1h1v2h-1v-1h-1v1h-1v-2h1zM23 17h1v1h-1zM27 17v1h1v-1zM33 17h1v2h-1zM10 18h1v2h-1zM13 18h1v2h1v1h-2zM17 18h1v1h-1zM24 18h1v1h-1zM7 19h1v1h-1zM16 19h1v1h-1zM1 20h1v1h-1zM3 20h1v2h1v1h-3v3h-1v-4h2zM5 20h2v1h-1v1h-1zM11 20h1v1h-1zM17 20h1v1h-1zM22 20h1v1h-1zM7 21h2v1h-2zM10 21h1v1h-1zM12 21h1v1h3v-1h1v1h1v1h-6zM19 21h1v1h-1zM24 21h1v2h-1zM26 21h1v1h-1zM9 22h1v1h-1zM20 22h2v1h1v1h2v-1h2v1h1v1h2v-1h1v-1h2v1h1v1h-3v1h-1v3h1v1h-1v1h-1v1h1v-1h2v2h-1v1h-4v-1h-1v-1h1v-1h1v-1h-1v1h-3v-1h1v-1h-1v-1h-1v-1h2v-1h-2v-1h-2v1h1v1h-2v-2h-1v-1h-1v-1h2v1h1v-1h-1zM27 22h1v1h-1zM33 22h1v1h-1zM6 23h2v1h-1v1h-2v1h-2v-2h3zM10 23h2v1h-2zM28 23h2v1h-2zM8 24h1v1h-1zM13 24h1v3h-5v-1h2v-1h1v1h1zM17 24h1v1h-1zM7 25h1v1h-1zM18 25h1v3h2v1h-3v-2h-1v-1h1zM15 26h1v1h-1zM26 26v3h3v-3zM31 26h3v1h-1v1h-1v1h-1zM1 27h7v7h-7zM16 27h1v2h-2v-1h1zM27 27h1v1h-1zM2 28v5h5v-5zM9 28h2v2h-1v1h1v1h-2zM12 28h1v2h-1zM22 28h1v1h-1zM3 29h3v3h-3zM14 29h1v1h-1zM17 29h1v1h-1zM23 29h1v1h-1zM32 29h1v1h1v1h-2zM11 30h1v1h-1zM13 30h1v3h-1zM16 30h1v1h2v1h-2v1h2v1h-5v-1h2zM19 30h3v1h1v2h-1v-1h-1v-1h-2zM11 32h1v1h1v1h-2zM19 32h2v1h-2zM24 32h1v1h1v1h-3v-1h1zM9 33h1v1h-1zM32 33h1v1h-1z"/></svg>