<svg xmlns="http://www.w3.org/2000/svg" viewBox="0 0 35 35"><path d="M1 1h7v7h-7zM15 1h1v1h-1zM17 1h1v2h-1v1h-2v-1h1v-1h1zM20 1h3v1h-3zM24 1h1v1h-1zM27 1h7v7h-7zM2 2v5h5v-5zM11 2h3v1h-2v1h-1zM19 2h1v1h-1zM28 2v5h5v-5zM3 3h3v3h-3zM9 3h1v1h1v1h1v3h-1v-2h-1v2h1v1h1v1h-1v1h-1v-2h-1zM22 3h1v1h-1zM25 3h1v2h-1zM29 3h3v3h-3zM12 4h1v1h-1zM19 4h2v1h-2zM23 4h1v1h-1zM15 5h4v1h-3v2h-1v-1h-1v2h2v2h1v-4h1v2h1v1h1v-2h1v-1h1v1h1v-1h1v2h1v-2h1v3h-1v1h-1v3h-1v-1h-2v-1h1v-1h1v-2h-1v2h-3v1h1v1h-2v-1h-3v1h-1v1h1v1h-2v-2h-1v-1h-1v-1h2v1h1v-2h-1v-1h-1v-1h1v-2h2zM21 5h1v1h-1zM24 5h1v1h-1zM19 6h2v1h-1v1h-1zM22 6h1v1h-1zM1 9h1v1h1v-1h5v1h-2v1h-1v1h1v1h2v1h-3v-1h-1v1h1v1h1v3h-1v-1h-1v1h1v1h-2v-2h-1v-1h2v-1h-1v-1h-2v-2h1v1h1v-1h1v-1h-1v1h-1v-1h-1zM27 9h5v2h1v3h1v1h-1v1h-1v-3h-1v1h-2v-3h1v1h1v-1h-1v-1h-2v1h-1zM8 10h1v1h-1zM33 10h1v1h-1zM6 11h2v1h-2zM9 12h1v2h1v1h2v1h-1v1h1v1h1v1h1v-1h-1v-2h1v1h1v-1h-1v-1h1v-1h-1v-1h3v1h-1v1h2v1h-2v2h-1v1h1v-1h1v3h-1v-1h-3v1h-2v-1h1v-1h-1v1h-2v-1h1v-1h-2v-1h1v-1h-1v-1h-1v-1h1zM25 12h1v1h1v1h-2zM20 13h1v1h-1zM19 14h1v1h-1zM22 14h1v2h1v1h1v-2h1v1h1v-2h1v1h1v1h-1v1h-1v1h-2v1h-1v-1h-1v-1h-2v-2h1zM24 14h1v1h-1zM7 15h1v1h-1zM30 16h2v1h-2zM1 17h1v2h-1zM7 17h1v1h-1zM18 17h1v1h-1zM20 17h1v1h2v1h-3v1h-1v-2h1zM28 17h2v1h-1v1h-2v-1h1zM33 17h1v2h-1v2h-2v2h2v1h1v1h-4v-3h-2v-1h1v-2h1v1h1v-1h-1v-1h3zM6 18h1v1h-1zM8 18h1v1h-1zM7 19h1v1h-1zM26 19h1v1h-1zM3 20h1v1h-1zM8 20h2v1h-2zM20 20h1v1h-1zM22 20h1v1h-1zM24 20h1v1h-1zM27 20h1v1h-1zM4 21h4v1h-3v3h-1v-2h-1v-1h1zM16 21h1v1h1v1h-2zM19 21h1v1h-1zM25 21h2v1h-2zM1 22h1v4h-1zM8 22h3v1h1v1h-1v1h-1v-2h-2zM12 22h2v1h-2zM20 22h2v2h1v1h-2v1h1v2h1v1h-5v1h-1v1h2v1h-2v1h2v1h-4v-1h1v-1h-1v-1h1v-1h-2v-1h1v-1h1v-1h1v-1h1v-1h1v3h2v-1h-1v-2h-1v-1h-1v-1h2v1h1v-1h-1zM24 22h1v1h-1zM27 22h1v1h-1zM33 22h1v1h-1zM6 23h2v1h-1v1h1v1h-2zM15 23h1v1h-1zM25 23h2v1h-1v1h4v4h1v2h1v2h-1v1h-8v-1h-1v-1h-1v-1h-2v-1h4v2h1v1h2v-1h1v1h1v-1h-1v-1h1v-1h-1v1h-1v-1h-1v-1h-1v-1h-1v-3h1v2h1v-2h-1v-1h1zM28 23h1v1h-1zM17 24h1v1h-1zM3 25h1v1h-1zM11 25h1v1h1v1h-2zM13 25h3v1h-1v2h-1v1h-1v-2h1v-1h-1zM9 26h1v1h-1zM26 26v3h3v-3zM31 26h3v1h-1v1h-1v1h-1zM1 27h7v7h-7zM27 27h1v1h-1zM2 28v5h5v-5zM9 28h1v1h1v1h3v2h-2v-1h-1v1h-2zM3 29h3v3h-3zM23 29h1v1h-1zM33 29h1v2h-2v-1h1zM24 30h1v2h-1zM29 31v1h1v-1zM11 32h1v1h-1zM19 32h2v1h-2zM9 33h2v1h-2zM13 33h1v1h-1zM21 33h1v1h-1zM32 33h1v1h-1z"/></svg>