<svg xmlns="http://www.w3.org/2000/svg" viewBox="0 0 35 35"><path d="M1 1h7v7h-7zM15 1h1v1h-1zM17 1h1v3h-1v-1h-1v-1h1zM20 1h5v1h-1v1h1v1h-1v1h1v1h-2v1h-1v-1h-1v-1h2v-1h-3v-1h1v-1h-1zM27 1h7v7h-7zM2 2v5h5v-5zM10 2h1v1h-1zM19 2h1v1h-1zM25 2h1v1h-1zM28 2v5h5v-5zM3 3h3v3h-3zM9 3h1v5h1v1h-2zM12 3h2v1h-1v2h-1v2h-1v-3h1zM15 3h1v1h-1zM29 3h3v3h-3zM16 4h1v1h2v1h2v1h-1v1h1v-1h1v1h1v1h-1v2h1v2h-1v-1h-1v-1h-1v-2h-1v-2h-1v-1h-2v4h-1v1h2v1h-2v1h-1v1h1v1h-1v1h-2v-1h-1v-1h2v-1h-2v-1h-2v2h1v1h-2v-1h-1v-1h1v-1h-2v-1h5v-1h1v-1h1v2h1v-2h1v-2h-1v-1h1v-1h1zM19 4h1v1h-1zM13 7h1v1h-1zM17 7h1v2h-1zM23 7h1v1h-1zM25 7h1v1h-1zM1 9h1v1h1v1h-2zM3 9h5v1h-5zM18 9h1v3h1v1h-2v-2h-1v-1h1zM23 9h3v1h-1v1h-1v-1h-1zM27 9h5v1h2v1h-1v3h1v1h-1v1h-1v-1h-2v-1h-2v-1h1v-2h1v1h1v-1h-1v-1h-2v1h-1zM25 11h2v1h-2zM2 12h4v1h-1v1h-1v-1h-1v1h1v1h-1v1h-1v1h-1v-4h1zM24 12h1v1h2v1h1v1h-2v-1h-1v1h-1v-1h-1v-1h1zM27 12h1v1h-1zM15 13h1v1h-1zM17 13h1v1h-1zM31 13v1h1v-1zM6 14h1v1h-1zM16 14h1v1h1v1h-1v2h-1v1h1v1h1v1h-1v1h2v2h-1v-1h-2v-3h-1v-2h-1v-2h2zM19 14h1v1h-1zM22 14h1v1h-1zM4 15h1v1h-1zM7 15h1v1h-1zM21 15h1v1h1v1h-1v3h1v1h-2v-2h-1v1h-1v-2h1v-1h1zM23 15h1v1h-1zM25 15h1v2h1v1h-2v1h-2v-2h1v-1h1zM3 16h1v1h-1zM5 16h2v1h1v-1h3v1h-1v2h1v1h-2v1h-1v-1h-1v-1h2v-1h-3v-1h-1zM27 16h2v1h1v1h-1v1h-2v-1h1v-1h-1zM30 16h2v1h-2zM2 17h1v1h-1zM18 17h1v1h-1zM33 17h1v2h-1v1h-1v1h-1v1h1v1h-2v-1h-1v-3h1v1h1v-1h-1v-1h3zM1 18h1v2h-1zM3 18h1v2h-1zM5 18h1v2h1v1h-1v1h-1v-1h-1v-1h1zM11 18h1v1h-1zM13 18h1v2h-1zM17 18h1v1h-1zM25 19h1v1h1v2h1v2h1v1h1v-1h2v-1h1v1h1v1h-3v1h-1v3h1v1h-1v1h-1v1h2v-1h1v2h-2v1h-7v-1h-1v-1h-1v-1h-1v1h-1v-2h4v1h3v-1h-1v-1h-1v-1h-1v-3h1v1h1v-1h-1v-1h2v-3h-1zM12 20h1v1h1v2h-4v-2h2zM2 21h1v1h1v1h-2v3h-1v-4h1zM7 21h1v1h-1zM19 21h1v1h-1zM32 21h1v1h-1zM8 22h1v1h1v1h-1v1h-1v-1h-1v1h1v1h-2v-1h-3v-1h3v-1h2zM20 22h2v1h1v2h-2v1h1v2h-1v-1h-2v1h2v1h-3v-2h-1v-3h1v1h1v1h1v-1h-1v-1h2v-1h-1zM24 22h1v1h-1zM33 22h1v1h-1zM14 23h2v1h-1v1h-1zM29 23h1v1h-1zM10 24h2v1h-2zM13 25h1v1h-1zM9 26h1v1h-1zM11 26h2v2h-1v-1h-1zM14 26h2v1h-2zM26 26v3h3v-3zM31 26h1v1h1v1h1v3h-2v-1h1v-1h-2zM33 26h1v1h-1zM1 27h7v7h-7zM16 27h1v2h-3v1h-1v1h1v1h-1v1h1v1h-5v-1h1v-1h1v1h1v-1h-1v-1h1v-1h-1v1h-1v1h-1v-4h1v1h1v-1h1v1h1v-1h3zM27 27h1v1h-1zM2 28v5h5v-5zM22 28h1v1h-1zM3 29h3v3h-3zM17 29h1v1h-1zM23 29h1v1h-1zM15 30h2v1h1v1h-1v2h-2v-1h-1v-1h2v-1h-1zM27 30v1h1v-1zM20 32h1v1h-1zM25 32v1h1v-1zM27 32v1h1v-1zM18 33h1v1h-1zM21 33h1v1h-1zM32 33h1v1h-1z"/></svg>