<svg xmlns="http://www.w3.org/2000/svg" viewBox="0 0 35 35"><path d="M1 1h7v7h-7zM10 1h4v1h-1v1h-1v-1h-2zM17 1h1v1h-1zM20 1h2v1h2v1h-1v1h-1v-1h-1v-1h-1zM24 1h1v1h-1zM27 1h7v7h-7zM2 2v5h5v-5zM16 2h1v1h-1zM19 2h1v1h-1zM25 2h1v1h-1zM28 2v5h5v-5zM3 3h3v3h-3zM9 3h3v3h2v2h-1v-1h-1v1h-1v-2h-1v3h-1zM15 3h1v1h-1zM17 3h1v1h-1zM20 3h1v1h-1zM24 3h1v1h-1zM29 3h3v3h-3zM10 4v1h1v-1zM13 4h1v1h-1zM16 4h1v1h1v1h-3v-1h1zM19 4h1v1h-1zM23 4h1v1h1v1h-2zM25 4h1v1h-1zM21 5h1v1h-1zM18 6h1v1h-1zM20 6h1v1h-1zM15 7h1v3h-1v1h2v2h1v1h-1v1h1v-1h2v2h-3v1h2v1h-1v1h-1v-1h-1v1h1v1h1v1h-1v1h1v1h-2v-2h-1v-4h1v-3h-1v-1h1v-1h-1v1h-1v-2h-1v-1h1v-1h1zM17 7h1v2h1v1h1v-1h-1v-2h1v1h1v-1h1v1h1v-1h1v2h1v-2h1v3h-1v1h-1v-1h-1v-1h-1v1h1v1h1v2h1v2h-3v-1h1v-1h-1v-2h-3v1h1v1h-2v-2h-1zM1 9h1v2h-1zM3 9h5v1h-3v2h1v2h-1v-1h-1v-1h-1v-1h1v-1h-1zM10 9h3v1h-1v1h-1v-1h-1zM27 9h5v2h1v2h-2v2h-1v-1h-1v-3h1v1h1v-1h-1v-1h-2v1h-1zM9 10h1v2h1v2h2v1h-3v-1h-1v-2h-2v-1h2zM33 10h1v1h-1zM12 11h1v1h-1zM26 11h1v1h-1zM1 12h1v1h-1zM27 12h1v1h-1zM2 13h2v1h-1v1h2v2h-1v-1h-2v-1h-1v-1h1zM7 13h1v1h-1zM20 13h1v1h-1zM26 13h1v1h-1zM6 14h1v1h1v1h-2zM8 14h1v1h-1zM14 14h1v1h-1zM27 14h1v1h-1zM32 14h2v1h-1v1h-1zM9 15h1v1h3v1h-3v1h-3v-1h2zM13 15h1v1h-1zM21 15h1v1h1v1h-1v2h1v1h3v1h1v1h1v1h-2v-1h-1v1h-1v-2h-3v-2h-1v-2h1zM25 15h2v1h2v1h1v-1h2v1h-1v1h2v-1h1v2h-1v1h-1v1h-1v1h-3v-1h1v-2h1v1h1v-1h-1v-1h-1v1h-1v1h-2v-1h1v-1h1v-1h-1v1h-2v-1h-1v-1h1zM1 16h1v1h-1zM2 17h2v1h1v1h-1v1h-1v-1h-2v-1h1zM23 17h1v1h-1zM6 18h1v1h2v1h-2v1h1v1h-1v1h1v1h-3v-4h1zM10 18h2v1h1v-1h1v3h-1v-1h-2v-1h-1zM24 18h1v1h-1zM19 19h1v1h-1zM2 20h1v1h-1zM9 20h1v1h1v1h1v2h1v-1h2v1h-1v3h-1v3h1v2h-2v-2h-1v1h-1v1h-1v-4h2v1h1v-1h-1v-1h1v-1h1v-1h-2v-2h-1v1h-1v-1h-1v-1h1zM33 20h1v3h-1zM3 21h1v1h-1zM19 21h1v1h-1zM1 22h2v1h-1v3h-1zM20 22h2v1h2v3h-1v-1h-1v2h-3v1h2v2h2v2h2v1h1v1h-3v-1h-1v-1h-1v-1h-2v-1h1v-1h-2v-1h-1v1h1v1h-1v1h2v1h-2v1h2v1h-4v-3h1v-1h-2v-2h2v-1h1v-1h1v-1h1v1h1v-2h1v-1h-1zM18 23h2v1h-2zM25 23h1v1h-1zM28 23h1v1h1v-1h3v1h1v1h-3v1h-1v3h1v1h1v-1h-1v-3h1v1h1v1h1v1h-1v1h1v1h-3v1h1v1h-2v1h-3v-1h1v-1h-1v-1h1v-1h-1v1h-1v1h-1v-1h-1v-1h1v-1h-1v-1h-1v-1h2v-2h1v-1h1v1h1zM17 24h1v1h-1zM3 25h1v1h-1zM7 25h1v1h-1zM9 25h2v2h-2zM15 25h1v1h-1zM26 26v3h3v-3zM33 26h1v1h-1zM1 27h7v7h-7zM27 27h1v1h-1zM2 28v5h5v-5zM22 28h1v1h-1zM3 29h3v3h-3zM23 29h1v1h-1zM29 31v1h1v-1zM10 32h2v1h-2zM19 32h2v1h-2zM9 33h1v1h-1zM32 33h1v1h-1z"/></svg>