<svg xmlns="http://www.w3.org/2000/svg" viewBox="0 0 35 35"><path d="M1 1h7v7h-7zM10 1h2v1h-1v3h2v1h-1v3h3v-2h1v4h1v1h-2v1h-1v1h-1v-1h-3v1h3v2h1v2h1v1h-1v1h-1v-1h-2v1h-1v-2h2v-3h-2v1h-1v-4h3v-1h2v-1h-2v1h-1v-1h-1v-1h1v-3h-1v3h-1v-6h1zM13 1h1v1h-1zM15 1h1v1h-1zM17 1h1v1h-1zM19 1h4v3h-3v-1h1v-1h-1v1h-1zM24 1h1v1h-1zM27 1h7v7h-7zM2 2v5h5v-5zM16 2h1v1h1v1h-1v1h2v1h-4v-1h1v-1h-1v-1h1zM28 2v5h5v-5zM3 3h3v3h-3zM24 3h1v3h-1v-1h-1v-1h1zM29 3h3v3h-3zM13 4h1v1h-1zM19 4h1v1h-1zM21 5h1v1h-1zM14 6h1v1h-1zM19 6h2v1h-1v1h1v-1h1v1h1v-1h-1v-1h2v3h1v-2h1v3h-1v1h-1v-1h-1v-1h-2v1h2v1h-4v1h2v1h-3v1h-1v-2h1v-1h-1v-1h1v-1h1v1h1v-1h-1zM13 7h1v1h-1zM17 7h1v2h-1zM1 9h1v1h-1zM3 9h5v1h-2v1h-1v-1h-2zM27 9h5v1h2v1h-1v1h1v3h-1v1h-1v-1h-1v-1h2v-1h-2v1h-2v-3h1v1h1v-1h-1v-1h-2v2h-1zM2 10h1v1h-1zM9 10h1v1h-1zM1 11h1v1h-1zM4 11h1v1h2v1h-1v1h1v1h1v1h-2v-1h-1v2h-1v-2h-1v-1h2v-1h-2v1h-1v1h1v5h2v-1h4v3h1v-1h1v2h1v1h-1v1h-2v-1h1v-1h-1v1h-2v-1h1v-1h-1v-1h1v-1h-1v1h-1v1h-2v-1h-2v-1h-1v-1h1v-1h-1v-1h1v-1h-1v-3h1v-1h2zM7 11h2v1h-2zM23 11h1v2h1v-1h1v1h1v1h1v1h-1v1h-1v-2h-1v1h-1v1h1v1h-1v1h-1v-1h-1v1h1v1h-3v1h-1v-2h1v-1h1v-2h1v-1h1v-1h-1v-1h1zM7 13h1v1h-1zM15 13h1v1h-1zM16 14h1v1h1v1h-1v2h-1v-2h-1v-1h1zM18 14h2v1h-2zM28 15h3v1h1v1h-1v1h1v1h1v1h-1v1h-1v1h-2v-3h1v1h1v-1h-1v-1h-1v1h-2v1h-1v1h-1v2h-1v-3h1v-1h1v-2h1v1h1zM8 16h1v1h-1zM10 16h1v1h-1zM19 16h1v1h-1zM29 16v1h1v-1zM7 17h1v1h-1zM18 17h1v1h-1zM33 17h1v2h-1zM4 18h1v1h-1zM17 18h1v1h-1zM24 18h1v1h-1zM16 19h1v1h-1zM23 19h1v1h-1zM12 20h1v1h-1zM14 20h2v1h-1v1h4v1h1v1h-2v-1h-4v-1h-1v-1h1zM20 20h3v1h-3zM27 20h1v1h-1zM33 20h1v3h-1v-1h-1v-1h1zM1 21h1v5h-1zM19 21h1v1h-1zM26 21h1v1h-1zM6 22h1v1h-1zM20 22h2v2h1v1h-1v3h-1v-1h-1v-3h1v-1h-1zM27 22h1v2h-1zM3 23h1v1h-1zM13 23h1v2h-1v2h-1v-1h-1v-1h1v-1h1zM29 23h1v1h-1zM32 23h1v1h1v1h-4v-1h2zM4 24h3v1h-3zM15 24h1v1h-1zM17 24h1v1h1v3h2v1h-3v1h-1v1h1v1h-1v2h-3v-1h2v-1h-3v-1h1v-1h1v1h1v-2h1v-1h1v-1h-1zM28 24h1v1h1v4h1v1h-1v1h-1v1h1v-1h1v1h1v1h-1v1h-3v-1h-1v-2h1v-1h-1v1h-1v-1h-1v-1h-1v-1h-1v-3h1v2h1v-2h3zM3 25h1v1h-1zM7 25h2v1h-2zM9 26h2v1h1v1h1v1h-1v2h-2v1h-1v-4h1v-1h-1zM14 26h2v1h1v1h-1v1h-2v-1h1v-1h-1zM26 26v3h3v-3zM31 26h1v1h1v1h-1v1h-1zM33 26h1v1h-1zM1 27h7v7h-7zM13 27h1v1h-1zM27 27h1v1h-1zM2 28v5h5v-5zM22 28h1v1h-1zM3 29h3v3h-3zM23 29h1v1h-1zM19 30h4v1h-1v1h-1v-1h-1v1h-1zM31 30h3v1h-3zM24 31h1v2h1v1h-3v-1h1zM10 32h1v1h-1zM12 32h1v1h-1zM20 32h1v1h-1zM22 32h1v1h-1zM9 33h1v1h-1zM18 33h1v1h-1zM32 33h1v1h-1z"/></svg>