<svg xmlns="http://www.w3.org/2000/svg" viewBox="0 0 35 35"><path d="M1 1h7v7h-7zM10 1h1v1h2v4h-1v-1h-2v-1h1v-1h-2v-1h1zM13 1h1v1h-1zM15 1h2v3h-1v-2h-1zM20 1h1v2h-1zM22 1h1v2h-1zM24 1h1v1h1v1h-1v1h1v1h-1v2h-1v2h-1v2h-2v-1h1v-1h-1v-2h1v1h1v-5h1zM27 1h7v7h-7zM2 2v5h5v-5zM14 2h1v1h-1zM18 2h1v1h-1zM28 2v5h5v-5zM3 3h3v3h-3zM21 3h1v1h-1zM29 3h3v3h-3zM14 4h1v2h-1zM18 4h1v3h-1zM9 5h1v1h-1zM10 6h2v4h-2v-1h1v-2h-1zM9 7h1v1h-1zM13 7h1v1h-1zM15 7h1v2h-1v1h-1v1h1v1h-2v-1h-1v-1h1v-1h1v-1h1zM17 7h1v1h1v2h-1v1h1v1h-2v-2h-1v-1h1zM19 7h1v1h-1zM25 7h1v1h-1zM1 9h1v1h-1zM3 9h1v1h-1zM5 9h1v1h-1zM7 9h1v1h-1zM20 9h1v1h-1zM24 9h1v1h-1zM29 9h1v1h-1zM32 9h1v1h-1zM2 10h1v1h-1zM4 10h1v1h1v4h-1v-3h-1zM9 10h1v1h-1zM25 10h3v1h-2v1h-1zM33 10h1v6h-1v1h-1v-1h-1v-1h2v-3h-2v-1h2zM7 11h2v1h1v1h-2v-1h-1zM11 11h1v2h-1zM23 11h1v2h-1v1h-2v-1h-1v-1h3zM28 11h1v1h-1zM1 12h1v1h-1zM16 12h1v1h-1zM29 12h1v1h-1zM3 13h1v1h-1zM7 13h1v1h-1zM10 13h1v2h-1zM24 13h5v1h-1v1h1v1h-1v2h1v2h-1v-1h-1v1h-1v-1h-1v-1h1v-1h1v-1h-2v-2h-1zM30 13h1v1h-1zM1 14h2v1h-2zM8 14h1v1h-1zM12 14h3v1h-3zM16 14h1v1h-1zM18 14h1v1h-1zM20 14h1v1h-1zM3 15h2v1h1v-1h2v1h-1v1h1v1h-2v-1h-1v1h-1v-2h-1zM11 15h1v1h-1zM15 15h1v1h1v1h-1v2h-4v-1h1v-1h-1v-1h3zM23 15h1v2h-1v1h-1v1h-1v-1h-1v-1h-1v2h-2v-1h1v-2h5zM2 16h1v1h-1zM29 16h1v1h-1zM1 17h1v1h-1zM9 17h1v1h1v1h-1v1h-1zM2 18h2v2h-1v1h1v1h-3v-1h1v-1h-1v-1h1zM5 18h1v1h-1zM33 18h1v2h-3v-1h2zM6 19h2v1h-2zM19 19h1v1h1v1h-1v2h-2v1h2v1h-1v1h-1v-1h-1v-1h-1v-1h-1v1h-3v2h-1v1h-2v-3h-2v-1h1v-1h1v1h1v2h1v-4h2v-1h1v2h3v-1h1v1h1v-1h-1v-1h1zM5 20h1v1h-1zM8 20h1v1h-1zM22 20h1v1h1v-1h1v2h-3v1h-1v-2h1zM29 20h1v1h-1zM7 21h1v1h-1zM9 21h1v1h-1zM26 21h2v2h-2v1h-1v-2h1zM30 21h1v1h-1zM5 22h2v1h-2zM32 22h2v6h-1v1h1v3h-1v-2h-1v-2h-1v-1h2v-3h-5v-1h4zM1 23h1v1h-1zM3 23h1v2h-2v-1h1zM22 23h2v2h-1v1h-1v1h1v3h-1v1h-1v-5h-1v-1h1v-1h1zM5 24h1v1h2v1h-4v-1h1zM15 24h1v1h1v1h-2v1h-1v2h2v-1h1v-2h1v1h1v1h-1v1h-1v2h-2v1h-1v1h1v1h-6v-1h2v-2h1v2h1v-3h-1v-1h-2v-1h1v-1h1v1h1v-1h-1v-1h2v-1h1zM26 24h2v1h3v2h-1v1h1v2h-1v3h-2v1h-1v-1h-1v1h-2v-1h1v-2h2v1h2v-1h-1v-1h-3v-2h-1v-1h1v-1h-1v-1h2zM1 25h1v1h-1zM26 26v3h3v-3zM1 27h7v7h-7zM15 27h1v1h-1zM27 27h1v1h-1zM2 28v5h5v-5zM3 29h3v3h-3zM9 29h1v1h-1zM10 30h1v1h-1zM24 30h1v1h-1zM9 31h1v1h-1zM18 31h1v1h1v1h-1v1h-2v-1h1zM22 31h1v3h-1zM31 31h1v1h-1zM15 32h2v1h-2zM32 32h1v1h1v1h-2zM30 33h1v1h-1z"/></svg>