<svg xmlns="http://www.w3.org/2000/svg" viewBox="0 0 35 35"><path d="M1 1h7v7h-7zM10 1h1v1h-1zM12 1h1v1h1v2h-2v-1h-1v-1h1zM15 1h1v1h-1zM17 1h1v3h-1v-1h-1v-1h1zM20 1h2v2h-1v-1h-1zM23 1h2v1h-1v1h-1zM27 1h7v7h-7zM2 2v5h5v-5zM19 2h1v1h-1zM28 2v5h5v-5zM3 3h3v3h-3zM9 3h2v2h3v1h-1v1h-1v-1h-1v1h-1v1h1v-1h1v1h1v1h-4zM15 3h1v1h-1zM20 3h1v1h-1zM22 3h1v1h-1zM24 3h2v2h-1v-1h-1zM29 3h3v3h-3zM16 4h1v1h1v1h-2v2h-1v-1h-1v-1h1v-1h1zM19 4h1v1h-1zM23 4h1v1h1v1h-2zM21 5h1v1h-1zM18 6h1v1h-1zM20 6h1v1h-1zM22 6h1v1h-1zM13 7h1v1h-1zM17 7h1v2h-1zM19 7h1v1h1v-1h1v1h1v1h-2v1h2v-1h1v1h1v1h-1v1h1v1h-1v1h-1v-1h-1v-1h1v-1h-4v1h2v2h-1v-1h-2v-2h-1v-1h1v-1h1v1h1v-1h-1zM23 7h1v1h-1zM25 7h1v1h-1zM24 8h1v1h-1zM1 9h1v2h1v1h2v2h-2v2h1v1h2v-4h2v1h-1v1h2v1h-2v1h2v1h-2v1h-1v-1h-2v1h2v1h-1v1h-1v1h-1v1h-1v3h-1v-5h2v-1h-2v-3h1v-3h-1zM3 9h5v1h-3v1h-2zM14 9h2v1h-1v1h2v2h1v1h-1v1h1v1h-1v1h2v1h-1v3h-1v-1h-1v-1h1v-1h-1v-1h-2v3h-1v-2h-1v-1h1v-1h-1v-2h-3v-2h1v1h1v-1h-1v-2h2v3h1v1h1v1h2v-1h-1v-1h1v-1h-1v1h-1v-1h-1v-1h1zM25 9h1v1h-1zM27 9h5v1h2v1h-1v2h1v2h-1v1h-1v-3h-1v1h-3v-1h1v-2h1v1h1v-1h-1v-1h-2v2h-1v2h-1v-2h-1v-1h2zM5 11h4v1h-4zM18 14h2v2h-1v-1h-1zM22 14h1v1h-1zM24 14h1v1h-1zM27 14h1v1h-1zM4 15h1v1h-1zM10 15h1v1h-1zM21 15h1v1h1v1h-1v2h-2v-2h1zM23 15h1v1h-1zM28 15h2v1h2v1h-1v1h1v1h1v1h-1v1h-1v1h1v1h-1v1h1v-1h1v1h1v1h-4v-1h-1v-1h1v-1h-2v-1h1v-2h1v1h1v-1h-1v-1h-1v1h-2v1h-1v-3h-1v2h-1v-1h-1v-1h1v-1h3v2h1zM9 16h1v1h-1zM11 16h1v1h-1zM10 17h1v1h1v1h-3v-1h1zM33 17h1v2h-1zM15 18h1v1h-1zM7 19h2v1h-2zM19 19h1v1h-1zM23 19h1v1h-1zM9 20h3v1h3v-1h1v2h2v1h-2v4h1v1h-2v-2h-2v1h-1v1h-2v-1h-1v-1h-5v-1h1v-1h-1v1h-1v-2h3v2h2v-1h-1v-1h2v2h1v-1h2v1h1v-1h1v1h1v-2h-2v-1h-1v1h-2v-1h-1zM20 20h3v1h-2v1h1v2h1v1h-2v1h1v1h-2v-2h-1v-2h1v1h1v-1h-1v-1h-1v-1h1zM25 20h1v1h1v1h-2v1h-1v-2h1zM33 20h1v1h-1zM7 21h1v1h-1zM6 22h1v1h-1zM27 22h1v1h-1zM33 22h1v1h-1zM12 23h1v1h-1zM25 23h2v1h-1v1h2v-1h1v1h1v4h1v1h-1v1h-1v1h1v-1h1v1h1v1h-2v1h-2v-2h-1v1h-1v-3h-1v-1h-1v-1h-1v-1h2v-2h-1v-1h1zM17 24h1v1h-1zM18 25h1v3h4v1h-5v-2h-1v-1h1zM23 25h1v1h-1zM26 26v3h3v-3zM31 26h3v1h-1v2h-2zM1 27h7v7h-7zM27 27h1v1h-1zM2 28v5h5v-5zM9 28h1v3h1v1h-2zM13 28h2v1h-2zM3 29h3v3h-3zM12 29h1v1h-1zM16 29h2v1h-1v1h2v-1h3v2h-1v-1h-1v1h1v1h-2v-1h-2v2h-2v-1h1zM23 29h1v1h-1zM27 30v1h1v-1zM31 30h3v1h-3zM14 31h1v2h-1zM12 32h1v1h1v1h-5v-1h3zM22 32h3v1h1v1h-3v-1h-1zM18 33h1v1h-1zM21 33h1v1h-1zM32 33h1v1h-1z"/></svg>