<svg xmlns="http://www.w3.org/2000/svg" viewBox="0 0 35 35"><path d="M1 1h7v7h-7zM10 1h4v1h-2v1h2v1h-1v1h-2v1h-1v3h-1v-6h1zM17 1h1v2h-2v-1h1zM20 1h5v1h-2v1h1v2h-1v-1h-1v-1h-1v-1h-1zM27 1h7v7h-7zM2 2v5h5v-5zM19 2h1v1h-1zM25 2h1v3h-1zM28 2v5h5v-5zM3 3h3v3h-3zM15 3h1v1h-1zM29 3h3v3h-3zM19 4h2v1h-2zM15 5h3v1h-2v4h-1v1h2v-1h1v-1h1v1h1v-2h1v-1h1v1h1v-1h-1v-1h-1v-1h2v1h1v3h1v2h-1v1h-1v-3h-1v3h-1v-1h-2v1h1v1h-2v1h-1v1h2v-1h1v2h-3v1h2v1h-1v1h-1v-1h-2v-1h1v-3h-1v-1h2v-1h-2v1h-1v-1h-2v-1h1v-1h1v-1h1zM24 5h1v1h-1zM12 6h2v3h-1v1h-1v1h-1v-1h-1v-1h2v-1h1v-1h-1zM18 6h1v1h-1zM20 6h1v1h-1zM25 6h1v2h-1zM11 7h1v1h-1zM17 7h1v2h-1zM19 7h1v1h-1zM1 9h1v1h1v1h-2zM3 9h5v1h-5zM27 9h5v2h1v3h1v1h-1v1h-1v-1h-1v-1h1v-1h-1v1h-3v-1h1v-2h1v1h1v-1h-1v-1h-2v3h-1v1h1v1h-1v3h1v-1h1v-2h2v1h1v1h-2v1h-1v1h-2v1h-1v1h1v1h-2v1h-1v-2h-3v-1h4v-1h1v-1h-1v-1h1v-3h-1v-1h1v-1h1v-1h-1v-1h1zM9 10h1v2h-1zM33 10h1v1h-1zM3 11h1v1h-1zM5 11h3v1h-2v2h1v1h-1v3h-1v-1h-1v2h1v1h-3v-2h1v-1h-1v-1h1v-1h2v-1h-2v-1h2zM1 12h2v1h-2zM8 12h1v1h-1zM10 12h2v3h1v-2h1v3h-1v1h-1v1h-1v-1h-1v-1h1v-1h-1v-1h1v-1h-1zM22 12h1v1h-1zM7 13h1v1h-1zM9 13h1v1h-1zM20 13h1v1h-1zM23 13h1v1h-1zM22 14h1v1h-1zM24 14h1v1h-1zM7 15h1v1h-1zM21 15h1v1h1v-1h1v3h1v1h-5v1h-1v-2h1v-1h1zM8 16h1v4h-2v-1h1v-1h-1v-1h1zM22 17v1h1v-1zM33 17h1v2h-1zM10 18h1v1h-1zM12 18h3v1h2v1h1v1h-2v-1h-1v2h-1v-3h-1v1h-1zM30 18h2v1h1v1h-1v1h-1v1h-3v-1h1v-2h1v1h1v-1h-1zM1 20h1v1h-1zM5 20h2v1h2v2h-1v-1h-1v1h1v1h-1v1h1v-1h1v1h1v-1h1v-2h-1v-1h1v-1h1v3h1v-1h1v3h-3v1h-1v1h-1v-1h-6v-1h2v-1h-1v-2h1v1h1v-1h-1zM27 20h1v1h-1zM33 20h1v1h-1zM3 21h1v1h-1zM19 21h1v1h-1zM32 21h1v1h-1zM1 22h1v4h-1zM16 22h3v1h1v1h-2v-1h-2zM20 22h2v2h1v1h-2v1h1v1h-3v1h1v1h-2v-2h-1v-1h1v-1h1v1h1v-2h1v-1h-1zM27 22h1v1h-1zM31 22h1v1h-1zM33 22h1v1h-1zM9 23h1v1h-1zM25 23h2v2h1v-1h1v1h1v4h1v2h-2v1h3v1h-2v1h-3v-2h-4v-1h3v-1h-1v-1h-1v-1h-1v-1h1v-1h1v-1h-1v-1h1zM30 23h1v1h1v-1h1v1h1v1h-4zM15 24h1v1h-1zM17 24h1v1h-1zM23 25h1v1h-1zM11 26h1v1h-1zM15 26h1v1h-1zM26 26v3h3v-3zM31 26h3v1h-1v1h1v3h-2v-2h-1zM1 27h7v7h-7zM12 27h2v1h-1v1h1v1h-3v-1h-1v1h1v1h-1v1h-1v-4h3zM16 27h1v2h-1zM27 27h1v1h-1zM2 28v5h5v-5zM14 28h1v1h-1zM22 28h1v1h-1zM3 29h3v3h-3zM15 29h1v1h1v1h1v1h-1v1h2v1h-5v-1h-1v-1h2v-1h-1v-1h1zM17 29h1v1h-1zM20 29h1v1h2v1h-1v1h-1v-1h-2v-1h1zM23 29h1v1h-1zM27 30v1h1v-1zM11 31h2v1h-2zM19 32h2v1h-2zM22 32h1v1h-1zM9 33h1v1h-1zM11 33h2v1h-2zM23 33h3v1h-3zM32 33h1v1h-1z"/></svg>