<svg xmlns="http://www.w3.org/2000/svg" viewBox="0 0 35 35"><path d="M1 1h7v7h-7zM12 1h1v1h-1zM17 1h1v3h-1v-1h-1v-1h1zM19 1h6v1h-2v1h2v-1h1v3h-1v1h-1v2h-1v-1h-1v-1h-1v-1h2v-1h-1v-2h-2v1h-1zM27 1h7v7h-7zM2 2v5h5v-5zM10 2h1v1h-1zM13 2h1v2h-1v2h2v-1h1v-1h1v1h2v1h-3v2h-1v-1h-1v1h-1v-1h-1v1h-1v-2h1v-1h-1v1h-1v2h1v3h1v-1h2v-1h2v1h-1v1h2v-4h1v2h1v3h1v1h-2v1h-1v-2h-2v1h-3v-1h-2v2h2v2h-1v-1h-2v-1h-2v-1h2v-3h1v-1h-1v-6h1v1h1v-1h2zM28 2v5h5v-5zM3 3h3v3h-3zM15 3h1v1h-1zM20 3h1v1h-1zM29 3h3v3h-3zM19 4h1v1h-1zM19 6h2v1h-1v1h-1zM25 6h1v4h-1zM21 7h1v1h1v1h-1v1h1v-1h1v1h1v1h-1v1h1v-1h1v2h-1v2h-2v1h1v1h1v2h-1v-1h-1v-1h-2v-2h1v-1h1v-1h-2v-2h-1v-3h1zM1 9h1v1h-1zM3 9h5v1h-1v1h-1v-1h-2v1h-1v1h-1v-2h1zM27 9h5v1h2v1h-1v1h-1v1h-1v1h2v-1h1v2h-1v1h-1v1h-2v-3h-1v-3h1v1h1v-1h-1v-1h-2v1h-2v-1h1zM7 11h1v1h-1zM13 11v1h1v-1zM1 12h1v3h-1zM6 12h1v1h-1zM15 13h1v1h-1zM20 13h1v1h-1zM26 13h1v1h-1zM6 14h1v1h-1zM16 14h1v1h1v1h-1v2h-1v-1h-1v-1h1zM19 14h1v1h-1zM27 14h1v1h-1zM3 15h1v1h-1zM7 15h2v1h-2zM25 15h1v1h-1zM1 16h1v1h2v1h3v1h-1v1h1v1h1v1h-1v1h-1v-1h-1v2h-1v-1h-2v3h-1v-5h1v1h2v-1h1v-1h-1v-1h-1v-1h-2zM5 16h2v1h-2zM19 16h1v1h-1zM26 16h3v1h1v1h-1v1h-2v3h1v1h-2v-1h-1v1h-1v-2h1v-1h1zM7 17h1v1h-1zM11 17h2v1h1v1h-2v-1h-1zM18 17h1v1h-1zM20 17h1v1h2v2h1v1h-2v-2h-2v1h-1v-2h1zM27 17v1h1v-1zM33 17h1v2h-1v1h1v1h-1v1h-1v-1h-1v1h-2v-3h1v1h1v-1h-1v-1h3zM8 18h1v3h-1v-1h-1v-1h1zM15 18h1v1h1v1h-1v2h2v1h-4v-1h-1v-1h2zM17 18h1v1h-1zM2 19h1v1h-1zM10 19h1v2h-1zM12 20h1v1h-1zM19 21h1v1h-1zM8 22h4v1h-1v1h-1v-1h-2zM20 22h3v1h-1v1h1v-1h1v2h1v-2h1v1h1v1h1v-1h1v-1h2v-1h1v1h1v1h1v1h-4v4h1v2h1v2h-2v1h-7v-1h5v-1h-4v-2h1v-1h-1v-1h-1v-3h-1v2h-2v-2h-1v-1h2v-1h-1zM33 22h1v1h-1zM7 23h1v1h-1zM12 23h1v1h-1zM18 23h1v1h-1zM3 24h1v2h-1zM6 24h1v1h-1zM8 24h1v1h-1zM17 24h1v1h-1zM5 25h1v1h-1zM7 25h1v1h-1zM10 25h1v1h2v1h-2v1h-1v-1h-1v-1h1zM13 25h3v1h-3zM18 25h1v3h4v1h-2v1h1v1h1v2h-1v-1h-1v-1h-1v1h-1v-1h-1v-1h2v-1h-2v1h-1v1h1v1h-1v1h2v1h-5v-1h1v-1h-1v-1h2v-1h-2v-1h-1v-1h1v-1h1v1h1v1h1v-1h-1v-1h1v-1h1zM24 26v1h1v-1zM26 26v3h3v-3zM31 26h3v1h-1v1h-1v1h-1zM1 27h7v7h-7zM27 27h1v1h-1zM2 28v5h5v-5zM9 28h1v3h1v-2h1v1h2v1h-2v1h-3zM33 28h1v1h-1zM3 29h3v3h-3zM23 29h1v1h-1zM27 30v1h1v-1zM32 30h2v1h-2zM29 31v1h1v-1zM12 32h2v1h-2zM20 32h1v1h-1zM9 33h1v1h-1zM32 33h1v1h-1z"/></svg>