<svg xmlns="http://www.w3.org/2000/svg" viewBox="0 0 35 35"><path d="M1 1h7v7h-7zM9 1h3v1h1v-1h3v4h-1v-1h-1v-1h-1v1h1v2h1v1h-1v1h-1v-1h-1v-1h1v-1h-2v-1h1v-1h-1v1h-2zM18 1h2v1h1v1h-2v-1h-1zM23 1h1v1h-1zM27 1h7v7h-7zM2 2v5h5v-5zM22 2h1v1h2v-1h1v2h-1v1h-1v-1h-1v1h1v1h2v3h1v1h-2v5h-1v-2h-1v-1h1v-1h-1v1h-1v-2h2v-1h1v-2h-1v1h-1v-1h-1v-2h-1v-2h1zM28 2v5h5v-5zM3 3h3v3h-3zM17 3h1v6h-2v-1h1v-1h-1v-2h1zM29 3h3v3h-3zM19 4h1v1h-1zM9 5h1v1h-1zM10 6h1v1h-1zM19 6h2v1h-1v2h-1zM9 7h1v1h-1zM11 7h1v3h1v1h-1v1h1v-1h1v-1h1v-1h1v1h1v2h1v1h-1v1h-1v-3h-1v3h1v1h-2v-1h-1v-1h-3v-1h1zM15 7h1v1h-1zM21 7h1v1h-1zM14 8h1v1h-1zM1 9h1v1h-1zM4 9h6v3h-1v-1h-1v-1h-1v1h-1v1h-1v-2h-1zM13 9h1v1h-1zM18 9h1v2h-1zM21 9h1v1h-1zM29 9h1v1h1v-1h3v1h-2v1h2v3h-1v-2h-1v1h-1v-1h-2v-1h-1v-1h1zM2 10h2v2h1v1h-1v3h-2v-1h1v-3h-1v1h-1v-2h1zM20 10h1v1h-1zM7 11h1v1h-1zM26 11h2v1h1v1h-1v1h-1v-1h-1zM6 12h1v1h2v1h1v1h-2v-1h-1v1h-1v-1h-1v-1h1zM19 12h2v1h1v1h1v2h-3v1h-1v-2h-1v-2h1v1h1v-1h-1zM1 14h1v1h-1zM12 14h1v1h1v1h-3v-1h1zM26 14h1v2h-1v1h-2v2h1v1h-1v2h1v1h1v-1h1v1h1v-1h2v-1h-2v-1h2v-1h1v-1h3v4h-1v-1h-2v2h-2v1h-2v1h2v-1h1v6h-3v1h-1v1h-1v-2h-1v2h-2v-1h1v-3h1v-1h1v-3h-1v-1h-1v1h-1v-2h1v-3h-2v1h-3v-2h2v-1h1v1h2v-2h2v-1h1zM28 14h1v1h-1zM30 14h1v1h-1zM5 15h1v1h-1zM7 15h1v1h-1zM16 15h1v1h-1zM29 15h1v1h1v-1h1v2h-1v1h-1v1h-1v-1h-1v2h-1v1h-1v-4h2v-1h1zM1 16h1v1h-1zM8 16h1v2h-2v1h-1v-2h2zM14 16h2v1h-2zM17 16h1v1h-1zM33 16h1v1h-1zM2 17h1v1h-1zM4 17h1v2h-1zM11 17h3v2h-1v-1h-2zM16 17h1v4h-1v1h-1v-2h1zM9 18h2v3h-1v-1h-1zM1 19h2v1h-2zM5 19h1v2h2v1h-1v1h1v-1h1v-1h1v2h-1v1h-3v1h-2v1h-3v-4h2v1h-1v2h1v-2h1v-1h1zM7 19h1v1h-1zM14 19h1v1h-1zM32 19v1h1v-1zM12 20h1v1h1v1h1v2h-1v-1h-2v1h-2v-1h1v-1h1zM3 21h1v1h-1zM17 21h1v1h-1zM19 21h2v2h-1v-1h-1zM18 22h1v1h1v1h2v2h-1v-1h-3zM32 23h2v3h-1v1h-1v1h1v2h1v3h-3v1h-1v-1h-1v-1h-1v-1h2v1h1v-2h1v-1h-1v-3h1v-1h-1v-1h1zM16 24h1v1h-1zM7 25h3v2h1v1h1v1h1v1h-2v-1h-1v1h1v1h-2v-5h-2zM13 25h1v3h-2v-1h-1v-1h2zM15 25h1v1h-1zM17 25h1v1h2v1h-1v1h1v1h-1v1h2v-1h1v2h-1v1h-1v-1h-3v-1h-1v-1h-2v-1h2v-2h1zM22 26h2v1h-2zM26 26v3h3v-3zM1 27h7v7h-7zM20 27h1v1h-1zM27 27h1v1h-1zM2 28v5h5v-5zM3 29h3v3h-3zM14 30h1v1h-1zM11 31h1v1h1v1h1v-1h1v1h4v1h-7v-1h-1zM13 31h1v1h-1zM15 31h2v1h-2zM19 32h1v1h-1zM21 32h1v1h-1zM27 32h1v1h1v1h-2zM9 33h1v1h-1zM20 33h1v1h-1zM24 33h2v1h-2z"/></svg>