<svg xmlns="http://www.w3.org/2000/svg" viewBox="0 0 35 35"><path d="M1 1h7v7h-7zM9 1h1v2h2v2h-2v-1h-1zM11 1h1v1h-1zM13 1h3v2h1v1h-1v1h-1v-1h-2v-1h1v-1h-1zM18 1h1v1h-1zM23 1h1v2h-1zM27 1h7v7h-7zM2 2v5h5v-5zM17 2h1v1h-1zM19 2h3v1h-3zM28 2v5h5v-5zM3 3h3v3h-3zM22 3h1v2h1v1h1v1h-1v2h-1v-2h-1v-2h-1v-1h1zM25 3h1v2h-2v-1h1zM29 3h3v3h-3zM17 4h1v5h-2v-1h1v-1h-1v-2h1zM19 4h1v1h-1zM9 5h1v1h-1zM13 5h1v1h-1zM11 6h1v2h1v-1h1v1h1v1h-1v1h-1v-1h-1v1h-1zM19 6h2v1h-1v2h-1zM9 7h1v1h-1zM15 7h1v1h-1zM21 7h1v1h-1zM25 7h1v1h-1zM1 9h1v1h-1zM4 9h6v1h1v1h-1v1h-1v1h-1v-1h-1v-1h1v-1h-2v1h-1v-1h-1zM15 9h1v1h1v4h-1v-3h-1v3h-2v-1h1v-1h-2v-1h2v-1h1zM18 9h1v2h-1zM21 9h1v1h-1zM26 9h1v1h-1zM29 9h1v1h1v-1h3v1h-2v1h2v1h-1v1h1v1h-2v-1h-1v-1h-2v-1h-1v-1h1zM3 10h1v2h-1v1h-1v-2h1zM20 10h1v1h-1zM22 10h3v1h1v1h-1v1h-2v-1h1v-1h-2zM27 11h1v1h1v1h-1v1h-1zM4 12h2v1h-1v1h-2v-1h1zM19 12h1v1h-1zM1 13h1v1h-1zM6 13h2v1h-2zM9 13h1v1h-1zM11 13h1v1h1v1h-1v1h-2v-1h1zM18 13h1v1h-1zM21 13h1v3h-2v1h-1v-3h2zM25 13h1v1h-1zM5 14h1v1h-1zM15 14h1v1h-1zM23 14h2v1h-2zM28 14h1v1h-1zM30 14h1v1h-1zM3 15h2v1h-1v2h-1v-1h-1v-1h1zM6 15h3v1h-3zM13 15h1v1h-1zM16 15h1v1h-1zM25 15h1v1h-1zM27 15h1v1h-1zM29 15h1v1h2v1h-2v2h-1v-1h-1v2h2v-1h1v-1h3v4h-1v-1h-2v1h1v1h-1v1h-2v-1h-1v-1h2v-1h-3v-3h-3v1h2v3h-1v-2h-3v1h-1v-1h-3v2h-4v-1h3v-1h-1v-3h1v-1h1v2h-1v1h1v-1h1v1h1v-2h1v1h2v-2h2v1h3v-1h1zM12 16h1v1h1v3h-1v1h-1zM15 16h1v1h-1zM33 16h1v1h-1zM1 17h1v1h-1zM5 17h3v1h-1v1h2v1h2v1h1v1h1v1h-1v1h-1v-1h-1v-2h-2v-1h-2v1h-1v1h-1v1h-1v-1h-1v-1h1v-1h2v-1h-1v-1h1zM9 17h2v2h-2zM32 19v1h1v-1zM7 21h1v1h-1zM19 21h2v2h-1v-1h-1zM23 21h1v1h1v2h1v1h1v-2h1v2h3v1h-1v4h-3v3h-1v-1h-1v-1h1v-1h-1v1h-2v-3h1v-1h-2v-1h2v-3h-1zM1 22h1v3h4v1h-5zM5 22h1v1h-1zM8 22h1v1h1v1h-1v2h-2v-1h1v-1h-2v-1h2zM18 22h1v1h1v1h-1v1h-1zM4 23h1v1h-1zM14 23h1v1h-1zM32 23h2v3h-1v1h-1v2h-1v-3h1v-1h-1v-1h1zM15 24h2v1h-1v1h-1zM20 24h2v1h-2zM10 25h1v1h-1zM12 25h1v4h1v-2h2v-1h3v2h1v-1h2v4h-1v1h-1v1h-1v-2h-2v-3h1v-1h-1v1h-1v1h-1v1h1v1h1v1h-3v-1h-1v-1h-1v-1h-1v-1h-1v3h-1v-5h1v1h2zM26 26v3h3v-3zM1 27h7v7h-7zM27 27h1v1h-1zM2 28v5h5v-5zM33 28h1v1h-1zM3 29h3v3h-3zM19 29v1h1v-1zM32 29h1v1h1v3h-5v-1h-1v-1h2v-1h1v2h1zM11 30h1v2h-1v1h1v1h-3v-1h1v-2h1zM21 32h1v1h-1zM14 33h3v1h-3zM18 33h1v1h-1zM20 33h1v1h-1zM24 33h2v1h-2zM27 33h2v1h-2z"/></svg>