<svg xmlns="http://www.w3.org/2000/svg" viewBox="0 0 35 35"><path d="M1 1h7v7h-7zM11 1h3v1h-2v2h-1v-1h-1v-1h1zM15 1h1v1h-1zM17 1h1v2h-1v1h-2v-1h1v-1h1zM19 1h6v1h-3v1h-1v-1h-1v1h-1zM27 1h7v7h-7zM2 2v5h5v-5zM28 2v5h5v-5zM3 3h3v3h-3zM9 3h1v6h-1zM13 3h1v1h-1zM20 3h1v1h-1zM22 3h1v1h-1zM24 3h2v1h-2zM29 3h3v3h-3zM19 4h1v1h-1zM23 4h1v1h1v1h-4v-1h2zM11 5h1v1h-1zM15 5h4v1h-3v4h-1v1h2v-1h1v-1h1v1h1v-1h-1v-2h1v1h1v-1h1v1h1v1h-1v1h1v3h-1v-2h-3v1h1v1h-2v-1h-1v1h-1v-1h-1v1h-3v-1h-2v-1h-1v-1h2v1h1v-1h-1v-3h1v1h1v-1h1v2h1zM20 6h1v1h-1zM25 6h1v3h-1zM17 7h1v2h-1zM23 7h1v1h-1zM1 9h1v1h-1zM3 9h5v1h-4v1h-2v-1h1zM23 9h1v1h-1zM27 9h5v1h2v1h-1v1h-1v1h-1v1h-3v-1h1v-2h1v1h1v-1h-1v-1h-2v1h-2v-1h1zM13 10v2h1v-2zM24 10h1v1h-1zM1 11h1v1h-1zM4 11h1v1h-1zM6 11h2v1h-1v1h1v1h-3v-1h1zM24 12h3v2h1v3h-1v-2h-1v-2h-2zM1 13h1v1h1v2h1v-1h4v1h-3v1h-1v1h-1v-1h-1v-2h-1zM3 13h1v1h-1zM10 13h1v1h-1zM15 13h1v1h-1zM17 13h1v1h-1zM23 13h1v1h1v1h-2zM32 13h2v2h-1v1h-1v-1h-1v-1h1zM8 14h2v2h-1v-1h-1zM12 14h1v1h-1zM16 14h1v1h2v1h-2v2h-2v1h2v-1h1v2h-1v1h-1v1h-1v1h-2v-3h1v1h1v-1h-1v-3h2v-1h-1v-1h1zM19 14h1v1h-1zM11 15h1v3h1v1h-2v-1h-1v1h-1v-2h2zM21 15h2v1h2v-1h1v2h1v1h-2v1h-1v-1h-1v-1h-1v1h1v1h-3v1h-1v-2h1v-1h1zM29 15h1v1h2v1h-1v1h1v1h1v1h-1v1h-1v1h-3v-1h1v-2h1v1h1v-1h-1v-1h-1v1h-2v-1h1v-1h1zM6 17h2v1h-1v1h1v1h-2v-1h-1v1h-1v-2h2zM18 17h1v1h-1zM33 17h1v2h-1zM1 18h1v2h1v1h-1v5h-1zM23 19h1v2h-2v-1h1zM5 20h1v2h1v1h-1v3h-3v-1h1v-1h-1v-3h1v2h1zM8 20h1v1h2v-1h1v3h-1v-1h-1v4h1v1h-2v-2h-1v-1h1v-2h-2v-1h1zM20 20h1v1h-1zM19 21h1v1h-1zM24 21h3v1h1v2h-2v-2h-1v1h-1zM32 21h2v2h-1v-1h-1zM16 22h3v1h-3zM20 22h3v1h1v1h2v1h2v-1h1v1h1v4h1v2h-2v1h2v-1h1v2h-2v1h-3v-1h1v-1h-4v-1h2v-1h-1v-1h-1v-1h-1v-1h2v-1h-2v-1h-1v2h-2v-2h-1v-1h2v-1h-1zM7 23h1v1h-1zM12 23h1v2h1v-1h1v1h1v1h-1v1h-1v-1h-2zM29 23h1v1h-1zM32 23h1v1h1v1h-4v-1h2zM17 24h1v1h1v3h4v1h-2v1h2v1h-1v1h-1v-1h-1v1h1v1h-2v-3h1v-1h-2v1h-1v-1h-1v1h1v1h1v1h-1v2h-1v-2h-2v-1h-1v3h-4v-1h1v-1h2v-1h-2v1h-1v-4h1v2h1v-1h1v1h1v-2h2v-1h2v1h1v-1h-1zM7 25h1v1h-1zM26 26v3h3v-3zM31 26h1v1h1v2h1v2h-2v-2h-1zM33 26h1v1h-1zM1 27h7v7h-7zM11 27h2v1h-2zM27 27h1v1h-1zM2 28v5h5v-5zM3 29h3v3h-3zM23 29h1v1h-1zM27 30v1h1v-1zM22 32h1v1h-1zM18 33h1v1h-1zM23 33h3v1h-3zM32 33h1v1h-1z"/></svg>