<svg xmlns="http://www.w3.org/2000/svg" viewBox="0 0 35 35"><path d="M1 1h7v7h-7zM11 1h3v1h-2v1h-1v1h-1v2h1v1h-1v1h1v1h-2v-6h1v-1h1zM17 1h1v2h-2v-1h1zM19 1h3v2h1v1h-2v-2h-1v1h-1zM24 1h1v1h-1zM27 1h7v7h-7zM2 2v5h5v-5zM23 2h1v1h-1zM25 2h1v1h-1zM28 2v5h5v-5zM3 3h3v3h-3zM12 3h2v1h-1v1h-1v1h-1v-2h1zM15 3h1v1h-1zM24 3h1v1h1v1h-1v1h-2v1h-1v-1h-1v-1h2v-1h1zM29 3h3v3h-3zM19 4h1v1h-1zM13 5h5v1h-2v2h-1v-2h-1v3h2v1h-1v1h2v1h1v-1h-1v-1h1v-1h1v3h1v1h-2v1h-1v-1h-1v-1h-1v1h-2v-1h1v-2h-1v2h-1v-1h-1v-1h1v-2h1v-1h-1v-1h1zM20 6h1v1h-1zM25 6h1v4h-1zM11 7h1v1h-1zM17 7h1v2h-1zM19 7h1v1h1v-1h1v1h1v-1h1v3h1v1h-5v-2h-1zM1 9h1v1h1v1h1v-1h-1v-1h5v1h-2v1h-1v1h1v-1h2v1h-1v1h1v1h-1v1h-1v-1h-1v-1h-2v-1h-1v1h-1zM22 9v1h1v-1zM27 9h5v1h2v1h-1v2h-2v1h-3v-1h1v-2h1v1h1v-1h-1v-1h-2v2h-1v2h-1v-1h-1v-2h1v-1h1zM9 11h2v1h-2zM8 12h1v1h-1zM21 12h2v1h-2zM2 13h1v1h-1zM11 13h1v4h-1v2h3v-1h1v2h-2v1h2v2h-2v-1h-1v-2h-2v1h-1v-1h-4v-2h1v-2h1v1h1v1h-1v1h3v-1h-1v-1h1v-1h-1v-1h1v-1h1zM15 13h1v1h-1zM20 13h1v1h-1zM23 13h1v1h-1zM33 13h1v2h-1v1h-1v1h-2v-2h2v-1h1zM1 14h1v1h-1zM4 14h1v1h1v1h-1v1h-1v1h-1v1h-1v-1h-1v-1h1v-1h2zM16 14h1v1h1v1h-1v2h-1zM18 14h2v2h-1v-1h-1zM22 14h1v1h-1zM24 14h1v1h-1zM27 14h1v1h-1zM7 15h1v1h-1zM13 15h2v2h-1v-1h-1zM21 15h1v1h1v1h-2zM25 15h1v2h-1v2h-1v1h-1v1h-1v-1h-1v-1h-1v-2h1v1h2v-1h1v-1h1zM28 15h1v1h-1zM27 16h1v1h-1zM18 17h1v1h-1zM26 17h1v1h-1zM28 17h2v1h-1v1h-1v2h-1v-3h1zM33 17h1v2h-1zM17 18h1v2h-1v2h2v1h-3v-4h1zM30 18h2v1h1v1h1v3h-1v-2h-2v1h-2v-3h1v1h1v-1h-1zM1 19h1v1h-1zM3 19h1v1h-1zM19 19h1v1h-1zM24 20h2v1h-1v2h-1zM1 21h1v5h-1zM3 21h3v1h-3zM7 21h2v1h-2zM19 21h2v1h2v3h-2v1h1v1h-2v-3h1v-1h-1v-1h-1zM26 21h1v1h-1zM6 22h1v1h-1zM11 22h1v1h-1zM27 22h1v1h1v1h-1v1h1v-1h1v-1h3v1h1v1h-4v4h1v3h1v1h-2v1h-2v-2h-1v-1h1v-1h-1v1h-2v-2h-1v-1h-1v-1h2v-2h1v-2h1zM5 23h1v1h-1zM7 23h4v2h-2v1h-4v-1h1v-1h1v1h1v-1h-1zM12 23h1v1h-1zM15 23h1v2h-3v-1h2zM19 23h1v1h-1zM3 24h2v1h-1v1h-1zM17 24h1v1h1v3h2v1h-3v1h-1v1h1v1h-1v1h2v1h-3v-1h-1v-1h1v-3h-1v1h-1v1h-2v-1h-1v-1h-1v3h-1v-4h3v-1h2v-1h2v1h1v1h1v-1h-1zM24 24h1v1h-1zM11 25h2v1h-1v1h-3v-1h2zM23 25h1v1h-1zM26 26v3h3v-3zM31 26h1v1h1v2h1v2h-2v-2h-1zM33 26h1v1h-1zM1 27h7v7h-7zM27 27h1v1h-1zM2 28v5h5v-5zM13 28v1h1v-1zM22 28h1v1h-1zM3 29h3v3h-3zM23 29h1v1h-1zM19 30h4v1h-1v1h-1v-1h-1v1h1v1h-2zM11 31h1v1h-1zM23 31h2v1h-1v1h2v1h-3v-1h-1v-1h1zM29 31v1h1v-1zM13 32h1v2h-1zM26 32h1v1h-1zM9 33h1v1h-1zM21 33h1v1h-1zM32 33h1v1h-1z"/></svg>