<svg xmlns="http://www.w3.org/2000/svg" viewBox="0 0 35 35"><path d="M1 1h7v7h-7zM10 1h1v1h-1zM12 1h1v2h-1v1h1v1h-1v1h-1v-1h-1v1h1v1h-1v2h-1v-6h2v-1h1zM17 1h1v2h-2v-1h1zM20 1h2v1h-2zM24 1h1v1h-1zM27 1h7v7h-7zM2 2v5h5v-5zM19 2h1v1h-1zM22 2h1v1h3v1h-1v2h-1v2h1v1h-1v1h-1v-1h-2v1h2v1h1v1h1v-1h1v2h1v1h-2v-1h-1v1h1v1h-3v-1h1v-1h-1v-1h-1v-1h-1v-2h-1v-2h1v1h1v-1h1v1h1v-1h-1v-1h-1v-1h2v-1h-1zM28 2v5h5v-5zM3 3h3v3h-3zM13 3h1v1h-1zM15 3h1v1h-1zM20 3h1v1h-1zM29 3h3v3h-3zM16 4h1v1h1v1h-2v4h-1v1h2v1h-2v1h-1v-4h1v-4h1zM19 4h1v1h-1zM18 6h1v1h-1zM20 6h1v1h-1zM11 7h1v1h1v-1h1v2h-1v5h1v1h-1v1h1v1h-1v1h2v1h-3v-2h-1v1h-1v-1h-2v-1h-1v-1h2v1h3v-2h-1v-1h-1v-2h1v1h1v-1h-1zM17 7h1v2h1v3h1v1h-2v-2h-1zM25 7h1v1h-1zM1 9h1v2h-1zM3 9h5v1h-3v1h-1v2h-1v-1h-1v-1h1zM25 9h1v1h-1zM27 9h5v1h2v1h-1v2h-2v1h3v1h-1v1h-1v1h-2v-1h-1v-1h1v-1h-2v-1h1v-2h1v1h1v-1h-1v-1h-2v1h-2v-1h1zM8 10h2v1h-1v1h-2v-1h1zM24 10h1v1h-1zM27 12h1v1h-1zM1 13h2v2h1v1h-3v-1h1v-1h-1zM7 13h2v1h-2zM15 13h3v1h-1v1h1v1h-1v1h2v1h-1v2h-3v-1h2v-1h-1v-2h-2v-1h2v-1h-1zM20 13h1v1h-1zM4 14h1v1h-1zM18 14h2v2h-1v-1h-1zM27 14h1v2h-1zM21 15h1v1h3v-1h1v2h-1v2h-2v1h3v-1h1v-1h1v-2h1v1h1v1h-1v1h-1v1h-1v2h-2v1h-1v-2h-3v-1h1v-1h-2v-2h1zM4 16h1v1h-1zM2 17h1v1h2v1h-1v2h1v1h2v1h1v1h-1v1h1v1h-2v-2h-2v-1h-1v-4h-1zM7 17h1v1h-1zM22 17v1h1v-1zM26 17h1v1h-1zM33 17h1v2h-1v1h-1v1h-1v1h-3v-1h1v-2h1v1h1v-1h-1v-1h3zM6 18h1v1h-1zM9 18h1v1h-1zM1 19h1v2h-1zM7 19h2v1h-2zM19 19h1v1h-1zM5 20h1v1h-1zM9 20h2v1h-1v2h-2v-1h-1v-1h2zM13 20h1v1h-1zM33 20h1v1h-1zM12 21h1v1h-1zM14 21h3v1h1v1h-4zM19 21h1v1h-1zM1 22h1v4h-1zM11 22h1v1h1v1h-2zM20 22h3v1h-1v1h1v-1h1v3h-1v-1h-2v1h1v2h-1v-1h-2v1h1v1h-2v-1h-1v1h-2v-1h-1v-1h3v-3h1v1h1v1h1v-2h1v-1h-1zM27 22h1v1h-1zM33 22h1v1h-1zM19 23h1v1h-1zM25 23h1v1h-1zM28 23h1v1h1v-1h3v1h1v1h-4v4h1v1h-1v1h-1v1h1v-1h1v1h1v1h-2v1h-3v-1h1v-1h-1v-1h1v-1h-1v1h-1v-1h-1v-1h-1v-1h-1v-1h2v-2h1v-1h1v1h1zM3 24h1v1h1v1h-2zM8 24h2v1h-2zM13 24h3v2h-3v2h1v1h-2v-4h1zM9 26h2v1h-2zM26 26v3h3v-3zM31 26h3v1h-1v1h-1v1h-1zM1 27h7v7h-7zM27 27h1v1h-1zM2 28v5h5v-5zM9 28h1v1h2v2h1v1h2v-1h1v-1h1v1h2v-1h1v-1h1v1h2v1h-1v1h-1v-1h-1v1h1v1h-2v-1h-2v2h-3v-1h-1v1h-1v-2h-1v-2h-1v2h-1zM22 28h1v1h-1zM33 28h1v1h-1zM3 29h3v3h-3zM14 29h1v1h-1zM17 29h1v1h-1zM23 29h1v1h-1zM24 30h1v1h-1zM32 30h2v1h-2zM25 31h1v1h-1zM10 32h1v2h-2v-1h1zM22 32h3v1h1v1h-3v-1h-1zM26 32h1v1h-1zM18 33h1v1h-1zM32 33h1v1h-1z"/></svg>