<svg xmlns="http://www.w3.org/2000/svg" viewBox="0 0 35 35"><path d="M1 1h7v7h-7zM11 1h1v2h1v-1h1v2h1v1h-1v3h-1v-2h-2v-1h2v-1h-2v1h-1v-3h1zM16 1h1v3h-2v-1h1zM20 1h1v1h-1zM22 1h1v1h-1zM24 1h1v2h-1v1h2v1h-1v1h-2v1h-1v1h1v-1h1v2h-1v1h1v2h-1v2h1v1h-1v2h1v1h-3v-1h-2v1h-1v-3h1v1h2v-1h1v-1h-1v-1h1v-2h-1v-1h1v-1h-1v1h-1v-2h1v-2h1v-1h1v-3h1zM27 1h7v7h-7zM2 2v5h5v-5zM18 2h1v3h-1zM21 2h1v2h-2v-1h1zM28 2v5h5v-5zM3 3h3v3h-3zM29 3h3v3h-3zM17 5h1v1h-1zM20 5h1v1h-1zM9 6h1v2h-1zM15 6h1v2h-1zM25 6h1v3h1v1h1v1h-2v1h-1zM11 7h1v1h-1zM17 7h1v1h-1zM19 7h1v1h-1zM18 8h1v1h-1zM1 9h1v1h-1zM4 9h1v1h-1zM6 9h2v1h-1v1h1v1h-1v1h-1v-2h-1v-1h1zM9 9h3v2h1v4h-1v-1h-1v-1h-1v1h-1v2h-2v-1h1v-1h-1v-1h2v-2h1v1h1v-2h-2zM14 9h4v2h-1v-1h-3zM28 9h1v1h-1zM3 10h1v1h-1zM8 10h1v1h-1zM32 10h2v2h-1v-1h-1zM18 11h1v2h-1zM20 11h1v1h-1zM28 11h2v1h1v2h2v-1h1v2h-1v4h1v2h-1v-1h-2v-1h1v-4h-2v1h-1v-2h1v-1h-1v-1h-1zM31 11h1v1h-1zM2 12h2v1h2v1h-3v-1h-1zM15 12h2v2h1v1h-2v-2h-1zM24 12h1v1h-1zM26 12h1v1h1v3h-1v-2h-1v2h1v1h-2v-1h-1v-1h1v-2h1zM32 12h1v1h-1zM1 13h1v2h-1zM6 14h1v1h-1zM2 15h3v1h2v1h1v1h-2v-1h-2v1h-1v-2h-1zM13 15h1v1h-1zM15 15h1v1h-1zM1 16h1v2h-1zM12 16h1v1h-1zM14 16h1v2h-1zM16 16h1v1h-1zM28 16h1v1h-1zM10 17h2v1h-2zM27 17h1v1h-1zM29 17h1v1h-1zM4 18h1v1h-1zM15 18h1v2h1v-2h1v2h1v-1h1v4h1v1h-2v-2h-1v1h-1v1h-1v-2h-1v-1h-3v-1h1v-1h1v1h1zM24 18h2v1h2v-1h1v2h-1v1h-1v-1h-1v1h-1v1h-2v1h-2v-1h1v-2h3v-1h-1zM30 18h1v1h-1zM2 19h1v2h-2v-1h1zM7 19h2v1h2v1h-3v-1h-1zM21 19h1v1h-1zM5 20h2v1h-2zM3 21h1v1h-1zM7 21h1v1h-1zM11 21h1v1h-1zM26 21h1v1h1v1h1v1h2v1h-1v1h1v1h1v-1h1v-1h1v2h-1v1h-2v2h-1v2h-1v-1h-2v-1h-2v-3h-2v-1h2v-1h1v-1h1v1h1v-1h-1v-1h-1v1h-1v-2h1zM28 21h1v1h-1zM32 21h1v1h1v2h-1v-1h-1v1h-1v-2h1zM2 22h1v1h3v1h1v1h2v-2h1v1h2v2h2v1h2v1h-2v1h-1v-1h-1v-1h-1v-2h-1v2h-1v-1h-3v-1h-4v-1h-1v-1h1zM6 22h1v1h-1zM12 22h3v1h-3zM7 23h1v1h-1zM23 23h1v1h1v1h-2v1h-1v-2h1zM13 24h2v1h2v-1h1v1h1v1h-5v-1h-1zM1 25h1v1h-1zM20 25h1v1h1v1h-2zM26 26v3h3v-3zM1 27h7v7h-7zM17 27h1v3h-1zM22 27h1v2h1v1h-4v-2h2zM27 27h1v1h-1zM2 28v5h5v-5zM9 28h1v1h-1zM3 29h3v3h-3zM10 29h1v1h-1zM12 29h1v1h-1zM14 29h2v1h-2zM32 29h1v1h-1zM9 30h1v1h-1zM16 30h1v1h-1zM18 30h1v2h2v1h-5v1h-1v-2h-1v1h-1v-1h-1v-1h4v1h2zM24 30h1v1h-1zM10 31h1v1h-1zM22 31h2v1h2v1h1v-1h2v1h-1v1h-3v-1h-2v1h-1zM26 31h1v1h-1zM33 31h1v1h-1zM9 33h1v1h-1zM11 33h1v1h-1zM30 33h1v1h-1zM32 33h1v1h-1z"/></svg>