<svg xmlns="http://www.w3.org/2000/svg" viewBox="0 0 35 35"><path d="M1 1h7v7h-7zM10 1h4v3h-1v-2h-1v1h-2zM15 1h1v1h-1zM17 1h1v1h-1zM19 1h4v1h-1v1h2v1h1v2h-1v-1h-1v-1h-2v1h-2v-1h1v-1h1v-1h-1v1h-1zM24 1h1v1h-1zM27 1h7v7h-7zM2 2v5h5v-5zM16 2h1v1h-1zM28 2v5h5v-5zM3 3h3v3h-3zM9 3h1v2h2v1h-1v1h-1v1h1v-1h1v2h-1v1h-1v-1h-1zM15 3h1v1h-1zM29 3h3v3h-3zM12 4h1v1h-1zM15 5h3v1h-2v2h-1v-1h-1v1h-1v-1h-1v-1h3zM21 5h2v1h-2zM18 6h1v1h-1zM20 6h1v1h-1zM23 6h1v2h1v-2h1v4h-1v-1h-1v1h-1v-1h-2v1h1v1h-3v1h2v2h-1v-1h-2v1h-1v1h1v1h-1v2h-1v-1h-1v-1h-2v-1h3v-1h-1v-1h2v-1h-2v1h-1v-1h-1v-1h1v-1h-1v-1h3v1h-1v1h2v-4h1v2h1v1h1v-2h1v-1h1v1h1zM19 7h1v1h-1zM1 9h1v1h1v-1h5v1h-3v1h1v1h-2v-1h-3zM27 9h5v1h2v1h-1v2h-2v1h2v-1h1v2h-1v1h-1v-1h-2v-1h-1v-3h1v1h1v-1h-1v-1h-2v1h-1v1h-1v-2h1zM8 10h2v1h1v-1h2v1h-1v1h-1v2h-1v1h1v2h1v1h-1v1h-1v-3h-1v-1h-1v-1h1v-2h-2v-1h1zM24 10h1v1h-1zM23 11h1v1h-1zM2 12h1v3h-2v-2h1zM12 12h1v1h1v1h-2zM22 12h1v1h-1zM24 12h1v1h-1zM27 12h1v1h-1zM6 13h2v1h-2zM23 13h1v1h-1zM25 13h2v1h-2zM5 14h1v4h-1v-1h-1v-1h-1v-1h2zM19 14h1v1h-1zM24 14h1v1h-1zM27 14h1v1h-1zM7 15h1v1h-1zM21 15h1v1h2v2h-1v-1h-2zM25 15h1v1h-1zM28 15h2v1h-2zM1 16h1v1h1v1h-2zM12 16h1v1h-1zM19 16h1v1h-1zM26 16h1v2h-1zM30 16h2v1h-2zM7 17h1v1h-1zM13 17h2v2h-1v-1h-1zM18 17h1v1h-1zM20 17h1v1h1v2h1v-1h1v1h1v-1h1v1h1v2h-1v-1h-1v2h-1v-2h-3v-2h-1zM28 17h2v1h-1v1h-1v1h-1v-2h1zM33 17h1v2h-1zM3 18h1v1h-1zM6 18h1v1h-1zM17 18h1v1h-1zM24 18h1v1h-1zM30 18h2v1h1v1h-1v1h-1v1h-3v-1h1v-2h1v1h1v-1h-1zM1 19h1v2h1v1h-1v4h-1zM5 19h1v2h-1v2h-1v1h-1v-2h1v-1h-1v-1h2zM7 19h2v3h1v1h-1v1h-2v-1h1v-1h-1v1h-1v-2h2v-1h-1zM13 19h1v1h-1zM15 19h2v1h-1v2h-1v1h1v3h-1v2h-1v1h-1v2h-3v1h-1v-4h1v1h1v-2h1v1h1v-1h1v-2h1v-1h-1v-2h-2v-2h1v1h2zM19 19h1v1h-1zM17 20h1v1h-1zM19 21h1v1h-1zM32 21h1v1h-1zM16 22h2v1h-2zM20 22h3v2h1v2h-1v-1h-1v2h-3v1h1v1h-2v1h-1v1h1v-1h2v-1h1v1h1v2h-1v-1h-1v1h-3v2h-1v-1h-1v-1h1v-3h-1v-1h1v-1h1v1h1v-1h-1v-1h1v-1h1v1h1v-2h1v-1h-1zM27 22h1v2h-3v-1h2zM33 22h1v1h-1zM5 23h1v1h1v1h-3v-1h1zM12 23h1v1h-1zM18 23h1v1h-1zM29 23h1v1h2v-1h1v1h1v1h-4v4h1v1h1v-1h1v-1h1v3h-5v1h3v1h-2v1h-7v-1h-1v-1h3v1h1v-1h1v1h1v-1h-1v-1h1v-1h-1v1h-1v-1h-1v-1h-1v-1h-1v-1h2v-2h4zM10 24h1v1h-1zM17 24h1v1h-1zM3 25h1v1h-1zM7 25h3v2h-1v-1h-2zM11 25h1v1h-1zM12 26h1v1h-1zM26 26v3h3v-3zM31 26h1v1h1v1h-1v1h-1zM33 26h1v1h-1zM1 27h7v7h-7zM27 27h1v1h-1zM2 28v5h5v-5zM22 28h1v1h-1zM3 29h3v3h-3zM14 29h1v3h-1zM23 29h1v1h-1zM10 32h2v1h1v1h-2v-1h-1zM13 32h1v1h-1zM20 32h1v1h-1zM9 33h1v1h-1zM14 33h1v1h-1zM18 33h1v1h-1zM32 33h1v1h-1z"/></svg>