<svg xmlns="http://www.w3.org/2000/svg" viewBox="0 0 35 35"><path d="M1 1h7v7h-7zM9 1h1v2h1v-2h1v1h1v1h-1v1h-3zM13 1h2v1h1v1h1v1h-1v1h-1v-1h-1v1h-1v-2h1v-1h-1zM18 1h2v1h2v1h1v-1h-1v-1h2v3h-1v1h1v1h1v1h-1v1h-1v-1h-1v-2h-1v-2h-2v-1h-1zM27 1h7v7h-7zM2 2v5h5v-5zM25 2h1v1h-1zM28 2v5h5v-5zM3 3h3v3h-3zM29 3h3v3h-3zM17 4h1v5h-2v-1h1v-1h-1v-2h1zM19 4h1v1h-1zM9 5h4v1h-1v3h1v1h2v-1h1v1h1v4h-1v-3h-1v3h-3v-1h1v-1h1v-1h-1v1h-1v-1h-1v-5h-2zM14 6h1v1h-1zM20 6h1v1h-1zM9 7h1v1h-1zM13 7h1v1h1v1h-2zM15 7h1v1h-1zM19 7h1v1h-1zM21 7h1v1h-1zM25 7h1v1h-1zM24 8h1v1h-1zM1 9h1v1h1v1h-1v1h-1zM4 9h6v1h-4v1h-2zM18 9h1v2h-1zM21 9h1v1h-1zM26 9h1v2h-1zM29 9h1v1h1v-1h3v1h-2v1h2v2h-1v-1h-1v1h-1v-1h-2v-1h-1v-1h1zM20 10h1v1h-1zM24 10h1v1h1v1h-2v1h-1v-1h-1v-1h2zM3 11h1v1h1v1h-1v2h-2v-1h-1v-1h1v-1h1zM6 11h3v1h1v-1h1v1h1v1h-1v1h-1v-1h-2v-1h-1v1h1v1h-1v1h1v1h-1v1h1v1h-2v1h-1v1h-1v2h1v-1h1v1h1v1h1v1h-1v1h2v1h-3v-1h-3v-1h2v-1h-3v2h1v1h-2v-5h1v-1h1v-1h1v-1h-1v-1h1v-2h1v2h1v-2h-1v-2h1zM27 11h1v1h-1zM19 12h2v1h1v2h1v1h-3v-1h-1v-1h1v-1h-1zM26 12h1v1h-1zM28 12h1v4h-1v-2h-1v-1h1zM18 13h1v1h-1zM24 13h1v2h-1zM32 13h1v1h-1zM8 14h2v1h-2zM11 14h1v1h-1zM15 14h1v1h-1zM30 14h1v1h-1zM10 15h1v1h-1zM13 15h1v1h-1zM16 15h1v1h-1zM26 15h1v1h-1zM2 16h1v1h-1zM9 16h1v2h-1zM11 16h2v1h1v2h1v-2h2v-1h1v2h-1v2h-4v1h-2v-2h-1v-1h2v1h1v-1h-1v-1h-1zM14 16h1v1h-1zM25 16h1v1h-1zM29 16h3v1h-2v2h-1v-1h-1v2h-1v-1h-1v-2h3zM33 16h1v1h-1zM20 17h2v2h-1v1h1v1h-2v-1h-2v-2h1v1h1zM23 17h2v1h-2zM2 18h1v1h-1zM8 18h1v1h-1zM31 18h1v2h1v2h-1v-1h-1v1h-1v-1h-1v1h1v1h-2v-3h2v-1h1zM33 18h1v2h-1zM6 19h2v1h-2zM9 19h1v1h-1zM23 19h3v1h-2v1h2v1h-1v1h1v1h-1v1h2v-2h1v2h1v-1h1v6h-3v2h-2v-1h1v-1h-2v2h-2v-1h-1v1h-1v-1h-1v1h-1v-1h-1v-1h-1v-4h3v2h1v1h-1v1h1v-1h2v1h1v-2h1v-1h1v-1h-1v-1h-1v-1h1v-1h-1v1h-1v-2h1zM8 20h1v1h-1zM7 21h1v1h-1zM10 21h1v1h-1zM14 21h1v1h1v2h1v1h-5v-1h-1v-1h2v-1h1zM17 21h1v1h-1zM19 21h1v1h-1zM8 22h2v1h-2zM20 22h1v1h-1zM31 22h1v1h2v3h-2v-1h-1zM14 23v1h1v-1zM18 23h1v1h3v2h-1v-1h-3zM9 24h2v1h-2zM9 26h6v6h-1v1h-1v-2h1v-2h-1v-1h1v-1h-3v1h-1v3h-1zM22 26h1v1h-1zM26 26v3h3v-3zM31 26h1v3h-1zM1 27h7v7h-7zM17 27v2h1v-2zM20 27h2v1h-2zM27 27h1v1h-1zM2 28v5h5v-5zM33 28h1v5h-3v1h-1v-1h-1v-1h-1v-1h2v-1h2v-1h1zM3 29h3v3h-3zM11 29h1v4h-1v1h-2v-1h1v-2h1zM16 31h1v1h-1zM15 32h1v1h-1zM21 32h1v1h-1zM12 33h1v1h-1zM16 33h3v1h-3zM20 33h1v1h-1zM24 33h2v1h-2zM28 33h1v1h-1z"/></svg>