<svg xmlns="http://www.w3.org/2000/svg" viewBox="0 0 35 35"><path d="M1 1h7v7h-7zM12 1h2v1h-1v2h-1zM15 1h1v1h-1zM17 1h1v1h-1zM19 1h3v1h-2v1h-1zM23 1h2v1h-1v2h2v1h-1v1h-1v-1h-1v-1h-2v-1h2zM27 1h7v7h-7zM2 2v5h5v-5zM10 2h1v1h-1zM16 2h1v1h1v1h-1v1h2v1h-3v4h-1v1h2v-4h1v2h1v1h1v-2h1v-1h1v1h1v1h-2v1h1v1h2v3h-1v-1h-1v-1h-1v-1h-2v1h2v2h-1v-1h-2v1h-1v-1h-1v-1h-1v1h-3v-2h-1v-1h1v-2h1v-2h2v-1h1v-1h-1v-1h1zM28 2v5h5v-5zM3 3h3v3h-3zM9 3h1v1h2v1h-1v1h1v2h-1v-1h-1v2h-1zM29 3h3v3h-3zM19 4h1v1h-1zM21 5h2v1h-2zM20 6h1v1h-1zM23 6h1v2h-1zM14 7v2h-1v2h1v-2h1v-2zM19 7h1v1h-1zM25 7h1v1h-1zM24 8h1v1h-1zM1 9h1v2h1v3h-1v-2h-1zM3 9h5v1h-1v1h-1v-1h-3zM10 9h1v1h-1zM23 9h1v1h-1zM25 9h1v1h-1zM27 9h5v1h2v1h-1v1h1v3h-1v1h-1v1h-1v1h1v1h1v1h-1v1h-1v1h-2v-3h1v1h1v-1h-1v-1h-1v1h-2v-1h1v-2h1v1h1v-1h1v-2h2v-1h-2v1h-2v-3h1v1h1v-1h-1v-1h-2v2h-1zM8 10h2v1h1v2h-2v1h-2v-1h1v-1h1v-1h-1zM24 10h1v1h-1zM4 11h2v2h-1v-1h-1zM7 11h1v1h-1zM25 11h1v1h-1zM26 12h1v2h1v1h-2zM15 13h1v1h-1zM5 14h2v1h-2zM11 14h1v2h1v1h-2zM13 14h1v1h1v1h-2zM16 14h1v1h2v-1h1v2h-3v2h-1zM24 14h1v1h-1zM1 15h1v1h1v-1h2v3h-1v1h2v1h-1v1h-1v-1h-1v2h2v-1h1v2h-1v2h-1v-1h-1v-1h-1v3h-1v-4h1v-2h-1v-1h2v-2h-1v1h-1zM7 15h1v1h-1zM9 15h1v2h1v1h1v1h-1v1h-1v-2h-1v-1h-1v-1h1zM21 15h2v2h-2zM25 16h2v2h-1v-1h-1zM7 17h1v1h-1zM18 17h1v1h-1zM20 17h1v1h1v1h-2v1h-1v-2h1zM23 17h1v1h-1zM33 17h1v2h-1zM8 18h1v3h1v1h-3v-1h1v-1h-1v-1h1zM15 18h1v1h-1zM17 18h1v1h-1zM24 18h1v1h-1zM12 19h3v2h-1v1h-1v-1h-2v-1h1zM16 19h1v1h-1zM23 19h1v1h-1zM25 19h2v1h1v1h-1v1h1v1h-1v2h3v4h1v2h-2v1h3v1h-1v1h-8v-1h-1v-1h3v1h3v-1h-3v-1h1v-1h-1v-1h-1v-1h-1v-1h1v-1h1v-1h1v-4h-2v-1h1zM6 20h1v1h-1zM20 20h1v1h-1zM22 20h1v1h-1zM33 20h1v1h-1zM16 21h1v1h1v1h-2zM19 21h1v1h-1zM32 21h1v1h-1zM10 22h1v4h-1v1h-1v-4h1zM12 22h1v1h-1zM20 22h2v2h1v1h-1v3h-1v-1h-1v-3h1v-1h-1zM24 22h1v1h-1zM33 22h1v1h-1zM7 23h1v1h-1zM13 23h1v1h-1zM15 23h1v4h1v-3h1v1h1v3h2v1h-3v-1h-1v1h-1v-1h-1v1h-1v-1h-2v-1h1v-2h2zM19 23h1v1h-1zM23 23h1v1h-1zM28 23h5v1h1v1h-4v-1h-2zM12 24h1v1h-1zM3 25h1v1h-1zM5 25h3v1h-3zM23 25h1v1h-1zM14 26v1h1v-1zM26 26v3h3v-3zM31 26h3v1h-1v1h1v3h-2v-1h1v-1h-2zM1 27h7v7h-7zM10 27h1v1h-1zM27 27h1v1h-1zM2 28v5h5v-5zM9 28h1v1h1v1h-1v1h1v-1h2v1h-1v2h-2v-1h-1zM11 28h1v1h-1zM22 28h1v1h-1zM3 29h3v3h-3zM17 29h1v1h-1zM23 29h1v1h-1zM14 30h1v1h1v-1h1v1h2v-1h3v2h-1v-1h-1v1h1v1h-2v-1h-2v2h-2v-2h-1zM27 30v1h1v-1zM9 33h1v1h-1zM18 33h1v1h-1zM21 33h1v1h-1zM32 33h1v1h-1z"/></svg>