<svg xmlns="http://www.w3.org/2000/svg" viewBox="0 0 35 35"><path d="M1 1h7v7h-7zM11 1h1v2h-1zM17 1h1v2h-1v2h1v1h-2v2h-1v-1h-1v1h-1v-3h3v-1h-1v-1h1v-1h1zM19 1h3v2h-1v-1h-1v1h-1zM23 1h2v1h-2zM27 1h7v7h-7zM2 2v5h5v-5zM13 2h1v1h-1zM25 2h1v3h-1v-1h-1v1h1v1h-2v-2h-1v-1h3zM28 2v5h5v-5zM3 3h3v3h-3zM9 3h2v1h-1v1h1v-1h1v-1h1v2h-1v1h-2v2h1v-1h1v2h-3zM20 3h1v2h-2v-1h1zM29 3h3v3h-3zM21 5h1v1h-1zM19 6h2v1h-1v1h-1zM22 6h1v1h-1zM17 7h1v2h-1zM21 7h1v1h1v-1h1v1h1v1h-1v1h1v1h-1v1h-1v-1h-4v1h1v1h-2v1h-1v-1h-1v-1h-1v1h-1v-1h-1v-1h-1v-2h1v1h1v-1h2v2h1v1h1v-1h-1v-1h1v-1h1v1h1v-2h1zM25 7h1v1h-1zM1 9h1v1h-1zM3 9h5v1h-2v1h-2v-1h-1zM21 9v1h2v-1zM25 9h1v1h-1zM27 9h5v2h1v1h-1v1h-1v3h1v1h-1v1h2v-1h1v2h-1v1h-1v1h-1v1h-3v-1h1v-2h1v1h1v-1h-1v-1h-1v1h-2v1h-1v-3h1v1h1v-1h-1v-2h-1v-1h-1v-1h-1v-1h1v-1h2v1h-1v1h1v1h1v1h2v-1h-2v-1h1v-2h1v1h1v-1h-1v-1h-2v1h-1zM8 10h2v1h-2zM33 10h1v1h-1zM6 11h2v1h-1v1h1v-1h2v-1h1v2h-1v1h-1v1h-1v-1h-1v1h-2v-1h1v-1h-1v1h-1v1h-1v-1h-2v-2h5zM12 12h1v2h2v3h-1v-2h-3v-2h1zM21 12h2v1h-2zM33 12h1v1h-1zM15 13h1v1h-1zM23 13h1v1h-1zM32 13h1v1h1v1h-1v1h-1zM16 14h1v1h1v1h-1v2h-1zM19 14h1v2h-1zM24 14h1v1h-1zM1 15h2v1h-2zM7 15h1v1h-1zM9 15h1v1h-1zM21 15h1v1h1v1h-2zM5 16h1v1h-1zM8 16h1v1h-1zM11 16h2v1h1v1h-1v2h1v2h-2v-3h-1v1h-1v-3h1zM1 17h1v1h-1zM7 17h1v1h-1zM18 17h1v1h-1zM20 17h1v1h2v-1h1v1h1v1h-1v1h2v1h1v1h-2v-1h-5v-1h1v-1h-1v1h-1v-2h1zM2 18h1v1h-1zM5 18h2v1h-2zM8 18h1v1h-1zM14 18h1v2h-1zM17 18h1v1h-1zM4 19h1v1h-1zM7 19h1v1h-1zM16 19h1v1h-1zM1 20h1v1h1v1h-1v4h-1zM3 20h1v1h-1zM8 20h2v1h-1v2h-1v-1h-1v-1h1zM33 20h1v1h-1zM5 21h1v1h-1zM15 21h1v1h2v1h-2v3h-2v-1h1v-2h-1v-1h1zM19 21h1v1h-1zM3 22h1v2h-1zM6 22h1v1h-1zM20 22h3v1h1v1h-1v1h-2v1h1v1h-3v1h2v2h1v2h-1v-1h-1v1h-1v-1h-1v-1h2v-1h-2v1h-1v1h1v1h-1v2h-4v-2h1v-2h1v3h1v-3h-1v-1h2v-1h-2v1h-1v-1h-1v-1h4v-3h1v1h1v1h1v-1h-1v-1h2v-1h-1zM24 22h1v1h-1zM27 22h1v1h-1zM33 22h1v1h-1zM5 23h1v1h-1zM7 23h1v1h-1zM9 23h1v1h-1zM11 23h2v1h1v1h-2v-1h-1zM18 23h1v1h-1zM25 23h2v1h1v-1h1v2h1v4h1v1h-1v1h-1v1h1v-1h1v-1h1v-1h-1v-3h3v1h-1v1h1v1h-1v1h1v1h-2v2h-1v1h-4v-3h1v-1h-1v1h-2v2h1v1h-3v-1h-1v-1h1v-1h1v-1h1v-1h-1v-1h-1v-1h1v-1h1zM31 23h2v1h1v1h-4v-1h1zM8 24h1v1h-1zM10 24h1v1h1v1h-2zM4 25h1v1h-1zM7 25h1v1h-1zM23 25h1v1h-1zM9 26h1v1h-1zM12 26h1v1h-1zM26 26v3h3v-3zM1 27h7v7h-7zM11 27h1v1h-1zM27 27h1v1h-1zM2 28v5h5v-5zM9 28h1v1h1v4h1v1h-3v-1h1v-1h-1zM12 28h1v1h-1zM22 28h1v1h-1zM3 29h3v3h-3zM23 29h1v1h-1zM12 30h1v1h-1zM20 32h1v1h-1zM18 33h1v1h-1zM32 33h1v1h-1z"/></svg>