<svg xmlns="http://www.w3.org/2000/svg" viewBox="0 0 35 35"><path d="M1 1h7v7h-7zM10 1h1v1h2v1h-1v1h-1v-1h-1zM15 1h1v1h-1zM17 1h1v2h-1v2h1v1h-3v-1h1v-1h-1v-1h1v-1h1zM19 1h6v1h-1v3h-1v-1h-1v-1h1v-1h-3v1h-1zM27 1h7v7h-7zM2 2v5h5v-5zM25 2h1v2h-1zM28 2v5h5v-5zM3 3h3v3h-3zM9 3h1v1h1v1h-1v1h1v1h-1v2h-1zM20 3h1v2h-2v-1h1zM29 3h3v3h-3zM12 4h2v1h-1v2h-1v-1h-1v-1h1zM21 5h2v2h-1v-1h-1zM24 5h1v1h-1zM20 6h1v1h-1zM11 7h1v1h-1zM13 7h1v2h2v1h-1v1h2v-4h1v2h1v1h1v-2h1v-1h1v1h1v-1h1v2h1v2h-6v1h2v2h-1v-1h-2v-1h-3v1h-1v-2h-2v-2h1zM15 7h1v1h-1zM19 7h1v1h-1zM25 7h1v1h-1zM1 9h1v1h-1zM3 9h5v1h-1v1h-1v-1h-3zM10 9h1v3h-1v-1h-1v1h-2v-1h1v-1h2zM22 9v1h1v-1zM27 9h5v2h1v3h1v1h-1v1h-1v-3h-1v3h1v1h-1v1h2v-1h1v2h-1v1h-1v1h-1v1h-2v-3h1v1h1v-1h-1v-1h-1v1h-3v-1h-1v1h-1v-1h-1v-1h1v-1h2v1h1v1h1v-1h-1v-1h1v-1h1v1h1v-2h-1v-3h1v1h1v-1h-1v-1h-2v1h-1v1h-2v-1h1v-1h1zM33 10h1v1h-1zM1 11h1v1h-1zM3 12h4v1h-2v1h-1v-1h-1zM9 12h1v2h-3v-1h2zM12 12h1v1h1v1h1v1h-1v3h-1v1h-5v-1h-1v1h-2v-1h-1v-2h1v-1h1v2h2v-1h2v-1h1v2h-2v1h3v-3h-1v-2h1zM22 12h1v1h-1zM1 13h1v1h-1zM15 13h3v1h-1v1h1v-1h2v1h-1v1h-2v2h-1v1h1v-1h1v2h-1v1h-1v-1h-1v-5h1v-1h-1zM23 13h1v1h-1zM25 13h2v1h1v1h-1v1h-1v-2h-1zM2 14h2v1h-1v1h-1v2h-1v-3h1zM22 14h1v1h1v1h-1v1h-2v-2h1zM24 14h1v1h-1zM7 15h1v1h-1zM19 16h1v1h-1zM18 17h1v1h-1zM20 17h1v1h2v1h-3v1h-1v-2h1zM2 18h2v1h-1v1h-1zM4 19h1v1h2v1h1v1h-2v-1h-1v2h-1v-2h-1v-1h1zM7 19h1v1h-1zM23 19h1v1h-1zM25 19h1v2h1v1h-2v1h-1v-2h1zM1 20h1v6h-1zM10 20h3v1h2v1h4v1h-3v1h-1v2h-2v-1h1v-2h-1v-1h-1v1h-2zM20 20h3v1h-3zM33 20h1v1h-1zM19 21h1v1h-1zM32 21h1v1h-1zM20 22h2v2h1v1h-1v3h-1v-1h-2v1h1v1h-2v-2h-1v-1h1v-1h1v1h1v-1h-1v-2h1v1h1v-1h-1zM27 22h1v1h-1zM31 22h1v1h-1zM33 22h1v1h-1zM3 23h1v2h1v1h-2zM5 23h1v1h-1zM7 23h3v1h2v-1h1v2h-1v1h-1v1h-2v-1h1v-1h-2v-1h-1zM26 23h1v1h2v1h1v4h1v1h-1v1h-1v1h2v-1h1v2h-2v1h-2v-2h-1v-1h1v-1h-1v1h-1v-1h-1v-1h-1v-1h-1v-1h1v-1h-1v-1h1v-1h2zM30 23h1v1h1v-1h1v1h1v1h-4zM6 24h1v1h1v1h-2zM17 24h1v1h-1zM12 26h1v1h-1zM26 26v3h3v-3zM31 26h1v1h1v1h-1v1h-1zM33 26h1v1h-1zM1 27h7v7h-7zM13 27h1v1h1v-1h2v1h-1v1h2v1h-1v1h1v-1h4v2h-1v-1h-1v1h-3v2h-1v-1h-1v-2h1v-1h-1v1h-2v-1h1v-1h-1zM27 27h1v1h-1zM2 28v5h5v-5zM9 28h1v1h3v1h-2v1h1v2h1v-1h1v1h1v1h-6v-1h2v-1h-2zM22 28h1v1h-1zM33 28h1v3h-2v-1h1zM3 29h3v3h-3zM23 29h1v1h-1zM23 31h1v1h-1zM25 31h1v1h-1zM20 32h1v1h-1zM22 32h1v1h-1zM18 33h1v1h-1zM23 33h4v1h-4zM32 33h1v1h-1z"/></svg>