<svg xmlns="http://www.w3.org/2000/svg" viewBox="0 0 35 35"><path d="M1 1h7v7h-7zM10 1h1v1h-1zM12 1h1v2h-1zM15 1h1v1h-1zM17 1h1v3h-1v-1h-1v-1h1zM19 1h3v1h-2v1h-1zM24 1h1v1h-1zM27 1h7v7h-7zM2 2v5h5v-5zM25 2h1v3h-1v-1h-1v-1h1zM28 2v5h5v-5zM3 3h3v3h-3zM9 3h3v2h-1v1h1v2h-1v-1h-1v2h-1zM15 3h1v1h-1zM20 3h3v1h-3zM29 3h3v3h-3zM19 4h1v1h-1zM23 4h1v1h-1zM15 5h4v1h2v1h-1v1h-1v-1h-1v-1h-2v2h-1zM21 5h2v1h-2zM24 5h1v1h-1zM13 6h1v2h-1zM23 6h1v4h-1v-1h-2v1h2v1h1v1h3v2h-1v-1h-2v1h1v1h-1v1h-1v1h-1v1h1v2h2v-1h1v2h1v1h-2v1h-1v-2h-2v-2h-2v1h-1v-2h1v-1h1v-2h1v-1h1v-1h-2v-1h1v-1h-2v-3h1v-1h1v1h1zM17 7h1v2h-1zM25 7h1v1h-1zM1 9h1v2h-1zM3 9h5v1h-1v1h-1v-1h-1v1h-1v2h2v1h-5v-2h2zM10 9h6v1h-1v1h2v-1h1v-1h1v3h1v1h-2v1h-1v1h1v-1h2v3h-1v-1h-2v1h2v1h-1v1h-1v-1h-2v-2h1v-2h-1v-1h1v-1h-1v1h-1v-1h-1v-2h-1v4h-1v-1h-1v1h-1v1h-1v-1h-1v-1h2v-1h-2v-1h3zM25 9h1v1h-1zM27 9h5v1h2v1h-1v1h-1v1h-1v1h-3v-1h1v-2h1v1h1v-1h-1v-1h-2v2h-1zM24 10h1v1h-1zM5 11h1v1h-1zM32 13h1v1h1v1h-1v1h-1v1h-2v-1h1v-2h1zM10 14h1v1h-1zM14 14h1v1h-1zM27 14h1v1h-1zM1 15h3v1h-3zM6 15h2v1h-2zM26 15h1v1h-1zM4 16h2v1h2v-1h2v1h3v1h1v1h1v1h-2v-1h-1v-1h-1v1h-1v-1h-1v2h-2v-1h1v-1h-3v-1h-1zM27 16h2v1h1v1h-1v1h-1v2h-1v-2h-1v-2h1v1h1v-1h-1zM2 17h1v1h-1zM23 17h2v2h-1v-1h-1zM33 17h1v2h-1v1h-1v1h-1v1h-2v-3h1v1h1v-1h-1v-1h3zM1 18h1v1h-1zM3 18h1v1h-1zM11 19h1v3h1v-1h1v4h-1v-2h-2v-2h-2v-1h2zM16 19h1v3h2v1h-4v-1h1zM1 20h1v1h-1zM20 20h1v2h2v2h1v1h1v-2h1v2h4v-1h2v-1h1v1h1v1h-3v1h-1v3h1v1h-1v1h-1v1h2v-2h3v1h-2v2h-2v1h-2v-1h-1v1h-4v-1h-1v-1h1v-1h1v-1h1v-1h-1v-1h-1v-3h-1v2h-2v-3h1v-1h-1v-1h-1v-1h1zM33 20h1v1h-1zM4 21h1v2h1v1h1v1h1v-1h1v2h-6v-4h1zM7 21h2v1h1v1h1v1h-2v-1h-1v-1h-1zM32 21h1v1h-1zM1 22h1v4h-1zM6 22h1v1h-1zM27 22h1v1h1v1h-2zM33 22h1v1h-1zM7 23h1v1h-1zM4 24v1h1v-1zM17 24h1v1h1v3h1v1h-2v-2h-1zM14 25h2v1h-2zM9 26h4v1h-1v1h1v1h-2v1h-1v1h2v1h-1v1h1v-1h2v1h2v-2h-1v-1h1v-1h-1v-2h2v2h1v1h-1v1h2v1h-2v1h2v1h-10v-1h1v-1h-1v-4h2v-1h-2zM26 26v3h3v-3zM31 26h3v1h-1v2h-2zM1 27h7v7h-7zM27 27h1v1h-1zM2 28v5h5v-5zM21 28h2v1h-2zM3 29h3v3h-3zM23 29h1v1h-1zM19 30h4v1h-1v1h-1v-1h-2zM27 30v1h-1v1h-2v1h2v-1h1v-1h1v-1zM20 32h1v1h-1zM32 33h1v1h-1z"/></svg>