<svg xmlns="http://www.w3.org/2000/svg" viewBox="0 0 35 35"><path d="M1 1h7v7h-7zM9 1h1v2h2v1h1v1h-1v1h1v1h-1v1h-1v-2h-2v-1h1v-1h-1zM11 1h5v4h-1v-1h-2v-1h1v-1h-3zM18 1h2v1h1v2h-1v-1h-1v-1h-1zM23 1h1v1h-1zM27 1h7v7h-7zM2 2v5h5v-5zM17 2h1v7h1v2h-1v-1h-1v-1h-1v-1h1v-1h-1v-2h1zM25 2h1v1h-1zM28 2v5h5v-5zM3 3h3v3h-3zM22 3h2v1h-1v1h1v1h2v3h1v1h-2v-1h-2v-2h-1v-2h-1v-1h1zM29 3h3v3h-3zM19 4h1v1h-1zM24 4h2v1h-2zM13 5h2v1h-2zM20 6h1v1h-1zM9 7h1v1h-1zM13 7h1v1h-1zM15 7h1v1h-1zM19 7h1v2h-1zM21 7h1v1h-1zM24 7v1h1v-1zM12 8h1v1h-1zM14 8h1v1h-1zM1 9h1v1h1v1h-1v2h-1zM4 9h7v1h2v2h1v-2h1v-1h1v1h1v1h1v1h-1v2h-1v-3h-1v3h1v1h-2v-1h-1v-1h-2v-1h-1v1h-1v2h-1v-1h-1v-1h1v-1h1v-1h1v-1h-1v1h-1v-1h-3v2h1v1h-1v1h-1zM21 9h1v1h-1zM29 9h1v1h1v-1h3v1h-2v1h2v1h-2v1h-1v-1h-2v-1h-1v-1h1zM20 10h1v1h-1zM22 10h1v2h-1v3h2v1h2v-1h1v2h3v2h-1v-1h-1v1h-1v-1h-2v-1h-1v1h-1v-2h-5v-1h1v-1h2v-3h1zM24 10h1v1h1v1h1v-1h1v1h1v1h-1v1h-1v-1h-3zM6 11h2v1h-2zM19 12h1v1h-1zM18 13h1v1h-1zM32 13h1v1h-1zM3 14h1v1h-1zM10 14h1v1h-1zM24 14h1v1h-1zM28 14h1v1h-1zM30 14h1v1h-1zM5 15h1v1h-1zM7 15h1v1h-1zM16 15h1v1h-1zM2 16h2v1h-1v1h1v1h-2v1h2v2h-1v-1h-2v-4h1zM6 16h1v1h-1zM9 16h2v1h-2zM15 16h1v1h-1zM17 16h1v2h-1v2h-1v-1h-1v1h1v1h-1v1h1v2h-1v-1h-1v-2h-1v-2h1v-1h-3v-1h4v1h1v-1h1zM30 16h2v1h-2zM33 16h1v1h-1zM7 17h1v1h-1zM20 17h2v3h-1v3h-1v-1h-1v-1h1v-1h-2v-2h2zM8 18h1v1h-1zM10 18h1v1h-1zM31 18h1v2h1v-2h1v3h-3v1h1v1h-2v1h-1v1h1v5h-3v3h-1v-1h-1v-1h1v-1h-2v2h-1v-4h1v-1h1v-1h-1v-1h1v-1h2v1h1v-1h-1v-1h1v-2h-2v-1h-2v-1h3v1h3v-1h1zM5 19h3v1h-3zM11 19h1v1h-1zM9 20h1v1h-1zM7 21h1v1h-1zM10 21h1v1h1v1h-2zM17 21h1v1h-1zM23 21h3v1h-1v2h-1v-1h-1v1h-1v-2h1zM29 21v1h1v-1zM1 22h2v1h-1v2h2v-2h1v2h4v1h-8zM5 22h2v1h1v1h-2v-1h-1zM8 22h1v1h-1zM18 22h1v1h1v1h-1v1h-1zM12 23h2v1h-1v1h-1v1h-1v1h-1v1h2v1h1v1h-2v-1h-1v1h1v4h-2v-1h1v-2h-1v-5h1v-1h-1v-1h3zM32 23h2v3h-2v-1h-1v-1h1zM14 24h1v4h1v-2h3v2h1v-1h2v4h-1v1h-1v1h-1v-2h-2v-1h-1v-1h-1v2h-2v-1h1v-2h-1v-1h1v-1h-1v-1h1zM16 24h1v1h-1zM20 24h2v1h-2zM23 24h1v1h-1zM12 26h1v1h-1zM22 26h1v1h-1zM26 26v3h3v-3zM31 26h1v3h-1zM1 27h7v7h-7zM27 27h1v1h-1zM2 28v5h5v-5zM17 28v1h1v-1zM33 28h1v1h-1zM3 29h3v3h-3zM19 29v1h2v-1zM31 30h3v3h-5v-1h-1v-1h2v1h2v-1h-1zM12 31h1v1h-1zM16 31h1v1h-1zM13 32h1v1h-1zM21 32h1v2h-2v-1h1zM16 33h1v1h-1zM18 33h1v1h-1zM24 33h2v1h-2zM28 33h1v1h-1z"/></svg>