<svg xmlns="http://www.w3.org/2000/svg" viewBox="0 0 35 35"><path d="M1 1h7v7h-7zM12 1h1v1h-1zM15 1h1v1h-1zM17 1h1v2h-1v1h-2v-1h1v-1h1zM20 1h2v2h1v1h-3v-1h1v-1h-1zM24 1h1v1h-1zM27 1h7v7h-7zM2 2v5h5v-5zM10 2h2v1h2v2h-1v-1h-2v-1h-1zM19 2h1v1h-1zM23 2h1v1h-1zM25 2h1v1h-1zM28 2v5h5v-5zM3 3h3v3h-3zM9 3h1v5h1v-2h1v3h-3zM29 3h3v3h-3zM19 4h1v1h-1zM23 4h3v1h-1v1h-1v2h-1zM12 5h1v1h-1zM14 5h4v1h-3v1h-1zM21 5h1v1h-1zM18 6h3v1h-1v1h1v-1h1v1h1v1h-2v1h2v1h-3v-2h-1v-2h-1zM25 6h1v2h-1zM13 7h1v2h2v1h-1v1h2v1h1v-1h-1v-1h1v-1h1v3h1v1h-2v1h-1v-1h-1v-1h-1v1h-2v-3h-1v-1h1zM15 7h1v1h-1zM17 7h1v2h-1zM24 8h1v1h-1zM1 9h1v1h-1zM3 9h5v1h-1v1h1v-1h1v1h2v-1h1v2h-5v1h-1v-1h-1v-1h1v-1h-3zM23 9h1v1h-1zM25 9h1v1h-1zM27 9h5v2h1v2h-2v1h-3v-1h1v-2h1v1h1v-1h-1v-1h-2v2h-1zM24 10h1v1h-1zM33 10h1v1h-1zM2 11h1v4h-1v1h1v-1h1v1h2v-1h2v1h-1v1h1v1h-1v1h1v1h-1v1h-1v-1h-1v-1h1v-2h-1v1h-1v2h-2v1h-1v-2h2v-1h-2v-5h1zM25 11h1v1h-1zM22 12h2v2h-1v-1h-1zM26 12h1v2h-2v-1h1zM5 13h1v2h-1zM7 13h1v1h-1zM9 13h2v1h1v-1h1v2h1v2h-1v1h1v1h-2v-1h-3v-1h1v-1h-1v-1h1v-1h-1zM15 13h1v1h-1zM20 13h1v1h-1zM16 14h1v1h1v1h-1v2h-1v-1h-1v-1h1zM19 14h1v3h-1zM24 14h1v1h-1zM27 14h1v1h3v-1h3v1h-1v1h-1v1h-1v1h1v1h1v3h-1v-1h-1v1h1v1h-2v-1h-1v-3h1v1h1v-1h-1v-1h-1v1h-1v1h-1v-1h-1v-1h-1v-1h2v1h1v-1h2v-1h-2v1h-1v-1h-2v-1h2zM21 15h2v1h1v2h1v1h-2v-2h-1v2h-2v-2h1zM11 16v1h1v-1zM14 17h1v1h-1zM18 17h1v1h-1zM33 17h1v2h-1zM8 18h1v1h-1zM17 18h1v1h-1zM9 19h1v1h-1zM11 19h1v2h2v1h-1v1h-1v2h-1v-1h-1v-2h1zM14 19h3v1h-3zM19 19h1v1h-1zM21 20h2v1h-2zM3 21h2v1h-1v1h-2v3h-1v-4h2zM7 21h3v1h-3zM19 21h1v1h-1zM26 21h1v1h-1zM5 22h1v1h-1zM14 22h4v1h-2v4h1v1h-5v2h1v1h-3v1h-1v-4h1v-1h-1v-1h1v-1h1v1h1v-1h1v2h2v-2h-2v-1h2v-1h-1zM20 22h3v1h1v1h-1v1h-2v1h1v1h-2v-2h-1v-1h2v-1h-1zM24 22h1v1h-1zM27 22h1v1h-1zM33 22h1v1h-1zM4 23h1v1h-1zM7 23h1v1h-1zM18 23h1v1h-1zM25 23h2v1h-1v1h2v-2h2v1h-1v1h1v-1h2v-1h1v1h1v1h-3v1h-1v3h1v1h-1v1h-1v1h2v-2h1v-1h-1v-3h1v1h1v3h1v1h-2v2h-1v1h-8v-1h-1v-1h1v-1h2v-2h-1v-1h-1v-1h2v-2h-1v-1h1zM3 24h1v1h4v1h-5zM8 24h1v1h-1zM17 24h1v1h1v3h1v1h-2v1h-1v1h2v-1h1v-1h1v1h2v1h-1v1h-1v-1h-1v1h1v1h-2v-1h-2v2h-1v-2h-1v2h-1v-1h-1v-1h1v-1h1v-1h1v-1h1v-1h1v-1h-1zM23 25h1v1h-1zM26 26v3h3v-3zM33 26h1v1h-1zM1 27h7v7h-7zM27 27h1v1h-1zM2 28v5h5v-5zM21 28h2v1h-2zM3 29h3v3h-3zM10 29v1h1v-1zM23 29h1v1h-1zM27 30v1h1v-1zM25 32v1h1v-1zM9 33h3v1h-3zM18 33h1v1h-1zM32 33h1v1h-1z"/></svg>