<svg xmlns="http://www.w3.org/2000/svg" viewBox="0 0 35 35"><path d="M1 1h7v7h-7zM10 1h2v1h-2zM17 1h1v2h-1v2h2v1h-3v4h-1v1h2v-4h1v2h1v3h3v-1h2v1h-1v1h-2v1h-1v-1h-2v1h-1v1h1v1h-1v2h-1v1h-2v-1h1v-1h1v-3h-1v-1h1v-1h-1v1h-2v-1h1v-2h-1v-1h2v-2h-1v-1h1v-1h1v-1h-1v-1h1v-1h1zM19 1h6v1h-2v1h2v1h-1v1h-1v-1h-3v-1h2v-1h-2v1h-1zM27 1h7v7h-7zM2 2v5h5v-5zM12 2h1v1h1v1h-2v1h1v1h-1v2h-1v-5h1zM28 2v5h5v-5zM3 3h3v3h-3zM9 3h1v6h-1zM29 3h3v3h-3zM19 4h1v1h-1zM25 4h1v1h-1zM21 5h2v1h-2zM24 5h1v1h-1zM20 6h1v1h-1zM23 6h1v2h1v-1h1v2h-2v1h-1v-1h-1v2h-2v-3h1v-1h1v1h1zM13 7h1v1h-1zM19 7h1v1h-1zM1 9h1v2h-1zM3 9h5v1h-3v1h-1v2h-1zM10 9h1v1h1v1h1v1h-1v1h-1v-1h-1v2h-1v1h-1v-1h-1v-1h1v-1h1v-1h1zM27 9h5v1h2v1h-1v1h-1v1h-1v1h-2v-3h1v1h1v-1h-1v-1h-2v1h-1v1h-1v-2h1zM8 10h1v1h-1zM24 10h1v1h-1zM7 11h1v1h-1zM5 12h1v1h-1zM24 12h2v1h-1v2h-1v1h-1v1h-2v-2h1v-1h1v-1h1zM27 12h1v1h-1zM33 12h1v1h-1zM1 13h1v1h-1zM4 13h1v4h1v1h1v1h1v-1h3v-1h-2v-2h1v1h2v3h1v2h-2v-1h-2v1h-1v-1h-2v-1h-1v-1h-1v-1h-1v-1h-2v-1h1v-1h2zM26 13h1v1h1v1h-1v1h-1zM6 14h1v1h-1zM14 14h1v1h-1zM19 14h1v1h-1zM32 14h2v1h-1v1h-1v1h-2v1h-1v1h-2v-1h1v-1h-1v-1h1v-1h2v1h1v-1h1zM7 15h1v1h-1zM12 15h2v1h-2zM14 16h1v1h-1zM19 16h1v1h-1zM24 16h2v1h1v1h-2v-1h-1zM7 17h1v1h-1zM13 17h1v1h-1zM18 17h1v1h-1zM20 17h1v1h2v2h2v1h-4v-1h1v-1h-2v1h-1v-2h1zM23 17h1v1h-1zM33 17h1v2h-1zM1 18h3v1h1v1h1v1h-2v-1h-1v-1h-2zM17 18h1v1h-1zM24 18h1v1h-1zM30 18h2v1h1v1h-1v1h-1v3h1v-1h1v1h1v1h-4v-3h-1v-3h1v1h1v-1h-1zM16 19h1v2h-2v-1h1zM25 19h2v1h1v1h-1v1h1v1h-2v-3h-1zM1 20h1v1h-1zM33 20h1v1h-1zM7 21h1v1h-1zM9 21h1v1h-1zM19 21h1v1h-1zM32 21h1v1h-1zM1 22h1v4h-1zM3 22h1v2h2v1h2v1h-4v-1h-1zM5 22h1v1h-1zM8 22h1v1h-1zM16 22h2v1h-2zM20 22h3v1h1v1h1v1h-1v1h-1v-1h-1v2h-2v-2h-1v-1h2v-1h-1zM24 22h1v1h-1zM33 22h1v1h-1zM7 23h1v1h-1zM11 23h2v1h-1v1h-2v-1h1zM15 23h1v2h-1v1h1v1h1v1h1v-1h-1v-1h1v-1h1v3h2v1h-3v1h-1v1h1v1h-1v2h-2v-1h1v-2h-2v3h-1v-1h-1v-1h1v-2h1v-1h1v1h1v-1h-1v-1h-1v-1h-1v1h-1v1h-1v1h1v2h-1v-1h-1v1h-1v-4h1v-1h2v-2h1v1h1v-2h1zM18 23h1v1h-1zM25 23h1v1h-1zM8 24h1v1h-1zM17 24h1v1h-1zM26 24h1v1h3v4h1v2h-2v1h2v-1h1v2h-1v1h-3v-2h-3v1h1v1h-3v-1h-1v-1h-1v-1h-2v-1h4v1h1v-1h1v1h1v-1h-1v-1h-1v-1h-1v-1h2v-2h1zM9 26h1v1h-1zM26 26v3h3v-3zM31 26h3v1h-1v2h-2zM1 27h7v7h-7zM27 27h1v1h-1zM2 28v5h5v-5zM22 28h1v1h-1zM3 29h3v3h-3zM23 29h1v1h-1zM33 29h1v2h-2v-1h1zM27 30v1h1v-1zM10 32h1v1h-1zM19 32h2v1h-2zM9 33h1v1h-1zM11 33h1v1h-1zM18 33h1v1h-1zM32 33h1v1h-1z"/></svg>