<svg xmlns="http://www.w3.org/2000/svg" viewBox="0 0 35 35"><path d="M1 1h7v7h-7zM10 1h2v1h-2zM13 1h1v1h1v1h-1v1h1v1h-1v3h-1v-1h-1v-1h1v-2h-2v-1h2zM15 1h2v2h-1v-1h-1zM19 1h2v2h-1v-1h-1zM23 1h2v5h1v2h-1v-1h-1v-1h-2v-1h1v-1h1v-1h-2v-1h1zM27 1h7v7h-7zM2 2v5h5v-5zM9 2h1v1h-1zM18 2h1v1h-1zM28 2v5h5v-5zM3 3h3v3h-3zM17 3h1v1h-1zM21 3h1v1h-1zM29 3h3v3h-3zM16 4h1v1h-1zM18 4h1v3h-1zM20 4h1v1h-1zM9 5h3v1h-3zM15 6h1v3h-1v1h-1v-2h1zM9 7h1v1h-1zM11 7h1v1h1v2h-2v-1h-1v-1h1zM17 7h1v1h1v-1h1v2h-1v1h-1v-1h-1zM21 7h1v1h1v-1h1v1h1v1h1v1h2v1h1v1h-2v-1h-2v-1h-1v-1h-1v1h-1v-1h-1zM1 9h1v2h1v-2h1v1h1v-1h1v1h1v1h-2v1h-1v2h-1v-2h-2zM7 9h1v1h-1zM16 9h1v1h-1zM20 9h1v1h-1zM29 9h1v1h-1zM32 9h1v1h-1zM8 10h1v2h-2v-1h1zM13 10h1v1h1v1h-2v1h-2v-1h-1v-1h3zM15 10h1v1h-1zM17 10h1v1h-1zM19 10h1v1h-1zM21 10h1v1h-1zM33 10h1v2h-3v-1h2zM18 11h1v1h-1zM22 11h1v4h-1v-1h-1v-2h1zM6 12h1v1h3v2h1v-1h3v1h-1v1h1v-1h1v1h2v1h-4v1h-1v2h1v-2h1v1h1v-1h1v2h-1v1h-1v1h-1v-1h-2v2h1v-1h1v2h-1v1h-1v1h-1v1h-1v-1h-2v-1h1v-1h2v-2h-1v-1h1v-1h1v-3h1v-1h-3v-2h-3zM17 12h1v1h-1zM24 12h1v2h-1zM26 12h1v1h2v1h-1v1h2v1h-4v-1h-1v-1h1zM29 12h1v1h-1zM30 13h1v1h1v1h-2zM5 14h1v2h-3v-1h2zM16 14h1v1h-1zM18 14h1v1h-1zM20 14h1v1h-1zM33 14h1v2h-1v1h-1v-2h1zM7 15h1v1h-1zM19 15h1v1h3v5h1v-1h1v2h-3v1h-1v-1h-1v1h-1v-2h-1v2h1v3h-1v-1h-1v-1h-1v1h-1v-2h1v-1h1v-1h-1v-1h1v-3h1v-1h1zM6 16h1v1h-1zM8 16h1v1h-1zM24 16h1v1h3v1h1v2h-2v-1h-1v1h-1v-2h-1zM2 17h3v1h-1v1h-1v-1h-1zM7 17h1v1h-1zM19 17v2h-1v1h1v-1h1v1h2v-1h-1v-1h-1v-1zM30 17h1v1h-1zM5 18h1v2h-1zM8 18h1v3h-1v-1h-1v-1h1zM33 18h1v2h-3v-1h2zM2 19h1v1h-1zM1 20h1v1h2v-1h1v1h1v1h-5zM6 20h1v1h-1zM29 20h1v1h-1zM7 21h1v1h-1zM26 21h2v3h-3v-2h1zM30 21h1v1h2v-1h1v7h-3v-1h2v-3h-1v-1h-2zM6 22h1v1h-1zM1 23h1v1h-1zM3 23h1v1h-1zM5 23h1v1h1v1h-1v1h-3v-1h1v-1h1zM7 23h1v1h-1zM22 23h2v1h-1v2h-1v1h1v7h-2v-1h1v-2h-1v-1h-1v-2h1v1h1v-1h-1v-2h-1v-1h1v-1h1zM29 23h1v1h-1zM2 24h1v1h-1zM1 25h1v1h-1zM12 25h1v1h-1zM14 25h1v1h-1zM16 25h1v1h-1zM25 25h5v1h1v1h-1v1h1v2h-1v1h1v1h-1v1h-3v-1h2v-1h-1v-1h-3v-2h-1v-2h1zM11 26h1v2h-2v-1h1zM13 26h1v1h1v-1h1v2h1v1h-2v-1h-2zM17 26h1v1h-1zM19 26h1v1h-1zM26 26v3h3v-3zM1 27h7v7h-7zM18 27h1v1h-1zM27 27h1v1h-1zM2 28v5h5v-5zM12 28h1v1h-1zM3 29h3v3h-3zM9 29h1v1h-1zM11 29h1v1h-1zM32 29h2v3h-1v-2h-1zM12 30h5v1h-3v1h-1v-1h-1zM24 30h1v1h-1zM9 31h1v1h-1zM11 31h1v1h-1zM19 31h1v1h-1zM26 31h1v1h-1zM12 32h1v1h2v-1h2v1h-1v1h-5v-1h1zM18 32h1v2h-1zM24 32h2v1h1v1h-3zM32 32h1v1h1v1h-2zM9 33h1v1h-1zM30 33h1v1h-1z"/></svg>