<svg xmlns="http://www.w3.org/2000/svg" viewBox="0 0 35 35"><path d="M1 1h7v7h-7zM11 1h1v3h2v1h-1v1h-1v2h-1v-2h-1v2h1v1h2v2h-2v-1h-1v-1h-1v-6h1v2h1zM13 1h1v1h-1zM17 1h1v3h-1v-1h-1v-1h1zM19 1h6v1h-1v2h1v-2h1v3h-1v1h-1v-1h-1v-1h-1v-2h-2v1h-1zM27 1h7v7h-7zM2 2v5h5v-5zM28 2v5h5v-5zM3 3h3v3h-3zM15 3h1v1h-1zM29 3h3v3h-3zM16 4h1v1h1v1h-3v-1h1zM19 4h1v1h-1zM21 5h2v1h1v2h-1v-1h-1v-1h-1zM14 6h1v1h-1zM18 6h1v1h-1zM20 6h1v1h-1zM25 6h1v4h-1v-1h-1v-1h1zM13 7h1v2h-1zM15 7h1v4h1v-1h1v-1h1v1h1v-1h-1v-2h1v1h1v-1h1v1h1v1h-1v1h1v1h1v1h-1v1h-2v-1h1v-1h-3v1h1v1h-2v1h-1v1h1v1h-1v1h2v1h-1v3h-2v-1h-1v-2h1v1h1v-1h-1v-2h-1v-1h1v-1h-1v-1h1v-1h-1v1h-1v-4h1zM17 7h1v2h-1zM1 9h1v1h1v1h-1v1h-1zM3 9h5v1h-1v1h2v2h-1v-1h-1v1h1v1h-2v-1h-1v1h-1v1h1v1h-2v3h-1v-1h-1v-1h1v-1h-1v-1h1v-2h2v-1h2v-2h-3zM23 9h1v1h-1zM27 9h5v1h2v1h-1v2h-2v1h-3v-1h1v-2h1v1h1v-1h-1v-1h-2v1h-2v-1h1zM24 10h1v1h-1zM10 12h2v1h-2zM24 12h1v1h-1zM27 12h1v1h-1zM12 13h1v1h-1zM20 13h1v1h-1zM23 13h1v1h1v1h-2zM26 13h1v1h-1zM33 13h1v2h-1v1h-1v-2h1zM8 14h1v1h-1zM10 14h2v1h-1v1h1v-1h1v-1h1v2h-1v1h-1v1h-1v1h-3v-1h2v-2h-1v-1h1zM18 14h2v3h-1v-2h-1zM27 14h1v1h1v1h-2zM6 15h2v1h-1v1h1v1h-1v1h-1zM21 15h2v2h-2zM14 16h1v2h-1zM25 16h1v1h1v1h-2zM30 16h2v1h-2zM4 17h1v1h-1zM20 17h1v1h2v1h1v1h-1v1h-1v-1h-1v-1h-1zM23 17h1v1h-1zM28 17h2v1h-1v1h-1v1h-1v2h1v1h-2v-3h-1v-1h2v-1h1zM33 17h1v2h-1v1h-1v1h-1v1h1v1h1v1h1v1h-4v4h1v1h1v-1h1v1h1v1h-5v1h3v1h-2v1h-3v-2h-2v-3h-1v-1h-1v-3h1v-1h4v-1h2v-1h-1v-3h1v1h1v-1h-1v-1h3zM12 18h1v1h-1zM24 18h1v1h-1zM3 19h2v2h-1v1h1v1h1v1h-1v1h-1v-2h-1v-1h-1v-1h1zM7 19h1v1h-1zM19 19h1v1h-1zM1 20h1v1h-1zM6 20h1v1h-1zM8 20h2v1h1v-1h2v3h1v1h-2v-1h-1v-1h-2v-1h-1zM33 20h1v3h-1zM7 21h1v1h-1zM15 21h1v1h-1zM19 21h2v1h1v2h1v1h-1v2h-3v1h4v1h-5v-1h-1v1h1v1h-1v1h1v1h-1v1h2v1h-3v-2h-1v-3h-2v-2h1v1h2v-1h1v-1h1v-1h1v1h1v-2h1v-1h-1v-1h-1zM24 21h1v2h-1zM1 22h1v4h-1zM14 22h1v1h-1zM16 22h2v1h-2zM7 23h1v1h-1zM15 23h1v1h-1zM19 23h1v1h-1zM23 23h1v1h-1zM6 24h1v1h2v-1h1v1h3v1h-3v1h-1v-1h-3zM17 24h1v1h-1zM15 25h1v2h-2v-1h1zM24 26v1h1v-1zM26 26v3h3v-3zM31 26h1v1h1v1h-1v1h-1zM33 26h1v1h-1zM1 27h7v7h-7zM10 27h1v1h-1zM27 27h1v1h-1zM2 28v5h5v-5zM9 28h1v2h1v1h-1v1h-1zM11 28h1v1h1v1h-2zM33 28h1v1h-1zM3 29h3v3h-3zM23 29h1v1h-1zM13 30h1v1h-1zM19 30h4v1h-1v1h-1v-1h-2zM27 30v1h1v-1zM12 31h1v1h1v1h1v1h-2v-1h-1v1h-1v-2h1zM20 32h1v1h-1zM22 32h1v1h-1zM9 33h1v1h-1zM23 33h3v1h-3zM32 33h1v1h-1z"/></svg>