<svg xmlns="http://www.w3.org/2000/svg" viewBox="0 0 35 35"><path d="M1 1h7v7h-7zM10 1h4v1h-1v1h-2v-1h-1zM15 1h1v1h-1zM17 1h1v1h-1zM19 1h4v1h1v1h1v-1h1v3h-1v1h-2v-2h-2v1h-2v-1h1v-1h2v-1h-2v1h-1zM24 1h1v1h-1zM27 1h7v7h-7zM2 2v5h5v-5zM16 2h1v1h1v1h-1v1h1v1h-2v2h-1v-1h-1v1h-1v-2h-1v-1h-1v-1h2v-1h1v3h1v-1h1v-1h-1v-1h1zM28 2v5h5v-5zM3 3h3v3h-3zM9 3h1v2h1v2h-1v1h1v-1h1v1h1v1h-1v1h-1v-1h-2zM29 3h3v3h-3zM21 5h1v1h-1zM20 6h1v1h-1zM22 6h1v1h-1zM25 6h1v3h-1zM17 7h1v2h1v1h1v-2h1v-1h1v1h1v1h-2v1h1v1h-3v1h2v1h-3v1h-1v-2h-2v1h-1v-1h-1v-1h-1v-1h2v-1h2v1h-1v1h2zM19 7h1v1h-1zM23 7h1v1h-1zM1 9h1v2h1v-2h5v1h-4v2h-1v2h-1v3h-1zM23 9h2v2h-1v-1h-1zM27 9h5v2h1v1h1v1h-1v1h1v1h-1v1h-1v-1h-1v-1h1v-1h-1v1h-3v-1h1v-2h1v1h1v-1h-1v-1h-2v3h-1v-1h-1v1h-1v-2h2zM8 10h2v2h-3v1h1v1h-2v-1h-1v-2h3zM33 10h1v1h-1zM11 11h1v1h-1zM22 11h1v2h-1zM10 12h1v1h-1zM12 13h2v2h1v1h1v-2h1v1h2v-1h1v3h-1v-1h-2v2h-1v-1h-1v3h1v-1h1v1h1v1h-2v1h-2v-1h-1v-1h1v-1h-1v1h-1v-2h1v-1h1v-1h-1v-1h-1zM15 13h1v1h-1zM23 13h2v2h-1v1h-1v1h-1v3h-1v-1h-1v1h-1v-2h1v-1h1v-2h2zM26 13h1v1h-1zM8 14h1v1h1v2h-1v-1h-2v-1h1zM10 14h1v1h-1zM27 14h1v2h-1zM3 15h2v1h-1v1h1v1h1v3h3v2h1v1h-1v1h-1v-1h-1v1h1v1h-2v-1h-1v-1h1v-2h-1v-2h-1v2h-1v-1h-1v1h1v1h-1v3h-1v-6h2zM11 15h1v1h-1zM25 15h1v1h-1zM30 15h1v1h1v1h-2v1h-1v1h-1v1h-2v-4h1v2h1v-1h1v-1h1zM5 16h2v1h-2zM12 16h1v1h-1zM7 17h2v2h-1v-1h-1zM18 17h1v1h-1zM23 17h1v1h-1zM33 17h1v2h-1v1h-1v1h-1v2h-1v-1h-2v-1h1v-2h1v1h1v-1h-1v-1h3zM1 18h1v1h-1zM10 18h1v2h-2v-1h1zM17 18h1v1h-1zM24 18h1v1h-1zM7 19h1v1h-1zM11 20h1v1h-1zM22 20h1v1h-1zM25 20h1v1h-1zM33 20h1v1h-1zM19 21h2v1h2v1h1v1h-1v1h-1v2h-3v1h1v1h-2v-2h-1v-1h1v-1h1v1h1v-1h-1v-1h2v-1h-1v-1h-1zM24 21h1v2h-1zM26 21h1v1h-1zM7 22v1h1v-1zM10 22h1v1h-1zM12 22h2v1h-2zM16 22h3v2h-1v-1h-2zM27 22h1v1h-1zM33 22h1v1h-1zM3 23h1v2h1v1h-2zM11 23h1v1h-1zM25 23h1v1h3v1h1v-1h2v-1h1v1h1v1h-3v1h-1v3h1v1h-1v1h-1v1h1v-1h1v-1h1v-1h-1v-3h1v1h1v1h1v3h-2v2h-2v1h-3v-1h-1v-2h-1v-2h-1v-1h-1v-3h1v2h1v-2h-1v-1h1zM10 24h1v2h1v-1h4v1h-1v1h-2v1h-1v-1h-1v1h-1v-1h-1v-1h1zM17 24h1v1h-1zM26 26v3h3v-3zM33 26h1v1h-1zM1 27h7v7h-7zM15 27h2v2h-1v1h-1v1h-1v1h-1v-2h-2v-2h1v1h1v-1h1v1h1zM27 27h1v1h-1zM2 28v5h5v-5zM9 28h1v2h1v1h1v1h-3zM22 28h1v1h-1zM3 29h3v3h-3zM17 29h1v1h-1zM23 29h1v1h-1zM16 30h1v1h1v1h-1v2h-2v-1h-1v-1h1v-1h1zM19 30h3v1h1v1h1v1h2v1h-3v-1h-1v-1h-1v-1h-1v1h-1zM27 30v1h1v-1zM12 32h1v1h-1zM20 32h1v1h-1zM9 33h1v1h-1zM13 33h1v1h-1zM18 33h1v1h-1zM21 33h1v1h-1zM32 33h1v1h-1z"/></svg>