<svg xmlns="http://www.w3.org/2000/svg" viewBox="0 0 35 35"><path d="M1 1h7v7h-7zM11 1h2v1h-2zM17 1h1v1h-1zM19 1h4v1h-3v1h-1zM24 1h1v1h-1zM27 1h7v7h-7zM2 2v5h5v-5zM16 2h1v1h1v1h-1v1h1v1h-2v4h-1v1h2v1h-2v1h-1v-2h-2v-1h1v-1h-1v-1h1v-1h1v2h1v-3h-1v-1h2v-1h-1v-1h1zM23 2h1v2h1v2h-1v-1h-1v-1h-1v-1h1zM25 2h1v2h-1zM28 2v5h5v-5zM3 3h3v3h-3zM9 3h1v1h1v1h-1v4h-1zM11 3h1v1h-1zM29 3h3v3h-3zM13 4h1v1h-1zM19 4h2v1h-2zM12 5h1v2h-1zM21 5h2v1h1v4h1v1h-1v1h-1v1h-2v-1h1v-1h1v-2h-2v1h1v1h-3v1h1v1h-2v-2h-1v-4h1v2h1v1h1v-1h-1v-2h1v1h1v-1h1v1h1v-1h-1v-1h-1zM18 6h1v1h-1zM20 6h1v1h-1zM25 6h1v2h-1zM11 7h1v1h-1zM1 9h1v1h1v-1h5v1h-1v1h-1v1h-1v-2h-1v2h1v1h-2v1h1v1h-3zM10 9h1v2h-2v-1h1zM27 9h5v2h1v3h1v1h-1v1h-1v1h-2v-1h1v-1h1v-2h-1v2h-1v-1h-2v-1h1v-2h1v1h1v-1h-1v-1h-2v2h-2v-2h1zM33 10h1v1h-1zM2 11v1h1v-1zM7 11h2v1h-2zM11 11h1v1h1v1h-1v1h-2v-1h1zM5 13h4v1h-2v1h4v2h-2v-1h-2v1h1v1h-1v1h-1v-2h-1v-1h1v-2h-1zM13 13h1v1h-1zM15 13h1v1h-1zM17 13h1v1h-1zM23 13h2v2h-1v-1h-1zM26 13h1v1h1v1h-1v1h-1zM14 14h1v1h1v-1h1v1h1v-1h2v1h-1v1h-2v2h-1v1h1v1h-2v-1h-1v-2h1v-1h-1v1h-1v-2h1zM22 14h1v1h1v2h3v1h-2v1h-3v1h2v1h-3v1h1v2h1v1h-2v1h1v1h-3v1h2v1h-3v-1h-1v1h-3v-2h-1v1h-2v-1h1v-1h1v-1h1v1h2v1h1v-3h1v1h1v1h1v-2h1v-1h-1v-1h-1v-1h1v-1h1v-1h-1v1h-1v-2h1v-1h1v1h2v-1h-2v-2h1zM4 15h1v1h-1zM28 15h2v1h-2zM1 16h1v1h-1zM19 16h1v1h-1zM27 16h1v1h-1zM2 17h1v2h-1v1h-1v-2h1zM11 17h2v1h-1v1h2v1h-2v1h-1v-2h-1v-1h1zM18 17h1v1h-1zM28 17h2v1h-1v1h-2v-1h1zM33 17h1v2h-1v2h-2v1h-2v-3h1v1h1v-1h-1v-1h3zM8 18h1v2h-2v-1h1zM17 18h1v1h-1zM3 19h1v1h-1zM25 19h2v1h-1v1h1v1h-2zM2 20h1v1h1v-1h1v1h3v1h-2v2h-1v2h-1v-1h-1v-2h2v-1h-2v1h-1v3h-1v-4h1zM9 20h1v1h1v1h2v1h-3v-1h-1zM14 20h1v2h-1zM16 21h1v1h1v1h-2v2h-2v-1h-1v-1h2v-1h1zM33 21h1v2h-1zM8 22h1v1h1v1h-3v-1h1zM24 22h1v1h-1zM27 22h1v1h-1zM31 22h1v1h1v1h1v1h-3v1h-1v3h1v1h-1v1h-1v1h2v-2h3v1h-2v2h-2v1h-2v-1h-1v-1h-2v-1h1v-1h-1v-1h-1v-1h-1v-3h1v1h1v-1h1v-1h1v1h1v-1h1v1h1v-1h-1v-1h2zM10 24h2v2h-1v1h-2v-1h-3v-1h4zM26 26v3h3v-3zM31 26h1v1h1v2h-2zM33 26h1v1h-1zM1 27h7v7h-7zM27 27h1v1h-1zM2 28v5h5v-5zM9 28h2v1h-1v3h-1zM22 28h1v1h-1zM3 29h3v3h-3zM17 29h1v1h-1zM23 29h1v1h-1zM12 30h1v1h-1zM15 30h2v1h1v-1h4v1h1v2h-1v-1h-1v-1h-2v1h-2v1h2v1h-4v-1h1v-2h-1zM27 30v1h1v-1zM11 31h1v1h-1zM13 31h2v1h-2zM12 32h1v1h1v1h-2zM19 32h2v1h-2zM24 32h1v1h1v1h-3v-1h1zM9 33h2v1h-2zM32 33h1v1h-1z"/></svg>