<svg xmlns="http://www.w3.org/2000/svg" viewBox="0 0 35 35"><path d="M1 1h7v7h-7zM10 1h4v1h-2v1h-1v1h-1v2h1v1h-1v2h-1v-6h1zM17 1h1v1h-1zM19 1h3v1h1v2h-1v-1h-1v-1h-1v1h-1zM24 1h1v1h-1zM27 1h7v7h-7zM2 2v5h5v-5zM16 2h1v2h-2v-1h1zM25 2h1v1h-1zM28 2v5h5v-5zM3 3h3v3h-3zM12 3h2v1h-1v1h-2v-1h1zM20 3h1v1h-1zM24 3h1v1h-1zM29 3h3v3h-3zM19 4h1v1h-1zM23 4h1v1h-1zM25 4h1v1h-1zM15 5h3v1h-3zM21 5h1v1h-1zM24 5h1v1h-1zM13 6h2v1h-1v1h-1zM18 6h3v1h-1v1h-1v-1h-1zM22 6h2v2h-1v-1h-1zM11 7h1v2h1v1h-1v1h-1v-1h-1v-1h1zM15 7h1v1h-1zM17 7h1v2h-1zM21 7h1v1h1v1h-1v1h1v-1h1v1h1v1h-1v2h1v-1h1v1h1v1h-2v1h-2v-2h-1v-1h1v-1h-4v1h1v1h-2v1h-1v1h2v-1h1v2h-3v2h-1v-2h-1v-1h1v-1h-1v-1h2v-1h-2v1h-1v-1h-1v-2h1v-1h2v2h1v-1h1v-1h1v1h1v-2h1zM25 7h1v1h-1zM1 9h1v1h-1zM3 9h5v1h-1v1h-1v-1h-3zM25 9h1v1h-1zM27 9h5v2h1v1h-1v1h-1v1h3v1h-1v1h-1v-1h-2v-1h-2v-1h1v-2h1v1h1v-1h-1v-1h-2v2h-1v-1h-1v-1h1zM8 10h2v1h-1v1h1v2h1v1h-1v1h-3v-1h1v-1h-1v1h-1v-1h-1v-1h1v-1h1v1h1v-1h-1v-1h1zM33 10h1v1h-1zM3 11h1v1h-1zM10 11h1v1h-1zM4 12h1v1h-1zM11 12h1v1h2v1h-1v1h-1v-1h-1zM1 13h1v1h-1zM2 14h3v1h1v1h1v1h1v1h-1v1h1v-1h1v1h1v1h-1v3h-1v-1h-1v-1h1v-1h-1v1h-1v2h-1v-1h-1v1h-2v3h-1v-5h1v-2h-1v-1h1v-2h-1v-1h1zM27 14h1v1h-1zM21 15h2v2h-1v2h-2v1h-1v-2h1v-1h1zM25 15h1v1h-1zM3 16v2h1v-1h1v-1zM11 16h2v1h1v-1h1v2h-3v-1h-1zM28 16h4v1h-2v1h-1v1h-1v2h-1v-2h-1v-1h-1v-1h2v1h1zM9 17h1v1h-1zM18 17h1v1h-1zM23 17h1v1h-1zM33 17h1v2h-1v2h-2v1h-3v-1h1v-2h1v1h1v-1h-1v-1h3zM10 18h2v1h-2zM15 18h1v1h1v1h-2v1h-2v-2h2zM17 18h1v1h-1zM24 18h1v1h-1zM3 19v2h2v-2zM25 19h1v2h1v1h-2v1h-1v-2h1zM17 20h1v1h-1zM21 20h2v1h-2zM10 21h2v2h-2zM15 21h2v1h1v1h-2v-1h-1zM19 21h2v1h1v2h1v-1h1v3h-1v-1h-2v1h1v2h-1v-1h-2v1h2v1h-3v-2h-1v-1h1v-1h1v1h1v-1h-1v-1h2v-1h-1v-1h-1zM27 22h1v1h-1zM33 22h1v1h-1zM7 23h1v1h-1zM12 23h3v1h-1v1h-1v-1h-1zM25 23h2v1h-1v1h4v4h1v1h-1v1h-1v1h2v-1h1v2h-1v1h-8v-1h1v-1h1v1h2v-2h1v-1h-1v1h-1v-1h-1v-1h-1v-1h-1v-1h1v-1h1zM28 23h5v1h1v1h-4v-1h-2zM4 24h1v1h-1zM6 24h1v1h1v1h-3v-1h1zM8 24h2v1h-2zM15 24h1v2h-2v-1h1zM17 24h1v1h-1zM11 25h2v1h-2zM9 26h1v1h-1zM13 26h1v1h1v1h-2zM26 26v3h3v-3zM31 26h1v1h1v1h-1v1h-1zM33 26h1v1h-1zM1 27h7v7h-7zM10 27h2v1h1v2h1v2h-1v-1h-1v-1h-1v-2h-1zM16 27h1v2h1v1h-1v1h1v1h-1v1h2v1h-3v-1h-1v1h-1v-2h2v-2h-2v-1h2zM27 27h1v1h-1zM2 28v5h5v-5zM9 28h1v2h1v1h1v1h1v2h-4v-1h1v-1h-1zM22 28h1v1h-1zM3 29h3v3h-3zM23 29h1v1h-1zM33 29h1v2h-2v-1h1zM19 30h3v1h2v1h-1v1h-1v-1h-1v-1h-2zM24 30h1v1h-1zM20 32h1v1h-1zM21 33h1v1h-1zM32 33h1v1h-1z"/></svg>