<svg xmlns="http://www.w3.org/2000/svg" viewBox="0 0 35 35"><path d="M1 1h7v7h-7zM10 1h1v1h2v2h1v1h-1v1h1v3h2v2h1v1h-2v1h-1v-1h-1v-1h1v-1h-1v-1h-1v-1h1v-1h-1v1h-1v-2h-1v3h-1v-6h1v2h1v-1h1v-1h-2zM13 1h1v1h-1zM15 1h1v1h-1zM17 1h1v2h-1v2h2v1h2v1h-1v1h-1v-1h-1v-1h-3v-1h1v-1h-1v-1h1v-1h1zM19 1h3v2h1v1h-2v1h-2v-1h1v-1h1v-1h-1v1h-1zM23 1h2v1h-2zM27 1h7v7h-7zM2 2v5h5v-5zM25 2h1v1h-1zM28 2v5h5v-5zM3 3h3v3h-3zM29 3h3v3h-3zM23 4h1v1h1v1h-4v-1h2zM25 4h1v1h-1zM15 7h1v1h-1zM17 7h1v2h-1zM21 7h1v1h1v-1h1v2h1v-2h1v3h-1v1h-2v-2h-2v1h1v1h1v1h2v-1h1v2h1v1h-2v1h-1v-1h-1v-1h-2v-2h-1v-3h1zM1 9h1v1h1v-1h5v1h-2v1h3v1h-2v1h1v1h-3v-1h1v-1h-1v-2h-1v1h-1v1h1v2h-2v-3h-1zM10 9h1v1h2v1h-4v-1h1zM18 9h1v3h1v1h-2v1h-1v-2h1v-1h-1v-1h1zM27 9h5v1h2v1h-1v1h-1v1h-1v1h-2v-3h1v1h1v-1h-1v-1h-2v1h-2v-1h1zM9 13h1v2h2v1h2v-1h1v1h1v-2h1v1h1v1h-1v2h-1v1h-1v1h1v-1h1v1h1v1h-1v1h1v1h-3v1h1v1h-2v-2h-2v-2h1v1h1v-2h-2v-3h-1v2h-3v-1h-2v-3h2v1h-1v1h1v-1h1zM11 13h3v1h-3zM15 13h1v1h-1zM32 13h2v2h-1v1h-1zM4 14h1v4h1v2h-2v-1h-3v-1h1v-1h-1v-1h2v1h1v-1h-1v-1h1zM19 14h1v1h-1zM22 14h1v1h1v1h-1v1h-1v3h1v1h-2v1h1v1h1v2h-2v1h1v1h-3v1h2v2h1v2h-1v-1h-1v1h-1v-2h1v-1h-2v-2h-1v-1h1v-1h1v1h1v-1h-1v-1h-1v-1h2v1h1v-1h-1v-1h-1v-1h1v-1h1v-1h-1v-2h1v-2h1zM27 14h1v1h-1zM28 15h2v1h-2zM19 16h1v1h-1zM25 16h1v1h-1zM30 16h2v1h-2zM9 17v1h1v-1zM18 17h1v1h-1zM23 17h2v2h-1v-1h-1zM26 17h1v1h1v-1h2v1h-1v1h-3zM33 17h1v2h-1zM17 18h1v1h-1zM30 18h2v1h1v1h1v1h-1v1h-1v-1h-1v1h-2v-3h1v1h1v-1h-1zM7 19h1v1h-1zM19 19h1v1h-1zM23 19h1v1h-1zM25 19h1v1h-1zM1 20h1v6h-1zM3 20h1v1h2v3h-1v-2h-1v1h-1zM6 20h1v1h-1zM9 20h3v1h-3zM26 20h1v2h1v1h-2zM7 21h1v1h-1zM15 21v1h1v-1zM24 21h1v2h-1zM8 22h1v1h1v1h1v-1h1v2h2v1h-4v-1h-2v-1h-1v-1h1zM33 22h1v1h-1zM25 23h1v1h-1zM29 23h4v1h1v1h-4v-1h-1zM4 24h1v1h-1zM6 24h1v1h-1zM17 24h1v1h-1zM7 25h1v1h-1zM23 25h7v4h1v1h3v1h-2v2h-2v1h-7v-1h5v-1h-1v-1h1v-1h-1v1h-1v1h-2v-1h1v-2h-1v-1h-1zM9 26h1v1h-1zM14 26h2v1h1v1h-1v1h2v1h-1v1h1v1h-1v2h-5v-1h1v-1h-1v-1h-1v-1h-1v1h1v1h-2v-4h2v-1h1v1h2v1h-1v2h1v1h1v1h1v-1h-1v-1h-1v-1h1v-2h-1zM24 26v1h1v-1zM26 26v3h3v-3zM31 26h3v1h-1v1h1v1h-3zM1 27h7v7h-7zM27 27h1v1h-1zM2 28v5h5v-5zM22 28h1v1h-1zM3 29h3v3h-3zM23 29h1v1h-1zM29 31v1h1v-1zM20 32h1v1h-1zM22 32h1v1h-1zM9 33h2v1h-2zM18 33h1v1h-1zM32 33h1v1h-1z"/></svg>