<svg xmlns="http://www.w3.org/2000/svg" viewBox="0 0 35 35"><path d="M1 1h7v7h-7zM12 1h2v1h-1v1h-1zM15 1h1v1h-1zM17 1h1v1h-1zM19 1h4v1h-1v1h-1v-1h-1v1h-1zM24 1h1v1h-1zM27 1h7v7h-7zM2 2v5h5v-5zM10 2h1v1h-1zM16 2h1v1h-1zM28 2v5h5v-5zM3 3h3v3h-3zM9 3h1v1h1v1h-1v4h-1zM13 3h1v2h2v-1h1v1h2v1h-4v1h-1v-1h-1zM15 3h1v1h-1zM17 3h1v1h-1zM22 3h1v1h-1zM29 3h3v3h-3zM19 4h1v1h-1zM23 4h3v1h-1v1h-1v-1h-1zM11 5h1v1h1v1h-1v1h-1zM21 5h2v1h1v2h-1v-1h-1v-1h-1zM20 6h1v1h-1zM13 7h1v2h-1v1h-1v-2h1zM15 7h1v1h-1zM17 7h1v2h1v1h1v-1h-1v-2h1v1h1v-1h1v1h1v1h-1v3h1v1h-2v-2h-2v1h1v1h-2v-1h-1v1h-1v-1h-1v1h-1v-4h2v2h1zM25 7h1v1h-1zM1 9h1v5h-1zM3 9h5v1h-4v1h2v4h-1v-1h-1v-1h1v-1h-1v1h-1zM23 9h1v1h1v1h-2zM25 9h1v1h-1zM27 9h5v1h2v1h-1v1h1v3h-1v1h-1v1h-1v1h1v1h1v1h-1v1h-1v1h-2v-3h1v1h1v-1h-1v-1h-1v1h-2v3h1v1h-2v-3h-1v-1h1v-1h-1v-3h1v1h1v-1h-1v-3h2v1h-1v1h1v2h1v1h1v-1h1v-2h1v-1h-1v1h-3v-1h1v-2h1v1h1v-1h-1v-1h-2v1h-1zM8 10h1v1h-1zM11 10h1v1h-1zM7 11h1v1h-1zM9 11h1v1h-1zM12 11h1v3h1v1h-1v1h1v1h-1v1h-1v-1h-1v-1h-1v-1h1v-1h-1v-2h2zM7 13h1v1h-1zM15 13h1v1h-1zM17 13h1v1h-1zM23 13h1v1h-1zM2 14h2v2h-1v-1h-1zM9 14h1v1h-1zM16 14h1v1h2v1h-2v2h-2v1h-1v-2h2zM19 14h1v1h-1zM22 14h1v3h-1v2h-2v1h-1v-2h1v-1h1v-2h1zM24 14h1v1h-1zM1 15h1v1h-1zM6 15h2v1h-1v1h1v-1h1v1h2v2h-2v-1h-2v1h2v1h-2v1h-1v-3h-1v2h-1v-1h-2v-1h1v-1h1v-1h2zM29 15h1v1h-1zM1 17h1v1h-1zM18 17h1v1h-1zM23 17h1v1h-1zM27 17v1h1v-1zM33 17h1v2h-1zM17 18h1v1h-1zM24 18h1v1h-1zM1 19h1v2h-1zM11 19h2v2h-1v1h3v-1h-1v-1h2v-1h1v3h1v1h-4v1h-1v-1h-1v1h-1v-2h-1v-1h-1v-1h2zM3 20h1v1h-1zM22 20h1v1h-1zM7 21h1v1h-1zM19 21h2v1h1v2h2v1h1v-1h1v1h1v-1h1v-1h5v1h1v1h-4v-1h-1v1h1v4h1v1h-1v1h-1v1h1v-1h1v-1h1v-1h-1v-3h1v1h1v1h1v1h-1v1h1v1h-2v2h-1v1h-4v-1h1v-1h-3v-1h-1v-1h1v-1h-1v-1h-1v-3h-1v2h-2v-2h-1v-1h2v-1h-1v-1h-1zM32 21h2v2h-1v-1h-1zM1 22h1v4h-1zM5 22h2v1h-1v1h-1zM8 22h1v2h-2v-1h1zM24 22h1v1h-1zM18 23h1v1h-1zM6 24h1v1h2v1h-4v-1h1zM9 24h1v1h-1zM12 24h1v1h1v-1h1v2h-2v1h1v1h-1v1h1v-1h2v-1h1v1h1v-1h-1v-3h1v1h1v3h1v1h-2v1h-1v1h2v1h-2v2h-1v-1h-1v1h-2v-1h1v-1h1v-1h-1v1h-2v1h-1v-2h1zM3 25h1v1h-1zM9 26h2v1h-2zM15 26h1v1h-1zM24 26v1h1v-1zM26 26v3h3v-3zM33 26h1v1h-1zM1 27h7v7h-7zM27 27h1v1h-1zM2 28v5h5v-5zM9 28h1v1h1v1h-1v2h-1zM22 28h1v1h-1zM3 29h3v3h-3zM23 29h1v1h-1zM19 30h4v1h-1v1h-1v-1h-2zM27 30v1h1v-1zM20 32h1v1h-1zM22 32h1v1h-1zM24 32h1v1h1v1h-3v-1h1zM9 33h2v1h-2zM18 33h1v1h-1zM21 33h1v1h-1zM32 33h1v1h-1z"/></svg>