<svg xmlns="http://www.w3.org/2000/svg" viewBox="0 0 35 35"><path d="M1 1h7v7h-7zM10 1h2v1h-2zM13 1h1v2h-2v-1h1zM17 1h1v2h-1v2h2v1h-5v3h-1v-2h-1v1h-1v-1h-1v1h1v1h-2v-6h2v1h-1v1h1v1h2v-1h3v-1h-1v-1h1v-1h1zM20 1h3v1h-1v1h1v1h-3v-1h1v-1h-1zM24 1h1v1h-1zM27 1h7v7h-7zM2 2v5h5v-5zM19 2h1v1h-1zM23 2h1v1h-1zM25 2h1v3h-1v1h-1v-1h-1v-1h2zM28 2v5h5v-5zM3 3h3v3h-3zM29 3h3v3h-3zM12 4h1v1h-1zM19 4h1v1h-1zM21 5h2v1h1v4h1v1h-1v1h-1v-1h-4v1h2v2h-1v-1h-2v1h-1v1h1v1h-1v1h2v1h-1v1h-1v-1h-1v-1h-1v-2h1v-1h-1v-1h2v-1h1v-1h-1v-1h1v-1h1v1h1v-2h1v-1h1v1h1v-1h-1v-1h-1zM19 6h2v1h-1v1h-1zM15 7h1v1h-1zM17 7h1v2h-1zM25 7h1v1h-1zM1 9h1v1h-1zM3 9h5v1h-2v1h-1v1h1v1h-1v1h-1v1h-1v-1h-1v1h-1v-2h1v-3h1zM11 9h2v1h1v-1h2v2h1v1h-2v1h-2v-1h1v-1h-2v-1h-1zM21 9v1h2v-1zM27 9h5v2h1v1h-1v1h-1v3h1v1h-2v-1h-1v1h1v1h-1v1h-2v-1h1v-1h-1v1h-2v-1h1v-1h-1v-1h2v1h1v-1h2v-1h-1v-3h1v1h1v-1h-1v-1h-2v1h-1zM9 10h2v1h-2zM33 10h1v1h-1zM7 11h2v2h1v1h-3v1h3v-1h1v2h-1v2h-1v2h1v-1h1v1h2v2h1v1h-3v-2h-3v-1h-1v-1h1v-1h-1v-1h2v-1h-3v1h-1v-1h-1v-1h1v-1h1v-1h2v-1h-1zM26 11h1v1h-1zM3 12v1h1v-1zM10 12h1v1h-1zM22 12h1v1h-1zM24 12h2v1h-1v2h-1v1h-1v1h-2v-2h1v-1h1v-1h1zM27 12h1v1h-1zM33 12h1v3h-1v1h-1v-3h1zM11 13h1v1h-1zM26 13h1v1h-1zM13 14h2v1h-2zM18 14h2v1h-2zM27 14h1v1h-1zM12 15h1v2h-2v-1h1zM1 16h1v1h-1zM19 16h1v1h-1zM24 16h1v1h-1zM3 17h2v1h-2zM14 17h1v2h-1v1h-1v-1h-1v-1h2zM20 17h1v1h2v3h-1v-2h-2zM23 17h1v1h-1zM33 17h1v2h-1zM1 18h2v2h-2zM5 18h1v1h-1zM24 18h1v1h-1zM30 18h2v1h1v2h-2v1h1v1h1v1h1v1h-3v1h-1v3h1v1h-1v1h-1v1h1v-1h1v-1h1v-1h-1v-3h3v1h-1v3h1v1h-2v2h-1v1h-8v-1h3v-1h-2v-2h1v-1h-1v-1h-1v-1h1v-1h1v-1h1v-1h1v1h1v-1h1v1h1v-1h1v-1h-1v-1h-1v-3h1v1h1v-1h-1zM15 19h2v1h-1v1h1v1h2v1h1v1h1v-1h-1v-1h-1v-1h1v-1h1v2h2v1h-1v1h1v1h-1v2h-3v1h2v2h1v1h1v2h-1v-1h-1v-1h-2v1h-2v2h-1v-2h-1v-3h1v1h1v1h1v-1h2v-1h-2v1h-1v-2h-1v-1h1v-1h1v-1h1v1h1v-1h-1v-1h-1v-1h-3zM19 19h1v1h-1zM3 20h1v1h1v1h1v-1h2v1h-1v1h2v-1h1v3h1v-1h2v1h-1v1h-2v1h-1v-3h-4v1h-1v-2h-1v-1h-1v4h-1v-5h2zM26 20h1v2h-2v-1h1zM24 22h1v1h-1zM27 22h1v2h-1zM33 22h1v1h-1zM14 23h1v1h1v2h-2zM23 23h1v1h-1zM25 23h1v1h-1zM29 23h1v1h-1zM17 24h1v1h-1zM24 24h1v1h-1zM5 25h1v1h-1zM7 25h1v1h-1zM23 25h1v1h-1zM26 26v3h3v-3zM1 27h7v7h-7zM11 27h4v1h-1v1h-1v-1h-2zM27 27h1v1h-1zM2 28v5h5v-5zM9 28h2v1h1v1h-1v1h-1v1h-1zM22 28h1v1h-1zM3 29h3v3h-3zM23 29h1v1h-1zM13 30h1v1h-1zM27 30v1h1v-1zM11 31h2v1h-1v1h-1v1h-2v-1h1v-1h1zM14 32h1v1h-1zM19 32h2v1h-2zM27 32v1h1v-1zM13 33h1v1h-1zM18 33h1v1h-1zM21 33h1v1h-1zM32 33h1v1h-1z"/></svg>