<svg xmlns="http://www.w3.org/2000/svg" viewBox="0 0 35 35"><path d="M1 1h7v7h-7zM12 1h1v1h-1zM17 1h1v2h-2v-1h1zM20 1h3v1h-3zM24 1h1v1h-1zM27 1h7v7h-7zM2 2v5h5v-5zM11 2h1v1h-1zM19 2h1v1h-1zM25 2h1v3h-1zM28 2v5h5v-5zM3 3h3v3h-3zM9 3h2v2h1v1h-2v2h1v1h-2zM13 3h1v2h-1zM15 3h1v1h-1zM22 3h1v1h-1zM29 3h3v3h-3zM16 4h1v1h1v1h-3v1h-1v-2h2zM19 4h2v1h-2zM23 4h1v1h-1zM21 5h2v1h-2zM24 5h1v1h-1zM12 6h1v1h-1zM19 6h2v1h-1v1h-1zM23 6h1v3h1v2h-1v1h-1v-1h-1v1h1v1h-2v1h-1v-1h-2v-1h-3v1h-1v1h-2v-1h1v-1h1v-2h-1v-3h1v2h2v1h-1v1h2v-1h1v-1h1v1h1v-2h1v-1h1v1h1zM11 7h1v1h-1zM15 7h1v1h-1zM17 7h1v2h-1zM25 7h1v2h-1zM1 9h1v1h-1zM3 9h5v1h-3v2h2v1h1v1h-2v-1h-1v2h-1v-1h-2v1h2v1h-3v-3h2v-2h1v-1h-1zM22 9v1h1v-1zM27 9h5v2h1v2h-2v1h-2v-3h1v1h1v-1h-1v-1h-2v1h-2v-1h1zM8 10h1v2h1v-2h2v1h1v1h-1v1h-1v1h1v1h2v1h1v-1h1v-1h-1v-1h3v1h-1v1h2v1h-2v2h-6v-1h1v-1h-2v-1h-1v3h1v2h-1v-1h-1v-1h-1v-1h1v-1h-1v1h-3v-1h1v-1h3v-1h1v-1h-1v-1h-1v-1h1zM33 10h1v1h-1zM19 11v1h2v-1zM25 11h1v1h-1zM26 12h2v1h-1v1h-2v1h-1v-1h-1v-1h3zM33 13h1v2h-1v1h-1v1h-2v1h-1v1h-2v-1h1v-2h2v-1h2v-1h1zM19 14h1v1h-1zM22 14h1v1h1v2h1v-2h1v1h1v2h-2v1h-1v-1h-1v-1h-2v-2h1zM27 14h1v2h-1zM19 16h1v1h-1zM1 17h1v1h-1zM3 17h1v1h-1zM18 17h1v1h-1zM20 17h1v1h1v2h-1v-1h-1v1h-1v-2h1zM33 17h1v2h-1v1h-1v1h-1v1h-2v-3h1v1h1v-1h-1v-1h3zM4 18h2v1h-1v1h-1v1h-1v-2h1zM17 18h1v2h-1v1h-2v-1h1v-1h1zM6 19h2v1h-2zM13 19h2v1h-1v1h1v1h-1v2h-1v1h-1v-2h1v-1h-2v-1h1v-1h1zM25 19h1v1h2v1h-1v1h-2v1h-1v-2h-2v-1h3zM5 20h1v1h-1zM10 20h1v1h-1zM33 20h1v3h-1v-1h-1v-1h1zM6 21h2v1h-2zM19 21h1v1h-1zM1 22h1v4h-1zM5 22h1v1h-1zM9 22h2v1h-2zM15 22h3v1h-2v1h-1zM20 22h3v1h-1v1h1v1h-2v1h1v1h-3v1h2v2h1v2h-1v-1h-2v-1h1v-1h-2v-2h-1v-1h1v-1h1v1h1v-1h-1v-1h2v-1h-1zM27 22h1v3h2v4h1v1h1v-1h-1v-3h1v1h1v1h1v3h-2v2h-1v1h-3v-1h-1v-2h1v-1h-1v1h-1v-1h-1v-1h-1v-1h-1v-1h1v-1h1v-1h-1v-1h2v-1h1zM3 23h1v1h2v2h-2v-1h-1zM6 23h2v1h-2zM30 23h3v1h1v1h-4zM10 24h1v1h-1zM14 24h1v1h-1zM17 24h1v1h-1zM7 25h1v1h-1zM11 25h1v1h1v2h1v2h-1v1h-1v-2h-2v3h-1v-4h1v-1h-1v-1h2zM13 25h1v1h-1zM15 25h1v1h-1zM23 25h1v1h-1zM26 26v3h3v-3zM33 26h1v1h-1zM1 27h7v7h-7zM14 27h3v2h1v1h-1v1h1v1h-1v1h2v1h-5v-1h1v-1h1v-1h-1v1h-1v-2h1v-2h-1zM27 27h1v1h-1zM2 28v5h5v-5zM22 28h1v1h-1zM3 29h3v3h-3zM23 29h1v1h-1zM11 31h1v1h-1zM29 31v1h1v-1zM12 32h2v1h-1v1h-1zM20 32h1v1h-1zM22 32h3v1h2v1h-4v-1h-1zM9 33h2v1h-2zM32 33h1v1h-1z"/></svg>