<svg xmlns="http://www.w3.org/2000/svg" viewBox="0 0 35 35"><path d="M1 1h7v7h-7zM9 1h3v1h-1v1h-1v-1h-1zM14 1h1v1h-1zM18 1h2v1h-2zM23 1h1v2h-1v1h1v-1h1v2h-1v3h-1v-2h-1v-2h-2v-1h1v-1h2zM27 1h7v7h-7zM2 2v5h5v-5zM12 2h1v2h-1v5h-2v-1h1v-1h-1v1h-1v-2h1v-2h1v-1h1zM25 2h1v1h-1zM28 2v5h5v-5zM3 3h3v3h-3zM9 3h1v1h-1zM14 3h1v1h-1zM18 3h1v1h-1zM29 3h3v3h-3zM16 4h1v3h-1zM13 5h2v2h-1v2h-1zM20 5h1v2h-1zM25 6h1v4h2v-1h1v2h-1v1h-1v1h-1v1h1v-1h1v1h1v1h-1v2h1v1h-1v2h-1v1h-1v-2h1v-4h-2v2h-2v-1h1v-1h-1v-1h2v-2h1v-1h-1v1h-1v-3h1zM15 7h1v1h-1zM17 7h1v3h1v1h-2v1h-1v-1h-2v-1h3v-1h-1v-1h1zM19 7h1v1h1v-1h1v3h1v1h-2v2h1v1h-2v-4h1v-1h-2zM1 9h1v1h-1zM3 9h1v1h2v1h3v1h2v-1h1v-2h1v4h-1v2h1v-1h1v1h3v1h-2v1h2v1h1v1h1v-1h2v-2h1v3h1v1h-1v3h-1v1h1v1h-3v-1h1v-1h-1v-1h-1v1h1v1h-1v1h-2v-1h1v-2h-2v-2h1v-1h-1v-1h-1v-2h-1v1h-1v-1h-2v-2h1v-1h-3v-1h-4v-1h-1zM7 9h2v1h-2zM31 9h1v1h-1zM33 9h1v3h-1zM9 10h1v1h-1zM30 10h1v1h1v1h-1v1h-3v-1h2zM2 11h1v1h-1zM3 12h1v1h-1zM14 12h1v2h-1zM17 12h2v3h-1v-2h-1zM23 12h1v1h-1zM1 13h1v1h-1zM4 13h1v1h-1zM7 13h1v1h-1zM16 13h1v1h-1zM32 13h1v1h1v2h-1v-1h-1zM6 14h1v1h-1zM8 14h1v2h1v1h-1v1h-3v-1h2v-1h-1v-1h1zM2 15h1v2h-2v-1h1zM5 15h1v1h-1zM20 15h1v1h-1zM29 15h1v1h-1zM30 16h1v3h1v1h-1v1h-3v-1h2zM3 17h2v2h5v-2h1v2h1v3h1v1h3v1h-1v1h-1v-1h-1v1h-1v-1h-2v-1h-2v-1h3v-2h-2v1h-1v-1h-1v1h1v1h-1v1h-1v-1h-1v1h-1v-2h2v-1h-3v3h1v1h1v2h-4v-1h2v-1h-2v-1h1v-2h-1v-2h2zM25 17h1v2h-1v1h-1v-1h-1v-1h2zM32 17h1v1h-1zM12 18h2v1h-2zM33 18h1v10h-1v-2h-1v-2h1zM17 20v1h2v-1zM20 20v1h1v-1zM23 20h1v2h-1zM25 21h1v2h-1v2h-2v-1h1v-2h1zM27 21h1v1h1v1h-1v1h-1v1h3v-1h1v2h-1v1h2v1h-2v3h1v2h-2v-1h-1v-1h1v-1h-2v1h-1v-1h-2v-2h1v-1h-1v-1h1v-1h1v-2h1zM31 22h1v1h-1zM5 23h1v1h-1zM7 23h1v1h-1zM22 23h1v1h-1zM7 25h1v1h-1zM9 25h3v1h-1v1h-1v1h-1zM15 25h1v1h3v1h-1v1h1v2h-1v-1h-1v-1h-1v2h-1v-1h-2v-1h2zM20 26h3v1h-1v1h-2zM26 26v3h3v-3zM1 27h7v7h-7zM11 27h1v1h-1zM27 27h1v1h-1zM2 28v5h5v-5zM10 28h1v1h1v1h-1v1h-1zM32 28h1v1h-1zM3 29h3v3h-3zM21 29h1v1h1v1h1v1h-2v-1h-1v2h1v1h-2v-1h-1v-2h1v-1h1zM33 29h1v3h-2v-1h-1v-1h2zM12 30h3v1h-1v2h-1v-2h-1zM9 31h1v1h-1zM11 31h1v3h-1zM15 31h2v1h-2zM25 31h1v2h1v-1h1v1h1v1h-4zM9 33h1v1h-1zM16 33h2v1h-2zM33 33h1v1h-1z"/></svg>