<svg xmlns="http://www.w3.org/2000/svg" viewBox="0 0 35 35"><path d="M1 1h7v7h-7zM11 1h1v1h2v1h-1v1h1v2h-1v-1h-1v-1h-2v5h-1v-6h1v-1h1zM17 1h1v1h-1zM20 1h5v1h-5zM27 1h7v7h-7zM2 2v5h5v-5zM16 2h1v1h-1zM19 2h1v1h-1zM25 2h1v3h-1v1h-2v-2h2zM28 2v5h5v-5zM3 3h3v3h-3zM15 3h1v1h-1zM17 3h1v1h-1zM20 3h3v1h-3zM29 3h3v3h-3zM16 4h1v1h1v1h-2v5h1v2h1v1h-1v1h1v1h-1v1h2v1h-1v1h-1v-1h-1v-1h-1v-1h1v-2h-1v-1h1v-1h-1v1h-2v-1h1v-3h1v-2h-1v-1h1v-1h1zM19 4h1v1h-1zM11 5h1v3h-1zM21 5h1v1h-1zM18 6h3v1h-1v1h-1v-1h-1zM13 7h1v1h-1zM17 7h1v2h-1zM21 7h1v1h1v1h-1v1h1v1h1v1h-1v1h-1v-1h-1v-1h-1v-3h1zM23 7h1v1h-1zM25 7h1v1h-1zM12 8h1v3h-1v2h1v1h-2v-2h-1v-1h1v-1h1zM24 8h1v1h-1zM1 9h1v1h-1zM3 9h5v1h-2v1h-1v-1h-2zM10 9h1v1h-1zM18 9h1v3h2v2h-1v-1h-2v-2h-1v-1h1zM23 9h1v1h-1zM27 9h5v2h1v1h1v1h-1v1h1v1h-1v1h-1v-3h-1v3h1v1h-1v1h1v1h1v1h1v1h-1v1h-1v-1h-1v1h-2v-3h1v1h1v-1h-1v-1h-1v1h-2v-1h1v-3h2v-1h-1v-3h1v1h1v-1h-1v-1h-2v2h-1v-1h-1v-1h1zM9 10h1v1h-1zM24 10h1v1h-1zM33 10h1v1h-1zM1 11h1v1h-1zM3 11h1v1h-1zM6 11h3v1h-3zM2 12h1v1h-1zM4 12h2v1h4v1h-4v1h4v2h-1v-1h-4v-2h-1v1h-2v-1h1v-1h1zM24 12h3v2h-2v-1h-1zM23 13h1v1h1v1h-2zM10 14h1v1h-1zM14 14h1v1h-1zM19 14h1v2h-1zM27 14h1v1h-1zM11 15h1v1h-1zM21 15h1v1h1v1h-2zM2 16h1v1h-1zM12 16h1v2h1v1h1v1h-4v-1h-1v-2h1v1h1zM25 16h1v1h-1zM29 16v1h1v-1zM3 17h6v1h-2v1h1v1h-1v1h-1v-1h-1v-1h1v-1h-3zM14 17h1v1h-1zM20 17h1v1h1v1h-2v1h-1v-2h1zM23 17h1v1h-1zM26 17h1v1h-1zM33 17h1v2h-1zM1 18h2v1h-1v1h1v1h3v1h-1v1h1v1h1v1h1v1h-3v-1h-1v-3h-1v1h-1v3h-1zM15 18h1v1h-1zM24 18h1v1h-1zM3 19h1v1h-1zM9 19h1v2h-1zM16 19h1v1h-1zM22 19h1v1h1v1h-2zM15 20h1v1h-1zM20 20h1v2h2v1h1v1h-1v1h-1v3h1v1h-2v-2h-2v1h1v1h-2v1h-1v-2h-2v1h-1v-4h1v-1h-1v1h-1v-2h1v-1h4v1h-2v4h1v-1h1v-1h1v1h1v-1h-1v-1h2v-1h-1v-1h-1v-1h1zM27 20h1v1h-1zM7 21h1v1h-1zM10 21h2v1h-1v1h-2v-1h1zM26 21h1v1h-1zM24 22h1v1h-1zM27 22h1v1h2v1h2v-1h1v1h1v1h-3v1h-1v3h1v1h-1v1h-1v1h1v-1h2v2h-1v1h-8v-1h5v-1h-2v-1h-1v-2h-1v-1h-1v-1h2v-1h-2v-1h2v-1h1v1h1v-1h-1v-1h1zM33 22h1v1h-1zM7 23h2v1h1v1h-2v-1h-1zM11 24h1v2h1v2h-1v-1h-1v1h-1v-1h-1v-1h1v-1h1zM17 24h1v1h-1zM26 26v3h3v-3zM31 26h3v1h-1v1h-1v1h-1zM1 27h7v7h-7zM27 27h1v1h-1zM2 28v5h5v-5zM9 28h1v2h5v-1h1v1h1v1h1v1h-1v2h-3v-1h2v-2h-1v1h-1v-1h-3v1h-2zM11 28h1v1h-1zM33 28h1v3h-2v-1h1zM3 29h3v3h-3zM23 29h1v1h-1zM18 30h4v2h-1v-1h-1v1h1v1h-2v-2h-1zM27 30v1h1v-1zM23 31h1v1h-1zM11 32h2v1h-1v1h-1zM22 32h1v1h-1zM9 33h1v1h-1zM18 33h1v1h-1zM21 33h1v1h-1zM32 33h1v1h-1z"/></svg>