<svg xmlns="http://www.w3.org/2000/svg" viewBox="0 0 35 35"><path d="M1 1h7v7h-7zM11 1h3v1h-3zM15 1h1v1h-1zM17 1h1v1h-1zM19 1h4v1h-3v1h-1zM24 1h1v1h-1zM27 1h7v7h-7zM2 2v5h5v-5zM16 2h1v1h-1zM23 2h1v1h-1zM28 2v5h5v-5zM3 3h3v3h-3zM9 3h1v2h1v1h-1v3h-1zM12 3h1v1h-1zM15 3h1v1h-1zM17 3h1v1h-1zM20 3h3v1h-3zM25 3h1v1h-1zM29 3h3v3h-3zM11 4h1v1h-1zM16 4h1v1h2v1h-4v-1h1zM19 4h1v1h-1zM23 4h2v2h-1v-1h-1zM12 5h2v1h1v1h-1v2h-1v-3h-1zM21 5h2v1h1v4h1v1h-2v-2h-2v1h1v1h1v1h1v2h1v1h-1v1h1v3h-1v-1h-1v-1h-2v-2h1v1h1v-1h-1v-1h1v-1h-2v1h-1v-1h-2v-2h-1v-1h1v-1h1v1h1v-1h-1v-2h1v1h1v-1h1v1h1v-1h-1v-1h-1zM11 6h1v2h-1zM20 6h1v1h-1zM25 6h1v2h-1zM15 7h1v1h-1zM17 7h1v2h-1zM1 9h1v1h1v2h-1v-1h-1zM3 9h5v1h-1v1h1v-1h2v3h1v-2h1v2h2v1h-5v-1h-1v-1h-1v1h1v1h-4v1h4v-1h1v1h1v1h-3v1h-3v-1h-1v-3h2v-1h-1v-1h1v-1h-2zM10 9h2v1h-2zM14 9h2v1h-1v1h2v1h-2v1h-1v-1h-1v-1h1zM25 9h1v1h-1zM27 9h5v1h2v1h-1v1h-1v1h-1v1h-2v-3h1v1h1v-1h-1v-1h-2v1h-1zM19 11v1h2v-1zM25 11h2v1h1v1h-1v1h-1v-2h-1zM1 12h1v2h-1zM15 13h1v1h-1zM17 13h1v1h-1zM33 13h1v2h-1v1h-1v-1h-1v-1h2zM16 14h1v1h1v1h-1v1h2v1h-1v1h-1v-1h-1v1h-1v-1h-1v-1h-1v1h-2v-3h5zM19 14h1v1h-1zM27 14h1v1h-1zM1 15h1v1h1v1h-2zM25 15h2v1h3v-1h1v1h1v1h-2v1h-1v1h-1v2h-1v1h1v1h-2v-1h-1v-1h-3v-1h-1v-1h-1v-2h1v1h1v1h1v1h2v-1h1v1h1v-1h-1v-3h-1zM7 17h2v2h-1v-1h-1zM27 17v1h1v-1zM33 17h1v2h-1v2h-2v2h2v1h1v1h-4v-3h-2v-1h1v-2h1v1h1v-1h-1v-1h3zM1 18h1v1h-1zM4 18h1v1h1v-1h1v1h1v1h-1v1h-3v-1h-1v-1h1zM10 18h1v1h-1zM9 19h1v1h1v1h-3v-1h1zM13 19h1v1h-1zM16 19h1v2h-1v1h-1v1h-1v-3h2zM19 19h1v1h-1zM20 20h1v1h-1zM1 21h1v5h-1zM7 21h1v1h-1zM19 21h1v1h-1zM33 21h1v2h-1zM4 22h3v1h1v-1h5v1h-1v1h1v1h-2v-2h-2v1h1v2h1v1h1v2h-1v-1h-1v-1h-1v-1h-2v-1h1v-1h-1v1h-2v-1h1v-1h-1v1h-1zM16 22h3v1h1v1h1v-1h-1v-1h2v2h1v1h-2v1h1v1h-3v1h1v1h-2v-2h-1v-1h1v-1h1v1h1v-1h-1v-1h-1v-1h-2zM24 22h1v1h-1zM15 23h1v2h-1v1h-1v1h-1v-2h1v-1h1zM23 23h1v1h-1zM25 23h1v1h-1zM17 24h1v1h-1zM24 24h1v1h1v-1h3v1h1v4h1v1h-1v1h-1v1h1v-1h1v1h1v1h-2v1h-3v-1h1v-1h-2v-1h-1v-2h-1v-1h-1v-1h2v-1h-2v-1h1zM15 26h1v1h-1zM26 26v3h3v-3zM31 26h3v1h-1v1h-1v1h-1zM1 27h7v7h-7zM16 27h1v1h-1zM27 27h1v1h-1zM2 28v5h5v-5zM9 28h1v1h1v2h1v-2h1v2h1v-1h1v1h1v-1h1v1h1v-1h5v1h-1v1h-1v-1h-1v1h1v1h-2v-1h-2v1h2v1h-3v-1h-1v-1h-3v1h3v1h-4v-2h-2zM15 28h1v1h-1zM21 28h2v1h-2zM33 28h1v1h-1zM3 29h3v3h-3zM17 29h1v1h-1zM23 29h1v1h-1zM27 30v1h1v-1zM32 30h2v1h-2zM22 32h1v1h-1zM9 33h1v1h-1zM23 33h3v1h-3zM32 33h1v1h-1z"/></svg>