<svg xmlns="http://www.w3.org/2000/svg" viewBox="0 0 35 35"><path d="M1 1h7v7h-7zM10 1h1v1h1v1h1v-2h1v3h-3v-1h-1zM17 1h1v1h-1zM19 1h4v2h1v1h1v2h-1v-1h-1v-1h-1v-2h-2v1h-1zM24 1h1v1h-1zM27 1h7v7h-7zM2 2v5h5v-5zM16 2h1v2h-2v-1h1zM25 2h1v2h-1zM28 2v5h5v-5zM3 3h3v3h-3zM9 3h1v5h1v-1h1v1h1v-1h1v2h-1v1h-1v-1h-3zM29 3h3v3h-3zM19 4h2v1h-2zM11 5h7v1h-2v5h1v-4h1v2h1v3h1v1h-2v1h-1v1h1v1h-1v2h-1v-1h-1v3h-3v-2h-1v-1h1v-2h1v-2h1v3h-1v1h1v-1h2v-2h-1v-1h2v-1h-2v1h-1v-4h1v-3h-2v1h-1v-1h-1zM21 5h1v1h-1zM18 6h1v1h-1zM20 6h1v1h-1zM19 7h1v1h-1zM21 7h1v1h1v-1h1v2h1v-2h1v3h-1v1h-2v-2h-1v2h-2v-3h1zM1 9h1v1h1v1h2v1h-2v1h-2v-1h1v-1h-1zM3 9h5v1h-1v1h1v1h-2v-2h-3zM27 9h5v2h1v1h-1v1h-1v1h-3v-1h1v-2h1v1h1v-1h-1v-1h-2v2h-1v-1h-1v-1h1zM8 10h4v1h-1v1h1v3h-2v-1h-1v1h-1v-1h-1v-1h1v-1h1v1h1v-2h-2zM33 10h1v1h-1zM5 12h1v3h-1v-1h-1v1h1v1h-2v-3h2zM22 12h4v1h1v1h-2v1h-1v-1h-1v-1h-1zM33 12h1v3h-1v1h-1v1h-1v1h1v1h1v3h-1v-1h-1v1h-2v-3h1v1h1v-1h-1v-1h-1v1h-1v1h-3v-1h1v-1h-1v-1h2v1h1v-1h2v-1h1v-1h1v-2h1zM20 13h1v1h-1zM19 14h1v1h-1zM22 14h1v1h-1zM27 14h1v2h-1zM7 15h1v1h-1zM21 15h1v1h1v1h-2zM23 15h1v1h-1zM25 15h1v1h-1zM29 15h1v1h-1zM6 16h1v1h-1zM10 16h1v1h-1zM19 16h1v1h-1zM24 16h1v1h-1zM1 17h2v2h-1v-1h-1zM7 17h2v1h-2zM18 17h1v1h-1zM20 17h1v1h2v-1h1v1h1v1h-1v1h1v1h-3v-1h1v-1h-3v1h-1v-2h1zM33 17h1v2h-1zM5 18h2v1h2v1h1v2h-3v1h-2v2h-2v-2h1v-1h-1v1h-1v3h-1v-4h1v-2h1v-1h2v3h1v-3h-1zM13 18v1h1v-1zM17 18h1v1h-1zM10 19h1v1h-1zM16 19h1v1h-1zM7 20v1h1v-1zM15 20h1v1h-1zM20 20h1v1h-1zM12 21h2v1h-2zM19 21h1v1h-1zM26 21h1v1h-1zM14 22h1v1h1v1h-2v1h1v1h1v1h-1v4h-1v-1h-2v1h-2v1h-1v-4h1v2h1v-1h1v-1h1v-1h1v-1h-4v1h-1v-1h-4v-1h3v-1h1v-1h1v1h1v1h2v-1h-1v-1h2zM16 22h2v1h-2zM20 22h3v3h-1v3h1v1h-2v1h1v2h-1v-1h-2v1h-2v2h-1v-2h-1v-1h1v-1h1v1h1v-1h2v-1h-2v1h-1v-2h-1v-1h1v-1h1v-1h1v1h1v-2h1v-1h-1zM24 22h1v1h-1zM27 22h1v1h-1zM31 22h1v1h1v1h1v1h-3v1h-1v3h1v1h-1v1h-1v1h1v-1h2v2h-1v1h-3v-1h-1v1h-4v-1h3v-1h-1v-1h1v-1h-1v-1h-1v-1h-1v-1h2v-2h2v-1h1v-1h3zM33 22h1v1h-1zM7 23h1v1h-1zM18 23h2v1h-2zM25 23h1v1h-1zM17 24h1v1h-1zM24 24h1v1h-1zM23 25h1v1h-1zM26 26v3h3v-3zM31 26h3v1h-1v1h-1v1h-1zM1 27h7v7h-7zM19 27v1h2v-1zM27 27h1v1h-1zM2 28v5h5v-5zM33 28h1v1h-1zM3 29h3v3h-3zM23 29h1v1h-1zM32 29h1v1h1v1h-2zM24 30h1v1h-1zM27 30v1h1v-1zM12 31h1v1h-1zM10 32h2v1h-1v1h-2v-1h1zM20 32h1v1h-1zM22 32h1v1h-1zM12 33h1v1h-1zM14 33h1v1h-1zM18 33h1v1h-1zM32 33h1v1h-1z"/></svg>