<svg xmlns="http://www.w3.org/2000/svg" viewBox="0 0 35 35"><path d="M1 1h7v7h-7zM9 1h3v1h-1v2h1v1h1v2h-1v1h-1v-2h-2v-1h1v-1h-1zM14 1h1v1h1v2h1v-1h1v2h1v2h-1v2h1v2h-1v-1h-1v-1h-1v1h1v2h-1v-1h-1v3h-1v-1h-1v-2h-1v-1h1v-3h1v1h1v-1h1v1h1v-1h-1v-2h-1v-1h-1v-1h-1v-1h1zM18 1h2v1h1v1h2v2h-2v-1h-1v-1h-1v-1h-1zM22 1h2v2h-1v-1h-1zM27 1h7v7h-7zM2 2v5h5v-5zM28 2v5h5v-5zM3 3h3v3h-3zM24 3h1v1h-1zM29 3h3v3h-3zM13 4h1v1h-1zM19 4h1v1h-1zM25 4h1v1h-1zM14 5h1v2h-1zM23 5h1v1h1v1h-1v1h-1zM20 6h1v1h-1zM9 7h1v1h-1zM19 7h1v1h-1zM21 7h1v1h-1zM25 7h1v1h-1zM10 8h1v1h-1zM24 8h1v3h1v-2h1v2h1v1h-1v1h-1v1h-1v1h-2v-1h1v-1h1v-1h-1v1h-1v-1h-2v-1h3zM1 9h1v1h-1zM4 9h6v2h-1v-1h-4v1h3v1h-1v1h2v3h-2v-1h1v-1h-1v1h-2v-1h1v-2h-1v1h-2v-1h1zM14 9v1h1v-1zM29 9h1v1h1v-1h3v1h-1v1h1v1h-1v1h-2v-1h-2v-1h-1v-1h1zM20 10h1v1h-1zM2 11h1v1h-1zM10 11h1v4h-1v-2h-1v-1h1zM1 12h1v1h1v1h-1v1h-1zM17 12h1v1h-1zM19 12h1v1h-1zM28 12h1v1h-1zM16 13h1v1h-1zM18 13h1v1h-1zM20 13h2v3h-2v-1h-1v-1h1zM27 13h1v1h-1zM3 14h1v1h1v1h-2v1h-1v1h-1v-2h1v-1h1zM15 14h1v1h1v1h-2zM28 14h1v1h-1zM31 14h1v1h-1zM12 15h2v1h1v1h-2v-1h-1zM18 15h1v1h-1zM25 15h2v2h2v-2h1v1h2v1h-1v1h-1v1h-1v-1h-1v1h-1v1h3v-1h1v-1h1v3h-1v2h3v3h-2v-1h-1v-1h-1v1h1v1h-1v4h-3v1h-1v-1h-1v1h-2v-3h1v-1h-2v-1h3v-2h-1v1h-1v-1h-1v-1h1v-3h1v-1h2v-1h-1v-1h1v-1h-1zM9 16h1v1h1v1h1v1h-1v1h1v1h1v3h-1v-1h-1v2h-1v-1h-5v-1h3v-1h1v1h1v-1h1v-1h-1v1h-1v-2h-2v-1h3v-1h-3v-1h2zM17 16h1v2h-1v1h1v-1h2v-1h1v1h1v2h-1v3h-1v-1h-1v-1h1v-1h-2v2h-2v-1h-1v1h-1v-2h2v-3h1zM19 16h1v1h-1zM24 16h1v1h-1zM33 16h1v1h-1zM4 17h2v1h1v1h-1v1h-1v-2h-1zM23 17h1v2h-1zM2 18h2v2h1v1h-1v1h-1v-2h-2v-1h1zM33 18h1v3h-1zM12 19h1v1h-1zM6 20h1v1h1v1h-2zM25 20v1h-1v1h1v1h1v2h1v-2h1v1h1v-1h-1v-1h2v-1h-4v-1zM1 21h1v1h1v1h-1v2h1v-2h1v1h1v1h1v1h-5zM25 21h1v1h-1zM32 21h1v1h-1zM15 22h1v2h-1v1h1v1h-1v1h-2v1h-1v-2h2v-3h1zM18 23h1v2h-1zM16 24h1v1h-1zM20 24h2v2h-1v-1h-1zM7 25h3v1h1v2h-1v1h1v1h2v-2h1v1h1v2h2v1h-3v-1h-3v1h-1v-1h-1v-5h-2zM11 25h1v1h-1zM17 25h1v1h1v2h1v-1h1v1h1v3h-1v1h-3v-1h1v-1h2v-1h-2v1h-1v1h-1v-2h1v-1h-1v1h-2v-1h1v-2h1zM26 26v3h3v-3zM31 26h1v2h2v5h-5v-1h-1v-1h2v-1h1v1h1v-1h1v-1h-2zM1 27h7v7h-7zM27 27h1v1h-1zM2 28v5h5v-5zM3 29h3v3h-3zM22 31h1v1h-1zM25 31h1v1h-1zM11 32h2v1h-2zM21 32h1v2h-2v-1h1zM23 32h1v1h-1zM26 32h1v1h-1zM9 33h2v1h-2zM16 33h3v1h-3zM24 33h2v1h-2zM28 33h1v1h-1z"/></svg>