<svg xmlns="http://www.w3.org/2000/svg" viewBox="0 0 35 35"><path d="M1 1h7v7h-7zM10 1h2v1h1v-1h1v2h-1v1h-3v1h3v-1h1v2h1v1h-1v1h-1v-1h-1v1h1v1h-2v-3h-1v3h-1v-6h1zM15 1h1v1h-1zM17 1h1v3h-1v1h1v1h-3v-1h1v-1h-1v-1h1v-1h1zM20 1h2v2h-1v-1h-1zM24 1h1v1h-1zM27 1h7v7h-7zM2 2v5h5v-5zM19 2h1v1h-1zM23 2h1v3h-1v-1h-1v-1h1zM28 2v5h5v-5zM3 3h3v3h-3zM25 3h1v2h-1zM29 3h3v3h-3zM19 4h1v1h-1zM21 5h1v1h-1zM24 5h1v1h-1zM18 6h1v1h-1zM20 6h1v1h-1zM22 6h1v1h-1zM25 6h1v2h-1zM15 7h1v3h-1v1h2v-4h1v2h1v1h1v-1h-1v-2h1v1h1v-1h1v1h1v1h-1v2h-3v1h1v1h-2v1h-1v1h2v-1h1v2h-3v2h-1v-1h-1v-1h1v-2h-1v-1h1v-1h-1v1h-1v1h-3v-1h-1v-1h-1v-2h4v1h-2v1h2v-1h1v-1h-1v-1h2zM23 7h1v1h-1zM24 8h1v1h-1zM1 9h1v1h-1zM3 9h5v1h-1v1h1v1h-3v-1h1v-1h-2v2h1v1h-3v-1h1zM23 9h1v1h-1zM25 9h1v1h-1zM27 9h5v2h1v1h-1v1h-1v1h-3v-1h1v-2h1v1h1v-1h-1v-1h-2v3h-1v1h-2v-1h1v-1h1zM24 10h1v1h-1zM33 10h1v1h-1zM23 11h1v1h1v1h-1v1h1v1h-1v1h1v1h-1v1h1v1h-1v2h-2v-1h1v-1h-3v1h-1v-2h1v-1h1v-2h2v-2h-2v-1h2zM25 11h1v1h-1zM8 12h1v1h-1zM33 12h1v1h-1zM1 13h1v1h2v1h-2v1h1v1h-2zM6 13h2v1h-1v1h1v1h-4v-1h2zM9 13h1v1h1v1h-3v-1h1zM27 14h1v1h4v-1h2v1h-1v1h-1v1h-2v-1h-1v1h1v1h-1v1h-2v-1h1v-2h-1v2h-2v-1h1v-1h-1v-1h2zM11 15h1v2h-2v1h-1v-1h-1v-1h3zM13 15h2v1h-2zM4 17h1v1h-1zM7 17h1v1h-1zM18 17h1v1h-1zM22 17v1h1v-1zM33 17h1v2h-1zM2 18h2v1h-1v1h-1zM5 18h1v2h-1zM8 18h1v1h-1zM10 18h1v1h-1zM14 18h1v2h-2v-1h1zM17 18h1v2h-1v1h-1v-2h1zM30 18h2v1h1v2h-2v1h-3v-1h1v-2h1v1h1v-1h-1zM7 19h1v1h-1zM9 19h1v1h1v1h-2v1h-2v-1h1v-1h1zM25 19h2v1h1v1h-1v1h-1v-1h-1zM3 20h2v1h-2zM6 20h1v1h-1zM12 20h1v1h-1zM20 20h1v2h2v1h1v3h-1v-1h-1v2h-2v-3h1v-1h-1v-1h-1v-1h1zM24 21h1v2h-1zM1 22h2v1h-1v3h-1zM6 22h1v1h-1zM9 22h1v1h-1zM11 22h1v3h-1v3h1v1h-1v1h1v1h-1v1h-2v-4h1v-1h-1v-1h1v-2h1zM14 22h1v1h1v1h-1v1h-1v-1h-1v-1h1zM16 22h3v1h1v1h-2v-1h-2zM27 22h1v2h-3v-1h2zM33 22h1v1h-1zM3 23h1v1h3v1h-1v1h-3zM7 23h1v1h-1zM30 23h3v1h1v1h-4zM8 24h1v1h-1zM17 24h1v1h1v3h1v1h-2v1h-1v1h2v1h-2v2h-1v-1h-3v-1h-1v-1h1v-1h1v-2h1v-1h-1v-1h1v-1h1v2h1v1h1v-1h-1zM7 25h1v1h-1zM12 25h2v1h-2zM25 25h5v4h1v1h-1v1h-1v1h2v-1h1v2h-1v1h-3v-1h-2v-3h-1v-1h-1v-1h-1v-1h1v-1h1zM26 26v3h3v-3zM31 26h3v1h-1v1h-1v1h-1zM1 27h7v7h-7zM12 27h2v1h-2zM27 27h1v1h-1zM2 28v5h5v-5zM21 28h2v1h-2zM3 29h3v3h-3zM12 29h1v1h-1zM23 29h1v1h-1zM32 29h2v2h-2zM19 30h3v2h-1v-1h-2zM27 30v1h1v-1zM14 31v1h2v-1zM11 32h1v2h-3v-1h2zM20 32h1v1h-1zM22 32h2v1h2v1h-3v-1h-1zM18 33h1v1h-1zM32 33h1v1h-1z"/></svg>