<svg xmlns="http://www.w3.org/2000/svg" viewBox="0 0 35 35"><path d="M1 1h7v7h-7zM9 1h1v2h-1zM13 1h1v2h-2v-1h1zM17 1h1v1h-1zM20 1h2v1h-2zM24 1h1v2h1v3h-1v-2h-1v1h-1v-3h1zM27 1h7v7h-7zM2 2v5h5v-5zM15 2h1v1h2v1h-1v1h-1v-1h-2v-1h1zM18 2h1v1h-1zM28 2v5h5v-5zM3 3h3v3h-3zM11 3h1v1h-1zM19 3h3v1h-2v4h1v1h-1v1h2v-1h1v1h1v-2h1v-1h1v3h-1v1h1v1h-1v1h-1v-2h-2v2h-1v-2h-1v1h-1v-1h-2v-1h-2v-4h2v-1h2zM29 3h3v3h-3zM9 4h1v1h-1zM13 4h1v1h-1zM11 5h1v1h1v1h-1v1h1v-1h1v2h-2v2h-1v-1h-1v-1h-1v-2h1v1h1zM18 6v2h1v-2zM16 7v1h1v-1zM21 7h1v1h-1zM23 7h1v1h-1zM1 9h1v1h-1zM3 9h2v1h-1v1h1v1h-3v-2h1zM6 9h3v1h1v1h1v2h1v1h-3v-3h-1v-1h-1v1h1v1h-1v1h-1v2h-2v-1h1v-2h1v-1h-1v-1h1zM27 9h1v2h2v-2h1v1h1v-1h2v4h-1v-1h-1v-1h-1v3h2v1h-1v3h-1v1h-1v2h-2v-1h1v-3h-1v-4h-1v3h-1v-1h-1v-2h1v-1h1v-1h-1v-1h1zM13 10h2v2h-2zM1 12h1v1h-1zM12 12h1v1h-1zM16 12h1v1h-1zM18 12h1v1h-1zM29 12v1h1v-1zM3 13h1v1h-1zM7 13h1v1h-1zM15 13h1v2h-1zM17 13h1v1h-1zM23 13h1v1h-1zM8 14h1v2h-2v1h2v1h1v-1h2v2h1v-1h1v2h1v2h-1v4h1v1h-4v-1h-1v-1h-1v1h-3v-2h1v1h1v-1h-1v-1h2v1h2v-1h1v1h1v-2h-1v-1h1v-1h-1v1h-1v-1h-1v3h-1v-1h-3v-1h2v-1h-1v-1h1v-1h-2v-3h2zM12 14h1v2h-1zM21 14h1v2h1v1h1v-1h2v1h2v2h-1v-1h-1v1h1v2h-1v1h-1v-3h-1v-1h-1v2h-1v-1h-1v-1h1v-1h-1v-1h-2v-1h2zM29 14v2h2v-1h-1v-1zM3 15h1v2h1v1h-1v1h1v-1h1v3h-1v-1h-3v-1h1v-1h-1v-1h1zM14 15h1v1h2v1h-1v1h-1v-1h-2v-1h1zM23 15h1v1h-1zM1 16h1v1h-1zM19 17h2v1h-1v2h2v1h-1v1h1v-1h1v-1h1v2h-1v1h-3v-2h-2v2h-1v2h-1v1h-1v-4h2v-2h2zM1 18h1v1h-1zM16 18h1v2h-2v-1h1zM32 18h2v1h-1v1h-2v-1h1zM1 21h4v1h1v1h-1v3h-2v-1h1v-3h-1v1h-2zM30 21h2v2h1v-1h1v3h-1v-1h-2v-2h-1zM24 22h1v1h1v1h-2v2h-1v-3h1zM27 22h1v1h2v1h1v1h-1v1h1v1h-1v3h-4v1h-1v-1h-1v1h-2v2h1v1h-5v-2h1v1h1v-1h1v-2h-3v2h-2v-1h1v-1h-1v-2h1v1h1v-2h2v-2h1v-1h1v2h-1v3h1v-3h1v3h1v-2h1v-2h1v-1h1zM2 24h1v1h-1zM28 24v1h1v-1zM1 25h1v1h-1zM18 25h1v1h-1zM9 26h1v3h-1zM16 26h2v1h-2zM26 26v3h3v-3zM1 27h7v7h-7zM27 27h1v1h-1zM2 28v5h5v-5zM11 28h2v4h1v-1h1v2h1v1h-2v-1h-1v1h-1v-3h-2v1h-1v-2h1v-1h1v1h1v-1h-1zM31 28h1v4h-2v-2h1zM3 29h3v3h-3zM15 30h1v1h-1zM33 30h1v1h-1zM24 31h1v1h2v-1h2v1h-1v1h-1v1h-1v-1h-1v1h-1zM10 32h1v2h-2v-1h1zM29 32h1v1h-1zM33 32h1v1h-1zM30 33h2v1h-2z"/></svg>