<svg xmlns="http://www.w3.org/2000/svg" viewBox="0 0 35 35"><path d="M1 1h7v7h-7zM10 1h1v1h1v1h2v1h-1v1h-3v4h-1v-6h1zM12 1h2v1h-2zM17 1h1v1h-1zM20 1h5v1h-1v1h-1v-1h-3zM27 1h7v7h-7zM2 2v5h5v-5zM16 2h1v2h-2v-1h1zM19 2h1v1h-1zM28 2v5h5v-5zM3 3h3v3h-3zM20 3h1v2h-2v-1h1zM22 3h1v1h-1zM29 3h3v3h-3zM23 4h1v1h-1zM25 4h1v1h-1zM13 5h1v1h1v1h-1v1h-1zM15 5h3v1h-3zM21 5h2v1h1v4h-1v-1h-1v2h1v1h1v1h1v2h-1v-1h-1v-1h-2v-2h-1v-3h1v-1h1v1h1v-1h-1v-1h-1zM24 5h1v1h-1zM11 6h1v2h1v1h2v-2h1v3h-1v1h2v2h-1v-1h-1v1h-1v-2h-2v-1h-1zM18 6h3v1h-1v1h-1v-1h-1zM25 6h1v3h-1zM17 7h1v2h-1zM1 9h1v1h-1zM3 9h5v1h-1v1h5v1h-1v1h-1v-1h-1v2h3v1h2v2h-1v1h1v1h-3v-1h1v-2h-1v1h-1v-1h-1v1h-1v-1h-1v-1h1v-1h-2v-4h-1v2h-1v-1h-1v1h-1v-2h1zM18 9h1v3h1v1h-2v-2h-1v-1h1zM27 9h5v1h2v1h-1v1h-1v1h-1v1h-3v-1h1v-2h1v1h1v-1h-1v-1h-2v2h-2v1h-1v-2h2zM24 10h1v1h-1zM1 12h1v2h-1zM7 12v1h1v-1zM12 12h1v2h-1zM33 12h1v1h-1zM4 13h1v2h-1zM15 13h1v1h-1zM17 13h1v1h-1zM26 13h1v1h-1zM32 13h1v1h1v1h-1v1h-1v1h-2v-1h1v-1h1zM16 14h1v1h1v1h-1v2h-1zM19 14h1v1h-1zM22 14h1v2h1v2h-1v-1h-1v1h1v1h1v1h-1v1h-2v-2h-1v-2h1v-2h1zM27 14h1v1h-1zM3 15h1v1h1v1h-2zM26 15h1v1h-1zM28 15h2v1h-1v1h1v1h-1v1h-1v1h-1v2h1v2h-1v-1h-1v-4h1v-1h1v-1h-1v-1h1zM1 16h1v1h-1zM19 16h1v1h-1zM2 17h1v2h-1zM5 17h1v1h-1zM7 17h1v1h-1zM14 17h1v1h-1zM18 17h1v1h-1zM26 17h1v1h-1zM33 17h1v2h-1zM6 18h1v1h3v5h-5v-2h2v1h2v-1h-2v-1h1v-1h-1v1h-2v-1h1zM17 18h1v1h-1zM24 18h1v1h-1zM30 18h2v1h1v1h-1v1h-1v1h1v1h1v1h1v1h-4v-1h-1v-1h1v-1h-1v-3h1v1h1v-1h-1zM1 19h1v1h1v-1h1v2h-1v1h-1v-1h-1zM16 19h1v1h1v1h-3v-1h1zM19 19h1v1h-1zM11 20h2v1h-1v1h1v1h-1v1h-1zM33 20h1v3h-1v-1h-1v-1h1zM4 21h1v1h-1zM19 21h1v1h-1zM1 22h1v4h-1zM3 22h1v1h-1zM14 22h5v1h-5zM20 22h2v1h1v2h-2v1h1v1h-2v-3h1v-1h-1zM24 22h1v1h-1zM19 23h1v1h-1zM3 24h2v2h-2zM10 24h1v1h-1zM17 24h1v1h-1zM26 24h1v1h3v4h1v1h2v-1h1v2h-5v1h3v1h-1v1h-4v-1h1v-1h-1v-1h1v-1h-1v1h-1v-1h-1v-1h-1v-1h-1v-1h1v-1h1v-1h1zM6 25h4v2h-1v-1h-3zM12 25h1v3h-1v3h-1v-1h-1v2h-1v-4h1v-1h2zM18 25h1v3h2v2h2v1h-1v1h-1v-1h-2v-1h1v-1h-2v-1h-1v1h1v1h-1v1h2v1h-2v1h2v1h-4v-1h1v-3h-1v-1h1v-1h-1v1h-1v2h1v1h-3v-1h1v-3h1v-2h2v1h1v-1h1zM23 25h1v1h-1zM26 26v3h3v-3zM31 26h1v1h1v1h-1v1h-1zM33 26h1v1h-1zM1 27h7v7h-7zM27 27h1v1h-1zM2 28v5h5v-5zM22 28h1v1h-1zM3 29h3v3h-3zM23 29h1v1h-1zM23 31h1v1h-1zM11 32h1v1h-1zM20 32h1v1h-1zM22 32h1v1h-1zM9 33h1v1h-1zM13 33h1v1h-1zM23 33h3v1h-3zM32 33h1v1h-1z"/></svg>