<svg xmlns="http://www.w3.org/2000/svg" viewBox="0 0 35 35"><path d="M1 1h7v7h-7zM9 1h2v2h1v-2h1v4h2v1h-2v1h-1v1h-1v-1h-1v1h1v1h-1v1h-1v1h-1v-1h-1v-1h2v-5h1v-2h-1zM14 1h4v2h1v-1h3v1h3v-1h1v3h-1v1h-1v-2h-5v1h-1v1h-1v-1h-1v-1h1v-2h-1v2h-1v-1h-1zM23 1h2v1h-2zM27 1h7v7h-7zM2 2v5h5v-5zM28 2v5h5v-5zM3 3h3v3h-3zM29 3h3v3h-3zM11 4v1h-1v1h1v-1h1v-1zM20 5h1v1h-1zM16 6h1v1h-1zM19 6h1v2h-1zM21 6h1v2h1v1h2v3h-1v-2h-1v1h-1v-1h-1v-1h-1v-1h1zM25 6h1v3h-1zM13 7h1v1h-1zM15 7h1v2h-1zM17 7h1v1h-1zM23 7h1v1h-1zM18 8h1v2h1v2h-1v-1h-1v3h-1v-2h-2v2h-1v-1h-1v1h1v2h-1v-1h-1v-3h1v-3h1v2h2v-2h1v1h1zM1 9h1v1h3v-1h1v1h1v1h1v1h-1v1h1v1h-1v1h1v1h-1v1h1v1h-1v1h-1v-2h-2v-2h2v-1h-2v-3h-1v3h-1v-3h-1zM26 9h5v1h1v1h-1v1h-1v-2h-1v1h-1v-1h-2zM33 9h1v1h-1zM10 10h2v1h-1v1h-1zM5 11v1h1v-1zM32 11h1v1h1v2h-2zM9 12h1v1h-1zM20 12h4v1h1v-1h3v1h3v1h-2v2h1v2h-1v-1h-1v-3h-1v-1h-1v1h-1v2h-1v-2h-2v2h2v2h1v1h1v-1h1v2h-1v2h-1v-2h-1v1h-1v1h-4v-1h-1v-1h-1v1h-1v-3h1v-1h-1v-2h1v1h2v2h-1v1h1v1h2v1h1v-4h-1v-2h-1v1h-1v-2h1zM3 14h1v1h-1zM10 14h1v1h-1zM15 14h1v1h-1zM31 14h1v1h1v1h-3v-1h1zM1 15h2v1h-2zM9 15h1v1h-1zM8 16h1v1h-1zM10 16h1v1h1v-1h1v2h1v1h-1v1h-1v1h-1v1h1v2h2v1h-1v1h-1v-1h-1v3h1v-1h1v1h1v1h1v2h-2v-2h-2v1h-2v-1h1v-1h-1v-2h1v-2h1v-1h-1v1h-1v-1h-1v-1h2v-1h-1v-2h1v1h1v-1h-1zM25 16h1v2h-1zM14 17h2v1h-2zM27 17h1v1h-1zM32 17h1v1h-1zM1 18h2v1h-1v2h-1zM4 18h1v3h-1zM8 18h1v1h-1zM19 18h1v1h-1zM30 18h2v1h-1v1h-1zM7 19h1v1h-1zM14 19h1v2h1v1h-1v1h-1zM32 19h1v1h-1zM27 20h1v2h-1zM2 21h2v1h1v1h1v1h-1v2h-1v-2h-1v-1h-2v-1h1zM6 21h2v1h-1v1h-1zM29 21h2v1h1v-1h1v3h1v2h-1v2h-1v-1h-1v-1h1v-3h-2v-1h-1zM17 22h1v2h-1zM24 22h1v1h1v1h-2v2h-1v1h-1v-2h-2v-1h1v-1h3zM26 22h1v1h-1zM28 22h1v1h-1zM7 23h1v1h-1zM19 23h1v1h-1zM27 23h1v1h-1zM29 23h1v2h1v1h-1v1h1v3h-1v2h-1v1h-1v-1h-1v-2h-2v-5h1v-1h1v1h2zM6 24h1v1h1v-1h1v2h-3zM15 24h1v1h1v1h1v-2h1v2h1v2h-1v-1h-2v1h1v2h-2v-2h-1zM1 25h2v1h-2zM13 26h1v1h-1zM26 26v3h3v-3zM1 27h7v7h-7zM21 27h1v1h-1zM27 27h1v1h-1zM2 28v5h5v-5zM20 28h1v1h1v-1h2v2h-4zM3 29h3v3h-3zM32 29h1v1h-1zM11 30h1v1h1v1h-1v2h-3v-1h1v-1h1zM18 30h2v1h-1v3h-2v-1h-1v-1h-1v-1h2v1h1zM24 30h1v1h-1zM28 30v1h1v-1zM31 30h1v2h-1zM21 31h1v1h-1zM13 32h2v1h1v1h-3zM20 32h1v2h-1zM22 32h1v1h2v-1h1v2h-4zM29 33h2v1h-2zM33 33h1v1h-1z"/></svg>