<svg xmlns="http://www.w3.org/2000/svg" viewBox="0 0 35 35"><path d="M1 1h7v7h-7zM10 1h1v2h1v2h1v1h-2v-1h-1v1h1v1h-1v1h1v1h5v1h-1v1h2v1h-2v1h-3v1h2v6h2v1h-3v-2h-1v-2h1v-1h-1v-1h-2v-2h1v-1h-2v-1h1v-2h-1v-6h1zM17 1h1v2h-1v1h-2v-1h1v-1h1zM19 1h3v1h1v2h-2v1h-2v-1h1v-1h1v-1h-1v1h-1zM24 1h1v1h-1zM27 1h7v7h-7zM2 2v5h5v-5zM12 2h2v1h-2zM28 2v5h5v-5zM3 3h3v3h-3zM29 3h3v3h-3zM13 4h1v1h-1zM23 4h1v1h1v1h-1v2h-1v-2h-2v-1h2zM25 4h1v1h-1zM15 5h3v1h-2v2h-1v-1h-1v-1h1zM20 6h1v1h-1zM11 7h1v1h-1zM13 7h1v1h-1zM17 7h1v2h1v1h1v-1h-1v-2h1v1h1v-1h1v1h1v1h-2v1h2v-1h1v1h1v1h-1v1h1v3h-1v-1h-1v-1h-1v-1h1v-1h-1v1h-1v-1h-2v1h1v1h-2v-2h-1zM25 7h1v1h-1zM1 9h1v2h1v-2h5v1h-1v1h1v1h-1v1h-1v-1h-2v1h2v2h2v1h-3v-2h-1v2h-1v-1h-1v-1h1v-1h-1v1h-1zM25 9h1v1h-1zM27 9h5v2h1v1h-1v1h-1v1h-3v-1h1v-2h1v1h1v-1h-1v-1h-2v1h-2v-1h1zM4 10v1h1v-1zM8 10h1v1h-1zM11 10v1h1v1h2v-2h-1v1h-1v-1zM33 10h1v1h-1zM25 11h1v1h-1zM8 12h1v2h-2v-1h1zM27 12h1v1h-1zM15 13h3v1h-1v1h2v-1h1v2h-3v1h2v1h-1v1h-1v-1h-1v-1h-1v-1h1v-2h-1zM20 13h1v1h-1zM26 13h1v1h-1zM32 13h2v2h-1v1h-1v-1h-1v-1h1zM22 14h1v1h1v1h-1v1h-2v-2h1zM27 14h1v1h-1zM26 15h1v3h-2v-1h-1v-1h2zM30 15h1v1h1v1h-1v1h1v1h1v3h-1v-1h-1v1h1v1h-1v1h1v-1h1v1h1v1h-4v-1h-3v-1h-1v-1h-1v1h-1v-2h-2v-1h3v-1h1v2h1v1h1v1h2v-1h-2v-1h1v-2h1v1h1v-1h-1v-1h-1v1h-1v1h-1v-2h1v-1h2zM4 16h1v1h-1zM8 16h1v2h-2v-1h1zM11 16h1v1h-1zM2 17h2v3h-1v-2h-1zM5 17h1v2h-1zM20 17h1v1h1v2h-1v-1h-1v1h-1v-2h1zM23 17h1v1h-1zM33 17h1v2h-1zM1 18h1v2h-1zM9 18h2v3h-2zM15 18h1v1h-1zM24 18h1v1h-1zM6 19h2v1h-1v1h1v1h-2v-1h-2v-1h2zM16 19h1v1h-1zM20 20h1v1h-1zM2 21h1v1h-1zM16 21h1v1h2v1h-3zM19 21h1v1h-1zM1 22h1v4h-1zM3 22h1v1h-1zM5 22h1v1h-1zM8 22h3v3h-1v-2h-2zM12 22h1v1h-1zM14 22h1v1h1v2h-1v-1h-1zM20 22h2v2h1v1h-1v3h-1v-1h-1v-2h-1v-2h1v1h1v-1h-1zM33 22h1v1h-1zM4 23h1v1h1v1h-1v1h-1zM6 23h2v1h-2zM25 23h1v1h-1zM8 24h1v2h-2v-1h1zM17 24h1v1h1v3h2v1h-3v-2h-1zM26 24h1v1h3v4h1v1h1v-1h1v1h1v1h-3v1h1v1h-2v1h-2v-2h-1v-1h1v-1h-1v1h-1v1h-3v-1h2v-2h-1v-1h-1v-1h1v-1h1v-1h1zM12 25h1v1h1v-1h1v3h-1v2h-1v2h-2v-1h-1v1h-1v-4h1v1h1v1h1v-2h1v-1h-1zM23 25h1v1h-1zM9 26h1v1h-1zM26 26v3h3v-3zM31 26h3v1h-1v1h-1v1h-1zM1 27h7v7h-7zM10 27h2v1h-2zM16 27h1v2h1v1h-1v1h1v1h-1v1h2v1h-4v-1h1v-2h-1v-2h1zM27 27h1v1h-1zM2 28v5h5v-5zM22 28h1v1h-1zM33 28h1v1h-1zM3 29h3v3h-3zM23 29h1v1h-1zM19 30h4v1h-1v1h-1v-1h-1v1h-1zM14 31h1v2h-1zM29 31v1h1v-1zM20 32h1v1h-1zM22 32h1v1h-1zM26 32h1v2h-4v-1h3zM9 33h1v1h-1zM12 33h1v1h-1zM21 33h1v1h-1zM32 33h1v1h-1z"/></svg>