<svg xmlns="http://www.w3.org/2000/svg" viewBox="0 0 35 35"><path d="M1 1h7v7h-7zM10 1h1v1h2v1h1v2h-3v-1h1v-1h-1v1h-1v1h1v1h-1v3h-1v-6h1zM13 1h1v1h-1zM15 1h1v1h-1zM17 1h1v1h-1zM20 1h2v1h1v2h-2v-2h-1zM24 1h1v1h-1zM27 1h7v7h-7zM2 2v5h5v-5zM16 2h1v1h-1zM19 2h1v1h-1zM28 2v5h5v-5zM3 3h3v3h-3zM15 3h1v1h-1zM24 3h2v1h-1v2h-1v-1h-1v-1h1zM29 3h3v3h-3zM19 4h1v1h-1zM15 5h3v1h-2v5h1v-4h1v2h1v3h1v1h-2v1h-1v-2h-2v1h-1v-1h-1v1h-1v-2h1v-2h2zM21 5h1v1h-1zM12 6h2v2h-1v-1h-1zM19 6h2v1h-1v1h-1zM11 7h1v1h-1zM21 7h1v1h1v1h-1v1h1v-1h1v1h1v1h-5v-3h1zM23 7h1v1h-1zM25 7h1v3h-1zM1 9h1v1h1v1h-2zM3 9h5v1h-3v1h-1v-1h-1zM27 9h5v2h1v1h1v1h-3v2h-1v-1h-2v-1h1v-2h1v1h1v-1h-1v-1h-2v2h-1v-1h-1v-1h1zM33 10h1v1h-1zM6 11h2v1h-2zM25 11h1v1h1v2h1v1h-1v1h1v1h-1v1h-1v-1h-1v2h-1v-1h-1v-1h-2v-2h1v-1h1v1h1v1h2v-2h-1v1h-1v-1h-1v-1h1v-1h1zM1 12h5v1h2v1h-1v1h-1v2h-3v-1h2v-3h-2v1h1v1h-3zM9 12h1v1h-1zM21 12h2v1h-2zM10 13h1v1h-1zM15 13h1v1h-1zM20 13h1v1h-1zM8 14h2v1h-1v1h3v-1h1v1h1v-1h-1v-1h2v1h1v-1h1v1h1v1h-1v2h-1v-2h-1v1h-3v1h1v1h-1v2h-1v-2h-2v-1h1v-1h-1v1h-2v-1h1v-1h-1v-1h1zM18 14h2v3h-1v-2h-1zM32 14h2v1h-1v1h-1zM28 15h2v1h2v1h-2v1h-1v1h-1v1h-1v-2h1v-1h1v-1h-1zM1 16h1v2h-1zM18 17h1v1h-1zM20 17h1v1h2v1h-3zM33 17h1v2h-1zM2 18h3v1h-1v2h1v-2h4v1h-3v1h2v1h-1v1h-1v-1h-1v1h-1v-1h-1v-1h-1v1h1v1h-1v3h-1v-6h1zM14 18h1v1h-1zM17 18h1v1h-1zM30 18h2v1h1v1h1v1h-1v1h-1v-1h-1v1h1v1h-2v-1h-2v-1h1v-2h1v1h1v-1h-1zM16 19h1v1h-1zM19 19h1v1h-1zM9 20h1v1h1v1h-2zM15 20h1v1h-1zM17 20h1v1h-1zM20 20h1v2h2v1h-1v1h1v1h-1v2h-3v1h1v1h-2v-2h-1v-1h1v-1h1v1h1v-1h-1v-1h-1v-1h2v1h1v-1h-1v-1h-1v-1h1zM22 20h1v1h-1zM24 20h3v2h-2v-1h-1zM13 21h1v1h1v1h1v3h-3v-1h2v-1h-1v-1h-1v1h-1v3h-1v-3h-1v-1h2v-1h1zM8 22h1v2h-2v-1h1zM16 22h2v1h-2zM24 22h1v1h-1zM27 22h1v1h2v1h-4v-1h1zM33 22h1v1h-1zM32 23h1v1h1v1h-3v1h-1v3h1v1h1v-1h1v1h1v1h-5v1h3v1h-1v1h-4v-1h1v-1h-3v-1h-1v-1h1v-1h-1v-1h-1v-3h1v-1h2v1h4v-1h2zM3 24h4v1h3v2h-1v-1h-6zM17 24h1v1h-1zM24 26v1h1v-1zM26 26v3h3v-3zM31 26h3v1h-1v1h-1v1h-1zM1 27h7v7h-7zM10 27h1v2h2v1h2v2h-1v-1h-1v2h3v-3h1v1h1v-1h5v1h1v1h-1v1h-1v-1h-1v-1h-2v1h-2v1h2v1h-7v-1h-1v-1h1v-2h-2v1h1v1h-2v-4h1zM13 27h1v2h-1zM15 27h2v1h-2zM27 27h1v1h-1zM2 28v5h5v-5zM21 28h2v1h-2zM33 28h1v1h-1zM3 29h3v3h-3zM15 29h1v1h-1zM17 29h1v1h-1zM23 29h1v1h-1zM27 30v1h1v-1zM20 32h1v1h-1zM9 33h1v1h-1zM23 33h3v1h-3zM32 33h1v1h-1z"/></svg>