<svg xmlns="http://www.w3.org/2000/svg" viewBox="0 0 35 35"><path d="M1 1h7v7h-7zM13 1h3v1h-2v1h-1zM18 1h1v1h-1zM23 1h1v1h-1zM27 1h7v7h-7zM2 2v5h5v-5zM9 2h2v1h-1v1h2v1h1v1h1v2h-1v-1h-1v-1h-1v1h-1v-2h-1zM19 2h1v1h-1zM25 2h1v2h-1zM28 2v5h5v-5zM3 3h3v3h-3zM12 3h1v1h-1zM15 3h1v1h2v1h1v1h-2v1h-1v-1h-2v-1h1zM20 3h1v1h-1zM22 3h1v3h-2v-2h1zM29 3h3v3h-3zM19 4h1v1h-1zM24 5h1v1h-1zM19 6h2v1h-1v1h-1zM23 6h1v2h-1zM25 6h1v2h-1zM9 7h1v1h1v-1h1v1h1v1h-3v1h-1zM15 7h1v1h1v-1h1v2h-2v1h1v1h1v-2h1v1h1v-2h1v-1h1v3h-1v1h-2v1h2v1h1v1h-2v-1h-1v1h-1v-1h-1v-1h-2v3h4v-1h1v3h-1v-1h-1v1h-1v-1h-3v-3h-2v1h1v1h-3v-1h1v-2h2v-2h1v-1h1zM1 9h1v1h-1zM7 9h1v1h-1zM23 9h2v2h-1v-1h-1zM26 9h2v1h-2zM30 9h3v1h-1v1h1v2h-4v2h1v1h2v1h-2v1h-2v-1h1v-1h-1v-1h-1v1h1v1h-1v1h-1v-1h-1v2h2v1h-1v1h-1v2h-3v-1h2v-1h-1v-1h-1v-1h2v-1h-1v-1h1v-1h1v-1h1v-1h1v-1h1v-1h1v-1h-1v-1h2zM2 10h1v1h-1zM4 10h2v1h2v1h-1v1h2v1h-2v1h-1v-1h-2v-1h2v-1h-1v-1h-1zM8 10h1v1h-1zM10 10h2v1h-1v1h-1zM1 11h1v1h-1zM3 11h1v1h-1zM22 11h2v1h2v2h-1v1h-1v-2h-1v-1h-1zM26 11h1v1h-1zM30 11v1h1v-1zM2 12h1v3h-2v-1h1zM9 12h1v1h-1zM33 13h1v2h-1v1h-1v-1h-1v-1h2zM3 15h3v1h-3zM7 15h1v1h-1zM9 15h1v2h-1v2h1v1h-3v1h1v1h-3v-1h1v-3h1v1h1v-1h-1v-1h1v-1h1zM21 15h3v1h-3zM1 16h1v2h1v-1h1v1h1v1h-2v1h-1v-1h-1zM6 16h1v1h-1zM11 16h3v1h-1v1h-1v1h1v-1h1v3h-1v2h2v1h-2v1h-2v1h-1v1h-1v-1h-2v-1h2v-1h3v-1h-3v-2h2v1h1v-2h-1v-1h-1v-1h1zM33 16h1v4h-1v-1h-1v2h-1v1h1v1h1v1h1v3h-1v-1h-1v-1h-2v-2h-2v-1h1v-1h-2v-1h3v-2h3zM14 17h1v1h-1zM16 17h1v1h1v1h-1v1h-2v-2h1zM18 17h1v1h-1zM20 17h2v2h-1v1h1v1h-2v-1h-2v-1h1v-1h1zM27 18h1v1h-1zM3 20h2v1h-1v2h-1v-1h-1v-1h1zM17 20h1v1h-1zM15 21h1v1h-1zM19 21h1v1h-1zM26 21h1v1h-1zM32 21h1v1h-1zM1 22h1v3h2v-1h1v-1h3v1h-1v1h-2v1h-4zM18 22h1v1h1v1h1v-1h1v2h-3v-1h-1zM20 22h1v1h-1zM25 23h3v1h-1v1h3v4h1v1h-1v2h1v-2h1v-1h2v3h-2v1h-1v1h-8v-1h1v-1h1v1h1v-3h-1v-1h-1v1h-1v-3h-4v1h1v1h-2v-2h-1v2h1v1h-2v1h-2v1h-1v-2h1v-1h-3v-1h3v-1h1v1h1v-1h-1v-1h2v-1h-1v-1h2v2h6v1h1v-1h-1v-1h2v-1h-1zM23 24h1v1h-1zM13 25h2v1h-1v1h-2v-1h1zM26 26v3h3v-3zM31 26h1v1h1v1h-1v1h-1zM1 27h7v7h-7zM10 27h1v1h-1zM27 27h1v1h-1zM2 28v5h5v-5zM3 29h3v3h-3zM18 30h4v1h-1v2h-1v-1h-2zM24 30h1v1h-1zM27 30v2h1v1h1v-1h-1v-1h1v-1zM10 31h2v1h1v1h1v1h-5v-1h1zM16 31h1v1h-1zM14 32h1v1h-1zM16 33h3v1h-3zM32 33h1v1h-1z"/></svg>