<svg xmlns="http://www.w3.org/2000/svg" viewBox="0 0 35 35"><path d="M1 1h7v7h-7zM9 1h1v2h-1zM17 1h1v1h1v1h-2zM19 1h4v2h-1v-1h-3zM24 1h1v2h1v1h-2zM27 1h7v7h-7zM2 2v5h5v-5zM13 2h1v1h1v-1h1v1h1v1h-4zM28 2v5h5v-5zM3 3h3v3h-3zM10 3h2v1h-1v3h-1v-2h-1v-1h1zM19 3h3v1h-2v4h-1v-1h-1v1h1v1h1v1h2v-1h1v1h2v2h-1v-1h-1v1h-1v-1h-2v1h-1v-1h-2v-1h-2v-1h1v-1h1v-1h-1v-1h1v-1h2zM29 3h3v3h-3zM12 4h1v2h1v-1h1v2h-1v3h1v2h-2v1h-1v1h-1v-1h-1v-1h1v-1h-1v-2h-1v-2h1v1h1v2h1v-2h1v-1h-1zM23 4h1v1h-1zM22 5h1v1h1v2h-1v-1h-1zM25 5h1v1h-1zM11 7h1v1h-1zM15 7h1v1h-1zM21 7h1v1h-1zM25 7h1v2h-1zM20 8h1v1h-1zM1 9h1v2h-1zM3 9h2v1h-1v1h1v1h-1v1h-2v-2h1zM6 9h3v1h-3zM27 9h1v2h2v-2h1v1h1v-1h2v5h-1v-1h-1v-2h-1v4h1v3h-1v-1h-1v-1h-3v1h1v3h-1v-2h-1v1h-2v-1h-1v2h-1v-1h-1v-1h-2v-2h-1v-2h1v1h2v-1h1v1h2v2h1v-3h1v1h2v-1h1v1h1v-1h-1v-1h1v-1h-1v1h-2v-1h-1v-1h1zM7 11h2v2h-1v-1h-1zM17 12h2v1h-1v1h-1zM20 12h1v2h-1zM1 13h1v1h-1zM7 13h1v1h-1zM9 13h1v2h2v2h-2v1h-1v2h-3v-2h1v1h1v-1h-1v-1h1v-1h1v-1h-1v-1h1zM15 13h1v2h-1zM23 13h1v1h-1zM26 13h1v1h-1zM2 14h1v2h2v1h-1v1h-3v-3h1zM4 14h1v1h-1zM6 14h1v1h1v1h-1v1h-1v-1h-1v-1h1zM13 14h1v1h-1zM32 14h1v1h-1zM13 16h4v1h-1v1h1v1h1v1h-2v1h-2v-1h1v-1h-1v-1h-2v-1h1zM20 16v1h1v-1zM5 17h1v1h-1zM17 17h1v1h-1zM29 17h1v1h1v1h-1v2h-2v-1h1zM10 18h1v1h-1zM33 18h1v1h-1zM2 19h1v1h-1zM11 19h1v1h1v1h-1v1h-1v-1h-2v-1h2zM13 19h1v1h-1zM19 19h1v2h-2v-1h1zM31 19h2v1h1v5h-1v-1h-2v1h-1v-4h2v2h1v-2h-1v-1h-1zM3 20h2v2h-1v-1h-1zM23 20h1v1h2v1h-1v1h1v1h-4v-1h-2v-2h1v1h1v-1h1zM1 21h1v2h-1zM6 21h2v1h-2zM16 21h2v1h1v1h1v1h-2v-1h-1v2h-1v-1h-1v-1h1zM3 22h1v2h-1zM5 22h1v1h-1zM8 22h1v1h3v1h3v1h-1v2h-1v-2h-1v1h-1v-2h-4v-1h1zM14 22h1v1h-1zM23 22v1h1v-1zM26 22h2v1h1v2h1v1h1v1h-1v3h-4v1h-1v-1h-1v2h-2v1h1v1h-6v-1h1v-1h-2v-1h1v-2h-1v-1h2v-1h2v-2h1v-1h1v2h-1v3h-1v1h-1v1h1v1h1v-3h1v-3h1v-1h1v1h1v-1h2v-2h-1zM2 24h1v1h-1zM4 24h1v1h1v-1h1v1h3v3h2v-1h1v1h2v1h1v1h-2v-1h-3v2h-1v1h-1v-2h1v-1h-1v-3h-6v-1h1zM1 25h1v1h-1zM15 25h1v1h-1zM17 25h2v1h-1v1h-2v-1h1zM26 26v3h3v-3zM1 27h7v7h-7zM23 27v2h1v-2zM27 27h1v1h-1zM2 28v5h5v-5zM31 28h1v1h1v1h-2zM3 29h3v3h-3zM12 30h1v1h-1zM22 30v1h1v-1zM30 30h1v2h-1zM33 30h1v1h-1zM11 31h1v2h-2v-1h1zM13 31h2v1h-2zM27 31h2v1h-1v1h-1v1h-1v-1h-1v1h-1v-2h3zM15 32h1v1h-1zM29 32h1v1h-1zM33 32h1v1h-1zM9 33h1v1h-1zM13 33h1v1h-1zM31 33h1v1h-1z"/></svg>