<svg xmlns="http://www.w3.org/2000/svg" viewBox="0 0 35 35"><path d="M1 1h7v7h-7zM10 1h4v1h-4zM17 1h1v1h-1zM19 1h3v1h1v2h-1v-1h-1v-1h-1v1h-1zM24 1h1v1h-1zM27 1h7v7h-7zM2 2v5h5v-5zM16 2h1v1h1v1h-3v-1h1zM28 2v5h5v-5zM3 3h3v3h-3zM9 3h1v1h2v1h-2v1h2v-1h1v1h1v2h-1v-1h-1v1h-1v-1h-1v2h-1zM13 3h1v1h-1zM20 3h1v1h-1zM29 3h3v3h-3zM19 4h1v1h-1zM23 4h3v1h-1v1h-4v-1h2zM14 5h5v1h-3v4h-1v1h2v-1h1v-1h1v3h6v-1h1v1h2v1h-1v1h-2v-1h-1v1h-1v-1h-5v1h-1v-2h-2v1h-1v2h-1v2h-1v-3h-1v1h-2v-1h1v-2h-1v-1h2v1h1v1h1v-1h-1v-1h1v-2h2v-3h-1zM20 6h1v1h-1zM17 7h1v2h-1zM19 7h1v1h-1zM21 7h1v1h1v-1h1v3h1v1h-5v-3h1zM25 7h1v3h-1zM12 8h1v1h-1zM1 9h1v1h-1zM3 9h5v1h-1v1h-3v1h-1zM10 9h2v2h-1v-1h-1zM22 9v1h1v-1zM27 9h5v1h2v1h-1v1h-1v1h-1v1h-3v-1h1v-2h1v1h1v-1h-1v-1h-2v1h-2v-1h1zM1 11h1v1h1v2h-1v-1h-1zM7 11h1v1h-1zM5 12h1v1h2v1h-1v1h-1v-1h-2v-1h1zM8 12h1v1h-1zM33 12h1v1h-1zM15 13h1v1h-1zM3 14h1v2h1v1h-1v1h-3v-1h2zM16 14h1v1h1v1h-1v2h-1v-1h-1v-1h1zM18 14h2v3h-1v-2h-1zM22 14h1v1h-1zM24 14h1v1h-1zM27 14h1v1h2v1h-1v1h1v1h-1v1h-1v2h-1v1h1v2h-1v-1h-1v-1h-1v1h-1v-3h1v1h1v-2h1v-1h1v-1h-1zM31 14h3v1h-1v1h-1v-1h-1zM1 15h1v1h-1zM7 15h2v1h-2zM14 15h1v1h-1zM21 15h1v1h1v1h-1v2h1v2h-3v-1h1v-1h-1v1h-1v-2h1v-1h1zM23 15h1v1h-1zM25 15h1v1h-1zM10 16h1v1h1v1h1v-1h2v3h1v-1h1v1h1v1h-3v1h-3v-1h1v-1h1v-1h-1v1h-1v-1h-1v-1h-5v1h2v1h-4v1h-1v-2h2v-2h5zM30 16h2v1h-2zM18 17h1v1h-1zM23 17h2v2h-1v-1h-1zM26 17h1v1h-1zM33 17h1v2h-1v1h1v1h-3v1h-2v-3h1v1h1v-1h-1v-1h3zM17 18h1v1h-1zM1 19h1v1h-1zM9 19h2v1h-2zM8 20h1v1h-1zM11 20h1v1h-1zM1 21h1v5h-1zM6 21h2v1h-2zM9 21h2v1h1v1h-1v2h-2v1h-2v-1h1v-1h-1v1h-1v1h-1v-1h-2v-3h1v1h1v1h1v-1h2v-1h1v2h1v-2h-1zM19 21h1v1h-1zM15 22h4v1h1v1h1v-1h-1v-1h2v1h2v1h1v1h-1v2h1v-2h3v-1h1v1h1v4h1v3h1v1h-1v1h-4v-1h1v-1h-1v-1h1v-1h-1v1h-1v-1h-1v-1h-1v-1h-1v-3h-1v2h-2v-2h-1v-1h-1v-1h-3zM33 22h1v1h-1zM12 23h2v1h-2zM29 23h4v1h1v1h-4v-1h-1zM17 24h1v1h-1zM12 25h2v1h1v1h2v-1h1v-1h1v3h1v1h-2v1h-1v1h1v1h-1v2h-1v-4h-1v3h-1v1h-1v-1h-1v1h-3v-1h1v-1h-1v-4h1v-1h-1v-1h3zM26 26v3h3v-3zM31 26h3v1h-1v2h1v2h-2v-2h-1zM1 27h7v7h-7zM11 27v1h3v-1zM27 27h1v1h-1zM2 28v5h5v-5zM16 28v1h1v-1zM22 28h1v1h-1zM3 29h3v3h-3zM10 29v1h1v2h1v-1h2v-1h-1v-1h-1v1h-1v-1zM20 29h1v1h2v1h-1v1h-1v-1h-1v1h1v1h-2v-3h1zM23 29h1v1h-1zM23 31h1v1h-1zM25 31h1v1h-1zM29 31v1h1v-1zM22 32h1v1h-1zM18 33h1v1h-1zM23 33h3v1h-3zM32 33h1v1h-1z"/></svg>