<svg xmlns="http://www.w3.org/2000/svg" viewBox="0 0 35 35"><path d="M1 1h7v7h-7zM9 1h1v3h-1zM12 1h1v1h1v-1h2v3h1v-1h1v3h1v1h-1v2h1v1h2v1h-3v-1h-1v-1h-1v-1h1v-1h-1v-2h-1v-1h-1v1h-2v3h1v-1h1v1h1v1h-1v1h1v-1h1v1h1v2h-1v-1h-1v3h-1v-3h-1v-2h-1v1h-1v-1h-1v-1h1v-4h1v-1h-1v-1h1zM18 1h2v1h1v2h-1v-1h-1v-1h-1zM22 1h1v1h1v1h-1v3h-1v-1h-1v-1h1zM27 1h7v7h-7zM2 2v5h5v-5zM25 2h1v3h-1v-1h-1v-1h1zM28 2v5h5v-5zM3 3h3v3h-3zM29 3h3v3h-3zM19 4h1v1h-1zM9 5h1v1h-1zM14 6h1v1h-1zM20 6h1v1h-1zM24 6h1v1h-1zM9 7h1v1h-1zM15 7h1v1h-1zM19 7h1v1h-1zM21 7h1v1h-1zM23 7h1v2h-1zM25 7h1v1h-1zM1 9h1v1h-1zM4 9h6v1h-1v1h-1v-1h-3v1h3v1h-3v1h1v1h1v1h-2v-1h-1v-2h-1v-1h1zM21 9h1v1h-1zM26 9h1v1h-1zM29 9h1v1h1v-1h3v1h-1v1h1v1h-2v1h-1v-1h-2v-1h-1v-1h1zM10 10h1v1h2v1h-2v2h-1v-1h-1v-2h1zM23 10h2v1h3v1h1v4h2v-1h-1v-1h2v3h-1v1h-1v1h-1v-1h-1v1h-1v-1h-1v-1h2v-3h-1v-2h-1v1h-1v-1h-4v-1h2zM1 12h2v2h-1v-1h-1zM19 12h2v1h1v2h2v1h-4v-1h-1v1h-1v-3h1v1h1v-1h-1zM7 13h2v2h-1v-1h-1zM12 13h1v1h1v2h1v-2h1v1h1v1h-1v1h-1v2h-2v-1h1v-1h-1v-2h-2v-1h1zM32 13h2v1h-2zM1 14h1v3h-1zM24 14h1v1h-1zM26 14h1v1h-1zM3 15h2v1h1v1h-2v-1h-1zM7 15h1v1h-1zM25 15h1v2h-2v-1h1zM10 16h1v1h1v1h-2zM17 16h1v1h-1zM19 16h1v1h-1zM33 16h1v1h-1zM2 17h1v1h1v1h-1v1h1v3h-1v-2h-1v-1h-1v-1h1zM6 17h3v1h-2v1h2v-1h1v2h-1v1h1v1h1v1h1v1h-1v1h1v2h-1v2h-1v2h-1v-5h1v-3h-2v-1h-1v-1h1v-1h-1v1h-1v-1h-2v-1h2zM16 17h1v2h1v-1h2v-1h2v1h1v1h2v1h-1v1h2v1h-1v1h1v1h-2v-1h-2v-1h1v-2h-1v-1h-1v1h-4v1h1v1h-2v-2h-1v-1h1zM23 17h1v1h-1zM31 18h3v2h-1v-1h-1v1h1v2h-1v-1h-1v1h1v1h2v3h-2v-1h-1v-1h-1v-1h-1v1h-1v-2h2v-1h-4v-1h4v-1h1zM12 19h1v3h-1v-1h-1v-1h1zM21 20h1v1h-1zM1 21h1v4h2v1h-3zM5 21h1v1h-1zM19 21h2v2h-1v-1h-1zM13 22h1v1h2v1h-1v2h-1v-2h-1zM18 22h1v1h-1zM7 23h1v1h-1zM5 24h1v1h-1zM16 24h1v1h-1zM18 24h1v1h-1zM20 24h2v2h-1v-1h-1zM23 24h1v1h-1zM26 24h2v1h3v1h-1v4h-3v2h1v1h1v1h-5v-1h2v-2h-1v-1h-1v1h-1v-3h1v-1h1v-1h-1v-1h2zM6 25h3v1h-3zM16 26h3v2h1v-1h1v2h-2v1h2v-1h1v2h-1v1h-1v1h-1v-2h-2v-1h-2v-1h1v-1h-1v1h-1v-2h2zM22 26h2v1h-2zM26 26v3h3v-3zM31 26h1v2h2v5h-3v1h-1v-1h-1v-1h-1v-1h2v1h2v-1h-2v-1h2v-1h-1zM1 27h7v7h-7zM27 27h1v1h-1zM2 28v5h5v-5zM12 28h1v1h1v1h-1v1h1v1h-2v-1h-1v-1h1zM17 28v1h1v-1zM3 29h3v3h-3zM14 30h1v1h-1zM10 31h1v2h-1zM16 31h1v1h-1zM22 31h1v1h-1zM24 31h1v1h-1zM14 32h2v1h-2zM21 32h1v2h-2v-1h1zM9 33h1v1h-1zM16 33h1v1h-1zM18 33h1v1h-1z"/></svg>