<svg xmlns="http://www.w3.org/2000/svg" viewBox="0 0 35 35"><path d="M1 1h7v7h-7zM10 1h1v1h-1zM17 1h1v2h-1v1h-2v-1h1v-1h1zM19 1h3v1h-2v1h-1zM23 1h2v1h-2zM27 1h7v7h-7zM2 2v5h5v-5zM11 2h1v1h1v1h-1v1h-1zM13 2h1v1h-1zM22 2h1v1h3v1h-1v2h-1v-1h-1v-1h-1zM28 2v5h5v-5zM3 3h3v3h-3zM9 3h1v3h1v1h-1v2h-1zM29 3h3v3h-3zM19 4h2v1h-2zM13 5h5v1h-5zM21 5h2v1h-2zM20 6h1v1h-1zM23 6h1v2h1v-2h1v4h-1v1h-1v-1h-1v-1h-1v1h1v1h-1v1h2v2h1v1h-2v1h3v1h1v1h-2v1h-1v-1h-1v-1h-2v-2h1v-1h1v-1h-2v-2h-2v1h1v1h-2v-2h-1v-4h1v2h1v1h1v-1h-1v-2h1v1h1v-1h1v1h1zM11 7h1v1h1v-1h1v2h-2v1h-2v-1h1zM15 7h1v1h-1zM1 9h1v1h1v1h1v2h2v-2h3v1h-2v1h1v1h-1v1h-1v1h1v1h-2v-1h-1v-1h1v-1h-1v1h-2v-2h-1zM3 9h5v1h-5zM14 9h2v1h-1v1h2v1h-2v1h-2v-3h1zM27 9h5v2h1v3h1v1h-1v1h-1v-3h-1v2h-1v-1h-1v-3h1v1h1v-1h-1v-1h-2v1h-1zM9 10h1v1h-1zM33 10h1v1h-1zM11 12h1v1h-1zM25 12h1v1h-1zM27 12h1v1h-1zM10 13h1v1h1v-1h1v3h-1v-1h-1v1h1v1h-1v1h1v2h1v1h1v1h-1v1h1v-1h1v1h1v1h-2v2h-2v-1h1v-1h-1v-3h-1v-2h-2v-1h1zM15 13h3v1h-1v1h1v-1h2v3h-1v-1h-2v1h2v1h-1v1h-1v-1h-1v-1h-2v-1h1v-1h1v-1h-1zM20 13h1v1h-1zM26 13h1v1h-1zM8 14h1v1h-1zM27 14h1v1h-1zM7 15h1v1h-1zM26 15h1v1h-1zM1 16h1v2h1v1h-1v1h-1zM3 16h1v2h-1zM8 16h1v2h-2v-1h1zM29 16h3v1h-2v1h-1v1h-2v-1h1v-1h1zM12 17h2v1h-2zM20 17h1v1h2v3h-2v-1h1v-1h-2zM33 17h1v2h-1v1h-1v1h-1v1h-3v-1h1v-2h1v1h1v-1h-1v-1h3zM4 18h1v1h-1zM14 18h1v1h-1zM5 19h3v1h-3zM15 19h2v1h-1v1h-2v-1h1zM19 19h1v1h-1zM26 19h1v3h-2v-1h-1v-1h2zM3 20h2v2h-1v-1h-1zM17 20h1v1h-1zM33 20h1v1h-1zM2 21h1v2h-1v3h-1v-4h1zM6 21h3v2h-1v-1h-2zM16 21h1v1h1v1h-2zM19 21h1v1h-1zM5 22h1v1h2v1h-2v1h-1v1h-1v-2h-1v-1h2zM10 22h1v1h-1zM20 22h3v2h2v-1h1v2h1v-3h1v1h1v1h-1v1h2v-2h1v1h1v-1h1v1h1v1h-3v1h-1v3h1v1h-1v1h-1v1h3v1h-1v1h-4v-3h1v-1h-1v1h-1v-1h-1v-1h-1v-1h-1v-3h-2v1h1v1h-3v1h1v1h-2v-2h-1v-1h1v-1h1v1h1v-1h-1v-1h2v-1h-1zM24 22h1v1h-1zM33 22h1v1h-1zM9 23h1v1h-1zM18 23h1v1h-1zM11 24h1v1h-1zM17 24h1v1h-1zM6 25h2v1h-2zM9 25h1v2h-1zM15 25h1v2h1v2h1v1h-1v1h1v-1h5v3h-1v-1h-1v-1h-2v1h-2v1h2v1h-3v-1h-1v-1h1v-3h-4v-1h2v-1h1zM11 26h1v2h-1zM26 26v3h3v-3zM31 26h3v1h-1v1h1v1h-1v1h1v1h-2v-2h-1zM1 27h7v7h-7zM27 27h1v1h-1zM2 28v5h5v-5zM9 28h2v1h1v2h3v1h-2v2h-2v-1h1v-1h-1v-1h-1v1h-1zM21 28h2v1h-2zM3 29h3v3h-3zM23 29h1v1h-1zM24 30h1v3h1v1h-3v-1h1zM19 32h2v1h-2zM9 33h1v1h-1zM32 33h1v1h-1z"/></svg>