<svg xmlns="http://www.w3.org/2000/svg" viewBox="0 0 35 35"><path d="M1 1h7v7h-7zM10 1h3v2h1v1h-1v1h1v1h1v1h-1v2h1v-2h1v4h1v1h-2v1h-1v-2h-3v-1h1v-1h-3v-6h3v-1h-2zM15 1h1v1h-1zM17 1h1v3h-1v-1h-1v-1h1zM20 1h3v1h1v2h1v-2h1v3h-1v1h-1v-1h-1v-1h-1v-1h-1v-1h-1zM24 1h1v1h-1zM27 1h7v7h-7zM2 2v5h5v-5zM19 2h1v1h-1zM28 2v5h5v-5zM3 3h3v3h-3zM15 3h1v1h-1zM20 3h1v1h-1zM29 3h3v3h-3zM16 4h1v1h1v1h-3v-1h1zM19 4h1v1h-1zM10 5v3h1v-3zM21 5h1v1h-1zM20 6h1v1h-1zM22 6h2v3h1v2h-2v-2h-2v1h1v1h-3v1h1v1h-2v1h-1v1h1v-1h2v1h-1v1h-2v2h-2v-1h-2v-2h1v-1h1v1h1v-1h-1v-1h2v-1h1v-1h-1v-1h1v-1h1v1h1v-2h1v-1h1v1h1v-1h-1zM25 6h1v2h-1zM12 7v1h1v-1zM17 7h1v2h-1zM19 7h1v1h-1zM1 9h1v2h-1zM3 9h5v1h-1v1h1v1h-3v-1h1v-1h-1v1h-2zM27 9h5v2h1v1h1v1h-1v1h1v1h-1v1h-1v-1h-2v-1h-2v-1h1v-2h1v1h1v-1h-1v-1h-2v3h-1v1h-2v-1h1v-1h-1v-1h1v-1h1zM8 10h1v1h-1zM33 10h1v1h-1zM9 11h1v1h-1zM1 12h1v2h-1zM3 12h2v3h-1v-2h-1zM8 12h1v1h-1zM10 12h1v1h-1zM12 12h1v3h-2v-1h1zM21 12h3v2h-1v-1h-2zM7 13h1v1h-1zM9 13h1v3h2v1h-3v-1h-2v1h-1v-2h2v-1h1zM31 13v1h1v-1zM2 14h1v1h-1zM22 14h1v1h-1zM24 14h1v1h-1zM27 14h1v1h-1zM3 15h1v2h-1zM21 15h1v1h1v1h-1v3h1v1h-2v1h1v1h2v1h-1v1h-2v1h1v2h-1v-1h-2v1h1v1h-2v-2h-1v-3h1v1h1v1h1v-1h-1v-1h2v-1h-1v-1h-1v-1h1v-1h1v-1h-1v-2h1zM25 15h2v1h-2zM28 15h1v1h3v1h-1v1h1v1h1v2h1v2h-1v-1h-1v-1h-1v1h-3v-1h1v-2h1v1h1v-1h-1v-1h-1v1h-1v1h-1v-1h-1v-2h1v1h1zM1 16h1v2h-1zM19 16h1v1h-1zM7 17h2v1h-2zM18 17h1v1h-1zM23 17h2v2h-1v-1h-1zM33 17h1v2h-1zM2 18h1v1h2v1h1v1h-2v3h-1v-1h-1v3h-1v-4h1v-1h1v-1h-1zM6 18h1v1h1v1h-2zM9 18h1v1h-1zM12 18h2v2h-1v-1h-1zM17 18h1v1h-1zM10 19h1v1h-1zM16 19h1v2h-1zM19 19h1v1h-1zM23 19h1v1h-1zM9 20h1v1h-1zM11 20h1v1h1v1h1v1h-1v1h1v1h-4v1h2v1h-3v-2h-1v-1h1v-2h1v1h1v1h1v-2h-1zM14 20h1v1h-1zM24 20h1v1h-1zM26 20h1v2h1v1h-2v-1h-1v-1h1zM6 21h3v1h-2v1h1v1h-1v1h-1v1h-2v-2h1v-1h1zM15 22h3v1h-3zM24 22h1v1h-1zM28 23h5v1h1v1h-3v1h-1v3h1v1h-1v1h-1v1h3v1h-2v1h-2v-2h-2v-1h-1v-2h-1v-1h-1v-3h1v1h1v-1h3zM29 24v1h1v-1zM7 25h1v1h-1zM14 25h2v1h-2zM13 26h1v1h-1zM26 26v3h3v-3zM31 26h1v1h1v1h-1v1h-1zM33 26h1v1h-1zM1 27h7v7h-7zM14 27h3v2h-1v1h-1v-1h-1v1h-2v1h-1v-1h-1v1h1v1h1v1h-2v-1h-1v-4h3v1h1v-1h1zM27 27h1v1h-1zM2 28v5h5v-5zM22 28h1v1h-1zM33 28h1v1h-1zM3 29h3v3h-3zM17 29h1v1h-1zM20 29h1v1h1v1h1v1h1v1h3v1h-4v-1h-1v-1h-1v-1h-2v-1h1zM23 29h1v1h-1zM32 29h1v1h1v1h-2zM16 30h1v1h2v1h-2v2h-4v-3h3zM27 30v1h1v-1zM14 32v1h2v-1zM19 32h2v1h-2zM9 33h1v1h-1zM18 33h1v1h-1zM21 33h1v1h-1zM32 33h1v1h-1z"/></svg>