<svg xmlns="http://www.w3.org/2000/svg" viewBox="0 0 35 35"><path d="M1 1h7v7h-7zM10 1h3v1h-2v1h2v1h-1v1h1v1h-2v1h-1v2h-1v-6h1zM17 1h1v3h-1v-1h-1v-1h1zM19 1h6v1h-1v3h-1v-1h-1v-1h1v-1h-3v1h-1zM27 1h7v7h-7zM2 2v5h5v-5zM28 2v5h5v-5zM3 3h3v3h-3zM15 3h1v1h-1zM20 3h1v1h-1zM29 3h3v3h-3zM10 4v1h1v-1zM19 4h1v1h-1zM14 5h5v2h-1v-1h-3v1h-1v2h-1v-3h1zM21 5h2v1h-2zM24 5h1v1h-1zM20 6h1v1h-1zM23 6h1v2h-1zM25 6h1v4h-1zM11 7h1v4h-1v-1h-1v-1h1zM15 7h1v4h1v1h-2v1h-1v-2h-1v-1h1v-1h1zM17 7h1v2h-1zM19 7h1v1h-1zM21 7h1v1h1v1h-1v1h1v1h1v1h1v3h-2v-2h-1v-2h-3v1h1v1h-2v-2h-1v-1h1v-1h1v1h1v-2h1zM1 9h1v2h-1zM3 9h5v1h-3v1h3v1h-2v1h-1v-1h-1v1h-2v-1h1zM23 9h1v1h-1zM27 9h5v2h1v1h-1v1h-1v1h-3v-1h1v-2h1v1h1v-1h-1v-1h-2v1h-1zM8 10h1v1h-1zM24 10h1v1h-1zM33 10h1v1h-1zM9 11h2v3h-1v-2h-1zM12 11h1v1h-1zM25 11h1v1h-1zM8 12h1v1h-1zM26 12h2v1h-1v1h-1zM7 13h1v1h-1zM13 13h1v1h-1zM15 13h1v1h-1zM17 13h1v1h-1zM20 13h1v1h-1zM32 13h2v2h-1v1h-1zM2 14h1v1h-1zM5 14h1v1h-1zM8 14h2v2h1v1h-2v-2h-1zM12 14h1v1h-1zM16 14h1v1h1v1h-1v1h2v1h-1v3h-1v-1h-1v-1h1v-1h-1v1h-2v-1h1v-2h-1v1h-1v1h-1v-2h1v-1h3zM19 14h1v2h-1zM27 14h1v1h-1zM3 15h1v1h-1zM7 15h1v1h-1zM21 15h2v1h1v2h-1v-1h-1v2h1v2h-2v-2h-1v1h-1v-2h1v-1h1zM28 15h1v1h3v1h-1v1h1v1h1v1h1v1h-3v1h-3v-1h1v-2h1v1h1v-1h-1v-1h-1v1h-1v1h-1v-1h-1v-1h-1v-2h3zM1 16h1v3h-1zM5 16h2v1h-2zM3 17h2v2h-1v-1h-1zM7 17h1v1h-1zM27 17v1h1v-1zM33 17h1v2h-1zM8 18h3v2h-1v-1h-2zM24 18h1v1h-1zM2 19h1v1h2v-1h3v1h-1v1h-1v1h1v1h-2v1h-1v-1h-1v-1h1v-1h-1v1h-1zM13 19h1v1h-1zM8 20h2v1h-2zM11 20h2v1h-1v2h3v2h1v2h-2v1h-2v-1h1v-1h-1v-1h1v-1h-2v-1h-1v-2h1zM14 20h2v2h3v2h-1v-1h-3v-2h-1zM25 20h2v2h-1v-1h-1zM7 21h1v1h-1zM13 21h1v1h-1zM19 21h2v1h1v1h2v1h-1v1h-2v1h1v2h-1v-1h-2v1h1v1h-2v-2h-1v-1h1v-1h1v1h1v-2h1v-1h-1v-1h-1zM1 22h1v4h-1zM24 22h1v1h-1zM27 22h1v1h-1zM33 22h1v1h-1zM7 23h1v1h-1zM9 23h1v1h1v4h-1v-1h-1v-1h1v-1h-1zM28 23h5v1h1v1h-4v-1h-1v1h1v4h1v3h1v1h-1v1h-8v-1h-1v-1h-1v-1h-1v1h-1v-1h-1v-1h5v2h2v1h1v-2h-1v-2h-1v-1h-1v-3h2v-1h1v1h2zM3 24h1v1h-1zM5 24h1v1h3v1h-4zM17 24h1v1h-1zM26 26v3h3v-3zM31 26h1v1h1v2h-2zM33 26h1v1h-1zM1 27h7v7h-7zM16 27h1v1h-1zM27 27h1v1h-1zM2 28v5h5v-5zM9 28h1v1h1v1h-1v2h-1zM14 28h1v1h-1zM22 28h1v1h-1zM3 29h3v3h-3zM12 29h2v1h-2zM15 29h1v1h1v1h1v1h-1v1h2v1h-5v-2h-1v-1h2v2h1v-2h-1zM17 29h1v1h-1zM23 29h1v1h-1zM33 29h1v2h-2v-1h1zM27 30v1h1v-1zM29 31v1h1v-1zM10 32h1v2h-2v-1h1zM20 32h1v1h-1zM21 33h1v1h-1zM32 33h1v1h-1z"/></svg>