<svg xmlns="http://www.w3.org/2000/svg" viewBox="0 0 35 35"><path d="M1 1h7v7h-7zM10 1h2v1h2v2h-1v-1h-1v1h-1v1h-1v4h-1v-6h2v-1h-1zM15 1h1v1h-1zM17 1h1v2h-1v1h-2v-1h1v-1h1zM19 1h3v1h-2v1h-1zM23 1h2v1h-2zM27 1h7v7h-7zM2 2v5h5v-5zM22 2h1v2h-3v-1h2zM28 2v5h5v-5zM3 3h3v3h-3zM25 3h1v2h-1zM29 3h3v3h-3zM19 4h1v1h-1zM23 4h1v1h-1zM11 5h1v3h1v-1h1v2h2v1h-1v1h2v2h1v1h-1v1h1v-1h2v2h-3v1h2v1h-1v2h-2v1h-3v-1h-2v-2h2v1h1v-3h1v2h1v1h1v-1h-1v-2h-1v-1h1v-1h-1v-1h1v-1h-1v1h-1v2h-2v-1h1v-2h-1v-1h1v-2h-2zM15 5h3v1h-2v2h-1v-1h-1v-1h1zM21 5h2v1h-2zM24 5h1v1h-1zM20 6h1v1h-1zM25 6h1v3h-2v1h-1v-1h-1v2h-3v1h2v2h-1v-1h-2v-2h-1v-4h1v2h1v1h1v-2h1v-1h1v1h1v-1h1v1h1zM19 7h1v1h-1zM1 9h1v1h1v-1h5v1h-1v1h1v-1h2v1h1v2h1v1h-1v1h1v1h1v1h-2v-1h-4v1h1v1h-1v1h1v1h-2v2h1v1h1v1h-1v1h-1v1h-2v-1h1v-1h1v-1h-1v1h-2v-1h1v-2h1v-2h-2v-2h-1v-1h2v2h2v-1h-1v-1h1v-6h-2v1h-3zM10 9h1v1h-1zM27 9h5v2h1v1h-1v1h-1v2h-1v-1h-2v-1h1v-2h1v1h1v-1h-1v-1h-2v1h-1zM11 10h1v1h-1zM24 10h1v1h-1zM33 10h1v1h-1zM4 11h1v2h-1zM22 11h2v1h-1v1h-1zM2 12h1v1h-1zM7 12v1h1v1h-1v1h1v-1h1v1h1v-2h-2v-1zM27 12h1v1h-1zM33 12h1v1h-1zM1 13h1v1h2v1h-2v1h-1zM23 13h1v1h-1zM25 13h2v1h1v1h-1v1h-1v1h-1v2h-5v1h-1v-2h1v-1h1v1h2v-1h-2v-2h1v1h3v-1h1v-1h-1zM32 13h1v1h1v1h-1v1h-1v1h-1v1h2v-1h1v2h-1v1h-1v1h-1v1h-3v-1h1v-2h1v1h1v-1h-1v-1h-1v1h-2v1h-1v1h-1v-2h1v-2h1v1h1v-1h1v-1h-1v-1h2v1h1v-1h1zM24 14h1v1h-1zM1 17h1v1h-1zM9 17h2v1h-1v1h-1zM1 19h2v1h-2zM3 20h1v1h-1zM8 20h3v2h-1v5h-1v-1h-2v-1h1v-1h1v-1h-1v-1h-1v-1h1zM20 20h3v1h-2v1h2v1h-1v1h2v2h-1v-1h-2v1h1v1h-2v-2h-1v-1h2v-1h-1v-1h-1v-1h1zM27 20h1v1h-1zM2 21h1v1h-1zM16 21h1v1h2v2h-1v-1h-2v1h-1v-1h-1v-1h2zM24 21h1v2h-1zM26 21h1v1h-1zM32 21h2v2h-1v-1h-1zM1 22h1v4h-1zM12 22h1v1h-1zM27 22h1v1h-1zM31 22h1v1h-1zM11 23h1v1h-1zM13 23h1v1h1v1h-2v1h-1v-2h1zM26 23h1v1h1v1h2v-1h2v-1h1v1h1v1h-3v1h-1v3h1v1h-1v1h-1v1h2v-1h1v2h-1v1h-3v-1h-1v-1h-2v-1h1v-1h-1v-1h-1v-1h-1v-1h2v-3h1zM28 23h1v1h-1zM17 24h1v1h1v3h1v1h-2v-1h-2v1h-1v-1h-1v1h1v1h-2v-1h-1v1h-1v-2h1v-1h1v-1h3v1h1zM11 26h1v1h-1zM26 26v3h3v-3zM31 26h1v1h1v1h-1v1h-1zM33 26h1v1h-1zM1 27h7v7h-7zM10 27h1v1h-1zM27 27h1v1h-1zM2 28v5h5v-5zM9 28h1v3h1v2h1v1h-3v-1h1v-1h-1zM22 28h1v1h-1zM33 28h1v3h-2v-1h1zM3 29h3v3h-3zM16 29h2v1h-1v1h1v-1h5v1h-1v1h-1v-1h-1v1h1v1h-2v-1h-2v1h2v1h-5v-3h1v1h1v-1h-1v-1h1zM23 29h1v1h-1zM12 30h1v3h-1zM24 30h1v1h-1zM27 30v1h1v-1zM23 31h1v1h1v1h2v1h-4v-1h-1v-1h1zM21 33h1v1h-1zM32 33h1v1h-1z"/></svg>