<svg xmlns="http://www.w3.org/2000/svg" viewBox="0 0 35 35"><path d="M1 1h7v7h-7zM9 1h7v2h2v3h3v1h-1v1h-1v-1h-1v2h-2v-1h1v-1h-1v-2h1v-1h-1v1h-1v-1h-1v-1h-2v1h-1v-2h-1v2h-1zM18 1h1v1h-1zM22 1h2v1h-2zM27 1h7v7h-7zM2 2v5h5v-5zM19 2h3v1h1v2h-2v-1h-1v-1h-1zM25 2h1v3h-2v-1h1zM28 2v5h5v-5zM3 3h3v3h-3zM29 3h3v3h-3zM10 4h1v1h-1zM13 4h1v2h1v1h-1v1h1v1h-2v-2h-1v1h-1v-1h-1v-1h2v-1h1zM19 4h1v1h-1zM9 5h1v1h-1zM23 5h1v1h1v1h-1v2h-1v-2h-1v-1h1zM9 7h1v1h-1zM15 7h1v1h-1zM21 7h1v1h-1zM25 7h1v1h-1zM1 9h1v1h-1zM4 9h8v1h-1v1h-2v-1h-3v1h2v1h-1v1h-4v-1h1v-1h1v-1h-1zM15 9h1v1h-1zM18 9h1v1h2v1h-3zM25 9h2v2h1v1h1v1h-1v1h-1v-1h-1v-3h-1zM29 9h1v1h1v-1h3v1h-2v1h2v1h-1v1h1v1h-2v-1h-1v-1h-2v-1h-1v-1h1zM2 10h2v1h-1v1h-1v1h-1v-2h1zM12 10h1v1h-1zM14 10h1v4h-1v-1h-1v-1h1zM16 10h1v1h1v1h-1v2h-1zM23 10h2v5h-1v-3h-2v-1h1zM19 12h1v1h-1zM21 12h1v4h-2v-1h-2v-2h1v1h2zM7 13h2v4h1v1h-3v1h-1v-2h2v-1h-1v-1h1v-1h-1zM10 13h1v1h1v3h-2zM12 13h1v1h-1zM1 14h6v1h-1v1h-1v-1h-2v1h-1v-1h-1zM15 14h1v1h-1zM26 14h1v2h-1zM28 14h1v1h-1zM31 14h1v1h-1zM13 15h1v2h-1zM16 15h1v1h-1zM30 15h1v1h1v1h-2v2h-1v-1h-1v2h-1v1h-1v1h-1v-1h-1v1h1v2h-1v-1h-1v1h-1v-2h1v-2h1v-1h1v1h1v-2h-3v-1h1v-1h2v1h3v-1h1zM3 16h2v2h-2v1h-1v-1h-1v-1h2zM15 16h1v1h-1zM17 16h1v1h-1zM33 16h1v1h-1zM12 17h1v1h-1zM14 17h1v1h-1zM16 17h1v3h-1v3h-3v-2h1v1h1v-4h1zM20 17h2v1h1v1h-1v1h-1v1h-1v-1h-2v-2h1v1h1zM31 18h3v3h-1v1h-1v-1h-1v1h-1v-1h-2v-1h2v-1h1zM3 19h1v1h1v-1h1v1h1v1h1v1h-1v1h-1v-2h-1v1h-2v1h-1v2h2v1h-3v-6h1v1h1zM7 19h4v1h1v-1h2v1h-1v1h-1v1h-2v-2h-1v1h-1v-1h-1zM32 19v1h1v-1zM17 20h1v2h-1zM19 21h1v1h-1zM20 22h1v1h-1zM28 22h2v2h-1v-1h-1zM3 23h3v1h1v1h2v1h-3v-1h-2v-1h-1zM7 23h1v1h-1zM9 23h1v2h-1zM18 23h2v1h2v2h-1v-1h-3zM26 23h2v2h3v1h-1v4h-3v4h-3v-1h2v-3h-1v1h-1v2h-1v-1h-1v-1h1v-3h1v-1h1v-1h-1v-1h2zM31 23h3v3h-2v-1h-1zM11 24h1v1h-1zM16 24h1v1h-1zM10 25h1v2h2v3h-1v-1h-1v-1h-1v2h2v1h-1v1h-1v-1h-1v-5h1zM12 25h3v1h-1v1h-1v-1h-1zM17 25h1v1h1v2h1v-1h2v4h-1v1h-1v-1h-3v-1h-1v-1h-2v-1h1v-1h1v-1h1zM22 26h1v1h-1zM26 26v3h3v-3zM31 26h1v2h2v5h-5v-1h-1v-1h3v-1h2v-1h-2zM1 27h7v7h-7zM27 27h1v1h-1zM2 28v5h5v-5zM3 29h3v3h-3zM19 29v1h2v-1zM13 30h3v1h-1v1h-1v-1h-1zM12 31h1v1h-1zM16 31h1v1h-1zM11 32h1v2h-3v-1h2zM13 32h1v2h-1zM21 32h1v2h-2v-1h1zM16 33h3v1h-3zM28 33h1v1h-1z"/></svg>