<svg xmlns="http://www.w3.org/2000/svg" viewBox="0 0 35 35"><path d="M1 1h7v7h-7zM11 1h1v3h2v1h-2v4h1v1h1v-1h1v-2h1v3h-1v1h2v1h-2v1h-1v-1h-1v1h-1v-1h-1v-1h-1v-2h-1v-6h1v1h1zM13 1h1v2h-1zM17 1h1v1h-1zM19 1h6v1h-2v1h2v1h-1v1h-1v-1h-1v-1h-1v-1h-1v1h-1zM27 1h7v7h-7zM2 2v5h5v-5zM16 2h1v1h-1zM25 2h1v1h-1zM28 2v5h5v-5zM3 3h3v3h-3zM15 3h1v1h-1zM29 3h3v3h-3zM16 4h1v1h2v1h-4v1h-1v-2h2zM19 4h2v1h-2zM25 4h1v1h-1zM21 5h2v1h-2zM24 5h1v1h-1zM10 6v2h1v-2zM20 6h1v1h-1zM23 6h1v2h-1zM13 7h1v1h-1zM17 7h1v2h-1zM19 7h1v1h1v-1h1v1h1v1h-1v1h1v1h1v3h-1v-1h-5v1h-1v1h1v-1h2v1h-1v1h-2v1h2v1h-1v1h-1v-1h-1v-1h-1v1h1v1h1v1h-2v-1h-1v-1h-1v-1h-2v-2h1v1h3v-1h1v-1h-1v-1h2v-1h1v-1h-1v-1h1v-1h1v1h1v-1h-1zM25 7h1v1h-1zM24 8h1v1h1v1h-1v1h-1v-1h-1v-1h1zM1 9h1v1h-1zM3 9h5v1h-2v1h-1v-1h-1v3h-1v-1h-2v-1h1v-1h1zM27 9h5v1h2v1h-1v1h-1v1h-1v1h-3v-1h1v-2h1v1h1v-1h-1v-1h-2v3h-1v1h1v1h-2v-1h-1v-1h1v-2h1zM7 11h2v1h2v1h1v1h-2v-1h-2v-1h-1zM19 11v1h3v-1zM6 12h1v1h-1zM33 12h1v1h-1zM2 13h1v1h1v-1h1v2h1v1h1v1h-2v-1h-1v-1h-3v-1h1zM7 13h1v1h-1zM13 13h1v1h-1zM32 13h1v1h1v1h-1v1h-1zM8 14h1v2h-2v-1h1zM22 14h1v1h-1zM24 14h1v1h-1zM21 15h1v1h1v1h-1v1h1v1h-3v1h-1v-2h1v-1h1zM19 16h1v1h-1zM24 16h1v1h-1zM26 16h1v2h-1zM29 16h3v1h-2v1h-1v1h-2v-1h1v-1h1zM2 17h1v1h-1zM4 17h1v1h-1zM7 17h4v1h1v1h-1v1h-1v1h1v2h-1v-1h-3v1h3v2h-2v-1h-1v1h-1v1h-1v-1h-1v-2h1v1h1v-2h-1v-4h1v1h2v1h-1v1h2v-2h-1v-1h-1zM23 17h1v1h-1zM33 17h1v2h-1zM1 18h1v1h-1zM3 18h1v1h-1zM24 18h1v1h-1zM30 18h2v1h1v2h-2v1h1v1h1v1h1v1h-4v-3h-2v-1h1v-2h1v1h1v-1h-1zM23 19h1v1h1v1h-3v-1h1zM26 19h1v1h-1zM1 20h2v2h1v1h-2v3h-1v-4h1v-1h-1zM13 20h2v1h2v1h1v1h-2v-1h-1v4h-1v-3h-1v-1h-1v-1h1zM20 20h1v1h-1zM19 21h1v1h-1zM26 21h1v1h1v2h-2v1h4v4h1v1h3v1h-2v2h-1v1h-8v-1h-1v-1h-1v-1h-1v1h1v1h-2v-3h1v-1h1v1h2v1h2v2h3v-1h-1v-1h1v-1h-1v1h-2v-2h-1v-1h-1v-3h1v2h1v-4h1zM33 21h1v2h-1zM20 22h3v1h-1v1h1v1h-1v2h-2v-2h-1v-1h-1v-1h2v1h1v-1h-1zM24 22h1v1h-1zM12 23h1v1h-1zM23 23h1v1h-1zM11 24h1v1h-1zM17 24h1v1h-1zM3 25h1v1h-1zM7 25h1v1h-1zM18 25h1v3h1v1h-2v1h-1v1h1v1h-1v1h2v1h-3v-2h-1v1h-1v-2h1v-1h-1v-1h3v-1h-1v-1h1v-1h1zM9 26h2v3h-1v1h1v2h-2v-4h1v-1h-1zM12 26h2v1h-2zM15 26h1v1h-1zM26 26v3h3v-3zM31 26h3v1h-1v1h1v1h-3zM1 27h7v7h-7zM14 27h1v1h-1zM27 27h1v1h-1zM2 28v5h5v-5zM22 28h1v1h-1zM3 29h3v3h-3zM23 29h1v1h-1zM12 30h1v1h-1zM29 31v1h1v-1zM11 32h1v1h-1zM9 33h2v1h-2zM21 33h1v1h-1zM32 33h1v1h-1z"/></svg>