<svg xmlns="http://www.w3.org/2000/svg" viewBox="0 0 35 35"><path d="M1 1h7v7h-7zM13 1h1v1h-1zM17 1h1v1h-1zM19 1h6v1h-3v1h-1v-1h-1v1h-1zM27 1h7v7h-7zM2 2v5h5v-5zM12 2h1v1h-1zM16 2h1v1h1v1h-3v-1h1zM25 2h1v2h-2v-1h1zM28 2v5h5v-5zM3 3h3v3h-3zM9 3h3v1h1v2h-1v-1h-2v4h-1zM13 3h1v1h-1zM22 3h1v1h-1zM29 3h3v3h-3zM19 4h2v1h-2zM23 4h1v1h1v1h-1v2h-1v-1h-1v-1h-1v-1h2zM15 5h4v1h-4zM13 6h2v1h-1v2h2v1h-1v1h2v1h-2v1h-1v-1h-1v-1h1v-1h-1v1h-1v1h1v1h-1v1h1v-1h1v2h-1v1h-1v-1h-1v-3h-2v-2h1v1h1v-1h1v-1h-1v-2h1v1h1zM19 6h2v1h-1v1h1v-1h1v1h1v1h-1v1h1v-1h2v-2h1v3h-1v1h-1v3h-1v-1h-1v-2h-3v1h1v1h-2v-2h-1v-1h1v-1h1v1h1v-1h-1zM15 7h1v1h-1zM17 7h1v2h-1zM1 9h1v1h1v-1h5v1h-1v1h-2v-1h-1v2h-2v1h-1zM10 9h1v1h-1zM27 9h5v2h1v1h-1v1h-1v1h-3v-1h1v-2h1v1h1v-1h-1v-1h-2v3h-1v-1h-1v1h-1v-2h2zM33 10h1v1h-1zM7 11h1v1h-1zM4 12h1v1h-1zM6 12h1v1h2v1h-2v1h2v-1h1v2h-1v1h2v-1h1v3h-1v-1h-1v1h-2v-1h-1v-1h1v-1h-1v1h-2v-1h1v-2h-1v-1h1zM2 13h1v1h-1zM15 13h1v1h-1zM17 13h1v1h-1zM20 13h1v1h-1zM26 13h1v1h-1zM32 13h2v2h-1v1h-1zM1 14h1v1h-1zM16 14h1v1h1v1h-1v1h2v1h-1v3h-1v1h2v2h-1v-1h-2v1h-1v2h-1v1h-1v-4h1v-2h1v-1h-3v-1h3v-1h1v1h1v-1h-1v-2h-1v-1h1zM18 14h2v1h-2zM22 14h1v2h2v1h-1v1h-1v-1h-2v-2h1zM24 14h1v1h-1zM27 14h1v3h-1v-1h-2v-1h2zM2 15h3v1h-3zM30 15h1v1h1v1h-2zM13 16h1v1h1v1h-2zM2 17h3v2h3v1h-1v1h1v1h-1v1h1v1h-2v1h-1v1h-2v-3h1v1h1v-1h1v-1h-1v1h-1v-1h-1v-2h1v-1h-1v-1h-1zM20 17h1v1h2v1h-1v1h3v1h-4v-2h-1v1h-1v-2h1zM26 17h1v1h1v-1h2v1h-1v1h-3zM33 17h1v2h-1zM1 18h1v1h-1zM24 18h1v1h-1zM30 18h2v1h1v1h-1v1h-1v2h2v1h1v1h-4v4h1v2h1v2h-1v1h-3v-2h-1v-1h1v-1h-1v1h-1v1h-1v1h1v1h-3v-1h1v-3h1v-1h-1v-1h-1v-3h1v2h1v-2h-1v-1h1v-1h1v1h2v-1h1v1h1v-2h-1v-3h1v1h1v-1h-1zM2 19h1v1h-1zM10 19h1v1h1v6h-2v1h-1v-1h-3v-1h5v-2h-2v-1h2v-1h-1zM5 20v1h1v-1zM8 20h1v1h-1zM26 20h1v2h-1zM33 20h1v1h-1zM19 21h2v1h2v1h1v1h-1v1h-2v1h1v1h-3v1h2v1h-3v1h-1v1h2v-1h4v3h-1v-1h-1v-1h-1v1h-3v2h-2v-1h1v-4h-1v3h-1v-1h-1v-1h1v-1h-1v-1h3v-1h1v-3h1v1h1v1h1v-2h1v-1h-1v-1h-1zM32 21h1v1h-1zM1 22h1v4h-1zM24 22h1v1h-1zM27 22h1v1h-1zM33 22h1v1h-1zM26 26v3h3v-3zM31 26h1v1h1v1h-1v1h-1zM33 26h1v1h-1zM1 27h7v7h-7zM10 27h1v1h1v1h1v1h-1v1h-1v-1h-1v2h-1v-4h1zM12 27h1v1h-1zM27 27h1v1h-1zM2 28v5h5v-5zM22 28h1v1h-1zM3 29h3v3h-3zM23 29h1v1h-1zM32 29h1v1h1v1h-2zM12 31h1v2h-1zM29 31v1h1v-1zM20 32h1v1h-1zM26 32h1v1h-1zM9 33h1v1h-1zM13 33h1v1h-1zM18 33h1v1h-1zM32 33h1v1h-1z"/></svg>