<svg xmlns="http://www.w3.org/2000/svg" viewBox="0 0 35 35"><path d="M1 1h7v7h-7zM10 1h1v1h-1zM12 1h2v3h-2v-1h-1v-1h1zM15 1h1v1h-1zM17 1h1v3h-1v1h2v1h-4v-1h1v-1h-1v-1h1v-1h1zM19 1h4v1h-3v1h-1zM24 1h1v1h-1zM27 1h7v7h-7zM2 2v5h5v-5zM25 2h1v1h-1zM28 2v5h5v-5zM3 3h3v3h-3zM9 3h2v1h-1v5h-1zM20 3h1v2h-2v-1h1zM22 3h3v1h-1v1h1v1h-2v-2h-1zM29 3h3v3h-3zM12 5h1v1h-1zM21 5h1v1h-1zM11 6h1v2h-1zM13 6h1v2h-1zM20 6h1v1h-1zM22 6h1v1h-1zM15 7h1v1h-1zM17 7h1v2h1v3h2v1h-3v-1h-3v1h-1v-3h-2v1h1v1h-2v1h3v1h-2v1h-3v-1h1v-5h2v-1h1v1h3v1h-1v1h2zM19 7h1v1h-1zM21 7h1v1h1v-1h1v2h1v-2h1v3h-1v1h-5v-3h1zM1 9h1v1h-1zM3 9h5v1h-2v1h-1v-1h-1v1h1v1h2v1h2v1h-2v1h-2v-2h-1v2h-1v1h-1v1h-1v-3h2v-1h-1v-1h1zM21 9v1h2v-1zM27 9h5v1h2v1h-1v1h-1v1h-1v1h-3v-1h1v-2h1v1h1v-1h-1v-1h-2v1h-1zM1 11h1v1h-1zM7 11h1v1h-1zM25 11h2v1h1v1h-1v1h-2v-1h-1v-1h1zM22 12h1v1h-1zM15 13h1v1h-1zM17 13h1v1h-1zM23 13h1v1h1v1h-1v1h1v-1h2v-1h1v2h-2v1h-2v1h1v1h-2v1h1v1h-2v-1h-1v-1h-1v-2h1v-2h1v1h1v-1h-1v-1h1zM32 13h1v1h1v1h-1v1h-1v-1h-1v-1h1zM14 14h1v1h-1zM16 14h1v1h1v1h-1v2h-2v-2h1zM18 14h2v3h-1v-2h-1zM7 15h2v1h3v2h-1v-1h-1v1h-1v1h-1v-1h-1v-1h1v-1h-1zM12 15h1v1h-1zM29 15h1v1h-1zM3 16h2v1h-1v1h-1zM28 16h1v1h1v1h-1v1h-1v2h-1v-3h1zM30 16h2v1h-2zM5 17h1v1h-1zM13 17h1v1h-1zM18 17h1v1h-1zM22 17v1h1v-1zM26 17h1v1h-1zM33 17h1v2h-1v1h-1v1h-1v1h-3v-1h1v-2h1v1h1v-1h-1v-1h3zM1 18h2v2h-1v1h1v2h-1v3h-1zM4 18h1v1h-1zM6 18h1v1h-1zM12 18h1v1h1v-1h1v3h2v1h2v1h1v1h1v-1h-1v-1h2v2h1v1h-1v2h-3v1h1v1h-2v1h-1v1h1v1h-1v1h2v1h-4v-2h1v-3h1v-1h-2v-1h2v-3h1v1h1v1h1v-1h-1v-1h-1v-1h-2v-1h-1v1h-1v-1h-1v2h-1v-1h-1v-1h-1v-1h1v-1h-1v-1h2zM17 18h1v3h-1v-1h-1v-1h1zM5 19h1v1h1v1h-2zM7 19h1v1h-1zM19 19h1v1h-1zM8 20h1v2h1v1h-1v1h-3v1h-1v1h-2v-3h1v1h1v-2h1v1h2v-1h-1v-1h1zM13 20v1h1v-1zM25 20h1v1h-1zM33 20h1v3h-1v-1h-1v-1h1zM19 21h1v1h-1zM26 21h1v1h1v1h1v1h-1v1h1v-1h2v-1h2v1h1v1h-4v4h1v1h-1v1h-1v1h2v-1h1v2h-2v1h-7v-1h1v-1h1v1h3v-1h-3v-1h1v-1h-1v-1h-1v-1h-1v-1h2v-1h-2v-1h1v-1h1v-1h1zM24 22h1v1h-1zM15 23h1v1h-1zM11 24h1v1h-1zM13 24h1v1h1v2h-1v1h-1v2h1v-2h1v4h-2v-1h-1v-1h-1v1h-1v1h-1v-4h1v1h1v-2h2v-1h-1v-1h1zM7 25h3v1h1v1h-2v-1h-2zM26 26v3h3v-3zM31 26h1v1h1v1h1v3h-2v-2h-1zM33 26h1v1h-1zM1 27h7v7h-7zM27 27h1v1h-1zM2 28v5h5v-5zM21 28h2v1h-2zM3 29h3v3h-3zM23 29h1v1h-1zM19 30h4v1h-1v1h-1v-1h-2zM27 30v1h1v-1zM23 31h1v1h-1zM10 32h2v2h-1v-1h-1zM19 32h2v1h-2zM22 32h1v1h-1zM9 33h1v1h-1zM32 33h1v1h-1z"/></svg>