<svg xmlns="http://www.w3.org/2000/svg" viewBox="0 0 35 35"><path d="M1 1h7v7h-7zM11 1h1v1h1v1h1v1h-1v2h1v-1h2v-1h-1v-1h1v-1h1v-1h1v2h-1v2h1v1h-3v1h-1v1h-1v-1h-1v1h-1v-2h-1v2h1v1h-2v-6h1v-1h1zM20 1h5v1h-1v1h1v1h-1v1h-1v-1h-1v-1h1v-1h-1v1h-1v-1h-1zM27 1h7v7h-7zM2 2v5h5v-5zM19 2h1v1h-1zM25 2h1v1h-1zM28 2v5h5v-5zM3 3h3v3h-3zM29 3h3v3h-3zM11 4v1h1v-1zM19 4h1v1h-1zM25 4h1v1h-1zM21 5h2v2h-1v-1h-1zM24 5h1v1h-1zM18 6h3v1h-1v1h-1v-1h-1zM15 7h1v4h1v1h-2v1h-1v1h-3v-1h1v-3h-1v-1h2v3h1v-3h1zM17 7h1v2h-1zM21 7h1v1h1v1h-2v1h1v1h1v-2h2v2h-1v1h-1v1h-2v1h-1v-1h-2v-2h-1v-1h1v-1h1v1h1v-2h1zM23 7h1v1h-1zM25 7h1v2h-1zM1 9h1v1h1v-1h5v1h-1v1h-1v-1h-2v2h-1v-1h-1v1h-1zM27 9h5v1h2v1h-1v1h-1v1h-1v1h-3v-1h1v-2h1v1h1v-1h-1v-1h-2v1h-1zM8 10h1v1h1v3h-1v-2h-2v-1h1zM10 10h1v1h-1zM19 11v1h2v-1zM26 11h1v1h-1zM2 12h1v1h-1zM6 12h1v1h1v1h-2zM24 12h2v1h-2zM27 12h1v1h-1zM1 13h1v1h-1zM3 13h2v3h1v1h2v1h-2v1h2v-1h1v1h1v1h-1v1h-1v-1h-1v1h1v1h-3v-2h-1v-3h-1v-1h-1v-1h2v-1h-1zM15 13h1v1h-1zM17 13h1v1h-1zM23 13h1v1h1v1h-2v1h1v2h-1v-1h-2v-2h1v-1h1zM26 13h1v1h-1zM33 13h1v2h-1v1h-1v-1h-1v-1h2zM14 14h1v2h-1zM16 14h1v1h2v1h-2v2h-1zM19 14h1v1h-1zM27 14h1v1h3v1h1v1h-1v1h1v1h1v2h-2v1h-3v-1h1v-2h1v1h1v-1h-1v-1h-1v1h-1v2h-1v1h-2v-1h-1v-1h1v-1h1v1h1v-1h-1v-1h-1v-1h2v1h1v-1h1v-1h-1v1h-1zM7 15h2v1h-2zM12 15h1v1h-1zM25 15h1v1h-1zM1 16h1v1h-1zM9 16h2v2h-1v-1h-1zM13 16h1v1h1v1h-1v1h1v1h-2v-2h-1v-1h1zM19 16h1v1h-1zM18 17h1v1h-1zM20 17h1v1h2v1h1v1h-1v1h-2v-1h1v-1h-2v1h-1v-2h1zM33 17h1v2h-1zM1 18h1v2h-1zM17 18h1v3h-3v-1h1v-1h1zM24 18h1v1h-1zM11 20h2v2h-1v-1h-1zM9 21h2v1h1v1h1v-1h1v2h-2v2h-1v1h-2v-2h-1v-1h-1v1h-2v-2h3v-1h1zM19 21h2v1h1v2h1v1h-2v1h1v2h1v1h-5v1h-1v1h2v1h-2v1h2v1h-3v-2h-1v-1h1v-1h-1v1h-1v-1h-1v-1h-1v-1h-1v-1h3v2h1v-2h2v1h1v-1h-1v-1h1v-1h1v1h1v-2h1v-1h-1v-1h-1zM1 22h2v1h-1v3h-1zM4 22h1v1h-1zM16 22h2v1h-2zM24 22h1v1h-1zM27 22h1v1h2v1h2v-1h1v1h1v1h-3v1h-1v3h1v1h-1v1h-1v1h3v1h-2v1h-3v-1h1v-1h-1v1h-1v-1h-1v-3h-1v-1h-1v-1h2v-3h2v1h2v-1h-2zM31 22h1v1h-1zM33 22h1v1h-1zM3 23h1v3h-1zM10 23v2h1v-2zM15 23h1v3h-1v1h-1v-1h-1v-1h1v-1h1zM18 23h2v1h-2zM23 23h1v1h-1zM17 24h1v1h-1zM7 25h1v1h-1zM23 25h1v1h-1zM26 26v3h3v-3zM31 26h1v1h1v1h-1v1h-1zM33 26h1v1h-1zM1 27h7v7h-7zM19 27v1h2v-1zM27 27h1v1h-1zM2 28v5h5v-5zM9 28h2v1h1v3h-1v-1h-1v1h-1zM3 29h3v3h-3zM23 29h1v1h-1zM32 29h1v1h1v1h-3v-1h1zM19 30h4v1h-1v1h-1v-1h-2zM27 30v1h1v-1zM13 31h1v1h-1zM23 31h1v1h-1zM14 32h1v2h-1zM19 32h2v1h-2zM22 32h1v1h-1zM24 32h1v1h1v1h-3v-1h1zM9 33h2v1h-2zM32 33h1v1h-1z"/></svg>