<svg xmlns="http://www.w3.org/2000/svg" viewBox="0 0 35 35"><path d="M1 1h7v7h-7zM10 1h2v3h-2v4h1v-1h1v1h1v-1h1v2h-2v2h-1v2h1v1h-1v1h-1v-1h-1v-1h-1v-1h-1v1h1v1h-2v-2h-1v-1h1v-1h-1v1h-1v-1h-1v-1h5v1h-1v1h3v-1h1v-1h-2v-6h1zM13 1h1v3h-1zM17 1h1v2h-2v-1h1zM19 1h3v1h-2v1h-1zM24 1h1v1h-1zM27 1h7v7h-7zM2 2v5h5v-5zM23 2h1v1h1v1h1v1h-1v1h-1v-1h-1v-1h-2v-1h2zM28 2v5h5v-5zM3 3h3v3h-3zM15 3h1v1h-1zM29 3h3v3h-3zM16 4h1v1h1v1h-3v-1h1zM19 4h2v1h-2zM11 5h2v2h-1v-1h-1zM21 5h1v1h-1zM18 6h1v1h-1zM20 6h1v1h-1zM22 6h2v2h-1v-1h-1zM25 6h1v2h-1zM15 7h1v3h-1v1h2v1h1v-1h-1v-4h1v2h1v1h1v-2h1v-1h1v1h1v1h-2v1h2v-1h1v1h1v1h-1v1h-1v1h-1v-1h-1v-1h-2v1h1v1h-2v1h-1v1h1v1h-1v1h2v1h-1v1h-1v-1h-2v-1h-1v-1h2v-2h-1v-1h1v-1h-1v1h-1v-4h1zM19 7h1v1h-1zM1 9h1v1h-1zM25 9h1v1h-1zM27 9h5v1h2v1h-1v1h1v1h-1v1h1v1h-1v1h-1v-1h-1v-1h1v-1h-1v1h-2v-3h1v1h1v-1h-1v-1h-2v1h-1zM2 10h1v1h-1zM1 11h1v2h-1zM3 11h1v1h-1zM25 11h1v1h-1zM12 12h1v1h-1zM24 12h1v1h-1zM26 12h1v2h-1zM20 13h1v1h-1zM23 13h1v1h-1zM2 14h2v3h1v1h2v1h-1v1h1v1h-3v-2h-2v1h-1v-3h1v1h1v-1h-1v-1h1v-1h-1zM13 14h2v1h-2zM18 14h2v1h-2zM24 14h1v1h-1zM27 14h1v1h3v1h1v1h-2v1h-1v1h-2v3h-2v1h-1v-2h-2v-1h1v-1h-3v1h-1v-2h1v-1h1v1h2v-1h1v1h1v1h-1v1h1v1h1v-6h1zM1 15h1v1h-1zM7 15h1v1h-1zM9 15h1v1h1v1h-3v-1h1zM11 15h2v1h-2zM21 15h1v1h1v1h-2zM19 16h1v1h-1zM24 16h1v1h-1zM27 16v2h1v-2zM7 17h1v1h-1zM13 17h1v1h-1zM33 17h1v2h-1zM8 18h2v1h-1v1h3v2h-1v1h-2v-2h-1v-1h-1v-1h1zM11 18h1v1h-1zM30 18h2v1h1v1h1v3h-1v-2h-2v1h-2v-3h1v1h1v-1h-1zM12 19h1v1h-1zM14 19h1v1h1v-1h1v2h-1v1h2v1h-2v2h-2v-1h-1v2h-1v1h1v2h-1v2h1v-1h1v2h-3v2h-2v-1h1v-1h-1v-4h2v-2h-1v-1h2v-1h-1v-1h2v-2h1zM2 20h1v1h-1zM1 21h1v5h-1zM3 21h1v1h3v1h1v1h-1v1h-2v-1h-2zM7 21h1v1h-1zM19 21h1v1h-1zM14 22v1h1v-1zM20 22h3v1h-1v1h1v1h-1v3h-1v-1h-1v-3h1v-1h-1zM27 22h1v1h-1zM26 23h1v1h-1zM28 23h1v1h1v-1h3v1h1v1h-3v1h-1v3h1v1h-1v1h-1v1h1v-1h1v1h1v1h-1v1h-4v-2h-2v1h1v1h-3v-1h1v-1h-1v-1h1v-1h1v-1h-1v-1h-1v-1h2v-2h3zM9 24h1v1h-1zM17 24h1v1h-1zM3 25h2v1h-2zM7 25h2v1h-2zM18 25h1v3h1v1h-2v-1h-1v1h-1v-2h1v-1h1zM23 25h1v1h-1zM9 26h1v1h-1zM15 26h1v1h-1zM26 26v3h3v-3zM31 26h1v1h1v1h-1v1h-1zM33 26h1v1h-1zM1 27h7v7h-7zM14 27h1v2h1v1h-2zM27 27h1v1h-1zM2 28v5h5v-5zM22 28h1v1h-1zM3 29h3v3h-3zM10 29v2h1v-2zM17 29h1v1h-1zM20 29h1v1h1v2h-1v-1h-1v1h1v1h-2v-1h-2v1h2v1h-4v-1h1v-1h-1v-1h1v-1h1v1h2v-1h1zM23 29h1v1h-1zM32 29h1v1h1v1h-3v-1h1zM27 30v1h1v-1zM22 32h1v1h-1zM12 33h1v1h-1zM21 33h1v1h-1zM32 33h1v1h-1z"/></svg>