<svg xmlns="http://www.w3.org/2000/svg" viewBox="0 0 35 35"><path d="M1 1h7v7h-7zM10 1h2v1h-2zM13 1h1v4h2v-1h-1v-1h1v-1h1v-1h1v3h-1v1h2v1h-3v2h-1v-1h-1v2h-1v-3h-1v-1h-1v-1h1v-2h1zM19 1h3v1h-2v1h-1zM23 1h2v1h-1v3h1v1h-2v1h-1v-1h-1v-1h2v-1h-2v-1h1v-1h1zM27 1h7v7h-7zM2 2v5h5v-5zM28 2v5h5v-5zM3 3h3v3h-3zM9 3h2v1h-1v1h1v1h1v2h-1v-1h-1v2h-1zM29 3h3v3h-3zM19 4h1v1h-1zM25 4h1v1h-1zM19 6h2v1h-1v1h1v-1h1v1h1v-1h1v1h1v1h-1v1h-1v-1h-1v1h1v2h4v2h1v2h1v1h1v1h-1v1h-3v-1h-1v-1h-1v1h-1v-1h-1v2h-2v-2h1v-2h1v1h1v-1h1v1h1v-1h1v-1h-1v-1h-1v1h-1v-1h-2v-2h-1v-2h-1zM17 7h1v2h1v3h1v1h-2v1h-1v-2h1v-1h-1zM25 7h1v1h-1zM1 9h1v1h1v1h-1v1h1v1h-2zM3 9h5v1h-2v3h-1v1h-1v1h1v2h-1v-1h-2v-1h1v-2h1v-1h-1v-1h2v-1h-2zM10 9h1v1h1v-1h1v1h1v-1h2v2h1v1h-2v1h-1v-2h-1v1h-1v-1h-2zM27 9h5v2h1v1h-1v1h-1v1h-2v-3h1v1h1v-1h-1v-1h-2v2h-1zM8 10h1v1h1v1h-1v1h-1v-1h-1v-1h1zM24 10h1v1h-1zM33 10h1v1h-1zM7 13h1v1h-1zM9 13h1v2h-2v-1h1zM11 13h1v1h-1zM13 13h1v1h1v1h-1v2h-2v-3h1zM15 13h1v1h-1zM33 13h1v2h-1v1h-1v-2h1zM1 14h1v1h-1zM6 14h1v1h-1zM16 14h1v1h2v-1h1v3h-1v-1h-2v2h-2v-3h1zM22 14h1v1h-1zM24 14h1v1h-1zM7 15h1v1h-1zM30 15h1v1h1v1h-2zM9 16h2v2h-1v1h1v1h-2v-1h-1v-1h-1v-1h2zM26 16v1h1v1h1v-1h-1v-1zM1 17h1v1h-1zM3 17h1v1h-1zM5 17h1v1h-1zM18 17h1v1h-1zM33 17h1v2h-1v1h-1v1h-1v2h-1v-1h-2v-1h1v-2h1v1h1v-1h-1v-1h3zM6 18h1v1h-1zM11 18h2v1h1v1h-2v-1h-1zM14 18h1v1h-1zM17 18h1v3h-1v-1h-1v-1h1zM24 18h1v1h-1zM3 19h2v1h1v2h1v1h-2v-2h-1v1h-1v-1h-1v-1h1zM7 19h1v1h-1zM19 19h1v1h-1zM22 19h1v1h1v1h-2zM25 19h1v2h1v1h-2zM11 20h1v1h2v4h2v1h-2v1h3v-1h1v-1h1v3h2v1h-3v-1h-2v1h2v1h-1v1h1v-1h5v1h-1v1h-1v-1h-1v1h1v1h-2v-1h-2v2h-1v-4h-1v-1h-2v-2h-1v1h-1v-1h-2v-1h1v-3h1v1h1v1h1v-1h-1v-2h-1zM27 20h1v1h-1zM33 20h1v3h-1zM1 21h1v1h1v1h-1v3h-1zM7 21h3v1h-1v1h-1v-1h-1zM15 21h1v1h-1zM19 21h2v1h2v1h-1v1h1v1h-2v1h1v1h-2v-3h1v-1h-1v-1h-1zM16 22h3v1h-3zM24 22h1v1h-1zM27 22h1v1h-1zM3 23h1v1h1v1h-1v1h-1zM7 23h1v1h-1zM15 23h1v1h-1zM19 23h1v1h-1zM23 23h1v1h-1zM25 23h1v1h-1zM29 23h1v1h-1zM32 23h1v1h1v1h-3v1h-1v3h1v1h-1v1h-1v1h3v1h-1v1h-3v-1h-2v-1h1v-1h1v-1h-1v1h-2v2h1v1h-3v-1h1v-3h1v-1h-1v-1h-1v-1h1v-1h1v-1h5v-1h2zM6 24h1v1h-1zM8 24h1v2h-2v-1h1zM17 24h1v1h-1zM5 25h1v1h-1zM23 25h1v1h-1zM26 26v3h3v-3zM31 26h3v1h-1v1h1v1h-3zM1 27h7v7h-7zM27 27h1v1h-1zM2 28v5h5v-5zM9 28h1v4h-1zM22 28h1v1h-1zM3 29h3v3h-3zM23 29h1v1h-1zM14 30h1v1h-1zM31 30h3v1h-3zM12 31h2v2h-1v1h-2v-1h-1v-1h2zM22 32h1v1h-1zM9 33h1v1h-1zM14 33h1v1h-1zM18 33h1v1h-1zM32 33h1v1h-1z"/></svg>