<svg xmlns="http://www.w3.org/2000/svg" viewBox="0 0 35 35"><path d="M1 1h7v7h-7zM9 1h1v2h-1zM12 1h1v1h-1zM15 1h1v3h-2v-1h1zM17 1h1v1h1v1h-2zM19 1h3v1h-3zM24 1h1v2h-1zM27 1h7v7h-7zM2 2v5h5v-5zM13 2h1v1h-1zM28 2v5h5v-5zM3 3h3v3h-3zM12 3h1v1h-1zM19 3h3v1h-2v2h-1zM23 3h1v1h1v1h-2zM25 3h1v1h-1zM29 3h3v3h-3zM9 4h3v4h-1v-1h-1v-1h1v-1h-2zM13 4h1v1h-1zM16 4h1v1h-1zM17 5h1v1h1v1h-1v1h1v-1h1v1h1v1h-1v1h2v1h-2v1h-1v-1h-1v1h-1v-2h1v-1h-1v1h-1v1h-1v1h-2v-1h-1v-2h1v-3h2v1h-1v3h1v-1h1v-1h1v-1h-1v-1h1zM22 5h1v2h-1zM25 5h1v4h-1zM9 7h1v1h1v3h-3v-1h-2v-1h3v1h1v-1h-1zM15 7h1v1h-1zM21 7h1v1h-1zM23 7h1v1h-1zM1 9h1v1h-1zM3 9h2v1h1v1h-1v2h1v-2h2v1h-1v1h3v-1h1v2h1v-2h1v1h1v1h1v-1h1v3h-1v3h1v-1h1v1h1v1h-1v1h-1v-1h-1v1h-1v-1h-1v-1h1v-1h-1v-1h1v-2h-1v2h-3v-1h1v-1h-1v-1h-1v2h-3v-2h-1v2h-1v-1h-1v-1h1v-1h-1v-2h1v-1h-1zM22 9h1v1h-1zM24 9h1v4h1v-2h1v-2h1v2h2v-2h1v1h1v-1h2v3h-1v3h-1v-4h-1v4h-1v-1h-1v-1h1v-1h-1v1h-2v1h-1v1h-1v-1h-1v1h-1v-2h1zM1 12h1v1h-1zM16 12h1v1h-1zM18 12h1v1h-1zM21 12h1v1h-1zM2 13h1v1h-1zM17 13h1v1h-1zM7 14v1h1v-1zM18 14h1v1h-1zM21 14h1v1h1v2h1v-1h1v1h1v-1h1v-1h1v-1h1v2h-1v4h-1v-1h-1v1h-1v-1h-2v-1h-1v1h-1v-1h-2v-1h2v-1h-2v-1h2zM1 15h1v1h1v1h1v2h-1v-1h-1v-1h-1zM31 15h1v3h-1v-1h-1v-1h1zM16 16h1v1h-1zM7 17h2v1h-2zM29 17h1v1h1v1h-1v2h-1v1h-1v-2h1zM1 18h1v1h-1zM5 18h2v1h-2zM11 18h2v1h-1v1h-1zM32 18h2v1h-1v1h-2v-1h1zM2 19h1v1h-1zM4 19h1v1h-1zM7 19h1v1h-1zM19 19h1v1h1v1h-3v-1h1zM1 20h1v1h-1zM8 20h1v1h-1zM10 20h1v1h-1zM12 20h1v1h-1zM23 20h1v2h-2v-1h1zM26 20h1v1h-1zM33 20h1v1h-1zM4 21h2v1h-1v2h-2v-1h-2v-1h3zM7 21h1v1h-1zM11 21h1v1h-1zM13 21h1v1h-1zM15 21h1v1h-1zM17 21h1v1h1v1h-2v2h-1v-1h-1v-1h1v-1h1zM30 21h3v1h-1v1h-1v-1h-1zM6 22h1v1h2v-1h1v2h-1v1h-1v-1h-1v1h-2v-1h1zM14 22h1v1h-1zM20 22h2v1h-2zM24 22h1v3h-1zM26 22h2v1h1v1h2v1h-1v1h1v1h-1v3h-4v1h-2v2h-1v-1h-1v1h1v1h-5v-2h1v-1h1v1h1v-4h1v-2h1v3h1v-2h1v-2h1zM33 22h1v3h-1v-1h-1v-1h1zM12 23h2v1h-1v1h-2v-1h1zM2 24h1v1h-1zM14 24h1v1h-1zM19 24h1v1h-1zM21 24h1v1h-1zM27 24v1h1v-1zM1 25h1v1h-1zM7 25h1v1h-1zM10 25h1v1h3v1h-1v3h-1v-3h-1v1h-1v1h-1v-3h1zM15 25h1v1h-1zM18 25h1v1h-1zM20 25h1v3h-1v2h-1v1h-1v1h-2v-1h1v-2h1v-1h-1v-1h-1v-1h2v1h1v-1h1zM23 25h1v1h-1zM26 26v3h3v-3zM32 26h1v1h-1zM1 27h7v7h-7zM27 27h1v1h-1zM2 28v5h5v-5zM16 28h1v1h-1zM31 28h1v3h-1zM3 29h3v3h-3zM10 29h1v1h1v1h-1v1h-2v-2h1zM14 29h1v1h-1zM33 29h1v2h-1zM15 30h1v1h-1zM22 30v1h1v-1zM12 31h2v1h-2zM27 31h2v1h-1v2h-1zM14 32h2v2h-2zM25 32h1v1h-1zM29 32h1v1h-1zM33 32h1v1h-1zM9 33h1v1h-1zM24 33h1v1h-1zM31 33h1v1h-1z"/></svg>