<svg xmlns="http://www.w3.org/2000/svg" viewBox="0 0 35 35"><path d="M1 1h7v7h-7zM12 1h2v5h-1v1h-1v2h1v2h-2v-1h-1v-1h1v-2h-1v2h-1v-6h1v1h1v-1h1zM15 1h1v1h-1zM17 1h1v1h-1zM19 1h3v1h-2v1h-1zM24 1h1v1h-1zM27 1h7v7h-7zM2 2v5h5v-5zM10 2h1v1h-1zM16 2h1v1h-1zM22 2h1v1h1v1h2v1h-1v1h-1v-1h-1v-1h-2v-1h1zM25 2h1v1h-1zM28 2v5h5v-5zM3 3h3v3h-3zM15 3h1v1h-1zM17 3h1v1h-1zM29 3h3v3h-3zM12 4v1h1v-1zM19 4h2v1h-2zM15 5h4v1h2v1h-1v1h-1v-1h-1v-1h-3zM21 5h1v1h-1zM22 6h2v2h-1v-1h-1zM25 6h1v4h-1v1h-1v-1h-1v-1h1v-1h1zM13 7h1v1h-1zM15 7h1v3h-1v1h2v-1h1v-1h1v1h1v-2h1v-1h1v1h1v1h-2v1h2v2h1v2h-1v-1h-1v-1h-1v-1h-2v1h2v1h-3v-1h-3v1h-2v-2h1v-2h1zM17 7h1v2h-1zM1 9h1v1h-1zM3 9h5v1h-3v2h-1v-1h-2v-1h1zM27 9h5v2h1v1h-1v1h-1v1h-2v-3h1v1h1v-1h-1v-1h-2v1h-1zM9 10h1v1h-1zM33 10h1v1h-1zM1 11h1v1h2v2h2v1h-1v2h1v1h1v1h-2v2h-1v-6h-1v-1h-1v1h-1zM6 11h3v1h-3zM10 11h1v1h1v1h1v1h-2v-1h-1zM26 11h1v3h-2v-1h1zM33 12h1v3h-1v1h-1v-3h1zM7 13h2v2h-1v-1h-1zM15 13h3v1h-1v1h1v1h-1v1h2v1h-1v1h-1v-1h-1v-1h-1v-1h-1v-2h1v1h1v-1h-1zM18 14h2v2h-1v-1h-1zM24 14h1v1h-1zM27 14h1v1h-1zM6 15h2v1h-1v1h-1zM9 15h2v1h-2zM12 15h1v1h-1zM21 15h2v2h-2zM25 15h1v1h2v1h-1v1h1v-1h1v-1h1v-1h1v1h1v1h-1v1h1v1h1v1h-1v1h-1v1h-3v-1h1v-2h1v1h1v-1h-1v-1h-1v1h-1v2h-1v-2h-1v-2h-1zM28 15h1v1h-1zM1 16h1v1h-1zM13 16h1v1h1v1h1v1h1v1h-1v2h2v1h-2v1h-1v-1h-2v-1h2v-3h-1v-1h-1zM7 17h2v1h1v1h-1v1h-2v-1h1v-1h-1zM20 17h1v1h2v-1h2v2h-1v1h-1v1h-2v-1h1v-1h-2zM33 17h1v2h-1zM1 18h1v1h-1zM11 18h1v1h2v1h-2v1h-1zM2 19h1v1h-1zM19 19h1v1h-1zM6 20h1v1h2v1h3v1h-2v1h-1v1h-1v-1h-1v-1h1v-1h-2zM33 20h1v3h-1zM1 21h1v1h1v1h-1v3h-1zM19 21h1v1h-1zM25 21h2v1h-2zM20 22h3v1h-1v1h1v1h-1v2h-3v1h4v1h-5v-2h-1v-1h1v-1h1v1h1v-1h-1v-1h2v-1h-1zM24 22h1v1h-1zM27 22h1v1h-1zM3 23h3v1h-1v1h-2zM12 23h1v1h-1zM18 23h1v1h-1zM23 23h1v1h-1zM28 23h5v1h1v1h-4v-1h-1v1h1v4h1v1h1v-1h2v2h-5v1h3v1h-2v1h-7v-1h-1v-1h1v-1h2v2h2v-2h1v-1h-1v1h-2v-2h-1v-1h-1v-3h1v2h1v-2h1v-1h2zM6 24h1v1h-1zM11 24h1v1h1v-1h1v2h-1v1h4v2h-1v-1h-1v1h-1v2h1v3h-2v-1h-2v-1h-2v-4h1v3h2v1h1v-1h-1v-1h1v-2h-1v-1h-1v-1h-1v1h-1v-2h2zM17 24h1v1h-1zM5 25h1v1h-1zM7 25h1v1h-1zM15 25h1v1h-1zM26 26v3h3v-3zM31 26h3v1h-1v1h-1v1h-1zM1 27h7v7h-7zM27 27h1v1h-1zM2 28v5h5v-5zM3 29h3v3h-3zM11 29h1v1h-1zM17 29h1v1h-1zM23 29h1v1h-1zM15 30h2v1h1v1h-1v1h2v1h-3v-3h-1zM18 30h5v1h-1v1h-1v-1h-1v1h-1v-1h-1zM20 32h1v1h-1zM9 33h1v1h-1zM21 33h1v1h-1zM32 33h1v1h-1z"/></svg>