<svg xmlns="http://www.w3.org/2000/svg" viewBox="0 0 35 35"><path d="M1 1h7v7h-7zM12 1h1v2h-1zM15 1h1v1h-1zM17 1h1v1h-1zM19 1h4v3h-1v-1h-1v-1h-1v1h-1zM24 1h1v1h-1zM27 1h7v7h-7zM2 2v5h5v-5zM10 2h1v1h1v2h-2v1h2v-1h4v-1h1v1h2v1h-5v2h-1v-1h-1v1h-1v-1h-1v2h-1v-6h1zM16 2h1v1h-1zM25 2h1v2h-1v2h-1v-1h-1v-1h1v-1h1zM28 2v5h5v-5zM3 3h3v3h-3zM15 3h1v1h-1zM17 3h1v1h-1zM29 3h3v3h-3zM19 4h1v1h-1zM21 5h1v1h-1zM20 6h1v1h-1zM22 6h1v1h-1zM25 6h1v4h-1zM15 7h1v4h1v-4h1v2h1v1h1v-2h1v-1h1v1h1v1h-1v3h1v-1h1v1h1v1h-1v1h-1v-1h-5v-1h-3v1h-1v-4h1zM19 7h1v1h-1zM23 7h1v1h-1zM1 9h1v1h-1zM3 9h5v1h-1v1h-3v-1h-1zM10 9h1v1h1v-1h1v2h-2v2h-1v-1h-1v-1h-1v-1h2zM23 9h1v1h-1zM27 9h5v2h1v1h-1v1h-1v1h-3v-1h1v-2h1v1h1v-1h-1v-1h-2v3h-1v-1h-2v-1h1v-1h1zM2 10h1v6h-1v-2h-1v-2h1zM24 10h1v1h-1zM33 10h1v1h-1zM7 11h1v1h-1zM19 11v1h2v-1zM4 12h1v1h-1zM6 12h1v1h1v1h-1v1h-1v-1h-1v-1h1zM11 13h3v1h-3zM15 13h3v1h-1v1h1v1h-1v1h2v1h-1v1h-1v-1h-1v-1h-2v-1h-1v-1h1v-1h1v2h1v-2h-1zM26 13h1v1h1v1h-1v1h-1zM32 13h2v2h-1v1h-1zM4 14h1v1h-1zM9 14h2v1h-2zM18 14h2v1h-2zM22 14h1v1h-1zM24 14h1v1h-1zM5 15h1v1h-1zM7 15h2v1h-2zM11 15h1v1h1v1h-1v1h-1v1h-1v-3h1zM21 15h1v1h1v-1h1v1h1v1h-1v1h-1v-1h-1v1h1v1h-1v1h-1v-1h-1v-2h1zM29 15h1v1h-1zM4 16h1v1h3v1h-1v1h1v-1h1v2h-2v1h-1v1h-1v-2h1v-1h-1v1h-2v-1h1v-1h-1v-1h1zM19 16h1v1h-1zM27 16h2v1h1v1h-1v1h-3v-1h-1v-1h2v1h1v-1h-1zM30 16h2v1h-2zM33 17h1v2h-1zM12 18h1v1h1v2h-3v1h4v1h-1v1h-1v-1h-2v1h2v2h-1v-1h-2v-1h-3v-1h1v-1h1v1h1v-3h1v-1h1zM14 18h2v1h1v3h1v1h-2v-2h-1v-2h-1zM24 18h1v1h-1zM30 18h2v1h1v1h-1v1h-1v1h1v1h-1v1h1v-1h1v1h1v1h-4v-1h-1v1h1v4h1v1h2v-1h1v2h-2v2h-1v1h-8v-1h5v-1h-3v-3h-1v-1h-1v-1h1v-1h-1v-1h4v-3h1v1h2v-1h-1v-3h1v1h1v-1h-1zM1 19h1v2h1v1h-1v4h-1zM19 19h1v1h-1zM23 19h1v1h-1zM25 19h1v1h2v1h-1v1h-2v1h-1v-2h1zM22 20h1v1h-1zM33 20h1v1h-1zM7 21h1v1h-1zM19 21h1v1h-1zM4 22h1v3h-1v-1h-1v-1h1zM20 22h2v1h1v2h-2v1h1v2h-1v-1h-1v-3h1v-1h-1zM33 22h1v1h-1zM6 24h1v1h-1zM14 24h1v1h1v1h-1v1h-1zM17 24h1v1h1v3h1v1h-2v-1h-2v-1h1zM3 25h1v1h-1zM7 25h3v1h1v1h2v1h3v1h-2v1h-1v-1h-1v-1h-1v1h1v2h-2v1h-1v-4h1v-1h-1v-1h-2zM26 26v3h3v-3zM31 26h1v1h1v2h-2zM33 26h1v1h-1zM1 27h7v7h-7zM27 27h1v1h-1zM2 28v5h5v-5zM22 28h1v1h-1zM3 29h3v3h-3zM16 29h2v1h-1v1h2v-1h4v1h-1v1h-1v-1h-1v1h1v1h-2v-1h-2v1h2v1h-3v-1h-1v-2h1zM23 29h1v1h-1zM14 30h1v1h-1zM27 30v1h1v-1zM29 31v1h2v-1zM11 32h1v1h-1zM22 32h1v1h-1zM9 33h1v1h-1zM12 33h1v1h-1zM32 33h1v1h-1z"/></svg>