<svg xmlns="http://www.w3.org/2000/svg" viewBox="0 0 35 35"><path d="M1 1h7v7h-7zM11 1h2v1h-2zM15 1h1v1h-1zM17 1h1v2h-2v-1h1zM20 1h2v2h-1v-1h-1zM23 1h2v1h-2zM27 1h7v7h-7zM2 2v5h5v-5zM13 2h1v2h-1v1h-1v-1h-1v-1h2zM19 2h1v1h-1zM28 2v5h5v-5zM3 3h3v3h-3zM9 3h1v2h1v1h-1v2h1v1h1v2h1v1h-2v-1h-1v1h-1v-2h1v-1h-1zM15 3h1v1h-1zM22 3h2v1h1v-1h1v2h-1v1h-4v-1h2v-1h-1zM29 3h3v3h-3zM16 4h1v1h1v1h-3v-1h1zM19 4h1v1h-1zM13 5h1v1h1v1h-1v1h-1zM19 6h2v1h-1v1h1v-1h1v1h1v1h-1v1h1v-1h3v1h-1v1h-2v2h-2v-1h1v-1h-2v-2h-1zM25 6h1v2h-1zM11 7h1v1h-1zM15 7h1v1h-1zM17 7h1v2h1v3h1v1h-2v-2h-1zM23 7h1v1h-1zM12 8h1v1h-1zM1 9h1v1h-1zM3 9h5v1h-1v1h1v1h-2v2h-1v-1h-4v-1h3v-1h-1zM13 9h3v2h1v2h1v1h-1v1h1v1h-1v1h2v1h-1v2h-2v-1h1v-1h-1v1h-1v1h1v1h-4v-1h-1v-1h2v-1h1v-1h2v-1h-2v-2h1v1h1v-1h-1v-1h1v-1h-1v1h-1v-3h-1zM27 9h5v2h1v2h1v2h-1v1h-1v-3h-1v2h-1v-1h-1v-3h1v1h1v-1h-1v-1h-2v3h-1v-2h-1v-1h1zM5 10v1h1v-1zM33 10h1v1h-1zM7 13h2v2h-1v-1h-1zM10 13h1v1h-1zM13 13h1v1h-1zM23 13h4v1h1v2h4v1h-2v1h-1v1h-1v2h-1v-3h1v-1h-1v-2h-1v-1h-1v1h-1v-1h-1zM4 14h1v2h-2v-1h1zM11 14h1v1h-1zM19 14h1v3h-1zM1 15h1v2h1v2h2v2h1v-1h1v1h1v1h-2v1h-1v-1h-1v-1h-2v1h1v1h-1v3h-1zM7 15h1v1h-1zM9 15h2v1h1v1h1v1h-2v1h-1v-2h-1zM12 15h1v1h-1zM21 15h2v1h3v1h1v1h-2v-1h-1v1h-1v-1h-2zM6 16h1v1h2v3h-2v-1h1v-1h-2zM4 17h1v1h-1zM20 17h1v1h1v1h1v2h-1v-1h-1v-1h-1zM33 17h1v2h-1zM5 18h1v1h-1zM24 18h1v1h-1zM30 18h2v1h1v1h-1v1h-1v3h1v-1h1v1h1v1h-4v-1h-2v1h2v4h1v2h-2v1h3v1h-2v1h-2v-1h-1v1h-4v-1h3v-1h-2v-2h1v-1h-1v-1h-1v-1h1v-1h1v-1h1v-1h1v-2h1v1h2v-1h-1v-3h1v1h1v-1h-1zM19 19h1v1h-1zM25 19h1v1h-1zM9 20h1v2h-1zM20 20h1v2h1v1h1v2h-2v1h1v2h-1v-1h-2v1h1v1h-2v-1h-1v1h-1v-2h1v-1h1v-1h1v1h1v-2h1v-1h-1v-1h-1v-1h1zM24 20h1v1h-1zM33 20h1v1h-1zM16 21h1v1h1v1h-2v1h-1v-2h1zM26 21h1v1h-1zM32 21h1v1h-1zM8 22h1v1h-1zM10 22h2v2h-3v-1h1zM24 22h1v1h-1zM33 22h1v1h-1zM3 23h2v1h-1v2h-1zM6 23h2v1h-2zM13 23h1v1h-1zM18 23h2v1h-2zM8 24h1v1h-1zM12 24h1v1h-1zM14 24h1v1h1v2h-1v-1h-2v-1h1zM17 24h1v1h-1zM6 25h2v1h-2zM9 25h1v1h1v1h1v2h-1v1h1v-1h1v2h-1v1h-1v-1h-1v1h-1v-4h1v-1h-1zM23 25h1v1h-1zM12 26h1v1h-1zM26 26v3h3v-3zM31 26h3v1h-1v3h1v1h-2v-2h-1zM1 27h7v7h-7zM13 27h1v2h-1zM27 27h1v1h-1zM2 28v5h5v-5zM22 28h1v1h-1zM3 29h3v3h-3zM17 29h1v1h-1zM23 29h1v1h-1zM14 30h3v1h2v1h-2v1h2v1h-3v-2h-1v-1h-1zM19 30h4v1h-1v1h-1v-1h-2zM27 30v1h1v-1zM10 32h1v2h-2v-1h1zM13 32h1v1h-1zM20 32h1v1h-1zM22 32h1v1h-1zM12 33h1v1h-1zM14 33h1v1h-1zM21 33h1v1h-1zM32 33h1v1h-1z"/></svg>