<svg xmlns="http://www.w3.org/2000/svg" viewBox="0 0 35 35"><path d="M1 1h7v7h-7zM10 1h1v2h-1zM12 1h2v3h-1v2h-1v2h-1v-1h-1v2h-1v-6h1v1h1v1h1v-1h-1v-1h2v-1h-1zM17 1h1v3h-1v-1h-1v-1h1zM19 1h3v1h-2v1h-1zM23 1h2v1h-2zM27 1h7v7h-7zM2 2v5h5v-5zM22 2h1v1h1v2h1v1h-1v3h1v2h-1v-1h-1v-1h-1v1h1v1h1v1h-1v1h-1v-2h-2v-3h1v-1h1v1h1v-1h-1v-1h-1v-1h2v-1h-3v-1h2zM25 2h1v3h-1zM28 2v5h5v-5zM3 3h3v3h-3zM15 3h1v1h-1zM29 3h3v3h-3zM19 4h1v1h-1zM14 5h5v1h-5zM13 6h1v3h1v-2h1v3h-1v1h2v1h-2v1h-1v-1h-1v-1h1v-1h-1v1h-1v-3h1zM19 6h2v1h-1v1h-1zM25 6h1v3h-1zM17 7h1v2h-1zM1 9h1v1h1v-1h5v1h-3v1h-3v2h-1zM10 9h1v2h1v1h-1v1h1v1h-3v1h-1v-1h-2v-2h1v1h3v-1h-3v-1h2v-1h1zM18 9h1v3h2v1h-3v-2h-1v-1h1zM27 9h5v1h2v1h-1v3h1v1h-1v1h-1v1h-2v-1h1v-1h-1v-1h-1v-3h1v1h1v-1h-1v-1h-2v1h-1zM5 11h1v1h-1zM25 11h1v1h2v1h-1v1h1v1h-2v-1h-1v1h-1v-1h-1v-1h2zM4 12h1v2h-1zM15 13h1v1h-1zM17 13h1v1h-1zM31 13v1h1v-1zM2 14h1v1h-1zM5 14h1v1h-1zM12 14h3v1h-3zM16 14h1v1h2v1h-2v2h-2v1h-1v-2h1v-1h1zM19 14h1v1h-1zM22 14h1v1h-1zM1 15h1v1h-1zM6 15h2v1h-2zM9 15h1v1h-1zM21 15h1v1h3v1h-1v1h-1v-1h-1v2h2v2h-2v-1h-1v-1h-1v-2h1zM25 15h1v1h-1zM2 16h2v1h2v1h-3v2h-2v-1h1zM8 16h1v2h-2v-1h1zM19 16h1v1h-1zM26 16h2v1h-1v1h1v-1h2v1h-1v1h-1v1h-1v-1h-1v-1h-1v-1h1zM10 17h3v4h-1v-1h-1v-2h-1zM18 17h1v1h-1zM33 17h1v2h-1v2h-2v1h-3v-1h1v-2h1v1h1v-1h-1v-1h3zM17 18h1v3h-1v-1h-1v-1h1zM24 18h1v1h-1zM5 19h1v2h-1v3h-1v-2h-1v-1h1v-1h1zM7 19h1v1h-1zM19 19h1v1h-1zM14 20h1v1h2v1h1v1h-2v-1h-2v2h1v2h-1v1h-1v1h-1v1h-1v-1h-1v-1h-1v-2h1v-2h1v-1h1v3h1v-4h1zM25 20h2v2h-2zM7 21h1v1h-1zM9 21h1v1h-1zM19 21h1v1h-1zM33 21h1v2h-1zM1 22h2v1h-1v3h-1zM6 22h1v1h-1zM8 22h1v1h-1zM20 22h2v1h1v2h-2v1h1v2h-1v-1h-1v-2h-1v-1h2v-1h-1zM24 22h1v1h-1zM27 22h1v1h-1zM31 22h1v1h-1zM7 23h1v1h-1zM15 23h1v1h-1zM25 23h2v1h-1v1h1v-1h1v-1h2v1h2v-1h1v1h1v1h-3v1h-1v3h1v1h2v-1h-2v-3h1v1h1v1h1v3h-3v1h1v1h-1v1h-3v-1h-1v-1h-2v1h2v1h-4v-1h1v-1h-1v-1h1v-1h1v1h1v-1h-1v-1h-1v-1h-1v-3h1v1h1zM5 24h1v2h-1zM8 24h1v1h-1zM17 24h1v1h1v3h1v1h-2v1h-1v1h2v-1h1v-1h1v1h2v1h-1v1h-1v-1h-1v1h1v1h-2v-1h-2v2h-1v-3h-2v-1h-1v1h1v1h1v1h-4v-3h1v-1h1v-1h1v-1h1v-1h1v1h1zM3 25h1v1h-1zM7 25h1v1h-1zM26 26v3h3v-3zM33 26h1v1h-1zM1 27h7v7h-7zM27 27h1v1h-1zM2 28v5h5v-5zM9 28h1v1h1v1h-1v2h-1zM15 28v1h1v-1zM22 28h1v1h-1zM3 29h3v3h-3zM23 29h1v1h-1zM27 30v1h1v-1zM29 31v1h1v-1zM22 32h1v1h-1zM9 33h2v1h-2zM18 33h1v1h-1zM32 33h1v1h-1z"/></svg>