<svg xmlns="http://www.w3.org/2000/svg" viewBox="0 0 27 27"><path d="M1 1h7v7h-7zM9 1h1v1h1v2h-2zM13 1h1v1h1v3h1v3h-1v-1h-1v1h-1v-3h1v-1h-1v1h-1v-2h1zM15 1h1v1h-1zM19 1h7v7h-7zM2 2v5h5v-5zM17 2h1v1h-1zM20 2v5h5v-5zM3 3h3v3h-3zM21 3h3v3h-3zM16 4h2v2h-1v-1h-1zM9 5h3v1h-1v1h-1v-1h-1zM9 7h1v1h-1zM11 7h1v1h-1zM17 7h1v2h1v2h-1v-1h-1v-1h-1v-1h1zM12 8h1v2h-1zM14 8h1v1h-1zM1 9h1v2h-1zM4 9h7v1h1v1h-3v1h-2v-1h1v-1h-2v1h-1v-1h-1zM15 9h1v1h1v2h-1v-1h-1zM21 9h1v1h1v-1h3v1h-1v1h-2v1h2v-1h1v3h-1v-1h-3v-2h-1v2h-1v-1h-1v-1h1v-1h1zM3 10h1v1h1v1h-1v1h-2v1h1v1h1v1h1v1h-1v1h-1v-2h-1v2h-1v-6h1v-1h1zM12 11h1v2h1v1h-2zM14 11h1v1h-1zM5 12h2v1h2v2h-1v-1h-2v1h-2v-1h1zM15 12h1v1h-1zM17 12h1v2h1v1h1v1h-1v1h1v-1h1v1h1v5h-2v1h-1v-1h-2v3h-2v-1h-1v-1h1v-2h-1v-1h3v-2h-2v1h-2v1h-2v-1h-1v3h1v2h-1v-1h-1v-5h2v-1h1v1h1v-1h3v-3h1zM19 13h1v1h-1zM21 14h1v1h2v-1h1v1h1v2h-1v-1h-1v1h1v2h-2v-2h-1v-1h-1zM7 15h1v1h-1zM11 15h4v1h-2v1h-1v-1h-1zM17 15v1h1v-1zM9 16h1v1h-1zM5 17h1v1h-1zM7 17h1v1h-1zM18 18v3h3v-3zM1 19h7v7h-7zM19 19h1v1h-1zM25 19h1v2h-2v-1h1zM2 20v5h5v-5zM3 21h3v3h-3zM11 21h3v1h-1v2h-1v-2h-1zM24 22h2v4h-1v-1h-2v-1h-1v1h-2v-1h1v-1h3zM18 23h1v1h-1zM11 24h1v2h-1zM9 25h1v1h-1zM13 25h1v1h-1zM17 25h2v1h-2zM22 25h1v1h-1z"/></svg>