<svg xmlns="http://www.w3.org/2000/svg" viewBox="0 0 35 35"><path d="M1 1h7v7h-7zM11 1h1v1h-1zM13 1h1v3h-1zM15 1h1v1h-1zM17 1h1v3h-1v-1h-1v-1h1zM19 1h3v1h-2v1h-1zM24 1h1v1h-1zM27 1h7v7h-7zM2 2v5h5v-5zM10 2h1v1h1v1h1v1h3v-1h1v1h2v1h2v1h-1v1h-1v-1h-1v-1h-3v1h-1v-1h-2v-1h-1v1h-1v3h-1v-6h1zM22 2h1v1h1v2h1v1h-1v4h-1v-1h-1v2h-3v1h1v1h-2v-1h-3v1h-2v2h-1v1h-2v-1h-2v-1h1v-1h-1v-1h1v-2h1v-1h1v2h-1v2h1v-2h1v1h2v-1h-2v-1h2v-1h2v1h-1v1h2v-4h1v2h1v1h1v-2h1v-1h1v1h1v-1h-1v-1h1v-2h-1zM25 2h1v1h-1zM28 2v5h5v-5zM3 3h3v3h-3zM15 3h1v1h-1zM29 3h3v3h-3zM19 4h2v1h-2zM25 4h1v1h-1zM21 5h1v1h-1zM11 6h1v2h1v-1h1v2h-3zM15 7h1v1h-1zM25 7h1v3h-1zM1 9h1v1h1v1h-1v1h1v-1h1v1h1v1h-2v2h3v1h-2v2h1v-1h3v1h-1v1h1v1h-2v1h-1v-2h-2v1h-1v-2h1v-1h-1v1h-1v-2h1v-1h-1v-1h1v-1h-1zM3 9h5v1h-3v1h-1v-1h-1zM27 9h5v2h1v1h1v1h-3v1h-3v-1h1v-2h1v1h1v-1h-1v-1h-2v1h-1v1h-1v-2h1zM24 10h1v1h-1zM33 10h1v1h-1zM7 11h1v1h-1zM22 11h1v1h1v2h1v1h-2v-2h-2v-1h1zM25 12h1v1h1v1h1v1h-2v-1h-1zM27 12h1v1h-1zM7 13h1v1h-1zM15 13h1v1h-1zM17 13h1v1h-1zM20 13h1v1h-1zM6 14h1v1h-1zM16 14h1v1h1v1h-1v2h-1zM19 14h1v1h-1zM31 14h3v1h-1v1h-1v-1h-1zM7 15h1v1h-1zM14 15h1v1h-1zM21 15h1v1h3v1h-1v1h-1v-1h-2zM25 15h1v1h-1zM28 15h2v1h2v1h-1v1h2v-1h1v2h-1v1h1v3h-1v-1h-1v-1h-1v1h-3v-1h1v-2h1v1h1v-1h-1v-1h-1v1h-2v1h1v1h-1v1h-1v-1h-1v-1h1v-4h2v1h-1v1h1v-1h1v-1h-1zM8 16h2v1h2v2h-3v-2h-1zM14 17h1v1h-1zM18 17h1v1h-1zM20 17h1v1h1v1h-2v1h-1v-2h1zM13 18h1v1h-1zM15 18h1v1h1v-1h1v2h-1v1h-1v-1h-1v1h1v1h-2v-3h1zM24 18h1v1h-1zM22 19h1v2h-1zM1 20h1v1h1v-1h1v2h-1v1h-1v3h-1zM12 20h1v1h-1zM20 20h1v2h2v1h1v1h-1v1h-1v2h-2v-3h1v-1h-1v-1h-1v-1h1zM6 21h3v1h1v1h-1v1h-4v-1h-1v-1h2v1h2v-1h-2zM10 21h1v1h-1zM24 21h1v2h-1zM11 22h2v1h2v1h1v1h-2v-1h-1v1h1v1h-1v2h-2v-1h1v-1h-1v1h-2v-3h1v-1h1zM16 22h2v1h-2zM27 22h1v1h-1zM31 22h1v1h-1zM3 23h1v1h1v2h-2zM18 23h2v1h-2zM25 23h1v1h2v-1h2v1h2v-1h1v1h1v1h-4v4h1v1h-1v1h-1v1h1v-1h1v1h1v1h-2v1h-7v-1h3v-1h1v-1h1v-1h-1v1h-1v1h-1v-1h-1v-1h1v-1h-1v-1h-1v-1h2v-1h-2v-1h1v-1h1zM11 24v1h1v-1zM17 24h1v1h1v3h1v1h-2v-1h-1v1h-1v-1h-1v-2h1v1h1zM6 25h2v1h-2zM26 26v3h3v-3zM31 26h1v1h1v1h-1v1h-1zM33 26h1v1h-1zM1 27h7v7h-7zM27 27h1v1h-1zM2 28v5h5v-5zM9 28h2v4h1v-1h2v1h-1v1h-2v1h-2v-1h1v-1h-1zM14 28h1v1h1v1h1v1h2v1h-2v2h-3v-2h1v1h1v-1h-1v-1h-1zM22 28h1v1h-1zM33 28h1v3h-3v-1h1v-1h1zM3 29h3v3h-3zM12 29h1v1h-1zM17 29h1v1h-1zM23 29h1v1h-1zM19 30h3v2h-1v-1h-2zM20 32h1v1h-1zM22 32h1v1h-1zM18 33h1v1h-1zM21 33h1v1h-1zM32 33h1v1h-1z"/></svg>