<svg xmlns="http://www.w3.org/2000/svg" viewBox="0 0 35 35"><path d="M1 1h7v7h-7zM10 1h1v1h1v1h-2zM12 1h2v1h-2zM15 1h1v1h-1zM17 1h1v1h-1zM19 1h3v1h1v1h2v-1h1v3h-1v-1h-1v1h-1v-1h-1v-1h-1v-1h-1v1h-1zM24 1h1v1h-1zM27 1h7v7h-7zM2 2v5h5v-5zM16 2h1v1h-1zM28 2v5h5v-5zM3 3h3v3h-3zM9 3h1v1h2v-1h1v2h-2v1h-1v3h-1zM15 3h1v1h-1zM29 3h3v3h-3zM16 4h1v1h1v1h-3v-1h1zM19 4h1v1h-1zM21 5h1v1h-1zM24 5h1v1h-1zM12 6h1v1h-1zM18 6h3v1h-1v1h-1v-1h-1zM11 7h1v1h1v-1h1v2h1v-2h1v3h-1v1h2v1h-2v1h-2v-1h1v-2h-1v-1h-2zM17 7h1v2h-1zM21 7h1v1h1v1h-2v1h2v1h-4v1h1v1h-2v1h-1v1h2v1h-2v2h-1v1h-1v-1h-1v-1h-1v-1h-1v1h-2v1h-1v-2h2v-4h-1v-1h1v-1h1v1h1v1h-1v3h2v-1h1v2h1v-2h-1v-1h2v-1h1v-1h-1v-1h1v-1h1v1h1v-2h1zM23 7h1v1h-1zM25 7h1v3h-1zM1 9h1v1h-1zM3 9h5v1h-1v1h-1v-1h-1v1h1v1h-3v-1h-1v-1h1zM23 9h1v1h-1zM27 9h5v2h1v1h-1v1h-1v1h-2v-3h1v1h1v-1h-1v-1h-2v1h-1zM8 10h1v2h-2v-1h1zM24 10h1v1h-1zM33 10h1v1h-1zM26 11h1v1h-1zM1 12h1v1h-1zM21 12h2v1h-2zM27 12h1v1h-1zM3 13h1v2h-1zM6 13h4v2h-1v-1h-3zM20 13h1v1h-1zM23 13h1v1h-1zM26 13h1v1h-1zM32 13h1v1h1v1h-1v1h-1zM19 14h1v1h-1zM24 14h1v1h-1zM27 14h1v1h1v2h1v-1h2v1h-1v1h1v1h1v1h-1v1h-1v1h-2v-3h1v1h1v-1h-1v-1h-1v1h-3v-2h-1v2h-1v-1h-1v-1h1v-1h1v-1h1v1h1zM4 15h1v1h-1zM7 15h2v1h-2zM21 15h1v1h1v1h-2zM23 15h1v1h-1zM1 16h2v1h3v-1h1v1h1v1h-6v-1h-1zM19 16h1v1h-1zM18 17h1v1h-1zM20 17h1v1h2v2h1v1h-3v-1h1v-1h-2v1h-1v-2h1zM27 17v1h1v-1zM33 17h1v2h-1zM1 18h1v2h-1zM10 18h1v2h-1zM12 18h1v1h-1zM17 18h1v1h-1zM3 19h2v1h1v1h-4v-1h1zM7 19h2v1h-2zM13 19h1v1h-1zM16 19h1v1h-1zM25 19h1v1h-1zM12 20h1v2h-1zM15 20h1v1h1v1h2v1h1v1h-2v-1h-2v-1h-1zM26 20h1v2h-1zM6 21h2v1h-1v1h2v1h-3zM9 21h1v1h-1zM19 21h1v1h-1zM33 21h1v2h-1zM1 22h1v4h-1zM3 22h1v1h1v2h-2zM10 22h1v1h-1zM13 22h2v1h-1v2h-1v1h1v1h-2v-2h-1v1h-1v1h-1v-2h1v-1h1v-1h1v1h1zM20 22h2v2h2v3h1v-2h1v-1h1v1h1v-2h1v1h3v-1h1v1h1v1h-3v1h-1v3h1v1h-1v1h-1v1h1v-1h1v-1h1v-1h-1v-3h3v1h-1v3h1v1h-2v2h-2v1h-7v-1h-1v-1h1v-1h1v1h1v1h3v-1h-3v-1h1v-1h-1v-1h-1v-1h-1v-3h-1v2h-2v-3h1v-1h-1zM24 22h1v1h-1zM27 22h1v1h-1zM31 22h1v1h-1zM15 23h1v2h-1zM17 24h1v1h-1zM6 25h2v1h-2zM18 25h1v3h1v1h-2v1h-1v-2h-1v1h-1v-1h-1v-1h3v-1h1zM26 26v3h3v-3zM1 27h7v7h-7zM27 27h1v1h-1zM2 28v5h5v-5zM9 28h1v1h1v2h-1v1h-1zM13 28h1v1h1v1h-2v2h-1v-3h1zM21 28h2v1h-2zM3 29h3v3h-3zM23 29h1v1h-1zM16 30h1v1h2v1h-2v2h-1v-1h-1v-2h1zM19 30h4v1h-1v1h-1v-1h-2zM27 30v1h1v-1zM11 32h1v1h1v-1h1v2h-5v-1h2zM20 32h1v1h-1zM18 33h1v1h-1zM21 33h1v1h-1zM32 33h1v1h-1z"/></svg>