<svg xmlns="http://www.w3.org/2000/svg" viewBox="0 0 35 35"><path d="M1 1h7v7h-7zM15 1h1v1h-1zM17 1h1v3h-1v-1h-1v-1h1zM19 1h3v1h2v1h-1v1h-1v-1h-1v-1h-1v1h-1zM24 1h1v1h-1zM27 1h7v7h-7zM2 2v5h5v-5zM10 2h1v1h-1zM12 2h2v3h5v2h-1v-1h-5v-3h-1zM25 2h1v3h-1v-1h-1v-1h1zM28 2v5h5v-5zM3 3h3v3h-3zM9 3h1v1h1v1h-1v1h3v1h-1v1h-1v-1h-1v2h-1zM15 3h1v1h-1zM29 3h3v3h-3zM19 4h1v1h-1zM23 4h1v1h-1zM21 5h2v1h1v2h-1v-1h-1v-1h-1zM24 5h1v1h-1zM20 6h1v1h-1zM13 7h1v1h-1zM15 7h1v1h-1zM17 7h1v2h-1zM19 7h1v1h-1zM21 7h1v1h1v1h-1v2h-2v-3h1zM25 7h1v2h-1zM1 9h1v1h-1zM3 9h5v1h-5zM10 9h2v2h-1v-1h-1zM13 9h3v1h-1v1h2v-1h1v-1h1v3h1v1h-2v1h-1v-2h-2v1h-2zM23 9h1v1h-1zM27 9h5v1h2v1h-1v1h-1v1h-1v1h-3v-1h1v-2h1v1h1v-1h-1v-1h-2v1h-1zM2 10h1v2h-2v-1h1zM8 10h1v1h2v1h-1v1h-1v-1h-2v1h2v1h-2v1h-1v-3h-2v-1h4zM24 10h1v1h-1zM23 11h1v1h2v1h-2v1h1v1h-1v2h1v-2h1v2h1v1h-2v1h-1v-1h-1v-1h-1v1h1v1h-1v1h-1v-1h-1v1h-1v-2h1v-1h1v-2h1v1h1v-1h-1v-1h1v-1h-2v-1h2zM26 11h1v1h-1zM3 12h1v1h-1zM11 12h1v1h-1zM27 12h1v1h-1zM33 12h1v3h-1v1h-1v-1h-1v-1h2zM4 13h1v1h-1zM10 13h1v1h-1zM15 13h1v1h-1zM26 13h1v1h1v1h-2zM2 14h2v1h-1v2h-2v-2h1zM9 14h1v1h-1zM14 14h1v5h2v-1h1v3h-1v1h1v1h-2v-2h-1v2h-3v-1h-1v-1h2v1h1v-1h-1v-1h1v-4h-1v-1h1zM16 14h1v1h1v1h-1v2h-1zM19 14h1v3h-1zM7 15h1v1h-1zM10 15h2v1h1v2h-1v-1h-1v1h-1v1h-1v-2h1zM28 15h3v1h1v1h-2v-1h-1v1h1v1h-1v1h-2v-1h1v-1h-1v-1h1zM5 16h2v1h1v1h-1v1h-1v-1h-1zM3 17h1v1h1v1h-2v1h1v1h4v1h-6v-2h-1v-2h2zM18 17h1v1h-1zM33 17h1v2h-1zM30 18h2v1h1v1h-1v1h-1v2h2v1h1v1h-4v-1h-1v-1h1v-1h-1v-3h1v1h1v-1h-1zM5 19h1v1h-1zM7 19h2v1h-2zM10 19h2v1h-2zM26 19h1v1h-1zM9 20h1v1h-1zM20 20h1v1h-1zM22 20h4v1h1v1h1v1h-1v1h2v1h1v4h1v2h-2v1h2v-1h1v2h-2v1h-2v-2h-1v-1h1v-1h-1v1h-1v-1h-1v-1h-1v-1h-1v-1h1v-1h1v-1h1v-1h-1v-1h1v-1h-1v-1h-3zM19 21h1v1h-1zM1 22h1v4h-1zM10 22h1v1h-1zM20 22h3v1h-1v1h1v-1h1v3h-1v-1h-1v3h1v1h-2v-2h-2v1h1v1h-2v-2h-1v-3h1v1h1v1h1v-2h1v-1h-1zM24 22h1v1h-1zM33 22h1v1h-1zM4 23h1v1h2v1h-1v1h-3v-2h1zM7 23h2v1h1v1h-1v1h-2v-1h1v-1h-1zM19 23h1v1h-1zM11 24h1v2h-1zM14 24h2v1h-2zM13 25h1v1h2v1h-1v2h-1v-1h-1zM9 26h1v1h-1zM26 26v3h3v-3zM31 26h3v1h-1v1h-1v1h-1zM1 27h7v7h-7zM16 27h1v1h-1zM27 27h1v1h-1zM2 28v5h5v-5zM9 28h2v1h-1v2h1v3h-2v-1h1v-1h-1zM12 28h1v2h-1zM33 28h1v3h-2v-1h1zM3 29h3v3h-3zM16 29h2v1h-1v1h1v-1h2v-1h1v1h1v2h-1v-1h-1v1h1v1h-2v-1h-2v2h-3v-2h1v1h1v-2h-1v-1h1zM23 29h1v1h-1zM11 30h1v1h-1zM24 30h1v3h1v1h-3v-1h1zM12 31h1v3h-1zM22 32h1v1h-1zM26 32h1v1h-1zM18 33h1v1h-1zM32 33h1v1h-1z"/></svg>