<svg xmlns="http://www.w3.org/2000/svg" viewBox="0 0 35 35"><path d="M1 1h7v7h-7zM10 1h2v1h-2zM15 1h1v1h-1zM17 1h1v2h-1v2h2v1h2v1h-1v1h1v-1h1v1h1v1h-2v1h1v1h-2v-2h-1v-2h-1v-1h-3v-1h1v-1h-1v-1h1v-1h1zM20 1h3v1h-1v1h2v1h1v2h-1v-1h-1v-1h-3v-1h1v-1h-1zM24 1h1v1h-1zM27 1h7v7h-7zM2 2v5h5v-5zM19 2h1v1h-1zM28 2v5h5v-5zM3 3h3v3h-3zM9 3h5v2h-2v-1h-2v1h2v1h-2v2h1v2h-1v-1h-1zM25 3h1v1h-1zM29 3h3v3h-3zM19 4h1v1h-1zM21 5h1v1h-1zM13 6h1v2h-1zM22 6h2v2h-1v-1h-1zM25 6h1v4h-1v1h-1v3h1v1h-1v1h-1v-1h-1v-1h1v-1h-1v-2h1v-2h2zM11 7h1v1h-1zM15 7h1v1h-1zM17 7h1v2h1v3h1v1h-2v1h-1v1h2v-1h1v3h-1v-1h-2v1h2v1h-1v1h-1v-1h-2v2h-1v-2h-2v-2h1v1h1v-1h1v-1h1v-1h-1v-1h2v-1h1v-1h-1zM12 8h1v1h3v1h-1v1h2v1h-2v1h-2v1h1v2h-1v-1h-2v-1h1v-1h-1v-1h1v-1h-1v-1h1zM1 9h1v1h-1zM3 9h5v1h-1v1h-2v-1h-1v2h-1zM27 9h5v2h1v2h1v2h-1v1h-1v-1h-2v-1h-2v-1h1v-2h1v1h1v-1h-1v-1h-2v1h-1zM8 10h1v1h-1zM33 10h1v1h-1zM7 11h1v1h-1zM9 11h2v1h-1v3h1v1h-1v1h-1v-1h-2v-1h1v-1h1zM25 11h2v1h1v1h-1v1h-2v-1h1v-1h-1zM2 12h1v3h2v1h-3v-1h-1v-1h1zM5 12h1v1h2v1h-3zM20 13h1v1h-1zM31 13v1h1v-1zM27 14h1v2h1v-1h1v1h2v1h-2v1h-1v1h-1v2h-1v-3h1v-1h-1v1h-1v-2h1zM21 15h1v1h1v1h-1v2h-2v1h-1v-2h1v-1h1zM25 15h1v1h-1zM5 16h2v1h-2zM24 16h1v1h-1zM1 17h2v1h-2zM7 17h1v1h-1zM23 17h1v1h-1zM33 17h1v2h-1zM4 18h1v6h1v1h-1v1h-2v-3h-1v3h-1v-4h1v-1h1v1h1v-1h-1v-2h1zM8 18h2v2h1v1h-1v1h1v-1h1v2h-1v1h-1v1h-1v1h-2v-1h1v-1h-1v-1h1v-1h1v-2h-2v1h1v1h-1v1h-1v-4h2zM24 18h1v1h-1zM30 18h2v1h1v1h-1v1h-1v2h-1v-1h-2v-1h1v-2h1v1h1v-1h-1zM11 19h1v1h-1zM16 19h1v1h-1zM12 20h2v1h1v1h-2v-1h-1zM15 20h1v1h-1zM20 20h3v1h-3zM24 20h1v1h-1zM33 20h1v3h-1zM19 21h1v1h-1zM25 21h2v1h1v1h-2v-1h-1zM16 22h2v1h-2zM20 22h2v2h1v1h-1v3h1v1h-2v-2h-1v-3h1v-1h-1zM24 22h1v1h-1zM14 23h2v4h-1v-1h-1v2h-1v-4h1v1h1v-1h-1zM18 23h2v1h-2zM23 23h1v1h-1zM28 23h1v2h1v-1h1v-1h2v1h1v1h-3v1h-1v3h1v1h-1v1h-1v1h1v-1h1v1h1v1h-1v1h-3v-2h-1v-1h1v-1h-1v1h-1v1h-2v-2h1v-1h-1v-1h-1v-1h1v-1h-1v-1h1v-1h1v1h1v-1h1v1h1zM11 24h1v1h-1zM17 24h1v1h-1zM10 25h1v3h2v3h-2v1h-2v-4h1v-1h-1v-1h1zM18 25h1v3h1v1h-2v1h-1v1h2v-1h3v1h1v2h-1v-1h-1v-1h-1v1h1v1h-2v-1h-2v2h-2v-1h1v-1h-1v1h-2v1h-1v-1h-1v-1h3v-1h2v-2h1v-1h1v-1h-1v-1h1zM26 26v3h3v-3zM31 26h1v1h1v1h-1v1h-1zM33 26h1v1h-1zM1 27h7v7h-7zM16 27h1v1h-1zM27 27h1v1h-1zM2 28v5h5v-5zM33 28h1v3h-3v-1h2zM3 29h3v3h-3zM10 29v1h2v-1zM14 29h1v1h-1zM23 29h1v1h-1zM26 32h1v2h-4v-1h3zM9 33h1v1h-1zM18 33h1v1h-1zM32 33h1v1h-1z"/></svg>