<svg xmlns="http://www.w3.org/2000/svg" viewBox="0 0 35 35"><path d="M1 1h7v7h-7zM10 1h3v1h-3zM16 1h1v4h-1zM19 1h2v2h1v1h-1v1h-1v-3h-1zM22 1h3v1h1v2h-1v-1h-1v2h-1v-2h-1zM27 1h7v7h-7zM2 2v5h5v-5zM9 2h1v1h-1zM14 2h1v1h-1zM18 2h1v1h-1zM28 2v5h5v-5zM3 3h3v3h-3zM10 3h2v1h1v1h-2v-1h-1zM29 3h3v3h-3zM14 4h1v1h-1zM18 4h1v2h1v3h-1v1h-1v-1h-1v-2h1v1h1v-1h-1zM9 5h2v1h-2zM13 5h1v1h2v2h-1v-1h-1v1h-1zM22 5h1v2h-1zM24 5h1v2h-1zM11 6h1v4h1v-1h1v-1h1v2h-1v1h1v1h-1v2h-1v-3h-1v3h-1v-1h-1v-1h-1v1h1v1h-1v1h-1v-1h-2v1h-1v-2h-1v-1h2v-1h-3v1h-2v-3h1v1h1v-1h1v1h1v-1h1v1h1v1h1v-1h1v1h1v-2h1zM9 7h1v1h-1zM21 7h1v1h1v3h-1v1h1v3h1v1h-1v2h-1v1h1v2h1v1h-2v1h-1v-1h-1v1h-1v1h1v1h-1v1h-1v-1h-1v-1h-1v-2h1v-1h1v1h1v-1h-1v-1h1v-1h-2v-2h1v-2h1v3h1v3h2v-1h-1v-2h-1v-2h2v-2h-1v-1h-1v-1h1v-2h-1v-1h1zM23 7h1v1h-1zM25 7h1v1h-1zM7 9h1v1h-1zM16 9h1v1h-1zM29 9h1v1h-1zM32 9h1v1h1v2h-3v-1h1zM17 10h1v1h-1zM25 10h1v1h-1zM27 10h1v1h-1zM18 11h1v1h-1zM23 11h1v1h-1zM28 11h1v1h-1zM7 12v1h1v-1zM16 12h2v1h-1v2h-1zM24 12h1v1h1v-1h1v1h2v1h-1v1h-1v-1h-1v3h-2v-1h1v-2h-1zM29 12h1v1h-1zM1 13h1v1h1v-1h1v2h-1v1h-1v-1h-1zM30 13h1v1h-1zM10 14h1v1h1v1h-1v2h-1zM12 14h1v1h-1zM20 14h1v1h-1zM31 14h1v1h1v-1h1v2h-1v1h-1v-1h-2v-1h1zM4 15h1v1h-1zM6 15h2v1h-2zM13 15h1v1h-1zM5 16h1v1h-1zM14 16h1v1h1v2h-1v-1h-1zM16 16h1v1h-1zM1 17h4v2h1v-1h1v1h1v-1h-1v-1h2v1h1v1h-1v1h1v2h-1v4h-3v-1h2v-1h-1v-1h1v-1h-1v1h-2v-1h1v-2h-2v1h1v1h-2v-1h-1v1h-1v-2h2v-1h1v-1h-2v1h-1zM26 17h2v1h1v2h-1v-1h-1v-1h-1zM30 17h1v1h-1zM11 18h1v1h-1zM13 18h1v1h1v1h-2v1h-1v1h-1v-2h1v-1h1zM25 18h1v1h-1zM33 18h1v2h-1v1h1v7h-3v-1h2v-3h-1v-4h-1v-1h2zM7 20v1h1v-1zM15 20h2v1h-2zM24 20h1v1h-1zM26 20h2v1h1v1h-1v1h2v-2h1v3h-4v-1h-1v1h-1v-2h1zM29 20h1v1h-1zM13 21h1v1h-1zM10 22h1v1h-1zM12 22h1v3h-1v1h2v1h1v2h-1v1h1v-1h2v2h-1v1h-1v-1h-2v-1h-1v1h1v1h-2v-1h-1v-1h1v-1h-1v-2h-1v-1h1v-2h2zM1 23h1v1h-1zM3 23h2v2h-1v-1h-1zM14 23h1v1h1v1h-2zM22 23h2v1h1v1h-2v1h-1v-1h-1v-1h1zM2 24h1v1h-1zM26 24h1v1h3v1h1v1h-1v1h1v2h-1v1h1v1h-1v1h-2v-1h1v-1h-1v-1h-3v-2h-1v-1h-1v-1h2v-1h1zM1 25h1v1h-1zM3 25h1v1h-1zM16 25h1v1h-1zM20 25h1v1h-1zM15 26h1v1h-1zM17 26h1v1h-1zM19 26h1v1h-1zM21 26h1v1h-1zM26 26v3h3v-3zM1 27h7v7h-7zM11 27v1h2v-1zM18 27h1v1h-1zM22 27h1v4h-2v-1h-1v-2h2zM27 27h1v1h-1zM2 28v5h5v-5zM17 28h1v1h-1zM3 29h3v3h-3zM9 29h1v1h-1zM32 29h1v1h-1zM18 30h1v1h-1zM31 30h1v1h-1zM33 30h1v2h-1zM9 31h1v1h-1zM24 31h3v1h-1v2h-2v-1h1v-1h-1zM10 32h1v1h1v1h-3v-1h1zM13 32h1v2h-1zM16 32h1v1h-1zM18 32h2v1h-1v1h-2v-1h1zM22 32h1v2h-2v-1h1zM32 32h1v1h1v1h-2zM27 33h1v1h-1z"/></svg>