<svg xmlns="http://www.w3.org/2000/svg" viewBox="0 0 35 35"><path d="M1 1h7v7h-7zM17 1h1v1h-1zM19 1h6v1h-1v3h1v1h-1v2h-1v-2h-2v-1h2v-1h-2v1h-2v-1h1v-1h2v-1h-2v1h-1zM27 1h7v7h-7zM2 2v5h5v-5zM12 2h1v1h-1zM16 2h1v1h1v1h-1v1h2v1h-3v5h1v1h-2v1h-1v-1h-1v-3h2v-2h-1v1h-1v-1h-1v1h-1v-2h4v-1h1v-1h-1v-1h1zM28 2v5h5v-5zM3 3h3v3h-3zM9 3h1v2h1v1h-1v3h-1zM29 3h3v3h-3zM20 6h1v1h-1zM25 6h1v4h-1v-1h-1v-1h1zM17 7h1v2h-1zM19 7h1v1h1v-1h1v1h1v1h-2v1h1v1h-3v1h1v1h-2v-2h-1v-1h1v-1h1v1h1v-1h-1zM12 8h1v1h-1zM1 9h1v3h1v1h-2zM3 9h5v1h-1v1h1v-1h3v1h-2v1h-3v1h-2v-1h1v-1h1v-1h-1v1h-1v-1h-1zM23 9h1v1h-1zM27 9h5v2h1v2h-2v1h-2v-3h1v1h1v-1h-1v-1h-2v1h-2v-1h1zM24 10h1v1h-1zM33 10h1v1h-1zM22 11h1v2h-1zM6 13h3v1h-3zM15 13h3v1h-1v1h1v1h-1v2h-1v-1h-2v-1h-2v-1h2v-1h1v2h1v-2h-1zM20 13h1v1h-1zM23 13h2v2h-1v-1h-1zM26 13h1v1h-1zM33 13h1v2h-1v1h-1v1h-1v1h1v1h1v1h1v1h-3v1h-2v-3h1v1h1v-1h-1v-1h-1v1h-2v1h-1v1h-1v2h-1v-2h-2v-1h3v-1h1v-1h-1v-1h1v-1h2v1h-1v1h1v-1h2v-1h1v-1h1v-1h1zM1 14h2v2h-1v-1h-1zM5 14h1v1h2v1h-2v1h-1v2h-1v1h1v-1h3v-1h2v-1h1v3h1v1h-1v1h-1v-1h-1v-1h-2v1h1v1h-2v-1h-1v2h-1v-2h-1v2h-1v3h-1v-4h1v-1h-1v-1h2v-3h1v-2h1zM11 14h1v1h-1zM19 14h1v1h-1zM22 14h1v1h-1zM27 14h1v1h-1zM9 15h2v1h-1v1h-2v-1h1zM21 15h1v1h2v2h-1v-1h-1v2h-2v-2h1zM25 15h1v1h-1zM28 15h2v1h-2zM1 16h1v3h-1zM11 16h1v1h-1zM19 16h1v1h-1zM7 17h1v1h-1zM12 17h1v2h1v2h-1v-1h-1zM18 17h1v1h-1zM33 17h1v2h-1zM14 18h1v1h-1zM17 18h1v2h-3v-1h2zM24 18h1v1h-1zM19 19h1v1h-1zM27 20h1v1h-1zM14 21h3v1h1v1h-3v-1h-1zM19 21h2v1h1v2h1v1h-2v1h1v1h-3v1h1v1h-2v-2h-1v-3h1v1h1v1h1v-1h-1v-1h2v-1h-1v-1h-1zM26 21h1v1h1v1h-2zM8 22h2v1h1v1h-2v-1h-1zM12 22h2v1h1v1h-1v1h-1v1h-2v-2h1zM31 22h1v1h1v1h1v1h-4v-2h1zM33 22h1v1h-1zM5 23h3v1h-3zM18 23h1v1h-1zM23 23h1v1h-1zM25 23h1v1h2v-1h1v2h1v4h1v1h1v-1h-1v-3h3v1h-1v1h1v1h-1v1h1v1h-2v2h-1v1h-4v-1h1v-1h-1v-1h1v-1h-1v1h-1v1h-1v-1h-1v-1h1v-1h-1v-1h-1v-3h1v-1h1zM3 24h1v1h-1zM7 25h1v1h-1zM9 25h1v2h-1zM15 25h1v1h-1zM13 26h1v1h-1zM24 26v1h1v-1zM26 26v3h3v-3zM1 27h7v7h-7zM10 27h3v1h2v1h3v1h-1v1h1v1h-1v1h2v1h-6v-1h3v-3h-2v1h-1v1h-1v-1h-1v1h-2v-4h1v2h2v-1h-1v-1h-1zM15 27h2v1h-2zM27 27h1v1h-1zM2 28v5h5v-5zM22 28h1v1h-1zM3 29h3v3h-3zM23 29h1v1h-1zM19 30h3v1h1v2h-1v-1h-1v-1h-1v1h-1zM29 31v1h1v-1zM20 32h1v1h-1zM26 32h1v1h-1zM9 33h1v1h-1zM11 33h1v1h-1zM21 33h1v1h-1zM23 33h3v1h-3zM32 33h1v1h-1z"/></svg>