<svg xmlns="http://www.w3.org/2000/svg" viewBox="0 0 35 35"><path d="M1 1h7v7h-7zM9 1h1v1h-1zM12 1h1v2h2v1h-3zM14 1h2v1h-2zM18 1h2v1h-2zM22 1h2v1h-1v2h1v-1h1v1h1v1h-2v3h-1v-2h-1zM27 1h7v7h-7zM2 2v5h5v-5zM10 2h1v3h1v1h1v1h-1v1h-1v-2h-1v-2h-1v-1h1zM17 2h1v1h-1zM25 2h1v1h-1zM28 2v5h5v-5zM3 3h3v3h-3zM18 3h1v1h-1zM29 3h3v3h-3zM20 4h1v3h-1zM13 5h1v1h-1zM16 5h1v2h-1zM9 6h1v2h-1zM14 6h1v1h-1zM18 6h1v1h-1zM25 6h1v2h-1zM13 7h1v1h-1zM15 7h1v1h-1zM17 7h1v3h3v-1h-2v-2h1v1h1v-1h1v7h-2v-1h1v-1h-1v-1h-3v1h-1v-1h-3v1h2v3h-1v-2h-3v-1h1v-1h-1v-2h1v1h5v-1h-1v-1h1zM10 8h1v1h-1zM12 8h1v1h-1zM24 8h1v1h1v1h2v-1h1v2h-1v1h2v-2h1v1h1v1h-1v1h-3v1h1v2h-3v-1h-1v1h-1v-1h-2v-1h5v-1h-4v-2h1zM1 9h1v1h-1zM3 9h1v1h2v1h-1v3h1v1h-4v2h-1v-5h1v-1h1v1h1v-1h-1zM7 9h2v1h-2zM31 9h1v1h-1zM33 9h1v3h-1v-1h-1v-1h1zM6 11h3v2h-1v-1h-2zM26 11v1h1v-1zM18 12h1v2h-1zM32 12h1v1h-1zM2 13v1h2v-1zM7 13h1v1h-1zM9 13h1v1h-1zM16 13h1v1h-1zM33 13h1v3h-1v-1h-1v-1h1zM11 14h2v3h-2v-1h1v-1h-1zM30 14h1v1h-1zM7 15h4v1h-4zM16 15h1v1h-1zM20 15h1v1h-1zM31 15h1v1h-1zM4 16h1v1h-1zM15 16h1v1h2v2h-1v1h-1v-1h-1v-1h-2v-1h2zM19 16h1v1h-1zM21 16h1v3h-1v1h-1v1h2v2h-1v1h1v1h-3v-1h-1v1h-2v1h-1v-2h2v-2h-3v-1h1v-1h1v1h3v-1h-1v-1h1v-1h2zM23 16h1v1h-1zM25 16h1v2h1v-1h2v1h-1v2h2v-3h-1v-1h2v3h1v1h-1v1h-3v1h1v2h-1v-1h-1v-2h-1v2h-1v1h-2v-1h1v-1h-1v-1h2v-1h-2v-1h1v-2h1zM2 17h1v1h-1zM6 17h3v1h1v2h-1v-1h-1v-1h-1v1h-1zM32 17h1v1h1v2h-1v-1h-1zM1 18h1v1h-1zM3 18h2v1h-2zM11 18h1v1h-1zM2 19h1v1h-1zM5 19h1v2h2v1h-2v2h1v1h1v1h-3v-2h-1v-2h1v-1h-1v-1h1zM7 19h1v1h-1zM12 19h3v1h-3zM26 19v1h1v-1zM1 20h1v1h-1zM8 20h1v1h-1zM10 20h2v1h1v1h1v2h-1v-1h-1v-1h-2v1h-2v-1h1v-1h1zM2 21h2v1h-2zM32 21h1v1h-1zM30 22h1v1h1v1h-1v2h-1v1h2v1h-2v2h1v1h1v-3h1v2h1v2h-3v1h-2v-1h-1v-1h1v-1h-2v1h-1v1h1v1h-1v1h-1v-4h-1v-2h1v-1h-1v-1h1v-1h4v-1h1zM33 22h1v6h-1v-1h-1v-3h1zM1 23h2v1h-2zM7 23h1v1h-1zM10 23h2v1h-1v1h-1v2h1v1h-2v-4h1zM26 23h1v1h-1zM12 24h1v2h-1zM1 25h3v1h-3zM11 26h1v1h-1zM13 26h1v1h2v-1h7v1h-1v3h1v1h-2v3h-1v-2h-2v-3h-1v1h-1v-2h-3zM26 26v3h3v-3zM1 27h7v7h-7zM18 27v1h1v3h1v-4zM27 27h1v1h-1zM2 28v5h5v-5zM12 28h1v1h-1zM3 29h3v3h-3zM10 29h2v1h-1v1h-1zM14 29h1v1h-1zM12 30h2v1h-2zM15 30h1v1h1v1h-1v1h-1zM9 31h1v1h-1zM23 31h1v2h-1zM10 32h3v1h-3zM9 33h1v1h-1zM16 33h2v1h-2zM28 33h1v1h-1zM33 33h1v1h-1z"/></svg>