<svg xmlns="http://www.w3.org/2000/svg" viewBox="0 0 35 35"><path d="M1 1h7v7h-7zM11 1h1v2h-1zM13 1h1v2h-1zM15 1h1v1h-1zM17 1h1v3h-1v1h2v1h-3v2h-1v-1h-1v1h-1v-2h2v-1h1v-1h-1v-1h1v-1h1zM19 1h3v1h1v1h2v-1h1v2h-1v2h-1v4h-1v-1h-2v1h2v1h-1v1h1v-1h1v3h1v1h-1v1h1v1h-1v1h1v1h-2v-2h-2v-2h1v-1h1v-1h-5v-2h-1v-1h1v-1h1v1h1v-1h-1v-3h2v1h-1v1h1v-1h1v1h1v-1h-1v-1h-1v-1h2v-1h-1v-1h-1v-1h-1v1h-1zM23 1h2v1h-2zM27 1h7v7h-7zM2 2v5h5v-5zM28 2v5h5v-5zM3 3h3v3h-3zM9 3h2v1h2v2h-1v-1h-2v1h1v1h-1v2h-1zM20 3h1v1h-1zM29 3h3v3h-3zM19 4h1v1h-1zM11 7h1v1h-1zM17 7h1v2h-1zM25 7h1v3h-1zM12 8h1v1h-1zM1 9h1v2h-1zM3 9h5v1h-2v1h-1v-1h-1v1h1v4h-3v-1h1v-1h-1v-1h1zM10 9h2v1h-1v1h-1v1h-1v1h-1v-1h-1v-1h1v-1h2zM14 9h2v2h1v1h-2v1h-1v-1h-2v-2h2zM27 9h5v1h2v1h-1v1h1v3h-1v1h-1v-1h-1v-1h1v-1h-1v1h-3v-1h1v-2h1v1h1v-1h-1v-1h-2v1h-1zM24 10h1v1h-1zM19 11v1h2v-1zM25 11h1v2h-1zM10 12h2v1h1v1h-1v1h-2v2h-1v-4h1zM27 12h1v1h-1zM6 13h2v1h-1v1h1v1h-1v1h-1v-1h-1v-1h1zM15 13h3v1h-1v1h1v-1h2v1h-1v1h-2v1h2v1h-1v1h-1v-1h-1v-2h-1v-1h1v-1h-1zM26 13h1v1h1v1h-1v1h-2v-1h1zM13 14h1v2h1v1h-3v1h4v1h-1v3h1v-3h1v3h2v1h-5v-1h-2v3h-4v-1h1v-1h2v-2h-1v-1h3v-1h-2v-1h-1v-1h1v-1h2zM28 15h2v1h2v1h-2v1h-1v1h-2v-1h1zM1 16h2v1h-2zM7 17h2v1h1v1h-1v1h-2v-1h1v-1h-1zM20 17h1v1h1v1h-2zM26 17h1v1h-1zM33 17h1v2h-1zM2 18h1v1h2v-1h2v1h-1v1h-1v1h-1v-1h-1v2h1v1h-2v3h-1v-6h1zM30 18h2v1h1v2h1v2h-1v-1h-1v-1h-1v1h-3v-1h1v-2h1v1h1v-1h-1zM19 19h1v1h-1zM22 19h1v2h-1zM26 19h1v1h1v1h-1v1h1v1h-2zM6 20h1v1h3v1h-1v1h-1v-1h-2zM20 20h1v2h2v1h-1v1h1v1h-1v2h-3v1h4v1h-5v1h-1v1h1v1h-1v1h2v1h-4v-2h1v-5h1v1h1v-1h-1v-3h1v1h1v1h1v-2h1v-1h-1v-1h-1v-1h1zM24 20h1v3h-1zM5 22h1v1h2v1h-1v1h-1v-1h-1v1h1v1h-2v-1h-1v-1h1v-1h1zM31 22h1v1h1v1h1v1h-3v1h-1v3h1v1h1v-1h-1v-3h1v1h1v3h1v1h-2v2h-2v1h-2v-1h-1v-2h1v-1h-1v1h-2v-2h-1v-1h-1v-1h2v-1h-2v-1h4v-1h1v1h2v-1h-1v-1h2zM19 23h1v1h-1zM25 23h1v1h-1zM14 24h1v1h-1zM7 25h1v1h-1zM13 25h1v4h1v2h-3v1h-1v-3h1v1h1v-1h-1v-2h1zM15 25h1v1h-1zM9 26h1v1h-1zM11 26h1v1h-1zM26 26v3h3v-3zM33 26h1v1h-1zM1 27h7v7h-7zM10 27h1v2h-1v3h-1v-4h1zM27 27h1v1h-1zM2 28v5h5v-5zM3 29h3v3h-3zM23 29h1v1h-1zM19 30h3v1h2v1h-1v1h-1v-1h-1v-1h-2zM29 31v1h2v-1zM10 32h1v2h-2v-1h1zM19 32h2v1h-2zM21 33h1v1h-1zM23 33h4v1h-4zM32 33h1v1h-1z"/></svg>