<svg xmlns="http://www.w3.org/2000/svg" viewBox="0 0 35 35"><path d="M1 1h7v7h-7zM9 1h1v2h-1zM11 1h1v1h1v-1h1v2h1v-1h1v1h1v1h-3v1h-1v-2h-2zM17 1h1v1h-1zM20 1h2v1h-2zM23 1h2v1h1v8h-1v1h1v1h-1v1h-1v-1h-1v-1h1v-2h1v-5h-1v1h-1v-2h-1v-1h1zM27 1h7v7h-7zM2 2v5h5v-5zM18 2h1v1h-1zM28 2v5h5v-5zM3 3h3v3h-3zM10 3h1v2h-2v-1h1zM19 3h2v2h-1v1h-2v2h1v1h1v1h-1v1h-1v1h-1v-2h-2v-1h1v-1h1v-1h-1v1h-1v-1h-1v-1h3v-1h2zM29 3h3v3h-3zM11 5h1v1h-1zM10 6h1v1h-1zM23 6h1v2h-1zM9 7h1v1h1v-1h1v1h1v-1h1v3h1v2h-1v-1h-2v1h-1v-1h-2v-1h1v-1h-1zM19 7h1v1h-1zM21 7h1v1h-1zM20 8h1v1h-1zM1 9h1v1h-1zM3 9h2v1h-1v2h1v1h-1v1h1v1h3v1h-1v1h-2v-1h-1v1h1v1h2v1h-4v-2h-1v3h1v2h-1v-1h-1v-5h2v-2h-1v-1h1v-1h-1v-1h1zM6 9h3v1h-3zM12 9v1h1v-1zM22 9h1v2h-3v-1h2zM27 9h1v2h-1zM30 9h1v1h1v-1h2v4h-1v-1h-1v-1h-1v4h-1v-1h-1v1h-1v-2h-1v3h-1v-1h-1v-2h1v-1h2v-1h2zM5 10h1v2h-1zM7 11h2v1h-2zM19 11h1v1h-1zM9 12h1v2h-1zM12 12h1v2h-2v-1h1zM16 12h1v1h1v1h-2v2h-2v-1h1v-2h1zM18 12h1v1h-1zM21 12h1v1h-1zM29 12v1h1v-1zM7 13h1v1h-1zM20 13h1v1h-1zM23 13h1v2h-1zM32 13h1v2h-1zM8 14h1v1h-1zM13 14h1v1h-1zM18 14h1v1h-1zM21 14h1v1h1v2h1v1h-2v1h1v1h-2v-2h-1v2h1v2h1v-1h2v-1h1v3h1v-1h2v2h-5v-1h1v-1h-1v1h-3v-2h-2v-1h1v-4h1v1h1v-1h-1v-1h1zM9 15h4v1h-4zM31 15h1v3h-1v1h-1v2h-1v1h-1v-1h-2v-1h-1v-1h-1v-1h1v-2h1v1h1v-1h2v1h-1v2h-1v-1h-1v1h1v1h2v-3h1v-1h1zM8 16h1v1h3v2h-1v-1h-1v4h-4v1h-1v-2h1v-1h1v1h2v-1h-2v-1h1v-1h-1v-1h1zM13 16h1v1h2v1h1v3h1v2h-1v2h-3v-2h1v1h1v-1h-1v-1h1v-1h-1v-1h1v-1h-1v1h-1v1h-2v3h1v2h2v2h-1v-1h-1v3h-1v1h1v-1h1v1h1v3h-3v-2h-1v-1h-1v1h-1v-2h1v-1h1v-1h-1v1h-1v-4h1v-1h1v-4h2v-1h1v-1h-1zM16 16h1v1h-1zM32 18h2v1h-1v1h1v5h-1v-1h-1v-1h1v-1h-1v1h-1v-1h-1v-1h2v-1h-1v-1h1zM4 20h1v1h-1zM1 22h1v1h-1zM3 23h1v1h-1zM6 23h3v2h-1v-1h-1v1h-1v1h-1v-1h-1v-1h2zM19 23h1v1h-1zM29 23h1v1h-1zM2 24h1v1h-1zM21 24h1v2h-1v1h1v-1h1v3h1v-3h-1v-1h7v-1h1v3h-1v3h-6v1h1v1h1v1h-1v1h-1v-2h-1v-1h-1v2h-1v1h-3v-2h1v1h1v-1h1v-2h-3v2h-2v-1h1v-2h1v-2h1v-1h1v-1h1zM1 25h1v1h-1zM7 25h1v1h-1zM11 25v1h-1v1h2v-2zM17 25h2v1h-1v1h-2v-1h1zM26 26v3h3v-3zM32 26h1v1h-1zM1 27h7v7h-7zM27 27h1v1h-1zM2 28v5h5v-5zM20 28v1h2v-1zM31 28h3v1h-2v1h-1zM3 29h3v3h-3zM14 29h1v1h-1zM33 30h1v1h-1zM19 31h1v1h-1zM27 31h2v1h-1v2h-2v-1h1zM30 31h1v1h-1zM10 32h1v1h-1zM29 32h1v1h-1zM33 32h1v1h-1zM9 33h1v1h-1zM22 33h1v1h-1zM31 33h1v1h-1z"/></svg>