<svg xmlns="http://www.w3.org/2000/svg" viewBox="0 0 35 35"><path d="M1 1h7v7h-7zM10 1h3v1h-1v1h-2zM17 1h1v3h-1v-1h-1v-1h1zM20 1h2v1h-2zM24 1h1v1h-1zM27 1h7v7h-7zM2 2v5h5v-5zM13 2h1v1h-1zM19 2h1v1h-1zM22 2h1v1h1v1h2v1h-1v1h-1v-1h-1v-1h-2v-1h1zM28 2v5h5v-5zM3 3h3v3h-3zM9 3h1v2h1v2h-1v2h-1zM12 3h1v1h1v1h2v-1h1v1h1v1h-4v3h2v1h-1v1h2v1h-2v1h-1v-3h-1v2h-1v-3h-1v-2h1v1h1v-1h-1v-1h1v-1h-1zM15 3h1v1h-1zM29 3h3v3h-3zM19 4h2v1h-2zM21 5h1v1h-1zM20 6h1v1h-1zM25 6h1v2h-1zM15 7h1v1h-1zM17 7h1v2h-1zM19 7h1v1h-1zM21 7h1v1h1v-1h1v3h1v1h-1v3h1v1h-1v1h-1v-1h-1v-1h1v-1h-1v-1h1v-3h-2v1h1v1h-2v-3h1zM1 9h1v1h1v-1h5v1h-3v1h-3v2h-1zM10 9h1v3h-1v1h-1v-2h-1v-1h2zM18 9h1v3h2v2h-1v-1h-2v-2h-1v-1h1zM25 9h1v1h-1zM27 9h5v1h2v1h-1v2h-2v1h-2v-3h1v1h1v-1h-1v-1h-2v2h-1v-1h-1v-1h1zM6 11h2v1h-2zM25 11h1v1h-1zM5 12h1v1h-1zM11 12h1v2h-1zM26 12h1v2h-2v-1h1zM2 13h2v1h-1v2h-1zM7 13h2v2h-1v-1h-1zM13 13h1v1h-1zM15 13h1v1h-1zM17 13h1v1h-1zM33 13h1v2h-1v1h-1v1h-2v-1h-1v-1h3v-1h1zM4 14h2v2h-1v-1h-1zM10 14h1v1h-1zM16 14h1v1h1v1h-1v2h-1v-1h-2v-1h-2v-1h4zM19 14h1v1h-1zM27 14h1v1h-1zM7 15h1v1h-1zM9 15h1v1h2v2h-1v1h-1v-2h-2v-1h1zM21 15h1v1h1v1h-2zM25 15h2v1h-2zM1 16h1v1h-1zM4 16h1v1h-1zM19 16h1v1h-1zM24 16h1v3h-1v-1h-1v-1h1zM2 17h2v2h-1v-1h-1zM6 17h2v1h-2zM13 17h1v1h-1zM18 17h1v1h-1zM20 17h1v1h2v1h1v1h-1v1h-2v1h1v1h1v2h-2v1h1v1h-2v-2h-1v-1h2v-1h-1v-1h-1v-1h1v-1h2v-1h-2zM26 17h1v1h1v-1h2v1h-1v1h-1v1h-1v-1h-1zM33 17h1v2h-1zM15 18h1v1h-1zM17 18h1v3h-1v-1h-1v-1h1zM30 18h2v1h1v2h-2v1h1v1h1v1h1v1h-4v-1h1v-1h-1v-1h-2v-1h1v-2h1v1h1v-1h-1zM2 19h1v1h-1zM4 19h1v1h1v1h-2v1h-1v1h-1v3h-1v-6h1v1h1v-1h1zM6 19h2v1h-2zM9 19h1v1h1v1h1v1h-1v1h2v2h1v1h-3v-1h-3v-1h-2v-3h2v-1h1zM19 19h1v1h-1zM12 20h2v2h-1v-1h-1zM25 20h1v1h1v1h-2zM9 21v1h1v-1zM15 21h2v1h1v1h-4v-1h1zM7 22v1h1v-1zM24 22h1v1h-1zM27 22h1v1h-1zM33 22h1v1h-1zM4 23h1v1h1v2h-3v-1h1zM26 23h1v1h1v1h2v4h1v1h-1v1h-1v1h1v-1h1v-1h1v-1h1v1h1v1h-2v2h-1v1h-4v-1h-1v-1h-2v-2h1v1h1v-1h-1v-1h-1v-1h-1v-3h1v-1h1v1h1zM17 24h1v1h-1zM7 25h1v1h-1zM15 25h1v1h-1zM18 25h1v3h1v1h-2v-1h-2v1h-1v-1h-2v-1h1v-1h1v1h2v-1h1zM9 26h2v2h1v1h-2v2h2v1h-1v1h-1v-1h-1v-4h1v-1h-1zM24 26v1h1v-1zM26 26v3h3v-3zM31 26h3v1h-1v1h-1v1h-1zM1 27h7v7h-7zM27 27h1v1h-1zM2 28v5h5v-5zM21 28h2v1h-2zM3 29h3v3h-3zM12 29h1v1h-1zM17 29h1v1h-1zM23 29h1v1h-1zM15 30h2v1h2v-1h3v1h1v1h1v1h2v1h-3v-1h-1v-1h-1v-1h-1v1h1v1h-2v-1h-2v2h-3v-1h2v-2h-1zM27 30v1h1v-1zM14 31h1v1h-1zM12 32h2v1h-2zM9 33h1v1h-1zM18 33h1v1h-1zM32 33h1v1h-1z"/></svg>