<svg xmlns="http://www.w3.org/2000/svg" viewBox="0 0 35 35"><path d="M1 1h7v7h-7zM9 1h4v2h-1v1h-1v2h-2v-1h1v-1h-1zM14 1h2v4h-1v-1h-1zM18 1h1v1h-1zM23 1h1v1h-1zM27 1h7v7h-7zM2 2v5h5v-5zM19 2h2v1h3v1h-1v1h-2v-1h-1v-1h-1zM28 2v5h5v-5zM3 3h3v3h-3zM17 3h1v2h1v2h-1v2h-2v1h-1v-1h-1v1h1v4h-2v-1h1v-2h-2v-2h-1v2h-1v-1h-3v1h-2v-1h-1v-1h6v-1h1v-1h1v1h1v-1h1v1h1v-1h1v1h1v-1h-1v-2h1zM29 3h3v3h-3zM19 4h1v1h-1zM25 4h1v1h-1zM13 5h2v1h-2zM23 5h1v1h2v2h-1v-1h-1v1h1v1h2v1h-2v1h1v3h-1v-1h-1v-1h-2v-1h1v-1h1v-1h-1zM20 6h1v1h-1zM9 7h1v1h-1zM19 7h1v2h-1zM21 7h1v1h-1zM1 9h1v1h-1zM18 9h1v1h2v1h-3zM21 9h1v1h-1zM29 9h1v1h1v-1h3v1h-2v1h2v3h-1v-2h-1v1h-1v-1h-2v-1h-1v-1h1zM3 10h1v1h1v1h1v1h-2v-1h-1zM16 10h1v2h1v1h-2zM7 11h2v3h-3v-1h2v-1h-1zM11 11h1v3h-1v-1h-1v-1h1zM27 11h1v1h1v1h-1v1h-1zM2 12h1v1h-1zM19 12h1v1h-1zM21 12h1v4h-3v-1h-1v-2h1v1h1v-1h1zM1 13h1v1h-1zM3 13h1v2h1v-1h1v3h-1v-1h-1v1h-1v3h-1v-2h-1v-3h1v-1h1zM10 14h1v1h-1zM15 14h1v1h1v1h-1v1h1v2h1v-1h2v-1h1v1h2v-1h1v2h1v2h-1v-1h-3v3h-1v-1h-1v-1h1v-1h-2v2h-1v-1h-1v1h-1v1h1v1h1v1h-3v-2h-1v2h1v1h1v1h-2v-1h-3v-1h2v-2h-1v-1h2v-1h1v-1h2v-2h-2v-1h-1v-1h-1v-1h3zM23 14h2v1h-2zM28 14h1v1h-1zM30 14h2v3h-1v1h-1v1h-1v-1h-1v2h2v-1h1v-1h3v3h-3v2h-3v-2h-1v-3h-1v-1h4zM7 15h1v1h-1zM9 15h1v1h-1zM25 15h2v1h-1v1h-2v-1h1zM8 16h1v1h1v-1h1v1h1v1h-3v1h-1v-1h-1v1h1v1h-2v1h4v4h-1v-3h-2v1h1v1h-1v1h2v1h-5v-1h-1v-2h1v1h1v1h1v-1h-1v-1h-1v-1h1v-1h-1v-2h1v-1h1v-1h2zM17 16h1v1h-1zM33 16h1v1h-1zM4 17h1v1h-1zM12 18h2v2h-1v-1h-1zM10 19h1v2h-1zM32 19v1h1v-1zM23 21h1v1h1v1h1v1h1v-1h1v2h2v5h-3v1h-2v2h1v1h-2v-2h-2v-1h-1v1h-1v-1h-1v-1h2v-1h1v1h1v-2h1v-2h1v-2h-1v-1h-2v-1h1zM25 21h1v1h-1zM29 21v1h1v-1zM1 22h2v1h-1v2h1v1h-2zM18 23h2v1h-1v1h-1zM32 23h2v3h-2v-1h-1v-1h1zM20 24h2v2h-1v-1h-1zM23 24h1v1h-1zM17 25h1v1h2v1h-1v1h1v-1h2v1h-1v1h-2v1h-1v1h-1v-2h-2v-1h1v-2h1zM9 26h1v4h1v-1h1v1h4v1h1v1h-1v1h-1v-1h-1v1h-2v-1h1v-1h-4zM22 26h1v1h-1zM26 26v3h3v-3zM31 26h1v3h-1zM1 27h7v7h-7zM12 27h1v2h-1zM27 27h1v1h-1zM2 28v5h5v-5zM3 29h3v3h-3zM32 29h2v4h-3v1h-1v-1h-1v-1h-1v-1h2v1h2v-1h-1v-1h1zM18 31h1v1h-1zM10 32h1v1h1v1h-3v-1h1zM21 32h1v2h-2v-1h1zM26 32h1v1h-1zM14 33h1v1h-1zM16 33h3v1h-3zM27 33h2v1h-2z"/></svg>