<svg xmlns="http://www.w3.org/2000/svg" viewBox="0 0 35 35"><path d="M1 1h7v7h-7zM11 1h1v1h-1zM13 1h1v1h-1zM15 1h2v2h-1v-1h-1zM20 1h1v1h-1zM24 1h1v3h-1zM27 1h7v7h-7zM2 2v5h5v-5zM12 2h1v1h1v1h1v2h-1v-1h-1v-1h-1zM18 2h1v3h-1v-1h-1v-1h1zM22 2h1v1h-1zM28 2v5h5v-5zM3 3h3v3h-3zM10 3h1v1h-1zM15 3h1v1h-1zM20 3h1v3h-1zM29 3h3v3h-3zM11 4h1v1h-1zM16 4h1v1h-1zM23 4h1v1h-1zM10 5h1v1h1v-1h1v2h-1v1h-1v-1h-1v1h-1v-2h1zM17 5h1v1h-1zM24 5h1v1h-1zM21 6h2v1h-1v1h1v-1h1v1h1v-1h1v2h1v1h1v1h2v1h1v2h-1v-1h-1v-1h-1v1h1v1h-1v2h-1v-1h-2v-1h-1v-1h1v-1h1v1h1v-2h-2v-2h-2v1h-1v-1h-1v1h-1v-1h-2v-1h1v-1h1v1h1zM13 7h1v2h4v2h1v2h-4v-1h2v-2h-4v-1h-1v-1h1zM15 7h1v1h-1zM17 7h1v1h-1zM1 9h1v3h-1zM4 9h1v1h-1zM6 9h2v1h-2zM9 9h1v1h-1zM28 9h1v1h-1zM3 10h1v1h-1zM8 10h1v1h1v3h-1v-2h-2v-1h1zM10 10h1v1h-1zM12 10h1v3h-2v-2h1zM21 10h1v1h1v3h-2v-1h-1v-2h1zM32 10h2v2h-1v-1h-1zM5 11h1v1h-1zM31 11h1v1h-1zM2 12h1v1h-1zM4 12h1v1h1v-1h1v1h1v1h-1v1h-2v-1h-1v1h-2v-1h1v-1h1zM32 12h1v1h-1zM13 13h1v1h1v1h1v1h1v1h-1v1h-1v1h-2v-2h1v-1h-1zM33 13h1v2h-1v4h1v1h-1v2h1v2h-1v-1h-2v-1h1v-2h-1v-1h1v-3h-2v2h-1v-1h-1v-1h1v-2h1v1h2v-1h1zM8 14h1v1h-1zM10 14h1v2h-1zM16 14h3v2h2v-1h1v1h1v-1h2v2h-1v1h1v-1h1v1h1v1h1v-1h1v2h-1v1h-1v-1h-1v-1h-2v1h-1v-2h-1v-1h-3v1h-1v1h-1v-2h1v-2h-2zM1 15h1v1h2v-1h1v3h1v1h2v1h-3v-1h-1v-1h-1v2h-2v-1h1v-2h-1zM7 15h1v1h-1zM8 16h1v1h-1zM6 17h2v1h-2zM10 17h2v1h-2zM27 17h1v1h-1zM8 18h1v1h-1zM19 18h1v2h1v-1h1v1h1v1h1v-1h1v2h-2v4h-1v1h1v2h1v1h-1v1h-1v-1h-2v-1h2v-1h-1v-1h-2v-1h1v-1h2v-2h-1v-1h1v-1h-1v1h-1v1h1v1h-3v-1h1v-1h-1v1h-1v1h-1v-1h-1v-1h2v-1h1v-1h1zM30 18h1v1h-1zM9 19h1v1h-1zM11 19h1v2h-1v1h-2v1h2v1h-6v-1h-1v1h1v1h-3v-1h-1v-1h1v-1h-1v-1h2v-1h1v1h1v1h1v1h2v-1h-1v-1h3v-1h1zM15 19h1v1h-1zM14 20h1v1h-1zM12 21h2v1h-2zM26 21h1v1h-1zM28 21h1v1h-1zM11 22h1v1h-1zM25 22h1v1h1v1h-2zM27 22h1v1h-1zM13 23h2v1h-1v1h-1zM29 23h1v1h1v1h-1v1h1v1h2v1h1v1h-1v1h-1v-2h-1v4h-2v-1h-2v-1h-2v-5h3v-1h1zM17 24h1v1h1v1h-3v1h-4v1h1v1h2v-1h1v2h-3v2h-1v-1h-1v3h-2v-1h1v-2h-1v-1h1v-1h-1v-1h1v-1h1v-1h-1v1h-1v-2h3v1h2v-1h3zM24 24h1v1h-1zM1 25h1v1h-1zM5 25h3v1h-3zM33 25h1v2h-1zM26 26v3h3v-3zM1 27h7v7h-7zM17 27h1v1h-1zM27 27h1v1h-1zM2 28v5h5v-5zM3 29h3v3h-3zM11 29v1h1v-1zM17 29h1v1h-1zM16 30h1v1h-1zM14 31h1v1h3v-1h2v1h1v1h-5v1h-2zM23 31h2v1h-1v1h-1v1h-2v-1h1v-1h1zM33 31h1v1h-1zM25 32h2v1h-1v1h-1zM28 32h1v1h-1zM12 33h1v1h-1zM32 33h1v1h-1z"/></svg>