<svg xmlns="http://www.w3.org/2000/svg" viewBox="0 0 35 35"><path d="M1 1h7v7h-7zM11 1h1v1h2v1h-2v1h-1v1h-1v4h-1v-6h2zM17 1h1v3h-1v-1h-1v-1h1zM19 1h3v1h-2v1h-1zM24 1h1v1h-1zM27 1h7v7h-7zM2 2v5h5v-5zM22 2h1v2h-1zM28 2v5h5v-5zM3 3h3v3h-3zM15 3h1v1h-1zM24 3h2v1h-2zM29 3h3v3h-3zM19 4h2v1h-2zM23 4h1v1h-1zM13 5h1v1h-1zM15 5h3v1h-3zM21 5h1v1h-1zM24 5h1v1h-1zM11 6h1v2h-1zM18 6h3v1h-1v1h1v-1h1v1h1v-1h-1v-1h2v2h1v1h-1v1h-1v-1h-2v1h1v1h1v2h-2v-2h-1v-2h-1v-2h-1zM25 6h1v2h-1zM13 7h1v2h-2v-1h1zM15 7h1v3h-1v1h2v1h-2v1h-2v4h1v1h1v1h-2v-1h-1v-1h-1v-1h1v-1h-1v-2h-1v1h-1v-2h-2v1h-1v-1h-1v-1h4v-1h1v2h3v-2h1v-1h1zM17 7h1v2h-1zM1 9h1v1h1v-1h5v1h-3v1h-3v1h1v2h-1v-1h-1zM10 9h1v1h-1zM18 9h1v3h1v1h-2v-2h-1v-1h1zM27 9h5v1h2v1h-1v1h-1v1h-1v1h3v1h-1v1h-1v1h-2v-1h1v-1h-1v-1h-2v-1h1v-2h1v1h1v-1h-1v-1h-2v1h-1v3h1v1h-1v1h1v1h-1v1h-2v-1h1v-1h-1v-1h1v-1h-1v-1h1v-3h1zM24 10h1v1h-1zM4 12h1v1h1v1h-1v1h-2v-1h1zM24 12h1v1h-1zM33 12h1v1h-1zM7 13h1v1h-1zM15 13h3v1h-1v1h1v1h-1v1h2v1h-1v1h-1v-1h-1v-2h-1v-1h1v-1h-1zM23 13h1v1h1v1h-2zM1 14h1v1h-1zM8 14h1v2h-3v2h1v1h-2v-1h-1v-2h1v-1h3zM19 14h1v1h-1zM21 15h1v1h1v1h-1v3h1v1h-3v-1h1v-1h-1v-2h1zM1 16h1v1h-1zM9 16h1v1h-1zM14 16h1v1h-1zM19 16h1v1h-1zM2 17h1v1h-1zM7 17h1v1h-1zM23 17h1v1h1v1h-2zM28 17h2v1h-1v1h-2v-1h1zM33 17h1v2h-1v2h1v2h-1v-1h-1v-1h-1v2h-1v-1h-1v-3h1v1h1v-1h-1v-1h3zM1 18h1v1h-1zM3 18h1v2h1v1h-1v1h1v2h1v-3h3v2h-1v-1h-1v1h1v1h-1v1h-2v1h-1v-1h-1v-1h1v-1h-2v3h-1v-6h1v-1h1zM8 18h1v1h1v1h-3v-1h1zM10 18h2v1h1v1h-1v2h1v2h-2v2h2v1h-4v-2h1v-5h1v-1h-1zM15 19h2v2h-1v-1h-1zM19 19h1v1h-1zM13 20h2v2h-1v-1h-1zM24 20h1v1h-1zM26 20h1v2h1v1h-2zM19 21h1v1h-1zM16 22h3v1h1v1h1v-1h-1v-1h3v3h-1v2h-2v-2h-1v-1h-1v-1h-2zM24 22h1v1h-1zM14 23h1v1h-1zM25 23h1v1h-1zM28 23h2v1h2v-1h1v1h1v1h-3v1h-1v3h1v1h1v-1h-1v-3h1v1h1v1h1v3h-5v1h3v1h-1v1h-3v-2h-1v2h-4v-1h-1v-1h-1v-1h-1v1h-1v-1h-1v-1h4v1h1v1h1v1h2v-1h-1v-1h1v-1h-1v-1h-1v-1h-1v-3h4v-1h1zM8 24h1v1h-1zM15 24h1v2h-1v1h-1v-1h-1v-1h2zM17 24h1v1h1v3h4v1h-5v-2h-1zM7 25h1v1h-1zM24 26v1h1v-1zM26 26v3h3v-3zM33 26h1v1h-1zM1 27h7v7h-7zM16 27h1v1h-1zM27 27h1v1h-1zM2 28v5h5v-5zM9 28h2v1h-1v3h-1zM12 28h4v1h-1v1h-1v1h-1v-2h-1zM3 29h3v3h-3zM16 29h2v1h-1v1h1v1h-1v2h-1v-2h-2v-1h2zM23 29h1v1h-1zM24 30h1v1h-1zM27 30v1h1v-1zM12 31h1v1h-1zM10 32h1v1h-1zM13 32h1v1h-1zM20 32h1v1h-1zM9 33h1v1h-1zM12 33h1v1h-1zM14 33h1v1h-1zM18 33h1v1h-1zM21 33h1v1h-1zM32 33h1v1h-1z"/></svg>