<svg xmlns="http://www.w3.org/2000/svg" viewBox="0 0 35 35"><path d="M1 1h7v7h-7zM10 1h3v2h-3zM15 1h1v1h-1zM17 1h1v1h-1zM19 1h6v1h-3v1h-1v-1h-1v1h-1zM27 1h7v7h-7zM2 2v5h5v-5zM16 2h1v1h1v1h-1v1h2v1h2v1h-1v1h-1v-1h-1v-1h-3v1h-1v-1h-1v1h-1v-2h4v-1h-1v-1h1zM25 2h1v3h-1zM28 2v5h5v-5zM3 3h3v3h-3zM9 3h1v2h1v2h-1v1h1v-1h1v1h1v-1h1v2h-2v2h-1v-1h-1v-1h-1zM22 3h1v1h-1zM29 3h3v3h-3zM11 4h1v1h-1zM19 4h2v1h-2zM23 4h1v1h-1zM21 5h1v1h-1zM24 5h1v1h-1zM22 6h1v1h-1zM15 7h1v1h-1zM17 7h1v2h-1zM21 7h1v1h1v-1h1v3h-1v-1h-2v1h2v1h1v1h-1v1h-2v-1h1v-1h-2v-3h1zM25 7h1v1h-1zM1 9h1v1h1v2h-1v-1h-1zM3 9h5v1h-2v1h3v1h-2v1h2v-1h1v1h1v1h-2v1h-1v-1h-2v-1h-2v1h-1v-2h2v-1h-1v-1h-1zM14 9h2v1h-1v1h2v-1h1v-1h1v3h1v1h-2v1h-1v-1h-1v-1h-1v1h-1v1h1v1h1v-1h1v1h1v1h-1v2h-1v1h-1v-2h1v-1h-1v1h-1v3h-1v-1h-1v1h-1v-3h1v1h1v-2h-1v-1h1v-3h-1v-1h2zM27 9h5v1h2v1h-1v1h-1v1h-1v1h-3v-1h1v-2h1v1h1v-1h-1v-1h-2v1h-1zM24 10h1v1h-1zM26 11h1v1h-1zM1 12h1v1h-1zM24 12h1v1h-1zM27 12h1v1h-1zM15 13h1v1h-1zM23 13h1v1h-1zM25 13h2v1h1v1h2v1h-2v1h-1v1h1v-1h2v-1h1v-2h2v-1h1v2h-1v1h-1v1h-1v1h1v1h1v1h1v1h-3v1h-3v-1h1v-2h1v1h1v-1h-1v-1h-1v1h-1v1h-1v-1h-1v-2h-2v1h1v1h-2v-2h-2v-2h1v1h1v-1h1v1h1v-1h1v-1h-1zM1 14h2v1h-2zM5 14h1v1h-1zM19 14h1v1h-1zM24 14h1v1h-1zM7 15h1v1h-1zM9 15h2v2h-1v-1h-1zM2 16h4v2h-1v-1h-2v1h1v1h4v-1h1v1h1v1h1v1h-1v1h1v1h-3v-1h-1v-1h1v-1h-1v1h-1v1h-1v1h1v1h-2v-1h-1v-4h-1zM8 16h1v1h-1zM19 16h1v1h-1zM7 17h1v1h-1zM9 17h1v1h-1zM18 17h1v1h-1zM20 17h1v1h1v2h-1v-1h-1zM33 17h1v2h-1zM17 18h1v3h-2v-2h1zM1 19h1v7h-1zM19 19h1v1h-1zM25 19h1v1h-1zM4 20v1h1v-1zM12 20h1v1h1v1h-3v-1h1zM22 20h1v1h-1zM24 20h1v1h-1zM15 21h1v1h-1zM19 21h1v1h-1zM26 21h1v1h1v1h-2zM16 22h2v1h-2zM20 22h3v3h-2v1h1v2h1v1h-2v-2h-1v-2h-1v-2h1v1h1v-1h-1zM24 22h1v1h-1zM33 22h1v1h-1zM7 23h1v1h-1zM11 23h3v1h-1v2h-1v-1h-1zM25 23h1v1h-1zM29 23h4v1h1v1h-3v1h-1v3h1v1h-1v1h-1v1h3v1h-2v1h-2v-2h-2v-1h-2v-1h1v-1h-1v-1h-1v-1h2v-2h1v-1h3v1h1v-1h-1zM3 24h1v1h4v-1h1v2h-6zM14 24h2v1h-2zM17 24h1v1h-1zM24 24h1v1h-1zM18 25h1v3h1v1h-2v-1h-1v1h-1v-1h-1v1h-1v1h-1v-1h-1v-1h-1v4h1v1h-2v-1h-1v-4h1v-1h-1v-1h2v1h2v1h1v-1h-1v-1h3v1h1v-1h1zM23 25h1v1h-1zM26 26v3h3v-3zM31 26h1v1h1v2h-2zM33 26h1v1h-1zM1 27h7v7h-7zM27 27h1v1h-1zM2 28v5h5v-5zM3 29h3v3h-3zM15 29h1v1h1v1h1v1h-1v1h2v1h-3v-2h-1zM17 29h1v1h-1zM23 29h1v1h-1zM33 29h1v2h-3v-1h2zM18 30h4v1h2v1h1v1h1v1h-3v-1h-1v-1h-1v-1h-1v1h1v1h-2v-2h-1zM27 30v1h1v-1zM13 31h1v1h-1zM14 32h1v1h-1zM9 33h1v1h-1zM32 33h1v1h-1z"/></svg>