<svg xmlns="http://www.w3.org/2000/svg" viewBox="0 0 35 35"><path d="M1 1h7v7h-7zM9 1h1v2h-1zM11 1h3v2h1v-2h1v3h-2v1h1v2h-1v-1h-2v-1h-1zM17 1h1v1h-1zM19 1h4v1h-4zM24 1h1v1h1v6h-1v-3h-2v-1h2v-1h-1zM27 1h7v7h-7zM2 2v5h5v-5zM12 2v2h1v-2zM18 2h1v1h-1zM28 2v5h5v-5zM3 3h3v3h-3zM17 3h1v1h-1zM19 3h3v1h-1v1h-1v1h-1v1h-1v1h1v1h1v1h2v-1h1v3h-1v1h-1v1h-1v-2h1v-1h-1v1h-1v-1h-1v1h-1v-2h-1v1h-1v1h-1v2h-2v-2h1v-1h-1v-1h1v-1h1v1h1v-3h1v1h1v-1h-1v-1h1v-1h2zM29 3h3v3h-3zM9 4h1v1h-1zM10 5h1v1h-1zM22 5h1v1h-1zM23 6h1v3h-1zM9 7h1v1h1v1h1v1h-2v-1h-1zM11 7h1v1h-1zM13 7h1v1h-1zM19 7h1v1h-1zM21 7h1v1h-1zM20 8h1v1h-1zM1 9h1v1h-1zM3 9h2v2h1v1h-2v-1h-2v-1h1zM6 9h3v1h1v1h2v1h-1v1h-2v2h1v1h-5v1h1v1h-5v-3h3v-1h-2v-2h2v1h4v-1h1v-1h-1v-1h-2zM27 9h1v2h2v-2h1v1h1v1h-1v3h2v1h-1v3h-1v-1h-1v1h1v1h-1v2h-6v1h-2v-1h1v-2h1v1h1v-1h-1v-1h-2v1h-1v-1h-2v-2h1v1h1v-1h-1v-1h1v-1h2v-1h1v3h-1v1h2v-3h1v3h2v2h-1v-1h-1v1h1v1h2v-4h-1v-3h-1v1h-1v-2h1zM32 9h2v5h-1v-2h-1v-1h1v-1h-1zM24 10h1v1h1v1h-1v1h-1zM1 11h1v1h-1zM7 11h1v1h-1zM18 12h1v1h-1zM29 12v1h1v-1zM15 13h3v1h-2v2h1v1h-1v1h-1v1h1v-1h1v1h1v1h1v-1h1v1h1v2h1v1h-2v-2h-2v2h-1v2h-1v-3h1v-2h-1v2h-1v-2h-1v-2h-2v-1h1v-1h2v-1h-1v-1h1zM5 14v1h1v-1zM7 14v1h1v-1zM10 14h1v1h-1zM18 14h1v2h-1zM29 14v1h1v1h1v-1h-1v-1zM11 15h1v2h-1zM7 17h4v1h1v1h-1v1h1v1h-1v1h-2v-1h1v-3h-1v1h-1v-1h-1zM6 18h1v1h-1zM32 18h2v1h-1v2h-1v-1h-1v-1h1zM3 19h2v1h2v1h1v1h-2v-1h-1v1h1v1h-1v1h1v1h-4v-1h1v-2h1v-2h-1zM7 19h1v1h-1zM12 19h1v1h-1zM2 20h1v1h-1zM8 20h1v1h-1zM13 20h1v1h-1zM12 21h1v1h1v1h-1v2h-1v1h-1v-1h-1v-2h1v1h1zM30 21h2v2h1v-1h1v3h-1v-1h-2v3h-1v3h-4v2h1v1h-2v-2h-2v-1h-1v1h1v1h-1v1h1v1h-5v-2h3v-3h1v-3h1v3h1v-3h1v-1h1v-1h2v1h2v-2h1v-1h-1zM1 22h1v1h-1zM8 22h1v2h-3v-1h2zM24 22h1v1h1v1h-1v1h-1zM27 22h1v1h-1zM14 23h1v3h-1v1h-1v-2h1zM18 23h2v2h-1v-1h-1zM28 23h1v1h-1zM21 24h1v1h-1zM1 25h1v1h-1zM6 25h2v1h-2zM9 25h1v1h1v1h-1v1h1v-1h1v1h1v3h-1v-1h-1v-1h-2zM17 25h2v1h-1v1h1v-1h1v-1h1v4h-1v1h-2v2h-3v-4h2v1h-1v2h1v-2h1v-1h-1v-1h-1v-1h1zM23 25h1v1h-1zM26 26v3h3v-3zM32 26h1v1h-1zM1 27h7v7h-7zM14 27h1v1h-1zM27 27h1v1h-1zM2 28v5h5v-5zM31 28h3v3h-1v-1h-2zM3 29h3v3h-3zM9 30h2v1h1v1h-1v1h-1v-1h-1zM30 30h1v1h-1zM13 31h1v2h-1v1h-2v-1h1v-1h1zM27 31h2v1h-2zM31 31h1v1h-1zM23 32h1v1h-1zM29 32h1v1h-1zM33 32h1v1h-1zM9 33h1v1h-1zM14 33h1v1h-1zM24 33h1v1h-1zM27 33h1v1h-1zM30 33h2v1h-2z"/></svg>