<svg xmlns="http://www.w3.org/2000/svg" viewBox="0 0 35 35"><path d="M1 1h7v7h-7zM11 1h1v1h-1zM15 1h1v1h-1zM17 1h1v2h-1v1h-2v-1h1v-1h1zM20 1h5v1h-3v1h3v1h-1v1h-1v-1h-2v-2h-1zM27 1h7v7h-7zM2 2v5h5v-5zM10 2h1v1h-1zM19 2h1v1h-1zM25 2h1v1h-1zM28 2v5h5v-5zM3 3h3v3h-3zM9 3h1v1h2v-1h2v1h-1v1h1v1h1v1h-1v1h-1v-2h-1v-1h-1v1h-1v2h1v-2h1v3h-3zM29 3h3v3h-3zM19 4h1v1h-1zM25 4h1v1h-1zM15 5h3v1h-3zM21 5h2v1h-2zM24 5h1v1h-1zM20 6h1v1h-1zM23 6h1v2h-1zM25 6h1v2h-1zM15 7h1v1h-1zM17 7h1v2h-1zM19 7h1v1h-1zM21 7h1v1h1v1h-2v1h2v1h-1v1h-1v-1h-1v-3h1zM1 9h1v2h-1zM3 9h5v1h-2v1h2v1h-1v1h-1v1h-1v-1h-1v-1h-2v-1h3v-1h-2zM13 9h3v2h1v1h-2v1h-1v-2h-2v2h2v1h1v1h-2v-1h-2v2h1v1h2v2h1v1h-1v1h-2v-1h-1v-2h-2v1h-1v-1h-1v-1h3v-4h1v-3h2zM18 9h1v3h2v1h-3v1h-1v1h1v1h-1v2h-1v1h-1v-4h1v-1h-1v-1h2v-1h1v-1h-1v-1h1zM23 9h1v1h-1zM27 9h5v2h1v1h1v1h-3v1h3v1h-1v1h-1v1h-1v1h2v-1h1v2h-1v1h-1v1h-1v1h1v1h1v1h1v1h-4v-3h-1v-3h1v1h1v-1h-1v-1h-1v1h-2v-1h1v-2h1v1h1v-3h-2v-1h1v-2h1v1h1v-1h-1v-1h-2v1h-1zM8 10h2v1h-2zM24 10h1v1h-1zM33 10h1v1h-1zM23 11h1v1h1v-1h1v1h1v2h-1v-1h-2v1h-1v-1h-1v-1h1zM3 13h1v1h-1zM7 13h2v2h-1v-1h-1zM1 14h2v1h-1v1h1v-1h1v1h1v1h-2v1h2v1h-1v1h1v1h1v1h1v1h1v-1h-1v-1h2v-2h1v1h1v1h1v1h-1v2h-1v-2h-1v2h1v1h-1v1h-2v-1h1v-1h-2v2h-3v-1h2v-1h-1v-1h1v-1h-2v-1h-1v1h1v1h-1v3h-1v-6h1v-3h-1zM19 14h1v3h-1zM22 14h1v1h-1zM24 14h1v1h-1zM27 14h1v1h-1zM5 15h1v1h-1zM7 15h1v1h-1zM12 15h1v1h-1zM21 15h1v1h1v-1h1v1h1v-1h1v1h1v2h-1v-1h-2v1h1v1h-1v1h-1v-1h-3v-2h1zM5 17h1v1h-1zM18 17h1v1h-1zM22 17v1h1v-1zM6 18h1v1h-1zM17 18h1v1h-1zM7 19h1v1h-1zM16 19h1v1h1v1h-1v1h1v1h-2zM19 19h1v1h-1zM26 19h1v1h1v1h-1v1h-2v1h-1v-3h1v1h1zM6 20h1v1h-1zM20 20h1v1h-1zM22 20h1v1h-1zM33 20h1v1h-1zM19 21h1v1h-1zM12 22h3v2h-1v-1h-1v1h-1zM20 22h3v1h1v3h-1v-1h-2v1h1v1h-3v1h4v1h-5v-2h-1v-1h1v-1h1v1h1v-2h1v-1h-1zM27 22h1v2h-1zM33 22h1v1h-1zM18 23h2v1h-2zM15 24h1v1h-1zM17 24h1v1h-1zM25 24h2v1h1v-1h1v1h1v4h1v1h-1v1h-1v1h1v-1h1v1h1v1h-1v1h-3v-2h-1v-1h1v-1h-1v1h-2v-2h-1v-1h-1v-1h2zM11 25h1v1h-1zM13 25h2v1h-1v4h-1v-1h-1v-1h1v-1h-1v-1h1zM9 26h1v1h-1zM26 26v3h3v-3zM31 26h3v1h-1v2h-2zM1 27h7v7h-7zM10 27h1v2h1v1h1v1h-1v1h-1v-2h-1v2h-1v-4h1zM15 27h2v1h-1v1h-1zM27 27h1v1h-1zM2 28v5h5v-5zM3 29h3v3h-3zM17 29h1v1h-1zM23 29h1v1h-1zM15 30h2v1h1v1h-1v2h-5v-2h2v1h1v-1h1v-1h-1zM18 30h5v1h1v2h3v1h-4v-1h-1v-1h-1v-1h-1v1h1v1h-2v-2h-1zM31 30h3v1h-3zM14 31h1v1h-1zM9 33h1v1h-1zM18 33h1v1h-1zM21 33h1v1h-1zM32 33h1v1h-1z"/></svg>