<svg xmlns="http://www.w3.org/2000/svg" viewBox="0 0 35 35"><path d="M1 1h7v7h-7zM9 1h3v4h2v1h3v-1h1v1h1v1h-1v1h1v1h1v1h1v-1h2v1h-1v1h1v1h-1v1h-1v-2h-1v1h-1v-1h-2v-1h-2v-1h1v-1h1v-1h-1v1h-1v-1h-1v3h-3v-1h2v-3h-2v-1h-2v-1h2v-2h-1v1h-1zM15 1h1v3h-3v-2h1v1h1zM17 1h1v1h1v1h-2zM20 1h5v1h1v6h-1v-3h-2v-2h-2v-1h-1zM27 1h7v7h-7zM2 2v5h5v-5zM28 2v5h5v-5zM3 3h3v3h-3zM19 3h1v3h-1zM24 3v1h1v-1zM29 3h3v3h-3zM16 4h1v1h-1zM22 5h1v1h-1zM10 6h1v1h-1zM23 6h1v3h-1zM9 7h1v2h-1zM11 7h1v1h-1zM19 7h1v1h-1zM21 7h1v1h-1zM20 8h1v1h-1zM1 9h1v1h1v1h-1v1h-1zM3 9h2v1h-2zM6 9h3v1h-3zM27 9h1v2h-2v-1h1zM30 9h1v1h1v-1h2v3h-2v-1h-1v3h2v1h-1v3h-1v1h-1v2h-2v-1h1v-3h1v-1h1v-1h-1v-1h-1v-1h1v-1h-1v1h-1v-2h2zM5 10h1v1h-1zM9 10h1v1h4v-1h1v2h-1v1h-1v-1h-2v1h-1v1h1v-1h2v1h-1v1h-1v1h-2v-2h-2v1h-1v-1h-1v-1h1v-1h1v1h2v-1h-2v-1h2zM24 10h1v2h-1zM3 11h2v2h-1v-1h-1zM2 12h1v1h-1zM18 12h1v1h-1zM23 12h1v1h1v1h-2zM15 13h1v3h-2v1h-2v2h-1v-1h-4v-1h1v-1h1v1h2v-1h1v-1h3zM17 13h1v1h-1zM26 13h1v2h-1v2h-1v-3h1zM33 13h1v1h-1zM1 14h1v1h-1zM4 14h1v1h1v2h-1v-1h-1zM21 14h1v1h1v2h1v1h2v-1h2v3h-1v-1h-3v1h-2v-1h1v-1h-1v-1h-1v-1h-2v-1h2zM28 14h1v2h-1zM7 15h1v1h-1zM1 16h2v1h-2zM16 16h1v1h-1zM3 17h2v1h-2zM14 17h1v2h1v-1h1v1h1v1h-4v1h-1v-3h1zM19 17h2v1h-1v2h2v1h-1v1h1v1h-2v-2h-2v-1h1zM6 18h1v1h-1zM21 18h1v1h-1zM32 18h2v1h-1v1h-2v-1h1zM3 19h3v1h-3zM7 19h1v1h-1zM10 19h1v3h-1zM8 20h1v1h-1zM24 20h1v1h1v1h-1v1h2v-1h1v2h-1v1h3v1h1v1h-1v3h-4v3h-1v-2h-1v1h-1v-1h-1v2h-1v1h-3v-2h1v-1h1v1h1v-2h-2v1h-1v1h-3v-1h2v-2h1v-1h-1v-1h-1v-1h2v1h2v-2h1v2h1v-1h1v3h1v-2h1v-2h1v-1h-1v1h-1v-3h-2v-1h2zM1 21h1v1h1v1h-2zM3 21h5v1h-3v1h-1v-1h-1zM15 21h3v2h-1v2h-2v-1h1v-2h-1zM30 21h2v2h-2zM8 22h1v1h-1zM11 22h1v2h-2v1h2v1h-2v2h2v-2h3v1h-1v2h-1v1h1v3h-1v-2h-1v-2h-3v-6h2zM13 22h2v1h-1v1h-1zM33 22h1v3h-1v-1h-1v-1h1zM3 23h1v1h1v1h-1v1h-1v-1h-1v-1h1zM5 23h3v1h-3zM18 23h1v1h-1zM22 23h1v1h-1zM29 23h1v1h-1zM12 24h1v1h-1zM21 24h1v1h-1zM30 24h1v1h-1zM1 25h1v1h-1zM5 25h3v1h-3zM18 25h1v1h-1zM23 25h1v1h-1zM26 26v3h3v-3zM32 26h1v1h-1zM1 27h7v7h-7zM15 27h1v1h1v1h-2zM27 27h1v1h-1zM2 28v5h5v-5zM21 28v1h1v-1zM31 28h3v3h-1v-2h-1v3h-1v-1h-1v-1h1zM3 29h3v3h-3zM9 30h2v2h-2zM27 31h2v1h-1v1h-1zM11 32h1v1h1v1h-4v-1h2zM29 32h1v1h-1zM33 32h1v1h-1zM15 33h1v1h-1zM22 33h1v1h-1zM24 33h1v1h-1zM31 33h1v1h-1z"/></svg>