<svg xmlns="http://www.w3.org/2000/svg" viewBox="0 0 35 35"><path d="M1 1h7v7h-7zM9 1h2v2h1v3h5v1h-1v2h-1v-2h-1v1h-1v-1h-1v2h-2v1h-1v1h-1v-1h-1v-1h2v-5h1v-2h-1zM13 1h2v1h1v2h-1v-1h-1v-1h-1zM16 1h2v2h-1v-1h-1zM19 1h1v1h2v-1h1v2h1v1h-2v-1h-2v1h-1v1h-1v1h-1v-2h1v-1h1zM24 1h1v1h-1zM27 1h7v7h-7zM2 2v5h5v-5zM12 2h1v1h-1zM28 2v5h5v-5zM3 3h3v3h-3zM29 3h3v3h-3zM13 4h1v1h-1zM24 4h1v2h-1zM10 5v3h1v-3zM20 5h1v1h-1zM21 6h3v2h-1v-1h-1v1h1v1h1v-1h1v4h-2v-1h1v-1h-2v-1h-3v2h-1v3h-2v-1h1v-1h-2v2h-1v-2h-1v-1h-1v-2h2v2h1v-1h1v-1h1v1h1v-2h1v-1h1v1h1zM25 6h1v2h-1zM17 7h1v1h-1zM1 9h1v1h-1zM5 9h1v1h-1zM26 9h5v1h2v3h-1v-2h-1v1h-1v-2h-1v1h-1v-1h-1v1h1v3h-1v-2h-1zM33 9h1v1h-1zM2 10h2v1h-1v2h1v1h-2v-2h-1v-1h1zM6 10h1v1h-1zM4 11h1v1h-1zM7 11h1v1h-1zM11 11h1v1h-1zM19 11h1v1h-1zM8 12h2v1h1v1h3v2h-1v-1h-2v1h-1v-1h-1v-1h-2v1h-1v1h1v1h1v1h-1v1h-2v-1h1v-1h-1v-4h3zM12 12h1v1h-1zM20 12h1v1h1v-1h1v1h2v2h1v-1h1v2h-1v1h-1v-1h-2v1h1v1h-3v-3h-1v2h-1v1h-1v-1h-2v-1h-1v-2h1v1h1v1h1v-1h1v-1h1zM29 13h2v2h-1v-1h-1zM28 14h1v1h1v2h1v1h1v-1h1v4h1v1h-1v2h1v2h-1v2h1v2h-1v-1h-1v-2h-1v-1h1v-2h-3v1h1v2h1v3h1v2h-1v-1h-1v1h-1v1h-1v-1h-1v-2h-2v-6h1v1h2v-3h-1v-3h1v2h3v1h1v-3h-1v1h-1v-2h-1v-2h-1zM2 15h1v1h1v1h1v1h-3zM7 15h2v1h-2zM32 15h1v1h-1zM9 16h1v2h-1zM12 16h1v1h-1zM27 16h1v2h-1zM11 17h1v5h-1v-1h-1v1h1v1h2v2h-1v-1h-2v1h-1v-3h-2v-1h1v-1h2v-1h1zM15 17h1v1h-1zM13 18h1v1h1v1h-2zM16 18h2v1h-1v1h-1zM19 18h1v1h-1zM24 18h1v1h1v1h-1v1h-1zM26 18h1v1h-1zM4 19h1v1h-1zM7 19h1v1h-1zM18 19h1v1h1v1h1v-1h1v-1h1v4h-1v-1h-3v-1h-1zM1 20h1v3h-1zM3 20h1v1h-1zM5 20h1v2h-1zM15 20h1v1h-1zM14 21h1v1h-1zM6 22h1v1h-1zM13 22h1v1h-1zM17 22h2v4h1v2h-1v-1h-2v1h1v2h-2v-1h-1v-1h1v-3h1v1h1v-2h-1zM24 22h1v2h-1v2h-1v1h-1v-1h-1v-1h-1v-1h1v-1h1v1h1v-1h1zM26 22h1v2h-1zM29 22v1h1v-1zM5 23h1v3h-2v-1h-1v-1h2zM7 23h1v1h-1zM15 23h1v2h-1zM1 25h2v1h-2zM7 25h2v1h-2zM9 26h6v2h-2v4h-1v-5h-1v2h-1v-1h-1zM26 26v3h3v-3zM1 27h7v7h-7zM21 27h1v1h-1zM27 27h1v1h-1zM2 28v5h5v-5zM20 28h1v1h-1zM22 28h2v2h-3v-1h1zM3 29h3v3h-3zM9 29h1v1h-1zM14 29h1v1h-1zM10 30h1v3h2v-1h1v-1h1v1h1v-1h1v1h1v-1h1v-1h1v2h1v1h1v-1h1v-1h2v1h-1v1h1v-1h2v1h-1v1h-6v-1h-1v1h-1v-1h-2v1h-1v-1h-1v1h-5v-1h1zM28 30v1h1v-1zM21 31h1v1h-1zM29 33h2v1h-2zM33 33h1v1h-1z"/></svg>