<svg xmlns="http://www.w3.org/2000/svg" viewBox="0 0 35 35"><path d="M1 1h7v7h-7zM10 1h4v1h-2v1h1v1h-3v2h1v1h-1v1h1v-1h1v2h1v-2h1v2h2v1h-1v1h2v1h-2v1h-2v2h-1v-2h-1v-1h3v-1h-1v-1h-1v1h-1v1h-1v-3h-1v-6h1zM17 1h1v2h-2v-1h1zM19 1h3v1h-2v1h-1zM23 1h2v1h-1v2h1v-1h1v2h-1v1h-1v3h1v-3h1v4h-1v1h-1v1h-1v-1h-1v1h-1v-1h-2v1h1v1h-2v-2h-1v-1h1v-1h1v1h1v-2h1v-1h1v1h1v-2h-2v-1h2v-1h-2v-1h2zM27 1h7v7h-7zM2 2v5h5v-5zM28 2v5h5v-5zM3 3h3v3h-3zM15 3h1v1h-1zM29 3h3v3h-3zM16 4h1v1h1v1h-4v-1h2zM19 4h1v1h-1zM12 5h1v1h-1zM18 6h1v1h-1zM20 6h1v1h-1zM15 7h1v1h-1zM17 7h1v2h-1zM19 7h1v1h-1zM1 9h1v1h-1zM3 9h5v1h-1v1h1v1h-2v-1h-2v-1h-1zM21 9v1h2v-1zM27 9h5v1h2v1h-1v3h1v1h-1v1h-1v-1h-1v1h1v1h-2v1h-1v1h-1v1h-2v-1h1v-1h1v-2h-1v-2h1v1h2v-1h-2v-1h1v-2h1v1h1v-1h-1v-1h-2v2h-1zM2 10h1v1h1v1h-1v2h3v2h-1v1h3v1h-1v1h-1v3h-1v-1h-1v-1h1v-1h-1v-4h-2v-2h-1v-1h1zM8 10h1v1h-1zM5 12h1v1h-1zM9 12h1v1h-1zM22 12h1v1h-1zM24 12h3v2h-2v1h-1v-1h-1v-1h1zM6 13h3v1h-3zM15 13h3v1h-1v1h1v-1h2v3h-1v-1h-2v2h-1v1h-1v-1h-1v1h-1v-3h1v-2h1v1h1v-1h-1zM31 13v1h1v-1zM9 14h1v1h-1zM22 14h1v2h1v2h-1v-1h-2v-2h1zM1 15h1v1h1v1h-2zM7 15h2v2h-1v-1h-1zM11 15h1v1h-1zM25 15h1v1h-1zM10 16h1v1h1v2h-1v-1h-1zM15 16v1h1v-1zM26 16h1v2h-2v-1h1zM18 17h1v1h-1zM20 17h1v1h1v1h-2zM33 17h1v2h-1zM1 18h1v2h-1zM9 18h1v4h-1v-1h-1v-1h1zM17 18h1v1h-1zM24 18h1v1h-1zM30 18h2v1h1v1h1v3h-1v-2h-2v2h2v1h1v1h-4v-1h-1v-1h1v-1h-1v-3h1v1h1v-1h-1zM3 19h1v1h-1zM7 19h1v1h-1zM16 19h1v3h2v1h1v1h1v-1h-1v-1h2v2h1v1h-2v1h1v2h-1v-1h-1v-2h-1v-1h-1v-1h-2v2h-1v-1h-1v-1h1v-1h-1v-1h2zM19 19h1v1h-1zM22 19h1v2h-2v-1h1zM12 20h2v1h-1v1h-1zM24 20h1v1h-1zM1 21h1v1h1v1h-1v3h-1zM3 21h1v1h-1zM7 21h1v1h-1zM19 21h1v1h-1zM26 21h1v1h-1zM4 22h1v2h1v-1h2v-1h1v3h-1v-1h-1v1h-1v1h-3v-3h1zM24 22h1v1h-1zM27 22h1v2h-1zM23 23h1v1h-1zM10 24h1v1h-1zM17 24h1v1h1v3h2v1h-3v-1h-1v1h-2v2h1v-1h1v1h1v1h-1v1h2v1h-6v-2h1v1h2v-1h-2v-4h2v-1h1zM24 24h1v1h1v-1h1v1h1v-1h1v1h1v4h1v1h-1v1h-1v1h1v-1h1v1h1v1h-2v1h-3v-1h-1v-1h1v-1h1v-1h-1v1h-1v-1h-1v-1h-1v-1h-1v-1h2v-1h-2v-1h1zM7 25h1v1h-1zM11 25h4v1h1v1h-2v1h-1v4h-1v-1h-1v-1h-1v2h-1v-4h3v-1h1v-1h-1v1h-3v-1h2zM26 26v3h3v-3zM31 26h1v1h1v1h-1v1h-1zM33 26h1v1h-1zM1 27h7v7h-7zM27 27h1v1h-1zM2 28v5h5v-5zM22 28h1v1h-1zM33 28h1v1h-1zM3 29h3v3h-3zM17 29h1v1h-1zM23 29h1v1h-1zM18 30h5v1h-1v1h-1v-1h-1v1h1v1h-2v-2h-1zM32 30h2v1h-2zM24 31h1v1h-1zM22 32h2v1h2v1h-3v-1h-1zM9 33h1v1h-1zM11 33h1v1h-1zM32 33h1v1h-1z"/></svg>