<svg xmlns="http://www.w3.org/2000/svg" viewBox="0 0 35 35"><path d="M1 1h7v7h-7zM17 1h1v1h-1zM20 1h2v1h-2zM24 1h1v1h-1zM27 1h7v7h-7zM2 2v5h5v-5zM11 2h1v1h2v1h-2v2h-1v1h-1v2h-1v-6h2zM16 2h1v1h-1zM19 2h1v1h-1zM23 2h1v1h-1zM25 2h1v1h-1zM28 2v5h5v-5zM3 3h3v3h-3zM15 3h1v1h-1zM22 3h1v1h-1zM24 3h1v1h-1zM29 3h3v3h-3zM19 4h1v1h-1zM23 4h1v1h-1zM25 4h1v1h-1zM14 5h4v1h-2v2h-1v-2h-1zM21 5h1v1h-1zM24 5h1v1h-1zM18 6h3v1h-1v1h1v-1h1v1h1v1h-1v2h-3v1h1v1h-2v1h-1v1h1v1h-1v2h-1v-1h-1v-1h1v-2h-1v-1h1v-1h-1v1h-2v-1h-1v1h1v1h-1v1h-1v1h-1v-3h-1v-1h2v-3h1v1h1v-1h3v1h-1v1h2v1h1v-1h-1v-4h1v2h1v1h1v-1h-1v-2h-1zM22 6h1v1h-1zM25 6h1v2h-1zM11 7h1v1h-1zM13 7h1v1h-1zM23 7h1v1h-1zM24 8h1v1h-1zM1 9h1v1h-1zM3 9h5v1h-2v2h1v1h-1v2h-2v-1h1v-2h-1v-1h-2v-1h1zM23 9h1v1h1v1h-1v1h1v-1h1v1h2v1h-1v1h-1v-1h-2v1h-1v-1h-1v-2h1zM25 9h1v1h-1zM27 9h5v2h1v2h-2v2h-1v-1h-1v-3h1v1h1v-1h-1v-1h-2v1h-1zM8 10h1v2h-2v-1h1zM33 10h1v1h-1zM1 11h1v1h2v1h-3zM7 13h1v1h-1zM20 13h1v1h-1zM14 14h1v1h-1zM18 14h2v1h-2zM22 14h1v1h1v1h-1v1h-2v-2h1zM24 14h1v1h-1zM27 14h1v2h-1zM32 14h2v1h-1v1h-1zM1 15h2v1h-1v1h3v1h-3v1h-1zM7 15h1v1h-1zM12 15h1v1h-1zM25 15h1v2h1v1h-2v1h-1v-1h-1v-1h1v-1h1zM9 16h1v1h-1zM11 16h1v1h-1zM19 16h1v1h-1zM30 16h2v1h-1v1h1v1h1v1h-1v1h-1v1h1v1h-2v-1h-1v-3h1v1h1v-1h-1v-1h-1v1h-1v1h-2v-1h1v-1h1v-1h2zM7 17h2v1h-2zM10 17h1v1h-1zM14 17h1v1h-1zM18 17h1v1h-1zM20 17h1v1h2v1h-3v1h-1v-2h1zM33 17h1v2h-1zM5 18h1v2h1v1h-2v1h1v2h1v1h-1v1h-3v-2h1v-1h-1v-2h-2v-1h2v-1h2zM17 18h1v2h-1v1h-1v-2h1zM7 19h2v3h-2v-1h1v-1h-1zM10 19h2v1h-1v1h-1zM14 19h1v1h-1zM23 19h1v2h-2v-1h1zM13 20h1v1h-1zM20 20h1v1h-1zM25 20h1v1h-1zM33 20h1v3h-1v-1h-1v-1h1zM14 21h2v1h-1v1h-1zM19 21h1v1h-1zM24 21h1v2h-1zM26 21h1v1h1v1h2v1h-1v1h1v-1h2v-1h1v1h1v1h-3v1h-1v3h1v1h-1v1h-1v1h1v-1h2v2h-2v1h-2v-2h-4v-1h2v-1h-1v-1h-1v-1h-1v-3h-2v1h1v1h-2v-2h-1v-1h2v-1h-1v-1h2v2h1v-1h1v1h1v1h3v-1h-1v-1h-1zM1 22h1v4h-1zM11 22h2v1h1v2h-1v-1h-1v1h1v1h-1v1h1v1h-1v2h-1v-1h-1v1h1v3h1v-1h1v1h1v1h-5v-1h1v-1h-1v-4h2v-1h-2v-2h1v1h1v-1h-1v-1h1zM16 22h2v1h-2zM7 23h1v1h-1zM9 23h1v1h-1zM15 23h1v3h-1v2h-1v-1h-1v-1h1v-1h1zM17 24h1v1h-1zM7 25h1v1h-1zM18 25h1v3h1v1h-2v-2h-1v-1h1zM24 26v1h1v-1zM26 26v3h3v-3zM31 26h1v1h1v1h-1v1h-1zM33 26h1v1h-1zM1 27h7v7h-7zM16 27h1v1h-1zM27 27h1v1h-1zM2 28v5h5v-5zM13 28h1v1h1v1h2v1h1v1h-1v1h2v1h-3v-1h-1v-1h1v-1h-1v1h-1v-1h-2v-1h1zM15 28h1v1h-1zM22 28h1v1h-1zM33 28h1v3h-2v-1h1zM3 29h3v3h-3zM17 29h1v1h-1zM20 29h1v1h2v1h-1v1h-1v-1h-1v1h1v1h-2v-3h1zM23 29h1v1h-1zM27 30v1h1v-1zM22 32h2v1h2v1h-3v-1h-1zM21 33h1v1h-1zM32 33h1v1h-1z"/></svg>