<svg xmlns="http://www.w3.org/2000/svg" viewBox="0 0 35 35"><path d="M1 1h7v7h-7zM9 1h1v1h3v2h-1v2h1v-2h1v2h3v-1h1v3h1v1h1v1h-1v1h-1v1h-1v-2h-1v1h-1v1h-1v-1h-1v-1h2v-3h-1v1h-1v-1h-1v2h-1v-2h-1v-1h1v-3h-2zM13 1h1v1h-1zM15 1h1v2h1v1h-3v-1h1zM17 1h1v1h1v1h-2zM19 1h3v1h1v-1h2v2h1v3h-1v-2h-1v4h-1v-2h-1v-1h1v-2h-1v1h-2v2h-1v-3h2v-1h-2zM27 1h7v7h-7zM2 2v5h5v-5zM28 2v5h5v-5zM3 3h3v3h-3zM29 3h3v3h-3zM9 4h1v1h-1zM9 7h1v2h-1zM16 7v1h1v-1zM19 7h1v1h-1zM21 7h1v1h-1zM25 7h1v2h-1zM20 8h1v1h-1zM1 9h1v1h-1zM3 9h2v2h1v-2h3v2h-1v-1h-1v1h1v1h-2v1h-1v-1h-1v1h1v1h-4v-1h1v-1h1v-1h1v-1h-1zM10 9h1v1h1v1h-2zM12 9h1v1h-1zM22 9h1v1h-1zM27 9h1v2h2v-2h1v1h1v1h-1v4h1v3h-1v1h-1v2h-1v1h-1v-2h1v-3h1v-1h-2v-2h1v1h1v-1h-1v-1h1v-1h-1v1h-2zM32 9h2v4h-2v-2h1v-1h-1zM20 10h2v1h-2zM23 10h2v2h-1v-1h-1zM1 11h1v1h-1zM9 11h1v3h-1zM12 11h1v1h-1zM19 11h1v1h-1zM22 11h1v1h-1zM13 12h1v1h-1zM18 12h1v1h-1zM21 12h1v1h-1zM23 12h1v6h-2v1h-1v-1h-2v-3h2v-1h2zM25 12h1v1h-1zM6 13h2v1h-2zM11 13h1v1h-1zM15 13h3v1h-2v2h-2v2h-1v-4h2zM20 13h1v1h-1zM26 13h1v3h1v3h-1v1h-1v-1h-2v-1h2v-2h-1v-2h1zM18 14h1v1h-1zM32 14h1v1h-1zM1 15h1v1h1v-1h1v2h2v1h1v1h2v1h1v1h-1v1h-2v1h-1v-2h2v-1h-2v1h-1v-2h-1v-1h-1v1h-1v-1h-1zM5 15h1v1h-1zM7 15h4v1h1v3h1v1h1v1h-2v-1h-1v-1h-1v-1h1v-1h-1v-1h-1v1h-1v-1h-1zM22 15v1h1v-1zM6 16h1v1h-1zM16 16h1v1h-1zM20 16v1h1v-1zM7 17h1v1h-1zM17 17h1v1h-1zM14 18h3v2h2v-1h1v2h-2v2h-1v2h-1v1h1v-1h2v1h-1v1h-3v-2h-1v1h-1v-1h-3v-1h2v-1h-2v1h-1v-2h4v2h1v-3h1v3h1v-2h1v-1h-2v-2h-1zM33 18h1v1h-1zM23 19h1v1h-1zM31 19h2v1h-2zM1 20h1v1h-1zM21 20h1v1h-1zM3 21h2v2h-1v1h-1zM20 21h1v1h1v-1h3v3h-1v-2h-1v1h-3zM30 21h2v2h-1v-1h-1zM1 22h1v1h-1zM27 22h1v1h-1zM33 22h1v3h-1v-1h-1v-1h1zM5 23h1v1h-1zM7 23h1v1h-1zM18 23h1v1h-1zM2 24h1v1h-1zM4 24h1v1h1v1h-2zM6 24h1v1h-1zM19 24h1v1h-1zM21 24h1v2h-1v2h-1v2h-1v1h-1v1h-2v-1h1v-1h-1v-2h1v1h1v-2h2v-2h1zM25 24h3v1h1v-1h2v1h-1v1h1v1h-1v3h-4v3h-1v1h-1v-2h-1v-1h-1v2h-1v1h-3v-2h1v-1h1v1h1v-4h1v-2h1v3h1v-3h-1v-1h2zM1 25h1v1h-1zM7 25h1v1h-1zM9 25h1v1h2v1h-1v2h3v1h1v2h-1v-1h-3v-1h-1v-1h-1zM26 26v3h3v-3zM32 26h1v1h-1zM1 27h7v7h-7zM12 27h1v1h-1zM14 27h1v1h-1zM27 27h1v1h-1zM2 28v5h5v-5zM31 28h1v2h-1zM33 28h1v3h-1zM3 29h3v3h-3zM9 30h1v1h1v1h1v2h-3v-1h1v-1h-1zM24 30v1h1v-1zM27 31h2v1h-2zM30 31h2v1h-2zM13 32h1v1h-1zM29 32h1v1h-1zM33 32h1v1h-1zM15 33h1v1h-1zM22 33h1v1h-1zM26 33h1v1h-1zM30 33h2v1h-2z"/></svg>