<svg xmlns="http://www.w3.org/2000/svg" viewBox="0 0 35 35"><path d="M1 1h7v7h-7zM13 1h1v3h-1v-1h-1v1h1v3h-1v1h-1v-1h-1v1h1v1h-2v-6h1v-1h3zM15 1h1v1h-1zM17 1h1v3h-1v-1h-1v-1h1zM20 1h2v2h1v-1h1v3h1v1h-2v-2h-3v-1h1v-1h-1zM24 1h1v1h-1zM27 1h7v7h-7zM2 2v5h5v-5zM19 2h1v1h-1zM28 2v5h5v-5zM3 3h3v3h-3zM15 3h1v1h-1zM25 3h1v2h-1zM29 3h3v3h-3zM10 4v1h1v-1zM16 4h1v1h2v1h2v1h-1v1h1v-1h1v1h1v1h-2v1h2v-1h1v-1h1v-2h1v3h-1v2h-1v2h1v2h-1v-1h-1v-1h-1v-1h1v-1h-3v-2h-1v-2h-1v-1h-3v-1h1zM19 4h1v1h-1zM21 5h1v1h-1zM14 6h1v1h-1zM22 6h1v1h-1zM13 7h1v2h-1v1h1v-1h2v2h1v1h1v-1h-1v-4h1v2h1v3h2v2h-1v-1h-2v1h-1v-1h-1v-1h-1v1h-1v-2h-2v-1h-1v-1h1v-1h1zM15 7h1v1h-1zM23 7h1v1h-1zM1 9h1v2h-1zM3 9h5v1h-5zM27 9h5v2h1v1h-1v1h-1v2h1v-2h1v1h1v1h-1v1h-1v1h-2v1h-1v1h-2v1h-1v-2h-1v-1h2v1h1v-1h-1v-1h1v-1h2v-1h-2v-1h1v-2h1v1h1v-1h-1v-1h-2v1h-2v-1h1zM8 10h2v1h-1v1h-3v-1h2zM33 10h1v1h-1zM4 11h1v4h1v1h1v1h-1v1h1v1h1v1h-1v1h-1v-1h-1v2h1v2h-2v-2h-1v1h-1v3h-1v-4h1v-1h2v-1h-2v-1h2v-1h1v-1h-1v-2h-1v3h-1v-1h-1v-1h1v-3h2zM10 11h2v1h1v1h-1v1h1v-1h1v1h1v1h-2v1h1v2h-1v-1h-1v2h-1v-1h-1v1h-1v-2h1v-3h-1v-1h2v-1h-1zM1 12h1v1h-1zM26 12h2v1h-1v1h-1zM33 12h1v1h-1zM6 13h2v1h-1v1h-1zM15 13h1v1h-1zM8 14h1v3h-1v-1h-1v-1h1zM16 14h1v1h1v1h-1v2h-1v1h1v-1h1v3h-1v-1h-4v-1h2v-2h1zM19 14h1v1h-1zM22 14h1v1h-1zM27 14h1v1h-1zM21 15h1v1h1v-1h1v3h1v1h-1v1h-1v1h-1v-2h1v-2h-1v2h-2v1h-1v-2h1v-1h1zM26 15h1v1h-1zM7 17h1v1h-1zM18 17h1v1h-1zM33 17h1v2h-1v1h-1v1h-1v2h-1v-1h-2v-1h1v-2h1v1h1v-1h-1v-1h3zM10 20h3v1h-1v1h1v-1h2v1h-1v3h1v-1h1v2h-1v1h-3v-1h-1v-3h-1v4h-1v-4h-1v-1h1v-1h1zM24 20h1v1h-1zM27 20h1v1h-1zM7 21h1v1h-1zM16 21h1v1h2v1h1v1h1v-1h-1v-1h-1v-1h2v1h2v1h-1v1h1v1h-1v2h-2v-2h-1v-1h-1v-1h-3v-1h1zM25 21h2v1h-2zM24 22h1v1h-1zM27 22h1v1h-1zM33 22h1v1h-1zM7 23h1v1h-1zM12 23v1h1v-1zM23 23h1v1h-1zM25 23h1v1h2v-1h2v1h-1v1h1v-1h2v-1h1v1h1v1h-3v1h-1v3h1v1h-1v1h-1v1h2v-2h3v1h-2v2h-2v1h-2v-1h-1v1h-4v-1h1v-1h1v1h1v-1h1v-1h1v-1h-1v1h-1v-1h-1v-1h-1v-1h-1v-3h1v2h1zM17 24h1v1h-1zM4 25h1v1h-1zM7 25h1v1h-1zM18 25h1v3h2v1h-3v1h-1v-1h-2v1h-1v-2h1v-1h2v1h1v-1h-1v-1h1zM26 26v3h3v-3zM31 26h3v1h-1v2h-2zM1 27h7v7h-7zM10 27h2v1h-1v1h1v-1h1v2h1v1h-3v1h-2v-4h1zM27 27h1v1h-1zM2 28v5h5v-5zM22 28h1v1h-1zM3 29h3v3h-3zM23 29h1v1h-1zM15 30h2v1h2v-1h3v2h-1v-1h-1v1h-3v2h-2v-1h1v-1h-2v-1h1zM25 31h1v1h-1zM12 32h2v1h-1v1h-4v-1h3zM20 32h1v1h-1zM22 32h1v1h-1zM18 33h1v1h-1zM21 33h1v1h-1zM32 33h1v1h-1z"/></svg>