<svg xmlns="http://www.w3.org/2000/svg" viewBox="0 0 35 35"><path d="M1 1h7v7h-7zM9 1h2v1h-1v1h-1zM17 1h1v1h1v1h-2zM20 1h3v1h-3zM24 1h1v1h1v4h-1v-3h-2v-1h1zM27 1h7v7h-7zM2 2v5h5v-5zM12 2h1v2h1v1h1v2h-1v1h-1v-2h-1v2h-1v-1h-1v-1h1v-1h-2v-1h2v-1h1zM15 2h1v2h-2v-1h1zM28 2v5h5v-5zM3 3h3v3h-3zM19 3h1v1h1v1h-1v3h1v1h-1v1h-1v1h-2v-1h1v-1h-1v1h-2v-3h1v1h1v-1h-1v-1h1v-1h2zM29 3h3v3h-3zM16 4h1v1h-1zM23 4h1v1h-1zM22 5h1v1h-1zM18 6v2h1v-2zM23 6h1v2h-1zM9 7h1v2h-1zM21 7h1v1h-1zM25 7h1v1h-1zM1 9h1v1h-1zM3 9h2v1h1v3h-1v1h1v1h-3v-3h-2v-1h1v-1h1v1h1v-1h-1zM6 9h3v2h2v1h-2v2h-3v-1h2v-1h-1v-1h1v-1h-2zM10 9h1v1h-1zM12 9h2v1h1v2h-2v-1h-2v-1h1zM22 9h1v1h-1zM24 9h2v1h-1v1h1v1h-3v-1h1zM27 9h1v2h2v-2h1v1h1v1h-1v3h-2v-1h1v-1h-1v1h-2v-2h-1v-1h1zM32 9h2v3h-2v-1h1v-1h-1zM20 10h2v2h-1v-1h-1zM19 11h1v1h-1zM11 12h2v4h-1v-2h-2v-1h1zM16 12h1v1h1v1h-2v1h-2v-1h1v-1h1zM18 12h1v1h-1zM20 12h1v2h-1zM23 13h4v4h1v2h-2v1h3v-3h-1v-1h1v-1h2v1h1v2h-1v-1h-1v1h1v1h-1v2h-5v-2h-1v-1h-2v1h-1v-1h-1v2h2v1h-4v-1h1v-4h1v1h1v-1h-1v-1h1v-1h2v3h1v-1h1v1h1v-1h-1v-2h-2zM1 14h1v1h-1zM9 14h1v1h1v1h-4v1h-1v-2h3zM18 14h1v1h-1zM28 14h1v1h-1zM32 14h1v1h-1zM2 15h1v1h-1zM1 16h1v1h1v-1h2v1h1v1h-1v2h-2v-2h-1v1h-1zM11 16h1v1h-1zM15 16h2v1h-1v1h-1zM7 17h3v1h-1v1h-1v-1h-1zM12 17h2v1h-1v1h1v2h-1v-1h-2v-1h1zM10 18h1v1h-1zM14 18h1v1h-1zM16 18h1v3h1v2h-1v2h-1v-1h-2v2h-1v2h-1v-1h-1v1h-1v1h-1v-3h3v-1h-2v-1h1v-2h-1v-1h2v2h1v-1h1v1h1v-1h1v-1h-1v-1h1zM33 18h1v1h-1zM6 19h2v1h-1v1h-1v1h1v1h2v1h-2v1h-2v1h-1v-2h-1v-1h-2v-2h1v-1h1v2h1v-1h1v-1h1zM9 19h1v2h-1zM22 19h2v1h-2zM31 19h2v1h-2zM33 20h1v1h-1zM7 21h2v1h-2zM22 21h3v3h-1v-2h-2zM30 21h2v1h-2zM20 22h2v1h-2zM26 22h2v2h-2zM33 22h1v3h-1v-1h-1v-1h1zM18 23h2v2h-1v-1h-1zM22 23h1v1h-1zM30 23h1v4h-1v3h-4v1h3v1h-1v1h-3v1h-1v-1h-1v-1h1v-1h-2v2h-1v1h-3v-2h1v-1h1v1h1v-4h1v-2h1v3h1v-3h-1v-2h1v1h5v-1h1zM2 24h1v1h-1zM21 24h1v2h-1v2h-1v2h-2v2h-2v-1h1v-1h-2v-1h3v-1h-1v-1h-2v-1h3v1h2v-2h1zM1 25h1v1h-1zM7 25h1v1h-1zM18 25h1v1h-1zM26 26v3h3v-3zM1 27h7v7h-7zM27 27h1v1h-1zM2 28v5h5v-5zM31 28h3v1h-1v1h-2zM3 29h3v3h-3zM11 29h3v2h-2v-1h-1zM9 30h1v1h2v1h-3zM30 30h1v1h1v1h-2zM33 30h1v1h-1zM14 31h1v1h-1zM12 32h1v2h-1zM29 32h1v1h-1zM33 32h1v1h-1zM9 33h1v1h-1zM14 33h1v1h-1zM22 33h1v1h-1zM30 33h2v1h-2z"/></svg>