<svg xmlns="http://www.w3.org/2000/svg" viewBox="0 0 35 35"><path d="M1 1h7v7h-7zM11 1h1v1h-1zM15 1h1v1h-1zM17 1h1v1h-1zM19 1h3v1h-2v1h-1zM24 1h1v1h-1zM27 1h7v7h-7zM2 2v5h5v-5zM10 2h1v3h-1v1h1v-1h1v-1h2v1h2v-1h-1v-1h1v-1h1v3h1v1h-3v1h-1v-1h-2v2h-1v-1h-1v2h-1v-6h1zM13 2h1v1h-1zM22 2h2v2h2v1h-1v1h-1v-1h-1v-1h-1zM28 2v5h5v-5zM3 3h3v3h-3zM29 3h3v3h-3zM19 4h1v1h-1zM21 5h1v1h-1zM18 6h1v1h-1zM20 6h1v1h-1zM22 6h1v1h-1zM13 7h1v1h-1zM15 7h1v1h-1zM17 7h1v2h1v1h1v-2h1v-1h1v1h1v-1h1v2h2v1h-1v1h-1v-1h-1v-1h-1v2h-3v1h1v1h-2v1h-1v-1h-1v-1h-1v1h-1v-2h-1v-1h1v-1h2v2h1v1h1v-1h-1zM19 7h1v1h-1zM25 7h1v1h-1zM12 8h1v1h-1zM1 9h1v1h-1zM3 9h5v1h-1v1h-1v-1h-1v1h1v1h-4v-2h1v1h1v-1h-1zM11 9h1v2h1v3h-1v-2h-1v-1h-1v-1h1zM27 9h5v2h1v2h-2v2h-1v-1h-1v-3h1v1h1v-1h-1v-1h-2v1h-2v-1h1zM33 10h1v1h-1zM7 11h1v1h-1zM22 11h1v2h-2v-1h1zM6 12h1v1h1v-1h1v1h2v1h1v1h-1v2h-1v1h-1v-1h-1v-1h1v-2h-4v-1h1zM24 12h1v1h1v-1h2v1h-1v1h-2v1h-1v1h-1v1h-2v-2h2v-2h1zM1 13h1v1h1v1h-2zM15 13h1v1h-1zM20 13h1v1h-1zM33 13h1v2h-1v1h-1v1h-2v-1h1v-1h1v-1h1zM14 14h1v1h-1zM16 14h1v1h1v-1h2v1h-1v1h-2v2h-1v-1h-1v-2h1zM27 14h1v1h-1zM3 15h1v1h-1zM7 15h1v1h-1zM25 15h2v1h-2zM29 15h1v1h-1zM2 16h1v1h1v1h-2zM12 16h2v1h-2zM27 16h2v1h1v1h-1v1h-1v2h-1v1h1v1h-2v-2h-1v2h-1v-3h3v-2h1v-1h-1zM5 17h3v1h-2v1h-1zM18 17h1v1h-1zM20 17h1v1h2v-1h1v1h1v1h-5v1h-1v-2h1zM25 17h2v1h-2zM33 17h1v2h-1v1h1v3h-1v-1h-1v-1h-1v1h-2v-3h1v1h1v-1h-1v-1h3zM10 18h1v1h-1zM12 18h1v1h-1zM17 18h1v2h-3v3h-1v-4h3zM3 19h1v1h1v1h1v-2h2v1h-1v1h1v1h-1v1h1v-1h1v-1h1v-1h1v1h1v-1h1v4h1v1h-1v1h-1v-1h-1v-1h1v-1h-1v-1h-1v1h1v1h-4v1h-3v-1h2v-1h-1v-1h-1v2h-1v-2h-1v4h-1v-6h1v1h1zM11 19h1v1h-1zM20 20h1v1h-1zM22 20h1v1h-1zM16 21h1v1h1v1h-2zM19 21h1v1h-1zM20 22h3v1h-1v1h1v1h-2v1h1v2h1v1h-2v-2h-2v1h1v1h-2v1h-1v-2h1v-1h-1v-3h1v1h1v1h1v-2h1v-1h-1zM18 23h1v1h-1zM25 23h1v1h1v1h3v-2h3v1h1v1h-3v1h-1v3h1v1h-1v1h-1v1h3v1h-2v1h-2v-2h-1v1h-1v-1h-1v-3h-1v-1h-1v-3h1v-1h1zM7 25h1v1h-1zM9 26h3v1h-3zM13 26h2v1h-1v1h-2v-1h1zM24 26v1h1v-1zM26 26v3h3v-3zM31 26h1v1h1v1h-1v1h-1zM33 26h1v1h-1zM1 27h7v7h-7zM15 27h2v1h-1v2h1v1h2v-1h1v-1h1v1h2v3h-1v-1h-1v-1h-1v1h-3v2h-2v-1h1v-1h-1v-3h-1v-1h1zM27 27h1v1h-1zM2 28v5h5v-5zM9 28h1v1h1v1h-1v2h-1zM3 29h3v3h-3zM23 29h1v1h-1zM11 30h3v1h-1v3h-4v-1h2zM27 30v1h1v-1zM31 30h3v1h-3zM14 32h1v1h-1zM20 32h1v1h-1zM24 32h1v1h1v1h-3v-1h1zM18 33h1v1h-1zM32 33h1v1h-1z"/></svg>