<svg xmlns="http://www.w3.org/2000/svg" viewBox="0 0 35 35"><path d="M1 1h7v7h-7zM9 1h2v1h1v2h-1v1h1v1h1v1h-1v1h-1v-2h-2v-1h1v-1h-1zM12 1h1v1h-1zM14 1h2v2h1v1h-1v1h-1v-1h-1zM18 1h2v1h2v-1h2v2h-1v2h-2v-1h1v-1h-3v-1h-1zM27 1h7v7h-7zM2 2v5h5v-5zM17 2h1v1h-1zM25 2h1v2h-1zM28 2v5h5v-5zM3 3h3v3h-3zM29 3h3v3h-3zM12 4h2v2h-1v-1h-1zM17 4h1v2h1v1h-1v2h1v1h2v1h-3v-1h-1v-1h-1v-1h1v-1h-1v1h-1v-1h-1v-1h2v-1h1zM19 4h1v1h-1zM20 6h1v1h-1zM22 6h1v1h-1zM24 6h2v3h-1v-2h-1zM9 7h1v1h-1zM13 7h1v1h-1zM19 7h1v1h-1zM21 7h1v1h-1zM23 7h1v2h-1zM10 8h1v2h1v1h-1v1h-2v-1h1v-1h-5v3h-1v-1h-1v-1h1v-2h6zM14 8h1v1h-1zM1 9h1v2h-1zM15 9h1v1h1v4h-1v-3h-1v3h1v1h1v1h-1v1h-2v-1h-1v1h-1v-1h-6v1h2v1h-1v1h-1v-1h-1v-2h-1v-2h2v1h2v-1h-2v-1h2v-1h1v1h2v1h-1v1h1v-1h1v1h1v-1h1v-1h-1v1h-1v-3h1v1h1v-2h1zM21 9h1v1h-1zM24 9h1v4h-2v-2h1zM26 9h1v2h1v1h-1v1h-1zM29 9h1v1h1v-1h3v1h-2v1h2v3h-1v-2h-1v1h-1v-1h-2v-1h-1v-1h1zM22 10h1v1h-1zM6 11h2v1h-2zM2 12h1v1h1v1h-2zM19 12h2v1h1v3h-4v-3h1v1h1v-1h-1zM28 12h1v4h-1v-2h-1v-1h1zM25 13h1v1h-1zM1 14h1v4h-1zM23 14h2v1h-1v1h-1zM30 14h2v3h-2zM3 16h1v3h-1v2h-2v-2h1v-1h1zM17 16h1v2h-1v3h-2v1h1v1h-1v1h-1v-2h-1v-1h-1v-1h1v-3h1v1h1v1h-1v1h2v-3h1zM24 16h1v1h-1zM26 16h1v1h3v2h-1v-1h-1v1h-1v1h-2v1h-1v-1h-1v-3h1v2h2v-1h-1v-1h1zM33 16h1v1h-1zM9 17h1v1h-1zM20 17h1v1h1v3h-2v-1h-2v-2h1v1h1zM10 18h2v1h-2zM31 18h3v2h-1v-1h-1v1h1v1h1v1h-2v-1h-1v1h-1v-1h-1v1h1v1h-2v-2h-1v-1h3v-1h1zM7 19h1v1h-1zM6 20h1v1h-1zM8 20h3v1h1v1h-3v-1h-1zM3 21h2v1h-2zM7 21h1v1h-1zM17 21h1v1h-1zM19 21h1v1h-1zM23 21h1v1h1v3h-2v-1h1v-1h-1zM25 21h1v1h-1zM1 22h2v1h-1v2h1v1h-2zM5 22h1v1h-1zM12 22h1v2h-1zM20 22h1v1h-1zM31 22h1v1h-1zM3 23h1v1h-1zM6 23h2v1h-1v1h1v1h-2v-1h-2v-1h2zM9 23h2v1h1v1h-1v1h1v-1h1v-1h1v2h-1v1h-1v1h-2v1h1v2h1v1h-2v-1h-1v-5h1v-1h-1zM19 23h1v1h-1zM26 23h2v2h2v5h-3v2h-1v-1h-3v-3h1v-1h1v-2h2v-1h-1zM32 23h2v3h-1v1h-1v2h-1v-3h1v-1h-1v-1h1zM15 24h2v1h-2zM18 24h1v1h-1zM20 24h2v1h-2zM17 25h1v1h1v2h1v1h-1v1h2v-2h-1v-1h2v4h-1v1h-1v1h-1v-2h-2v-2h1v-2h-1v2h-2v2h-3v-1h1v-2h1v-2h3zM22 26h2v1h-2zM26 26v3h3v-3zM1 27h7v7h-7zM15 27v1h1v-1zM27 27h1v1h-1zM2 28v5h5v-5zM3 29h3v3h-3zM32 29h1v1h1v3h-5v-1h-1v-1h2v1h2v-1h-1v-1h1zM16 31h1v1h-1zM22 31h1v1h-1zM13 32h2v2h-3v-1h1zM21 32h1v2h-2v-1h1zM9 33h2v1h-2zM16 33h3v1h-3zM24 33h2v1h-2zM28 33h1v1h-1z"/></svg>