<svg xmlns="http://www.w3.org/2000/svg" viewBox="0 0 35 35"><path d="M1 1h7v7h-7zM9 1h2v1h-2zM12 1h3v1h1v1h3v-1h3v1h-2v1h-1v2h-2v-2h-2v-1h-1v-1h-2zM16 1h2v1h-2zM22 1h3v1h-1v2h-2v-1h1v-1h-1zM27 1h7v7h-7zM2 2v5h5v-5zM25 2h1v1h-1zM28 2v5h5v-5zM3 3h3v3h-3zM11 3h3v1h-3zM29 3h3v3h-3zM9 4h1v2h1v1h-1v1h1v-1h1v1h1v-1h1v3h-1v1h-3v1h-1v-2h-2v-1h2zM20 4h1v2h-1zM24 4h1v2h-3v-1h2zM11 5h4v1h-4zM15 6h2v1h-1v2h-1zM19 6h1v2h1v-2h1v2h1v1h1v1h-2v-1h-3v2h-2v2h-1v-1h-1v2h-3v-1h1v-2h3v-2h1v1h1v-2h1zM25 6h1v3h5v1h1v1h-1v1h-1v-2h-1v1h-1v-1h-3v-1h-1v-1h1zM17 7h1v1h-1zM23 7h1v1h-1zM1 9h1v2h-1zM5 9h1v1h1v1h-4v-1h2zM10 9v1h2v-1zM33 9h1v1h-1zM24 10h1v2h-2v-1h1zM2 11h1v1h-1zM7 11h1v1h-1zM19 11h1v1h-1zM27 11h1v1h-1zM32 11h1v3h-1zM5 12h1v2h-1v1h-1v2h2v-1h1v1h2v-1h1v2h2v2h-1v1h4v3h-2v-2h-2v1h1v1h1v1h-3v3h-1v-2h-3v-1h2v-1h2v-3h-2v-1h2v-1h-2v-1h-2v3h2v1h-1v1h-1v-1h-2v1h-3v-1h2v-3h-1v-1h1v-1h-1v-2h1v-2h2zM8 12h1v1h-1zM11 12h1v1h-1zM22 12h1v1h1v1h1v1h2v2h-1v-1h-1v3h1v2h-1v-1h-1v1h-1v1h-4v-1h-2v-1h-1v-1h-2v1h-1v-2h1v-1h1v1h3v1h1v1h2v1h1v-1h-1v-1h1v-2h-1v-2h-1v1h-1v-2h2v-1h1zM26 12h1v1h-1zM7 13h1v1h-1zM10 13h1v1h1v1h-1v1h-1zM17 13h1v1h-1zM25 13h1v1h-1zM27 13h1v1h-1zM29 13h2v1h-2zM1 14h1v1h-1zM6 14h1v1h-1zM15 14h1v1h1v1h2v2h-1v-1h-3zM22 14v1h1v2h1v-2h-1v-1zM28 14h1v1h-1zM7 15h1v1h-1zM13 15h1v2h-1zM32 15h1v1h-1zM28 16h1v1h-1zM27 17h1v1h-1zM29 17h2v1h1v-1h1v3h-1v-1h-1v1h-1v-2h-1zM19 18h1v1h-1zM23 18v1h1v-1zM4 19v1h1v-1zM7 19h1v1h-1zM27 19h1v3h-1zM15 20h1v1h-1zM33 20h1v1h-1zM16 21h1v1h-1zM29 21h2v1h-2zM32 21h1v3h1v2h-1v2h-1v-1h-1v-1h1v-2h-3v1h2v1h-1v1h1v3h1v1h-1v1h-2v1h-1v1h-1v-4h-1v4h-4v-2h-1v-1h1v-1h-1v-1h1v-1h2v2h-1v3h2v-1h-1v-2h1v-3h-1v-1h1v-2h-2v-1h1v-1h1v1h2v1h-1v1h2v-3h1v1h3zM8 22h1v1h-1zM17 22h2v2h2v-1h1v1h1v1h1v1h-1v1h-1v-2h-3v1h1v2h-1v-1h-2v1h-1v-3h1v1h1v-2h-1zM5 23h1v2h-1zM7 23h1v1h-1zM1 25h4v1h-4zM12 26h2v1h-1v1h-1zM26 26v3h3v-3zM1 27h7v7h-7zM14 27h1v1h1v1h-1v2h-1zM27 27h1v1h-1zM2 28v5h5v-5zM10 28h1v1h2v1h-1v1h-1v1h-1v-2h-1v-1h1zM17 28h1v2h-2v-1h1zM20 28h1v1h-1zM3 29h3v3h-3zM32 29h2v1h-2zM18 30h2v1h-2zM28 30v1h1v-1zM12 31h2v1h-1v2h-4v-1h3zM16 31h1v1h4v2h-1v-1h-1v1h-1v-1h-2zM14 33h1v1h-1zM29 33h2v1h-2zM33 33h1v1h-1z"/></svg>