<svg xmlns="http://www.w3.org/2000/svg" viewBox="0 0 35 35"><path d="M1 1h7v7h-7zM9 1h2v3h-2zM12 1h1v1h-1zM14 1h2v4h-1v-1h-2v1h2v2h-1v1h-1v-1h-1v3h-1v-1h-1v-1h1v-1h-1v-1h-1v-1h2v-1h1v-1h1v-1h1zM18 1h1v1h-1zM22 1h2v3h-1v1h1v1h-1v1h-1v-2h-3v-1h2v-1h2v-1h-1zM27 1h7v7h-7zM2 2v5h5v-5zM19 2h2v1h-2zM28 2v5h5v-5zM3 3h3v3h-3zM17 3h1v2h1v1h-1v3h1v2h-1v-1h-1v-1h-1v1h1v2h-1v-1h-1v3h-1v1h1v1h1v1h1v-1h1v2h-1v3h1v1h-3v-1h1v-3h-3v-1h-2v-1h-1v-1h1v-1h1v2h1v-5h-1v-1h3v-1h-1v-1h1v-1h1v1h1v-1h-1v-2h1zM25 3h1v2h-2v-1h1zM29 3h3v3h-3zM20 6h1v1h-1zM24 6h1v1h-1zM9 7h1v1h-1zM19 7h1v1h-1zM21 7h1v1h-1zM23 7h1v1h1v1h2v1h-2v1h1v3h-1v-1h-1v-2h-1v-1h1v-1h-1zM25 7h1v1h-1zM1 9h1v1h-1zM4 9h6v1h-3v1h-1v-1h-1v3h-2v1h-1v-4h1v1h1zM29 9h1v1h1v-1h3v1h-2v1h2v3h-1v-2h-1v1h-1v-1h-2v-1h-1v-1h1zM10 10h1v1h1v1h-1v2h-1v-1h-1v-1h1zM20 10h1v1h-1zM7 11h2v1h-2zM22 11h1v1h-1zM17 12h1v1h-1zM19 12h1v1h-1zM28 12h1v4h-1v1h1v-1h1v-1h1v-1h1v3h-2v2h-1v-1h-1v2h-1v-2h-2v-1h1v-1h1v-1h1v-1h-1v-1h1zM5 13h3v1h-3zM16 13h1v1h-1zM18 13h1v1h-1zM20 13h2v2h1v1h-3v-1h-1v-1h1zM3 14h2v1h-2zM15 14h1v1h-1zM24 14h1v1h-1zM2 15h1v1h-1zM7 15h2v2h1v1h-3v1h1v1h-1v1h-1v-1h-1v-2h1v-1h2v-1h-1zM16 15h1v1h-1zM25 15h1v1h-1zM3 16h1v4h-1v-1h-1v2h-1v-3h1v-1h1zM24 16h1v1h-1zM33 16h1v1h-1zM20 17h2v4h-1v-1h-3v-2h2zM23 17h1v2h1v1h-1v2h1v2h-1v-1h-1v1h-1v-2h1zM11 18h1v2h-1v2h1v2h-1v1h1v-1h1v2h1v1h-1v2h-3v2h-1v-5h1v2h1v-2h-1v-5h-1v-1h1v-1h1zM31 18h3v3h-3v1h-1v-1h-1v1h1v1h-2v-3h2v-1h1zM13 19h2v2h-1v1h-2v-1h1zM32 19v1h1v-1zM25 20h1v2h-1zM2 21h2v1h-1v1h-1v2h1v1h-2v-4h1zM7 21h1v1h-1zM19 21h2v2h-1v-1h-1zM4 22h1v2h2v1h2v1h-3v-1h-1v1h-1v-1h-1v-2h1zM6 22h1v1h-1zM14 22h1v1h-1zM18 22h1v1h1v1h-1v1h-1zM31 22h1v1h2v3h-2v-1h-1v-1h-1v-1h1zM7 23h1v1h-1zM26 23h1v1h-1zM16 24h1v1h-1zM20 24h2v2h-1v-1h-1zM25 24h1v1h2v-1h2v1h1v1h-1v4h-3v1h-1v-1h-1v1h-2v-3h1v-1h1v-1h-1v-1h1zM14 25h2v1h-2zM16 26h4v1h-1v1h1v-1h2v1h-1v1h-2v1h-1v1h-1v-1h-4v-1h2v-2h1zM22 26h1v1h-1zM26 26v3h3v-3zM31 26h1v2h1v1h-2zM1 27h7v7h-7zM27 27h1v1h-1zM2 28v5h5v-5zM16 28v1h1v-1zM3 29h3v3h-3zM21 29h1v2h-1v1h-3v-1h1v-1h2zM11 30h2v1h4v1h-1v1h-2v-1h-1v1h-2v-1h1v-1h-1zM30 30h1v1h1v-1h2v3h-5v-1h-1v-1h2zM10 31h1v1h-1zM22 31h1v1h-1zM25 31h1v1h-1zM21 32h1v1h-1zM9 33h1v1h-1zM13 33h1v1h-1zM16 33h1v1h-1zM18 33h1v1h-1zM20 33h1v1h-1zM24 33h5v1h-5z"/></svg>