<svg xmlns="http://www.w3.org/2000/svg" viewBox="0 0 35 35"><path d="M1 1h7v7h-7zM9 1h1v1h1v1h-1v1h-1zM11 1h2v2h1v-2h2v4h-1v-1h-2v1h2v1h-4v1h-1v-1h-1v-1h1v-1h1v1h1v-1h-1v-1h1v-1h-1zM18 1h2v1h2v1h-3v-1h-1zM27 1h7v7h-7zM2 2v5h5v-5zM25 2h1v1h-1zM28 2v5h5v-5zM3 3h3v3h-3zM17 3h1v2h1v2h-1v2h1v1h2v1h-3v-1h-1v-1h-1v-1h1v-1h-1v-2h1zM22 3h2v1h-1v1h-4v-1h3zM29 3h3v3h-3zM25 4h1v1h-1zM20 6h1v1h-1zM22 6h3v1h-1v1h-1v-1h-1zM9 7h1v1h-1zM11 7h1v2h-1zM13 7h1v1h-1zM15 7h1v1h-1zM19 7h1v2h-1zM21 7h1v1h-1zM25 7h1v2h-1zM14 8h1v1h-1zM1 9h1v1h-1zM4 9h6v1h2v-1h2v1h-1v4h-1v-3h-3v1h-2v1h2v1h-3v-1h-1v1h-1v-1h-1v-1h3v-1h2v-1h-3v1h-3v-1h2zM15 9h1v1h1v4h-1v-3h-1v3h1v1h1v1h-1v1h1v3h-2v-1h1v-1h-2v-2h1v-1h-1v1h-1v-2h1v-4h1zM24 9h1v3h-1v1h-1v-1h-1v-1h2zM26 9h1v1h-1zM29 9h1v1h1v-1h3v1h-2v1h2v1h-1v2h-1v-1h-1v-1h-2v-1h-1v-1h1zM19 12h1v1h-1zM21 12h1v2h1v1h1v1h-4v-1h-2v-2h1v1h1v-1h1zM25 12h2v1h-1v1h-1v1h-1v-2h1zM28 12h1v4h-1v-2h-1v-1h1zM2 13h1v3h-1zM10 14h2v1h-1v1h-1zM30 14h1v1h-1zM4 15h5v1h1v1h1v1h-4v-1h1v-1h-2v1h-1v-1h-1zM31 15h1v2h-2v2h-1v-1h-1v1h-1v2h-1v1h-1v-2h-1v-1h2v-2h-1v1h-2v-1h1v-1h3v1h2v-1h2zM1 16h1v1h1v1h1v-1h1v2h1v1h-3v2h1v1h4v1h-4v1h-1v-2h-1v2h1v1h-2v-4h1v-3h-1zM11 16h2v1h-2zM17 16h1v1h-1zM33 16h1v1h-1zM20 17h2v1h1v1h-1v2h-1v-1h-3v-2h2zM6 18h1v1h-1zM12 18h1v1h-1zM31 18h3v2h-1v-1h-1v1h1v1h1v1h-2v-1h-1v1h-1v-1h-1v1h1v1h1v-1h1v1h2v3h-2v-1h-1v-1h-2v-1h-1v-3h2v-1h1zM7 19h1v1h-1zM9 19h3v1h-3zM8 20h1v2h-2v-1h1zM13 20h1v1h2v3h1v1h-1v1h1v-1h1v1h2v1h-1v1h1v-1h2v4h-1v1h-1v-1h-3v-1h-1v-1h-1v-1h1v-1h-1v1h-1v-2h-2v-2h1v-1h1v2h1v-2h-1v-1h-1zM17 20h1v2h-1zM10 21h1v1h2v1h-1v1h-1v-1h-2v-1h1zM19 21h2v2h-1v-1h-1zM23 21h1v1h1v1h1v2h5v1h-1v4h-3v1h-1v-1h-1v1h1v1h-1v1h1v1h-2v-3h-1v-3h1v-1h-2v-1h3v-1h-2zM18 22h1v1h1v1h-1v1h-1zM27 23h1v1h-1zM8 24h1v1h1v4h1v3h-1v-1h-1v-5h-4v-1h3zM10 24h1v1h-1zM20 24h2v1h-2zM11 26h1v3h-1zM26 26v3h3v-3zM31 26h1v2h1v2h1v3h-5v-1h-1v-1h2v-1h1v1h1v-2h-1zM1 27h7v7h-7zM17 27v2h1v-2zM27 27h1v1h-1zM2 28v5h5v-5zM13 28h1v3h-1v-1h-1v-1h1zM3 29h3v3h-3zM19 29v1h1v-1zM12 31h1v1h1v-1h1v1h1v1h-1v1h-1v-1h-2v1h-3v-1h2v-1h1zM16 31h1v1h-1zM22 31h1v1h-1zM19 32h1v1h-1zM21 32h1v1h-1zM26 32h1v1h-1zM16 33h3v1h-3zM20 33h1v1h-1zM28 33h1v1h-1z"/></svg>