<svg xmlns="http://www.w3.org/2000/svg" viewBox="0 0 35 35"><path d="M1 1h7v7h-7zM11 1h1v1h1v-1h1v2h-2v1h-1v2h2v1h-1v1h-1v-1h-1v1h1v1h1v1h-1v2h-2v1h1v1h1v-1h1v2h-2v1h-1v-2h-3v1h-1v2h-1v-1h-1v3h1v1h-1v2h1v1h-2v3h-1v-8h1v-2h-1v-1h2v-1h2v-1h1v-2h4v-2h-1v-6h1v-1h1zM17 1h1v3h-3v-1h1v-1h1zM19 1h4v1h-1v1h-1v-1h-1v1h-1zM24 1h1v1h-1zM27 1h7v7h-7zM2 2v5h5v-5zM25 2h1v1h-1zM28 2v5h5v-5zM3 3h3v3h-3zM22 3h3v1h-1v1h1v1h-1v2h-1v-1h-1v-1h-1v-1h2v-1h-1zM29 3h3v3h-3zM12 4h2v1h-2zM19 4h1v1h-1zM25 4h1v1h-1zM14 5h5v2h-1v-1h-3v1h-1zM20 6h1v1h-1zM13 7h1v2h-2v-1h1zM15 7h1v1h-1zM17 7h1v2h-1zM19 7h1v1h1v-1h1v1h1v1h-2v1h2v1h1v1h-1v1h-2v-2h-2v1h1v1h-2v1h-1v1h1v1h-1v1h2v1h-1v1h-1v-1h-1v1h1v1h-2v-1h-1v-1h1v-1h1v-3h-1v-1h2v-1h-2v1h-1v-1h-1v-2h1v-1h2v1h-1v1h2v-1h1v-1h1v1h1v-1h-1zM25 7h1v2h-2v-1h1zM1 9h1v1h-1zM3 9h5v1h-3v1h-1v-1h-1zM23 9h1v1h-1zM27 9h5v2h1v2h-2v1h3v1h-1v1h-1v1h-2v1h-1v1h-2v1h-1v1h-1v-2h1v-1h-1v-1h-1v-1h1v-1h1v-3h2v1h-1v1h1v1h2v1h1v-1h-1v-1h-1v-3h1v1h1v-1h-1v-1h-2v1h-1zM24 10h1v1h-1zM33 10h1v1h-1zM2 11h2v2h-2zM7 12v1h1v-1zM24 12h1v1h-1zM1 13h1v1h-1zM23 13h1v1h-1zM14 14h1v2h-1zM18 14h2v1h-2zM24 14h1v1h-1zM7 15h1v1h-1zM21 15h3v1h-1v1h-1v3h2v1h-3v-2h-1v1h-1v-2h1v-1h1zM19 16h1v1h-1zM26 16v1h1v1h1v-1h1v-1zM5 17h6v1h-1v1h1v1h1v1h-3v1h3v-1h1v-1h2v1h2v1h2v1h1v1h-2v-1h-2v-1h-1v1h1v2h-1v-1h-2v-1h1v-1h-1v1h-1v1h1v1h-2v-1h-1v-1h-1v1h-3v-1h-1v-1h2v1h1v-1h-1v-1h1v-1h1v-1h-1v-1h-1v1h-1v-1h-1zM12 17h1v1h-1zM23 17h1v1h-1zM33 17h1v2h-1v3h-1v-1h-1v1h-3v-1h1v-2h1v1h1v-1h-1v-1h3zM11 18h1v1h-1zM24 18h1v1h-1zM5 19h1v1h-1zM7 19h1v1h-1zM12 19h1v1h-1zM17 20h1v1h-1zM27 20h1v1h-1zM4 21h1v1h-1zM19 21h2v1h2v1h-1v1h1v1h-2v1h1v2h-1v-1h-2v1h1v1h-2v1h-1v1h2v1h-2v1h2v1h-4v-1h1v-1h-1v-1h1v-3h-1v-2h1v1h1v1h1v-1h-1v-3h1v1h1v1h1v-2h1v-1h-1v-1h-1zM26 21h1v1h1v2h-1v-1h-1zM24 22h1v1h-1zM31 22h1v1h1v1h1v1h-4v4h1v1h-1v1h-1v1h1v-1h2v2h-1v1h-4v-2h-1v-2h-1v-1h-1v-1h-1v-1h1v-1h-1v-1h1v-1h1v1h1v-1h1v1h1v-1h2v-1h1zM33 22h1v1h-1zM4 23h1v1h-1zM23 23h1v1h-1zM25 23h1v1h-1zM5 24h1v1h-1zM3 25h2v1h-2zM6 25h2v1h-2zM13 25h2v1h-1v1h-1zM9 26h3v2h-2v-1h-1zM26 26v3h3v-3zM31 26h3v1h-1v1h-1v1h-1zM1 27h7v7h-7zM27 27h1v1h-1zM2 28v5h5v-5zM9 28h1v1h1v1h-1v2h-1zM13 28h1v1h1v1h-2v2h-1v-1h-1v-1h1v-1h1zM22 28h1v1h-1zM3 29h3v3h-3zM20 29h1v1h2v1h-1v1h-1v-1h-2v-1h1zM23 29h1v1h-1zM32 29h2v2h-2zM27 30v1h1v-1zM23 31h1v1h-1zM10 32h1v1h-1zM13 32h2v1h-1v1h-3v-1h2zM20 32h1v1h-1zM22 32h1v1h-1zM9 33h1v1h-1zM23 33h3v1h-3zM32 33h1v1h-1z"/></svg>