<svg xmlns="http://www.w3.org/2000/svg" viewBox="0 0 35 35"><path d="M1 1h7v7h-7zM10 1h1v1h-1zM12 1h2v1h-1v1h1v1h-1v2h-1v-1h-1v2h-1v2h-1v-6h3zM17 1h1v3h-1v-1h-1v-1h1zM19 1h3v1h-2v1h-1zM24 1h1v1h-1zM27 1h7v7h-7zM2 2v5h5v-5zM25 2h1v1h-1zM28 2v5h5v-5zM3 3h3v3h-3zM15 3h1v1h-1zM20 3h1v2h-2v-1h1zM22 3h1v1h-1zM24 3h1v1h-1zM29 3h3v3h-3zM16 4h1v1h1v1h-2v2h-1v-1h-1v-2h2zM23 4h1v1h1v1h-2v1h-1v-1h-1v-1h2zM25 4h1v1h-1zM18 6h1v1h-1zM20 6h1v1h-1zM25 6h1v3h-1v2h-1v-1h-1v-1h-2v1h1v1h-3v1h2v1h-3v1h-1v-2h1v-1h-1v-4h1v2h1v1h1v-2h1v-1h1v1h1v-1h1v1h1zM11 7h1v3h-2v-1h1zM13 7h1v1h-1zM19 7h1v1h-1zM1 9h1v1h-1zM3 9h5v1h-1v1h-1v-1h-1v1h-1v-1h-1zM14 9h2v1h-1v1h2v1h-2v1h-3v1h-1v-2h-2v-2h1v1h3v1h1zM27 9h5v1h2v1h-1v2h1v2h-1v1h-1v1h-2v-1h1v-1h1v-2h-1v1h-2v-3h1v1h1v-1h-1v-1h-2v1h-2v-1h1zM1 11h3v1h-3zM5 11h1v1h-1zM7 11h1v1h-1zM22 11h1v1h1v2h1v1h-3v-1h1v-1h-1zM4 12h1v1h3v1h-3v2h-1v-2h-1v-1h1zM26 12h1v2h-2v-1h1zM15 13h1v1h-1zM8 14h2v1h-1v1h-2v-1h1zM12 14h3v1h-1v1h1v1h-2v-1h-2v1h-2v-1h1v-1h2zM16 14h1v1h1v1h-1v2h-1v1h-2v1h2v-1h1v-1h1v3h-1v1h2v1h-5v-2h-1v-1h-2v-3h1v2h1v-1h2v-1h1zM18 14h2v1h-2zM27 14h1v1h-1zM1 15h2v2h-1v2h-1zM21 15h1v1h4v1h1v1h-2v-1h-1v1h1v1h-1v1h-1v-1h-1v1h1v1h-2v-2h-1v1h-1v-2h1v-1h1zM28 15h1v1h-1zM27 16h1v1h-1zM3 17h2v2h1v2h-1v-1h-2zM6 17h2v1h-1v1h-1zM18 17h1v1h-1zM22 17v1h1v-1zM28 17h2v1h-1v1h-2v-1h1zM33 17h1v2h-1zM8 18h2v1h-2zM30 18h2v1h1v1h-1v1h-1v2h2v1h1v1h-3v1h-1v3h1v1h-1v1h-1v1h1v-1h2v2h-1v1h-3v-2h-1v-1h1v-1h-1v1h-1v-1h-1v-1h-1v-1h-1v-3h1v-1h1v1h1v-1h1v1h1v-2h1v2h1v-3h-1v-3h1v1h1v-1h-1zM7 19h1v1h-1zM25 19h2v1h-1v1h-1zM2 20h1v2h1v3h-1v-2h-1v3h-1v-5h1zM9 20h1v1h-1zM33 20h1v3h-1zM4 21h1v1h-1zM7 21h1v1h-1zM15 21v1h1v-1zM19 21h2v1h2v1h-1v1h1v1h-2v1h1v1h-3v1h4v1h-5v-2h-1v-1h1v-1h1v1h1v-2h1v-1h-1v-1h-1zM24 21h1v2h-1zM26 21h1v1h-1zM11 22h2v1h-2zM27 22h1v1h-1zM5 23h4v1h-2v1h1v1h-2v-1h-1zM13 23h1v2h-1zM19 23h1v1h-1zM23 23h1v1h-1zM9 24h2v1h1v1h-1v1h1v2h1v1h1v1h-2v-1h-1v-2h-1v-1h-1zM15 24h1v2h-1zM17 24h1v1h-1zM12 26h1v1h-1zM24 26v1h1v-1zM26 26v3h3v-3zM31 26h3v1h-1v3h1v1h-2v-2h-1zM1 27h7v7h-7zM13 27h1v1h1v-1h2v2h1v1h-1v1h1v1h-1v1h2v1h-3v-1h-1v-1h1v-1h-1v-1h1v-1h-3zM27 27h1v1h-1zM2 28v5h5v-5zM9 28h1v3h1v2h-1v-1h-1zM3 29h3v3h-3zM23 29h1v1h-1zM18 30h5v2h1v1h3v1h-4v-1h-1v-1h-1v-1h-1v1h1v1h-2v-2h-1zM24 30h1v2h-1zM12 32h2v1h-1v1h-2v-1h1zM9 33h1v1h-1zM32 33h1v1h-1z"/></svg>