<svg xmlns="http://www.w3.org/2000/svg" viewBox="0 0 35 35"><path d="M1 1h7v7h-7zM10 1h2v1h-1v1h-1zM17 1h1v1h-1zM19 1h3v1h1v1h2v-1h1v2h-1v2h-1v-1h-1v-1h-1v-1h-1v-1h-1v1h-1zM24 1h1v1h-1zM27 1h7v7h-7zM2 2v5h5v-5zM13 2h1v1h-1zM16 2h1v1h-1zM28 2v5h5v-5zM3 3h3v3h-3zM9 3h1v2h1v1h-1v2h1v1h1v1h1v-1h2v-2h1v4h1v1h-2v1h-1v-2h-2v2h-1v-3h-1v-1h-1zM11 3h2v2h-2zM15 3h1v1h-1zM20 3h1v1h-1zM29 3h3v3h-3zM16 4h1v1h2v1h2v1h-1v1h-1v-1h-1v-1h-3v1h-1v1h-1v-1h-1v-1h2v-1h2zM19 4h1v1h-1zM21 5h2v1h-2zM23 6h1v4h1v1h-2v1h1v1h1v-1h1v1h1v1h-2v1h-1v-1h-1v-1h-1v-2h-2v-3h1v-1h1v1h1zM11 7h1v1h-1zM17 7h1v2h-1zM25 7h1v1h-1zM12 8h1v1h-1zM1 9h1v1h-1zM3 9h5v1h-3v1h-2zM18 9h1v3h1v1h-2v1h-1v-2h1v-1h-1v-1h1zM21 9v1h2v-1zM27 9h5v2h1v3h1v1h-1v1h-1v-1h-2v-1h-2v-1h1v-2h1v1h1v-1h-1v-1h-2v2h-2v-1h1zM33 10h1v1h-1zM1 11h1v1h1v1h-2zM7 11h2v1h-2zM4 12h2v1h-1v1h-2v-1h1zM9 12h1v1h-1zM7 13h1v1h-1zM10 13h1v1h2v1h-1v1h-1v-1h-1zM15 13h1v1h-1zM20 13h1v1h-1zM31 13v1h1v-1zM1 14h1v2h-1zM5 14h1v1h-1zM8 14h1v1h-1zM14 14h1v1h1v-1h1v1h2v-1h1v3h-1v-1h-2v2h-1v-1h-2v-1h-1v-1h1zM22 14h1v1h1v2h2v-1h1v-2h1v1h2v1h2v1h-1v1h1v1h1v1h1v1h-1v1h-1v-1h-1v1h-3v-1h1v-2h1v1h1v-1h-1v-1h-1v1h-2v-1h1v-1h-1v1h-2v1h-1v2h-3v-2h-1v1h-1v-2h1v-1h1v-2h1zM4 15h1v1h-1zM7 15h1v1h-1zM2 16h1v1h-1zM5 16h2v1h-2zM12 16h1v2h-2v-1h1zM7 17h2v1h-2zM18 17h1v1h-1zM22 17v1h1v-1zM33 17h1v2h-1zM1 18h3v1h-3zM5 18h2v1h1v1h-1v1h1v1h-1v1h2v1h-2v1h1v1h-5v-1h2v-1h1v-1h-1v1h-2v-1h-1v3h-1v-4h1v-1h-1v-1h2v1h1v1h1v-1h1v-2h-1zM10 18h1v1h-1zM13 18h1v1h-1zM17 18h1v1h-1zM12 19h1v2h1v1h-1v1h-2v2h-2v-1h1v-2h2v-1h-2v-1h2zM15 19h2v1h1v1h-1v1h1v1h-2v-1h-1zM22 19v1h1v-1zM4 20h1v1h-1zM8 20h1v1h-1zM25 20h3v1h-1v1h-2v1h-1v-2h1zM19 21h1v1h-1zM20 22h3v1h-1v1h1v1h-1v3h1v1h-2v-2h-1v-3h1v-1h-1zM27 22h1v1h-1zM33 22h1v1h-1zM13 23h1v2h-1v1h-1v1h1v1h-2v1h-1v2h1v-2h1v1h1v2h1v2h-1v-1h-1v-1h-1v1h-1v-1h-1v-4h1v-1h1v-2h1v-1h1zM19 23h1v1h-1zM23 23h1v1h-1zM25 23h1v1h-1zM31 23h2v1h1v1h-3v1h-1v3h1v1h-1v1h-1v1h1v-1h1v-1h1v-1h-1v-3h3v1h-1v3h1v1h-2v2h-1v1h-3v-2h-1v-1h1v-1h-1v1h-2v-2h-1v-1h-1v-1h2v-2h2v-1h1v1h2v-1h1zM15 24h1v3h1v-1h1v-1h1v3h1v1h-2v1h-1v-2h-1v2h1v1h1v1h-1v2h-2v-3h-1v-2h-1v-1h2zM17 24h1v1h-1zM24 24h1v1h-1zM23 25h1v1h-1zM9 26h1v1h-1zM26 26v3h3v-3zM1 27h7v7h-7zM27 27h1v1h-1zM2 28v5h5v-5zM3 29h3v3h-3zM20 29h1v1h2v1h1v1h-1v1h-1v-1h-1v-1h-2v-1h1zM23 29h1v1h-1zM19 32h2v1h-2zM26 32h1v1h-1zM9 33h1v1h-1zM11 33h1v1h-1zM18 33h1v1h-1zM23 33h3v1h-3zM32 33h1v1h-1z"/></svg>