<svg xmlns="http://www.w3.org/2000/svg" viewBox="0 0 35 35"><path d="M1 1h7v7h-7zM15 1h1v1h-1zM17 1h1v1h-1zM19 1h4v1h-3v1h-1zM24 1h1v1h-1zM27 1h7v7h-7zM2 2v5h5v-5zM11 2h1v3h-1v-1h-1v2h1v1h-1v1h1v1h-2v-6h2zM13 2h1v4h-1zM16 2h1v1h-1zM23 2h1v1h1v-1h1v2h-2v1h1v1h-2v-2h-2v1h-2v-1h1v-1h3zM28 2v5h5v-5zM3 3h3v3h-3zM15 3h1v1h-1zM29 3h3v3h-3zM15 5h4v1h-3v4h-1v1h2v-4h1v2h1v3h1v1h-2v-1h-3v1h-1v-1h-2v-2h2v-1h1zM21 5h1v1h-1zM12 6h1v1h-1zM20 6h1v1h-1zM25 6h1v4h-1v-1h-1v1h-1v-1h-2v1h1v1h1v2h-1v-1h-1v-1h-1v-2h-1v-2h1v1h1v-1h1v1h1v-1h1v1h1zM11 7h1v1h-1zM13 7h1v1h-1zM1 9h1v1h1v1h1v2h-2v-1h-1zM3 9h5v1h-1v1h-1v-1h-3zM27 9h5v1h2v1h-1v1h1v3h-1v1h-1v-1h-1v1h1v1h-2v-3h-2v-1h1v-2h1v1h1v-1h-1v-1h-2v2h-1v-1h-1v-1h1zM10 10h1v1h-1zM24 10h1v1h-1zM5 11h1v1h-1zM7 11h1v1h-1zM9 11h1v1h1v1h-1v1h-1v-1h-1v-1h1zM6 12h1v1h-1zM24 12h1v1h-1zM26 12h1v2h1v1h-2zM7 13h1v1h-1zM12 13h1v1h-1zM15 13h3v1h-1v1h1v1h-1v1h2v1h-1v1h-1v-1h-1v-2h-1v-1h1v-1h-1zM20 13h1v1h-1zM23 13h1v1h1v1h-2zM31 13v1h1v-1zM1 14h4v1h1v-1h1v1h1v-1h1v2h-2v1h1v1h-1v1h-2v-1h-1v-1h1v-1h-2v-1h-1v1h-1zM10 14h1v1h2v-1h1v2h-4zM19 14h1v1h-1zM21 15h1v1h1v1h-2zM25 15h1v2h1v1h-2v1h-1v1h2v1h1v1h-2v1h-1v-2h-3v-1h2v-1h-3v1h-1v-2h1v-1h1v1h2v-1h2zM28 15h1v1h-1zM14 16h1v1h-1zM19 16h1v1h-1zM2 17h1v1h1v1h1v1h-2v-1h-1zM9 17h1v1h-1zM11 17h1v4h1v-1h1v-1h-1v-1h2v1h2v1h-1v1h-2v1h-2v1h-3v-2h2zM28 17h2v1h-1v1h-1v2h-1v-3h1zM33 17h1v2h-1zM8 18h1v3h-1v-1h-1v-1h1zM30 18h2v1h1v1h-1v1h-1v1h1v1h-2v-1h-2v-1h1v-2h1v1h1v-1h-1zM1 19h1v1h-1zM1 21h1v5h-1zM3 21h5v1h-2v1h2v1h-3v-1h-1v1h1v1h-1v1h-1zM16 21h1v1h2v1h-3zM19 21h2v1h2v3h-2v1h1v1h-3v1h1v1h-2v-2h-1v-1h1v-1h1v1h1v-1h-1v-2h1v1h1v-1h-1v-1h-1zM33 21h1v2h-1zM14 22h1v3h-1v-1h-2v-1h2zM27 22h1v1h-1zM25 23h1v2h1v-1h1v-1h2v1h-1v1h1v4h1v2h-2v1h2v-1h1v2h-1v1h-3v-2h-1v-1h1v-1h-1v1h-1v-1h-1v-1h-1v-1h-1v-3h1v2h1v-2h-1v-1h1zM32 23h1v1h1v1h-4v-1h2zM8 24h1v1h-1zM11 24h1v3h-1v-1h-1v1h-1v-2h2zM17 24h1v1h-1zM6 25h2v1h-2zM15 26h1v1h1v1h-2zM26 26v3h3v-3zM31 26h3v1h-1v1h-1v1h-1zM1 27h7v7h-7zM10 27h1v2h-1v1h1v-1h1v3h1v1h-2v-1h-2v-4h1zM27 27h1v1h-1zM2 28v5h5v-5zM12 28h1v1h-1zM21 28h2v1h-2zM3 29h3v3h-3zM13 29h1v1h-1zM17 29h1v1h-1zM20 29h1v1h1v1h1v1h1v1h2v1h-3v-1h-1v-1h-1v-1h-1v1h-3v1h2v1h-4v-1h1v-1h-1v1h-1v-1h-1v-1h2v-1h2v1h2v-1h1zM23 29h1v1h-1zM32 29h2v2h-2zM24 31h2v1h-2zM20 32h1v1h-1zM26 32h1v1h-1zM9 33h1v1h-1zM13 33h1v1h-1zM32 33h1v1h-1z"/></svg>