<svg xmlns="http://www.w3.org/2000/svg" viewBox="0 0 35 35"><path d="M1 1h7v7h-7zM10 1h1v3h-1v1h-1v-3h1zM13 1h3v1h-3zM18 1h1v1h-1zM23 1h1v2h-1zM27 1h7v7h-7zM2 2v5h5v-5zM17 2h1v1h-1zM19 2h1v1h-1zM21 2h1v1h1v2h1v-1h2v1h-1v1h-1v2h1v1h-1v1h1v1h-2v1h-1v2h-2v-1h1v-2h1v-1h1v-3h-1v-1h-1v-1h-2v-1h1v-1h1zM25 2h1v1h-1zM28 2v5h5v-5zM3 3h3v3h-3zM12 3h1v1h-1zM15 3h2v1h-1v1h1v-1h1v1h1v1h2v1h-1v1h1v-1h1v2h-1v2h-2v1h1v1h-1v1h-1v-2h-1v2h-1v-2h-1v2h-1v-1h-1v-1h1v-3h2v1h-1v1h1v-1h1v1h1v-1h-1v-1h-1v-1h1v-1h1v2h1v1h1v-1h-1v-2h-1v-1h-1v1h-1v1h-1v-1h-1v-1h1zM29 3h3v3h-3zM10 5h1v1h-1zM12 5h1v2h-1v1h-1v-2h1zM25 6h1v2h-1zM9 7h1v2h3v2h-1v-1h-3zM13 7h1v1h-1zM1 9h1v1h2v1h1v-1h2v1h-1v2h-1v-1h-1v1h-2v-1h-1zM7 9h1v1h-1zM25 9h3v1h-3zM30 9h3v3h-1v1h-3v2h-2v-2h-1v-1h1v-1h1v1h1v-1h-1v-1h2zM7 11h2v1h1v3h-2v-1h-1v-1h1v-1h-1zM25 11h1v1h-1zM30 11v1h1v-1zM11 12h1v3h-1zM23 12h1v1h-1zM33 12h1v3h-1v1h-1v1h-2v1h-2v-2h1v-1h1v1h1v-1h1v-1h1zM24 13h2v1h-1v1h-1zM2 14h5v1h-2v1h1v1h-1v1h-4v-3h1zM13 14h1v1h-1zM19 14h1v3h-1v-1h-1v1h1v1h-1v1h-1v3h-1v-1h-1v2h-3v-1h-3v-2h2v1h1v-1h1v-1h-1v1h-1v-1h-1v-1h-4v-1h3v-1h1v-1h1v1h1v1h2v3h1v-3h-1v-2h1v1h1v1h1v-1h-1v-1h3zM7 15h1v1h-1zM12 15h1v1h-1zM21 15h1v1h-1zM2 16v1h2v-1zM23 16h1v2h-1zM25 16h2v2h1v1h-2v-1h-1zM33 16h1v4h-1v-1h-1v2h-1v1h-1v1h-2v-1h1v-1h-2v1h-1v-2h4v-2h3zM20 17h2v1h1v2h-1v-1h-1v1h-3v-1h2zM24 18h1v3h-2v-1h1zM1 19h1v1h-1zM3 19h1v1h-1zM5 19h1v1h-1zM7 19h1v1h-1zM2 20h1v2h-1zM4 20h1v1h-1zM6 20h1v1h-1zM21 20h1v1h-1zM7 21h1v1h-1zM19 21h1v1h-1zM1 22h1v3h1v1h-2zM5 22h2v1h-2zM18 22h1v1h-1zM20 22h1v1h-1zM22 22h3v1h-3zM31 22h1v1h1v1h1v3h-1v1h-1v1h-1v-3h1v-1h-2v-2h1zM4 23h1v2h1v1h-2v-1h-1v-1h1zM7 23h2v1h-2zM10 23h1v1h-1zM15 23h1v1h-1zM19 23h1v1h1v-1h1v2h-3zM27 23h1v1h-1zM6 24h1v1h-1zM9 24h1v1h1v2h-2v-1h-2v-1h2zM11 24h4v1h-1v1h-1v1h-1v-2h-1zM16 24h2v1h-2zM25 24h1v1h4v4h1v1h3v2h-2v-1h-1v1h1v1h-2v1h-3v-1h2v-1h-1v-1h1v-1h-2v1h-2v-2h-1v1h-1v-3h2zM15 26h4v2h1v1h-2v-2h-1v1h-1v-1h-1zM20 26h3v1h-1v2h-1v-2h-1zM26 26v3h3v-3zM1 27h7v7h-7zM11 27h1v1h1v-1h2v1h1v1h-2v1h-1v-1h-1v1h-1v3h-1v-4h1zM27 27h1v1h-1zM2 28v5h5v-5zM33 28h1v1h-1zM3 29h3v3h-3zM16 29h2v1h-2zM20 29h1v1h2v1h-2v2h-1v-1h-2v-2h2zM14 30h1v2h-1zM12 31h1v1h-1zM16 31h1v1h-1zM24 31h1v2h1v1h-3v-2h1zM15 32h1v1h-1zM9 33h1v1h-1zM11 33h1v1h-1zM16 33h1v1h-1zM18 33h1v1h-1zM32 33h1v1h-1z"/></svg>