<svg xmlns="http://www.w3.org/2000/svg" viewBox="0 0 35 35"><path d="M1 1h7v7h-7zM10 1h4v1h-4zM17 1h1v2h-2v-1h1zM19 1h4v1h-1v1h1v1h-3v-1h1v-1h-1v1h-1zM24 1h1v1h-1zM27 1h7v7h-7zM2 2v5h5v-5zM25 2h1v1h-1zM28 2v5h5v-5zM3 3h3v3h-3zM9 3h2v1h-1v2h1v1h-1v1h1v-1h1v1h1v1h-4zM12 3h2v1h-1v2h-2v-1h1zM15 3h1v1h-1zM24 3h1v1h-1zM29 3h3v3h-3zM16 4h1v1h2v1h-5v-1h2zM19 4h1v1h-1zM23 4h1v1h-1zM25 4h1v1h-1zM21 5h2v1h-2zM24 5h1v1h-1zM19 6h2v1h-1v1h-1zM13 7h1v1h-1zM15 7h1v4h1v1h-2v1h-1v-4h1zM17 7h1v2h-1zM21 7h1v1h1v-1h1v1h1v-1h1v3h-1v-1h-1v1h-1v-1h-2v1h1v1h-3v1h1v1h-2v-2h-1v-1h1v-1h1v1h1v-2h1zM1 9h1v1h-1zM3 9h5v1h-1v1h1v1h-2v-2h-1v2h-1v-1h-1zM27 9h5v2h1v2h1v2h-1v1h-1v1h-1v1h1v1h1v2h-2v1h1v1h-2v-1h-2v-1h1v-2h1v1h1v-1h-1v-1h-1v1h-1v1h-3v-1h2v-1h1v-1h2v-2h2v-2h-1v1h-2v-3h1v1h1v-1h-1v-1h-2v2h-1zM8 10h3v1h-3zM24 10h1v1h-1zM33 10h1v1h-1zM2 11h1v1h-1zM22 11h2v1h-1v1h-1zM25 11h1v1h-1zM1 12h1v1h1v-1h1v3h-1v2h2v1h-3v1h1v1h-1v1h2v1h-2v4h-1v-9h1v-2h-1zM5 12h1v2h-1zM8 12h1v1h-1zM12 12h1v1h-1zM7 13h1v1h-1zM9 13h2v1h-2zM15 13h1v1h-1zM17 13h1v1h-1zM20 13h1v1h-1zM23 13h1v1h1v1h-2zM26 13h1v1h-1zM6 14h1v1h1v1h-3v-1h1zM8 14h1v1h-1zM13 14h1v1h-1zM16 14h1v1h1v1h-1v2h-1zM18 14h2v1h-2zM27 14h1v2h-1v2h-1v-1h-2v1h-1v-1h-2v-2h1v1h4v-1h1zM10 15h3v2h1v1h-1v1h-1v-1h-1v-2h-1zM14 16h1v1h-1zM6 17h2v1h-1v1h1v1h-1v1h1v-1h1v-3h1v1h1v1h-1v2h-1v1h1v-1h1v-1h1v3h-1v1h-1v-1h-1v1h-2v1h1v1h-3v-1h1v-2h2v-1h-2v1h-1v2h-1v-1h-1v-1h1v-1h1v-1h-1v-1h1v-1h1zM18 17h1v1h-1zM20 17h1v1h1v2h1v1h-3v-1h1v-1h-1v1h-1v-2h1zM33 17h1v2h-1zM17 18h1v2h-1v1h-1v1h-3v-2h1v-1h1v1h1v-1h1zM24 18h1v1h-1zM19 21h1v1h-1zM25 21h2v1h1v1h-1v1h-1v1h2v-2h1v1h3v-1h1v1h1v1h-4v4h1v1h-1v1h-1v1h1v-1h2v2h-2v1h-3v-1h1v-1h-1v-1h1v-1h-1v1h-1v-1h-1v-1h-1v-1h-1v-1h1v-1h1v-1h-1v-1h1v-1h1v-1h-1zM33 21h1v2h-1zM16 22h2v1h-2zM20 22h3v1h-1v1h1v1h-1v2h-2v-3h1v-1h-1zM24 22h1v1h-1zM12 23h3v1h-2v1h2v-1h1v3h1v-3h1v1h1v3h2v1h-3v1h-1v1h1v1h-1v1h2v1h-3v-3h-2v-1h2v-2h-1v-2h-5v-1h2zM18 23h1v1h-1zM23 23h1v1h-1zM23 25h1v1h-1zM9 26h1v1h-1zM26 26v3h3v-3zM31 26h1v1h1v2h-2zM33 26h1v1h-1zM1 27h7v7h-7zM12 27h1v1h-1zM27 27h1v1h-1zM2 28v5h5v-5zM9 28h2v1h-1v2h2v-1h-1v-1h2v-1h1v2h-1v1h1v1h-2v1h-1v-1h-2zM22 28h1v1h-1zM3 29h3v3h-3zM23 29h1v1h-1zM33 29h1v2h-2v-1h1zM18 30h5v1h-1v1h-1v-1h-1v1h1v1h-2v-2h-1zM23 31h2v1h-1v1h2v1h-3v-1h-1v-1h1zM9 33h2v1h-2zM13 33h1v1h-1zM21 33h1v1h-1zM32 33h1v1h-1z"/></svg>