<svg xmlns="http://www.w3.org/2000/svg" viewBox="0 0 35 35"><path d="M1 1h7v7h-7zM9 1h1v1h-1zM11 1h1v1h-1zM13 1h5v2h-1v-1h-1v2h-1v-1h-1v-1h-1zM19 1h1v1h1v2h-2v2h1v2h1v-2h1v2h1v1h1v1h-2v-1h-3v1h1v2h-1v-1h-2v2h-1v-1h-1v2h-2v1h1v1h1v1h-1v1h1v2h-3v-3h1v-1h-1v-2h-2v-1h-1v-1h2v1h2v-1h1v-1h2v-2h2v-1h1v-1h-1v-1h-1v-1h-1v-1h2v-1h1zM24 1h1v1h-1zM27 1h7v7h-7zM2 2v5h5v-5zM28 2v5h5v-5zM3 3h3v3h-3zM10 3h1v1h-1zM12 3h2v1h-1v1h-1v1h-2v3h1v1h-4v-1h2v-5h1v1h1v-1h1zM22 3h1v1h-1zM24 3h1v1h1v1h-1v1h-2v-1h1zM29 3h3v3h-3zM13 5h2v1h2v1h-1v2h-1v-2h-1v2h-1v3h-1v-3h-1v-2h1v1h1v-1h-1v-1h1zM20 5h1v1h-1zM17 7h1v1h-1zM23 7h1v1h-1zM25 7h1v2h-1zM1 9h1v1h-1zM5 9h1v1h-1zM26 9h5v1h2v2h-1v-1h-1v1h-1v-2h-1v1h-1v-1h-1v1h-1zM33 9h1v1h-1zM2 10h2v3h1v-1h1v1h3v1h-3v2h1v1h-1v2h-1v-2h-1v-1h1v-2h-1v1h-1v-1h-2v-3h1zM24 10h1v1h1v1h-1v1h-1v-1h-1v-1h1zM7 11h1v1h-1zM27 11h1v1h-1zM2 12v1h1v-1zM20 12h1v1h-1zM22 12h1v1h1v1h-1v1h-1v1h1v1h1v1h1v1h1v1h-1v1h1v1h-1v1h1v1h-1v1h-1v-6h-1v-1h-1v-1h-1v-2h-1v2h-1v1h-1v-1h-2v-2h1v1h2v-2h2v-1h1zM26 12h1v1h-1zM17 13h1v1h-1zM27 13h4v2h-1v-1h-1v3h-1v1h-1v-2h-2v1h-1v-1h-1v-1h1v-1h1v1h3v-1h-1zM32 13h1v1h-1zM15 14h1v1h-1zM1 15h2v3h-1v1h1v-1h1v3h2v1h-2v1h-1v-1h-1v1h-1v-2h1v-1h-1v-3h1v-1h-1zM7 15h3v1h-3zM32 15h1v1h-1zM10 16h2v1h-1v1h-1zM7 17h1v1h-1zM29 17h1v1h-1zM32 17h1v3h-1v-1h-1v1h-1v-2h2zM16 18h2v1h1v1h3v-1h1v3h-4v-1h-2v-1h-1zM19 18h1v1h-1zM6 19h3v1h-2v1h-1zM10 19h1v2h2v1h-3v-1h-1v-1h1zM27 19h1v1h-1zM15 20h1v1h-1zM33 20h1v2h-1v2h1v2h-1v2h-1v-1h-1v-1h1v-5h1zM7 21h2v1h1v1h-1v1h-2v1h-1v-1h-1v1h-1v-2h4v-1h-1zM27 21h1v1h-1zM29 21h2v3h-2v-1h1v-1h-1zM14 22h1v1h-1zM17 22h2v1h1v1h-1v2h1v2h-1v-1h-2v1h-1v-3h2v-1h-1zM26 22h1v1h-1zM28 22h1v1h-1zM11 23h2v1h-1v1h-2v3h-1v-4h2zM21 23h2v2h1v1h-1v1h-1v-1h-1v-1h-1v-1h1zM15 24h1v1h-1zM27 24h2v1h1v2h1v3h-1v2h-1v1h-2v-3h-1v1h-2v-1h1v-5h2zM1 25h3v1h-3zM5 25h1v1h-1zM7 25h1v1h-1zM12 25h2v1h-2zM14 26h1v1h-1zM26 26v3h3v-3zM1 27h7v7h-7zM11 27h3v1h-1v2h1v1h1v1h1v-1h1v1h1v-2h2v1h-1v3h-1v-1h-2v1h-2v-2h-1v-1h-2zM27 27h1v1h-1zM2 28v5h5v-5zM14 28h2v1h-2zM17 28h1v2h-1zM20 28h4v2h-1v1h1v2h1v-1h1v2h-4v-2h-1v-1h1v-1h-2zM33 28h1v2h-1zM3 29h3v3h-3zM9 29h1v1h-1zM15 30h1v1h-1zM28 30v1h1v-1zM10 31h1v1h-1zM31 31h1v1h-1zM20 32h1v2h-1zM9 33h1v1h-1zM29 33h1v1h-1zM33 33h1v1h-1z"/></svg>