<svg xmlns="http://www.w3.org/2000/svg" viewBox="0 0 35 35"><path d="M1 1h7v7h-7zM9 1h3v1h-1v2h-1v-1h-1zM15 1h1v2h1v2h-1v-1h-2v-1h1zM17 1h1v1h1v1h-2zM20 1h5v2h-1v-1h-1v1h-2v-1h-1zM27 1h7v7h-7zM2 2v5h5v-5zM12 2h2v1h-2zM28 2v5h5v-5zM3 3h3v3h-3zM19 3h2v2h-1v1h-1zM23 3h1v2h-1zM29 3h3v3h-3zM9 4h1v1h-1zM11 4h3v1h-1v1h-1v-1h-1zM25 4h1v4h-1zM10 5h1v1h-1zM17 5h1v3h1v-1h1v1h1v1h-1v1h2v1h-2v1h-1v-1h-1v1h1v1h-1v1h-1v-1h-1v-1h1v-2h1v-1h-1v1h-1v1h-1v1h-1v-2h1v-4h2zM22 5h1v1h1v2h-1v-1h-1zM9 7h1v1h1v-1h1v1h1v-1h1v2h-2v1h-1v-1h-2zM16 7v1h1v-1zM21 7h1v1h-1zM24 8h1v1h-1zM1 9h1v1h-1zM3 9h2v1h-2zM6 9h3v1h1v1h1v1h-2v-1h-1v-1h-2zM22 9h1v1h-1zM25 9h1v1h-1zM27 9h1v2h2v-2h1v1h1v-1h2v4h-1v-1h-1v-1h-1v3h-2v-1h1v-1h-1v1h-2v1h-1v3h-1v-3h-1v1h-1v-2h1v-1h-1v-1h1v-1h1v2h2zM5 10h1v1h-1zM7 11h1v1h-1zM1 12h1v1h1v1h-2zM11 12h2v5h-1v-2h-3v-1h3v-1h-1zM4 13h1v1h2v1h-1v2h-1v-2h-2v-1h1zM7 13h1v1h-1zM15 13h1v3h1v1h-1v1h-1v1h-1v1h2v1h-2v1h-1v1h2v1h1v-3h2v1h1v2h-1v-1h-1v2h-3v-1h-2v-5h-1v-1h3v-2h1zM21 14h1v1h1v1h1v2h2v-1h1v-1h1v3h-1v1h-1v-1h-3v-1h-1v-1h-1v-1h-1v-1h1zM28 14h1v1h2v1h1v2h-1v1h-1v2h-2v-1h1v-3h1v-1h-2zM32 14h1v1h-1zM7 15h1v1h-1zM18 15h1v1h-1zM2 16h1v1h2v1h-1v1h-1v-1h-2v-1h1zM8 16h3v1h-2v1h-2v1h-1v-2h2zM19 16h1v1h1v1h-1v2h1v-2h1v1h1v1h-1v1h-1v1h1v1h-2v-2h-2v-1h1zM9 18h1v1h1v1h-1v1h-2v-1h1zM16 18h1v2h-1zM32 18h2v1h-1v1h-2v-1h1zM1 19h1v1h-1zM5 19h1v1h-1zM7 19h1v1h-1zM2 20h1v1h-1zM6 20h1v1h1v1h-1v1h1v-1h1v2h-3v-1h-1v-1h1zM33 20h1v1h-1zM1 21h1v2h-1zM22 21h4v1h-1v1h2v2h2v-1h1v-3h2v1h-1v5h-1v3h-4v1h3v1h-1v2h-1v-1h-2v-3h-1v3h-1v-1h-1v1h-1v1h-3v-2h-2v2h-1v-2h-2v-7h1v2h1v1h-1v2h2v1h1v-3h1v-1h2v-2h1v-1h1v2h-1v2h-1v1h1v-1h1v-2h1v-1h1v1h1v-1h-1v-3h-2zM27 22h1v1h-1zM33 22h1v3h-1v-1h-1v-1h1zM3 23h2v1h1v1h3v1h-6v-1h1v-1h-1zM28 23h1v1h-1zM2 24h1v1h-1zM19 24h1v1h-1zM1 25h1v1h-1zM10 25h2v1h-2zM17 25h2v1h-1v1h-3v-1h2zM9 26h1v3h-1zM26 26v3h3v-3zM1 27h7v7h-7zM23 27v2h1v-2zM27 27h1v1h-1zM2 28v5h5v-5zM31 28h3v3h-1v-1h-2zM3 29h3v3h-3zM10 29h2v2h-2v1h-1v-2h1zM19 30v3h1v-1h1v-2zM22 30v1h1v-1zM30 30h1v1h-1zM31 31h1v1h-1zM10 32h3v1h-2v1h-2v-1h1zM29 32h1v1h-1zM33 32h1v1h-1zM13 33h1v1h-1zM22 33h1v1h-1zM24 33h1v1h-1zM30 33h2v1h-2z"/></svg>