<svg xmlns="http://www.w3.org/2000/svg" viewBox="0 0 35 35"><path d="M1 1h7v7h-7zM11 1h2v3h-3v1h4v1h-2v2h1v-1h1v2h-2v2h-2v-1h1v-1h-2v-6h1v-1h1v1h1v-1h-1zM17 1h1v1h-1zM19 1h4v1h-1v1h-1v-1h-1v1h-1zM24 1h1v1h-1zM27 1h7v7h-7zM2 2v5h5v-5zM16 2h1v2h-2v-1h1zM23 2h1v1h-1zM25 2h1v1h-1zM28 2v5h5v-5zM3 3h3v3h-3zM20 3h1v1h-1zM22 3h1v1h-1zM29 3h3v3h-3zM19 4h1v1h-1zM23 4h1v1h1v1h-1v2h-1v-1h-1v-1h1zM25 4h1v1h-1zM15 5h3v1h-2v2h-1v-1h-1v-1h1zM21 5h1v1h-1zM18 6h3v1h-1v1h1v-1h1v1h1v1h-1v1h1v2h1v1h1v2h-1v1h-1v-1h-1v-1h1v-1h-1v-2h-2v-2h-1v-2h-1zM25 6h1v3h-1zM10 7v1h1v-1zM17 7h1v2h-1zM1 9h1v1h-1zM3 9h5v1h-5zM14 9h2v1h-1v1h2v-1h1v-1h1v3h1v1h-2v1h-1v-1h-1v-1h-1v1h-1v-1h-2v-1h1v-1h1zM23 9h1v1h-1zM27 9h5v2h1v1h-1v1h-1v1h-3v-1h1v-2h1v1h1v-1h-1v-1h-2v1h-1zM2 10h1v1h2v1h-3zM8 10h1v2h-3v-1h2zM24 10h1v1h-1zM33 10h1v1h-1zM25 11h2v1h-1v1h-1zM1 12h1v2h1v2h-2zM5 12h1v1h2v1h-5v-1h2zM9 12h1v1h-1zM10 13h1v1h1v1h-1v1h-1zM12 13h1v1h-1zM15 13h1v1h-1zM26 13h1v1h1v1h-1v1h1v1h-1v1h1v-1h2v1h-1v1h-3v-2h-2v-1h2zM33 13h1v2h-1v1h-1v-1h-1v-1h2zM16 14h1v1h1v1h-1v2h-1zM18 14h2v2h-1v-1h-1zM6 15h3v1h-3zM12 15h3v1h-1v2h-1v-2h-1zM21 15h1v1h1v1h-1v1h1v1h-3v-2h1zM28 15h3v1h1v1h-2v-1h-2zM4 16h2v1h-2zM2 17h2v1h-2zM7 17h1v1h-1zM18 17h1v1h-1zM23 17h1v1h-1zM33 17h1v2h-1v2h-2v2h-1v-1h-2v-1h1v-2h1v1h1v-1h-1v-1h3zM4 18h1v1h-1zM6 18h1v1h2v-1h3v1h-2v1h-1v1h-1v-1h-1v1h1v1h-3v-1h1zM14 18h1v2h-2v-1h1zM17 18h1v3h-1v1h1v1h-3v1h-1v-3h1v1h1v-1h-1v-1h1v-1h1zM24 18h1v1h-1zM1 19h3v2h-1v1h-1v4h-1zM19 19h1v1h-1zM25 19h1v2h1v1h1v1h-2v-1h-1v-1h-3v-1h3zM11 20h2v4h-1v-1h-2v-2h1v1h1v-1h-1zM27 20h1v1h-1zM19 21h1v1h-1zM33 21h1v2h-1zM3 22h1v3h-1zM20 22h2v2h1v-1h1v1h1v1h1v-1h1v1h1v-1h1v1h1v4h1v1h1v-1h-1v-3h1v1h1v2h1v2h-2v2h-2v1h-7v-1h-1v-1h1v-1h1v2h4v-1h-3v-1h1v-1h-1v-1h-1v-1h-1v-1h2v-1h-2v-1h-1v3h-1v-1h-1v-2h-1v-1h2v-1h-1zM24 22h1v1h-1zM7 23h3v3h1v-2h1v3h-1v2h-1v3h-1v-4h1v-1h-1v-1h-3v-1h3v-1h-2zM29 23h1v1h-1zM32 23h1v1h1v1h-4v-1h2zM17 24h1v1h-1zM18 25h1v3h1v1h-2v-2h-1v-1h1zM13 26h3v1h-1v1h-1v-1h-1zM26 26v3h3v-3zM33 26h1v1h-1zM1 27h7v7h-7zM16 27h1v2h1v1h-1v1h2v-1h3v2h-1v-1h-1v1h-3v1h2v1h-5v-1h2v-2h-2v-2h1v-1h1zM27 27h1v1h-1zM2 28v5h5v-5zM22 28h1v1h-1zM3 29h3v3h-3zM12 29h1v2h-1zM23 29h1v1h-1zM24 30h1v1h-1zM27 30v1h1v-1zM11 31h1v1h-1zM13 31h1v1h-1zM29 31v1h2v-1zM10 32h1v1h-1zM20 32h1v1h-1zM9 33h1v1h-1zM11 33h2v1h-2zM21 33h1v1h-1zM32 33h1v1h-1z"/></svg>