<svg xmlns="http://www.w3.org/2000/svg" viewBox="0 0 35 35"><path d="M1 1h7v7h-7zM17 1h1v2h-1v2h1v1h-2v2h-1v-1h-1v-2h2v-1h-1v-1h1v-1h1zM19 1h3v1h-2v1h-1zM24 1h1v1h-1zM27 1h7v7h-7zM2 2v5h5v-5zM10 2h1v1h-1zM22 2h1v2h-2v-1h1zM28 2v5h5v-5zM3 3h3v3h-3zM9 3h1v1h2v-1h2v2h-1v1h-1v-1h-2v1h1v1h-1v1h1v-1h1v2h1v-2h1v2h2v1h-1v1h2v1h-2v1h-1v-2h-1v-1h-1v1h-2v-2h-1zM29 3h3v3h-3zM19 4h1v1h-1zM23 4h3v1h-1v1h-1v-1h-1zM21 5h1v1h-1zM18 6h1v1h-1zM20 6h1v1h-1zM22 6h1v1h-1zM25 6h1v2h-1zM17 7h1v2h-1zM19 7h1v1h1v-1h1v1h1v1h-1v1h1v-1h1v-1h1v1h1v1h-1v1h-1v1h2v1h1v1h1v1h-1v3h-2v-1h1v-1h-1v-1h1v-1h-1v1h-2v-2h-1v-2h-2v-2h-1zM23 7h1v1h-1zM1 9h1v1h-1zM3 9h5v1h-1v1h3v2h-1v1h-2v-1h1v-1h-2v-2h-1v2h1v2h1v1h-2v-1h-1v-1h-2v1h-1v-2h1v-1h2v-1h-1zM18 9h1v3h2v1h-3v1h-1v1h1v1h-1v1h2v1h-1v1h-1v-1h-1v1h-1v-4h1v-1h-1v-1h2v-1h1v-1h-1v-1h1zM27 9h5v1h2v1h-1v1h-1v1h-1v1h-2v-3h1v1h1v-1h-1v-1h-2v1h-2v-1h1zM27 12h1v1h-1zM32 13h1v1h1v1h-1v1h-1v-1h-1v-1h1zM18 14h2v3h-1v-2h-1zM2 15h2v1h-1v1h-1zM7 15h2v3h2v1h1v1h-1v1h2v-1h1v2h-2v1h1v1h-1v2h-2v-2h-1v-2h-3v-2h1v1h3v-2h-2v-1h-1v1h-1v-3h1v1h1v-1h-1zM10 15h4v1h-2v2h-1v-1h-1zM21 15h2v2h-2zM30 15h1v1h1v1h-1v1h1v1h1v1h-1v1h-1v1h-3v-1h1v-2h1v1h1v-1h-1v-1h-1v1h-2v-1h1v-1h1v-1h1zM24 16h1v1h-1zM3 17h2v1h-1v1h-1zM13 17h1v1h-1zM20 17h1v1h2v-1h1v1h1v1h-1v1h1v3h-1v-2h-3v1h1v2h1v1h-2v1h1v2h-1v-1h-2v1h2v2h1v2h-1v-1h-1v1h1v1h-2v-2h-1v-1h2v-1h-2v1h-1v-2h1v-1h-1v-1h1v-1h1v1h1v-2h1v-1h-1v-1h-1v-1h1v-1h1v-1h-1v1h-1v-2h1zM33 17h1v2h-1zM1 19h1v1h-1zM4 19h2v1h-2zM7 19h1v1h-1zM16 19h1v1h-1zM26 19h1v3h-1zM2 20h1v1h-1zM17 20h1v1h-1zM33 20h1v3h-1zM1 21h1v5h-1zM3 22h2v1h-1v1h-1zM14 22h1v1h-1zM16 22h2v1h-2zM27 22h1v1h-1zM31 22h1v1h-1zM5 23h3v1h-3zM15 23h1v2h-1zM19 23h1v1h-1zM26 23h1v2h3v4h1v1h-1v1h-1v1h3v1h-1v1h-3v-2h-1v-1h1v-1h-1v1h-1v-1h-1v-1h-1v-1h-1v-1h2v-1h-2v-1h1v-1h1v1h1zM29 23h1v1h-1zM32 23h1v1h1v1h-4v-1h2zM4 24h1v1h-1zM13 24h1v1h-1zM17 24h1v1h-1zM3 25h1v1h-1zM5 25h1v1h-1zM7 25h2v1h-2zM9 26h1v1h-1zM13 26h1v1h-1zM15 26h1v1h1v1h-2zM26 26v3h3v-3zM31 26h1v1h1v3h1v1h-3v-1h1v-1h-1zM33 26h1v1h-1zM1 27h7v7h-7zM27 27h1v1h-1zM2 28v5h5v-5zM9 28h2v1h-1v1h1v-1h1v1h1v-2h1v3h-1v1h2v1h-1v1h-3v-1h-1v-1h-1zM22 28h1v1h-1zM3 29h3v3h-3zM23 29h1v1h-1zM16 30h1v1h1v1h-1v2h-1zM24 30h1v2h-2v-1h1zM22 32h1v1h-1zM26 32h1v2h-4v-1h3zM9 33h1v1h-1zM18 33h1v1h-1zM32 33h1v1h-1z"/></svg>