<svg xmlns="http://www.w3.org/2000/svg" viewBox="0 0 35 35"><path d="M1 1h7v7h-7zM12 1h2v1h-2zM17 1h1v2h-1v2h2v1h-6v-1h3v-1h-1v-1h1v-1h1zM19 1h6v1h-1v3h-1v-1h-1v-1h-1v-1h-1v1h-1zM27 1h7v7h-7zM2 2v5h5v-5zM11 2h1v1h-1zM25 2h1v3h-1zM28 2v5h5v-5zM3 3h3v3h-3zM9 3h1v6h-1zM12 3h1v1h-1zM29 3h3v3h-3zM11 4h1v4h1v1h-1v1h-2v-1h1zM19 4h1v1h-1zM21 5h1v1h-1zM24 5h1v1h-1zM20 6h1v1h-1zM22 6h1v1h-1zM25 6h1v3h-1zM13 7h1v1h-1zM15 7h1v3h-1v1h2v1h1v-1h-1v-1h1v-1h1v3h1v1h-2v1h-1v-1h-1v-1h-1v1h-1v-1h-3v1h-1v2h-2v-1h-1v1h1v1h-2v-1h-1v-1h1v-1h3v-1h1v-1h2v-1h1v1h1v-2h1zM17 7h1v2h-1zM19 7h1v1h1v-1h1v1h1v-1h1v3h1v1h-1v1h-1v1h-1v-1h-1v-1h-1v-2h-1zM1 9h1v1h1v3h1v1h-1v1h2v1h-3v1h-1v-2h1v-3h-1zM3 9h5v1h-5zM22 9v1h1v-1zM27 9h5v1h2v1h-1v1h-1v1h-1v1h3v1h-1v1h-1v1h-1v1h2v-1h1v2h-1v1h1v1h-1v1h-1v-1h-1v1h-2v-3h1v1h1v-1h-1v-1h-1v1h-2v-1h1v-2h1v1h1v-1h-1v-1h1v-1h-1v-3h1v1h1v-1h-1v-1h-2v1h-1zM4 11h1v2h-1zM6 11h3v1h-3zM26 11h1v1h-1zM27 12h1v1h-1zM13 13h1v1h1v4h-1v-2h-1v-1h-1v1h-1v-2h2zM15 13h1v1h-1zM20 13h1v1h-1zM23 13h1v1h1v1h-1v1h-1v-1h-1v-1h1zM26 13h1v1h-1zM16 14h1v1h1v1h-1v2h-1zM19 14h1v1h-1zM27 14h1v2h-3v-1h2zM21 15h1v1h1v1h-2zM5 16h1v1h-1zM8 16h1v2h1v1h-1v1h1v1h1v1h-1v1h1v2h-1v-1h-1v-3h-1v-1h-1v-1h1v-1h-1v1h-1v-2h2zM19 16h1v1h-1zM2 17h1v2h-1zM4 17h1v1h-1zM11 17h1v1h-1zM18 17h1v1h-1zM20 17h1v1h2v-1h1v1h1v1h-1v2h-2v-1h1v-1h-3zM25 17h2v1h-2zM13 18h1v1h1v1h-5v-1h3zM17 18h1v2h-2v-1h1zM5 19h1v1h-1zM19 19h1v1h-1zM2 20h1v1h1v-1h1v1h1v1h-1v2h-1v-1h-1v-1h-1zM25 20h2v2h1v1h1v1h1v-1h1v-1h1v1h1v1h1v1h-4v4h1v1h-1v1h-1v1h1v-1h1v1h1v1h-1v1h-3v-2h-3v-1h-1v-1h1v-1h-1v-1h-1v-1h2v-2h1v-1h-1v-1h1v-2h-1zM7 21h1v1h-1zM13 21h1v1h-1zM15 21h2v1h1v1h-2v-1h-1zM19 21h2v1h2v1h-1v1h2v2h-1v-1h-2v1h1v1h-3v1h1v1h-2v1h-1v1h1v-1h4v2h-1v-1h-2v1h-2v2h-1v-1h-1v-1h1v-1h-1v-1h-1v-2h2v-1h1v-1h1v-1h1v1h1v-2h1v-1h-1v-1h-1zM24 21h1v2h-1zM1 22h1v4h-1zM11 22h1v1h-1zM14 22h1v1h-1zM33 22h1v1h-1zM6 23h2v1h-1v1h2v1h-4v-2h1zM12 23h1v1h-1zM15 23h1v4h-1zM18 23h1v1h-1zM17 24h1v1h-1zM27 24v1h1v-1zM3 25h1v1h-1zM9 26h2v1h-2zM12 26h2v2h-1v-1h-1zM26 26v3h3v-3zM31 26h1v1h1v2h-2zM33 26h1v1h-1zM1 27h7v7h-7zM27 27h1v1h-1zM2 28v5h5v-5zM9 28h2v1h1v-1h1v2h1v1h-1v2h1v1h-2v-1h-1v-1h1v-2h-1v2h-2zM22 28h1v1h-1zM3 29h3v3h-3zM23 29h1v1h-1zM33 29h1v2h-2v-1h1zM27 30v1h1v-1zM23 31h1v2h2v1h-3v-1h-1v-1h1zM19 32h2v1h-2zM9 33h1v1h-1zM18 33h1v1h-1zM21 33h1v1h-1zM32 33h1v1h-1z"/></svg>