<svg xmlns="http://www.w3.org/2000/svg" viewBox="0 0 35 35"><path d="M1 1h7v7h-7zM12 1h1v1h-1zM17 1h1v2h-2v-1h1zM19 1h3v2h1v1h-2v-2h-1v1h-1zM24 1h1v1h-1zM27 1h7v7h-7zM2 2v5h5v-5zM10 2h2v1h-1v1h-1v1h1v1h-1v3h-1v-6h1zM28 2v5h5v-5zM3 3h3v3h-3zM12 3h2v2h-3v-1h1zM15 3h1v1h-1zM24 3h2v2h-1v-1h-1zM29 3h3v3h-3zM19 4h1v1h-1zM23 4h1v1h1v1h-4v-1h2zM14 5h4v1h-2v2h-1v-1h-1zM11 6h1v2h-1zM18 6h1v1h-1zM20 6h1v1h-1zM13 7h1v2h-2v-1h1zM17 7h1v2h-1zM19 7h1v1h-1zM21 7h1v1h1v-1h1v3h-1v-1h-2v1h2v1h1v1h-1v1h-5v-2h-1v-1h1v-1h1v3h3v-1h-2v-3h1zM25 7h1v3h-1zM1 9h1v1h-1zM3 9h5v1h-3v1h-1v-1h-1zM10 9h2v1h-2zM14 9h2v1h-1v1h2v1h-2v1h-1zM27 9h5v1h2v1h-1v1h-1v1h-1v1h-2v-3h1v1h1v-1h-1v-1h-2v2h-1v-1h-1v-1h1zM2 10h1v2h-1zM8 10h1v1h1v1h-3v-1h1zM12 10h1v1h-1zM24 10h1v1h-1zM25 11h1v1h1v2h-1v-1h-2v-1h1zM1 12h1v1h1v1h-1v1h-1zM10 12h1v1h1v-1h1v2h-3zM4 13h5v1h-4v1h4v3h1v-3h1v2h1v1h-1v1h1v1h-1v1h-3v-1h1v-1h-1v-1h-1v1h-2v-3h-1v1h-1v-1h-1v-1h2zM15 13h1v1h-1zM17 13h1v1h-1zM23 13h1v1h1v1h-1v1h1v1h-1v1h-1v-1h-1v1h1v3h-2v-1h1v-1h-2v-2h1v-2h1v1h1zM33 13h1v2h-1v1h-1v1h-1v1h1v1h1v1h1v1h-3v1h-2v-3h1v1h1v-1h-1v-1h-1v1h-2v1h-2v-1h1v-2h1v1h1v-1h-1v-1h2v1h1v-1h1v-2h2zM9 14h1v1h-1zM13 14h1v2h-1zM16 14h1v1h1v1h-1v1h2v1h-1v1h-1v-1h-1v-1h-1v-2h1zM19 14h1v2h-1zM27 14h1v1h-1zM26 15h1v1h-1zM29 15h1v1h-1zM6 16v1h2v-1zM12 16h1v1h-1zM2 17h1v1h-1zM13 17h1v1h-1zM33 17h1v2h-1zM24 18h1v1h-1zM3 19h2v1h-2zM7 19h1v1h-1zM16 19h1v1h-1zM19 19h1v1h-1zM1 20h2v1h-1v1h1v-1h1v2h-2v3h-1zM6 20h1v1h-1zM13 20h2v2h1v-1h1v1h1v1h-3v1h-1v1h1v1h1v1h-2v-1h-1v-1h-1v2h2v3h-2v2h-3v-4h2v-1h-2v-2h1v1h1v-1h-1v-1h1v-1h3v-1h-3v-1h2zM17 20h1v1h-1zM24 20h1v1h2v1h-2v1h-1zM27 20h1v1h-1zM5 21h1v2h2v1h-2v1h2v1h-4v-2h1zM7 21h1v1h-1zM19 21h1v1h-1zM10 22h1v1h-1zM20 22h2v1h2v1h2v1h2v-2h2v1h-1v1h1v4h1v1h3v1h-2v2h-2v1h-3v-3h1v-1h-1v1h-1v-1h-1v-1h-1v-1h-1v-1h2v-1h-2v-1h-1v2h-2v-2h-1v-1h2v-1h-1zM27 22h1v1h-1zM31 22h1v1h1v1h1v1h-4v-1h1zM33 22h1v1h-1zM9 23h1v1h-1zM18 23h1v1h-1zM26 23h1v1h-1zM17 24h1v1h1v3h1v1h-2v-1h-1v1h1v1h-1v1h1v-1h2v-1h1v1h1v1h1v1h1v1h2v1h-3v-1h-1v-1h-1v-1h-1v1h1v1h-2v-1h-2v1h2v1h-3v-2h-3v-1h1v-1h2v-1h-1v-1h1v-1h1zM26 26v3h3v-3zM31 26h1v1h1v2h-2zM33 26h1v1h-1zM1 27h7v7h-7zM27 27h1v1h-1zM2 28v5h5v-5zM21 28h2v1h-2zM3 29h3v3h-3zM23 29h1v1h-1zM10 30v1h1v-1zM24 30h1v1h-1zM25 31h1v1h-1zM29 31v1h2v-1zM9 33h2v1h-2zM12 33h1v1h-1zM14 33h1v1h-1zM32 33h1v1h-1z"/></svg>