<svg xmlns="http://www.w3.org/2000/svg" viewBox="0 0 35 35"><path d="M1 1h7v7h-7zM10 1h1v2h2v-1h-1v-1h2v3h-3v1h-1v1h1v1h-1v2h-1v-6h1zM17 1h1v1h-1zM19 1h4v1h-3v1h-1zM24 1h1v1h-1zM27 1h7v7h-7zM2 2v5h5v-5zM16 2h1v1h-1zM23 2h1v1h-1zM25 2h1v1h-1zM28 2v5h5v-5zM3 3h3v3h-3zM15 3h1v1h-1zM22 3h1v1h-1zM24 3h1v1h-1zM29 3h3v3h-3zM19 4h1v1h-1zM23 4h1v1h1v1h-2zM11 5h1v1h-1zM15 5h3v1h-2v2h-1v-1h-1v-1h1zM21 5h1v1h-1zM18 6h3v1h-1v1h1v-1h1v1h1v1h-1v1h1v-1h1v1h1v1h-5v-2h-1v-2h-1zM11 7h1v4h-1v-1h-1v-1h1zM13 7h1v1h-1zM17 7h1v2h1v3h1v1h-2v1h-1v1h1v1h-1v2h-1v-2h-1v-1h1v-1h-1v-1h2v-1h1v-1h-1zM23 7h1v1h-1zM25 7h1v2h-1zM1 9h1v2h-1zM3 9h5v1h-1v1h-1v-1h-1v1h-1v1h-1v1h-1v-2h1zM14 9h2v1h-1v1h2v1h-2v1h-1v2h-1v-3h1zM27 9h5v2h1v1h-1v1h-1v1h3v1h-1v1h-1v-1h-2v-1h-1v-3h1v1h1v-1h-1v-1h-2v1h-1v1h-2v-1h1v-1h1zM8 10h1v1h2v1h-4v-1h1zM33 10h1v1h-1zM5 11h1v2h-2v-1h1zM21 12h3v2h-1v-1h-2zM33 12h1v1h-1zM1 13h1v1h-1zM6 13h2v1h-1v1h2v1h-2v1h1v1h-4v-1h-2v2h-1v-3h2v-1h-1v-1h4zM10 13h1v2h-2v-1h1zM25 13h2v1h-2zM18 14h2v3h-1v-2h-1zM24 14h1v1h-1zM27 14h1v1h-1zM5 15v2h1v-2zM12 15h1v2h-1v2h-1v3h-1v-1h-1v-1h1v-1h-1v-3h1v1h1v-1h1zM21 15h1v1h1v1h-2zM25 15h1v1h-1zM29 15h1v1h-1zM24 16h1v1h-1zM27 16h1v1h-1zM30 16h2v1h-1v1h1v1h1v1h-1v1h-1v1h-3v-1h1v-2h1v1h1v-1h-1v-1h-1v1h-1v2h-1v1h1v1h-2v-3h1v-2h1v-1h2zM13 17h2v1h-1v1h-1zM18 17h1v1h-1zM20 17h1v1h1v2h-1v-1h-1zM23 17h1v1h1v1h-2zM25 17h2v1h-2zM33 17h1v2h-1zM15 18h1v1h1v-1h1v3h-2v-1h-1zM3 19h3v1h1v1h1v1h-2v2h-1v-4h-2zM7 19h1v1h-1zM12 19h1v1h2v1h-2v2h-2v-1h1zM19 19h1v1h-1zM1 20h1v1h-1zM22 20h3v3h-1v-2h-2zM19 21h1v1h-1zM1 22h1v4h-1zM9 22h1v1h-1zM14 22h5v1h-4v1h-1zM20 22h3v1h-1v1h1v-1h1v1h1v-1h1v1h2v1h2v4h1v1h3v1h-2v2h-1v1h-3v-1h-1v-2h1v-1h-1v1h-1v-1h-1v-1h-1v-1h-1v-3h-2v1h1v2h1v1h-2v-2h-1v-3h1v-1h-1zM33 22h1v1h-1zM3 23h1v1h1v2h-1v-1h-1zM7 23h1v1h-1zM19 23h1v1h-1zM30 23h3v1h1v1h-4zM11 24h2v1h3v2h-1v1h-1v-2h-2v1h1v2h2v-1h1v-1h1v2h-1v1h-1v1h1v-1h1v1h2v-1h1v-1h1v1h1v1h1v2h-1v-1h-1v-1h-1v1h1v1h-2v-1h-2v1h2v1h-7v-2h1v1h2v-1h-1v-1h-1v-1h-2v-4h-1v-1h1zM17 24h1v1h-1zM7 25h2v1h-2zM18 25h1v3h1v1h-2v-2h-1v-1h1zM9 26h1v1h-1zM24 26v1h1v-1zM26 26v3h3v-3zM31 26h3v1h-1v1h-1v1h-1zM1 27h7v7h-7zM27 27h1v1h-1zM2 28v5h5v-5zM9 28h1v3h2v1h-1v1h-1v-1h-1zM33 28h1v1h-1zM3 29h3v3h-3zM17 29h1v1h-1zM23 29h1v1h-1zM24 30h1v1h1v1h-2zM29 31v1h2v-1zM9 33h1v1h-1zM23 33h4v1h-4zM32 33h1v1h-1z"/></svg>