<svg xmlns="http://www.w3.org/2000/svg" viewBox="0 0 35 35"><path d="M1 1h7v7h-7zM11 1h1v1h-1zM13 1h1v1h-1zM17 1h1v1h-1zM19 1h3v1h1v2h-1v-1h-1v-1h-1v1h-1zM24 1h1v1h-1zM27 1h7v7h-7zM2 2v5h5v-5zM16 2h1v1h-1zM28 2v5h5v-5zM3 3h3v3h-3zM9 3h3v2h2v1h1v-1h1v-1h1v1h1v1h-2v2h-1v-1h-1v2h2v1h-1v1h2v-4h1v2h1v3h1v1h-2v-1h-3v1h-1v-3h-2v2h-1v-1h-2v-1h2v-1h1v-1h1v-2h-1v2h-1v-1h-1v1h1v1h-2zM13 3h1v1h-1zM15 3h1v1h-1zM17 3h1v1h-1zM20 3h1v2h-2v-1h1zM25 3h1v2h-1v1h-1v-1h-1v-1h2zM29 3h3v3h-3zM21 5h2v1h1v2h-1v-1h-1v-1h-1zM19 6h2v1h-1v1h-1zM21 7h1v1h1v1h-2v1h1v1h-2v-3h1zM25 7h1v1h-1zM1 9h1v1h-1zM3 9h5v1h-4v1h1v5h-1v-2h-3v-2h1v1h2v-1h-2v-2h1zM23 9h2v2h-1v-1h-1zM27 9h5v2h1v1h-1v1h-1v1h2v-2h1v3h-1v1h-1v1h-2v-1h-1v-1h1v-1h-1v-3h1v1h1v-1h-1v-1h-2v1h-1zM33 10h1v1h-1zM7 11h2v1h-2zM22 11h1v2h-2v-1h1zM25 11h2v1h-2zM6 12h1v1h1v1h-2zM9 12h2v3h1v2h-1v-1h-2v1h-1v-1h-1v-1h1v-1h1zM12 13h1v1h1v1h1v1h-1v1h-1v-2h-1zM15 13h1v1h-1zM17 13h1v1h-1zM20 13h1v1h-1zM23 13h1v1h-1zM25 13h2v1h-2zM16 14h1v1h2v-1h1v2h-3v2h-1zM24 14h1v1h-1zM27 14h1v1h-1zM1 15h2v2h1v1h1v1h-2v-1h-1v-1h-1zM21 15h1v1h1v1h-2zM5 16h2v1h1v1h-1v1h-1v-2h-1zM24 16h1v3h-1v-1h-1v-1h1zM27 16h2v1h1v1h-1v1h-2v-1h1v-1h-1zM9 17h1v1h2v1h1v-1h1v1h1v-1h1v1h1v-1h1v3h-1v-1h-1v1h-2v2h1v1h-1v1h-3v2h-2v-1h-3v-2h1v1h1v-1h1v-1h1v-2h2v-1h-2v1h-1v2h-1v-1h-2v-1h2v-1h1zM14 17h1v1h-1zM18 17h1v1h-1zM20 17h1v1h2v2h2v1h2v1h1v1h5v1h1v1h-3v1h-1v3h1v1h-1v1h-1v1h1v-1h1v1h1v1h-2v1h-3v-2h-1v-1h-1v-2h-1v-1h-1v-1h2v-1h-2v-1h-1v2h-2v-3h1v-1h-1v-1h-1v-1h2v1h2v1h-1v1h1v-1h1v1h1v-1h1v-1h-1v1h-1v-2h-2v-2h-2zM26 17h1v1h-1zM33 17h1v2h-1zM30 18h2v1h1v2h-2v1h-3v-1h1v-2h1v1h1v-1h-1zM1 19h2v1h-2zM5 19h1v2h-1zM7 19h1v1h-1zM19 19h1v1h-1zM25 19h2v1h-2zM1 21h1v5h-1zM4 21h1v1h-1zM16 21h1v1h1v1h-3v-1h1zM3 22h1v1h2v1h-1v1h-1v-1h-1zM33 22h1v1h-1zM7 23h1v1h-1zM11 23v1h2v-1zM18 23h1v1h-1zM17 24h1v1h-1zM29 24v1h1v-1zM3 25h1v1h-1zM14 25h1v1h1v1h1v-1h1v-1h1v3h2v2h2v2h2v1h1v1h-3v-1h-1v-1h-1v-1h-2v-1h1v-1h-2v-1h-2v1h-1v-2h-1v1h-1v1h-1v-1h-1v-1h1v-1h2zM26 26v3h3v-3zM31 26h1v1h1v2h-2zM33 26h1v1h-1zM1 27h7v7h-7zM27 27h1v1h-1zM2 28v5h5v-5zM9 28h2v1h-1v1h1v-1h1v1h1v1h-3v1h-1zM22 28h1v1h-1zM3 29h3v3h-3zM13 29h1v1h-1zM17 29h1v1h-1zM23 29h1v1h-1zM16 30h1v1h1v1h-1v2h-1v-1h-2v-2h1v1h1zM27 30v1h1v-1zM31 30h3v1h-3zM19 32h2v1h-2zM9 33h2v1h-2zM12 33h2v1h-2zM18 33h1v1h-1zM32 33h1v1h-1z"/></svg>