<svg xmlns="http://www.w3.org/2000/svg" viewBox="0 0 35 35"><path d="M1 1h7v7h-7zM12 1h2v1h-1v1h-1zM15 1h1v1h-1zM17 1h1v3h-1v-1h-1v-1h1zM20 1h2v1h-2zM24 1h1v1h-1zM27 1h7v7h-7zM2 2v5h5v-5zM10 2h1v1h1v2h2v1h-2v2h-1v-1h-1v2h-1v-6h1zM19 2h1v1h-1zM23 2h1v2h2v1h-1v1h-1v-1h-1v-1h-1v-1h1zM25 2h1v1h-1zM28 2v5h5v-5zM3 3h3v3h-3zM13 3h1v1h-1zM15 3h1v1h-1zM20 3h1v1h-1zM29 3h3v3h-3zM19 4h1v1h-1zM15 5h3v1h-2v5h1v-1h1v-1h1v1h1v-2h1v-1h1v1h1v1h-1v3h-1v-1h-2v1h1v1h-2v-1h-1v1h-1v-1h-1v1h-1v-1h-1v-1h-1v-1h2v-1h1zM21 5h1v1h-1zM18 6h1v1h-1zM20 6h1v1h-1zM23 6h1v2h-1zM25 6h1v4h-1v1h-1v-1h-1v-1h1v-1h1zM13 7h1v1h-1zM17 7h1v2h-1zM19 7h1v1h-1zM12 8h1v1h-1zM1 9h1v4h-1zM3 9h5v1h-1v1h1v1h-1v1h1v1h-1v1h-3v-3h2v-2h-1v1h-1v1h-1zM27 9h5v1h2v1h-1v1h1v3h-1v1h-1v-1h-1v-1h2v-1h-2v1h-3v-1h1v-2h1v1h1v-1h-1v-1h-2v2h-1v-1h-1v-1h1zM8 10h3v1h-1v2h-1v-2h-1zM11 11h1v2h-1zM22 12h5v2h1v1h-1v1h-1v1h1v1h-2v1h-1v-1h-1v-1h1v-1h1v-1h1v-2h-2v1h-1v-1h-1zM12 13h1v2h1v-1h1v1h1v-1h1v1h1v-1h2v2h-3v1h2v1h-1v2h-2v-1h1v-1h-1v-1h-1v-1h-2v1h-1zM15 13h1v1h-1zM17 13h1v1h-1zM2 14h1v1h-1zM10 14h1v1h-1zM22 14h1v1h-1zM24 14h1v1h-1zM1 15h1v1h1v1h1v1h-3zM7 15h1v1h-1zM21 15h1v1h1v1h-2zM23 15h1v1h-1zM28 15h1v2h1v1h-1v1h-2v-1h1zM30 15h1v1h1v1h-2zM6 16h1v1h-1zM9 16h1v4h2v1h-3v-1h-2v-1h2v-1h-2v-1h2zM5 17h1v1h-1zM13 17h2v2h-1v-1h-1zM20 17h1v1h2v2h2v1h-4v1h1v1h2v1h-1v1h-2v1h1v2h-1v-1h-1v-3h1v-1h-1v-1h-1v-1h1v-1h2v-1h-2zM33 17h1v2h-1zM4 18h1v1h-1zM11 18h1v1h-1zM30 18h2v1h1v1h-1v1h-1v1h-2v-3h1v1h1v-1h-1zM1 19h2v1h-2zM5 19h1v1h1v1h1v1h-2v-1h-1zM13 19h1v1h-1zM19 19h1v1h-1zM25 19h2v1h-2zM3 20h1v2h2v2h1v1h-1v1h-3v-1h1v-1h1v-1h-2zM15 20h1v1h-1zM27 20h1v1h-1zM33 20h1v1h-1zM12 21h1v1h-1zM14 21h1v2h-2v-1h1zM16 21h1v1h1v1h-2zM26 21h1v1h-1zM1 22h1v4h-1zM24 22h1v1h-1zM27 22h1v2h1v1h1v4h1v1h-1v1h-1v1h2v-1h1v2h-2v1h-2v-2h-1v-1h1v-1h-1v1h-1v1h-1v1h1v1h-3v-1h-1v-1h-1v-1h-2v-1h1v-1h-2v-2h-1v-3h1v1h1v3h2v2h2v1h1v-1h1v-1h-1v-1h-1v-3h1v1h1v-1h1v-1h-1v-1h2zM33 22h1v1h-1zM7 23h5v1h-2v1h-1v1h-2v-1h1v-1h-1zM18 23h2v1h-2zM32 23h1v1h1v1h-4v-1h2zM14 24h2v1h-2zM11 25h3v1h-3zM9 26h2v3h1v-1h1v1h3v1h1v1h2v1h-2v1h2v1h-4v-1h-1v1h-5v-1h4v-2h2v-1h-3v2h-3v-4h1v-1h-1zM26 26v3h3v-3zM31 26h1v1h1v1h-1v1h-1zM33 26h1v1h-1zM1 27h7v7h-7zM13 27h2v1h-2zM16 27h1v2h-1zM27 27h1v1h-1zM2 28v5h5v-5zM22 28h1v1h-1zM33 28h1v3h-2v-1h1zM3 29h3v3h-3zM17 29h1v1h-1zM23 29h1v1h-1zM20 32h1v1h-1zM26 32h1v1h-1zM32 33h1v1h-1z"/></svg>