<svg xmlns="http://www.w3.org/2000/svg" viewBox="0 0 35 35"><path d="M1 1h7v7h-7zM10 1h1v1h-1zM17 1h1v1h-1zM20 1h2v1h1v1h1v2h-1v-1h-1v-1h-1v-1h-1zM24 1h1v1h-1zM27 1h7v7h-7zM2 2v5h5v-5zM12 2h1v1h1v2h-1v1h-1v-1h-1v-1h-1v1h1v2h-1v2h-1v-6h3zM16 2h1v1h-1zM19 2h1v1h-1zM28 2v5h5v-5zM3 3h3v3h-3zM15 3h1v1h-1zM20 3h1v2h-2v-1h1zM29 3h3v3h-3zM15 5h3v1h-2v2h-1v-1h-1v-1h1zM21 5h1v1h-1zM24 5h1v1h-1zM19 6h2v1h-1v1h1v-1h1v1h1v1h-2v1h1v2h-1v-1h-2v1h1v1h-2v-2h-1v-1h1v-1h1v1h1v-1h-1zM23 6h1v2h-1zM25 6h1v2h-1zM11 7h1v1h-1zM13 7h1v2h-2v-1h1zM17 7h1v2h-1zM1 9h1v1h-1zM3 9h5v1h-3v1h-3v-1h1zM10 9h1v1h-1zM14 9h2v2h1v1h-2v1h-1zM23 9h1v1h1v1h-2zM27 9h5v2h1v1h1v3h-1v1h-1v-1h-1v-1h2v-1h-2v1h-3v-1h1v-2h1v1h1v-1h-1v-1h-2v1h-1zM8 10h2v1h1v1h-1v3h-1v-1h-3v-3h2zM11 10h2v1h-2zM33 10h1v1h-1zM25 11h2v1h1v1h-1v1h-1v-2h-1zM1 12h1v1h-1zM3 12h2v1h-2zM7 12v1h1v-1zM11 12h2v1h-1v1h-1zM22 12h1v1h-1zM13 13h1v1h1v4h-1v-1h-1v-1h1v-1h-2v-1h1zM15 13h1v1h-1zM17 13h1v1h-1zM20 13h1v1h-1zM23 13h1v1h-1zM4 14h1v3h-1v1h-1v-2h1zM16 14h1v1h1v-1h2v2h-3v1h2v1h-1v3h-1v1h2v2h-1v-1h-2v-2h-1v-3h1v1h1v-1h-1zM22 14h1v1h1v1h1v1h-1v1h1v1h-1v2h-2v-1h-1v-1h-1v1h-1v-2h1v-1h1v-2h1zM24 14h1v1h-1zM27 14h1v1h-1zM1 15h2v1h-1v1h-1zM6 15h2v1h-2zM10 15h2v1h-2zM26 15h1v3h-2v-1h1zM28 15h1v2h1v1h-1v1h-1v1h-1v-2h1zM30 15h1v1h1v1h-2zM9 16h1v1h-1zM7 17h2v1h-2zM10 17h2v1h2v1h-1v1h-1v-1h-1v-1h-1zM22 17v1h1v-1zM33 17h1v2h-1zM4 18h3v1h-1v1h-1v1h3v1h-1v1h2v1h-3v-1h-1v-1h-1v-2h-1v-1h1zM9 18h1v1h1v2h-2v-1h-2v-1h2zM30 18h2v1h1v1h1v3h-1v-1h-1v-1h-1v2h-1v-1h-1v-3h1v1h1v-1h-1zM1 19h1v2h-1zM25 19h1v1h1v2h1v2h-1v1h3v4h1v1h-1v1h-1v1h1v-1h1v1h1v1h-1v1h-3v-2h-1v-1h1v-1h-1v1h-1v-1h-1v-1h-1v-1h-1v-1h1v-1h-1v-1h1v-1h2v-2h-1v1h-1v-2h1zM13 20h1v1h-1zM2 21h1v1h-1zM19 21h2v1h2v3h-2v1h1v2h-1v-1h-2v1h1v1h-2v1h-1v1h1v1h-1v2h-1v-1h-2v-1h1v-1h1v-1h-1v-1h-2v-1h2v-1h2v1h-1v1h1v-1h1v-1h-1v-3h1v1h1v1h1v-2h1v-1h-1v-1h-1zM1 22h1v4h-1zM9 22h2v1h-2zM12 22h2v1h2v2h-1v2h-1v-3h-1v1h-1v-1h-1v-1h1zM3 23h2v1h1v1h-3zM29 23h1v1h-1zM31 23h2v1h1v1h-4v-1h1zM7 25h1v1h-1zM9 25h3v1h-2v1h-1zM12 26h1v2h-1zM26 26v3h3v-3zM31 26h1v1h1v3h1v1h-2v-2h-1zM33 26h1v1h-1zM1 27h7v7h-7zM10 27h1v3h2v1h1v1h-1v1h-1v1h-3v-1h2v-2h-1v1h-1v-4h1zM27 27h1v1h-1zM2 28v5h5v-5zM22 28h1v1h-1zM3 29h3v3h-3zM23 29h1v1h-1zM14 30h1v1h-1zM19 30h3v2h-1v-1h-1v1h-1zM24 30h1v1h1v1h-3v-1h1zM20 32h1v1h-1zM22 32h1v1h-1zM26 32h1v2h-4v-1h3zM13 33h1v1h-1zM18 33h1v1h-1zM21 33h1v1h-1zM32 33h1v1h-1z"/></svg>