<svg xmlns="http://www.w3.org/2000/svg" viewBox="0 0 35 35"><path d="M1 1h7v7h-7zM12 1h1v1h-1zM17 1h1v1h-1zM20 1h5v1h-2v1h1v1h1v-2h1v3h-1v1h-1v-1h-1v-1h-3v-1h1v-1h-1zM27 1h7v7h-7zM2 2v5h5v-5zM11 2h1v1h-1zM16 2h1v1h-1zM19 2h1v1h-1zM28 2v5h5v-5zM3 3h3v3h-3zM9 3h1v1h3v1h-3v1h2v2h-1v-1h-1v2h-1zM13 3h1v1h-1zM15 3h1v1h-1zM29 3h3v3h-3zM16 4h1v1h1v1h-2v2h-1v-1h-1v2h-1v-3h2v-1h1zM19 4h1v1h-1zM21 5h1v1h-1zM18 6h1v1h-1zM20 6h1v1h-1zM17 7h1v2h1v1h1v-1h-1v-2h1v1h1v-1h1v1h1v1h-1v1h1v1h-1v1h-1v-1h-2v1h2v1h-3v-1h-1v1h-1v-1h-1v1h-2v-1h1v-3h2v2h1zM23 7h1v1h-1zM25 7h1v3h-1v-1h-1v-1h1zM1 9h1v1h-1zM3 9h5v1h-1v1h-1v-1h-2v1h-2v-1h1zM11 9h2v3h-1v-1h-2v1h-1v-2h2zM23 9h1v1h-1zM27 9h5v1h2v1h-1v1h1v1h-3v1h3v1h-1v1h-1v1h-2v1h-1v1h-2v-1h1v-1h1v-2h1v1h1v-1h-1v-1h-1v-3h1v1h1v-1h-1v-1h-2v1h-1zM24 10h1v1h-1zM1 11h1v1h-1zM7 11h1v1h-1zM25 11h1v1h-1zM3 12h3v1h-1v1h1v1h-2v3h1v3h-1v-1h-1v1h-2v-7h2zM8 12h1v1h2v1h3v1h-6v-1h-1v-1h1zM22 12h1v1h-1zM26 12h1v2h1v1h-2v-1h-1v-1h1zM15 13h1v1h-1zM17 13h1v1h-1zM23 13h1v1h-1zM16 14h1v1h1v-1h2v1h-1v1h-2v2h-1v-2h-1v-1h1zM22 14h1v1h1v1h1v-1h1v2h-1v2h-1v1h-1v1h-1v-1h-1v-1h-1v-2h1v1h2v-1h-2v-2h1zM24 14h1v1h-1zM6 15h2v1h-2zM5 16h1v1h2v-1h1v1h1v2h1v2h1v-1h1v1h1v4h-6v-1h-2v-1h4v1h1v-1h-1v-3h-1v-2h-2v1h1v1h-2v-2h-1zM11 16h2v1h-2zM19 16h1v1h-1zM27 16h1v1h-1zM13 17h2v1h1v1h-1v1h-2v-1h1v-1h-1zM18 17h1v1h-1zM26 17h1v1h-1zM33 17h1v2h-1zM17 18h1v2h-1v1h-1v-2h1zM30 18h2v1h1v1h1v1h-3v2h-1v-1h-2v-1h1v-2h1v1h1v-1h-1zM19 19h1v1h-1zM26 19h1v1h-1zM27 20h1v1h-1zM3 21h1v1h-1zM6 21h2v1h-2zM15 21h1v1h-1zM19 21h1v1h-1zM26 21h1v1h1v1h1v1h-1v1h1v-1h3v-1h1v1h1v1h-3v1h-1v3h1v1h-1v1h-1v1h2v-2h2v-1h1v2h-2v2h-2v1h-7v-1h-1v-1h1v-1h1v-1h1v-1h-1v-1h-1v-3h4v-1h-1zM1 22h2v1h-1v3h-1zM4 22h2v1h-2zM12 22v1h1v-1zM16 22h2v1h-2zM20 22h2v2h1v1h-2v1h1v1h-2v-2h-1v-2h1v1h1v-1h-1zM24 22h1v1h-1zM33 22h1v1h-1zM3 24h1v1h4v1h-5zM15 24h1v1h-1zM17 24h1v1h-1zM18 25h1v3h2v2h2v1h-1v1h-1v-1h-2v-1h1v-1h-2v-2h-1v-1h1zM9 26h1v1h-1zM11 26h1v1h1v1h1v-2h1v2h1v-1h1v2h-2v1h-1v1h-1v-2h-1v-1h-1zM24 26v1h1v-1zM26 26v3h3v-3zM31 26h1v1h1v2h-2zM33 26h1v1h-1zM1 27h7v7h-7zM27 27h1v1h-1zM2 28v5h5v-5zM9 28h1v1h2v2h1v1h1v-1h1v2h1v-3h1v1h1v1h-1v2h-3v-1h-1v1h-1v-2h-1v-1h-1v1h-1zM22 28h1v1h-1zM3 29h3v3h-3zM17 29h1v1h-1zM23 29h1v1h-1zM27 30v1h-2v1h-1v1h4v-1h-1v-1h1v-1zM19 32h2v1h-2zM9 33h1v1h-1zM18 33h1v1h-1zM21 33h1v1h-1zM32 33h1v1h-1z"/></svg>