<svg xmlns="http://www.w3.org/2000/svg" viewBox="0 0 35 35"><path d="M1 1h7v7h-7zM11 1h3v1h-3zM15 1h1v1h-1zM17 1h1v1h-1zM19 1h4v3h-2v1h-2v-1h1v-1h2v-1h-2v1h-1zM24 1h1v1h-1zM27 1h7v7h-7zM2 2v5h5v-5zM16 2h1v1h-1zM28 2v5h5v-5zM3 3h3v3h-3zM9 3h2v3h-1v2h1v-1h1v1h1v1h-1v2h-1v-2h-2zM12 3h2v1h-1v3h-1zM15 3h1v1h-1zM17 3h1v1h-1zM24 3h1v1h-1zM29 3h3v3h-3zM16 4h1v1h1v1h-3v-1h1zM23 4h1v1h-1zM21 5h2v1h1v4h1v1h-2v1h1v2h1v1h-1v1h1v1h-1v1h-1v-1h-2v-2h1v-1h1v-1h-1v-2h-3v1h2v2h-1v-1h-2v-1h-3v1h-1v2h-1v1h1v1h-2v1h-1v-2h1v-2h1v-2h1v-3h1v-2h1v3h-1v1h2v-1h1v-1h1v1h1v-2h1v-1h1v1h1v-1h-1v-1h-1zM24 5h1v1h-1zM14 6h1v1h-1zM19 6h2v1h-1v1h-1zM13 7h1v1h-1zM17 7h1v2h-1zM25 7h1v2h-1zM1 9h1v3h-1zM3 9h5v1h-1v1h1v-1h2v1h1v1h1v1h-3v-1h-2v1h-3v1h-1v1h-1v-3h1zM21 9v1h2v-1zM27 9h5v2h1v2h-2v1h-2v-3h1v1h1v-1h-1v-1h-2v1h-1zM4 10v2h2v-1h-1v-1zM33 10h1v1h-1zM12 11h1v1h-1zM27 12h1v1h-1zM7 13h1v1h-1zM15 13h3v1h-1v1h1v-1h2v2h-3v1h2v1h-1v3h-2v-1h-1v1h-1v-1h-1v-1h4v-1h-1v-4h-1zM25 13h2v1h-2zM33 13h1v2h-1v1h-1v-1h-1v-1h2zM4 14h1v2h2v1h1v1h-1v1h-1v1h-1v-1h-3v-1h2zM6 14h1v1h-1zM27 14h1v1h-1zM7 15h1v1h-1zM26 15h1v1h-1zM29 15h2v1h1v1h-1v1h2v-1h1v2h-1v1h-1v1h-1v1h-3v-1h1v-2h1v1h1v-1h-1v-1h-1v1h-1v2h-1v-3h1v-1h-1v-1h2zM1 16h2v1h-1v1h-1zM8 16h2v1h-2zM5 17v1h1v-1zM14 17h1v1h-1zM20 17h1v1h2v2h1v1h-4v-1h1v-1h-1zM25 17h2v1h-2zM8 18h1v1h1v-1h1v2h2v1h-2v1h-1v1h-1v1h-2v-1h1v-1h1v-1h1v-1h-1v1h-1v-1h-1v-1h1zM24 18h1v1h-1zM1 19h1v1h3v1h-2v1h-1v-1h-1zM19 19h1v1h-1zM25 19h1v2h1v1h-2zM7 21h1v1h-1zM13 21h1v1h1v2h-1v1h-2v-1h1zM19 21h1v1h-1zM32 21h1v1h-1zM1 22h1v4h-1zM3 22h2v2h-1v1h-1zM6 22h1v1h-1zM16 22h3v1h-3zM20 22h3v1h1v1h1v1h-1v1h1v-1h1v-2h1v1h2v1h1v4h1v1h-1v1h-1v1h1v-1h1v1h1v1h-1v1h-3v-2h-1v-1h1v-1h-1v1h-2v-2h-1v-1h-1v-3h-1v3h-1v-1h-2v1h1v1h-2v-2h-1v-1h1v-1h1v1h1v-1h-1v-2h1v1h1v-1h-1zM24 22h1v1h-1zM27 22h1v1h-1zM31 22h1v1h1v1h1v1h-4v-1h1zM33 22h1v1h-1zM10 23h1v1h-1zM17 24h1v1h-1zM5 25h3v1h-3zM9 25h1v2h-1zM11 25h1v1h-1zM13 26h1v1h3v2h-1v-1h-4v-1h1zM26 26v3h3v-3zM31 26h1v1h1v2h-2zM33 26h1v1h-1zM1 27h7v7h-7zM27 27h1v1h-1zM2 28v5h5v-5zM9 28h1v2h1v1h1v2h-1v-1h-2zM22 28h1v1h-1zM3 29h3v3h-3zM12 29h4v1h-1v3h1v-3h1v1h1v-1h5v1h-1v1h-1v-1h-1v1h1v1h-2v-1h-2v1h2v1h-5v-3h-2zM17 29h1v1h-1zM23 29h1v1h-1zM32 30h2v1h-2zM23 31h2v1h-1v1h2v-1h1v2h-4v-1h-1v-1h1zM9 33h1v1h-1zM12 33h1v1h-1zM21 33h1v1h-1zM32 33h1v1h-1z"/></svg>