<svg xmlns="http://www.w3.org/2000/svg" viewBox="0 0 35 35"><path d="M1 1h7v7h-7zM10 1h1v1h-1zM13 1h1v1h-1zM15 1h1v1h-1zM17 1h1v3h-3v-1h1v-1h1zM19 1h4v1h1v1h-1v1h-1v-2h-2v1h-1zM24 1h1v1h-1zM27 1h7v7h-7zM2 2v5h5v-5zM11 2h1v1h-1zM25 2h1v1h-1zM28 2v5h5v-5zM3 3h3v3h-3zM9 3h2v1h-1v1h2v1h-1v1h-1v1h1v1h-2zM24 3h1v1h-1zM29 3h3v3h-3zM12 4h2v1h-2zM19 4h2v1h-2zM23 4h1v1h-1zM25 4h1v1h-1zM14 5h5v2h-1v-1h-4zM21 5h2v1h-2zM24 5h1v1h-1zM12 6h1v1h-1zM20 6h1v1h-1zM23 6h1v2h-1zM11 7h1v1h-1zM13 7h1v2h-2v-1h1zM15 7h1v1h-1zM17 7h1v2h-1zM19 7h1v1h-1zM21 7h1v1h1v1h-2v1h2v-1h1v-1h1v-1h1v3h-1v1h-1v1h1v1h2v1h-2v1h-1v-1h-1v-1h-1v-1h1v-1h-3v-3h1zM1 9h1v1h-1zM3 9h5v1h-1v1h-1v-1h-3zM11 9h1v1h-1zM14 9h2v2h1v1h1v-1h-1v-1h1v-1h1v3h2v1h-3v1h-1v1h2v1h-2v2h-1v-1h-1v-1h1v-2h-1v-1h1v-1h-1v1h-1v1h-1v-2h1zM27 9h5v2h1v1h-1v1h-1v1h-3v-1h1v-2h1v1h1v-1h-1v-1h-2v2h-3v-1h1v-1h1zM8 10h3v2h-1v-1h-2zM33 10h1v1h-1zM1 11h1v2h-1zM3 11h1v1h-1zM5 11h1v3h-3v1h-1v-2h3zM7 11h1v1h-1zM12 11h1v1h-1zM9 12h1v1h1v1h-1v1h-2v-1h1zM11 12h1v1h-1zM7 13h1v1h-1zM33 13h1v2h-1v1h-1v1h-2v-1h-1v-1h3v-1h1zM6 14h1v1h-1zM14 14h1v2h-1zM19 14h1v1h-1zM27 14h1v2h-1zM1 15h1v1h-1zM3 15h1v1h-1zM5 15h1v1h-1zM7 15h1v1h-1zM10 15h2v1h-2zM21 15h1v1h1v1h-1v2h2v1h1v3h-1v-2h-3v-2h-1v1h-1v-2h1v-1h1zM25 15h1v1h1v2h-2zM6 16h1v1h1v1h-1v1h-1zM12 16h2v2h-1v-1h-1zM19 16h1v1h-1zM3 17h1v1h-1zM9 17h1v1h1v-1h1v1h1v3h4v1h2v2h-1v-1h-2v3h-1v-1h-1v-1h1v-1h-2v-1h-2v-1h1v-1h-1v1h-1v2h-1v-2h-1v-1h-1v-1h1v-1h1zM18 17h1v1h-1zM23 17h1v1h-1zM28 17h2v1h-1v1h-1v2h-1v1h-1v-3h1v-1h1zM33 17h1v2h-1v2h1v2h-1v-1h-1v-1h-1v1h-3v-1h1v-2h1v1h1v-1h-1v-1h3zM4 18h1v3h-1v-1h-3v-1h3zM14 18h1v1h-1zM17 18h1v1h-1zM24 18h1v1h-1zM16 19h1v1h-1zM17 20h1v1h-1zM1 21h2v1h2v-1h3v1h-1v1h2v1h1v1h-2v-1h-2v-1h-1v2h3v1h-4v-1h-1v-1h1v-1h-2v3h-1zM19 21h1v1h-1zM20 22h3v1h-1v1h1v1h-1v3h-1v-1h-2v1h2v1h-3v-2h-1v-1h1v-1h1v1h1v-2h1v-1h-1zM27 22h1v1h-1zM10 23h1v1h-1zM23 23h1v1h-1zM25 23h2v1h3v-1h1v1h1v-1h1v1h1v1h-4v4h1v1h-1v1h-1v1h3v1h-2v1h-7v-1h4v-1h-2v-1h-1v-1h1v-1h-1v-1h-1v-1h2v-1h-2v-1h1v-1h1v1h1v-1h-1zM12 24h1v1h-1zM17 24h1v1h-1zM10 25h2v1h-2zM13 25h1v1h-1zM9 26h1v1h-1zM12 26h1v1h-1zM14 26h1v1h-1zM26 26v3h3v-3zM31 26h1v1h1v1h-1v1h-1zM33 26h1v1h-1zM1 27h7v7h-7zM10 27h1v1h1v2h-1v1h-1v1h-1v-4h1zM13 27h1v1h-1zM16 27h1v2h1v1h-1v1h1v1h-1v1h2v1h-3v-2h-1v-1h-1v-2h2zM27 27h1v1h-1zM2 28v5h5v-5zM22 28h1v1h-1zM33 28h1v1h-1zM3 29h3v3h-3zM23 29h1v1h-1zM12 30h1v1h-1zM19 30h3v1h2v1h-1v1h-1v-1h-1v-1h-2zM27 30v1h1v-1zM32 30h2v1h-2zM13 31h1v1h-1zM12 32h1v1h2v1h-3zM19 32h2v1h-2zM9 33h1v1h-1zM32 33h1v1h-1z"/></svg>