<svg xmlns="http://www.w3.org/2000/svg" viewBox="0 0 35 35"><path d="M1 1h7v7h-7zM10 1h1v1h-1zM12 1h1v2h1v1h-1v2h1v3h-1v-2h-1v-3h-1v-1h1zM15 1h1v1h-1zM17 1h1v1h-1zM20 1h3v1h-1v1h-1v-1h-1zM24 1h1v1h-1zM27 1h7v7h-7zM2 2v5h5v-5zM16 2h1v1h-1zM19 2h1v1h-1zM23 2h1v1h-1zM25 2h1v3h-1v1h-2v-2h2zM28 2v5h5v-5zM3 3h3v3h-3zM9 3h1v1h1v1h-1v1h1v1h-1v2h-1zM15 3h1v1h-1zM17 3h1v1h-1zM20 3h1v1h-1zM22 3h1v1h-1zM29 3h3v3h-3zM19 4h1v1h-1zM14 5h4v1h-4zM21 5h1v1h-1zM18 6h3v1h-1v1h-1v-1h-1zM25 6h1v4h-1v1h-2v1h3v-1h1v1h1v1h-1v1h-2v-1h-1v1h-1v-1h-2v1h-1v-1h-2v-1h-3v1h-2v-1h1v-3h2v2h1v-1h1v-1h1v1h1v-2h1v-1h1v1h1v-1h1v2h1zM11 7h1v1h-1zM15 7h1v1h-1zM17 7h1v2h-1zM1 9h1v1h1v-1h5v1h-1v1h-1v3h-1v-1h-1v-1h1v-2h-1v1h-2v1h-1zM12 9h1v1h-1zM21 9v1h2v-1zM27 9h5v1h2v1h-1v2h-2v1h3v1h-1v1h-1v-1h-1v1h1v1h-1v1h1v1h1v1h-1v1h-1v1h1v1h-1v1h1v-1h1v1h1v1h-4v-3h-1v-3h1v1h1v-1h-1v-1h-1v1h-2v-1h1v-1h-1v-1h1v-1h1v1h1v-2h-2v-1h1v-2h1v1h1v-1h-1v-1h-2v1h-1zM7 11h1v1h-1zM19 11v1h3v-1zM2 12h1v1h-1zM8 12h1v2h-2v-1h1zM11 12h1v1h1v3h-1v-2h-1v2h1v2h-1v-1h-1v-1h-1v-1h1v-2h1zM15 13h3v1h-1v1h1v1h-1v1h2v1h-1v1h-1v-1h-2v-1h1v-1h-2v-2h1v1h1v-1h-1zM1 14h1v2h-1zM3 14h2v1h-1v1h-1zM6 14h1v1h1v1h-1v1h1v1h-2zM18 14h2v2h-1v-1h-1zM22 14h1v1h-1zM24 14h1v1h-1zM27 14h1v1h-1zM21 15h1v1h1v-1h1v1h1v1h-1v1h-1v-1h-2zM26 15h1v1h-1zM2 16h1v1h-1zM4 16h1v2h-2v-1h1zM8 16h1v1h-1zM13 16h1v1h-1zM1 17h1v1h-1zM9 17h1v1h-1zM20 17h1v1h1v2h1v1h-2v-2h-1v1h-1v-2h1zM25 17h2v1h-2zM33 17h1v2h-1zM2 18h1v1h-1zM5 18h1v1h2v1h-2v1h2v1h-4v2h1v-1h3v1h-2v1h-2v1h-1v-7h1v2h1zM8 18h1v1h-1zM10 18h1v1h-1zM24 18h1v1h-1zM11 19h2v1h1v2h-1v-1h-2zM15 19h2v1h1v1h-1v1h2v1h1v1h-2v-1h-2v-1h-1zM25 19h2v1h-2zM8 20h2v1h-2zM27 20h1v1h-1zM33 20h1v3h-1zM10 21h1v3h-1zM19 21h1v1h-1zM24 21h1v2h-1zM26 21h1v1h-1zM1 22h1v4h-1zM12 22h1v2h1v1h-2v2h-1v1h-1v-1h-1v-1h-3v-1h3v-1h1v2h1v-2h1zM20 22h3v1h-1v1h1v1h-2v1h1v2h1v1h-2v1h1v2h-1v-1h-1v1h-3v2h-2v-1h1v-3h1v1h1v-1h2v-1h-2v1h-1v-2h1v-1h-1v-3h1v1h1v1h1v-2h1v-1h-1zM27 22h1v1h1v1h-1v1h2v4h1v1h-1v1h-1v1h3v1h-1v1h-4v-3h1v-1h-1v1h-2v2h1v1h-3v-1h-1v-1h1v-1h1v-1h1v-1h-1v-1h-1v-1h2v-2h1v-1h1zM14 23h1v1h-1zM23 23h1v1h-1zM15 24h1v3h-1v-1h-1v-1h1zM23 25h1v1h-1zM13 26h1v1h1v1h-1v1h-1v-1h-1v-1h1zM26 26v3h3v-3zM31 26h3v1h-1v3h1v1h-2v-2h-1zM1 27h7v7h-7zM16 27h1v1h-1zM19 27v1h2v-1zM27 27h1v1h-1zM2 28v5h5v-5zM9 28h1v3h1v1h-2zM15 28h1v2h-1zM3 29h3v3h-3zM11 29h1v1h-1zM23 29h1v1h-1zM13 30h2v1h-2zM12 31h1v1h2v1h-1v1h-2v-1h-1v-1h1zM20 32h1v1h-1zM9 33h1v1h-1zM18 33h1v1h-1zM32 33h1v1h-1z"/></svg>