<svg xmlns="http://www.w3.org/2000/svg" viewBox="0 0 35 35"><path d="M1 1h7v7h-7zM12 1h1v1h-1zM17 1h1v3h-1v-1h-1v-1h1zM19 1h6v1h-2v2h-2v-2h-1v1h-1zM27 1h7v7h-7zM2 2v5h5v-5zM13 2h1v3h-1zM28 2v5h5v-5zM3 3h3v3h-3zM9 3h1v1h1v3h-1v1h1v-1h1v2h-3zM15 3h1v1h-1zM24 3h2v1h-2zM29 3h3v3h-3zM16 4h1v1h1v1h-4v-1h2zM19 4h1v1h-1zM23 4h1v1h-1zM21 5h2v2h-1v-1h-1zM24 5h1v1h-1zM12 6h1v1h-1zM18 6h3v1h-1v1h1v-1h1v1h1v1h-2v1h2v1h-4v1h1v1h-2v1h-1v1h1v1h-1v1h2v1h-1v1h-1v-1h-1v-1h-2v-1h2v-2h-1v-1h1v-1h-1v1h-1v-2h-2v-1h2v-1h1v-2h1v3h-1v1h2v-1h1v-1h1v1h1v-1h-1v-2h-1zM13 7h1v1h-1zM17 7h1v2h-1zM23 7h1v1h-1zM25 7h1v3h-1v-1h-1v-1h1zM1 9h1v1h-1zM3 9h5v1h-2v1h2v1h-1v1h-2v-1h-1v-1h1v-1h-2zM23 9h1v1h-1zM27 9h5v2h1v1h1v1h-3v2h-1v-1h-2v-1h1v-2h1v1h1v-1h-1v-1h-2v2h-1v2h-2v1h-3v-1h1v-1h-2v-1h2v-1h1v1h1v-1h1v-1h1zM2 10h1v1h-1zM8 10h1v1h-1zM10 10h1v1h1v2h-2zM24 10h1v1h-1zM33 10h1v1h-1zM2 12h1v2h1v1h-2zM7 13h2v1h3v1h-1v1h-1v-1h-1v1h-2v-1h1v-1h-1zM12 13h1v1h-1zM20 13h1v1h-1zM14 14h1v1h-1zM19 14h1v2h-1zM27 14h1v1h-1zM32 14h2v1h-1v1h-1v1h-2v1h-1v1h-1v2h-1v-1h-2v-1h2v-1h1v-1h-1v1h-1v-1h-2v-1h1v-1h2v1h1v-1h1v1h2v-1h1zM1 15h1v2h-1zM4 15h2v1h-2zM13 15h1v1h-1zM21 15h1v1h1v1h-2zM6 16h1v1h-1zM9 16h1v2h-1zM2 17h2v1h3v1h1v-1h1v1h1v1h-1v1h-1v-1h-2v-1h-1v2h-2v-1h-1v-1h1v-1h-1zM7 17h1v1h-1zM12 17h2v1h-1v2h-1zM20 17h1v1h2v1h1v2h-3v-2h-1zM23 17h1v1h-1zM33 17h1v2h-1zM1 18h1v1h-1zM14 18h1v3h2v1h1v1h-2v1h-1v-1h-1zM24 18h1v1h-1zM30 18h2v1h1v2h-2v1h-3v-1h1v-2h1v1h1v-1h-1zM16 19h1v1h-1zM19 19h1v1h-1zM1 20h1v1h1v1h-1v4h-1zM10 20h2v2h-1v-1h-1zM17 20h1v1h-1zM6 21h2v1h-1v1h2v-1h1v1h1v1h1v1h-2v-1h-5v1h-1v-2h2zM19 21h1v1h-1zM26 21h1v1h-1zM33 21h1v2h-1zM3 22h1v1h-1zM20 22h2v1h2v1h-1v1h-1v3h1v1h-2v1h1v1h1v1h1v1h3v1h-4v-1h-1v-1h-1v-1h-1v1h-3v2h-4v-1h1v-2h1v1h1v-1h-1v-1h-1v-1h1v-2h2v1h-1v2h1v1h2v-1h1v-1h-2v1h-1v-2h1v-1h-1v-3h1v1h1v3h2v-1h-1v-2h-1v-2h1v1h1v-1h-1zM24 22h1v1h-1zM27 22h1v1h-1zM12 23h2v2h-1v-1h-1zM25 23h1v1h-1zM28 23h5v1h1v1h-4v-1h-2zM26 24h2v1h2v4h1v2h-2v1h2v-1h1v2h-2v1h-2v-1h-1v-1h-2v-1h1v-1h-1v-1h-1v-1h-1v-3h1v2h1v-2h1zM3 25h1v1h-1zM5 25h1v1h-1zM7 25h1v1h-1zM14 25h2v1h-1v1h-1v1h-2v-2h2zM9 26h1v1h-1zM26 26v3h3v-3zM31 26h1v1h1v3h1v1h-2v-2h-1zM33 26h1v1h-1zM1 27h7v7h-7zM27 27h1v1h-1zM2 28v5h5v-5zM9 28h1v1h1v-1h1v2h-2v2h-1zM3 29h3v3h-3zM23 29h1v1h-1zM27 30v1h1v-1zM12 31h1v1h-1zM11 32h1v1h-1zM20 32h1v1h-1zM9 33h2v1h-2zM18 33h1v1h-1zM32 33h1v1h-1z"/></svg>