<svg xmlns="http://www.w3.org/2000/svg" viewBox="0 0 35 35"><path d="M1 1h7v7h-7zM11 1h2v1h-1v1h-1zM17 1h1v1h-1zM20 1h3v2h1v1h1v-2h1v3h-1v1h-1v2h-1v-4h-2v-1h1v-1h-2zM24 1h1v1h-1zM27 1h7v7h-7zM2 2v5h5v-5zM16 2h1v1h-1zM19 2h1v1h-1zM28 2v5h5v-5zM3 3h3v3h-3zM9 3h2v1h-1v5h-1zM15 3h1v1h-1zM17 3h1v1h-1zM29 3h3v3h-3zM12 4h2v2h-1v-1h-1zM19 4h1v1h-1zM15 5h3v1h-3zM21 5h1v1h-1zM11 6h1v2h-1zM14 6h1v1h-1zM18 6h3v1h-1v1h-1v-1h-1zM25 6h1v2h-1zM13 7h1v2h1v-2h1v3h-1v1h2v1h-2v1h-2v-2h1v-1h-2v-2h1zM17 7h1v2h-1zM21 7h1v1h1v1h-1v2h1v1h4v2h-1v-1h-2v1h-1v-1h-5v-2h-1v-1h1v-1h1v3h2v-1h-1v-3h1zM1 9h1v1h-1zM3 9h5v1h-3v1h-1v1h-1v1h-2v-2h1v-1h1zM10 9h1v1h1v1h-1v1h-1v-1h-2v-1h2zM23 9h1v1h1v1h-2zM27 9h5v2h1v2h-2v1h2v-1h1v2h-1v1h-1v-1h-1v1h1v1h-1v1h2v-1h1v2h-1v2h-2v1h-3v-1h1v-2h1v1h1v-1h-1v-1h-1v1h-1v2h-1v-3h1v-1h2v-3h-2v-1h1v-2h1v1h1v-1h-1v-1h-2v2h-1zM33 10h1v1h-1zM6 11h2v1h-2zM5 12h1v3h-2v-1h-1v-1h2zM8 12h1v1h-1zM7 13h1v1h-1zM9 13h4v1h2v1h1v-1h-1v-1h3v1h-1v1h2v-1h1v2h-3v2h-1v-1h-2v1h-1v-1h-1v1h-1v1h-3v-1h-1v-1h2zM10 14v2h1v-1h1v1h2v-1h-2v-1zM22 14h1v1h-1zM24 14h1v1h-1zM27 14h1v1h-1zM6 15h2v1h-1v1h-1zM21 15h1v1h1v1h-1v2h-2v1h-1v-2h1v-1h1zM23 15h1v1h-1zM25 15h1v2h1v1h-2v1h-2v-2h1v-1h1zM1 16h1v1h-1zM3 16h1v1h1v1h1v2h1v1h1v1h-2v-1h-1v2h-2v-2h1v-1h-1v1h-2v-1h1v-1h2v-1h-2v-1h1zM27 16h1v1h-1zM18 17h1v1h-1zM1 18h1v1h-1zM12 18h1v1h-1zM15 18h1v1h1v-1h1v3h-1v-1h-1v1h-1v-1h-1v-1h1zM7 19h1v1h-1zM22 19h1v1h2v-1h1v2h-1v2h-1v-2h-3v-1h1zM8 20h1v1h-1zM12 20h1v2h2v3h1v1h-2v-1h-1v1h-2v5h-1v1h-1v-4h1v-1h-1v-4h-1v-1h2v2h2v-1h-1v-2h1zM19 21h2v1h2v3h-2v1h1v1h-3v1h1v1h-2v1h-1v1h2v1h-2v2h-1v-1h-1v1h-1v-1h-1v-1h1v-1h-1v1h-1v1h-2v-1h1v-1h1v-4h1v3h3v-1h-1v-2h2v-1h1v-1h1v1h1v-2h1v-1h-1v-1h-1zM26 21h1v1h1v1h3v-1h1v1h1v1h1v1h-4v4h1v3h1v1h-2v1h-3v-1h1v-1h-1v1h-1v-1h-2v1h2v1h-3v-1h-1v-1h1v-1h3v-1h-1v-1h-1v-1h-1v-1h2v-2h3v-1h-1v-1h-1zM1 22h1v4h-1zM16 22h2v1h-2zM33 22h1v1h-1zM6 23h2v1h-2zM13 23v1h1v-1zM18 23h2v1h-2zM25 23h1v1h-1zM3 24h3v2h-1v-1h-2zM17 24h1v1h-1zM24 24h1v1h-1zM7 25h1v1h-1zM23 25h1v1h-1zM26 26v3h3v-3zM31 26h3v1h-1v2h-2zM1 27h7v7h-7zM27 27h1v1h-1zM2 28v5h5v-5zM21 28h2v1h-2zM3 29h3v3h-3zM23 29h1v1h-1zM33 29h1v2h-2v-1h1zM19 30h3v2h-1v-1h-2zM27 30v1h1v-1zM29 31v1h1v-1zM19 32h2v1h-2zM9 33h1v1h-1zM12 33h1v1h-1zM18 33h1v1h-1zM32 33h1v1h-1z"/></svg>