<svg xmlns="http://www.w3.org/2000/svg" viewBox="0 0 35 35"><path d="M1 1h7v7h-7zM9 1h2v1h-1v1h-1zM15 1h1v2h1v-2h1v1h1v1h-1v1h-1v1h-1v-1h-2v-1h1zM19 1h6v3h-1v-1h-2v-1h-3zM27 1h7v7h-7zM2 2v5h5v-5zM11 2h1v1h1v1h-2v1h1v1h-2v-1h-1v-1h1v-1h1zM13 2h1v1h-1zM28 2v5h5v-5zM3 3h3v3h-3zM19 3h1v5h1v1h-1v1h2v-1h1v1h1v-1h-1v-2h1v1h1v4h-2v-1h-3v1h-1v-1h-1v1h-1v-2h-1v1h-1v1h-2v-3h-2v-2h1v1h1v-1h1v3h1v-1h1v-1h1v-1h-1v1h-1v-1h-1v-1h3v-1h1v1h1zM21 3h1v1h-1zM29 3h3v3h-3zM13 4h1v1h-1zM23 4h1v1h-1zM25 5h1v3h-1zM9 7h1v2h-1zM18 7v1h1v-1zM21 7h1v1h-1zM1 9h1v2h1v-2h2v2h3v1h-2v1h-1v1h-1v1h-1v3h-1v-1h-1v-1h1v-3h-1zM6 9h3v1h-3zM10 9h1v2h-2v-1h1zM27 9h1v2h-1zM30 9h1v1h1v1h-1v3h-2v-1h1v-1h-1v1h-1v-2h2zM32 9h2v4h-1v-1h-1v-1h1v-1h-1zM11 11h1v2h-1v1h2v1h-1v1h1v1h-1v2h1v1h-2v2h-1v-2h-3v-1h3v-2h1v-1h-2v-2h1v-2h1zM3 12v1h1v-1zM8 12h1v1h-1zM16 12h1v1h1v1h-2v2h1v1h-3v-1h1v-3h1zM18 12h1v1h-1zM20 12h1v2h-1zM25 12h2v2h-1v-1h-1zM6 13h2v1h-1v1h-1zM13 13h1v1h-1zM23 13h1v2h-1zM32 13h1v2h-1v3h-1v1h-1v2h-3v-3h-1v-1h-2v1h-2v1h-1v-1h-2v-2h1v1h1v-1h-1v-1h1v-1h1v2h4v-1h1v2h1v3h1v-4h1v-1h1v-1h1zM25 14h1v1h-1zM28 14h1v2h-1zM4 15h2v1h-1v1h1v1h-2zM7 15h1v1h-1zM13 15h1v1h-1zM18 15h1v1h-1zM6 16h1v1h-1zM7 17h2v1h-2zM13 17h1v1h1v1h1v-1h1v3h1v1h1v1h1v1h-2v-1h-1v2h-1v-1h-1v-1h-1v-2h1v1h1v-1h-1v-1h-1v-1h-1zM17 17h1v1h-1zM1 18h1v1h-1zM3 18h1v1h2v1h1v1h-2v-1h-1v1h-1v-1h-1v-1h1zM24 18h2v1h-2zM32 18h2v1h-1v1h-2v-1h1zM19 19h1v2h-2v-1h1zM23 19h1v3h-1v1h-3v-2h1v1h1v-1h1zM1 20h1v1h-1zM13 20h1v1h-1zM7 21h2v1h1v1h1v-1h1v1h1v1h2v1h-2v1h-1v1h-1v-2h1v-1h-1v1h-2v1h-6v-1h-1v-1h1v-1h-2v-1h5v2h-1v-1h-1v1h1v1h1v-1h1v1h1v-1h-1v-1h1v-1h-1zM12 21h1v1h-1zM30 21h3v1h-1v1h1v-1h1v3h-1v-1h-2v-2h-1zM24 22h1v1h1v1h-1v1h-1v1h-1v-2h1zM27 22h1v1h2v1h1v1h-1v1h1v1h-1v3h-4v1h-4v2h-1v1h-4v-1h1v-1h-2v-1h1v-4h-1v1h-1v-3h1v1h1v-1h2v1h-1v1h2v-2h1v2h1v-1h1v3h1v-2h1v-2h2zM21 24h1v1h-1zM1 25h1v1h-1zM9 26h1v2h2v1h1v2h1v2h1v-1h1v2h-3v-1h-1v-2h-2v1h-1v-2h1v-1h-1zM13 26h1v1h-1zM26 26v3h3v-3zM32 26h1v1h-1zM1 27h7v7h-7zM12 27h1v1h-1zM27 27h1v1h-1zM2 28v5h5v-5zM14 28h1v1h-1zM20 28v2h-1v3h1v-1h1v-3h1v-1zM31 28h1v2h-1zM33 28h1v1h-1zM3 29h3v3h-3zM15 29h1v2h-2v-1h1zM33 30h1v1h-1zM27 31h2v1h-2zM23 32h3v1h-1v1h-1v-1h-1zM29 32h1v1h-1zM33 32h1v1h-1zM9 33h2v1h-2zM22 33h1v1h-1zM26 33h1v1h-1zM30 33h2v1h-2z"/></svg>