<svg xmlns="http://www.w3.org/2000/svg" viewBox="0 0 35 35"><path d="M1 1h7v7h-7zM10 1h4v2h-1v-1h-2v1h-1zM17 1h1v1h-1zM19 1h4v1h-3v1h-1zM24 1h1v1h-1zM27 1h7v7h-7zM2 2v5h5v-5zM16 2h1v1h-1zM28 2v5h5v-5zM3 3h3v3h-3zM9 3h1v1h1v-1h1v6h-3zM15 3h1v1h-1zM20 3h1v2h-2v-1h1zM22 3h1v1h-1zM25 3h1v1h-1zM29 3h3v3h-3zM23 4h1v1h1v1h-1v2h-1v-2h-2v-1h2zM10 5v3h1v-3zM13 5h1v3h-1zM15 5h4v2h-1v-1h-2v5h1v1h-2v1h-1v-1h-3v1h-1v-3h2v1h2v-1h-2v-1h3zM20 6h1v1h-1zM25 6h1v4h-1v1h-3v1h1v1h-5v1h-1v1h1v1h-1v2h-1v1h-1v-2h-2v-1h1v-2h1v2h1v-2h-1v-1h2v-1h1v-1h-1v-1h1v-1h1v3h2v-1h-1v-3h1v-1h1v1h1v1h-1v1h1v-1h2zM17 7h1v2h-1zM19 7h1v1h-1zM1 9h1v1h-1zM3 9h5v1h-2v1h-1v-1h-1v1h-1v1h1v1h1v-1h2v1h-1v1h-1v3h-1v-2h-2v-1h1v-1h-1v1h-1v-3h1v-1h1zM27 9h5v2h1v1h-1v1h-1v2h1v-2h1v-1h1v3h-1v1h-1v1h-2v-1h-1v1h1v1h-1v1h-2v-1h1v-3h2v-1h-2v-1h1v-2h1v1h1v-1h-1v-1h-2v1h-1v1h-1v-2h1zM8 10h1v3h-1v-1h-1v-1h1zM33 10h1v1h-1zM24 12h2v1h1v1h1v1h-2v-1h-1v-1h-1zM27 12h1v1h-1zM7 13h1v1h-1zM11 13h1v1h-1zM23 13h1v1h-1zM6 14h1v1h1v1h-1v1h-1zM9 14h1v1h-1zM12 14h1v2h-1v1h-1v-1h-1v-1h2zM18 14h2v3h-1v-2h-1zM22 14h1v3h-1v2h-2v1h-1v-2h1v-1h1v-2h1zM24 14h1v1h-1zM1 15h1v2h2v1h-3zM25 15h1v1h1v2h-1v-1h-1zM8 16h2v1h1v1h-1v1h1v-1h1v2h-5v-1h1v-1h1v-1h-1zM5 17h1v1h1v1h-1v1h1v1h2v2h1v-1h1v2h-1v1h-1v-1h-2v-1h1v-1h-2v-1h-1v-1h-1v1h-1v-1h-2v-1h4zM7 17h1v1h-1zM12 17h1v1h-1zM18 17h1v1h-1zM23 17h2v2h-1v2h-2v-1h1zM33 17h1v2h-1zM17 18h1v3h-2v1h-1v2h-2v-1h-1v-2h1v1h1v-1h1v-1h1v-1h1zM30 18h2v1h1v2h-2v1h-3v-1h1v-2h1v1h1v-1h-1zM13 19h2v1h-2zM25 19h2v3h-1v-2h-1zM20 20h1v1h-1zM4 21h1v1h-1zM19 21h1v1h-1zM24 21h1v2h-1zM1 22h1v4h-1zM3 22h1v1h-1zM5 22h1v2h1v1h1v1h-5v-1h2v-1h-1v-1h1zM16 22h2v1h-2zM20 22h3v1h-1v1h1v1h-2v1h1v2h1v1h-2v1h2v1h-1v1h-1v-1h-1v1h-3v1h2v1h-4v-1h-1v-1h2v-3h2v1h-1v1h2v-1h1v-1h-2v-1h-2v1h-1v-1h-2v-1h4v-1h1v-1h1v1h1v-1h-1v-1h-1v-1h2v1h1v-1h-1zM27 22h1v1h2v1h1v-1h2v1h1v1h-3v1h-1v3h1v1h-1v1h-1v1h2v-1h1v2h-2v1h-7v-1h1v-1h1v1h1v-2h-2v-1h1v-1h-1v-1h-1v-3h1v2h1v-3h1v1h2v-1h-2v-1h1zM33 22h1v1h-1zM23 23h1v1h-1zM11 24h1v1h2v1h-3zM17 24h1v1h-1zM9 26h2v1h-2zM26 26v3h3v-3zM31 26h3v1h-1v1h1v1h-1v1h1v1h-2v-2h-1zM1 27h7v7h-7zM11 27h1v1h1v2h-1v1h-1v1h-2v-4h2zM19 27v1h2v-1zM27 27h1v1h-1zM2 28v5h5v-5zM3 29h3v3h-3zM10 29v1h1v-1zM14 29h1v2h-1zM23 29h1v1h-1zM27 30v1h1v-1zM12 31h2v1h-1v1h-1v1h-3v-1h2v-1h1zM20 32h1v1h-1zM22 32h1v1h-1zM32 33h1v1h-1z"/></svg>