<svg xmlns="http://www.w3.org/2000/svg" viewBox="0 0 35 35"><path d="M1 1h7v7h-7zM10 1h4v2h-1v-1h-2v1h-1zM17 1h1v2h-1v1h-2v-1h1v-1h1zM19 1h4v1h1v3h1v1h-2v1h-1v-1h-1v-1h2v-1h-1v-2h-2v1h-1zM24 1h1v1h-1zM27 1h7v7h-7zM2 2v5h5v-5zM28 2v5h5v-5zM3 3h3v3h-3zM9 3h1v2h1v1h-1v3h-1zM12 3h1v1h1v1h-2zM25 3h1v2h-1zM29 3h3v3h-3zM19 4h1v1h-1zM14 5h5v1h2v1h-1v1h1v-1h1v1h1v-1h1v3h-1v-1h-1v1h1v1h-1v1h2v2h1v1h-2v-2h-2v-2h-2v1h1v1h-2v1h-1v-2h1v-1h-1v-4h1v2h1v1h1v-1h-1v-2h-1v-1h-3v1h-1v2h-3v-3h3zM25 6h1v2h-1zM12 7v1h1v-1zM15 7h1v1h-1zM1 9h1v1h-1zM3 9h5v1h-1v1h1v1h-1v1h-1v-1h-1v-1h1v-1h-1v1h-1v1h-1zM14 9h2v2h1v1h-2v1h-1v1h-1v-1h-1v1h1v1h-1v1h-1v-2h-1v-1h1v-1h1v-2h2zM25 9h1v1h-1zM27 9h5v1h2v1h-1v1h-1v1h-1v1h3v1h-1v1h-1v1h-1v1h2v-1h1v2h-1v3h-1v-1h-1v1h-2v-3h1v1h1v-1h-1v-1h-1v1h-1v1h-1v-1h-1v-1h-1v-1h1v-1h2v-1h1v1h1v-2h-2v-1h1v-2h1v1h1v-1h-1v-1h-2v1h-2v-1h1zM9 10h1v2h-1zM24 10h1v1h-1zM2 12h1v1h-1zM25 12h3v1h-1v1h1v1h-2v-1h-1zM33 12h1v1h-1zM1 13h1v1h1v1h1v-1h1v-1h1v1h1v1h-1v2h2v-1h3v1h-1v1h1v1h-3v-1h-1v1h1v1h-1v1h2v-1h2v1h1v1h-7v1h-2v-1h1v-1h1v-1h1v-2h-3v1h-2v-1h1v-2h-1zM7 13h1v1h-1zM15 13h1v1h-1zM16 14h1v1h2v-1h1v3h-1v-1h-2v2h-1v-1h-2v-1h1v-1h1zM7 15h1v1h-1zM21 15h1v1h1v1h-1v2h-2v1h-1v-2h1v-1h1zM12 16h1v1h1v1h2v1h-1v1h-2v1h-1v-2h1v-1h-2v-1h1zM24 16h1v1h-1zM18 17h1v1h-1zM23 17h1v1h-1zM27 17v1h1v-1zM17 18h1v3h-1v-1h-1v-1h1zM24 18h1v1h-1zM3 19h2v1h-2zM1 20h1v1h1v1h-1v4h-1zM15 20h1v1h1v1h2v1h-3v1h-1zM20 20h1v1h-1zM22 20h1v1h-1zM25 20h1v1h-1zM19 21h1v1h-1zM26 21h1v1h-1zM12 22h2v1h-2zM20 22h2v1h1v1h4v1h1v-2h2v1h-1v1h1v-1h1v-2h1v1h1v1h1v1h-3v1h-1v3h1v1h3v1h-2v2h-2v1h-2v-1h-1v-1h-4v-1h1v-1h1v-1h-1v-1h-1v-1h2v-1h-2v-1h-2v1h1v2h-1v-1h-1v-2h-1v-2h1v1h1v-1h-1zM24 22h1v1h-1zM27 22h1v1h-1zM33 22h1v1h-1zM5 23h4v1h2v1h-2v1h-3v-1h2v-1h-3zM4 24h1v1h-1zM13 24h1v2h1v1h-1v1h-2v-1h1zM17 24h1v1h1v3h1v1h-2v-1h-1v1h-1v-2h1zM3 25h1v1h-1zM11 25h1v2h-1zM9 26h1v1h-1zM26 26v3h3v-3zM31 26h1v1h1v1h-1v1h-1zM33 26h1v1h-1zM1 27h7v7h-7zM27 27h1v1h-1zM2 28v5h5v-5zM9 28h1v4h-1zM11 28h1v1h-1zM22 28h1v1h-1zM3 29h3v3h-3zM17 29h1v1h-1zM23 29h1v1h-1zM12 30h3v1h-3zM16 30h1v1h1v1h-1v2h-1v-1h-1v1h-1v-1h-1v-1h3zM19 30h3v2h-1v-1h-2zM27 30v1h1v-1zM11 31h1v2h-1v1h-2v-1h1v-1h1zM29 31v1h1v-1zM20 32h1v1h-1zM22 32h1v1h-1zM18 33h1v1h-1zM23 33h3v1h-3zM32 33h1v1h-1z"/></svg>