<svg xmlns="http://www.w3.org/2000/svg" viewBox="0 0 35 35"><path d="M1 1h7v7h-7zM11 1h1v1h1v2h-1v2h-1v-1h-1v1h1v1h-1v2h-1v-6h2zM13 1h1v1h-1zM17 1h1v2h-1v1h-2v-1h1v-1h1zM19 1h4v1h-3v1h-1zM24 1h1v1h-1zM27 1h7v7h-7zM2 2v5h5v-5zM23 2h1v1h1v1h-1v1h-1v-1h-1v-1h1zM28 2v5h5v-5zM3 3h3v3h-3zM20 3h1v1h-1zM29 3h3v3h-3zM13 4h1v1h-1zM19 4h1v1h-1zM15 5h4v1h-4zM21 5h1v1h-1zM24 5h1v1h-1zM12 6h3v1h-1v2h-3v-2h1v1h1v-1h-1zM20 6h1v1h-1zM23 6h1v3h1v-2h1v3h-1v1h-1v1h-1v-1h-3v-2h-1v-2h1v1h1v-1h1v1h1zM15 7h1v4h1v1h-2v1h-1v-1h-2v-2h1v1h1v-2h1zM17 7h1v2h1v3h2v2h-1v-1h-2v-2h-1zM1 9h1v1h1v1h-2zM3 9h5v1h-1v1h1v1h-1v1h1v-1h1v1h1v1h-4v2h-1v1h1v-1h1v1h2v1h-3v2h1v1h-2v-2h-2v-1h1v-2h-1v2h-1v1h-1v-2h1v-1h-1v-1h1v-1h1v-1h2v-2h-1v-1h-1zM21 9v1h2v-1zM27 9h5v2h1v1h1v1h-1v1h1v1h-1v1h-1v1h-1v1h1v1h1v1h-1v1h-1v1h-2v-3h1v1h1v-1h-1v-1h-1v1h-3v-1h-1v-1h1v-1h-1v-1h1v-1h-1v1h-2v-2h3v-2h1v1h1v1h-1v1h1v1h-1v3h1v-3h1v1h1v-2h-1v-3h1v1h1v-1h-1v-1h-2v1h-1zM33 10h1v1h-1zM10 11h1v1h-1zM1 12h2v1h-2zM22 12h1v1h-1zM11 13h1v1h-1zM15 13h3v1h-1v1h1v1h-1v2h-1v-2h-1v-1h1v-1h-1zM31 13v1h1v-1zM4 14v1h1v-1zM10 14h1v1h-1zM12 14h1v1h-1zM18 14h2v3h-1v-2h-1zM7 15h1v1h-1zM11 15h1v1h-1zM13 15h1v2h-1v1h-1v-2h1zM21 15h1v1h1v1h-2zM9 16h2v2h-1v-1h-1zM18 17h1v1h-1zM20 17h1v1h1v1h1v2h-1v-1h-1v-1h-1v1h-1v-2h1zM23 17h1v1h1v1h-2zM33 17h1v2h-1zM11 18h1v1h-1zM13 18h3v1h-1v1h-1v1h1v1h-1v5h-2v1h-1v1h1v-1h1v4h-2v-1h1v-1h-2v2h-1v-4h1v-1h1v-1h-1v-1h2v1h1v-1h-1v-1h1zM17 18h1v1h-1zM7 19h4v2h-1v2h-1v1h-3v-2h1v1h1v-1h1v-2h-2zM16 19h1v1h-1zM25 19h1v1h-1zM3 20h1v1h-1zM17 20h1v1h-1zM20 20h1v2h2v1h1v1h-1v1h-2v1h1v2h1v1h-2v-2h-2v1h1v1h-2v-1h-1v1h-1v-1h-2v-1h1v-1h1v1h1v-1h1v-1h1v1h1v-2h1v-1h-1v-1h-1v-1h1zM26 20h2v1h-1v1h-2v1h-1v-2h2zM33 20h1v1h-1zM1 21h2v1h1v1h-2v3h-1zM4 21h1v1h-1zM7 21h1v1h-1zM16 21h1v1h2v2h-1v-1h-2zM27 22h1v1h-1zM33 22h1v1h-1zM10 23h1v1h-1zM15 23h1v2h-1zM25 23h1v1h-1zM28 23h1v1h-1zM30 23h3v1h1v1h-4zM5 24h1v2h-2v-1h1zM9 24h1v1h-1zM17 24h1v1h-1zM7 25h2v1h-2zM23 25h1v1h-1zM25 25h5v4h1v1h3v1h-5v1h3v1h-2v1h-7v-1h-1v-1h-1v-1h-3v-1h4v1h1v1h1v-1h1v-2h-1v-1h-1v-1h2zM9 26h1v1h-1zM26 26v3h3v-3zM31 26h1v1h1v1h-1v1h-1zM33 26h1v1h-1zM1 27h7v7h-7zM27 27h1v1h-1zM2 28v5h5v-5zM33 28h1v1h-1zM3 29h3v3h-3zM17 29h1v1h-1zM23 29h1v1h-1zM14 30h1v1h1v-1h1v1h1v1h-1v1h2v1h-3v-1h-3v-1h1zM27 30v1h-1v1h-1v1h1v-1h1v1h1v-1h-1v-1h1v-1zM10 32h1v2h-2v-1h1zM19 32h2v1h-2zM12 33h1v1h-1zM32 33h1v1h-1z"/></svg>