<svg xmlns="http://www.w3.org/2000/svg" viewBox="0 0 35 35"><path d="M1 1h7v7h-7zM15 1h1v1h-1zM17 1h1v1h-1zM19 1h3v1h1v2h-2v-2h-1v1h-1zM23 1h2v1h-2zM27 1h7v7h-7zM2 2v5h5v-5zM10 2h1v1h-1zM13 2h1v1h-1zM16 2h1v1h-1zM28 2v5h5v-5zM3 3h3v3h-3zM9 3h1v1h2v1h-1v1h-1v3h-1zM12 3h1v1h-1zM15 3h1v1h-1zM25 3h1v1h-1zM29 3h3v3h-3zM19 4h2v1h-2zM23 4h1v1h-1zM13 5h5v1h-4v3h2v1h-1v1h2v1h-2v1h-1v-1h-1v-1h1v-1h-1v-1h-1v-1h1v-1h-1v1h-1v-2h2zM21 5h2v1h-2zM24 5h1v1h-1zM18 6h3v1h-1v1h-1v-1h-1zM15 7h1v1h-1zM17 7h1v2h1v3h1v1h-2v1h-1v1h1v1h-1v2h-1v1h-3v-1h1v-1h2v-3h-1v-1h2v-1h1v-1h-1zM21 7h1v1h1v-1h1v3h1v1h-2v-2h-2v1h1v1h-2v-3h1zM25 7h1v1h-1zM1 9h1v1h-1zM3 9h5v1h-3v1h-1v1h-1zM10 9h1v1h-1zM27 9h5v2h1v2h-2v1h-3v-1h1v-2h1v1h1v-1h-1v-1h-2v3h-1v1h-1v-1h-1v-1h1v-1h1zM8 10h2v1h1v-1h1v3h2v1h-3v-2h-1v1h-1v1h-3v-1h2v-1h-1v-1h1zM33 10h1v1h-1zM22 11h1v1h1v2h-1v-1h-2v-1h1zM1 12h2v1h-2zM5 12h1v1h-1zM4 13h1v1h1v1h3v2h-1v-1h-2v1h-1v-2h-3v-1h2zM9 14h1v1h-1zM19 14h1v2h-1zM22 14h1v1h1v3h1v1h-1v1h1v-1h2v1h-1v1h1v1h1v2h3v-1h2v1h1v1h-4v4h1v1h3v1h-2v2h-1v1h-3v-2h-2v-2h-1v-1h-1v-1h-1v-3h1v1h1v-2h1v1h1v-2h-1v-1h-1v-1h-3v-1h1v-1h-1v1h-1v-1h-1v1h-1v-2h1v-1h1v-2h1zM24 14h1v1h-1zM27 14h1v1h3v1h1v1h-2v-1h-1v1h1v1h-1v1h-2v-1h1v-1h-1zM32 14h2v1h-1v1h-1zM1 15h1v2h1v2h-2zM11 16h3v1h-2v2h1v1h-1v2h1v1h-1v1h-1v2h-1v1h-1v-1h-2v-1h1v-1h1v1h1v-2h1v-2h-1v2h-2v-1h-1v1h1v1h-2v2h-1v-1h-1v-2h-2v3h-1v-4h1v-1h-1v-1h4v1h-2v1h2v-1h4v-2h1v1h1v-2h-1v-1h1zM7 17h1v1h-1zM18 17h1v1h-1zM22 17v1h1v-1zM25 17h2v1h-2zM33 17h1v2h-1v2h1v2h-1v-1h-1v-1h-1v2h-1v-1h-2v-1h1v-2h1v1h1v-1h-1v-1h3zM5 18h2v1h1v1h-2v-1h-1zM8 18h1v1h-1zM17 18h1v2h-2v-1h1zM13 20h3v1h-3zM20 20h1v2h2v1h-1v1h1v1h-2v1h1v2h-1v-1h-2v1h1v1h-2v-2h-1v-3h1v1h1v1h1v-1h-1v-1h2v-1h-1v-1h-1v-1h1zM16 21h1v1h2v1h-3zM14 22h1v1h-1zM24 22h1v1h-1zM15 23h1v4h1v1h-4v-2h1v1h1zM23 23h1v1h-1zM12 24h2v1h-2zM3 25h1v1h-1zM11 26h1v2h-1zM26 26v3h3v-3zM31 26h1v1h1v1h-1v1h-1zM33 26h1v1h-1zM1 27h7v7h-7zM27 27h1v1h-1zM2 28v5h5v-5zM9 28h2v1h-1v1h1v1h-1v1h-1zM22 28h1v1h-1zM33 28h1v1h-1zM3 29h3v3h-3zM11 29h1v1h-1zM13 29h5v1h-1v1h1v-1h2v-1h1v1h2v1h-1v1h-1v-1h-2v1h-2v2h-1v-4h-1v1h-1v-1h-1zM23 29h1v1h-1zM12 30h1v1h-1zM27 30v1h1v-1zM13 31h1v1h-1zM23 31h1v2h3v1h-4v-1h-1v-1h1zM29 31v1h1v-1zM11 32h1v1h-1zM19 32h2v1h-2zM9 33h1v1h-1zM12 33h2v1h-2zM18 33h1v1h-1zM21 33h1v1h-1zM32 33h1v1h-1z"/></svg>