<svg xmlns="http://www.w3.org/2000/svg" viewBox="0 0 35 35"><path d="M1 1h7v7h-7zM10 1h2v1h-2zM13 1h1v2h-2v-1h1zM15 1h1v1h-1zM17 1h1v3h-1v-1h-1v-1h1zM20 1h5v1h-5zM27 1h7v7h-7zM2 2v5h5v-5zM19 2h1v1h-1zM28 2v5h5v-5zM3 3h3v3h-3zM9 3h1v1h4v1h-1v1h-1v-1h-1v1h1v2h-1v-1h-1v2h-1zM15 3h1v1h-1zM22 3h2v2h-1v-1h-1zM29 3h3v3h-3zM16 4h1v1h1v1h-3v-1h1zM19 4h2v1h-2zM21 5h1v1h-1zM24 5h1v1h-1zM13 6h1v2h-1zM20 6h1v1h-1zM25 6h1v3h-1zM15 7h1v4h1v-4h1v2h1v1h1v-2h1v-1h1v1h1v1h-2v1h2v1h-4v1h2v1h-3v-1h-3v1h-1v-1h-1v-1h-1v2h2v1h-1v2h1v1h-1v1h-1v-1h-3v-1h-2v-1h1v-1h2v2h2v-1h-1v-3h-1v-1h1v-1h1v-2h1v1h2zM19 7h1v1h-1zM23 7h1v1h-1zM1 9h1v1h1v-1h5v1h-1v1h-1v-1h-2v1h-3zM23 9h2v2h-1v-1h-1zM27 9h5v2h1v2h-2v1h3v1h-1v1h-1v-1h-1v1h1v1h-2v-1h-1v-1h1v-1h-1v-3h1v1h1v-1h-1v-1h-2v1h-1v1h-1v-2h1zM8 10h1v1h-1zM33 10h1v1h-1zM4 11h2v1h-1v1h-1zM7 11h1v1h-1zM23 11h1v1h-1zM9 12h1v1h-1zM22 12h1v1h-1zM24 12h2v1h-2zM6 13h2v1h-2zM15 13h3v1h-1v1h1v1h-1v1h2v1h-1v1h-1v-1h-1v-4h-1zM23 13h1v1h-1zM26 13h1v1h-1zM3 14h3v3h-1v-1h-3v-1h1zM14 14h1v1h-1zM19 14h1v1h-1zM22 14h1v1h-1zM24 14h1v1h-1zM27 14h1v2h-1zM21 15h1v1h1v-1h1v2h1v2h-1v-1h-1v-1h-2zM25 15h1v1h1v2h1v-2h1v1h1v1h-1v1h-1v1h-2v-3h-1zM1 16h1v4h1v1h-1v1h1v1h-1v3h-1zM4 17h1v1h-1zM6 17h2v1h-1v1h1v1h-2zM14 17h1v1h-1zM20 17h1v1h1v2h-1v-1h-1zM33 17h1v2h-1zM3 18h1v1h-1zM8 18h1v1h-1zM30 18h2v1h1v1h-1v1h-1v1h1v1h1v1h1v1h-4v-1h1v-1h-1v-1h-1v-3h1v1h1v-1h-1zM9 19h6v1h-1v1h-1v-1h-1v1h-1v-1h-2zM16 19h1v1h-1zM19 19h1v1h-1zM22 20h1v1h-1zM24 20h2v1h-2zM33 20h1v1h-1zM3 21h1v1h-1zM5 21h1v1h-1zM7 21h1v1h-1zM9 21h1v1h2v2h-1v-1h-3v-1h1zM15 21h1v1h-1zM19 21h1v1h-1zM26 21h1v1h-1zM32 21h1v1h-1zM4 22h1v1h-1zM13 22h2v1h1v1h-1v1h-1v1h-1v-2h1v-1h-1zM16 22h3v1h-3zM20 22h3v1h-1v1h2v1h1v-1h1v-1h1v1h2v1h1v4h1v1h1v-1h-1v-3h3v1h-1v1h1v1h-1v1h1v1h-2v2h-1v1h-3v-1h-1v-2h1v-1h-1v1h-1v1h-2v-2h1v-1h-1v-1h-1v-1h1v-1h-1v-1h-2v1h1v2h1v1h-2v-2h-1v-2h-1v-2h1v1h1v-1h-1zM24 22h1v1h-1zM27 22h1v1h-1zM33 22h1v1h-1zM5 23h3v1h-3zM29 23h1v1h-1zM10 24h1v1h-1zM17 24h1v1h-1zM3 25h2v1h-2zM7 25h1v1h-1zM9 25h1v1h1v1h-2zM15 25h1v2h-2v-1h1zM18 25h1v3h1v1h-2v-2h-1v-1h1zM12 26h1v1h-1zM26 26v3h3v-3zM1 27h7v7h-7zM13 27h1v1h1v1h-1v1h3v1h1v-1h5v1h-1v1h-1v-1h-1v1h1v1h-2v-1h-2v1h2v1h-3v-2h-2v1h-1v-3h-2v-1h2zM16 27h1v2h-1zM27 27h1v1h-1zM2 28v5h5v-5zM9 28h2v1h-1v3h-1zM3 29h3v3h-3zM17 29h1v1h-1zM23 29h1v1h-1zM11 31h1v1h-1zM29 31v1h1v-1zM22 32h2v1h3v1h-4v-1h-1zM9 33h2v1h-2zM12 33h1v1h-1zM32 33h1v1h-1z"/></svg>