<svg xmlns="http://www.w3.org/2000/svg" viewBox="0 0 35 35"><path d="M1 1h7v7h-7zM10 1h4v1h-2v1h-1v2h1v1h1v1h-1v2h1v1h-2v1h-1v-2h-1v-6h1zM15 1h1v1h-1zM17 1h1v2h-2v-1h1zM19 1h4v1h1v3h-1v-1h-2v-1h1v-1h-2v1h-1zM24 1h1v1h-1zM27 1h7v7h-7zM2 2v5h5v-5zM25 2h1v1h-1zM28 2v5h5v-5zM3 3h3v3h-3zM13 3h1v2h-2v-1h1zM15 3h1v1h-1zM29 3h3v3h-3zM16 4h1v1h2v1h2v1h-1v1h1v-1h1v1h1v-1h1v2h2v1h-1v1h-2v1h1v2h-1v-1h-1v-2h-3v1h1v1h-2v1h-1v-1h-1v-1h-1v1h-1v-2h-1v-1h1v-1h1v-4h1zM19 4h1v1h-1zM21 5h2v2h-1v-1h-1zM24 5h1v1h-1zM10 6v2h1v-2zM16 6v4h-1v1h2v-1h1v-1h1v1h1v-1h-1v-2h-1v-1zM13 7h1v2h-1zM17 7h1v2h-1zM25 7h1v1h-1zM1 9h1v1h1v-1h5v1h-1v1h2v3h2v3h-1v-1h-1v-1h-1v-1h-1v-1h1v-1h-1v1h-1v1h1v1h-1v2h2v1h-3v-3h-1v-1h1v-3h1v-1h-1v1h-2v1h1v1h-3zM21 9v1h2v-1zM27 9h5v1h2v1h-1v1h-1v1h-1v1h-2v-3h1v1h1v-1h-1v-1h-2v1h-1zM26 11h1v3h-2v-1h1zM11 12h2v1h-1v1h-1zM15 13h1v1h-1zM33 13h1v2h-1v1h-1v1h-2v-1h-1v-1h2v-1h2zM1 14h1v1h-1zM12 14h3v1h-2v1h-1zM16 14h1v1h1v1h-1v2h-1v-1h-1v-2h1zM19 14h1v1h-1zM22 14h1v1h-1zM24 14h1v1h-1zM27 14h1v1h-1zM2 15h2v1h-2zM7 15h1v1h-1zM21 15h1v1h2v2h-1v-1h-1v1h1v1h1v1h-1v1h-1v-1h-1v-1h-1v1h-1v-2h1v-1h1zM25 15h2v1h1v1h-1v1h-1v-2h-1zM1 16h1v1h1v2h1v-1h1v1h1v1h1v1h1v1h-1v1h1v1h-3v-1h-1v1h-1v-2h-1v-1h2v1h1v-2h-3v-2h-1zM13 16h1v1h-1zM19 16h1v1h-1zM11 17h2v1h-1v1h-3v-1h2zM14 17h1v2h2v1h1v1h-1v1h1v1h-2v-1h-2v-3h-1v-1h1zM18 17h1v1h-1zM28 17h2v1h-1v1h-2v-1h1zM33 17h1v2h-1v1h-1v1h-1v1h-3v-1h1v-2h1v1h1v-1h-1v-1h3zM17 18h1v1h-1zM24 18h1v1h-1zM7 19h2v1h-2zM9 20h1v1h-1zM11 20h1v2h-1zM24 20h3v2h-1v-1h-2zM19 21h1v1h-1zM32 21h1v1h-1zM1 22h1v4h-1zM9 22h1v1h-1zM20 22h2v2h1v1h-2v1h1v2h1v1h-2v-2h-1v-3h1v-1h-1zM24 22h1v1h-1zM27 22h1v1h-1zM33 22h1v1h-1zM11 23h1v1h-1zM14 23h2v1h-1v1h-1v1h-2v-1h1v-1h1zM18 23h1v1h-1zM25 23h2v2h1v-2h1v1h1v-1h1v1h1v-1h1v1h1v1h-4v4h1v1h2v-2h1v3h-3v1h1v1h-2v1h-2v-1h-1v1h-4v-1h3v-1h1v-1h1v-1h-1v1h-1v-1h-1v-1h-1v-1h-1v-1h2v-2h1v-1h-1zM4 24h1v1h1v1h-2zM8 24h1v1h2v1h-1v1h-1v-1h-2v-1h1zM17 24h1v1h1v3h1v1h-2v1h-1v-1h-1v-2h1v1h1v-1h-1zM23 25h1v1h-1zM14 26h2v1h-1v1h-2v1h1v1h-1v2h-4v-4h1v2h1v-3h3zM26 26v3h3v-3zM31 26h3v1h-1v1h-1v1h-1zM1 27h7v7h-7zM27 27h1v1h-1zM2 28v5h5v-5zM3 29h3v3h-3zM23 29h1v1h-1zM15 30h2v1h2v-1h3v1h1v2h-1v-1h-1v-1h-1v1h1v1h-2v-1h-2v2h-1v-1h-1v-1h-1v-1h1zM24 31h1v1h-1zM29 31v1h1v-1zM13 32h1v1h1v1h-3v-1h1zM9 33h1v1h-1zM18 33h1v1h-1zM21 33h1v1h-1zM32 33h1v1h-1z"/></svg>