<svg xmlns="http://www.w3.org/2000/svg" viewBox="0 0 35 35"><path d="M1 1h7v7h-7zM10 1h1v2h-1zM12 1h1v1h-1zM17 1h1v3h-3v-1h1v-1h1zM20 1h3v3h-1v-2h-2zM24 1h1v1h-1zM27 1h7v7h-7zM2 2v5h5v-5zM13 2h1v2h-1zM19 2h1v1h-1zM28 2v5h5v-5zM3 3h3v3h-3zM9 3h1v3h2v2h-1v-1h-1v1h1v2h-1v-1h-1zM11 3h1v2h-1zM20 3h1v1h-1zM25 3h1v1h-1zM29 3h3v3h-3zM19 4h1v1h-1zM23 4h1v1h1v1h-2zM15 5h3v1h-2v2h-1v-1h-1v-1h1zM21 5h1v1h-1zM18 6h1v1h-1zM20 6h1v1h-1zM25 6h1v4h-1v1h-1v-1h-1v-1h-1v2h1v2h-1v-1h-1v-1h-2v1h2v1h-3v1h-1v1h1v1h-1v1h2v1h-1v1h-1v-1h-1v-2h-1v-1h1v-1h-1v-1h1v-1h-1v1h-2v-2h1v-2h2v1h-1v1h2v-1h1v-1h1v1h1v-2h1v-1h1v1h1v-1h1v2h1zM13 7h1v2h-1zM17 7h1v2h-1zM19 7h1v1h-1zM1 9h1v1h-1zM3 9h5v1h-1v1h-1v1h1v1h-1v1h-1v-2h-1v-1h1v-1h-2zM12 9h1v2h-2v-1h1zM27 9h5v2h1v2h1v2h-1v1h-1v-1h-1v-1h1v-1h-1v1h-3v-1h1v-2h1v1h1v-1h-1v-1h-2v3h-1v1h-2v1h-1v1h-1v1h-2v-2h1v-1h1v-1h2v-1h2zM9 10h1v2h-3v-1h2zM33 10h1v1h-1zM2 11h1v2h-1zM10 12h2v2h2v2h-2v1h2v-1h1v2h-2v1h-1v-1h-2v-2h1v-1h-1v-1h-1v-1h1zM1 13h1v1h1v-1h1v1h1v1h-2v1h-2zM7 13h1v1h-1zM6 14h1v1h3v1h-1v1h-1v-1h-1v1h-2v-1h1zM19 14h1v2h-1zM27 14h1v1h1v1h-1v1h-1zM25 15h1v1h-1zM3 16h1v1h1v2h-1v1h-1v1h1v-1h1v1h3v1h-2v1h3v1h-4v2h-1v-1h-1v-1h1v-1h1v-1h-2v1h-1v3h-1v-4h1v-1h-1v-2h1v-1h-1v-1h2zM30 16h2v1h-2zM7 17h1v1h-1zM20 17h1v1h2v1h-1v1h1v1h-2v1h1v1h2v1h-1v1h-2v1h1v2h1v1h-5v-2h-1v-1h1v-1h1v1h1v-2h1v-1h-1v-1h-1v-1h1v-1h1v-1h-1v1h-1v-2h1zM23 17h1v1h-1zM25 17h2v1h1v-1h2v1h-1v1h-3v-1h-1zM33 17h1v2h-1zM9 18h1v1h-1zM15 18h1v1h-1zM24 18h1v1h-1zM30 18h2v1h1v1h-1v1h-1v1h-2v-3h1v1h1v-1h-1zM5 19h1v1h-1zM7 19h1v1h-1zM10 19h1v1h-1zM16 19h1v1h-1zM23 19h1v1h-1zM9 20h1v1h-1zM11 20h2v1h-2zM15 20h1v1h-1zM17 20h1v1h-1zM24 20h1v1h-1zM26 20h2v1h-1v1h-1zM16 21h1v1h1v1h-2zM32 21h1v1h-1zM9 22h1v1h-1zM12 22h1v1h-1zM24 22h1v1h-1zM27 22h1v2h-1zM33 22h1v1h-1zM10 23h1v3h1v2h1v-1h1v2h1v1h-2v-1h-2v-2h-2v-1h1v-1h-1v-1h1zM14 23h2v3h-1v-1h-1v1h-1v-1h-1v-1h2zM18 23h1v1h-1zM30 23h3v1h1v1h-4v4h1v2h-2v1h3v1h-2v1h-3v-1h1v-1h-3v-1h1v-1h-1v-1h-1v-1h-1v-1h1v-1h1v-2h1v1h2v-1h2zM17 24h1v1h-1zM6 25h3v1h-3zM23 25h1v1h-1zM26 26v3h3v-3zM31 26h3v1h-1v1h-1v1h-1zM1 27h7v7h-7zM16 27h1v2h1v1h-1v1h1v1h-1v1h2v1h-3v-3h-1v-1h1v-1h-1v-1h1zM19 27v1h2v-1zM27 27h1v1h-1zM2 28v5h5v-5zM9 28h1v1h1v1h2v1h-2v1h3v2h-1v-1h-1v1h-1v-1h-1v-1h-1zM33 28h1v3h-2v-2h1zM3 29h3v3h-3zM23 29h1v1h-1zM18 30h4v2h-1v-1h-1v1h1v1h-2v-2h-1zM27 30v1h1v-1zM22 32h1v1h-1zM9 33h1v1h-1zM23 33h3v1h-3zM32 33h1v1h-1z"/></svg>