<svg xmlns="http://www.w3.org/2000/svg" viewBox="0 0 35 35"><path d="M1 1h7v7h-7zM12 1h1v1h-1zM15 1h1v1h-1zM17 1h1v1h-1zM20 1h3v1h-1v1h1v1h-3v-1h1v-1h-1zM24 1h1v1h-1zM27 1h7v7h-7zM2 2v5h5v-5zM10 2h2v1h-1v1h-1v1h3v1h-2v1h-1v2h-1v-6h1zM13 2h1v2h-2v-1h1zM16 2h1v2h-2v-1h1zM19 2h1v1h-1zM28 2v5h5v-5zM3 3h3v3h-3zM24 3h2v1h-1v2h-1v-1h-1v-1h1zM29 3h3v3h-3zM19 4h1v1h-1zM14 5h4v1h-4zM21 5h2v1h-2zM13 6h1v3h-1zM19 6h2v1h-1v1h1v-1h1v1h1v1h-1v2h-3v1h1v1h-2v-2h-1v-4h1v2h1v1h1v-1h-1zM23 6h1v2h-1zM25 6h1v2h-1zM11 7h1v1h-1zM15 7h1v1h-1zM24 8h1v1h1v1h-1v1h-2v-2h1zM1 9h1v1h-1zM3 9h5v1h-1v1h2v-1h2v-1h2v1h-1v1h1v3h2v2h-1v-1h-3v-1h1v-1h-1v1h-2v1h1v1h-4v-3h-1v-2h1v-1h-1v1h-1v-1h-1zM14 9h2v1h-1v1h2v1h-2v1h-1zM27 9h5v2h1v1h-1v1h-1v1h-3v-1h1v-2h1v1h1v-1h-1v-1h-2v3h-1v-1h-2v-1h2zM2 10h1v2h-2v-1h1zM33 10h1v1h-1zM7 12v1h1v-1zM21 12h4v1h-1v1h1v1h-2v1h5v1h-1v1h1v-1h2v1h-1v1h-3v-2h-1v2h-2v-2h-2v-2h1v-1h1v-1h-2zM33 12h1v3h-1v1h-1v-3h1zM15 13h3v1h-1v1h1v1h-1v1h2v1h-1v1h-1v-1h-2v-2h1v-2h-1zM20 13h1v1h-1zM25 13h2v1h1v1h-2v-1h-1zM7 14v1h1v-1zM19 14h1v1h-1zM2 15h1v1h-1zM28 15h1v1h-1zM30 15h1v1h1v1h-2zM1 16h1v1h-1zM12 16h1v1h-1zM2 17h1v1h-1zM6 17h2v1h-1v1h2v1h1v-1h1v-2h1v1h1v-1h1v1h1v1h-1v2h-2v-1h-1v3h1v-1h1v1h2v1h-2v1h-1v1h-1v-1h-1v-1h-1v-1h-1v-1h-2v-1h2v-1h-2v-1h-1v-1h1zM20 17h1v1h1v1h1v1h1v1h-2v-1h-1v-1h-1v1h-1v-2h1zM33 17h1v2h-1zM1 18h1v1h-1zM30 18h2v1h1v1h1v1h-3v1h-2v-3h1v1h1v-1h-1zM3 19h2v1h-2zM16 19h1v1h-1zM2 21h1v1h-1zM4 21h1v1h-1zM19 21h2v1h1v1h1v2h-2v1h1v1h-2v-3h1v-1h-1v-1h-1zM24 21h3v1h-2v1h-1zM1 22h1v4h-1zM5 22h1v2h1v1h1v-1h1v1h1v2h-1v-1h-5v-1h-1v-1h1v-1h1zM15 22h3v1h-3zM27 22h1v1h-1zM33 22h1v1h-1zM7 23h1v1h-1zM26 23h1v1h-1zM28 23h3v1h1v-1h1v1h1v1h-3v1h-1v3h1v1h2v-1h-2v-3h3v1h-1v1h1v3h-3v1h1v1h-2v1h-2v-1h-1v-2h1v-1h-1v1h-1v-1h-1v-1h-1v-1h-1v-3h1v-1h1v1h2v-1h1v1h2v-1h-2zM17 24h1v1h-1zM14 25h2v2h1v1h-2v-2h-1zM18 25h1v3h4v1h-2v1h2v1h-1v1h-1v-1h-1v1h-1v-2h1v-1h-2v1h-1v1h1v1h-1v1h2v1h-4v-1h1v-1h-1v-1h1v-1h-1v-1h2v-1h1v-1h-1v-1h1zM12 26h1v1h-1zM24 26v1h1v-1zM26 26v3h3v-3zM1 27h7v7h-7zM10 27h2v1h-2zM27 27h1v1h-1zM2 28v5h5v-5zM9 28h1v2h1v1h-1v1h-1zM12 28h3v1h-3zM3 29h3v3h-3zM11 29h1v1h-1zM23 29h1v1h-1zM12 30h1v2h-1zM24 30h1v1h-1zM25 31h1v1h-1zM29 31v1h1v-1zM10 32h2v1h-2zM20 32h1v1h-1zM22 32h2v1h2v1h-3v-1h-1zM9 33h1v1h-1zM32 33h1v1h-1z"/></svg>