<svg xmlns="http://www.w3.org/2000/svg" viewBox="0 0 35 35"><path d="M1 1h7v7h-7zM10 1h2v1h-2zM15 1h1v1h-1zM17 1h1v1h-1zM19 1h3v1h1v1h1v2h1v1h-1v3h1v-2h1v3h-1v1h-1v-1h-1v-1h-1v1h1v1h-3v-3h1v-1h1v1h1v-2h-2v-1h2v-1h-1v-1h-1v-1h-1v1h-1zM23 1h2v1h-2zM27 1h7v7h-7zM2 2v5h5v-5zM12 2h1v2h-1zM16 2h1v1h-1zM25 2h1v1h-1zM28 2v5h5v-5zM3 3h3v3h-3zM9 3h2v2h-1v1h3v1h-1v1h-1v-1h-1v1h1v1h1v1h-1v1h1v-1h1v2h-1v1h-4v-1h-1v-1h2v1h1v-3h-1zM15 3h1v1h-1zM29 3h3v3h-3zM16 4h1v1h1v1h-2v4h-1v1h2v1h-2v1h-1v-4h1v-4h1zM19 4h1v1h-1zM25 4h1v1h-1zM13 5h1v1h-1zM20 6h1v1h-1zM13 7h1v2h-1zM17 7h1v2h1v3h1v1h-2v1h-1v1h1v1h-1v2h-1v-1h-1v-1h1v-2h-1v-1h2v-1h1v-1h-1zM19 7h1v1h-1zM1 9h1v1h1v1h1v1h-1v1h-1v-1h-1zM3 9h5v1h-5zM27 9h5v2h1v1h-1v1h-1v1h-3v-1h1v-2h1v1h1v-1h-1v-1h-2v2h-3v-1h1v-1h1zM33 10h1v1h-1zM5 11h1v1h-1zM23 11h1v1h-1zM4 12h1v1h-1zM22 12h1v1h-1zM1 13h1v1h-1zM3 13h1v1h-1zM5 13h1v1h1v1h-2zM7 13h1v1h-1zM20 13h1v1h-1zM23 13h4v1h1v1h-1v1h-1v-2h-1v1h-1v1h-1v-1h-1v-1h1zM32 13h1v1h1v1h-1v1h-1v-1h-1v-1h1zM2 14h1v1h-1zM8 14h1v1h-1zM11 14h1v2h-1zM13 14h1v2h-1zM19 14h1v1h-1zM1 15h1v1h-1zM3 15h1v1h2v1h2v1h-1v1h-1v1h-1v1h1v1h1v1h1v1h-1v1h-1v1h-1v-1h-1v-1h2v-1h-2v-4h1v-1h-1v-1h-1zM7 15h1v1h-1zM21 15h1v1h1v1h-2zM30 15h1v1h1v1h-1v1h2v-1h1v2h-1v2h-2v1h1v1h-2v-1h-2v-1h1v-2h1v1h1v-1h-1v-1h-1v1h-3v-1h-1v-1h-1v-1h2v1h1v1h1v-1h1v-1h1zM9 16h1v1h-1zM12 16h1v1h2v2h-2v3h1v1h-2v2h-1v1h-1v1h-1v-3h1v-2h2v-2h-1v1h-1v-1h-1v1h-1v-1h-1v-1h1v-1h1v1h3v-1h-1v-1h1zM19 16h1v1h-1zM2 17h1v1h-1zM18 17h1v1h-1zM20 17h1v1h1v1h-2v1h-1v-2h1zM23 17h1v1h1v1h-2zM1 18h1v1h-1zM3 18h1v1h-1zM17 18h1v1h-1zM2 19h1v2h-1zM16 19h1v1h-1zM22 19h1v2h-1zM25 19h1v1h-1zM6 20h1v1h-1zM17 20h1v1h-1zM24 20h1v1h1v-1h1v2h-2v1h-1zM7 21h1v1h-1zM16 21h1v1h1v1h-2v3h-1v1h-1v1h-1v1h2v2h-1v-1h-2v1h-1v1h-2v-4h1v2h1v-1h1v-1h-2v-1h3v-1h1v-2h1v-2h1zM19 21h1v1h-1zM1 22h1v4h-1zM8 22h1v1h-1zM20 22h2v2h1v1h-1v3h-1v-1h-2v1h2v1h-3v-1h-2v-1h1v-3h1v1h1v1h1v-1h-1v-1h2v-1h-1zM27 22h1v1h2v1h2v-1h1v1h1v1h-3v1h-1v3h1v1h-1v1h-1v1h2v-2h2v-1h1v2h-2v2h-2v1h-2v-2h-1v2h-4v-1h-1v-1h1v-1h2v-2h-1v-1h-1v-1h2v-3h1v1h1zM33 22h1v1h-1zM3 23h1v1h-1zM18 23h1v1h-1zM28 24v1h1v-1zM7 25h1v1h-1zM23 25h1v1h-1zM26 26v3h3v-3zM31 26h1v1h1v2h-2zM33 26h1v1h-1zM1 27h7v7h-7zM27 27h1v1h-1zM2 28v5h5v-5zM15 28h1v1h-1zM22 28h1v1h-1zM3 29h3v3h-3zM16 29h2v1h-1v1h1v1h-1v1h2v1h-3v-2h-1v-1h1zM23 29h1v1h-1zM18 30h4v2h-1v-1h-1v1h1v1h-2v-2h-1zM27 30v1h1v-1zM11 32h1v2h-3v-1h2zM14 32h1v1h-1zM24 32v1h2v-1zM13 33h1v1h-1zM32 33h1v1h-1z"/></svg>