<svg xmlns="http://www.w3.org/2000/svg" viewBox="0 0 35 35"><path d="M1 1h7v7h-7zM10 1h1v1h-1zM17 1h1v1h-1zM19 1h3v1h-2v1h-1zM24 1h1v1h-1zM27 1h7v7h-7zM2 2v5h5v-5zM12 2h2v1h-2zM16 2h1v1h-1zM22 2h1v2h-2v1h-2v-1h1v-1h2zM25 2h1v1h-1zM28 2v5h5v-5zM3 3h3v3h-3zM9 3h1v1h1v2h-1v2h1v1h1v1h2v-1h1v-2h1v3h-1v1h2v2h-1v-1h-1v1h-1v1h-2v1h-1v-2h2v-1h1v-1h-2v1h-1v-2h-1v-1h-1zM11 3h1v1h-1zM15 3h1v1h-1zM17 3h1v1h-1zM29 3h3v3h-3zM13 4h1v2h-1zM16 4h1v1h1v1h-3v-1h1zM23 4h3v1h-1v1h-1v-1h-1zM21 5h2v1h-2zM12 6h1v1h-1zM18 6h3v1h-1v1h1v-1h1v1h1v1h-2v1h1v1h1v2h-1v-1h-1v-1h-1v-2h-1v-2h-1zM23 6h1v2h-1zM11 7h1v1h-1zM13 7h1v1h-1zM17 7h1v2h-1zM25 7h1v3h-1zM1 9h1v1h1v-1h5v1h-4v2h1v-1h3v1h-2v1h3v1h1v1h-2v-1h-2v2h-2v1h1v1h-2v1h-1v1h-1v-3h2v-1h-1v-1h1v-1h-1v-1h-1zM18 9h1v3h1v1h-2v-2h-1v-1h1zM23 9h1v1h-1zM27 9h5v1h2v1h-1v1h-1v1h-1v1h-2v-3h1v1h1v-1h-1v-1h-2v1h-2v-1h1zM9 10h1v2h-1zM24 10h1v1h-1zM25 12h3v1h-1v1h1v1h-2v-2h-1zM33 12h1v1h-1zM4 13v2h1v-2zM15 13h1v1h-1zM17 13h1v1h-1zM23 13h1v1h1v1h-1v1h-1v1h-2v-2h2zM1 14h1v1h-1zM14 14h1v1h-1zM16 14h1v1h1v1h-1v1h2v1h-1v3h-1v-1h-1v-1h1v-1h-1v-1h-5v1h-1v-2h2v-1h1v1h2v-1h1zM19 14h1v2h-1zM31 14h3v1h-1v1h-1v-1h-1zM7 15h1v1h-1zM25 15h1v1h-1zM29 15h1v1h2v1h-2v1h-1v1h-1v2h-1v-2h-1v-1h-1v-1h2v1h1v-1h-1v-1h2zM24 16h1v1h-1zM7 17h1v1h-1zM20 17h1v1h1v1h1v1h2v1h-3v-1h-1v-1h-1v1h-1v-2h1zM23 17h1v1h-1zM33 17h1v2h-1zM5 18h1v1h-1zM8 18h2v1h1v1h-2v-1h-1zM11 18h1v1h-1zM13 18h2v3h1v1h-1v1h-1v-1h-1v-1h1v-2h-1zM24 18h1v1h-1zM30 18h2v1h1v2h-2v1h-3v-1h1v-2h1v1h1v-1h-1zM7 19h1v1h-1zM25 19h1v1h-1zM2 20h1v1h-1zM4 20h1v1h-1zM6 20h1v1h-1zM11 20h2v1h-2zM20 20h1v1h-1zM3 21h1v1h2v3h4v1h2v-2h1v1h1v1h-1v3h-1v-2h-1v1h-1v-1h-1v-1h-4v-3h-1v3h-1zM7 21h1v1h-1zM10 21h1v1h-1zM19 21h1v1h-1zM26 21h1v1h1v1h-2zM1 22h1v4h-1zM8 22h2v1h1v2h-1v-1h-1v-1h-1zM11 22h1v1h-1zM16 22h3v1h-3zM20 22h2v1h1v2h-1v3h-1v-1h-1v-2h-1v-2h1v1h1v-1h-1zM24 22h1v1h-1zM31 22h1v1h-1zM33 22h1v1h-1zM7 23h1v1h-1zM13 23h1v1h-1zM15 23h1v1h-1zM32 23h1v1h1v1h-4v-1h2zM14 24h1v1h-1zM17 24h1v1h-1zM24 24h3v1h3v4h1v1h-1v1h-1v1h3v1h-2v1h-2v-1h-1v-2h1v-1h-1v1h-2v1h-1v-2h1v-1h-1v-1h-1v-1h2v-1h-2v-1h1zM18 25h1v3h1v1h-2v1h-1v1h1v1h-1v1h2v1h-7v-3h-2v1h-1v-4h1v1h2v1h1v3h1v-1h1v-1h-1v-1h2v-2h-1v-1h2v1h1v-1h-1v-1h1zM26 26v3h3v-3zM31 26h1v1h1v1h-1v1h-1zM33 26h1v1h-1zM1 27h7v7h-7zM27 27h1v1h-1zM2 28v5h5v-5zM22 28h1v1h-1zM33 28h1v3h-3v-1h2zM3 29h3v3h-3zM13 29h1v1h-1zM23 29h1v1h-1zM19 30h3v2h-1v-1h-2zM10 32h1v1h-1zM20 32h1v1h-1zM22 32h2v1h3v1h-4v-1h-1zM9 33h1v1h-1zM21 33h1v1h-1zM32 33h1v1h-1z"/></svg>