<svg xmlns="http://www.w3.org/2000/svg" viewBox="0 0 35 35"><path d="M1 1h7v7h-7zM9 1h1v1h-1zM11 1h1v2h-1zM13 1h2v1h1v2h-1v-1h-1v2h-2v3h-1v-2h-1v2h1v1h1v1h-2v1h-2v-1h-1v-1h2v-5h1v-1h1v1h2zM16 1h2v2h1v-2h1v1h2v1h1v1h-4v2h1v2h1v-2h1v2h1v1h1v1h-1v1h1v-1h1v6h-1v2h-3v-3h-3v-1h2v-2h1v-1h1v-1h-1v-1h-2v2h-1v3h-1v-2h-2v2h-1v-1h-1v-1h1v-1h2v-2h2v-1h1v-1h-1v-1h-1v-1h-1v-1h1v-2h-1zM23 1h2v1h-1v1h-1zM27 1h7v7h-7zM2 2v5h5v-5zM28 2v5h5v-5zM3 3h3v3h-3zM24 3h2v2h-1v1h-1zM29 3h3v3h-3zM14 5h1v1h-1zM20 5h1v1h-1zM13 6h1v2h-1zM15 6h2v1h-1v2h-1zM25 6h1v2h-1zM17 7h1v1h-1zM23 7h1v1h-1zM12 8h1v1h-1zM24 8h1v1h-1zM1 9h1v1h-1zM5 9h1v1h-1zM13 9h1v2h-1v1h-1v-2h1zM26 9h5v1h2v2h-1v-1h-1v1h-1v-2h-1v1h-1v-1h-1v1h-1zM33 9h1v1h-1zM4 10h1v1h1v1h-3v-1h1zM6 10h1v1h-1zM1 11h1v2h-1zM7 11h1v1h-1zM10 11h1v3h1v1h-2v-2h-2v-1h2zM19 11h1v1h-1zM27 11h1v3h-1zM6 12h1v1h1v1h-1v1h1v1h-1v1h-2v-1h1zM23 12v1h1v-1zM12 13h1v1h-1zM29 13h2v1h-2zM33 13h1v1h-1zM1 14h2v1h1v2h-1v-1h-1v-1h-1zM4 14h1v1h-1zM8 14h1v1h-1zM15 14h1v1h1v1h2v2h-1v-1h-3zM22 14v2h1v-1h1v-1zM26 14h1v1h1v-1h1v2h-2v1h-1v1h-1v-2h1zM32 15h1v1h-1zM1 16h1v1h-1zM8 16h2v1h-1v1h-2v-1h1zM11 16h2v1h-2zM2 17h1v2h-2v-1h1zM10 17h1v1h2v3h-1v-2h-1v2h1v1h-1v1h-1v-2h-1v-2h1zM14 17h1v1h-1zM27 17h1v1h-1zM29 17h1v1h-1zM32 17h1v1h-1zM5 18h1v1h2v1h-1v1h2v2h1v1h1v4h-2v-2h1v-1h-2v-1h-3v-1h-1v-1h1v-1h1v-1h-2v-1h1zM15 18h3v1h1v1h1v2h-1v-1h-2v1h-1v-1h-1v-1h1v-1h-1zM19 18h1v1h-1zM24 18h1v1h3v3h-1v-1h-2v-1h-1zM30 18h2v1h-1v1h-1zM14 19h1v1h-1zM22 19h1v1h1v1h-1v2h1v-1h1v1h1v1h-1v1h-1v-1h-1v1h1v1h-1v1h-1v-2h-3v1h1v2h-1v-1h-1v1h-3v2h-2v1h-1v-1h-1v3h-1v-3h-1v-1h2v-1h1v-4h2v1h-1v2h2v-1h-1v-1h4v-1h-1v-2h1v1h1v1h2v-1h1v-1h-1v-1h1zM32 19h1v5h1v2h-1v2h1v2h-2v-3h-1v-1h1v-2h-2v-2h-1v-1h2v1h1zM1 20h2v1h-2zM1 22h2v1h-2zM7 22v1h1v-1zM13 22h1v1h-1zM15 22h1v2h-2v-1h1zM28 22h1v3h1v2h1v3h-1v2h-1v1h-1v-1h-1v1h1v1h-8v-2h1v1h1v-1h1v1h2v-1h1v-1h1v-1h-2v-3h-1v-1h1v-1h1v-1h1v1h1zM3 23h1v1h1v1h-2zM11 23h1v1h-1zM1 25h2v1h-2zM7 25h1v1h-1zM26 26v3h3v-3zM1 27h7v7h-7zM21 27h1v1h2v2h-4v-1h1zM27 27h1v1h-1zM2 28v5h5v-5zM3 29h3v3h-3zM17 29h1v1h-1zM15 30h1v1h-1zM19 30h1v1h-1zM28 30v1h1v-1zM16 31h1v1h2v2h-1v-1h-3v-1h1zM21 31h1v1h-1zM23 31h1v1h-1zM13 32h1v1h1v1h-4v-1h2zM9 33h1v1h-1zM29 33h1v1h-1zM33 33h1v1h-1z"/></svg>