<svg xmlns="http://www.w3.org/2000/svg" viewBox="0 0 35 35"><path d="M1 1h7v7h-7zM12 1h2v1h-2zM17 1h1v3h-3v-1h1v-1h1zM19 1h3v2h1v1h-2v-2h-1v1h-1zM24 1h1v1h-1zM27 1h7v7h-7zM2 2v5h5v-5zM11 2h1v1h1v1h-1v2h-1v1h-1v2h-1v-6h1v2h1zM23 2h1v1h-1zM25 2h1v3h-1v1h-1v-1h-1v-1h2zM28 2v5h5v-5zM3 3h3v3h-3zM29 3h3v3h-3zM13 4h1v2h-1zM19 4h2v1h-2zM15 5h4v2h-1v-1h-2v4h-1v1h2v1h-2v1h-1v-1h-1v-1h1v-1h-1v1h-1v-1h-1v-3h1v2h1v-2h1v2h1v-2h-1v-1h1zM21 5h1v1h-1zM12 6h1v1h-1zM20 6h1v1h-1zM22 6h1v1h-1zM25 6h1v4h-1v1h-1v-1h-1v-1h-2v1h1v1h2v2h1v2h-2v-2h-2v-2h-2v1h1v1h-2v1h-1v-2h1v-1h-1v-1h1v-1h1v1h1v-1h-1v-2h1v1h1v-1h1v1h1v-1h1v2h1zM17 7h1v2h-1zM1 9h1v1h1v-1h5v1h-2v2h1v1h1v-1h-1v-1h3v-1h1v1h1v1h1v1h1v1h-2v1h2v1h2v-2h1v1h2v1h-2v2h-1v-1h-1v1h1v1h-1v1h-1v1h-1v-1h-1v-2h1v1h1v-1h-1v-2h-2v-1h-1v2h-1v-3h-2v1h-1v2h2v1h-3v-6h-1v1h-1v-2h-1v1h-1zM27 9h5v2h1v1h-1v1h-1v1h-2v-3h1v1h1v-1h-1v-1h-2v2h-1zM4 10v1h1v-1zM33 10h1v1h-1zM25 11h1v2h-1zM9 12v1h1v1h1v-1h-1v-1zM33 12h1v1h-1zM15 13h1v1h-1zM26 13h1v1h-1zM32 13h1v1h1v1h-1v1h-1zM1 14h1v2h-1zM19 14h1v1h-1zM27 14h1v1h-1zM3 15h1v1h-1zM7 15h1v1h-1zM21 15h2v2h-2zM26 15h1v1h-1zM2 16h1v1h1v1h-1v2h1v1h1v4h1v-1h1v1h3v-2h3v-1h1v1h1v1h1v1h-2v-1h-2v2h2v1h1v1h-1v2h-1v-2h-1v-1h-1v1h1v5h-1v-1h-2v-4h1v-1h-1v-1h-5v-1h-1v-1h1v-1h-1v-2h-1v-2h-1v-2h1zM19 16h1v1h-1zM25 16h1v1h-1zM27 16h5v1h-2v1h-1v1h-1v1h-1v-1h-1v-2h1v1h1v-1h-1zM18 17h1v1h-1zM20 17h1v1h2v1h-3v1h-1v-2h1zM23 17h2v2h-1v-1h-1zM33 17h1v2h-1v1h-1v1h-1v2h2v1h1v1h-4v-1h-1v-1h1v-1h-2v-1h1v-2h1v1h1v-1h-1v-1h3zM4 18h1v1h-1zM8 18h1v1h-1zM10 18h1v1h-1zM17 18h1v3h-1v1h1v1h-2v-4h1zM5 19h3v1h-1v1h2v-2h1v1h2v2h-1v-1h-1v2h-1v1h-2v-1h1v-1h-2v-1h-1zM23 19h1v2h-2v-1h1zM20 20h1v1h-1zM26 20h1v2h-2v-1h1zM33 20h1v3h-1zM19 21h1v1h-1zM1 22h1v4h-1zM20 22h2v1h1v2h-1v3h1v1h-2v-2h-1v-2h-1v-1h-1v-1h2v1h1v-1h-1zM24 22h1v1h-1zM27 22h1v1h-1zM25 23h2v1h-2zM17 24h1v1h1v3h1v1h-2v-2h-1zM24 24h1v1h-1zM28 24h1v1h1v4h1v1h-1v1h-1v1h3v1h-2v1h-3v-1h1v-1h-1v-1h1v-1h-1v1h-3v-1h1v-1h-1v-1h-1v-1h1v-1h1v-1h3zM23 25h1v1h-1zM15 26h1v1h-1zM26 26v3h3v-3zM31 26h1v1h1v1h-1v1h-1zM33 26h1v1h-1zM1 27h7v7h-7zM16 27h1v1h-1zM27 27h1v1h-1zM2 28v5h5v-5zM3 29h3v3h-3zM16 29h2v1h-1v1h1v1h-1v2h-1v-3h-1v3h-1v-4h2zM20 29h1v1h1v2h-1v-1h-1v1h1v1h-2v-2h-1v-1h2zM23 29h1v1h-1zM32 29h1v1h1v1h-2zM23 31h1v2h2v1h-3v-1h-1v-1h1zM9 33h2v1h-2zM18 33h1v1h-1zM32 33h1v1h-1z"/></svg>