<svg xmlns="http://www.w3.org/2000/svg" viewBox="0 0 35 35"><path d="M1 1h7v7h-7zM10 1h4v4h2v-1h-1v-1h1v-1h1v-1h1v3h-1v1h1v1h-7v-1h2v-2h-1v1h-1v1h-1v4h-1v-6h1zM20 1h2v1h1v-1h2v1h-1v1h-1v1h-1v-1h-1v-1h-1zM27 1h7v7h-7zM2 2v5h5v-5zM19 2h1v1h-1zM25 2h1v1h-1zM28 2v5h5v-5zM3 3h3v3h-3zM20 3h1v2h-2v-1h1zM29 3h3v3h-3zM23 4h3v1h-1v1h-1v-1h-1zM21 5h2v2h-1v-1h-1zM18 6h1v1h-1zM20 6h1v1h-1zM25 6h1v4h-1v1h-1v-1h-1v-1h2zM11 7h1v1h-1zM13 7h1v2h1v-2h1v4h1v-4h1v2h1v3h1v1h-2v-1h-1v1h-1v-1h-1v1h-1v1h-1v-1h-1v1h1v2h-3v-2h-1v2h-2v1h2v1h-4v-1h-2v-4h1v-2h1v1h1v1h2v-1h1v1h2v-2h-1v-1h2v-1h1zM19 7h1v1h1v-1h1v1h1v1h-2v1h1v1h1v1h1v1h1v2h-1v-1h-1v-1h-2v-2h-1v-2h-1zM23 7h1v1h-1zM1 9h1v2h-1zM3 9h5v1h-2v1h-1v-1h-1v1h-1zM27 9h5v1h2v1h-1v1h-1v1h-1v1h-3v-1h1v-2h1v1h1v-1h-1v-1h-2v3h-1zM8 10h1v1h-1zM13 10v2h1v-2zM7 11h1v1h-1zM9 11h1v1h-1zM25 11h1v1h-1zM2 12h1v1h-1zM1 13h1v1h-1zM15 13h1v1h-1zM17 13h1v1h-1zM20 13h1v1h-1zM26 13h1v1h1v3h-1v1h-2v-1h1v-1h-1v-1h1zM33 13h1v2h-1v1h-1v-1h-1v-1h2zM5 14v1h-1v1h1v-1h1v-1zM7 14v1h1v-1zM14 14h1v1h1v-1h1v1h2v-1h1v3h-1v-1h-2v1h2v1h-1v3h-1v-1h-2v1h-1v-1h-1v1h-1v-1h-2v3h-1v-2h-1v-1h1v-2h1v1h2v-1h1v1h2v-1h1v1h1v-1h-1v-2h-2zM22 14h1v1h-1zM1 15h1v1h-1zM21 15h1v1h1v1h-2zM23 15h1v1h-1zM29 15h1v1h-1zM9 16h1v1h-1zM13 16h1v2h-1zM30 16h2v1h-1v1h2v-1h1v2h-1v2h-2v1h1v1h-1v1h1v-1h1v1h1v1h-4v-3h-1v-3h1v1h1v-1h-1v-1h-1v1h-1v1h-1v-2h1v-1h2zM1 17h2v4h-2zM20 17h1v1h2v-1h1v1h1v1h-1v2h-2v-1h1v-1h-1v1h-1v-1h-1zM4 19h2v3h1v1h1v1h-1v1h1v1h-2v-2h-1v2h-2v-1h1v-1h-1v-1h2v-1h-2v-1h1zM7 19h1v1h-1zM19 19h1v1h-1zM25 19h1v1h-1zM20 20h1v1h-1zM26 20h1v2h-1zM7 21h1v1h-1zM11 21h1v1h-1zM16 21h1v1h1v1h-2zM19 21h1v1h-1zM24 21h1v2h-1zM33 21h1v2h-1zM1 22h2v1h-1v3h-1zM13 22h2v3h1v1h-1v1h2v-3h1v1h1v3h1v1h-2v-1h-4v-1h-1v-1h-1v-3h1zM20 22h3v1h1v1h-1v1h-2v1h1v1h-2v-3h1v-1h-1zM27 22h1v1h-1zM10 23h1v1h-1zM18 23h2v1h-2zM26 23h1v2h3v4h1v1h-1v1h-1v1h1v-1h1v1h1v1h-2v1h-7v-1h3v-1h1v1h1v-1h-1v-1h1v-1h-1v1h-1v-1h-1v-1h-1v-1h-1v-1h2v-1h-2v-1h2v-1h1zM13 24v1h1v-1zM9 25h2v1h1v1h1v2h1v1h-2v1h-1v-1h-1v2h-1v-4h1v1h1v-1h-1v-1h-1zM26 26v3h3v-3zM31 26h3v1h-1v3h1v1h-3v-1h1v-1h-1zM1 27h7v7h-7zM27 27h1v1h-1zM2 28v5h5v-5zM21 28h2v1h-2zM3 29h3v3h-3zM15 29h1v1h-1zM17 29h1v1h-1zM23 29h1v1h-1zM14 30h1v1h-1zM16 30h1v1h1v1h-1v2h-4v-1h-1v-1h2v1h2zM19 30h4v1h-1v1h-1v-1h-2zM24 31h1v1h-1zM10 32h1v2h-2v-1h1zM19 32h2v1h-2zM22 32h1v1h-1zM18 33h1v1h-1zM32 33h1v1h-1z"/></svg>