<svg xmlns="http://www.w3.org/2000/svg" viewBox="0 0 35 35"><path d="M1 1h7v7h-7zM17 1h1v1h-1zM19 1h6v1h-2v1h2v1h-1v1h1v1h-1v2h1v-2h1v4h-1v1h-1v1h-1v-1h-3v-3h1v-1h1v1h1v-2h-2v-1h2v-1h-1v-1h-1v-1h-1v1h-1zM27 1h7v7h-7zM2 2v5h5v-5zM11 2h1v1h1v-1h1v2h-1v1h-3v1h2v3h-1v-2h-1v2h-1v-6h1v1h1zM16 2h1v1h-1zM25 2h1v1h-1zM28 2v5h5v-5zM3 3h3v3h-3zM15 3h1v1h-1zM17 3h1v1h-1zM29 3h3v3h-3zM16 4h1v1h2v1h2v1h-1v1h-1v-1h-1v-1h-4v2h-1v-3h3zM19 4h1v1h-1zM25 4h1v1h-1zM15 7h1v3h-1v1h2v1h-2v1h-1v-2h-2v2h-1v2h1v1h-2v1h2v2h-2v-1h-1v-3h1v-1h-1v-3h-1v-1h2v-1h1v1h1v-1h3zM17 7h1v2h-1zM1 9h1v3h-1zM3 9h5v1h-1v1h-1v2h-1v-3h-2zM18 9h1v3h1v1h-2v-2h-1v-1h1zM22 9v1h1v-1zM27 9h5v1h2v1h-1v1h-1v1h-1v1h-3v-1h1v-2h1v1h1v-1h-1v-1h-2v3h-1v-2h-1v-1h1zM3 11h1v2h1v2h-2v1h-2v-2h1v-1h1zM7 11h1v1h-1zM21 12h2v1h-2zM7 13h1v1h-1zM12 13h2v2h-2zM15 13h3v1h-1v1h2v-1h1v3h-1v-1h-2v1h2v1h-1v2h-1v2h2v1h-3v1h-1v-1h-1v-2h1v1h1v-3h1v-1h-1v-1h-1v2h-2v-1h1v-1h-1v-1h2v-1h1v-1h-1zM23 13h1v1h-1zM26 13h1v1h1v1h-1v1h1v-1h1v1h1v-1h2v-1h1v-1h1v2h-1v1h-1v1h-2v1h-1v1h-1v2h-1v-3h1v-1h-1v1h-2v-1h1v-1h-1v-1h1zM22 14h1v1h1v3h-1v-1h-1v1h1v1h-1v1h-1v-1h-1v-2h1v-2h1zM24 14h1v1h-1zM5 15h1v1h-1zM7 15h1v1h-1zM3 16h2v1h1v2h2v-1h1v1h1v1h-1v1h-1v-1h-2v1h-1v1h1v-1h2v1h-1v1h-1v1h-1v-1h-1v-1h-2v4h-1v-5h3v-2h-1v-1h-1v-1h1zM7 17h1v1h-1zM33 17h1v2h-1v1h-1v1h-1v1h1v1h-2v-1h-2v-1h1v-2h1v1h1v-1h-1v-1h3zM1 18h1v2h-1zM24 18h1v1h-1zM19 19h1v1h-1zM10 20h2v1h1v1h-1v2h1v1h-4v1h-2v-1h1v-1h-1v-1h1v-1h1v-1h1zM13 20h1v1h-1zM20 20h1v2h1v2h1v1h-2v1h1v2h1v1h-2v-2h-1v-2h-1v-2h1v1h1v-1h-1v-1h-1v-1h1zM22 20h1v1h-1zM24 20h2v1h1v1h1v1h1v1h-1v1h1v-1h3v-1h1v1h1v1h-3v1h-1v3h1v1h-1v1h-1v1h1v-1h1v-1h3v1h-2v2h-2v1h-2v-2h-1v-1h1v-1h-1v1h-1v-1h-1v-1h-1v-1h-1v-1h2v-2h-1v-1h1v-1h1v-1h-1v1h-1zM33 20h1v1h-1zM32 21h1v1h-1zM10 22v1h-1v1h1v-1h1v-1zM33 22h1v1h-1zM3 23h1v2h2v1h-3zM13 23h1v1h-1zM23 23h1v1h-1zM17 24h1v1h-1zM26 24v1h1v-1zM13 25h1v1h1v2h-1v-1h-1zM18 25h1v3h1v1h-2v1h-1v-2h-1v-1h1v-1h1zM23 25h1v1h-1zM9 26h2v1h1v1h-1v1h-1v1h1v2h-2v-4h1v-1h-1zM26 26v3h3v-3zM31 26h3v1h-1v1h1v1h-3zM1 27h7v7h-7zM27 27h1v1h-1zM2 28v5h5v-5zM3 29h3v3h-3zM11 29h2v2h2v1h1v-2h1v1h2v-1h3v1h1v1h1v1h2v-1h1v2h-4v-1h-1v-1h-1v-1h-1v1h1v1h-2v-1h-2v2h-1v-1h-1v1h-6v-1h2v-1h1v-2h-1zM14 29h1v1h-1zM23 29h1v1h-1zM24 30h1v1h-1zM18 33h1v1h-1zM21 33h1v1h-1zM32 33h1v1h-1z"/></svg>