<svg xmlns="http://www.w3.org/2000/svg" viewBox="0 0 35 35"><path d="M1 1h7v7h-7zM10 1h4v2h-1v-1h-1v1h1v2h-1v-1h-1v1h-1v1h2v6h-2v-1h1v-1h-1v-1h-1v-6h1zM17 1h1v2h-1v1h-2v-1h1v-1h1zM20 1h5v1h-1v2h2v1h-1v1h-4v-1h2v-1h-2v1h-2v-1h1v-1h1v-1h-1zM27 1h7v7h-7zM2 2v5h5v-5zM19 2h1v1h-1zM22 2v1h1v-1zM28 2v5h5v-5zM3 3h3v3h-3zM29 3h3v3h-3zM13 5h1v3h-1zM15 5h3v1h-2v2h-1zM18 6h3v1h-1v1h-1v-1h-1zM10 7v1h1v-1zM17 7h1v2h1v1h1v-2h1v-1h1v1h1v-1h1v1h1v-1h1v3h-1v-1h-1v1h1v1h-2v1h1v2h-1v-1h-1v-2h-3v1h2v2h-1v-1h-2v1h-1v-2h-2v1h-1v-1h-1v-1h1v-2h2v2h1zM1 9h1v1h-1zM3 9h5v1h-3v1h3v1h-1v1h1v1h-1v1h-1v3h1v1h1v1h-1v1h-1v-2h-1v-2h-3v1h-1v-4h2v1h-1v1h1v-1h1v1h1v-4h-1v-1h-1zM21 9v1h2v-1zM27 9h5v1h2v1h-1v2h-2v1h2v-1h1v2h-1v1h-1v1h-2v1h-1v1h-2v-1h1v-3h1v1h1v-2h-2v-1h1v-2h1v1h1v-1h-1v-1h-2v2h-1v2h1v1h-2v-1h-1v-2h1v-2h1zM8 10h1v1h-1zM1 11h1v2h-1zM3 12h1v1h-1zM8 12h1v1h-1zM12 12h1v2h-1zM10 13h1v3h1v1h1v1h2v-3h1v-1h1v1h1v-1h2v1h-1v1h-2v2h-1v1h1v-1h1v3h-1v-1h-2v-1h-1v1h-1v-1h-1v1h1v1h-2v-1h-1v1h-1v1h-2v-1h1v-1h1v-2h1v-1h-1v-1h1zM15 13h1v1h-1zM8 14h1v2h-2v-1h1zM14 14h1v1h-1zM22 14h1v3h-2v-2h1zM24 14h1v1h-1zM12 15h2v1h-2zM25 15h1v1h1v2h-2v-1h-1v-1h1zM19 16h1v1h-1zM7 17h1v1h-1zM18 17h1v1h-1zM20 17h1v1h2v1h1v1h-1v1h-1v-2h-2zM23 17h1v1h-1zM33 17h1v2h-1zM24 18h1v1h-1zM30 18h2v1h1v1h-1v1h-1v1h-2v-3h1v1h1v-1h-1zM1 19h3v1h-2v2h1v1h-1v3h-1zM19 19h1v1h-1zM26 19h1v3h-1v-1h-1v2h-1v-3h2zM14 20h1v1h-1zM20 20h1v1h-1zM5 21h1v1h1v1h2v3h-2v-1h1v-1h-1v1h-1v1h-2v-1h1v-1h1v-1h-1v1h-1v1h-1v-2h1v-1h1zM10 21h1v2h-1zM13 21h1v1h-1zM16 21h1v1h1v1h-3v-1h1zM19 21h1v1h-1zM32 21h2v2h-1v-1h-1zM12 22h1v1h-1zM20 22h2v1h1v1h1v1h4v-1h2v-1h1v1h1v-1h1v1h1v1h-4v4h1v1h1v-1h-1v-3h1v1h1v1h1v1h-1v1h1v1h-3v1h1v1h-1v1h-3v-1h-2v-1h1v-1h1v-1h-1v1h-1v-1h-1v-1h-1v-1h-1v-3h-2v1h1v2h1v1h-2v-2h-1v-2h-1v-1h2v-1h-1zM27 22h1v1h-1zM31 22h1v1h-1zM11 23h1v1h-1zM13 23h1v1h1v1h-3v-1h1zM25 23h2v1h-2zM17 24h1v1h-1zM18 25h1v3h1v1h-2v-2h-1v-1h1zM9 26h4v2h-2v1h-1v2h2v-2h1v-1h1v1h4v1h-1v1h1v-1h5v1h1v-1h1v1h1v1h-2v1h2v1h-3v-1h-1v-1h-1v-1h-1v1h1v1h-2v-1h-2v1h2v1h-4v-3h1v-1h-2v2h-3v2h-2v-1h1v-1h-1v-4h1v-1h-1zM14 26h2v1h-2zM24 26v1h1v-1zM26 26v3h3v-3zM33 26h1v1h-1zM1 27h7v7h-7zM16 27h1v1h-1zM27 27h1v1h-1zM2 28v5h5v-5zM3 29h3v3h-3zM23 29h1v1h-1zM29 31v1h1v-1zM21 33h1v1h-1zM32 33h1v1h-1z"/></svg>