<svg xmlns="http://www.w3.org/2000/svg" viewBox="0 0 35 35"><path d="M1 1h7v7h-7zM9 1h1v2h2v1h-1v1h-1v-1h-1zM13 1h3v4h-1v-1h-2v-1h-1v-1h1zM18 1h1v1h-1zM23 1h1v2h-1zM27 1h7v7h-7zM2 2v5h5v-5zM17 2h1v3h1v1h-1v3h-2v1h-1v-1h-3v-1h1v-1h1v1h1v-1h1v1h1v-1h-1v-2h1zM19 2h3v1h-3zM28 2v5h5v-5zM3 3h3v3h-3zM22 3h1v2h-4v-1h3zM29 3h3v3h-3zM24 4h2v1h-2zM9 5h1v1h-1zM12 5h3v1h-3zM10 6h2v2h-1v-1h-1zM19 6h2v1h-1v1h-1zM24 6h1v1h-1zM9 7h1v1h-1zM21 7h1v1h-1zM23 7h1v1h1v-1h1v2h1v1h-2v1h1v3h-1v1h-2v-1h1v-1h1v-1h-3v-1h2v-2h-1zM1 9h1v1h-1zM4 9h7v1h1v1h-2v-1h-3v1h1v1h-1v1h1v-1h1v1h1v2h-2v-1h-2v2h-2v-1h1v-1h-2v-1h-1v-1h1v-1h-1v-1h2v1h1v1h1v-2h-2zM18 9h1v2h-1zM21 9h1v1h-1zM29 9h1v1h1v-1h3v1h-1v1h1v1h-2v1h-1v-1h-2v-1h-1v-1h1zM13 10h2v4h1v1h1v1h-2v-1h-1v-1h-2v1h-1v-2h1v-1h1zM16 10h1v2h-1zM20 10h1v1h-1zM1 11h1v1h-1zM17 12h1v1h-1zM19 12h3v3h1v1h-3v-1h-1v-1h1v-1h-1zM27 12h2v4h-1v1h1v-1h2v-1h1v2h-1v1h-1v1h-1v-1h-1v2h2v-1h1v-1h3v3h-1v-2h-1v2h-1v1h-1v-1h-3v-3h-1v-1h-1v1h-2v-1h1v-1h1v-1h1v1h1v-1h1v-1h-1zM1 13h1v2h-1zM18 13h1v1h-1zM33 13h1v1h-1zM2 15h1v1h-1zM7 15h1v1h-1zM12 15h2v1h-1v3h-1v1h1v-1h1v-1h1v-1h2v3h-1v-1h-1v1h-1v1h-4v2h-1v1h-2v1h-1v-2h-1v-1h2v1h1v-1h1v-1h-1v-1h-1v-1h4v-1h1zM18 15h1v1h-1zM1 16h1v1h1v-1h1v2h-2v3h-1zM8 16h2v1h-2zM14 16h1v1h-1zM17 16h1v1h-1zM33 16h1v1h-1zM5 17h3v1h-1v1h-1v-1h-1zM20 17h1v1h1v3h-1v-1h-3v-2h2zM3 19h2v1h2v1h-2v1h-2v-1h1v-1h-1zM23 19h2v1h-2zM15 20h1v1h-1zM25 20h1v2h-1v1h1v1h1v1h1v-1h1v-1h-1v-1h2v3h1v1h-1v4h-3v1h-1v-1h-1v3h2v1h-3v-1h-1v-1h1v-1h-1v-3h1v-1h-2v-1h3v-2h-1v-1h-1v-2h2zM7 21h1v1h-1zM14 21h1v1h1v1h-3v2h-1v-3h2zM17 21h1v1h-1zM19 21h2v2h-1v-1h-1zM1 22h2v1h-1v2h1v1h-2zM26 22h1v1h-1zM31 22h1v1h2v3h-2v-1h-1zM4 23h1v2h-2v-1h1zM10 23h1v2h1v2h1v1h-1v1h-1v-3h-1v3h1v1h-1v1h-1v-5h-2v-1h3zM22 23h1v1h-1zM16 24h1v1h-1zM18 24h4v2h-1v-1h-3zM5 25h1v1h-1zM13 25h1v1h3v-1h1v1h2v1h-1v1h1v-1h2v4h-1v1h-1v-1h-1v1h-1v-1h-1v-2h1v-1h-2v-1h-1v1h1v1h-3v-1h1v-1h-1zM26 26v3h3v-3zM31 26h1v3h-1zM1 27h7v7h-7zM27 27h1v1h-1zM2 28v5h5v-5zM3 29h3v3h-3zM19 29v1h2v-1zM32 29h2v4h-3v1h-1v-1h-1v-1h-1v-1h2v1h2v-1h-1v-1h1zM14 30h1v1h-1zM11 31h3v2h-3v1h-2v-1h1v-1h1zM15 31h2v1h-2zM22 31h1v1h-1zM19 32h1v1h-1zM21 32h1v1h-1zM27 32h1v1h-1zM14 33h5v1h-5zM20 33h1v1h-1zM28 33h1v1h-1z"/></svg>