<svg xmlns="http://www.w3.org/2000/svg" viewBox="0 0 35 35"><path d="M1 1h7v7h-7zM9 1h2v1h1v1h1v-2h3v1h-2v1h1v1h-1v1h1v1h1v-1h1v2h-1v1h-1v-1h-1v-1h-1v-2h-1v4h-1v-1h-1v1h-1v-2h1v-1h1v-2h-1v-1h-1zM18 1h2v1h-2zM22 1h2v1h-1v1h3v2h-2v1h-1v1h-1v-3h-2v-1h2zM27 1h7v7h-7zM2 2v5h5v-5zM17 2h1v1h1v1h-2zM28 2v5h5v-5zM3 3h3v3h-3zM9 3h1v1h-1zM29 3h3v3h-3zM18 5h1v1h-1zM20 5h1v2h-1v1h1v-1h1v2h-3v-3h1zM25 6h1v3h-1zM13 7h1v1h-1zM17 7h1v3h1v1h-2v2h-1v-2h-3v-1h-1v-2h1v1h1v1h3v-1h-1v-1h1zM23 7h1v1h-1zM1 9h1v1h-1zM3 9h1v1h-1zM7 9h2v2h-1v-1h-1zM24 9h1v1h3v-1h1v2h-2v1h-1v-1h-1v2h-2v-1h-2v1h1v1h-2v-4h2v1h1v-1h1zM31 9h1v1h-1zM33 9h1v3h-1v-1h-1v-1h1zM6 10h1v1h-1zM10 10h1v1h-1zM30 10h1v1h1v1h-1v1h-2v3h2v3h1v1h-1v1h-2v2h-2v-2h-1v2h1v1h-1v1h2v-1h1v1h1v-1h1v2h-1v1h2v1h-2v4h1v1h-2v-1h-1v-1h1v-1h-2v1h-1v-1h-1v1h1v2h1v1h-2v-2h-1v-4h1v-4h-1v-2h1v-2h1v-1h1v-3h1v-1h-1v-3h3zM1 11h5v1h-5zM7 11h1v1h-1zM11 11h1v1h-1zM6 12h1v1h2v1h-3zM9 12h1v1h-1zM12 12h3v4h-2v-1h-2v-1h3v-1h-2zM18 12h1v4h-1zM32 12h1v1h-1zM3 13h1v2h-1zM10 13h1v1h-1zM1 14h1v1h-1zM22 14h4v1h-1v2h1v2h-1v1h-1v-1h-1v-1h1v-2h-2zM30 14h1v1h-1zM32 14h2v2h-1v-1h-1zM2 15h1v1h1v1h1v-2h3v1h-2v1h2v-1h5v2h-1v-1h-3v3h-2v-1h1v-1h-1v1h-2v1h-1v-2h-2zM16 15h1v1h-1zM20 15h1v1h-1zM26 15h1v1h-1zM31 15h1v1h-1zM15 16h1v1h-1zM19 16h1v1h-1zM21 16h1v1h-1zM16 17h2v2h2v-1h2v5h-1v1h1v2h1v1h-1v1h-2v-2h1v-1h-2v-1h1v-1h-2v2h-2v-1h1v-2h-2v1h1v1h-1v2h4v1h-1v1h1v3h-1v-2h-1v-1h-1v1h1v1h-2v-1h-1v-1h1v-1h-1v-5h-1v-2h2v1h2v-1h-1v-1h-1v-1h1zM29 17v1h-1v2h2v-3zM32 17h1v1h-1zM11 18h1v2h-1zM13 18h1v1h-1zM33 18h1v2h-1zM1 20h1v1h1v-1h1v1h1v-1h1v1h3v2h-1v-1h-2v2h-1v-1h-2v-1h-2zM18 20v1h1v-1zM20 20v2h1v-2zM23 20h1v2h-1zM10 21h2v3h-2v1h-1v-2h1zM33 21h1v7h-1v-2h-1v-2h1zM31 22h1v2h-1zM1 23h2v1h-2zM7 23h1v1h-1zM29 23h1v1h-1zM3 24h1v1h2v1h-5v-1h2zM7 25h2v1h-2zM11 25h2v1h-1v1h-1zM9 26h1v1h1v2h1v-1h1v1h1v1h-2v1h-2v-3h-1zM26 26v3h3v-3zM1 27h7v7h-7zM13 27h1v1h-1zM27 27h1v1h-1zM2 28v5h5v-5zM32 28h1v1h-1zM3 29h3v3h-3zM21 29h1v1h1v2h-1v-1h-1v3h-1v-2h-1v-1h1v-1h1zM33 29h1v3h-3v-1h1v-1h1zM14 30h1v1h-1zM9 31h1v1h-1zM12 31h1v1h-1zM16 31h1v1h-1zM10 32h2v1h1v1h-4v-1h1zM14 32h1v1h2v1h-3zM27 32h1v1h-1zM28 33h1v1h-1zM33 33h1v1h-1z"/></svg>