<svg xmlns="http://www.w3.org/2000/svg" viewBox="0 0 35 35"><path d="M1 1h7v7h-7zM13 1h1v5h1v1h-1v1h-1v-3h-3v4h-1v-6h2v1h1v-1h1zM17 1h1v1h-1zM20 1h3v1h-1v1h1v-1h1v1h1v-1h1v2h-2v1h-1v-1h-2v1h-2v-1h1v-1h1v-1h-1zM24 1h1v1h-1zM27 1h7v7h-7zM2 2v5h5v-5zM11 2h1v1h-1zM16 2h1v3h1v1h-3v-1h1v-1h-1v-1h1zM19 2h1v1h-1zM28 2v5h5v-5zM3 3h3v3h-3zM29 3h3v3h-3zM21 5h1v1h-1zM24 5h1v1h-1zM18 6h1v1h-1zM20 6h1v1h-1zM23 6h1v2h-1zM25 6h1v4h-1v-1h-1v-1h1zM11 7h1v3h1v-1h3v1h-1v1h2v-4h1v2h1v1h1v-2h1v-1h1v1h1v1h-2v1h1v2h-1v-1h-2v1h1v1h-2v-1h-3v1h-1v-1h-1v1h-4v1h-2v1h-1v1h-2v-1h1v-2h1v-2h2v-1h1v1h1v1h1v-1h-1v-2h1zM15 7h1v1h-1zM19 7h1v1h-1zM1 9h1v1h-1zM3 9h5v1h-3v1h-1v-1h-1zM23 9h1v1h-1zM27 9h5v1h2v1h-1v1h1v1h-1v1h1v1h-1v1h-1v-3h-1v1h-2v-3h1v1h1v-1h-1v-1h-2v1h-1zM2 10h1v1h-1zM24 10h1v1h-1zM3 11h1v3h-1v-1h-1v-1h1zM25 11h1v1h-1zM7 12v1h1v-1zM22 12h1v1h-1zM27 12h1v1h-1zM1 13h1v1h1v1h-1v2h2v2h-1v1h-1v-1h-1zM13 13h1v1h-1zM15 13h3v1h-1v1h2v1h-2v1h2v1h-1v1h-1v-1h-1v-2h-1v-1h1v-1h-1zM20 13h1v1h-1zM23 13h1v1h-1zM26 13h1v1h-1zM9 14h1v1h-1zM11 14h2v1h-1v1h-1zM19 14h1v1h-1zM24 14h1v1h-1zM27 14h1v1h-1zM7 15h1v1h-1zM21 15h1v1h3v1h-1v1h1v1h-1v2h-2v-1h1v-1h-3v-2h1zM29 15h1v1h-1zM8 16h1v1h-1zM12 16h1v1h-1zM26 16h2v1h-1v1h1v-1h2v1h-1v1h-2v1h-1zM30 16h2v1h-2zM5 17h3v1h-1v1h2v1h-4zM9 17h1v2h-1zM13 17h1v1h2v1h1v1h-2v-1h-2zM22 17v1h1v-1zM33 17h1v2h-1zM30 18h2v1h1v1h-1v1h-1v1h-3v-1h1v-2h1v1h1v-1h-1zM11 19h2v1h-2zM19 19h1v1h-1zM3 20h2v1h-2zM14 20h1v1h-1zM17 20h1v1h-1zM25 20h1v1h-1zM27 20h1v1h-1zM1 21h2v1h-1v4h-1zM5 21h1v3h1v1h2v1h-4v-1h-2v-1h1v-1h1zM7 21h2v2h-1v-1h-1zM10 21h1v1h-1zM12 21h2v2h-1v-1h-1zM15 21h1v1h-1zM19 21h1v1h-1zM26 21h1v1h1v1h-1v1h1v-1h2v1h2v-1h1v1h1v1h-3v1h-1v3h1v1h1v-1h-1v-3h1v1h1v3h1v1h-3v1h1v1h-2v1h-2v-2h-3v-1h-1v-1h1v-1h-1v-1h-1v-3h1v2h1v-2h-1v-1h1v-1h1zM32 21h1v1h-1zM16 22h2v1h-2zM20 22h3v1h1v1h-1v1h-1v2h-2v-3h1v-1h-1zM24 22h1v1h-1zM33 22h1v1h-1zM7 23h1v1h-1zM10 23h3v1h-3zM15 23h1v1h-1zM18 23h2v1h-2zM13 24h2v1h-2zM17 24h1v1h-1zM10 25h1v1h-1zM12 25h1v1h2v-1h1v2h1v1h-1v1h2v1h-1v1h2v-1h1v-1h1v1h2v1h-1v1h-1v-1h-1v1h-3v1h2v1h-3v-1h-2v1h-3v-1h2v-2h-1v1h-1v-1h-1v1h-1v-4h1v-1h2v1h1v-1h-1zM18 25h1v3h1v1h-2v-2h-1v-1h1zM9 26h1v1h-1zM26 26v3h3v-3zM33 26h1v1h-1zM1 27h7v7h-7zM14 27v1h1v-1zM27 27h1v1h-1zM2 28v5h5v-5zM22 28h1v1h-1zM3 29h3v3h-3zM10 29v1h3v-1zM23 29h1v1h-1zM14 30v2h1v-1h1v-1zM27 30v1h1v-1zM23 31h1v1h-1zM29 31v1h1v-1zM20 32h1v1h-1zM22 32h1v1h-1zM9 33h1v1h-1zM23 33h3v1h-3zM32 33h1v1h-1z"/></svg>