<svg xmlns="http://www.w3.org/2000/svg" viewBox="0 0 35 35"><path d="M1 1h7v7h-7zM10 1h2v1h-2zM13 1h1v1h-1zM15 1h1v1h-1zM17 1h1v2h-2v-1h1zM19 1h3v1h-2v1h-1zM23 1h2v1h-2zM27 1h7v7h-7zM2 2v5h5v-5zM12 2h1v1h-1zM22 2h1v1h1v1h1v2h-1v-1h-1v-1h-2v-1h1zM28 2v5h5v-5zM3 3h3v3h-3zM9 3h1v2h1v-1h3v1h-1v1h-3v3h-1zM15 3h1v1h-1zM25 3h1v1h-1zM29 3h3v3h-3zM19 4h1v1h-1zM15 5h4v1h-3v2h-1v-1h-1v2h2v1h-1v1h2v1h-2v1h-1v-3h-2v1h-1v-4h1v2h1v-3h2zM21 5h2v1h1v3h1v-2h1v3h-1v1h-1v3h-1v-1h-1v-1h1v-3h-1v2h-2v-2h-1v-3h2v1h-1v1h1v-1h1v1h1v-1h-1v-1h-1zM17 7h1v2h-1zM1 9h1v3h-1zM3 9h5v1h-3v1h1v1h-2v-2h-1zM18 9h1v3h1v1h-2v-2h-1v-1h1zM27 9h5v2h1v2h1v2h-1v1h-1v1h-2v-1h1v-1h-1v-1h-2v-1h1v-2h1v1h1v-1h-1v-1h-2v1h-1zM8 10h2v1h1v1h-2v-1h-1zM33 10h1v1h-1zM7 11h1v1h-1zM12 11h1v1h-1zM26 11h1v1h-1zM3 12h1v2h-1v2h1v1h-2v-3h-1v-1h2zM6 12h1v1h-1zM8 12h1v1h-1zM11 12h1v1h-1zM25 12h1v1h1v1h1v2h-1v-1h-1v-1h-1zM27 12h1v1h-1zM7 13h1v1h-1zM9 13h2v3h3v2h-1v1h-1v-1h-2v1h-2v-1h1v-1h1v-1h-3v-1h1v-1h1v1h1v-1h-1zM13 13h1v1h1v1h-2zM15 13h3v1h-1v1h1v1h-1v1h2v1h-1v2h-1v1h-2v-1h1v-1h1v-1h-2v-2h1v-2h-1zM20 13h1v1h-1zM31 13v1h1v-1zM5 14h1v1h-1zM19 14h1v3h-1zM22 14h1v1h-1zM24 14h1v1h-1zM21 15h1v1h3v-1h1v1h1v2h1v-1h2v1h-1v1h-1v1h-1v-1h-1v-1h-1v1h-1v-1h-1v-1h-1v2h-2v1h-1v-2h1v-1h1zM5 16h2v1h-1v1h-1v1h-1v-2h1zM1 17h1v1h1v1h-2zM7 17h1v1h-1zM33 17h1v2h-1zM6 18h1v1h-1zM30 18h2v1h1v1h-1v1h-1v2h-1v-1h-1v-3h1v1h1v-1h-1zM7 19h1v1h-1zM11 19h1v1h-1zM14 19h1v1h-1zM23 19h1v1h-1zM1 20h6v1h1v1h-1v1h-1v-2h-4v1h1v1h-1v3h-1zM8 20h1v1h-1zM12 20h2v1h-2zM22 20h1v1h-1zM24 20h3v2h1v1h-1v1h-1v-2h-1v1h-1zM9 21h3v1h-1v1h-1v-1h-1zM14 21h1v2h1v1h-1v1h1v1h-2v-3h-1v-1h1zM19 21h1v1h-1zM33 21h1v2h-1zM16 22h3v1h-3zM20 22h3v1h-1v1h1v1h-1v3h1v1h-2v-2h-2v1h1v1h-2v1h-1v-2h1v-1h-1v-3h1v1h1v1h1v-2h1v-1h-1zM4 23h1v2h-2v-1h1zM7 23h1v1h-1zM11 23h2v3h-2v-1h1v-1h-1zM19 23h1v1h-1zM23 23h1v1h-1zM28 23h1v1h-1zM32 23h1v1h1v1h-4v-1h2zM6 24h1v1h2v-1h2v1h-1v2h-1v-1h-4v-1h1zM23 25h7v4h1v1h-1v1h-1v1h1v-1h1v1h1v1h-1v1h-4v-3h1v-1h-1v1h-1v1h-1v-1h-1v-1h1v-1h-1v-1h-1v-1h2v-1h-2zM26 26v3h3v-3zM31 26h3v1h-1v1h-1v1h-1zM1 27h7v7h-7zM10 27h1v1h1v1h-2v2h2v1h-1v2h-2v-1h1v-1h-1v-4h1zM12 27h3v2h1v1h1v1h1v1h-1v2h-2v-1h-1v1h-2v-1h1v-2h2v-1h-1v-1h-1v-1h-1zM16 27h1v1h-1zM27 27h1v1h-1zM2 28v5h5v-5zM3 29h3v3h-3zM23 29h1v1h-1zM33 29h1v2h-2v-1h1zM18 30h4v2h-1v-1h-1v1h-1v-1h-1zM20 32h1v1h-1zM22 32h2v1h2v1h-3v-1h-1zM18 33h1v1h-1zM21 33h1v1h-1zM32 33h1v1h-1z"/></svg>