<svg xmlns="http://www.w3.org/2000/svg" viewBox="0 0 35 35"><path d="M1 1h7v7h-7zM10 1h1v2h1v-2h2v3h-1v1h-3v3h1v1h-2v-6h1zM15 1h1v1h-1zM17 1h1v1h-1zM19 1h4v2h1v2h1v1h-1v2h-1v-2h-2v-1h2v-1h-1v-1h-1v-1h-1v1h-1zM24 1h1v1h-1zM27 1h7v7h-7zM2 2v5h5v-5zM16 2h1v1h1v1h-1v1h1v1h-3v-1h1v-1h-1v-1h1zM25 2h1v1h-1zM28 2v5h5v-5zM3 3h3v3h-3zM29 3h3v3h-3zM19 4h1v1h-1zM20 6h1v1h-1zM11 7h1v1h-1zM13 7h1v1h-1zM15 7h1v1h-1zM17 7h1v2h1v3h3v-1h1v2h-5v-2h-1zM19 7h1v1h1v-1h1v1h1v1h-1v2h-2v-2h-1zM25 7h1v1h-1zM12 8h1v2h1v-1h2v1h-1v1h2v2h-1v-1h-1v1h-1v-2h-3v2h3v1h-1v1h1v1h-2v-2h-2v-1h-1v-1h1v-2h1v-1h1zM1 9h1v1h-1zM3 9h5v1h-1v1h1v1h-3v-1h-1v-1h-1zM23 9h1v1h1v1h-2zM25 9h1v1h-1zM27 9h5v2h1v1h-1v1h-1v2h1v-2h1v1h1v1h-1v1h-1v1h-1v1h2v-1h1v2h-1v1h1v1h-1v1h-1v-1h-1v1h-3v-1h1v-2h1v1h1v-1h-1v-1h-1v1h-2v-1h1v-1h1v-2h1v-1h-2v-1h1v-2h1v1h1v-1h-1v-1h-2v2h-2v-1h1zM2 10h1v1h1v1h-3v-1h1zM8 10h1v1h-1zM33 10h1v1h-1zM4 12h1v2h2v1h-3v1h-2v1h-1v-4h3zM33 12h1v1h-1zM7 13h1v1h-1zM15 13h1v1h-1zM17 13h1v1h-1zM23 13h1v1h1v1h-1v1h2v1h1v1h-2v-1h-1v1h1v1h-3v1h-1v-1h-1v1h-1v-2h1v-1h1v-2h1v1h1v-1h-1v-1h1zM25 13h2v1h-2zM2 14v1h1v-1zM9 14h1v1h-1zM16 14h1v1h2v1h-2v2h-1v-1h-1v-1h1zM19 14h1v1h-1zM27 14h1v2h-1zM7 15h2v1h-2zM10 15h1v2h3v1h2v1h-3v-1h-1v1h-1v1h-4v-1h1v-1h-1v-1h2v1h1v-1h-1v-1h1zM6 16h1v1h-1zM2 17h1v1h-1zM4 17h1v1h1v1h-1v1h-1zM18 17h1v1h-1zM22 17v1h1v-1zM1 18h1v1h-1zM17 18h1v3h-2v1h3v2h-1v-1h-2v1h-1v-2h-1v-1h1v-1h1v-1h1zM2 19h1v1h1v1h-1v2h-1v3h-1v-4h1zM25 19h2v3h-1v-1h-1zM5 20h1v1h-1zM12 20h1v1h-1zM22 20h2v1h-2zM4 21h1v1h1v1h-2zM7 21h4v1h2v1h-1v1h-1v2h1v3h1v-1h1v1h1v1h2v1h2v-1h4v1h-1v1h-1v-1h-1v1h-3v1h2v1h-4v-1h-1v-1h2v-1h-2v-1h-1v2h-1v1h-1v-1h-2v-4h2v-1h-2v-1h1v-4h-1v2h-2v-1h1v-1h-1zM19 21h1v1h-1zM24 21h1v2h-1zM20 22h3v1h1v1h-1v1h-1v2h-3v1h4v1h-5v-2h-1v-1h1v-1h1v1h1v-2h1v-1h-1zM27 22h1v1h-1zM31 22h1v1h1v1h1v1h-3v1h-1v3h1v1h1v-1h1v1h1v1h-2v2h-1v1h-3v-2h-1v-1h1v-1h-1v1h-1v-1h-1v-1h-1v-1h-1v-3h1v1h1v-1h1v-1h-1v-1h2v2h3v-1h1zM33 22h1v1h-1zM3 23h1v1h-1zM29 23h1v1h-1zM5 24h2v1h-1v1h-2v-1h1zM12 24h1v1h-1zM17 24h1v1h-1zM24 24h1v1h-1zM7 25h1v1h-1zM14 25h1v1h-1zM15 26h1v1h-1zM26 26v3h3v-3zM31 26h1v1h1v1h-1v1h-1zM33 26h1v1h-1zM1 27h7v7h-7zM14 27h1v1h-1zM16 27h1v1h-1zM27 27h1v1h-1zM2 28v5h5v-5zM3 29h3v3h-3zM17 29h1v1h-1zM23 29h1v1h-1zM11 30v1h1v-1zM24 30h1v1h1v1h-1v1h1v-1h1v2h-4v-1h-1v-1h1v-1h1zM29 31v1h1v-1zM20 32h1v1h-1zM9 33h2v1h-2zM13 33h1v1h-1zM21 33h1v1h-1zM32 33h1v1h-1z"/></svg>