<svg xmlns="http://www.w3.org/2000/svg" viewBox="0 0 35 35"><path d="M1 1h7v7h-7zM10 1h1v1h1v-1h2v2h-2v1h1v1h5v1h-2v2h-1v-1h-1v-1h-2v-1h-1v-1h-1v4h1v1h-2v-6h1zM17 1h1v3h-1v-1h-1v-1h1zM20 1h5v1h-5zM27 1h7v7h-7zM2 2v5h5v-5zM19 2h1v1h-1zM28 2v5h5v-5zM3 3h3v3h-3zM15 3h1v1h-1zM20 3h1v2h-2v-1h1zM22 3h2v1h1v-1h1v2h-1v1h-1v-1h-1v-1h-1zM29 3h3v3h-3zM21 5h1v1h-1zM18 6h3v1h-1v1h1v-1h1v1h1v1h-2v1h1v1h-2v-2h-1v-2h-1zM22 6h1v1h-1zM11 7h1v1h-1zM13 7h1v1h-1zM17 7h1v2h-1zM23 7h1v1h-1zM25 7h1v1h-1zM24 8h1v1h1v1h-1v1h-1v1h1v1h1v-2h1v-2h5v2h1v2h-2v2h-1v-1h-2v-1h1v-2h1v1h1v-1h-1v-1h-2v3h-1v1h-2v1h-2v1h1v2h1v1h-2v1h1v1h-2v-1h-1v-1h-1v1h-1v-2h1v-1h1v1h2v-1h-2v-2h1v-1h1v-1h-2v-1h2v-3h1zM1 9h1v1h1v1h-1v1h2v2h-1v-1h-2zM3 9h5v1h-1v1h2v1h-2v1h-1v1h1v1h-2v1h-2v-1h1v-1h1v-2h1v-2h-1v1h-1v-1h-1zM12 9h4v1h-1v1h2v1h-2v1h-1v-3h-1v1h-1v2h-1v-2h-2v-1h3zM18 9h1v3h1v1h-2v-2h-1v-1h1zM33 10h1v1h-1zM7 13h1v1h-1zM9 13h2v2h-2v1h-2v-1h1v-1h1zM12 13h1v1h-1zM15 13h1v1h-1zM17 13h1v1h-1zM33 13h1v2h-1v1h-1v1h-1v1h1v1h1v1h1v3h-1v-1h-1v-1h-1v1h-2v-3h1v1h1v-1h-1v-1h-1v1h-2v-1h1v-1h-1v1h-2v-3h2v1h1v-1h1v1h2v-1h1v-1h1zM2 14h1v1h-1zM16 14h1v1h1v1h-1v1h2v1h-1v1h-1v-1h-1zM19 14h1v1h-1zM27 14h1v1h-1zM11 15h1v1h-1zM13 15h2v2h-1v1h1v1h-1v2h-1v1h-2v-1h-1v-1h-1v-1h-1v-1h2v1h1v1h1v-2h1zM1 16h1v3h-1zM5 16h2v1h1v1h-1v1h1v1h-1v1h-2v-1h1v-3h-1zM10 16h1v1h1v1h-2zM19 16h1v1h-1zM3 17h2v1h-2zM33 17h1v2h-1zM2 19h3v1h-1v1h1v2h1v-1h1v1h2v-2h1v2h2v1h-2v1h-2v-1h-1v1h1v1h-2v-1h-1v-1h-1v-2h-1v-2h-1zM16 19h1v1h-1zM26 19h1v1h1v1h-1v1h-1zM1 20h1v2h1v1h-1v3h-1zM8 20h1v1h-1zM15 20h1v2h2v1h-3zM17 20h1v1h-1zM7 21h1v1h-1zM19 21h1v1h-1zM20 22h3v1h-1v1h1v-1h1v1h1v-1h2v-1h1v1h1v1h3v-1h1v1h1v1h-4v4h1v1h1v-1h2v2h-3v1h1v1h-2v1h-2v-2h-1v-1h1v-1h-1v1h-1v1h-2v-2h1v-1h-1v-1h-1v-1h1v-1h-1v-1h-1v2h-2v-2h-1v-1h-1v-1h2v1h1v-1h-1zM24 22h1v1h-1zM14 23h1v1h-1zM3 24h1v1h-1zM13 24h1v2h-1zM17 24h1v1h-1zM27 24v1h1v-1zM11 25h1v2h3v-2h1v2h1v1h-5v1h-1v-2h-2v-1h2zM18 25h1v3h1v1h-2v1h-1v-2h1v-1h-1v-1h1zM26 26v3h3v-3zM31 26h1v1h1v1h-1v1h-1zM33 26h1v1h-1zM1 27h7v7h-7zM27 27h1v1h-1zM2 28v5h5v-5zM9 28h1v1h1v2h-1v1h-1zM22 28h1v1h-1zM3 29h3v3h-3zM12 29h3v1h-1v2h-2v1h-1v-2h1zM23 29h1v1h-1zM16 30h1v1h2v-1h4v1h-1v1h-1v-1h-1v1h-3v2h-1zM29 31v1h1v-1zM20 32h1v1h-1zM22 32h1v1h-1zM26 32h1v1h-1zM9 33h2v1h-2zM13 33h1v1h-1zM18 33h1v1h-1zM21 33h1v1h-1zM23 33h3v1h-3zM32 33h1v1h-1z"/></svg>