<svg xmlns="http://www.w3.org/2000/svg" viewBox="0 0 35 35"><path d="M1 1h7v7h-7zM10 1h2v1h-1v3h1v1h1v1h-1v2h-1v-3h-1v3h-1v-6h1zM17 1h1v2h-1v2h2v2h-1v-1h-3v1h-1v-2h2v-1h-1v-1h1v-1h1zM19 1h4v1h-3v1h-1zM24 1h1v1h-1zM27 1h7v7h-7zM2 2v5h5v-5zM28 2v5h5v-5zM3 3h3v3h-3zM12 3h2v2h-1v-1h-1zM21 3h3v2h1v1h-4v-1h2v-1h-2zM25 3h1v2h-1zM29 3h3v3h-3zM19 4h2v1h-2zM20 6h1v1h-1zM25 6h1v3h-2v-1h1zM13 7h1v1h-1zM15 7h1v4h1v-1h1v-1h1v1h1v-1h-1v-2h1v1h1v-1h1v1h1v1h-2v1h1v1h1v2h-2v-2h-2v1h1v1h-2v1h-1v1h1v-1h2v1h-1v1h-2v1h2v1h-1v1h-1v-1h-1v-4h-1v-1h2v-1h-2v1h-1v-3h-1v-1h2zM17 7h1v2h-1zM23 7h1v1h-1zM1 9h1v2h-1zM3 9h5v1h-2v1h-1v-1h-2zM23 9h1v1h1v1h-2zM27 9h5v2h1v3h1v1h-1v1h-1v-3h-1v2h-1v-1h-1v-3h1v1h1v-1h-1v-1h-2v1h-1zM8 10h4v2h-1v-1h-2v1h2v3h-1v-2h-1v2h-1v-1h-2v-1h2v-1h-1v-1h1zM33 10h1v1h-1zM3 11h2v1h1v1h-1v1h-2v1h-2v-1h1v-1h2v-1h-1zM26 11h1v1h1v1h-1v1h1v1h-2v-2h-1v-1h1zM13 13h1v1h-1zM23 13h2v2h-2zM3 15h2v1h-1v1h-1zM7 15h1v1h-1zM11 15h1v2h-1v3h-1v-1h-1v2h-1v-1h-1v-1h1v-1h-1v1h-1v1h-1v-3h3v-1h3zM13 15h1v1h1v5h2v1h2v1h-3v4h-1v-1h-2v-1h-1v-1h1v-1h1v2h1v-3h-3v-1h-1v-1h1v-3h1zM21 15h2v1h2v1h2v1h-2v1h-1v-1h-1v-1h-1v1h1v1h-3v1h-1v-2h1v-1h1zM25 15h1v1h-1zM29 15h1v1h2v1h-2v1h-1v1h-2v-1h1v-1h1zM1 16h1v2h-1zM27 16h1v1h-1zM9 17v1h1v-1zM33 17h1v2h-1zM3 18h1v1h-1zM30 18h2v1h1v2h-2v3h1v-1h1v1h1v1h-4v-3h-2v-1h1v-2h1v1h1v-1h-1zM2 19h1v1h-1zM16 19h1v1h-1zM25 19h2v1h1v1h-1v1h1v1h1v1h-1v1h2v4h1v1h-1v1h-1v1h3v1h-2v1h-7v-1h-1v-1h-1v-1h-1v1h1v1h-2v-2h-1v-1h5v1h1v-1h1v1h1v-1h-1v-1h-1v-1h-1v-1h1v-1h1v-1h1v-3h-1zM1 20h1v1h1v1h-1v4h-1zM3 20h1v1h-1zM6 20h1v1h-1zM13 20v1h1v-1zM17 20h1v1h-1zM20 20h1v2h1v1h1v1h2v1h-1v1h-1v-1h-2v1h1v1h-3v1h4v1h-5v-2h-1v-1h1v-1h1v1h1v-1h-1v-2h1v1h1v-1h-1v-1h-1v-1h1zM22 20h2v1h-2zM7 21h1v1h-1zM33 21h1v2h-1zM3 22h1v2h3v1h-1v1h-1v-1h-2zM5 22h2v1h-2zM8 22h1v1h-1zM10 22h1v3h-1v-1h-1v-1h1zM24 22h1v1h-1zM7 23h1v1h-1zM8 24h1v1h-1zM17 24h1v1h-1zM7 25h1v1h-1zM11 25h1v1h-1zM9 26h2v1h-2zM12 26h1v1h1v1h2v-1h1v2h-1v1h1v1h1v1h-1v1h2v1h-4v-1h-2v-1h-1v-3h-1v-1h1zM26 26v3h3v-3zM31 26h3v1h-1v3h1v1h-2v-2h-1zM1 27h7v7h-7zM27 27h1v1h-1zM2 28v5h5v-5zM9 28h1v1h1v1h-1v2h-1zM3 29h3v3h-3zM13 29v2h2v1h1v-1h-1v-1h-1v-1zM17 29h1v1h-1zM23 29h1v1h-1zM27 30v1h1v-1zM11 32h1v2h-1zM25 32v1h3v-1zM9 33h1v1h-1zM32 33h1v1h-1z"/></svg>