<svg xmlns="http://www.w3.org/2000/svg" viewBox="0 0 35 35"><path d="M1 1h7v7h-7zM10 1h2v3h-2v4h1v-1h1v2h-1v1h2v-3h1v2h1v-2h1v3h-1v1h2v2h1v1h-1v1h2v1h-2v1h2v1h-1v3h-1v1h1v1h-2v-1h-1v-2h-1v-2h1v-1h1v-1h-1v-1h1v-1h-1v-1h1v-1h-1v1h-2v1h-1v1h-3v-1h2v-3h-1v-2h-1v-6h1zM15 1h1v1h-1zM17 1h1v2h-1v2h2v1h-4v-1h1v-1h-1v-1h1v-1h1zM19 1h6v1h-3v1h2v2h-1v-1h-2v-2h-1v1h-1zM27 1h7v7h-7zM2 2v5h5v-5zM28 2v5h5v-5zM3 3h3v3h-3zM29 3h3v3h-3zM13 4h1v2h-1zM19 4h1v1h-1zM21 5h2v2h-1v-1h-1zM24 5h1v1h-1zM20 6h1v1h-1zM17 7h1v2h-1zM19 7h1v1h-1zM21 7h1v1h1v-1h1v3h-1v-1h-2v1h1v1h1v1h1v1h1v-2h1v2h1v1h1v1h-2v-1h-1v1h-2v1h2v1h2v1h-2v1h-1v-1h-1v-1h-2v-2h1v-1h1v-1h-1v-1h-1v-1h-2v1h2v1h-3v-2h-1v-1h1v-1h1v1h1v-2h1zM25 7h1v3h-1zM1 9h1v1h-1zM3 9h5v1h-2v2h1v1h1v-1h2v1h-1v1h-2v1h1v1h-1v1h-1v-1h-1v2h-1v1h1v1h-2v-1h-2v-2h1v1h1v-1h1v-2h2v-2h-1v-3h-1v4h-1v1h-1v1h-1v-2h1v-1h1v-2h-1v-1h1zM27 9h5v2h1v1h-1v1h-1v1h-3v-1h1v-2h1v1h1v-1h-1v-1h-2v2h-1zM24 10h1v1h-1zM33 10h1v1h-1zM7 11h1v1h-1zM13 11v1h1v-1zM32 13h1v1h1v1h-1v1h-1v1h-2v-2h2zM13 14h2v1h-2zM19 14h1v1h-1zM25 15h1v1h-1zM8 16h1v1h-1zM11 16h2v1h-1v1h1v2h1v2h-2v-1h-1v1h-1v1h-2v-1h1v-1h-1v-1h1v-3h2zM19 16h1v1h-1zM27 16h2v1h1v1h-1v1h-1v2h-1v-3h1v-1h-1zM7 17h1v1h-1zM13 17h1v1h-1zM20 17h1v1h2v1h-1v1h1v1h-2v-2h-1zM33 17h1v2h-1v1h1v1h-1v1h-1v-1h-1v1h-2v-3h1v1h1v-1h-1v-1h3zM6 18h1v1h1v1h-1v1h-1zM10 18v2h2v-1h-1v-1zM16 18v1h1v-1zM19 19h1v1h-1zM23 19h1v1h-1zM25 19h1v1h-1zM24 20h1v1h2v1h1v1h1v1h-2v-1h-1v-1h-1v1h-1zM2 21h3v1h-3zM7 21h1v1h-1zM19 21h2v1h2v1h1v1h1v1h-1v1h-1v-1h-2v1h1v2h1v1h-5v-2h-1v-1h1v-1h1v1h1v-2h1v-1h-1v-1h-1zM1 22h1v4h-1zM5 22h2v1h1v1h-1v1h-2v-1h1v-1h-1zM14 22h1v1h1v1h-2v1h-1v2h2v1h-1v1h1v1h-2v-1h-1v-1h-1v-1h-2v-1h1v-1h1v-1h-1v-1h2v1h1v-1h1zM33 22h1v1h-1zM4 23h1v1h-1zM30 23h1v1h1v-1h1v1h1v1h-3v1h-1v3h1v1h-1v1h-1v1h1v-1h1v1h1v1h-2v1h-2v-1h-1v-1h-1v-2h-1v-1h-1v-1h-1v-1h2v-2h5zM3 24h1v1h1v1h-2zM17 24h1v1h-1zM7 25h1v1h-1zM14 25h1v1h-1zM15 26h1v1h-1zM26 26v3h3v-3zM31 26h1v1h1v1h1v1h-3zM33 26h1v1h-1zM1 27h7v7h-7zM16 27h1v1h-1zM19 27v1h2v-1zM27 27h1v1h-1zM2 28v5h5v-5zM9 28h2v1h-1v3h-1zM3 29h3v3h-3zM16 29h2v1h-1v1h2v1h-2v2h-5v-1h1v-2h2v2h1v-2h-1v-1h1zM23 29h1v1h-1zM11 30h2v1h-2zM19 30h3v1h1v2h-1v-1h-1v-1h-2zM27 30v1h1v-1zM31 30h3v1h-3zM10 32h1v1h-1zM19 32h2v1h-2zM24 32h1v1h1v1h-3v-1h1zM9 33h1v1h-1zM18 33h1v1h-1zM21 33h1v1h-1zM32 33h1v1h-1z"/></svg>