<svg xmlns="http://www.w3.org/2000/svg" viewBox="0 0 35 35"><path d="M1 1h7v7h-7zM12 1h1v2h-1v3h-1v-1h-1v3h1v1h-2v-6h1v-1h2zM17 1h1v1h-1zM20 1h5v1h-1v1h-1v1h-3v-1h2v-1h-2zM27 1h7v7h-7zM2 2v5h5v-5zM16 2h1v1h-1zM19 2h1v1h-1zM25 2h1v2h-1zM28 2v5h5v-5zM3 3h3v3h-3zM15 3h1v1h-1zM29 3h3v3h-3zM16 4h1v1h1v1h-3v1h-1v1h-1v-2h1v-1h2zM19 4h1v1h-1zM23 4h2v2h-1v-1h-1zM21 5h1v1h-1zM19 6h2v1h-1v1h-1zM25 6h1v2h-1zM11 7h1v1h-1zM15 7h1v3h-1v1h2v1h1v-1h-1v-1h1v-1h1v1h1v-2h1v-1h1v1h1v1h-1v3h-1v-1h-2v1h1v1h-2v1h-1v-1h-1v-1h-1v1h-1v-2h-2v1h1v1h-1v1h2v1h-1v1h-1v1h-1v-1h-1v-2h1v-4h2v-1h2zM17 7h1v2h-1zM23 7h1v1h-1zM24 8h1v1h-1zM1 9h1v2h-1zM3 9h5v1h-2v3h-1v-1h-1v2h-2v-1h1v-1h-1v-1h3v-1h-2zM23 9h1v1h1v1h-2zM27 9h5v2h1v1h-1v1h-1v1h-3v-1h1v-2h1v1h1v-1h-1v-1h-2v1h-1v1h1v1h-1v1h-1v-1h-1v2h-1v-1h-1v-1h1v-1h1v-1h1v-1h1zM8 10h1v1h-1zM33 10h1v1h-1zM7 11h1v1h-1zM8 12h2v2h-1v-1h-1zM22 12h1v1h-1zM7 13h1v1h-1zM15 13h1v1h-1zM20 13h1v1h-1zM32 13h1v1h1v1h-1v1h-1v1h-2v1h-1v1h-1v1h-2v1h-2v-1h1v-1h1v-1h-1v-3h1v1h1v2h1v-1h1v-1h-2v-2h1v1h4zM1 14h1v2h-1zM4 14h1v1h-1zM6 14h1v1h-1zM8 14h1v2h-2v-1h1zM16 14h1v1h1v1h-1v2h-1v-1h-2v-2h1v1h1zM18 14h2v2h-1v-1h-1zM5 15h1v1h1v1h-2v1h2v1h-1v1h-1v-1h-1v1h-1v-1h-1v-1h2v-2h1zM21 15h2v1h1v2h-1v-1h-2zM1 17h1v1h-1zM7 17h1v1h-1zM12 17h2v1h-1v1h2v1h-3v1h-1v-1h-1v3h-1v-4h1v-1h2zM18 17h1v1h-1zM20 17h1v1h1v1h-2zM33 17h1v2h-1v1h-1v1h-1v1h-3v-1h1v-2h1v1h1v-1h-1v-1h3zM15 18h1v1h-1zM17 18h1v3h-1v-1h-1v-1h1zM24 18h1v1h-1zM7 19h1v1h-1zM19 19h1v1h-1zM23 19h1v1h-1zM20 20h1v2h1v2h1v1h-2v1h1v1h-2v-2h-1v-1h2v-1h-1v-1h-1v-1h1zM22 20h1v1h-1zM1 21h1v1h1v1h-1v3h-1zM4 21h1v2h-1zM6 21h2v1h-1v1h1v1h-1v1h-3v-1h1v-1h1zM12 21h2v1h1v1h1v4h-1v-3h-1v-1h-3v-1h1zM26 21h1v1h1v1h-1v1h1v1h1v-2h1v1h2v-1h1v1h1v1h-3v1h-1v3h1v1h1v-1h-1v-3h1v1h1v3h1v1h-3v1h1v1h-2v1h-3v-3h1v-1h-1v1h-1v-1h-1v-1h-1v-1h-1v-3h1v2h1v-2h1zM32 21h2v2h-1v-1h-1zM16 22h2v1h-2zM24 22h1v1h-1zM10 23h1v1h1v2h-1v-1h-1zM8 24h1v1h-1zM17 24h1v1h-1zM7 25h1v1h-1zM9 25h1v1h1v2h1v-1h1v-1h1v2h-1v1h-2v1h-1v1h1v2h1v1h-3v-1h1v-1h-1v-4h1v-1h-1zM18 25h1v3h1v1h-2v-2h-1v-1h1zM26 26v3h3v-3zM33 26h1v1h-1zM1 27h7v7h-7zM16 27h1v2h-1zM27 27h1v1h-1zM2 28v5h5v-5zM14 28h1v3h-1zM22 28h1v1h-1zM3 29h3v3h-3zM17 29h1v1h-1zM20 29h1v1h2v3h-1v-1h-1v-1h-1v1h-1v-1h-1v-1h2zM23 29h1v1h-1zM12 30h1v1h-1zM16 30h1v1h1v1h-1v2h-1v-1h-1v-2h1zM24 30h1v1h-1zM13 31h1v2h-2v-1h1zM25 31h1v1h-1zM29 31v1h1v-1zM20 32h1v1h-1zM24 32h1v1h1v1h-3v-1h1zM18 33h1v1h-1zM21 33h1v1h-1zM32 33h1v1h-1z"/></svg>