<svg xmlns="http://www.w3.org/2000/svg" viewBox="0 0 35 35"><path d="M1 1h7v7h-7zM10 1h1v1h2v2h-1v-1h-1v1h-1v1h4v4h2v2h1v-1h1v-1h1v3h1v1h-2v-1h-1v1h1v1h-1v1h2v-1h1v2h-3v2h-1v-2h-1v-1h1v-1h-1v-1h1v-1h-1v1h-1v-3h-2v1h-1v-1h-1v-1h1v-3h-1v3h-1v-6h1zM15 1h1v1h-1zM17 1h1v3h-1v-1h-1v-1h1zM19 1h3v1h2v1h-1v1h-1v-1h-1v-1h-1v1h-1zM24 1h1v1h-1zM27 1h7v7h-7zM2 2v5h5v-5zM25 2h1v3h-1v-1h-1v-1h1zM28 2v5h5v-5zM3 3h3v3h-3zM15 3h1v1h-1zM20 3h1v1h-1zM29 3h3v3h-3zM16 4h1v1h1v1h-2v2h-1v-3h1zM19 4h1v1h-1zM23 4h1v1h-1zM21 5h2v1h-2zM24 5h1v1h-1zM12 6v2h1v-2zM20 6h1v1h-1zM25 6h1v3h-2v-1h1zM17 7h1v2h-1zM19 7h1v1h-1zM21 7h1v1h1v1h-2v1h1v1h-2v-3h1zM23 7h1v1h-1zM1 9h1v1h-1zM3 9h5v1h-2v1h-1v-1h-2zM23 9h1v1h-1zM27 9h5v2h1v1h-1v1h-1v2h-1v-1h-1v-3h1v1h1v-1h-1v-1h-2v2h-1zM2 10h1v1h-1zM9 10h1v1h1v1h-2zM24 10h1v1h-1zM33 10h1v1h-1zM1 11h1v1h1v-1h2v1h-1v2h-1v-1h-1v1h-1zM7 11h1v1h-1zM12 11h1v2h-1v1h1v-1h1v1h1v1h-1v2h-2v-1h-1v-1h-1v-1h-3v-1h4v-1h1zM23 11h1v1h-1zM25 11h1v1h1v2h-1v-1h-1v2h-1v-1h-1v-1h1v-1h1zM5 12h1v2h1v1h2v3h-2v-1h1v-1h-1v1h-1v1h-2v1h-2v-5h1v2h3v-1h-2v-1h1zM22 12h1v1h-1zM33 12h1v1h-1zM20 13h1v1h-1zM32 13h1v1h1v1h-1v1h-1zM27 14h1v1h1v1h-2zM21 15h1v1h1v1h-1v3h-1v-1h-1v1h-1v-2h1v-1h1zM23 15h1v1h-1zM10 16h1v1h1v1h-1v2h-2v1h2v1h-2v1h2v2h-3v-1h-1v1h-1v-3h1v1h1v-1h-1v-1h1v-1h-1v-1h2v-1h1zM24 16h1v1h-1zM26 16h1v2h-2v-1h1zM30 16h2v1h-2zM18 17h1v1h-1zM23 17h1v1h-1zM28 17h2v1h-1v1h-1v1h-1v2h1v1h-2v-2h-1v2h-1v-3h1v-1h2v-1h1zM33 17h1v2h-1zM6 18h1v1h-1zM12 18h2v2h-1v1h-1zM15 18h1v1h1v-1h1v2h-1v2h1v1h-2v1h-1v1h-1v-2h1v-1h1v-2h-1zM24 18h1v1h-1zM30 18h2v1h1v3h-1v-1h-1v1h-2v-3h1v1h1v-1h-1zM1 19h1v1h-1zM4 19h1v2h1v1h-1v1h-1v1h-1v-1h-1v3h-1v-4h1v-2h1v2h1zM6 20h1v1h-1zM14 20h1v2h-1zM22 20h1v1h-1zM19 21h2v1h2v1h-1v1h1v1h-2v1h1v1h-2v-2h-1v-1h2v-1h-1v-1h-1zM11 22h1v1h-1zM13 22h1v1h-1zM31 22h1v1h-1zM33 22h1v1h-1zM18 23h1v1h-1zM30 23h1v1h1v-1h1v1h1v1h-4zM4 24h1v1h-1zM12 24h1v1h1v1h1v-1h1v2h-3v-1h-2v-1h1zM17 24h1v1h1v3h1v1h-2v1h-1v-2h-1v-1h1zM24 24h2v1h1v-1h1v1h2v4h1v1h-1v1h-1v1h1v-1h1v-1h2v-1h1v2h-2v2h-2v1h-2v-1h-1v-1h-3v1h2v1h-3v-1h-1v-1h-1v-1h-2v-1h1v-1h1v1h1v1h2v-1h1v-1h-1v-1h-1v-1h2v-2h-1zM5 25h1v1h-1zM7 25h1v1h-1zM23 25h1v1h-1zM9 26h1v1h-1zM26 26v3h3v-3zM31 26h3v1h-1v2h-2zM1 27h7v7h-7zM10 27h2v1h-2zM27 27h1v1h-1zM2 28v5h5v-5zM9 28h1v4h-1zM13 28h1v1h1v3h-1v-1h-2v-1h1zM22 28h1v1h-1zM3 29h3v3h-3zM11 29h1v1h-1zM23 29h1v1h-1zM16 30h1v1h2v1h-2v2h-1zM27 30v1h1v-1zM11 31h1v1h1v1h1v1h-5v-1h2zM19 32h2v1h-2zM18 33h1v1h-1zM21 33h1v1h-1zM32 33h1v1h-1z"/></svg>