<svg xmlns="http://www.w3.org/2000/svg" viewBox="0 0 35 35"><path d="M1 1h7v7h-7zM12 1h2v1h-2zM15 1h2v1h2v1h-1v1h-1v-1h-1v-1h-1zM20 1h1v4h-1zM22 1h3v2h1v1h-1v3h-1v1h1v1h-2v2h-2v-1h1v-1h-1v-2h1v1h1v-1h-1v-2h1v1h1v-1h-1v-1h1v-2h-1v1h-1zM27 1h7v7h-7zM2 2v5h5v-5zM9 2h2v1h-2zM14 2h1v1h-1zM28 2v5h5v-5zM3 3h3v3h-3zM12 3h2v1h1v1h-2v1h-1v-1h-1v-1h1zM29 3h3v3h-3zM16 4h1v1h-1zM18 4h1v2h-1zM9 5h1v1h-1zM13 6h3v2h-1v-1h-1v1h-1zM9 7h1v1h-1zM11 7h1v2h2v-1h1v2h-1v1h1v1h-1v2h-4v-1h3v-3h-1v2h-1v-3h-1v-1h1zM17 7h1v1h1v2h-1v-1h-1zM19 7h1v1h-1zM25 7h1v1h-1zM1 9h1v1h1v1h-1v1h-1zM3 9h1v1h-1zM5 9h1v3h-1v-1h-1v-1h1zM7 9h1v1h-1zM16 9h1v1h-1zM20 9h1v1h-1zM25 9h1v1h2v1h1v1h-3v-1h-1zM29 9h1v1h-1zM32 9h1v1h-1zM9 10h1v3h-1v-1h-2v-1h2zM17 10h1v1h1v1h-1v1h-2v-1h1zM33 10h1v3h-2v-1h-1v-1h2zM23 11h1v2h-1v1h-2v-1h1v-1h1zM3 12h2v2h-1v-1h-1zM6 12h1v1h2v1h-2v1h-1v3h1v1h-2v-1h-2v-1h2v-1h-2v-1h2v-1h1zM20 12h1v1h-1zM25 12h1v1h-1zM29 12h1v1h-1zM26 13h3v1h-1v1h-1v-1h-1zM30 13h1v1h1v1h1v-1h1v2h-1v1h-1v-1h-1v-1h-1zM2 14h1v1h-1zM9 14h1v1h3v1h-1v1h-1v-1h-2v1h-1v-1h-1v-1h2zM16 14h1v1h-1zM20 14h1v1h-1zM25 14h1v1h1v1h-2zM1 15h1v1h1v1h-2zM18 15h2v1h2v-1h2v1h-1v2h-1v-1h-1v1h-1v-1h-1v2h-1v1h1v-1h1v6h-1v1h-1v1h-1v-1h-1v-1h1v-1h-1v-1h-1v-1h-1v1h1v1h-2v-7h1v4h1v-1h1v2h1v-5h1zM29 15h1v2h-2v1h1v2h-1v-1h-3v-1h-1v-1h3v-1h2zM14 16h3v1h-3zM7 17h1v1h-1zM9 17h1v2h1v1h1v1h-1v3h-1v2h1v-1h2v1h-1v1h-1v1h-1v-1h-1v-1h-3v-1h3v-2h1v-1h-1v1h-1v-1h-1v-1h1v-1h1v1h1v-1h-1zM30 17h1v1h-1zM11 18h1v1h-1zM15 18h1v1h-1zM21 18h1v2h-1zM23 18h1v2h-1zM33 18h1v10h-3v-1h1v-1h1v-2h-2v-1h1v-3h-1v-1h2zM2 19h3v1h2v1h-1v4h-1v1h-2v-1h1v-1h-1v-1h-1v-1h-1v-1h1zM7 19h1v1h-1zM3 20v2h2v-1h-1v-1zM22 20h1v1h1v1h-1v1h-2v-2h1zM24 20h2v1h-2zM29 20h1v1h-1zM18 21v1h1v-1zM26 21h2v3h-1v-1h-2v-1h1zM30 21h1v2h-1zM1 23h1v1h-1zM7 23h1v1h-1zM29 23h1v1h-1zM2 24h1v1h-1zM21 24h5v1h5v2h-1v1h1v2h-1v1h1v1h-1v1h-3v1h-3v-1h-1v1h-2v-1h1v-1h2v-2h1v-2h-1v-1h1v-1h-1v-1h-1v1h-1v-1h-1zM1 25h1v1h-1zM14 25h1v1h1v2h2v1h-1v2h-2v-4h-1v6h1v1h-3v-1h-2v-1h-1v-1h1v-1h1v2h2v-2h-2v-2h1v1h1v-3h1zM20 25h1v1h-1zM19 26h1v1h-1zM21 26h1v1h-1zM26 26v3h3v-3zM1 27h7v7h-7zM18 27h1v1h-1zM22 27h1v3h-1v1h-1v-1h-1v-2h1v1h1zM27 27h1v1h-1zM2 28v5h5v-5zM3 29h3v3h-3zM9 29h1v1h-1zM32 29h2v3h-1v-2h-1zM26 30v1h-1v1h4v-1h-1v-1zM19 31h1v2h-1v1h-2v-1h1v-1h1zM16 32h1v1h-1zM32 32h1v1h1v1h-2zM9 33h1v1h-1zM30 33h1v1h-1z"/></svg>