<svg xmlns="http://www.w3.org/2000/svg" viewBox="0 0 35 35"><path d="M1 1h7v7h-7zM9 1h1v1h1v2h-2zM11 1h1v1h-1zM13 1h3v2h1v1h1v2h1v1h-1v2h1v1h2v1h-3v-1h-1v-1h-1v1h1v3h-1v-2h-1v3h1v1h1v1h-2v-1h-3v-2h-1v-1h-1v-1h1v-1h1v-1h-1v-2h1v1h1v-1h-1v-1h4v-1h-1v-1h-1v-2h-1zM18 1h2v1h3v-1h1v3h-1v1h1v1h-2v-1h-3v-1h3v-1h-3v-1h-1zM27 1h7v7h-7zM2 2v5h5v-5zM12 2h1v2h1v1h-2zM25 2h1v1h-1zM28 2v5h5v-5zM3 3h3v3h-3zM29 3h3v3h-3zM24 4h2v1h-2zM9 5h2v1h-2zM20 6h1v1h-1zM24 6h2v3h1v2h1v1h1v1h-1v1h-1v-2h-1v-2h-1v2h-1v-1h-2v-1h2v-1h-1v-2h1v1h1v-1h-1zM9 7h1v1h-1zM14 7v1h1v-1zM16 7v1h1v-1zM19 7h1v1h-1zM21 7h1v1h-1zM1 9h1v1h-1zM4 9h7v1h-1v1h-1v-1h-4v1h-1zM13 9v2h-1v1h1v-1h1v-1h1v-1zM29 9h1v1h1v-1h3v1h-2v1h2v1h-2v1h-1v-1h-2v-1h-1v-1h1zM1 11h1v3h-1zM3 11h1v1h-1zM7 11h1v1h-1zM9 12h1v4h-1v-2h-3v-1h3zM19 12h2v1h1v3h-2v1h-1v-1h-1v-3h1v1h1v-1h-1zM23 12h1v1h-1zM4 13h1v1h1v1h-3v-1h1zM13 13v1h1v-1zM24 14h1v1h-1zM26 14h1v2h1v1h2v-1h2v1h-1v1h-1v1h-1v-1h-1v2h2v-1h1v-1h1v3h-1v1h-1v-1h-3v-1h-3v2h1v3h-2v-1h1v-1h-1v-4h-1v2h-1v-1h-3v-2h1v1h1v-2h2v1h1v-1h1v2h2v-1h-1v-1h-1v-1h1v-1h1zM28 14h1v1h-1zM30 14h1v1h-1zM1 15h1v1h-1zM7 15h1v1h-1zM11 15h1v1h-1zM23 15h1v1h-1zM29 15h1v1h-1zM3 16h1v1h1v-1h2v1h-1v1h1v1h-1v1h-1v-2h-2v5h-1v2h1v-2h1v-1h1v-1h1v2h2v-1h-1v-1h2v1h2v3h1v1h-2v1h1v2h-1v1h1v4h-2v-1h1v-2h-1v-6h1v-1h-1v1h-1v-1h-1v1h1v1h-2v-2h-2v1h1v1h-4v-6h1v-1h-1v-1h1v-1h1zM8 16h1v2h-2v-1h1zM10 16h1v2h-1zM12 16h1v2h-1zM17 16h1v1h-1zM33 16h1v1h-1zM14 17h3v3h-1v-2h-1v1h-1zM11 18h1v1h-1zM33 18h1v4h-1zM7 19h1v1h-1zM9 19h2v1h-2zM13 20h1v1h-1zM17 20h1v2h-3v1h-1v1h-2v-2h-1v-1h2v1h1v-1h3zM19 21h2v2h-1v-1h-1zM28 22h2v3h1v1h-1v4h-3v2h-2v-2h-1v1h-1v-3h1v-1h-2v-1h3v-1h4v-1h-1zM31 22h1v1h2v3h-1v1h-1v1h2v1h-1v1h1v3h-5v-1h-1v-1h3v-1h1v-1h-1v-3h1v-1h-1zM18 23h1v1h3v1h-4zM14 24h1v1h1v1h-3v-1h1zM16 24h1v1h-1zM16 26h3v2h1v-1h2v1h-1v1h-2v1h-1v1h-1v-1h-1v-1h1v-1h-2v-1h1zM26 26v3h3v-3zM1 27h7v7h-7zM13 27h1v4h-2v-1h1v-1h-1v-1h1zM27 27h1v1h-1zM2 28v5h5v-5zM3 29h3v3h-3zM11 29h1v1h-1zM21 29h1v2h-1v1h-1v1h-1v-3h2zM15 31h2v1h-2zM22 31h1v1h-1zM13 32h1v1h-1zM21 32h1v1h-1zM23 32h1v1h-1zM14 33h1v1h-1zM16 33h1v1h-1zM18 33h1v1h-1zM20 33h1v1h-1zM24 33h5v1h-5z"/></svg>