<svg xmlns="http://www.w3.org/2000/svg" viewBox="0 0 35 35"><path d="M1 1h7v7h-7zM9 1h2v1h-1v2h-1zM12 1h4v4h-1v-1h-2v-2h-1zM18 1h1v1h-1zM22 1h2v2h1v2h-1v-1h-1v1h1v1h-1v1h-1v-2h-1v-1h1v-1h1v-1h-1zM27 1h7v7h-7zM2 2v5h5v-5zM11 2h1v2h1v2h1v2h-1v-1h-1v-1h-1v-1h-1v-1h1zM17 2h1v1h-1zM19 2h2v2h-1v-1h-1zM28 2v5h5v-5zM3 3h3v3h-3zM29 3h3v3h-3zM17 4h1v1h1v1h-1v3h-2v1h1v1h1v2h-1v-1h-1v-1h-1v3h1v1h1v1h-2v-1h-1v-1h-1v-1h-1v1h-1v1h-1v2h-2v-1h1v-2h-2v-1h3v-1h4v-2h1v-1h-1v-1h1v-2h1v-1h1zM19 4h1v1h-1zM9 5h1v1h-1zM14 5h1v1h-1zM10 6h1v1h-1zM20 6h1v1h-1zM24 6h2v2h-1v-1h-1zM9 7h1v1h-1zM11 7h1v2h2v1h-2v1h-4v-1h-1v1h-2v-1h-1v-1h6v1h1v-1h-1v-1h1zM16 7v1h1v-1zM19 7h1v1h-1zM21 7h1v1h-1zM23 7h1v1h-1zM24 8h1v1h2v2h-1v-1h-1v2h2v1h-1v1h-1v1h-1v1h1v1h1v-3h1v3h2v-1h3v1h-1v1h-1v1h-1v-1h-1v2h2v-1h1v-1h1v3h-1v1h-1v-1h-4v-1h1v-2h-4v-4h1v-3h-1v-1h1zM1 9h1v1h2v1h-1v1h-1v-1h-1zM18 9h1v1h2v1h-3zM21 9h1v1h-1zM29 9h1v1h1v-1h3v1h-1v1h1v1h-2v1h-1v-1h-2v-1h-1v-1h1zM7 11h1v1h-1zM22 11h1v1h-1zM27 11h1v1h-1zM1 12h1v1h-1zM3 12h1v1h-1zM5 12h1v1h-1zM19 12h1v1h-1zM21 12h1v4h-2v1h-1v-2h-1v-2h1v1h1v-1h1zM28 12h1v1h-1zM2 13h1v1h-1zM4 13h1v1h-1zM16 13h1v1h-1zM27 13h1v1h-1zM33 13h1v1h-1zM5 14h1v1h-1zM28 14h1v2h-1zM30 14h2v1h-2zM1 15h3v1h-3zM7 15h1v1h-1zM11 15h1v1h-1zM13 15h1v1h-1zM4 16h1v1h1v1h-1v1h4v-1h1v2h-6v-2h-1v1h-1v-1h-1v-1h3zM6 16h1v1h-1zM14 16h1v1h-1zM17 16h1v2h-1v1h1v-1h1v1h1v-2h2v4h-1v-1h-5v-1h-1v-2h2zM33 16h1v1h-1zM7 17h1v1h-1zM10 17h4v1h-1v1h1v1h-1v2h-1v-4h-2zM33 18h1v2h-1zM1 19h1v1h-1zM23 19h3v1h-3zM15 20h1v1h2v1h-2v1h-1zM7 21h1v1h-1zM9 21h1v1h-1zM19 21h1v1h-1zM23 21h1v1h1v2h-1v1h-1v-1h-1v-1h1zM32 21h1v1h-1zM1 22h1v3h1v-1h1v-1h-1v-1h4v1h1v-1h1v3h-1v-1h-2v-1h-1v1h1v2h-1v-1h-1v1h-3zM10 22h1v2h1v1h-1v1h-1v1h1v-1h2v1h1v1h2v1h2v-2h-1v1h-1v-2h3v2h1v1h-1v1h1v-1h1v-1h1v3h-1v1h-2v-1h-2v-1h-2v2h-1v-1h-1v1h-1v-2h1v-1h-2v-1h-1v2h1v1h-2v-6h1zM20 22h1v1h-1zM28 22h2v1h-1v1h1v6h-3v3h-1v-3h-2v2h1v1h1v1h-2v-1h-1v-5h1v-1h1v-1h-1v-1h1v-1h2v1h1zM14 23h1v1h-1zM19 23h1v1h2v2h-1v-1h-3v-1h1zM31 23h3v3h-2v-1h-1zM13 24h1v2h-1zM15 24h2v1h-1v1h-1zM7 25h1v1h-1zM22 26h1v1h-1zM26 26v3h3v-3zM31 26h1v2h1v2h1v3h-5v-1h-1v-1h2v1h1v-1h-1v-1h2v-1h-1zM1 27h7v7h-7zM20 27h1v1h-1zM27 27h1v1h-1zM2 28v5h5v-5zM3 29h3v3h-3zM16 31h1v1h-1zM21 32h1v2h-2v-1h1zM9 33h2v1h-2zM15 33h2v1h-2zM18 33h1v1h-1zM27 33h2v1h-2z"/></svg>