<svg xmlns="http://www.w3.org/2000/svg" viewBox="0 0 35 35"><path d="M1 1h7v7h-7zM10 1h1v1h1v1h2v2h2v-1h-1v-1h1v-1h1v-1h1v3h-1v1h2v1h-4v1h-1v1h-1v-1h-1v1h1v2h-2v2h1v1h-1v2h-1v-2h-1v-1h1v-3h-1v-6h1zM19 1h3v1h-2v1h-1zM23 1h2v1h-1v1h-1v1h-3v-1h2v-1h1zM27 1h7v7h-7zM2 2v5h5v-5zM28 2v5h5v-5zM3 3h3v3h-3zM24 3h1v1h1v1h-1v1h-1v-1h-1v-1h1zM29 3h3v3h-3zM19 4h1v1h-1zM11 5v1h2v-1zM21 5h2v1h1v2h-1v-1h-1v-1h-1zM19 6h2v1h-1v1h-1zM10 7v1h1v-1zM15 7h1v4h1v-4h1v2h1v3h5v2h-1v-1h-5v-1h-1v1h1v1h-1v1h1v1h-1v1h2v1h-1v1h-1v-1h-1v1h-1v-1h-2v-1h1v-1h-1v1h-1v-1h-1v-1h2v-1h-1v-1h2v1h1v2h1v-2h-1v-1h1v-1h-1v1h-1v-2h-1v-1h1v-1h1zM21 7h1v1h1v1h-1v1h1v-1h1v1h1v1h-5v-3h1zM25 7h1v1h-1zM24 8h1v1h-1zM1 9h1v1h-1zM3 9h5v1h-1v1h2v1h-2v1h-2v-1h-2v2h1v2h-2v-3h-1v-2h2zM25 9h1v1h-1zM27 9h5v2h1v1h1v3h-1v1h-1v-3h-1v2h-1v-1h-1v-3h1v1h1v-1h-1v-1h-2v1h-1v1h-1v-2h1zM4 10v1h2v-1zM33 10h1v1h-1zM27 12h1v1h-1zM7 13h2v1h-2zM25 13h2v1h1v3h-1v-2h-1v-1h-1zM6 14h1v1h-1zM19 14h1v3h-1zM22 14h1v1h-1zM24 14h1v1h-1zM7 15h1v1h-1zM9 15h1v2h-1v1h1v1h-1v2h-1v-1h-1v-1h1v-1h-1v1h-1v2h-1v-1h-1v2h-1v1h-1v3h-1v-4h1v-1h-1v-2h2v-1h3v-1h2v-1h1zM21 15h1v1h1v1h-2zM23 15h1v1h-1zM25 15h1v2h-2v-1h1zM1 16h1v1h-1zM4 16h2v1h-2zM29 16h3v1h-2v1h-1v1h-3v-2h1v1h1v-1h1zM10 17h2v1h1v1h-2v-1h-1zM20 17h1v1h1v2h1v-3h1v1h1v1h-1v1h3v2h1v1h-2v-2h-6v-1h1v-1h-1v1h-1v-2h1zM33 17h1v2h-1zM30 18h2v1h1v1h-1v1h-1v1h1v1h1v1h1v1h-4v4h1v1h-1v1h-1v1h1v-1h1v1h1v1h-2v1h-2v-1h-1v-1h-2v-1h1v-1h-1v-1h-1v-1h-1v-1h1v-1h-1v-1h2v-2h1v2h1v-1h1v1h1v-1h1v-2h-2v-1h1v-2h1v1h1v-1h-1zM10 19h1v1h-1zM14 19h1v1h-1zM16 19h1v1h-1zM11 20h1v1h-1zM13 20h1v1h1v-1h1v2h3v1h1v1h1v-1h-1v-1h2v2h1v1h-1v3h-1v-1h-1v-2h-1v-1h-1v-1h-2v1h-2v-1h1v-1h-3v-1h1zM33 20h1v3h-1zM6 21h2v1h-2zM10 21h1v1h1v1h-1v1h1v1h-1v1h-1v1h-1v-2h1v-1h-4v1h2v1h-5v-1h2v-2h-1v-1h2v1h3v-1h1zM19 21h1v1h-1zM24 22h1v1h-1zM3 23h1v1h-1zM17 24h1v1h1v3h1v1h-2v-2h-1zM13 25h1v1h-1zM26 26v3h3v-3zM31 26h3v1h-1v1h-1v1h-1zM1 27h7v7h-7zM11 27h2v1h-1v1h-1v1h-1v1h1v1h1v1h-1v1h-2v-1h1v-1h-1v-4h2zM14 27h1v1h-1zM16 27h1v2h-1v1h1v1h1v1h-1v2h-1v-2h-1v-1h-4v-1h1v-1h3v-1h1zM27 27h1v1h-1zM2 28v5h5v-5zM22 28h1v1h-1zM3 29h3v3h-3zM17 29h1v1h-1zM23 29h1v1h-1zM33 29h1v2h-3v-1h2zM19 30h3v2h-1v-1h-1v1h-1zM27 30v1h1v-1zM13 32h2v2h-1v-1h-1zM20 32h1v1h-1zM22 32h3v1h1v1h-3v-1h-1zM12 33h1v1h-1zM18 33h1v1h-1zM21 33h1v1h-1zM32 33h1v1h-1z"/></svg>