<svg xmlns="http://www.w3.org/2000/svg" viewBox="0 0 35 35"><path d="M1 1h7v7h-7zM10 1h1v1h-1zM17 1h1v1h-1zM20 1h2v1h1v1h3v2h-1v-1h-1v1h-1v-1h-1v-1h-1v-1h-1zM23 1h2v1h-2zM27 1h7v7h-7zM2 2v5h5v-5zM16 2h1v3h1v1h-2v5h1v-4h1v2h1v3h1v1h-2v-1h-1v1h-1v-1h-1v1h-1v1h-2v-1h1v-2h-3v-1h1v-1h1v1h2v-1h1v-2h-1v-1h1v-1h1v-1h-1v-1h1zM19 2h1v1h-1zM28 2v5h5v-5zM3 3h3v3h-3zM9 3h2v3h-1v2h1v1h-2zM29 3h3v3h-3zM19 4h2v1h-2zM12 5h1v1h-1zM21 5h2v1h-2zM24 5h1v1h-1zM18 6h1v1h-1zM20 6h1v1h-1zM25 6h1v2h-1zM11 7h1v1h-1zM13 7h1v1h-1zM19 7h1v1h1v-1h1v1h1v1h-1v1h1v-1h1v1h1v1h-1v1h-1v-1h-3v-2h-1zM23 7h1v1h-1zM24 8h1v1h-1zM1 9h1v1h-1zM3 9h5v1h-1v1h-1v1h-2v-1h1v-1h-1v1h-1zM27 9h5v1h2v1h-1v1h-1v1h-1v1h-3v-1h1v-2h1v1h1v-1h-1v-1h-2v1h-1zM1 11h1v1h-1zM7 11h3v1h1v2h-1v-1h-1v2h-1v-1h-1v-1h1v-1h-1zM26 11h1v1h1v1h-1v1h1v1h3v-1h2v-1h1v2h-1v1h-1v1h-2v1h-1v1h-1v1h-1v-2h1v-2h-3v-1h1v-1h-1v-1h-1v-1h2zM2 12h2v2h3v1h-1v1h1v1h-2v-1h-2v-3h-1zM22 12h1v1h-1zM15 13h1v1h-1zM17 13h1v1h-1zM20 13h1v1h-1zM23 13h1v1h1v1h-2zM1 14h1v1h-1zM11 14h1v1h-1zM14 14h1v1h-1zM16 14h1v1h1v-1h2v3h-1v-1h-2v2h-1v1h1v-1h1v3h-1v-1h-3v-1h1v-2h1v-1h-1v-1h1zM7 15h1v1h-1zM9 15h1v1h-1zM12 15h1v2h-2v-1h1zM21 15h2v2h-1v1h1v-1h1v1h1v1h-1v2h-2v-2h-2v-2h1zM1 16h2v1h-2zM8 16h1v1h-1zM4 17h1v2h1v1h-2zM7 17h1v1h-1zM10 17h1v1h-1zM18 17h1v1h-1zM25 17h2v1h-2zM33 17h1v2h-1zM2 18h1v1h-1zM6 18h1v1h-1zM9 18h1v1h-1zM11 18h1v1h1v1h-2v1h-1v2h-1v2h-1v-1h-1v-1h1v-1h1v-1h-1v-1h2v-1h1zM30 18h2v1h1v1h-1v1h-1v2h2v1h1v1h-4v-3h-2v-1h1v-2h1v1h1v-1h-1zM1 19h1v1h-1zM7 19h1v1h-1zM19 19h1v1h-1zM3 20h1v1h-1zM6 20h1v1h1v1h-4v-1h2zM13 20h1v1h-1zM33 20h1v1h-1zM1 21h2v2h-1v3h-1zM11 21h1v1h-1zM15 21h2v1h2v1h-3v2h-1v1h-2v1h1v1h-1v1h1v1h-1v1h1v-1h3v1h2v1h-2v2h-1v-2h-2v1h-1v-1h-1v1h1v1h-2v-1h-1v-1h-1v-4h2v1h-1v2h1v-1h1v-2h-1v-2h1v-1h1v-1h1v-1h1zM19 21h1v1h-1zM24 21h3v1h1v2h1v1h1v4h1v1h3v1h-2v2h-1v1h-3v-2h-1v2h-4v-1h-1v-1h-1v-1h-2v-1h4v2h2v1h1v-1h-1v-1h1v-1h-1v-1h-1v-1h-1v-1h2v-1h-2v-1h1v-1h1v-1h1v-1h-1v1h-1zM32 21h1v1h-1zM12 22h2v1h-1v1h-1v1h-1v-2h1zM20 22h3v3h-1v3h-1v-1h-2v1h1v1h-2v1h-1v-2h-1v1h-2v-1h1v-2h1v1h1v-1h1v-1h1v1h1v-1h-1v-2h1v1h1v-1h-1zM33 22h1v1h-1zM5 23h1v1h1v1h-1v1h-2v-1h1zM3 24h1v1h-1zM17 24h1v1h-1zM26 24v1h1v-1zM7 25h1v1h-1zM9 26h1v1h-1zM26 26v3h3v-3zM31 26h3v1h-1v1h1v1h-3zM1 27h7v7h-7zM27 27h1v1h-1zM2 28v5h5v-5zM22 28h1v1h-1zM3 29h3v3h-3zM23 29h1v1h-1zM24 30h1v1h-1zM27 30v1h1v-1zM29 31v1h2v-1zM19 32h2v1h-2zM9 33h1v1h-1zM14 33h1v1h-1zM18 33h1v1h-1zM21 33h1v1h-1zM32 33h1v1h-1z"/></svg>