<svg xmlns="http://www.w3.org/2000/svg" viewBox="0 0 35 35"><path d="M1 1h7v7h-7zM12 1h1v1h1v1h-3v-1h1zM15 1h1v1h-1zM17 1h1v1h-1zM19 1h4v1h-1v1h-1v-1h-1v1h-1zM24 1h1v1h-1zM27 1h7v7h-7zM2 2v5h5v-5zM16 2h1v1h-1zM25 2h1v1h-1zM28 2v5h5v-5zM3 3h3v3h-3zM9 3h1v6h-1zM15 3h1v1h-1zM22 3h2v2h1v1h-1v2h1v-2h1v4h-1v-1h-1v1h-1v-1h-2v1h2v1h1v1h-1v1h-5v1h-1v-2h1v-1h-1v-4h1v2h1v1h1v-2h1v-1h1v1h1v-1h-1v-1h-1v-1h2v-1h-1zM29 3h3v3h-3zM12 4h2v1h-1v2h-1zM19 4h2v1h-2zM25 4h1v1h-1zM15 5h4v1h2v1h-1v1h-1v-1h-1v-1h-2v2h-1zM11 7h1v1h1v-1h1v2h-1v1h-1v-1h-1zM1 9h1v1h1v1h-1v1h1v1h-1v1h3v-2h1v1h2v1h-1v1h-3v1h2v1h2v-1h1v-1h1v1h1v1h-1v2h-1v-1h-3v1h-1v-1h-1v1h-1v-1h-1v-3h-1zM3 9h5v1h-1v1h1v1h-2v-2h-3zM10 9h1v1h-1zM14 9h2v1h-1v1h2v1h-2v1h-2v-1h1v-1h-1v-1h1zM27 9h5v1h2v1h-1v2h-2v1h-3v-1h1v-2h1v1h1v-1h-1v-1h-2v1h-1zM9 10h1v1h-1zM11 10h1v1h1v1h-1v2h-1v1h-1v-1h-1v-2h2zM24 10h1v1h-1zM3 11h2v1h-2zM19 11v1h2v-1zM26 11h1v1h-1zM24 12h1v1h-1zM27 12h1v1h-1zM15 13h1v1h-1zM23 13h1v1h1v1h-2zM26 13h1v1h1v1h-2zM13 14h1v1h-1zM16 14h1v1h1v1h-1v2h-1v-1h-1v2h-2v1h-1v-2h1v-1h1v-1h2zM18 14h2v2h-1v-1h-1zM31 14h3v1h-1v1h-1v-1h-1zM7 15h1v1h-1zM21 15h1v1h3v1h-1v1h1v1h-2v2h-1v-1h-1v-1h-1v1h-1v-2h1v-1h1v1h2v-1h-2zM28 15h3v1h1v1h-2v-1h-1v1h1v1h-1v1h-2v-1h1zM12 16h1v1h-1zM26 16h1v2h-2v-1h1zM18 17h1v1h-1zM33 17h1v2h-1zM1 18h1v2h-1zM17 18h1v1h-1zM30 18h2v1h1v1h1v1h-3v1h-3v-1h1v-2h1v1h1v-1h-1zM4 19h1v1h1v1h2v1h-3v1h-1v-1h-1v1h-1v3h-1v-5h1v-1h1v1h1zM6 19h3v1h-3zM16 19h1v1h-1zM9 20h2v1h-2zM14 20h1v2h-1v1h1v-1h3v1h-2v3h-1v-2h-1v4h1v4h-2v-1h-1v1h-1v-1h-1v1h-1v-4h1v-1h-1v-1h2v-1h1v1h1v-1h-1v-1h1v-1h-1v1h-1v1h-3v-1h-2v-1h3v1h1v-1h1v-1h2v-1h1zM24 20h2v1h1v1h-2v-1h-1zM19 21h1v1h-1zM20 22h2v2h1v1h-2v1h1v1h-3v1h1v1h-2v-2h-1v-1h1v-1h1v1h1v-1h-1v-1h-1v-1h2v1h1v-1h-1zM24 22h1v1h-1zM27 22h1v3h1v-2h2v1h1v-1h1v1h1v1h-4v4h1v1h1v-1h1v1h1v1h-2v2h-2v1h-2v-1h-1v1h-4v-1h3v-1h-1v-1h1v-1h-1v-1h-1v-1h-1v-3h1v2h1v-2h-1v-1h2v-1h1zM31 22h1v1h-1zM33 22h1v1h-1zM3 23h1v1h-1zM5 24h1v1h-1zM17 24h1v1h-1zM3 25h2v1h-2zM7 25h1v1h-1zM26 26v3h3v-3zM31 26h1v1h1v1h-1v1h-1zM33 26h1v1h-1zM1 27h7v7h-7zM11 27v3h3v-1h-1v-1h-1v-1zM15 27h2v2h1v1h-1v1h1v1h-1v1h2v1h-3v-1h-1v-1h1v-4h-1zM27 27h1v1h-1zM2 28v5h5v-5zM22 28h1v1h-1zM3 29h3v3h-3zM20 29h1v1h1v1h1v2h-1v-1h-1v-1h-1v1h-1v-1h-1v-1h2zM23 29h1v1h-1zM27 30v1h1v-1zM29 31v1h1v-1zM20 32h1v1h-1zM9 33h1v1h-1zM11 33h1v1h-1zM32 33h1v1h-1z"/></svg>