<svg xmlns="http://www.w3.org/2000/svg" viewBox="0 0 35 35"><path d="M1 1h7v7h-7zM11 1h3v1h-2v1h-2v-1h1zM15 1h1v1h-1zM17 1h1v1h-1zM20 1h5v1h-1v1h-1v-1h-1v1h-1v-1h-1zM27 1h7v7h-7zM2 2v5h5v-5zM16 2h1v1h-1zM19 2h1v1h-1zM28 2v5h5v-5zM3 3h3v3h-3zM9 3h1v1h3v-1h1v2h-1v2h-1v2h-1v-2h-1v2h-1zM15 3h1v1h-1zM17 3h1v1h-1zM22 3h1v1h-1zM24 3h1v1h-1zM29 3h3v3h-3zM16 4h1v1h1v1h-4v-1h2zM19 4h2v1h-2zM23 4h1v1h-1zM25 4h1v1h-1zM10 5v1h2v-1zM21 5h2v1h-2zM24 5h1v1h-1zM20 6h1v1h-1zM25 6h1v4h-1v-1h-1v-1h1zM13 7h1v2h-1zM15 7h1v1h-1zM17 7h1v2h-1zM19 7h1v1h1v-1h1v1h1v1h-2v1h2v1h-1v1h-1v-1h-1v-2h-1zM23 7h1v1h-1zM1 9h1v1h-1zM3 9h5v1h-1v1h1v1h-1v1h-1v1h-2v1h1v1h-2v2h-1v1h-1v-4h2v-3h1v-1h1v-1h-2zM10 9h1v1h-1zM12 9h1v2h1v-2h2v1h-1v1h2v1h-2v1h-1v1h-1v1h3v-1h1v1h1v1h-1v2h-2v-1h1v-1h-2v3h1v1h-1v1h-1v-3h-2v1h1v2h-2v1h-3v-1h1v-1h-1v-1h1v-1h-1v1h-3v-2h2v-1h1v1h2v1h1v-2h1v1h2v-1h-2v-1h-1v-1h1v-1h1zM18 9h1v3h1v1h-2v1h-1v-2h1v-1h-1v-1h1zM23 9h1v1h-1zM27 9h5v1h2v1h-1v1h1v1h-1v1h1v1h-1v1h-1v-1h-1v1h1v1h-1v1h1v1h1v1h1v1h-1v1h-1v-1h-1v1h-3v-1h1v-2h1v1h1v-1h-1v-1h-1v1h-2v1h-1v-3h1v1h1v-2h1v-1h1v-1h-2v-1h1v-2h1v1h1v-1h-1v-1h-2v1h-1v1h-1v-2h1zM8 10h2v1h-2zM24 10h1v1h-1zM1 11h1v1h-1zM23 11h1v1h-1zM22 12h1v1h-1zM24 12h2v1h-2zM7 13h2v3h-2v-1h1v-1h-1zM15 13h1v1h-1zM23 13h1v1h1v1h-1v1h1v3h-1v-1h-1v-1h-1v2h-2v1h-1v-2h1v-1h1v-2h2zM26 13h1v1h1v1h-1v1h-1zM31 13v1h1v-1zM18 14h2v2h-1v-1h-1zM18 17h1v1h-1zM33 17h1v2h-1zM17 18h1v2h-1v2h1v1h-2v-2h-1v-1h1v-1h1zM3 19h1v1h-1zM9 19v1h1v-1zM22 19h1v2h-3v-1h2zM1 20h1v1h-1zM2 21h1v1h1v1h1v1h-1v1h1v1h-2v-3h-1v3h-1v-4h1zM12 21h1v1h-1zM19 21h1v1h-1zM24 21h3v1h-2v1h-1zM5 22h2v1h-2zM11 22h1v1h1v1h-1v2h-2v-1h1zM14 22h1v1h-1zM20 22h3v1h-1v1h2v2h-1v-1h-2v1h1v1h-2v-2h-1v-1h-1v-1h2v1h1v-1h-1zM27 22h1v2h-1zM33 22h1v1h-1zM7 23h1v1h-1zM25 23h1v1h-1zM31 23h2v1h1v1h-3v1h-1v3h1v1h-1v1h-1v1h1v-1h1v-1h3v1h-2v2h-2v1h-3v-1h-1v-1h1v-1h1v-1h-1v1h-1v-1h-1v-1h-1v-1h-1v-1h2v-2h3v-1h1v1h1v-1h1zM6 24h1v1h-1zM9 24h1v1h-1zM13 24h2v2h1v1h-2v-2h-1zM17 24h1v1h1v3h4v1h-5v1h-1v1h2v1h-2v1h2v1h-10v-1h1v-1h2v1h1v-1h2v1h1v-1h-1v-1h-3v-1h4v-3h1zM7 25h1v1h-1zM9 26h1v1h-1zM12 26h1v1h1v1h-3v1h-1v3h-1v-4h1v-1h2zM26 26v3h3v-3zM31 26h3v1h-1v1h1v1h-3zM1 27h7v7h-7zM27 27h1v1h-1zM2 28v5h5v-5zM3 29h3v3h-3zM11 29h1v1h-1zM23 29h1v1h-1zM19 30h3v1h2v1h-1v1h-1v-1h-1v-1h-2zM20 32h1v1h-1zM24 32h1v1h1v1h-3v-1h1zM32 33h1v1h-1z"/></svg>