<svg xmlns="http://www.w3.org/2000/svg" viewBox="0 0 35 35"><path d="M1 1h7v7h-7zM9 1h1v3h-1zM11 1h1v3h1v1h-1v3h-1v-2h-2v-1h1v-1h1zM13 1h2v1h1v2h1v-2h1v3h1v1h-1v3h1v1h2v1h-3v-1h-1v-1h-1v1h1v1h1v2h-1v-1h-1v-1h-1v3h1v1h-1v1h-2v-1h1v-1h-1v-1h-1v-1h2v-2h1v-1h-1v-1h1v-1h1v1h1v-1h-1v-2h-1v-1h-1v-2h-1zM18 1h2v1h1v1h1v-1h1v-1h1v3h-1v1h1v1h-2v-1h-3v-1h1v-1h-1v-1h-1zM27 1h7v7h-7zM2 2v5h5v-5zM28 2v5h5v-5zM3 3h3v3h-3zM25 3h1v2h-2v-1h1zM29 3h3v3h-3zM14 5h1v2h-1v1h-1v-2h1zM19 6h2v1h-1v1h-1zM24 6h1v1h-1zM9 7h1v1h-1zM21 7h1v1h-1zM23 7h1v1h-1zM25 7h1v2h1v1h-2zM12 8h1v1h1v1h-1v1h-1v1h-1v-1h-1v-1h2zM1 9h1v2h-1zM4 9h6v1h-3v1h-1v1h1v1h-1v2h2v1h-5v-1h1v-1h1v-1h-1v-1h1v-2h-1zM29 9h1v1h1v-1h3v1h-2v1h2v3h-2v-1h-1v-1h-2v-1h-1v-1h1zM3 10h1v2h-1zM23 10h2v3h-1v-2h-1zM7 11h3v1h1v1h-1v2h-1v-1h-2v-1h2v-1h-2zM22 11h1v1h-1zM1 12h1v1h1v2h-1v-1h-1zM19 12h3v2h3v1h-1v1h-1v-1h-1v1h-4v-1h1v-1h2v-1h-2zM28 12h1v1h-1zM11 13h1v1h1v1h-1v1h-1zM18 13h1v1h-1zM25 13h1v1h-1zM27 13h1v1h-1zM28 14h1v1h1v-1h1v2h1v1h-1v1h-1v1h-1v-1h-1v2h-1v-1h-1v-1h-1v-2h2v1h3v-1h-2zM1 15h1v2h2v2h-1v-1h-2zM16 15h1v1h-1zM9 16h2v1h-2zM12 16h1v1h-1zM17 16h1v2h-1v1h1v-1h1v1h1v-2h2v2h-1v1h-4v1h1v1h-2v-2h-1v-1h1v-2h1zM33 16h1v1h-1zM6 17h2v1h-1v1h1v1h-2v1h2v-1h1v1h1v-1h1v1h1v2h1v2h-4v-1h-2v-1h3v1h1v-1h-1v-1h-5v-1h-1v-2h1v-1h1zM11 17h1v1h-1zM14 17h1v1h-1zM23 17h1v1h-1zM8 18h1v1h-1zM10 18h1v1h-1zM12 18h1v2h-1zM31 18h1v2h1v1h1v1h-2v-1h-1v1h-1v-1h-1v1h1v1h-1v1h-2v-1h1v-3h2v-1h1zM33 18h1v2h-1zM2 19h1v1h-1zM23 19h3v3h-1v2h-1v-1h-1v-2h2v-1h-2zM1 20h1v5h1v-2h2v1h-1v1h1v-1h2v1h-1v1h-5zM13 20h1v3h-1zM3 21h1v1h-1zM19 21h2v2h-1v-1h-1zM15 22h1v1h-1zM31 22h1v1h2v3h-1v1h-1v1h2v5h-3v1h-1v-1h-1v-1h-1v-1h3v1h1v-3h-1v-3h1v-1h-1zM19 23h1v1h-1zM22 23h1v1h-1zM16 24h1v1h-1zM18 24h1v1h-1zM20 24h2v1h-2zM25 24h2v1h4v1h-1v4h-3v4h-3v-2h-2v-1h-1v1h-1v-1h-1v-1h2v-1h1v1h1v-2h1v-1h1v-1h-1v-1h1zM7 25h2v1h-2zM13 25h1v3h-1zM9 26h3v2h-1v-1h-1v1h1v1h-1v1h1v1h-2zM15 26h5v1h-1v1h1v-1h1v2h-2v1h-1v1h-1v-2h-1v-2h-1zM22 26h2v1h-2zM26 26v3h3v-3zM1 27h7v7h-7zM27 27h1v1h-1zM2 28v5h5v-5zM12 28h1v1h-1zM14 28h1v2h-1zM3 29h3v3h-3zM11 29h1v1h-1zM12 30h2v1h-2zM15 30h1v1h1v1h-1v1h1v1h-5v-2h3zM25 30v1h1v-1zM11 31h1v1h-1zM10 32h1v1h-1zM19 32h1v1h-1zM21 32h1v2h-2v-1h1zM25 32v1h1v-1zM9 33h1v1h-1zM18 33h1v1h-1zM28 33h1v1h-1z"/></svg>