<svg xmlns="http://www.w3.org/2000/svg" viewBox="0 0 35 35"><path d="M1 1h7v7h-7zM17 1h1v1h-1zM19 1h6v1h-1v1h-1v1h-1v-2h-2v1h-1zM27 1h7v7h-7zM2 2v5h5v-5zM10 2h1v1h1v2h-1v-1h-1v1h1v1h-1v2h1v-1h1v1h1v1h3v1h-1v1h2v-4h1v2h1v3h1v1h-2v1h-1v1h1v1h-1v2h-1v-2h-1v-1h1v-1h-1v-1h1v-1h-1v1h-1v-1h-1v-1h-1v-1h-2v-1h-1v-6h1zM16 2h1v1h-1zM25 2h1v2h-1v2h-1v-1h-1v-1h1v-1h1zM28 2v5h5v-5zM3 3h3v3h-3zM13 3h1v2h2v-1h1v1h2v1h2v1h-1v1h1v-1h1v1h1v-1h-1v-1h-1v-1h2v1h1v2h1v-1h1v2h-1v2h-1v-1h-1v-1h-1v2h-2v-2h-1v-2h-1v-1h-2v2h-1v-2h-3v-1h1zM15 3h1v1h-1zM29 3h3v3h-3zM19 4h1v1h-1zM13 7h1v1h-1zM1 9h1v1h1v2h2v1h-4v-1h1v-1h-1zM3 9h5v1h-1v1h-1v-1h-3zM27 9h5v2h1v2h1v2h-1v1h-1v1h-1v1h1v1h1v1h1v1h-1v1h-1v-1h-1v1h-3v-1h1v-2h1v1h1v-1h-1v-1h-1v1h-3v-2h1v1h1v-1h2v-1h1v-1h1v-2h-1v1h-3v-1h1v-2h1v1h1v-1h-1v-1h-2v3h-1v1h-2v-1h1v-3h1zM8 10h1v1h-1zM33 10h1v1h-1zM7 11h1v1h-1zM9 12h3v3h-1v-1h-2zM21 12h4v1h-1v1h1v1h-2v-2h-2zM7 13h1v1h-1zM13 13h1v2h-1zM1 14h1v1h2v3h1v2h2v1h1v1h-1v1h1v1h-3v-1h1v-2h-1v1h-1v2h-1v-1h-1v3h-1v-7h1v1h2v-1h-2v-1h-1zM4 14h2v1h2v1h-1v1h-1v-1h-1v-1h-1zM18 14h2v3h-1v-2h-1zM27 14h1v1h-1zM9 15h1v2h1v2h-2v-2h-1v-1h1zM12 15h1v1h-1zM21 15h2v2h-2zM28 15h2v1h-2zM2 16v1h1v-1zM11 16h1v1h-1zM24 16h2v1h-2zM7 17h1v1h-1zM14 17h1v1h-1zM18 17h1v1h-1zM20 17h1v1h2v3h-3v-1h1v-1h-1v1h-1v-2h1zM23 17h1v1h-1zM33 17h1v2h-1zM12 18h1v1h-1zM15 18h1v1h-1zM17 18h1v3h-3v2h-1v-1h-1v-1h-2v-1h5v-1h1zM24 18h1v1h-1zM7 19h1v1h-1zM25 19h1v1h1v2h-1v-1h-1zM9 20h1v1h-1zM19 21h1v1h-1zM24 21h1v2h-1zM9 22h4v1h1v1h-1v1h2v1h-3v-1h-1v-1h1v-1h-3zM16 22h3v1h-3zM20 22h2v1h1v2h-2v1h1v2h1v1h-5v-1h-1v1h-1v-1h-1v-2h1v1h1v-1h1v-1h1v3h2v-1h-1v-3h1v-1h-1zM27 22h1v1h-1zM33 22h1v1h-1zM15 23h1v2h-1zM25 23h2v1h-1v1h1v-1h1v1h2v4h1v1h1v-1h-1v-3h1v1h1v1h1v3h-2v2h-2v1h-3v-2h-2v1h1v1h-3v-1h1v-1h-1v-1h1v-1h1v-1h-1v-1h-1v-3h1v-1h1zM29 23h4v1h1v1h-4v-1h-1zM17 24h1v1h-1zM3 25h1v1h-1zM5 25h6v2h3v1h-1v1h-1v-1h-2v-1h-1v-1h-4zM26 26v3h3v-3zM33 26h1v1h-1zM1 27h7v7h-7zM27 27h1v1h-1zM2 28v5h5v-5zM9 28h1v1h1v1h-1v2h-1zM3 29h3v3h-3zM14 29h2v1h-1v3h-1v1h-1v-2h1zM17 29h1v1h-1zM23 29h1v1h-1zM11 30h1v3h-2v-1h1zM16 30h1v1h2v1h-2v2h-1zM19 30h4v1h-1v1h-1v-1h-2zM27 30v1h1v-1zM29 31v1h1v-1zM20 32h1v1h-1zM22 32h1v1h-1zM9 33h1v1h-1zM18 33h1v1h-1zM21 33h1v1h-1zM32 33h1v1h-1z"/></svg>