<svg xmlns="http://www.w3.org/2000/svg" viewBox="0 0 35 35"><path d="M1 1h7v7h-7zM10 1h2v2h-1v1h-1v1h1v2h-1v1h1v1h-2v-6h1zM15 1h1v1h-1zM17 1h1v2h-2v-1h1zM19 1h4v1h-3v1h-1zM24 1h1v1h-1zM27 1h7v7h-7zM2 2v5h5v-5zM23 2h1v1h-1zM25 2h1v3h-1v1h-1v-1h-1v-1h2zM28 2v5h5v-5zM3 3h3v3h-3zM15 3h1v1h-1zM22 3h1v1h-1zM29 3h3v3h-3zM13 4h1v4h-1v-2h-1v-1h1zM16 4h1v1h1v1h-2v4h-1v1h2v2h1v1h-1v1h1v1h-1v1h2v1h-1v1h-1v-1h-1v1h1v1h1v1h-1v1h1v1h-2v-1h-2v-2h1v-1h-1v-1h1v-1h1v-3h-1v-1h1v-1h-1v1h-1v2h1v2h-2v-1h-1v-2h1v-2h-1v-1h2v-1h-1v-1h2v-4h1zM19 4h2v1h-2zM21 5h1v1h-1zM18 6h1v1h-1zM20 6h1v1h-1zM23 6h1v3h1v2h-1v3h-1v-1h-2v-2h-1v-2h-1v-2h1v1h1v-1h1v1h1zM11 7h1v1h-1zM17 7h1v2h1v3h1v1h-2v-2h-1zM25 7h1v2h-1zM1 9h1v1h-1zM3 9h5v1h-1v1h-1v-1h-3zM11 9h1v1h-1zM22 9v2h1v-2zM27 9h5v1h2v1h-1v1h1v3h-1v1h-1v1h-2v-1h-1v-1h3v-2h-1v1h-3v-1h1v-2h1v1h1v-1h-1v-1h-2v1h-1v1h1v1h-1v1h-1v-2h-1v-1h1v-1h1zM9 10h2v2h1v1h-3v-1h1v-1h-1zM2 11h2v1h-2zM7 11h2v1h-2zM4 12h1v1h1v1h-2zM1 13h1v1h2v1h-2v1h2v-1h1v1h2v1h-1v1h-1v-1h-2v5h-1v-1h-1v-3h1v-1h-1zM7 13h1v1h-1zM8 14h1v1h1v2h1v-1h1v2h-1v1h1v-1h1v3h-1v-1h-2v-1h-1v-1h-2v-1h2v-1h-2v-1h1zM10 14h1v1h-1zM19 14h1v1h-1zM22 14h1v1h-1zM24 14h1v1h-1zM27 14h1v1h-1zM21 15h1v1h1v-1h1v1h3v2h1v-1h2v1h-1v1h-1v1h-1v-1h-1v-2h-1v2h-1v-1h-1v-1h-1v2h-2v-2h1zM19 16h1v1h-1zM33 17h1v2h-1zM6 18h1v1h1v1h-1v1h2v-1h1v1h1v2h-1v-1h-4v-1h-1v1h1v1h-2v-3h2zM30 18h2v1h1v1h1v3h-1v-1h-1v-1h-1v1h-3v-1h1v-2h1v1h1v-1h-1zM19 19h1v1h-1zM22 19h2v1h1v-1h1v1h1v2h-2v-1h-3zM20 20h1v2h1v1h1v2h-2v1h1v1h-3v1h2v2h2v1h1v1h-1v1h-1v-1h-1v-1h-3v-1h2v-1h-2v1h-1v1h1v1h-1v1h2v1h-3v-1h-1v-1h1v-1h-1v1h-3v-1h-1v-1h2v1h1v-1h2v-1h1v-1h1v-1h-1v-1h1v-1h1v1h1v-1h-1v-1h2v-1h-1v-1h-1v-1h1zM1 22h1v4h-1zM13 22h1v2h-2v-1h1zM24 22h1v1h-1zM27 22h1v1h-1zM31 22h1v1h-1zM3 23h1v1h1v2h-1v-1h-1zM6 23h2v1h-2zM9 23h1v4h-1v-1h-3v-1h2v-1h1zM15 23h1v1h-1zM18 23h1v1h-1zM26 23h1v1h1v1h2v4h1v3h1v1h-1v1h-8v-1h5v-1h-1v-1h1v-1h-1v1h-1v-1h-1v-1h-1v-1h-1v-1h2v-2h1zM29 23h1v1h-1zM32 23h1v1h1v1h-4v-1h2zM11 24h1v1h-1zM17 24h1v1h-1zM24 24h1v1h-1zM12 25h1v1h-1zM23 25h1v1h-1zM11 26h1v2h2v1h-3v-1h-1v-1h1zM14 26h2v1h1v1h-1v1h-1v-1h-1zM26 26v3h3v-3zM31 26h1v1h1v1h1v3h-2v-1h1v-1h-2zM33 26h1v1h-1zM1 27h7v7h-7zM27 27h1v1h-1zM2 28v5h5v-5zM9 28h1v1h1v1h-1v2h-1zM22 28h1v1h-1zM3 29h3v3h-3zM23 29h1v1h-1zM29 31v1h1v-1zM10 32h1v1h-1zM19 32h2v1h-2zM9 33h1v1h-1zM11 33h1v1h-1zM13 33h1v1h-1zM32 33h1v1h-1z"/></svg>