<svg xmlns="http://www.w3.org/2000/svg" viewBox="0 0 35 35"><path d="M1 1h7v7h-7zM10 1h1v2h3v3h1v-1h1v-1h-1v-1h1v-1h1v-1h1v2h-1v2h2v1h-3v2h-1v-1h-1v2h-2v-1h1v-2h-1v-1h1v-1h-1v1h-1v-1h-1v2h1v1h-1v1h1v3h-3v-1h2v-1h-1v-6h1zM12 1h1v1h-1zM19 1h4v1h1v3h-1v-1h-1v-1h-1v-1h-1v1h-1zM24 1h1v1h-1zM27 1h7v7h-7zM2 2v5h5v-5zM28 2v5h5v-5zM3 3h3v3h-3zM25 3h1v2h-1zM29 3h3v3h-3zM19 4h1v1h-1zM21 5h2v1h-2zM24 5h1v1h-1zM20 6h1v1h-1zM23 6h1v2h-1zM25 6h1v2h-1zM11 7h1v1h-1zM17 7h1v2h-1zM19 7h1v1h-1zM21 7h1v1h1v1h-2v1h1v1h-3v1h1v1h-2v-2h-1v-1h1v-1h1v1h1v-2h1zM1 9h1v1h-1zM3 9h5v1h-5zM14 9h2v1h-1v1h2v1h-2v1h-3v1h-1v1h1v1h-2v2h-1v-2h-2v-1h1v-1h1v1h1v-1h-1v-1h2v-1h2v-1h-1v-1h2zM23 9h2v2h-1v-1h-1zM27 9h5v1h2v1h-1v1h-1v1h-1v1h-3v-1h1v-2h1v1h1v-1h-1v-1h-2v1h-1zM2 10h1v1h-1zM3 11h1v1h2v1h-2v1h-1v1h-1v-3h1zM6 11h2v1h-2zM22 11h1v1h1v1h2v-2h1v3h-2v1h-1v1h3v-2h1v1h1v2h1v1h-1v1h-2v-1h1v-1h-1v1h-2v-1h-1v1h1v1h-2v1h2v1h1v-1h2v1h-1v1h1v1h-1v1h-1v-2h-1v1h-1v-2h-2v-2h-2v1h-1v-2h1v-1h1v-2h1v1h1v-1h-1v-1h1v-1h-1zM8 12h1v1h-1zM6 13h2v1h-1v1h-1zM15 13h3v1h-1v1h2v1h-2v1h2v1h-1v1h-1v-1h-2v2h-1v1h-1v-1h-1v-1h-1v-2h1v1h2v-1h-1v-1h1v-1h2v-1h-1zM20 13h1v1h-1zM33 13h1v2h-1v1h-1v-1h-1v-1h2zM4 14h1v2h-2v-1h1zM13 14h1v1h-1zM19 14h1v1h-1zM30 15h1v1h1v1h-2zM2 16h1v1h-1zM5 16h1v1h-1zM15 16v1h1v-1zM1 17h1v1h-1zM3 17h2v1h-1v1h-1zM6 17h2v1h-2zM22 17v1h1v-1zM33 17h1v2h-1v1h1v1h-1v1h-1v-1h-1v1h-2v-3h1v1h1v-1h-1v-1h3zM1 19h1v1h-1zM6 19h3v1h-2v1h-1v1h-2v-1h1v-1h1zM16 19h1v1h-1zM25 19h1v1h-1zM9 20h1v2h1v1h-1v4h-1v-3h-2v-1h1v-1h-1v-1h2zM15 20h1v1h-1zM2 21h1v1h-1zM12 21h1v1h1v1h1v1h1v1h-2v1h-1v-1h-1v2h-1v-4h1zM16 21h1v1h2v1h1v1h1v-1h-1v-1h-1v-1h2v1h2v1h1v3h-1v-1h-1v2h-3v1h1v1h-2v1h-1v-2h-1v-1h1v-3h1v1h1v1h1v-1h-1v-1h-1v-1h-3v-1h1zM1 22h1v4h-1zM6 22h1v1h-1zM31 22h1v1h-1zM33 22h1v1h-1zM4 23h2v1h1v1h-1v1h-1v-2h-1zM32 23h1v1h1v1h-3v1h-1v3h1v1h1v-1h-1v-3h1v1h1v1h1v1h-1v1h1v1h-2v2h-2v1h-2v-2h-2v-1h-2v-1h1v-1h-1v-1h-1v-1h2v-3h1v1h3v-1h3zM7 25h1v1h-1zM14 26h1v3h-5v2h3v1h-1v1h-2v-1h-1v-4h1v-1h1v1h1v-1h1v1h1zM26 26v3h3v-3zM33 26h1v1h-1zM1 27h7v7h-7zM27 27h1v1h-1zM2 28v5h5v-5zM21 28h2v1h-2zM3 29h3v3h-3zM15 29h1v1h1v1h1v-1h4v2h-1v-1h-2v1h-2v2h-2v-1h-1v1h-1v-2h2v-1h-1v-1h1zM23 29h1v1h-1zM27 30v1h1v-1zM29 31v1h2v-1zM20 32h1v1h-1zM22 32h2v1h3v1h-4v-1h-1zM9 33h1v1h-1zM18 33h1v1h-1zM32 33h1v1h-1z"/></svg>