<svg xmlns="http://www.w3.org/2000/svg" viewBox="0 0 35 35"><path d="M1 1h7v7h-7zM12 1h1v1h1v1h-2v1h2v1h-3v2h-1v1h1v-1h1v1h1v-1h1v2h2v2h1v2h-1v-1h-1v1h-1v-2h-2v-2h-3v-6h2v-1h1zM17 1h1v1h-1zM19 1h4v1h1v1h-1v1h-1v-2h-2v1h-1zM24 1h1v1h-1zM27 1h7v7h-7zM2 2v5h5v-5zM16 2h1v3h2v1h2v1h-1v1h-1v-1h-1v-1h-3v-1h1v-1h-1v-1h1zM28 2v5h5v-5zM3 3h3v3h-3zM20 3h1v2h-2v-1h1zM25 3h1v1h-1zM29 3h3v3h-3zM23 4h1v1h1v1h-1v3h2v1h-1v1h-1v-1h-1v-1h-1v1h1v1h-1v1h2v1h1v-2h1v1h1v2h1v1h2v1h-3v-1h-1v-1h-1v1h-1v-1h-1v-1h-2v-2h-2v1h1v1h-2v-2h-1v-4h1v2h1v1h1v-2h1v-1h1v1h1v-2h-2v-1h2zM14 6h1v1h-1zM15 7h1v1h-1zM25 7h1v1h-1zM1 9h1v1h-1zM3 9h5v1h-3v1h1v1h-1v2h1v-1h2v-1h1v-2h2v1h1v1h1v1h-2v-1h-1v1h-1v1h-2v1h1v1h-2v-1h-2v2h-2v1h2v1h2v2h-1v-1h-1v1h1v1h-2v-1h-1v-1h-1v-5h1v1h1v-1h-1v-2h-1v-1h1v-2h1v1h1v-1h-1zM27 9h5v2h1v2h-2v2h-1v-1h-1v-3h1v1h1v-1h-1v-1h-2v1h-1zM33 10h1v1h-1zM7 11h1v1h-1zM15 13h1v1h-1zM17 13h1v1h-1zM20 13h1v1h-1zM33 13h1v2h-1v1h-1v1h-1v1h2v-1h1v2h-1v2h-2v1h-3v-1h1v-2h1v1h1v-1h-1v-1h-1v1h-2v3h1v2h-1v-1h-1v-1h-1v1h-1v-2h2v-3h-1v-1h-1v-1h1v-1h1v1h1v2h1v-1h2v-1h1v-1h1v-1h1zM10 14h4v2h-1v-1h-1v2h-1v1h-1v-1h-1v2h3v1h-3v1h2v1h-1v1h2v-3h3v1h-2v1h1v1h1v1h-1v2h-1v1h-1v-2h1v-1h-1v1h-2v-1h-1v1h-1v-1h-2v-1h-1v-1h1v-1h2v-1h-1v-1h1v-1h-1v-1h1v-1h2zM16 14h1v1h1v1h-1v1h2v1h-1v1h-1v-1h-1v-1h-2v-1h2zM19 14h1v2h-1zM21 15h1v1h1v1h-2zM23 15h1v1h-1zM20 17h1v1h1v1h-2zM23 17h1v1h-1zM6 18h1v1h-1zM12 18h2v1h-2zM15 18h1v1h1v3h1v1h-3v-1h1v-2h-1zM24 18h1v1h-1zM19 19h1v1h-1zM22 19h1v2h-2v-1h1zM1 21h1v1h1v1h-1v3h-1zM19 21h1v1h-1zM33 21h1v2h-1zM7 22v1h2v-1zM20 22h3v1h-1v1h1v-1h1v3h-1v-1h-2v1h1v2h-1v-1h-2v1h2v1h-3v1h-1v1h2v1h-2v2h-1v-1h-1v-1h1v-1h-1v1h-1v2h-1v-1h-1v-2h1v-1h-1v-1h3v1h1v-1h1v-1h1v-1h-1v-3h1v1h1v1h1v-1h-1v-1h-1v-1h2v1h1v-1h-1zM31 22h1v1h-1zM3 23h2v1h1v1h2v1h-3v-1h-1v1h-1zM25 23h1v1h-1zM30 23h1v1h1v-1h1v1h1v1h-3v1h-1v3h1v1h-1v1h-1v1h2v-1h1v2h-2v1h-2v-1h-1v-1h-1v-1h-2v-1h1v-1h-1v-1h-1v-1h2v-2h3v-1h1v1h1zM15 24h1v2h-1zM9 25h1v1h1v4h1v1h-2v1h-1v-4h1v-1h-1zM26 26v3h3v-3zM31 26h3v1h-1v2h-2zM1 27h7v7h-7zM13 27h2v1h-2zM16 27h1v1h-1zM27 27h1v1h-1zM2 28v5h5v-5zM22 28h1v1h-1zM3 29h3v3h-3zM23 29h1v1h-1zM33 29h1v2h-2v-1h1zM19 30h4v1h-1v1h-1v-1h-2zM27 30v1h1v-1zM10 32h1v1h-1zM20 32h1v1h-1zM22 32h3v1h1v1h-3v-1h-1zM9 33h1v1h-1zM18 33h1v1h-1zM21 33h1v1h-1zM32 33h1v1h-1z"/></svg>