<svg xmlns="http://www.w3.org/2000/svg" viewBox="0 0 35 35"><path d="M1 1h7v7h-7zM11 1h2v1h-1v1h-1zM15 1h1v1h-1zM17 1h1v1h-1zM19 1h3v2h-1v-1h-1v1h-1zM24 1h1v1h-1zM27 1h7v7h-7zM2 2v5h5v-5zM13 2h1v1h-1zM16 2h1v1h1v1h-3v-1h1zM28 2v5h5v-5zM3 3h3v3h-3zM9 3h2v1h-1v1h1v-1h1v-1h1v3h-3v2h1v1h-2zM22 3h3v1h-1v1h1v1h-1v3h2v1h-1v1h-1v-1h-1v-1h-2v1h2v1h1v1h-1v1h-2v-1h1v-1h-2v-2h-1v-3h2v1h-1v1h1v-1h1v1h1v-1h-1v-1h-1v-1h2v-1h-1zM29 3h3v3h-3zM19 4h1v1h-1zM25 4h1v1h-1zM14 5h5v1h-4v1h-1v1h-1v-2h1zM11 7h1v1h-1zM15 7h1v1h-1zM17 7h1v2h-1zM25 7h1v1h-1zM12 8h1v1h-1zM1 9h1v2h-1zM3 9h5v1h-1v1h-1v1h1v1h2v-1h1v3h-1v-1h-3v-1h-1v1h-3v-1h-1v-1h1v-1h1v2h1v-1h1v-2h-1v1h-1zM14 9h2v1h-1v1h2v-1h1v-1h1v3h1v1h-2v1h-1v1h1v1h-1v1h2v1h-1v1h-1v-1h-1v1h1v1h1v1h-1v1h2v1h1v1h-2v-1h-2v-1h-1v1h-2v1h-1v-2h1v-1h3v-1h-1v-1h-1v-1h1v-1h1v-3h-1v-1h1v-1h-1v1h-1v-2h-1v2h-1v-1h-1v-1h-2v-1h5zM27 9h5v1h2v1h-1v1h-1v1h-1v1h-3v-1h1v-2h1v1h1v-1h-1v-1h-2v1h-1zM7 11h1v1h-1zM25 11h1v1h1v2h1v1h-2v-1h-1v1h-2v-2h1v-1h1zM33 12h1v1h-1zM13 13h1v2h1v2h-1v-1h-2v1h-2v-2h3zM20 13h1v1h-1zM32 13h1v1h1v1h-1v1h-1v-1h-1v-1h1zM5 14h1v1h-1zM18 14h2v2h-1v-1h-1zM1 15h2v2h1v-2h1v7h1v-1h2v1h-1v1h2v-3h2v1h1v1h-2v1h1v1h-5v-1h-4v3h-1v-4h2v-1h-1v-2h1v1h1v-2h-2v1h-1v-2h1v-1h-1zM7 15h1v1h-1zM21 15h2v2h-2zM29 15h1v1h-1zM6 16h1v1h-1zM8 16h1v1h-1zM24 16h1v1h-1zM26 16h2v1h-1v1h1v-1h2v1h-1v1h-2v1h-2v-1h1zM30 16h2v1h-2zM7 17h1v1h-1zM20 17h1v1h2v1h-3v1h-1v-2h1zM23 17h1v1h-1zM33 17h1v2h-1zM6 18h1v1h-1zM8 18h2v1h-2zM12 18h1v1h-1zM24 18h1v1h-1zM30 18h2v1h1v1h-1v1h-1v1h-3v-1h1v-2h1v1h1v-1h-1zM7 19h1v1h-1zM23 19h1v1h1v1h-3v-1h1zM20 20h1v1h-1zM19 21h1v1h-1zM25 21h2v1h1v1h-2v-1h-1zM32 21h2v2h-1v-1h-1zM20 22h2v2h1v1h-1v3h-1v-1h-1v-3h1v-1h-1zM24 22h1v1h-1zM23 23h1v1h-1zM28 23h1v1h-1zM32 23h1v1h1v1h-4v-1h2zM4 24h2v2h-2zM13 24h2v2h-1v-1h-1zM17 24h1v1h1v3h1v1h-2v1h-1v-1h-1v-2h1zM24 24h3v1h3v4h1v1h-1v1h-1v1h1v-1h1v1h1v1h-2v1h-3v-1h1v-1h-1v-1h1v-1h-1v1h-2v-2h-1v-1h-1v-1h1v-1h-1v-1h1zM7 25h1v1h-1zM9 26h1v1h-1zM11 26h1v1h-1zM13 26h1v1h1v1h-3v-1h1zM15 26h1v1h-1zM26 26v3h3v-3zM31 26h1v1h1v1h-1v1h-1zM33 26h1v1h-1zM1 27h7v7h-7zM27 27h1v1h-1zM2 28v5h5v-5zM9 28h3v1h2v1h-1v1h-2v1h1v1h-1v1h-2v-1h1v-1h-1zM22 28h1v1h-1zM33 28h1v1h-1zM3 29h3v3h-3zM10 29v1h1v-1zM15 29h1v1h1v1h1v1h-1v2h-2v-1h1v-1h-1zM23 29h1v1h-1zM19 30h4v1h-1v1h-1v-1h-2zM32 30h2v1h-2zM24 31h1v1h-1zM14 32h1v1h-1zM19 32h2v1h-2zM22 32h1v1h-1zM12 33h1v1h-1zM18 33h1v1h-1zM21 33h1v1h-1zM23 33h3v1h-3zM32 33h1v1h-1z"/></svg>