<svg xmlns="http://www.w3.org/2000/svg" viewBox="0 0 35 35"><path d="M1 1h7v7h-7zM10 1h2v1h-2zM17 1h1v1h-1zM19 1h6v1h-5v1h-1zM27 1h7v7h-7zM2 2v5h5v-5zM12 2h1v2h1v1h-3v-2h1zM16 2h1v1h-1zM28 2v5h5v-5zM3 3h3v3h-3zM9 3h1v3h1v1h-1v2h-1zM15 3h1v1h-1zM22 3h1v1h-1zM24 3h2v2h-1v-1h-1zM29 3h3v3h-3zM16 4h1v1h2v1h-3v2h-1v-1h-1v-1h1v-1h1zM19 4h2v1h-2zM23 4h1v1h1v1h-1v3h1v2h-2v2h-1v-1h-1v-1h-1v-2h-1v-3h2v1h-1v1h1v-1h1v1h1v-2h-2v-1h2zM12 6h1v1h-1zM11 7h1v1h-1zM13 7h1v2h-1zM17 7h1v2h1v3h1v1h-2v-1h-1v1h1v1h-1v1h1v-1h2v3h-1v-1h-2v1h2v1h-1v1h-1v-1h-1v-4h-1v-1h1v-1h-1v1h-2v1h2v3h-1v-2h-2v-2h-1v-1h1v-1h1v1h1v-1h-1v-1h1v-1h2v2h1zM25 7h1v2h-1zM1 9h1v2h-1zM3 9h5v1h-2v1h-1v-1h-1v2h2v1h-2v1h1v1h-1v1h-1v-1h-2v-2h2v-1h-1v-1h1zM22 9v1h1v-1zM27 9h5v1h2v1h-1v1h-1v1h-1v1h-3v-1h1v-2h1v1h1v-1h-1v-1h-2v2h-2v-2h1zM10 10h1v1h-1zM6 11h3v1h-3zM25 12h1v1h1v1h1v1h-2v-1h-1v1h-3v-1h1v-1h2zM33 12h1v3h-1v1h-1v-1h-1v-1h2zM6 13h4v1h-1v3h1v1h-4v-1h2v-1h-1v-1h1v-1h-2zM20 13h1v1h-1zM10 14h1v1h-1zM11 15h1v1h1v2h-1v-1h-2v-1h1zM21 15h1v1h1v1h-2zM29 15h1v1h-1zM4 16h1v1h-1zM24 16h2v1h-2zM27 16h2v1h1v1h-1v1h-2v-1h1v-1h-1zM30 16h2v1h-2zM1 17h1v1h-1zM20 17h1v1h2v1h-3v1h-1v-2h1zM23 17h1v1h-1zM26 17h1v1h-1zM33 17h1v2h-1zM2 18h3v1h1v1h-1v2h-1v1h1v-1h1v-2h1v1h2v3h-2v-1h1v-1h-1v1h-1v3h-1v-1h-1v1h-1v-3h-1v3h-1v-6h1v2h1v-2h1v-1h-1v1h-1zM10 18h1v1h2v1h-2v2h1v-1h1v1h1v2h-1v-1h-2v1h1v1h1v1h-2v-1h-1v1h1v2h-1v-1h-1v-3h1v-3h-1v-1h1zM13 18h3v1h1v1h-2v1h-1v-2h-1zM24 18h1v1h-1zM30 18h2v1h1v1h1v1h-1v1h-1v-1h-1v1h-3v-1h1v-2h1v1h1v-1h-1zM7 19h1v1h-1zM20 20h1v1h-1zM22 20h1v1h-1zM25 20h3v1h-1v1h1v1h-2v-2h-1zM15 21h1v1h-1zM19 21h1v1h-1zM16 22h3v1h1v1h-2v-1h-2zM20 22h3v1h1v1h-1v1h-2v1h1v1h-2v-3h1v-1h-1zM24 22h1v1h-1zM31 22h1v1h-1zM33 22h1v1h-1zM25 23h1v1h1v1h1v-1h4v-1h1v1h1v1h-3v1h-1v3h1v1h1v-1h-1v-3h1v1h1v1h1v1h-1v1h1v1h-3v1h1v1h-1v1h-3v-1h-1v-2h1v-1h-1v1h-1v1h-2v-2h1v-1h-1v-1h-1v-1h1v-1h1v-1h-1v-1h1zM15 24h1v3h-1v1h1v2h-1v-1h-1v-1h-1v1h-1v1h-1v-2h1v-1h2v-1h1zM17 24h1v1h-1zM7 25h1v1h-1zM18 25h1v3h2v2h1v1h1v2h-1v-1h-1v-1h-1v1h1v1h-2v-1h-2v2h-1v-1h-1v-1h-1v-1h-2v-1h3v1h1v-1h1v1h1v-1h2v-1h-2v-2h-1v-1h1zM23 25h1v1h-1zM26 26v3h3v-3zM33 26h1v1h-1zM1 27h7v7h-7zM16 27h1v1h-1zM27 27h1v1h-1zM2 28v5h5v-5zM9 28h1v2h1v1h-1v1h-1zM22 28h1v1h-1zM3 29h3v3h-3zM17 29h1v1h-1zM23 29h1v1h-1zM11 31h1v1h-1zM29 31v1h1v-1zM10 32h1v2h-2v-1h1zM12 32h1v1h-1zM18 33h1v1h-1zM21 33h1v1h-1zM23 33h4v1h-4zM32 33h1v1h-1z"/></svg>