<svg xmlns="http://www.w3.org/2000/svg" viewBox="0 0 35 35"><path d="M1 1h7v7h-7zM13 1h1v1h-1zM17 1h1v2h-1v1h-2v-1h1v-1h1zM20 1h3v1h1v1h-1v1h-1v-2h-2zM24 1h1v1h-1zM27 1h7v7h-7zM2 2v5h5v-5zM10 2h1v1h-1zM12 2h1v1h1v1h-2v1h-2v4h-1v-6h1v1h1v-1h1zM19 2h1v1h-1zM25 2h1v3h-1zM28 2v5h5v-5zM3 3h3v3h-3zM29 3h3v3h-3zM19 4h2v1h-2zM23 4h1v1h1v1h-1v3h1v2h-1v-1h-1v-1h-2v1h2v1h1v1h-1v1h-2v-1h1v-1h-3v1h1v1h-2v-2h-1v-4h1v2h1v1h1v-1h-1v-3h2v1h-1v1h1v-1h1v1h1v-2h-2v-1h2zM12 5h1v1h-1zM14 5h5v1h-4v1h-1v2h1v-2h1v4h1v2h-1v-1h-1v1h-1v2h1v1h1v-2h1v1h1v1h-1v2h-1v1h-2v-3h-1v-4h1v-1h-1v-1h-1v-1h1v-3h1zM11 6h1v3h-1zM25 6h1v3h-1zM1 9h1v1h1v-1h5v1h-1v1h-1v-1h-2v2h-2v-1h-1zM10 9h1v1h1v1h-2v1h1v1h1v3h-1v-1h-3v-1h1v-3h-1v-1h2zM27 9h5v2h1v2h-2v3h1v1h-2v1h-1v1h-1v1h-1v-1h-1v-2h-2v-1h2v-1h1v3h1v-2h2v-2h-2v-1h1v-2h1v1h1v-1h-1v-1h-2v1h-1zM33 10h1v1h-1zM7 11h1v1h-1zM12 11h1v1h-1zM25 11h1v1h2v1h-1v1h-2v1h-1v-1h-1v-1h2zM1 12h1v1h-1zM4 12h1v1h-1zM6 12h1v1h1v1h-1v1h-1zM15 13h1v1h-1zM17 13h1v1h-1zM1 14h1v1h3v1h-2v4h-1v-1h-1v-1h1v-2h-1zM19 14h1v2h-1zM27 14h1v1h-1zM32 14h2v1h-1v1h-1zM7 15h1v1h-1zM21 15h1v1h1v1h-1v1h1v1h1v1h1v1h-4v-2h-1v1h-1v-2h1v-1h1zM23 15h1v1h-1zM5 16h1v1h2v1h-2v2h-1v-2h-1v-1h1zM8 16h1v1h-1zM10 16h1v1h-1zM9 17h1v2h-1v2h-1v-1h-1v-1h1v-1h1zM18 17h1v1h-1zM23 17h1v1h-1zM33 17h1v2h-1v1h-1v1h-1v1h1v1h1v1h1v1h-3v1h-1v3h1v1h1v-1h-1v-3h1v1h1v1h1v1h-1v1h1v1h-2v2h-1v1h-3v-2h-1v2h-4v-1h1v-1h1v1h1v-2h-2v-1h1v-1h-1v-1h-1v-3h2v-1h1v1h4v-3h-1v-3h1v1h1v-1h-1v-1h3zM11 18h2v1h-1v1h-2v-1h1zM17 18h1v2h-2v-1h1zM24 18h1v1h-1zM4 20h1v1h-1zM6 20h1v1h1v1h-3v-1h1zM12 20h2v1h-2zM15 20h1v1h-1zM26 20h1v2h1v1h-2v-1h-1v-1h1zM9 21h3v1h-2v1h-1zM16 21h1v1h1v1h-2zM19 21h2v1h1v2h1v1h-2v1h1v2h1v1h-5v-1h-1v1h-1v-1h-1v1h-1v1h-1v-1h-2v2h-1v1h-1v-4h3v-1h1v1h1v-1h3v-1h1v-1h1v1h1v-2h1v-1h-1v-1h-1zM32 21h2v2h-1v-1h-1zM1 22h1v4h-1zM3 22h2v1h-1v1h1v2h-1v-1h-1zM13 22h2v1h-2zM24 22h1v1h-1zM5 23h4v1h1v1h-2v-1h-1v1h-1v-1h-1zM11 23h2v1h-2zM15 23h1v1h-1zM18 23h1v1h-1zM28 23h1v1h-1zM13 24h2v1h-2zM17 24h1v1h-1zM7 25h1v1h-1zM10 25h3v1h-2v1h-2v-1h1zM24 26v1h1v-1zM26 26v3h3v-3zM33 26h1v1h-1zM1 27h7v7h-7zM19 27v1h2v-1zM27 27h1v1h-1zM2 28v5h5v-5zM3 29h3v3h-3zM15 29h1v1h-1zM17 29h1v1h-1zM23 29h1v1h-1zM16 30h1v1h2v1h-2v1h2v1h-5v-1h-1v-1h3zM19 30h4v1h-1v1h-1v-1h-2zM27 30v1h1v-1zM23 31h1v1h-1zM29 31v1h1v-1zM10 32h2v1h1v1h-2v-1h-1zM19 32h2v1h-2zM22 32h1v1h-1zM9 33h1v1h-1zM21 33h1v1h-1zM32 33h1v1h-1z"/></svg>