<svg xmlns="http://www.w3.org/2000/svg" viewBox="0 0 35 35"><path d="M1 1h7v7h-7zM10 1h1v1h1v1h-2zM12 1h1v1h-1zM15 1h1v1h-1zM17 1h1v3h-1v1h2v2h-1v-1h-3v-1h1v-1h-1v-1h1v-1h1zM19 1h6v1h-1v2h1v-2h1v3h-1v1h-1v-1h-1v-1h-2v-1h2v-1h-3v1h-1zM27 1h7v7h-7zM2 2v5h5v-5zM28 2v5h5v-5zM3 3h3v3h-3zM9 3h1v5h1v2h-1v-1h-1zM12 3h1v2h-1zM29 3h3v3h-3zM19 4h1v1h-1zM11 5h1v3h-1zM13 5h1v1h-1zM21 5h2v1h1v3h1v2h-3v1h-1v-1h-2v1h2v1h-3v-2h-1v-4h1v2h1v1h1v-2h1v-1h1v1h1v-1h-1v-1h-1zM14 6h1v1h-1zM20 6h1v1h-1zM13 7h1v2h-1zM15 7h1v3h-1v1h2v2h-1v-1h-1v1h-4v-1h1v-1h1v1h1v-1h-1v-1h1v-1h1zM19 7h1v1h-1zM25 7h1v1h-1zM1 9h1v1h-1zM3 9h5v1h-3v2h-1v-2h-1zM21 9v1h2v-1zM27 9h5v2h1v2h-2v2h-1v-1h-2v-1h1v-2h1v1h1v-1h-1v-1h-2v1h-1zM2 10h1v1h-1zM8 10h2v1h1v1h-1v2h-1v1h-1v-1h-1v1h-1v1h-1v-2h1v-1h-1v-1h1v-1h2zM33 10h1v1h-1zM25 11h2v3h1v1h-1v1h-1v-2h-1v1h-1v-1h-1v-1h1v-1h1zM2 12h1v1h1v2h-1v-1h-1zM7 12v1h1v-1zM22 12h1v1h-1zM15 13h1v1h-1zM17 13h1v1h-1zM10 14h2v1h1v-1h1v1h1v1h-1v1h-1v-1h-1v2h2v1h-1v1h1v1h-1v1h-2v-1h1v-1h-1v-5h-1zM16 14h1v1h2v1h-2v1h2v1h-1v3h-1v-1h-1v1h-1v-3h1v1h1v-1h-1v-1h-1v-1h1zM19 14h1v1h-1zM22 14h1v1h-1zM32 14h2v1h-1v1h-1v1h-2v1h-1v1h-1v2h-1v-3h1v-1h-1v-1h2v-1h1v1h1v-1h1zM1 15h1v1h-1zM7 15h1v1h-1zM9 15h1v1h-1zM21 15h1v1h1v1h-2zM23 15h1v1h-1zM3 16h1v1h2v1h1v1h1v-1h1v1h1v1h1v1h-2v1h2v2h1v-1h1v1h3v1h-3v1h-1v-1h-1v1h-1v1h-1v-1h-2v-1h1v-1h1v-1h-1v-1h-2v-2h-2v-1h1v-1h-2v1h-1v-1h-1v-1h2zM8 16h1v1h-1zM19 16h1v1h-1zM25 16h1v1h1v1h-2v1h-1v2h-3v-2h-1v-2h1v1h2v-1h2zM7 17h1v1h-1zM9 17h1v1h-1zM33 17h1v2h-1zM30 18h2v1h1v1h-1v1h-1v1h1v1h-2v-1h-2v-1h1v-2h1v1h1v-1h-1zM19 19h1v1h-1zM22 19v1h1v-1zM1 20h3v1h-2v1h3v1h-1v1h1v-1h3v1h-2v1h-3v-2h-1v3h-1zM7 20v1h1v-1zM14 21h1v1h1v-1h1v1h1v1h-4zM19 21h2v1h1v1h1v1h1v2h-1v-1h-2v1h1v1h-3v1h4v1h-5v1h-1v-2h1v-1h-1v-3h1v1h1v1h1v-2h1v-1h-1v-1h-1zM25 21h2v1h1v1h-2v-1h-1zM32 21h2v2h-1v-1h-1zM24 22h1v1h-1zM28 23h1v1h-1zM32 23h1v1h1v1h-3v1h-1v3h1v1h-1v1h-1v1h3v1h-2v1h-3v-3h1v-1h-1v1h-1v1h-1v-1h-1v-1h1v-1h-1v-1h-1v-1h1v-1h1v-1h1v-1h1v1h2v-1h3zM11 26h1v1h1v-1h2v1h-1v1h2v2h-1v-1h-1v1h-1v3h-2v-1h-2v-4h1v1h1v1h1v-1h1v-1h-1v1h-1v-1h-1v-1h1zM26 26v3h3v-3zM31 26h1v1h1v1h1v3h-3v-1h1v-1h-1zM33 26h1v1h-1zM1 27h7v7h-7zM16 27h1v1h-1zM27 27h1v1h-1zM2 28v5h5v-5zM3 29h3v3h-3zM23 29h1v1h-1zM14 30h1v1h-1zM16 30h1v1h1v1h-1v2h-3v-1h2zM19 30h4v1h-1v1h-1v-1h-2zM19 32h2v1h-2zM22 32h2v1h2v1h-3v-1h-1zM9 33h1v1h-1zM18 33h1v1h-1zM32 33h1v1h-1z"/></svg>