<svg xmlns="http://www.w3.org/2000/svg" viewBox="0 0 35 35"><path d="M1 1h7v7h-7zM9 1h1v2h-1zM15 1h1v2h1v2h-1v-1h-2v1h-1v-3h1v1h1zM17 1h1v1h-1zM19 1h3v2h-1v-1h-2zM23 1h2v2h-1v-1h-1zM27 1h7v7h-7zM2 2v5h5v-5zM11 2h1v1h-1zM18 2h1v1h-1zM28 2v5h5v-5zM3 3h3v3h-3zM10 3h1v2h1v1h-1v1h-1v-2h-1v-1h1zM19 3h1v1h1v1h-1v3h1v1h-1v1h-1v1h-2v-1h1v-1h-1v1h-1v1h-1v1h-1v-1h-1v-1h-1v-1h1v-2h1v3h1v-3h-1v-1h3v-1h2zM23 3h1v2h-1zM25 3h1v1h-1zM29 3h3v3h-3zM22 5h1v1h-1zM25 5h1v5h-1v-1h-2v-3h1v2h1zM12 6h1v1h-1zM18 6v2h1v-2zM9 7h1v2h-1zM11 7h1v2h-1zM16 7v1h1v-1zM21 7h1v1h-1zM1 9h1v1h1v1h-2zM3 9h2v1h1v-1h3v1h-2v1h-3v-1h-1zM10 9h1v1h-1zM21 9h2v2h-1v2h-2v-1h1v-1h-1v-1h1zM27 9h1v2h2v-2h1v1h1v1h-1v3h-2v1h1v1h-2v4h-2v-1h1v-1h-1v-1h1v-1h-1v-1h2v-2h-1zM32 9h2v4h-2v-2h1v-1h-1zM9 10h1v4h-1zM11 10h1v1h1v2h-1v-1h-1zM24 10h1v1h1v2h1v1h-1v1h-1v-2h-1v1h-1v-3h1zM3 11h1v1h-1zM7 11h1v1h-1zM19 11h1v1h-1zM2 12h1v1h-1zM5 12h1v3h-1v-1h-1v-1h1zM16 12h3v1h-1v1h-2v2h1v1h-2v-1h-1v-1h1v-2h1zM29 12v1h1v-1zM1 13h1v1h2v1h1v1h1v-1h2v-1h1v3h1v1h-5v1h-1v-2h-2v-2h-1zM7 13h1v1h-1zM13 13h1v2h-1v1h-1v-2h1zM10 14h1v1h-1zM18 14h1v1h2v-1h2v1h1v3h2v1h-2v3h-1v1h-3v-1h2v-1h1v-3h-1v1h-1v-1h-2v-2h-1zM31 14h2v1h-2zM7 16v1h1v-1zM20 16v1h1v-1zM30 16h2v2h-1v1h-1v2h-2v-1h1v-3h1zM11 17h1v1h1v1h-1v1h-1v1h-2v1h1v1h1v-1h1v2h-1v2h-1v1h2v1h-2v1h-1v-3h-2v-1h3v-1h-1v-1h-1v-1h-2v-1h2v-1h2v-2h1zM13 17h1v1h-1zM2 18h1v1h-1zM14 18h1v1h-1zM16 18h1v2h-1zM33 18h1v1h-1zM5 19h1v2h-2v-1h1zM7 19h1v1h-1zM13 19h1v1h1v1h-2zM19 19h1v1h1v1h-3v1h1v1h-2v2h-1v1h-1v-1h-1v2h-1v-3h2v-1h1v-1h1v-2h2zM31 19h2v2h-1v-1h-1zM2 20h1v1h-1zM25 20h1v1h-1zM1 21h1v1h1v1h-2zM12 21h1v1h-1zM15 21h1v1h-1zM30 21h2v2h-1v-1h-1zM5 22h1v2h1v1h-1v1h-1zM14 22h1v1h-1zM24 22h1v1h1v1h-3v-1h1zM26 22h2v1h-2zM33 22h1v3h-1v-1h-1v-1h1zM7 23h1v1h-1zM19 23h1v1h-1zM29 23h1v1h1v1h-1v1h1v1h-1v3h-6v1h1v1h1v1h-1v1h-1v-2h-1v-2h-1v3h1v1h-5v-2h-3v-1h-1v-1h-1v1h-1v-1h-1v-1h2v-1h1v1h1v1h1v1h1v-3h1v-1h2v-2h1v2h1v-1h1v-1h1v1h1v-1h1v-1h3zM2 24h1v1h-1zM21 24h1v1h-1zM1 25h1v1h-1zM3 25h1v1h-1zM18 25h1v1h-1zM16 26h2v1h-2zM26 26v3h3v-3zM32 26h1v1h-1zM1 27h7v7h-7zM23 27v2h1v-2zM27 27h1v1h-1zM2 28v5h5v-5zM31 28h1v1h1v-1h1v3h-1v-1h-2zM3 29h3v3h-3zM20 29v1h-2v1h1v1h2v-3zM9 30h1v1h2v1h-3zM30 30h1v1h-1zM27 31h2v1h-2zM12 32h3v1h1v1h-4zM29 32h1v1h-1zM33 32h1v1h-1zM9 33h1v1h-1zM26 33h2v1h-2zM31 33h1v1h-1z"/></svg>