<svg xmlns="http://www.w3.org/2000/svg" viewBox="0 0 35 35"><path d="M1 1h7v7h-7zM9 1h1v1h1v2h-1v-1h-1zM12 1h1v1h1v1h1v-1h1v2h-2v1h-2v-1h1v-1h-1zM17 1h1v1h-1zM19 1h6v1h1v2h-1v-1h-3v-1h-3zM27 1h7v7h-7zM2 2v5h5v-5zM18 2h1v1h-1zM28 2v5h5v-5zM3 3h3v3h-3zM17 3h1v1h-1zM19 3h1v1h1v1h-1v3h-1zM21 3h1v1h-1zM29 3h3v3h-3zM9 4h1v1h-1zM23 4h1v2h-1zM10 5h2v1h-2zM14 5h1v2h-1zM17 5h1v3h1v1h1v1h-1v1h-2v-1h-2v-3h1v1h1v-1h-1v-1h1zM25 5h1v3h-1zM12 6h1v1h-1zM22 6h1v1h-1zM9 7h1v1h1v1h1v1h-1v2h2v1h-2v1h-1v-1h-1v-1h-3v-1h2v-1h-2v-1h3v2h1v-2h-1zM11 7h1v1h-1zM13 7h1v2h-1zM21 7h1v1h-1zM23 7h1v1h1v1h-2zM20 8h1v1h-1zM1 9h1v1h-1zM3 9h2v1h-1v1h-2v-1h1zM22 9h1v1h2v1h1v2h-1v-1h-1v-1h-1v1h-2v-1h-1v-1h2zM25 9h1v1h-1zM27 9h1v2h2v-2h1v1h1v-1h2v5h-1v-1h-1v-2h-1v3h-2v-1h1v-1h-1v1h-1v-1h-1v-1h-1v-1h1zM5 10h1v1h-1zM12 10h1v1h-1zM14 10h1v2h-1zM19 11h1v1h-1zM1 12h1v1h2v-1h2v1h-1v1h-1v1h1v1h-2v-2h-1v1h-1zM16 12h3v1h-1v1h-1v-1h-1zM23 12h1v3h-1zM7 13h1v1h-1zM13 13h1v2h-3v-1h2zM15 13h1v3h1v1h-2zM26 13h1v1h-1zM5 14h2v1h1v1h-2v-1h-1zM8 14h2v1h-2zM18 14h1v1h2v-1h1v2h4v-1h1v1h1v3h-4v-1h-2v1h-1v-1h-2v-1h2v-1h-3zM25 14h1v1h-1zM28 14h1v1h-1zM32 14h1v1h-1zM10 15h1v4h-1v-1h-1v1h-1v-1h-1v1h-1v-1h-3v-1h5v-1h2zM29 15h1v1h-1zM31 15h1v3h-1v1h-1v2h-1v1h-1v-2h1v-3h1v-1h1zM1 16h1v1h-1zM12 17h1v1h-1zM25 17v1h1v-1zM1 18h1v2h2v1h-1v1h3v1h-5v-1h1v-1h-1zM16 18h1v2h-1v2h-1v-2h-2v-1h3zM33 18h1v1h-1zM5 19h1v1h-1zM7 19h1v1h-1zM9 19h1v1h-1zM11 19h1v1h-1zM19 19h1v2h-2v-1h1zM22 19h1v1h-1zM31 19h2v2h1v4h-1v-1h-1v-1h1v-1h-1v1h-1v2h-1v1h1v1h-1v3h-4v1h3v1h-2v1h-2v1h-1v-2h1v-2h-1v1h-2v2h-1v1h-4v-1h1v-1h-3v-4h3v-1h2v-2h1v-1h1v2h-1v1h1v-1h1v3h1v-2h1v-3h1v1h1v-1h3v-3h2v-1h-1zM6 20h1v1h2v2h-1v-1h-2zM10 20h1v1h1v1h-1v1h1v3h1v-2h2v1h1v1h1v-1h2v1h-1v1h-3v-1h-1v2h-2v-1h-1v-1h-1v-1h1v-1h-2v-1h1zM12 20h1v1h-1zM24 20h1v1h1v1h-1v2h-1v-2h-2v-1h2zM17 21h1v1h1v1h-2v2h-1v-1h-1v-1h1v-1h1zM20 21h1v1h1v1h-2zM27 22h1v1h-1zM7 23h1v1h-1zM26 23h1v1h-1zM2 24h3v1h-1v1h-1v-1h-1zM6 24h1v1h1v1h-3v-1h1zM8 24h1v1h-1zM23 24h1v2h-1zM1 25h1v1h-1zM9 26h1v3h-1zM26 26v3h3v-3zM1 27h7v7h-7zM27 27h1v1h-1zM2 28v5h5v-5zM21 28v1h1v-1zM31 28h1v4h-2v-2h1zM33 28h1v3h-1zM3 29h3v3h-3zM12 29h1v1h-1zM9 30h3v1h1v1h-1v1h-2v-1h-1zM16 30v1h1v-1zM18 30v1h1v2h1v-1h1v-2zM14 32h1v1h-1zM29 32h1v1h-1zM33 32h1v1h-1zM9 33h1v1h-1zM15 33h1v1h-1zM22 33h1v1h-1zM27 33h1v1h-1zM31 33h1v1h-1z"/></svg>