<svg xmlns="http://www.w3.org/2000/svg" viewBox="0 0 35 35"><path d="M1 1h7v7h-7zM10 1h1v2h2v2h-2v-1h-1v4h1v-2h1v3h-1v1h-1v-1h-1v-6h1zM13 1h1v2h-1zM15 1h1v1h-1zM17 1h1v1h-1zM19 1h3v2h1v1h-3v-1h1v-1h-1v1h-1zM24 1h1v1h-1zM27 1h7v7h-7zM2 2v5h5v-5zM16 2h1v1h-1zM25 2h1v2h-1v2h-1v2h1v1h1v1h-1v1h-1v-1h-1v-1h-1v1h1v1h-1v1h-1v-1h-2v1h2v2h-1v-1h-2v-2h-1v-4h1v2h1v1h1v-2h1v-1h1v1h1v-1h-1v-1h-1v-1h2v-1h1v-1h1zM28 2v5h5v-5zM3 3h3v3h-3zM15 3h1v1h-1zM17 3h1v1h-1zM29 3h3v3h-3zM16 4h1v1h1v1h-3v-1h1zM19 4h1v1h-1zM13 6h1v3h-1zM18 6h1v1h-1zM20 6h1v1h-1zM15 7h1v3h-1v1h2v2h1v1h-1v1h1v1h-1v1h2v1h-1v1h-1v-1h-1v1h-3v-1h-3v-1h1v-1h1v1h1v-1h-1v-1h2v1h2v-2h-1v-1h1v-1h-1v1h-2v1h-1v-1h-3v-1h2v-1h1v1h1v-2h1v-1h1zM19 7h1v1h-1zM25 7h1v1h-1zM1 9h1v1h-1zM3 9h5v1h-4v1h-1zM12 9h1v1h-1zM27 9h5v2h1v1h1v1h-1v1h1v1h-1v1h-1v1h-1v1h1v1h1v1h1v3h-1v-2h-2v1h-3v-1h1v-2h1v1h1v-1h-1v-1h-1v1h-1v1h-1v-2h1v-2h1v1h1v-1h1v-1h1v-2h-1v2h-1v-1h-1v-3h1v1h1v-1h-1v-1h-2v1h-1zM8 10h2v1h-1v1h-2v-1h1zM33 10h1v1h-1zM1 11h1v2h-1zM4 11h2v1h-1v1h-1zM23 11h1v1h-1zM25 11h1v1h-1zM6 12h1v1h-1zM22 12h1v1h-1zM24 12h1v1h2v1h1v2h-2v1h1v1h-2v1h-1v-1h-1v-1h-2v-2h2v1h1v1h1v-2h1v-1h-1v1h-1v-1h-1v-1h1zM2 13h2v1h3v1h1v1h-2v1h-1v-1h-1v2h-1v1h1v-1h2v-1h2v1h-1v1h2v-1h1v2h-1v1h-1v-1h-2v1h-1v-1h-4v-1h1v-1h-1v-1h2v-1h-1v-1h1v-1h-1zM7 13h1v1h-1zM1 14h1v1h-1zM9 14h3v1h-1v1h-2zM18 14h2v1h-2zM29 15h1v1h-1zM8 16h1v1h-1zM14 17v1h1v-1zM20 17h1v1h2v1h-1v1h1v1h-2v-2h-1zM33 17h1v2h-1zM16 19h1v3h1v1h-3v-1h1v-1h-1v1h-2v1h1v1h2v2h-1v2h-1v-3h-1v-1h-1v-1h-3v1h-2v-1h1v-1h1v-1h2v-1h2v1h1v-1h2zM19 19h1v1h-1zM25 19h1v1h-1zM1 21h4v1h-3v4h-1zM7 21h1v1h-1zM19 21h2v1h1v1h1v2h-2v1h1v1h-3v1h2v1h-3v-1h-2v-1h1v-3h1v1h1v1h1v-2h1v-1h-1v-1h-1zM24 21h1v2h-1zM26 21h1v1h-1zM6 22h1v1h-1zM27 22h1v1h-1zM31 22h1v1h-1zM3 23h2v1h-1v2h-1zM18 23h1v1h-1zM28 23h2v1h2v-1h1v1h1v1h-3v1h-1v3h1v1h1v-1h-1v-3h1v1h1v2h1v2h-3v1h1v1h-2v1h-3v-1h1v-1h-1v-1h1v-1h-1v1h-2v-2h-1v-1h-1v-1h2v-1h-2v-1h1v-1h4v1h1v-1h-1zM6 24h1v1h2v-1h2v1h-1v1h1v-1h1v1h1v1h-2v2h1v-1h2v1h1v2h-2v-1h-1v1h-1v1h-2v-4h1v-1h-1v-1h-3zM26 26v3h3v-3zM33 26h1v1h-1zM1 27h7v7h-7zM27 27h1v1h-1zM2 28v5h5v-5zM22 28h1v1h-1zM3 29h3v3h-3zM16 29h2v1h-1v1h1v-1h5v1h2v1h-1v1h2v1h-3v-1h-1v-1h-1v-1h-1v1h-3v1h2v1h-3zM23 29h1v1h-1zM12 31h1v2h-1zM29 31v1h1v-1zM14 32h1v2h-2v-1h1zM20 32h1v1h-1zM26 32h1v1h-1zM9 33h3v1h-3zM21 33h1v1h-1zM32 33h1v1h-1z"/></svg>