<svg xmlns="http://www.w3.org/2000/svg" viewBox="0 0 35 35"><path d="M1 1h7v7h-7zM9 1h2v1h1v-1h1v1h1v1h1v-1h1v1h2v1h-5v1h-1v-2h-1v3h-1v-1h-1v-1h1v-1h-1zM17 1h1v1h-1zM20 1h5v2h-1v6h-1v-6h-1v1h-1v1h-1v1h-1v1h-1v1h1v1h1v1h2v-1h1v1h2v2h-1v-1h-2v1h-1v-1h-1v1h-1v-1h-2v-1h1v-1h-1v1h-1v1h-1v1h-1v-1h-2v-1h-2v-1h2v-1h1v-1h1v3h1v-1h1v-1h1v-1h-1v-1h1v-1h2v-2h2v-1h-1zM27 1h7v7h-7zM2 2v5h5v-5zM18 2h1v1h-1zM28 2v5h5v-5zM3 3h3v3h-3zM25 3h1v1h-1zM29 3h3v3h-3zM14 5h1v1h-1zM25 5h1v1h-1zM12 6h1v1h-1zM9 7h1v2h-1zM11 7h1v1h-1zM15 7h1v1h-1zM19 7h1v1h-1zM21 7h1v1h-1zM25 7h1v3h-1zM20 8h1v1h-1zM1 9h1v1h-1zM3 9h2v1h-2zM6 9h3v1h-3zM27 9h1v2h-1zM30 9h1v1h1v1h-1v3h2v1h-1v3h-1v1h-1v2h-2v-1h1v-3h1v-3h-1v1h-1v-2h-1v1h-1v-2h2v-1h2zM32 9h2v5h-1v-1h-1v-2h1v-1h-1zM2 10h1v1h1v1h-1v1h-2v-1h1zM5 10h1v2h-1zM7 11h3v1h1v1h-1v1h1v1h-1v1h-3v-1h1v-1h1v-2h-2zM11 11h1v1h-1zM6 12h1v1h-1zM12 12h2v2h1v-1h1v-1h1v1h1v1h-2v2h1v1h-1v1h-1v3h-1v-2h-1v-1h1v-3h-2v-1h1v-1h-1zM18 12h1v1h-1zM20 12h1v2h-1zM29 12v1h1v-1zM3 13h3v3h-2v-1h1v-1h-1v1h-2v-1h1zM7 13h1v1h-1zM11 13h1v1h-1zM23 13h2v1h-2zM18 14h1v1h2v-1h2v1h-1v1h1v1h1v1h1v-2h1v1h1v-2h1v1h1v1h-1v3h-1v1h-1v1h-1v-2h1v-1h1v-1h-1v1h-3v1h-1v-1h-1v-1h1v-1h-1v-1h-1v1h1v1h-2v-2h-1zM25 14h1v1h-1zM1 15h1v1h-1zM11 15h1v1h-1zM23 15h1v1h-1zM2 16h1v4h-1zM6 16h1v1h2v1h-2v1h-1v2h-1v-3h1zM12 16h1v1h-1zM4 17h1v1h-1zM10 17h2v1h-2zM17 17h1v1h-1zM9 18h1v1h-1zM16 18h1v1h1v1h-2zM32 18h2v1h-1v1h-2v-1h1zM7 19h2v2h-1v-1h-1zM11 19h1v1h-1zM19 19h1v1h2v1h-4v-1h1zM1 20h1v1h-1zM3 20h1v2h1v1h-2v-1h-1v-1h1zM23 20h1v2h-1v1h-3v-1h2v-1h1zM33 20h1v5h-1v-1h-1v-1h1v-1h-1v1h-2v-2h3zM6 21h2v1h-1v1h-1zM9 21h3v1h-2v3h1v2h-1v2h-1v-3h-2v-1h1v-1h1v-1h-1v-1h1zM13 21h1v1h-1zM15 21h3v1h1v1h-2v2h-1v1h-4v-1h2v-1h1v-1h1v-1h-1zM1 22h1v1h-1zM14 22h1v1h-1zM24 22h1v2h-1zM27 22h1v1h2v1h1v1h-1v1h1v1h-1v3h-6v1h5v1h-3v1h-1v-1h-1v1h-1v-3h-1v3h-1v1h-3v-2h1v1h1v-1h1v-3h-1v1h-2v2h-2v-1h1v-2h1v-2h2v-2h1v-1h1v2h-1v2h1v-2h1v-1h1v2h-1v2h1v-2h1v-3h2zM5 23h1v1h1v1h-1v1h-1v-1h-3v-1h3zM7 23h1v1h-1zM11 23h2v1h-1v1h-1zM28 24v1h1v-1zM1 25h1v1h-1zM18 25h1v1h-1zM16 26h2v1h-2zM26 26v3h3v-3zM32 26h1v1h-1zM1 27h7v7h-7zM11 27h5v1h-1v1h-1v-1h-1v1h-1v-1h-1zM27 27h1v1h-1zM2 28v5h5v-5zM16 28h1v1h-1zM31 28h2v1h1v2h-1v-1h-1v2h-2v-2h1zM3 29h3v3h-3zM10 29h2v1h-2zM13 29h1v3h-3v1h-1v-1h-1v-2h1v1h2v-1h1zM15 30h1v1h-1zM29 32h1v1h-1zM33 32h1v1h-1zM9 33h1v1h-1zM11 33h1v1h-1zM13 33h1v1h-1zM15 33h1v1h-1zM22 33h1v1h-1zM24 33h1v1h-1zM30 33h2v1h-2z"/></svg>