<svg xmlns="http://www.w3.org/2000/svg" viewBox="0 0 35 35"><path d="M1 1h7v7h-7zM9 1h3v1h1v1h1v-2h2v2h1v-1h1v3h1v1h-1v3h1v1h2v1h-3v-1h-1v-1h-1v-1h1v-1h-1v1h-1v-1h-1v-1h-1v1h-1v-3h-1v1h-1v-1h-1zM18 1h1v1h-1zM22 1h1v2h1v1h-1v2h3v3h1v1h-2v3h1v1h-1v1h-1v-2h-1v-1h-1v-1h2v-2h1v-2h-1v1h-1v-1h-1v-2h-1v-1h-1v-1h-1v-1h2v1h1zM27 1h7v7h-7zM2 2v5h5v-5zM28 2v5h5v-5zM3 3h3v3h-3zM29 3h3v3h-3zM14 4v1h1v1h1v-1h-1v-1zM19 4h1v1h-1zM24 4h2v1h-2zM9 5h1v1h-1zM10 6h1v1h-1zM20 6h1v1h-1zM9 7h1v1h-1zM11 7h1v1h-1zM13 7h1v1h1v1h-2v1h-3v1h2v1h-2v1h3v1h-2v1h1v2h-1v-1h-1v-1h-1v-2h-1v-1h1v-2h-4v2h1v-1h2v1h-1v1h1v1h-2v-1h-1v1h1v1h3v1h1v1h-2v-1h-4v-4h-1v-1h1v-2h8v-1h1zM19 7h1v2h-1zM21 7h1v1h-1zM1 9h1v1h1v1h-1v1h1v1h-2zM15 9h1v1h-1zM21 9h1v1h-1zM29 9h1v1h1v-1h3v1h-2v1h2v3h-1v-1h-2v-1h-2v-1h-1v-1h1zM14 10h1v4h-1v-2h-1v-1h1zM16 10h1v1h1v2h-1v-1h-1zM27 11h1v1h-1zM19 12h3v4h-2v-1h-2v-2h1v1h1v-1h-1zM28 12h1v1h-1zM27 13h1v1h-1zM1 14h1v1h-1zM15 14h1v1h1v1h-1v1h-1v1h-2v1h-1v1h-1v1h-1v-1h-1v1h-1v-1h-1v-1h1v-1h2v-1h1v1h1v-1h2v-2h1zM26 14h1v3h3v2h-1v-1h-1v2h2v-1h1v-1h1v2h1v-2h1v4h-1v-1h-2v1h-1v-1h-3v-1h-1v2h-1v-1h-1v1h1v3h2v-1h1v1h2v5h-3v3h-1v-1h-2v1h-1v-5h1v-1h-2v-1h2v-3h-2v-1h1v-2h1v-1h3v-1h-1v-1h-1v-2h1zM28 14h1v1h-1zM29 15h2v1h1v1h-2v-1h-1zM1 16h1v5h-1zM3 16h1v1h-1zM17 16h1v2h-1v1h1v-1h2v-1h1v1h2v-2h1v3h-3v1h-3v2h-3v-1h1v-2h-1v-1h1v-1h1zM33 16h1v1h-1zM4 17h4v1h-1v1h-1v-1h-2zM3 18h1v1h-1zM4 19h1v1h-1zM13 19h1v1h1v1h-1v1h-1v-1h-1v-1h1zM3 20h1v1h-1zM21 20h1v1h-1zM7 21h1v1h-1zM9 21h1v1h3v2h-1v1h2v-2h2v1h-1v2h-1v1h-1v-1h-2v-2h-1v3h2v1h-1v1h-1v1h1v1h1v2h1v-1h1v2h-5v-1h1v-2h-1v-6h-1v-1h-1v-1h2zM19 21h2v2h-1v-1h-1zM1 22h1v3h1v1h-2zM3 22h3v2h-2v-1h-1zM18 22h1v1h-1zM26 22h1v1h-1zM28 22h2v1h-1v1h-1zM19 23h1v1h-1zM31 23h3v3h-1v1h-1v2h-1v-3h1v-1h-1zM3 24h1v1h-1zM6 24h1v1h-1zM16 24h1v1h-1zM18 24h1v1h-1zM20 24h2v1h-2zM4 25h2v1h-2zM7 25h1v1h-1zM17 25h1v1h2v1h-1v1h1v1h-1v1h-1v1h-1v-2h-1v1h-1v-1h-1v-2h1v1h1v-2h1zM26 26v3h3v-3zM1 27h7v7h-7zM20 27h1v1h-1zM27 27h1v1h-1zM2 28v5h5v-5zM12 28h1v1h1v1h1v2h-1v-1h-1v-1h-1zM3 29h3v3h-3zM20 29h2v2h-1v1h-1v-1h-1v-1h1zM24 30v1h1v-1zM30 30h4v3h-5v-1h-1v-1h2v1h1v-1h-1zM16 31h1v1h-1zM15 32h1v1h-1zM19 32h1v1h-1zM21 32h1v1h-1zM16 33h3v1h-3zM20 33h1v1h-1zM24 33h2v1h-2zM28 33h1v1h-1z"/></svg>