<svg xmlns="http://www.w3.org/2000/svg" viewBox="0 0 35 35"><path d="M1 1h7v7h-7zM9 1h2v3h2v1h-1v3h-1v-1h-1v-1h1v-1h-2v-1h1v-1h-1zM17 1h1v1h1v1h-1v1h-1zM20 1h2v1h2v-1h1v1h1v6h-1v-3h-2v-2h-2v-1h-1zM27 1h7v7h-7zM2 2v5h5v-5zM13 2h1v1h1v-1h1v2h-3zM28 2v5h5v-5zM3 3h3v3h-3zM19 3h1v1h1v1h-1v1h-2v2h1v-1h1v1h1v1h-1v1h2v3h-1v1h-1v-2h1v-1h-1v1h-1v-1h-2v-1h1v-1h-1v1h-2v-1h1v-1h1v-1h-1v1h-1v-1h-1v3h1v2h-1v-1h-1v-6h2v1h2v-1h2zM24 3v1h1v-1zM29 3h3v3h-3zM16 4h1v1h-1zM22 5h1v2h-1zM9 7h1v2h-1zM21 7h1v1h-1zM23 7h1v1h-1zM24 8h1v4h-2v-1h1zM1 9h1v1h-1zM3 9h2v2h1v3h1v1h-1v1h-1v-4h-1v2h-1v-1h-1v-1h1v-1h-1v-1h1zM6 9h3v2h-1v-1h-2zM10 9h2v2h-1v2h-1v-1h-1v-1h1zM22 9h1v1h-1zM27 9h1v2h2v-2h1v1h1v1h-1v3h2v1h-1v3h-1v1h-1v2h-1v1h-1v-1h-1v-1h2v-3h1v-3h-1v-1h1v-1h-1v1h-1v-1h-1v-1h-1v-1h1zM32 9h2v3h-2v-1h1v-1h-1zM1 11h1v1h-1zM7 11h1v1h-1zM12 12h1v1h-1zM16 12h1v1h1v1h-2v1h-2v-1h1v-1h1zM18 12h1v1h-1zM26 12h1v2h-1v1h-1v-2h1zM1 13h1v1h1v1h-2zM7 13h2v1h-2zM11 13h1v1h1v1h-2v1h-1v-2h1zM13 13h1v1h-1zM23 13h1v1h-1zM21 14h2v1h-1v1h1v1h1v-1h2v1h2v2h-1v-1h-1v1h1v1h-2v-1h-1v-1h-2v1h-1v-1h-1v2h2v1h-1v1h1v-1h2v-1h1v1h1v1h-1v1h1v1h-2v-2h-1v2h-1v-1h-2v-2h-2v-1h1v-5h2zM28 14h1v1h-1zM3 15h1v2h2v2h-1v-1h-1v1h-1v2h1v2h-3v-2h1v-1h-1v-2h1v-1h1zM7 15h2v1h-2zM13 15h1v1h-1zM26 15h2v1h-2zM1 16h1v1h-1zM9 16h1v2h-3v-1h2zM12 16h1v1h-1zM14 16h3v1h-1v1h1v2h-3v-1h-1v-1h2v-1h-1zM20 16v1h1v-1zM28 16h1v1h-1zM11 17h1v1h-1zM32 18h2v1h-1v1h-2v-1h1zM4 19h1v1h-1zM6 19h4v2h-2v-1h-2zM12 19h1v1h-1zM5 20h1v1h2v1h-2v1h-1zM11 20h1v1h-1zM13 20h1v1h-1zM10 21h1v1h-1zM14 21h2v1h-2zM17 21h1v1h1v2h-1v-1h-1v2h-1v-3h1zM30 21h3v1h-1v1h-2zM8 22h1v1h-1zM11 22h3v2h-1v1h1v-1h1v2h-1v1h-1v1h1v1h-1v3h-1v-2h-2v-1h-1v-3h-3v-1h4v3h1v1h1v-2h-1v-1h1v-2h-1v1h-1v-2h1zM27 22h1v1h-1zM33 22h1v3h-1v-1h-1v-1h1zM4 23h1v1h1v1h-2zM7 23h1v1h-1zM29 23h1v1h1v1h-1v1h1v1h-1v3h-5v1h-3v2h-1v1h-3v-2h-2v1h-2v-1h1v-1h2v-2h1v-2h2v-2h1v3h1v-2h1v3h1v-3h-1v-1h6zM2 24h1v1h-1zM19 24h1v1h-1zM21 24h1v1h-1zM1 25h1v1h-1zM17 25h2v1h-1v1h-2v-1h1zM26 26v3h3v-3zM32 26h1v1h-1zM1 27h7v7h-7zM27 27h1v1h-1zM2 28v5h5v-5zM15 28h2v1h-1v1h-1v1h-1v-2h1zM31 28h1v1h2v2h-1v-1h-1v1h-1v1h-1v-2h1zM3 29h3v3h-3zM9 30h1v2h-1zM19 30v3h1v-1h1v-2zM27 31h2v1h-2zM10 32h2v1h-1v1h-2v-1h1zM23 32h4v2h-1v-1h-1v1h-1v-1h-1zM29 32h1v1h-1zM33 32h1v1h-1zM22 33h1v1h-1zM30 33h2v1h-2z"/></svg>