<svg xmlns="http://www.w3.org/2000/svg" viewBox="0 0 35 35"><path d="M1 1h7v7h-7zM12 1h2v1h-2zM15 1h1v1h-1zM17 1h1v1h-1zM19 1h3v1h-2v1h-1zM23 1h2v1h-2zM27 1h7v7h-7zM2 2v5h5v-5zM16 2h1v1h1v1h-1v1h1v1h-2v2h-1v-3h1v-1h-1v-1h1zM22 2h1v1h2v1h1v1h-1v1h-1v2h-1v-2h-2v-1h2v-1h-1zM28 2v5h5v-5zM3 3h3v3h-3zM9 3h1v1h1v-1h2v1h-1v1h-1v2h-1v2h-1zM29 3h3v3h-3zM13 4h1v1h-1zM19 4h2v1h-2zM12 6h2v3h-1v1h1v-1h2v1h-1v1h2v-1h1v-1h1v3h1v1h-2v-1h-1v1h1v1h-1v1h2v-1h1v2h-3v2h-1v-2h-1v-1h1v-1h-1v-1h1v-1h-1v1h-1v-1h-1v-1h-1v-1h-1v-3h1v1h1v-1h-1zM18 6h3v1h-1v1h1v-1h1v1h1v1h-1v2h-2v-2h-1v-2h-1zM17 7h1v2h-1zM25 7h1v1h-1zM24 8h1v1h-1zM1 9h1v1h-1zM3 9h5v1h-4v1h-1zM23 9h1v1h-1zM25 9h1v1h-1zM27 9h5v2h1v3h1v1h-1v1h-1v1h-2v-2h2v-2h-1v1h-2v-3h1v1h1v-1h-1v-1h-2v1h-2v-1h1zM8 10h1v2h1v-2h1v1h1v1h-1v1h-3v-1h-1v1h1v1h-2v2h-1v1h-1v1h-1v-1h-1v-1h1v-1h2v-4h3zM24 10h1v1h-1zM33 10h1v1h-1zM1 11h1v2h1v1h-1v1h-1zM22 11h1v2h-2v-1h1zM25 11h1v1h-1zM3 12h1v1h-1zM12 12h1v1h-1zM26 12h2v1h-1v1h1v2h-1v-1h-1v-1h-1v1h-1v-1h-1v-1h3zM11 13h1v1h1v-1h1v1h1v1h-1v1h1v1h-1v1h-1v-1h-2v-1h-1v1h1v1h-1v1h-2v-1h1v-2h-2v-1h2v-1h1v1h1zM20 13h1v1h-1zM21 15h1v1h1v-1h1v1h1v1h2v1h-2v1h-1v2h-4v-1h3v-1h-3v1h-1v-2h1v-1h1v1h2v-1h-2zM28 16h1v1h1v1h-1v1h-2v-1h1zM5 17h1v1h-1zM7 17h1v1h-1zM18 17h1v1h-1zM33 17h1v2h-1zM4 18h1v1h-1zM6 18h1v1h1v1h-1v1h2v1h-2v1h4v1h-4v1h-1v-1h-1v2h-1v-1h-1v-1h1v-1h2v-1h-1v-3h1zM15 18h1v1h1v1h-1v2h2v1h-3v-3h-1v-1h1zM17 18h1v1h-1zM30 18h2v1h1v2h-2v1h-2v-3h1v1h1v-1h-1zM3 19h1v1h-1zM10 19h1v1h-1zM12 19h1v1h-1zM26 19h1v1h-1zM1 20h1v6h-1zM13 20h1v1h-1zM10 21h3v2h1v1h-1v1h-1v1h-1v-2h1v-1h-1v-1h-1zM19 21h1v1h-1zM25 21h2v1h-2zM3 22h1v1h-1zM20 22h3v2h1v2h-1v-1h-2v1h1v2h-1v-1h-2v1h2v1h-3v-2h-1v-1h1v-1h1v1h1v-2h1v-1h-1zM24 22h1v1h-1zM27 22h1v2h-1zM33 22h1v1h-1zM29 23h4v1h1v1h-4v-1h-1zM15 24h1v3h-1zM17 24h1v1h-1zM25 24h1v1h4v4h1v2h-2v1h2v-1h1v2h-2v1h-2v-2h-1v-1h1v-1h-1v1h-1v1h-1v-1h-1v-1h1v-1h-1v-1h-1v-1h2zM7 25h2v1h-2zM13 25h1v4h2v1h-2v1h-4v1h-1v-4h1v-1h-1v-1h2v1h2zM26 26v3h3v-3zM31 26h3v1h-1v2h-2zM1 27h7v7h-7zM16 27h1v2h-1zM27 27h1v1h-1zM2 28v5h5v-5zM11 28v2h2v-1h-1v-1zM22 28h1v1h-1zM3 29h3v3h-3zM17 29h1v1h-1zM23 29h1v1h-1zM33 29h1v2h-2v-1h1zM16 30h1v1h2v1h-2v1h2v1h-3v-1h-1v-1h1zM19 30h3v1h1v1h1v1h2v1h-3v-1h-1v-1h-1v-1h-2zM13 32h1v1h-1zM19 32h2v1h-2zM26 32h1v1h-1zM9 33h2v1h-2zM12 33h1v1h-1zM14 33h1v1h-1zM21 33h1v1h-1zM32 33h1v1h-1z"/></svg>