<svg xmlns="http://www.w3.org/2000/svg" viewBox="0 0 35 35"><path d="M1 1h7v7h-7zM10 1h2v1h-1v1h-1zM17 1h1v2h-1v1h-2v-1h1v-1h1zM19 1h6v1h-1v3h-1v-1h-1v-1h1v-1h-1v1h-1v-1h-1v1h-1zM27 1h7v7h-7zM2 2v5h5v-5zM12 2h2v1h-1v1h1v1h4v1h-6v2h-1v-1h-1v1h1v1h-2v-6h1v1h2zM28 2v5h5v-5zM3 3h3v3h-3zM20 3h1v2h-2v-1h1zM25 3h1v2h-1zM29 3h3v3h-3zM21 5h2v1h-2zM24 5h1v1h-1zM18 6h1v1h-1zM20 6h1v1h-1zM25 6h1v3h-2v1h-1v-1h-2v1h2v1h-4v1h1v1h-2v-1h-1v1h1v1h-1v1h2v-1h1v2h-3v1h2v1h-1v1h-1v-1h-1v-1h-1v-2h1v-1h-1v-1h1v-1h-1v1h-1v-1h-2v-1h1v-4h1v2h1v-2h1v4h1v-4h1v2h1v1h1v-1h-1v-2h1v1h1v-1h1v1h1v-1h1v1h1zM1 9h1v1h1v2h-2zM3 9h5v1h-2v2h-1v-1h-1v-1h-1zM11 9h1v2h-2v-1h1zM27 9h5v2h1v1h-1v1h-1v1h-2v-3h1v1h1v-1h-1v-1h-2v2h-1zM8 10h1v1h1v1h-3v-1h1zM24 10h1v1h-1zM33 10h1v1h-1zM25 11h1v1h-1zM6 12h1v1h2v1h1v-2h1v3h-1v1h-1v-1h-1v-1h-2v1h-2v-2h2zM22 12h1v1h-1zM26 12h1v2h1v3h-1v1h-1v-1h-1v-2h1zM2 13h1v2h-1v1h1v-1h1v2h2v2h-3v-1h-1v-1h-1v-3h1zM12 13h1v1h1v1h-2zM23 13h1v1h-1zM22 14h1v1h-1zM24 14h1v1h-1zM32 14h2v1h-1v1h-1v1h-1v1h2v-1h1v2h-1v1h-1v1h-1v1h-3v-1h1v-2h1v1h1v-1h-1v-1h-1v1h-2v-1h1v-1h2v-2h2zM6 15h2v1h-2zM11 15h1v1h-1zM21 15h1v1h1v1h-1v2h1v2h-2v-2h-1v1h-1v-2h1v-1h1zM23 15h1v1h-1zM13 16h1v1h-1zM7 17h1v1h-1zM11 17h1v1h-1zM23 17h2v2h-2zM9 18h2v1h-2zM12 18h4v1h-3v1h1v1h1v2h-2v-1h-1v-2h-1v-1h1zM1 19h1v1h-1zM6 19h3v2h-1v-1h-1v1h-1v1h1v1h1v1h-2v-1h-1v3h-2v-1h1v-1h-1v-1h1v-3h2zM16 19h1v1h-1zM26 19h1v1h1v1h-1v1h-2v-2h1zM10 20h1v1h-1zM15 20h1v1h-1zM1 21h1v1h1v1h-1v3h-1zM7 21h1v1h-1zM16 21h1v1h1v1h-2zM19 21h1v1h-1zM32 21h2v2h-1v-1h-1zM8 22h2v1h-2zM11 22h1v1h-1zM20 22h3v1h1v2h1v-2h1v1h4v-1h1v-1h1v1h1v1h1v1h-4v4h1v1h2v-2h1v3h-2v2h-2v1h-2v-1h-1v-1h-2v-1h1v-1h-1v-1h-1v-1h-1v-1h2v-1h-2v-1h-2v1h1v2h1v1h-5v-1h-1v1h-1v-1h-1v-2h1v1h1v-3h1v1h1v3h2v-1h-1v-3h1v-1h-1zM24 22h1v1h-1zM27 22h1v1h-1zM10 23h1v4h-2v-2h1zM12 23h1v1h-1zM15 23h1v2h-1v1h-1v-1h-1v-1h2zM8 24h1v1h-1zM6 25h2v1h-2zM12 25h1v1h1v1h-2zM26 26v3h3v-3zM31 26h1v1h1v1h-1v1h-1zM33 26h1v1h-1zM1 27h7v7h-7zM11 27h1v1h-1zM27 27h1v1h-1zM2 28v5h5v-5zM9 28h1v4h-1zM12 28h2v1h1v1h-1v1h2v-1h1v1h1v1h-1v2h-2v-1h1v-1h-2v1h-1v-2h-1zM3 29h3v3h-3zM17 29h1v1h-1zM23 29h1v1h-1zM19 30h3v2h-1v-1h-1v1h1v1h-2zM27 30v1h1v-1zM23 31h1v1h-1zM29 31v1h1v-1zM22 32h1v1h-1zM9 33h1v1h-1zM11 33h2v1h-2zM18 33h1v1h-1zM21 33h1v1h-1zM23 33h3v1h-3zM32 33h1v1h-1z"/></svg>