<svg xmlns="http://www.w3.org/2000/svg" viewBox="0 0 35 35"><path d="M1 1h7v7h-7zM10 1h1v2h1v1h-2v1h3v1h-1v2h1v-1h1v2h-2v1h-2v-1h-1v-6h1zM12 1h2v3h-1v-2h-1zM17 1h1v3h-1v-1h-1v-1h1zM19 1h4v3h-1v-1h-1v-1h-1v1h-1zM24 1h1v1h-1zM27 1h7v7h-7zM2 2v5h5v-5zM25 2h1v2h-1zM28 2v5h5v-5zM3 3h3v3h-3zM15 3h1v1h-1zM29 3h3v3h-3zM16 4h1v1h1v1h-4v-1h2zM19 4h2v1h-2zM23 4h1v1h-1zM21 5h1v1h-1zM24 5h1v1h-1zM10 6v2h1v-2zM18 6h3v1h-1v1h1v-1h1v1h1v-2h1v2h1v-1h1v2h-1v2h-1v-1h-1v-1h-2v1h2v1h-1v1h1v1h-2v-2h-1v-2h-1v-2h-1zM15 7h1v4h1v1h-2v1h-1v2h-1v-1h-3v-2h-3v-1h1v-1h2v1h2v1h-1v1h1v-1h2v-3h1zM17 7h1v2h1v3h1v1h-2v1h-1v-2h1v-1h-1zM1 9h1v1h1v-1h5v1h-1v1h-3v1h2v1h-2v1h1v2h-1v1h-1v-1h-2v-2h2v-1h-2v-1h1v-1h-1zM27 9h5v2h1v1h1v3h-1v1h-1v1h-2v1h-1v1h-2v1h-1v-2h-1v-1h1v-2h1v-1h1v1h1v1h-2v2h1v-1h1v-1h1v-2h-1v-3h1v1h1v-1h-1v-1h-2v2h-1zM12 10h1v1h-1zM33 10h1v1h-1zM25 11h1v1h-1zM24 12h1v1h-1zM6 13h2v1h-1v1h-1zM15 13h1v1h-1zM20 13h1v1h-1zM23 13h1v1h-1zM25 13h2v1h-2zM31 13v1h2v-1zM8 14h2v1h-2zM16 14h1v1h1v1h-1v2h-1v-1h-6v-2h2v1h3v-1h1zM19 14h1v2h-1zM24 14h1v1h-1zM7 15h1v1h-1zM21 15h1v1h1v1h-2zM23 15h1v1h-1zM6 16h1v1h-1zM7 17h2v1h1v1h-1v2h-1v-1h-1v-1h1v-1h-1zM18 17h1v1h-1zM20 17h1v1h2v-1h1v1h1v1h-1v2h-4v-1h1v-1h-1v1h-1v-2h1zM33 17h1v2h-1zM2 18h1v1h-1zM5 18h1v1h-1zM13 18h3v1h1v-1h1v2h-3v1h-1v-2h-1zM30 18h2v1h1v1h-1v1h-1v1h-3v-1h1v-2h1v1h1v-1h-1zM3 19h1v3h-1v1h-1v3h-1v-4h1v-1h-1v-1h2zM11 19h2v5h1v1h2v2h1v2h1v1h-1v1h2v1h-2v1h2v1h-7v-1h-2v-1h-1v-4h1v-1h4v2h-1v-1h-2v1h-1v2h3v-1h1v1h1v2h1v-2h-1v-1h1v-2h-1v-1h-1v-1h-1v-1h-1v-1h-1v-1h1v-2h-1v2h-2v-1h1v-2h1zM22 19v1h1v-1zM5 20h2v1h-1v1h-1zM25 20h1v1h-1zM33 20h1v1h-1zM7 21h1v1h-1zM15 21h2v1h2v1h-3v1h-1zM19 21h1v1h-1zM26 21h1v1h1v1h-1v1h-2v-1h1zM20 22h3v1h1v4h1v-2h5v4h1v1h1v-1h-1v-3h1v1h1v1h1v1h-1v1h1v1h-5v1h3v1h-1v1h-3v-2h-1v-1h1v-1h-1v1h-1v1h-1v-1h-1v-1h1v-1h-1v-1h-1v-3h-2v1h1v1h-2v-2h-1v-1h2v-1h-1zM24 22h1v1h-1zM31 22h1v1h-1zM33 22h1v1h-1zM7 23h1v1h-1zM28 23h3v1h1v-1h1v1h1v1h-4v-1h-2zM4 24h1v1h1v1h-3v-1h1zM6 24h1v1h-1zM8 24h2v3h-1v-2h-1zM17 24h1v1h-1zM7 25h1v1h-1zM18 25h1v3h2v2h2v2h2v1h1v1h-3v-1h-1v-1h-1v-1h-2v-1h1v-1h-2v-2h-1v-1h1zM26 26v3h3v-3zM33 26h1v1h-1zM1 27h7v7h-7zM27 27h1v1h-1zM2 28v5h5v-5zM22 28h1v1h-1zM3 29h3v3h-3zM12 29h1v1h-1zM14 29h1v1h-1zM23 29h1v1h-1zM13 32v1h1v-1zM20 32h1v1h-1zM26 32h1v1h-1zM9 33h1v1h-1zM21 33h1v1h-1zM32 33h1v1h-1z"/></svg>