<svg xmlns="http://www.w3.org/2000/svg" viewBox="0 0 35 35"><path d="M1 1h7v7h-7zM9 1h1v2h-1zM13 1h1v2h-1zM17 1h1v1h1v1h-1v1h-1v1h-1v-1h-2v-1h1v-1h1v1h1zM19 1h3v1h2v-1h1v2h-4v-1h-2zM27 1h7v7h-7zM2 2v5h5v-5zM11 2h1v1h-1zM28 2v5h5v-5zM3 3h3v3h-3zM10 3h1v4h-1v-2h-1v-1h1zM12 3h1v1h-1zM19 3h2v1h-1v4h1v1h-1v1h1v-1h2v1h1v-1h1v3h1v1h1v1h-1v1h-1v-2h-1v2h-1v-4h-1v1h-1v-1h-1v1h-1v-1h-1v1h-1v-2h1v-1h-1v1h-2v-1h1v-1h1v-1h-1v1h-1v-2h2v-1h2zM25 3h1v5h-1zM29 3h3v3h-3zM23 4h1v4h-1v-1h-1v-1h1zM12 5h1v1h-1zM14 5h1v1h-1zM13 6h1v2h-1zM9 7h1v2h-1zM11 7h1v2h-1zM18 7v1h1v-1zM21 7h1v1h-1zM1 9h1v1h1v2h2v-1h-1v-1h-1v-1h2v1h1v1h2v-1h-2v-1h3v2h1v2h1v1h1v2h-1v-1h-1v2h-1v-1h-2v1h2v1h1v3h-1v-1h-3v-1h2v-1h-7v-3h1v2h1v-2h3v-1h1v1h1v-1h1v-1h-1v-1h-1v1h-2v1h-3v-2h-1zM27 9h1v2h-1zM30 9h1v1h1v-1h2v4h-1v-1h-1v-1h-1v3h1v-1h1v2h-3v-1h-1v1h-1v-2h-1v-1h1v-1h2zM10 10h1v1h-1zM12 10h3v2h-1v-1h-2zM12 12h1v1h-1zM16 12h1v1h1v1h-2v2h-1v-3h1zM18 12h1v1h-1zM29 12v1h1v-1zM7 13h1v1h-1zM13 14h1v2h1v1h-1v1h-2v2h-1v-3h1v-1h1zM18 14h1v1h-1zM21 14h1v2h1v1h1v-1h3v1h1v2h-1v-1h-1v-1h-1v1h1v1h-2v-1h-2v3h-1v1h1v-1h2v1h-1v1h-3v-2h-2v1h1v1h-2v2h-4v-1h3v-2h1v-1h-1v-2h-1v-2h1v1h1v2h2v-1h1v1h1v-2h-2v-1h2v-1h-2v-1h2zM27 15h1v1h-1zM29 15h1v1h2v2h-1v-1h-1v1h1v1h-1v2h-4v1h-1v-2h4zM5 16v1h1v-1zM16 16h1v1h-1zM33 18h1v1h-1zM1 19h3v1h-1v1h-1v-1h-1zM13 19h2v2h1v1h-1v1h-2v1h-2v3h-1v2h-1v-3h1v-2h-1v-1h-1v-1h-1v-1h2v1h1v-1h1v2h1v-1h2v-1h-2v-1h1zM31 19h2v1h-2zM5 20h1v1h-1zM1 21h1v2h-1zM30 21h2v2h-2zM24 22h1v1h1v2h3v-1h2v1h-1v1h1v1h-1v3h-5v1h-2v-1h-1v3h-1v1h-3v-2h-2v-1h1v-1h-1v-1h-3v-1h-1v1h-1v-2h2v-1h1v1h2v1h1v1h1v-2h1v-1h1v-1h1v-1h1v2h-1v1h1v-1h1v-1h1v2h-1v2h1v-2h1v-2h-1v-1h-1v-1h1zM26 22h2v2h-1v-1h-1zM33 22h1v3h-1v-1h-1v-1h1zM5 23h1v2h-4v-1h3zM7 23h1v1h-1zM8 24h1v2h-2v-1h1zM19 24h1v1h-1zM1 25h1v1h-1zM12 25h1v1h-1zM17 25h2v1h-1v1h-2v-1h1zM26 26v3h3v-3zM32 26h1v1h-1zM1 27h7v7h-7zM27 27h1v1h-1zM2 28v5h5v-5zM20 28v2h-1v1h1v1h-1v1h1v-1h1v-3h1v-1zM31 28h3v1h-2v1h-1zM3 29h3v3h-3zM10 29h1v1h-1zM12 29h1v1h-1zM9 30h1v2h-1zM11 30h1v1h-1zM13 30h2v2h1v1h-1v1h-1v-3h-1zM33 30h1v1h-1zM12 31h1v1h-1zM26 31h3v1h-1v1h-1v1h-1v-1h-1v1h-1v-2h2zM30 31h1v1h-1zM10 32h2v1h-1v1h-2v-1h1zM29 32h1v1h-1zM33 32h1v1h-1zM12 33h1v1h-1zM22 33h1v1h-1zM30 33h2v1h-2z"/></svg>