<svg xmlns="http://www.w3.org/2000/svg" viewBox="0 0 35 35"><path d="M1 1h7v7h-7zM10 1h1v1h-1zM13 1h1v2h-1zM17 1h1v2h-2v-1h1zM19 1h3v2h-1v-1h-1v1h-1zM23 1h2v1h-1v3h-1v-1h-1v-1h1zM27 1h7v7h-7zM2 2v5h5v-5zM25 2h1v3h-1zM28 2v5h5v-5zM3 3h3v3h-3zM9 3h1v1h1v1h-1v4h-1zM11 3h2v1h1v1h2v-1h1v1h1v1h-4v3h2v1h-1v1h2v-4h1v2h1v1h1v-1h-1v-2h1v1h1v-1h1v1h1v-1h1v3h-1v-1h-2v1h1v1h-3v1h1v1h-2v-1h-1v1h-1v-1h-1v1h-2v-1h1v-2h-1v-3h-1v-1h1v-1h-1v-1h-1zM15 3h1v1h-1zM29 3h3v3h-3zM19 4h2v1h-2zM11 5h1v1h-1zM21 5h2v2h-1v-1h-1zM24 5h1v1h-1zM18 6h1v1h-1zM20 6h1v1h-1zM11 7h1v1h-1zM15 7h1v1h-1zM25 7h1v2h-1zM1 9h1v1h-1zM3 9h5v1h-3v1h-1v-1h-1zM10 9h2v1h1v1h-1v2h-1v-1h-2v-1h-1v-1h2zM27 9h5v2h1v1h-1v1h-1v1h-3v-1h1v-2h1v1h1v-1h-1v-1h-2v1h-1zM24 10h1v1h-1zM33 10h1v1h-1zM1 11h3v1h1v1h-2v-1h-2zM5 11h3v1h-3zM22 11h2v1h-1v1h-2v-1h1zM25 11h2v3h-2v-1h1v-1h-1zM8 12h1v1h-1zM33 12h1v3h-1v1h-1v1h-2v-1h-1v-1h3v-2h1zM1 13h1v1h3v1h1v2h2v1h-1v1h1v-1h1v1h1v-1h2v2h-5v1h-2v-3h-2v1h-2v-1h1v-1h1v-1h-2zM6 13h2v1h-2zM9 13h2v2h1v2h-2v-3h-1zM15 13h1v1h-1zM17 13h1v1h-1zM23 13h1v1h1v1h-1v1h1v1h-1v1h-1v-1h-1v2h-2v1h-1v-2h1v-1h1v-2h1v1h1zM12 14h1v1h-1zM14 14h1v2h1v-2h1v1h1v-1h2v3h-1v-1h-2v1h2v1h-1v1h-1v-1h-1v1h-1v1h-1v-1h-1v-1h2v-1h-1zM27 14h1v1h-1zM7 15h1v1h-1zM25 15h1v1h-1zM4 16v1h1v-1zM8 16h1v1h-1zM26 16h2v1h-1v1h1v-1h2v1h-1v1h-1v1h-1v-1h-1zM12 17h1v1h-1zM33 17h1v2h-1zM24 18h1v1h-1zM30 18h2v1h1v1h-1v1h-1v1h-2v-3h1v1h1v-1h-1zM3 19h1v1h-1zM16 19h1v1h-1zM22 19h1v2h-2v1h1v2h1v1h-2v1h1v1h-3v1h2v2h1v2h-1v-1h-1v1h1v1h-2v-2h-1v-1h2v-1h-2v-1h-2v-1h1v-1h1v-1h1v1h1v-1h-1v-1h2v-1h-1v-1h-1v-1h1v-1h2zM25 19h1v1h-1zM1 20h1v1h2v1h-1v1h-1v3h-1zM12 20h1v1h1v2h-1v1h-1v-1h-1v2h-3v-1h2v-1h-2v-1h4zM15 20h1v1h-1zM17 20h1v1h-1zM26 20h1v2h1v1h1v1h-2v-1h-1v-1h-1v-1h1zM7 21h1v1h-1zM33 21h1v2h-1zM5 22h1v1h-1zM16 22h2v1h-2zM24 22h1v1h-1zM3 23h2v1h-1v1h-1zM7 23h1v1h-1zM14 23h1v1h-1zM23 23h1v1h-1zM25 23h1v2h4v-1h1v-1h2v1h1v1h-3v1h-1v3h1v1h3v1h-2v2h-2v1h-7v-1h-1v-1h1v-1h2v2h3v-1h-1v-1h1v-1h-1v1h-1v-1h-1v-1h-1v-1h-1v-1h1v-1h-1v-1h1v-1h1zM13 24h1v2h1v-1h1v2h-2v1h-1v1h-1v-4h1zM17 24h1v1h-1zM4 25h2v1h-2zM7 25h1v1h-1zM9 26h1v1h-1zM26 26v3h3v-3zM31 26h1v1h1v2h-2zM33 26h1v1h-1zM1 27h7v7h-7zM27 27h1v1h-1zM2 28v5h5v-5zM9 28h1v3h1v2h1v1h-3v-1h1v-1h-1zM14 28h2v1h-2zM22 28h1v1h-1zM3 29h3v3h-3zM11 29h1v2h-1zM16 29h2v1h-1v1h1v1h-1v2h-3v-1h1v-1h1zM23 29h1v1h-1zM12 31h3v1h-1v1h-2zM29 31v1h1v-1zM18 33h1v1h-1zM21 33h1v1h-1zM32 33h1v1h-1z"/></svg>