<svg xmlns="http://www.w3.org/2000/svg" viewBox="0 0 35 35"><path d="M1 1h7v7h-7zM10 1h2v1h-1v1h1v2h-1v-1h-1v5h-1v-6h1zM13 1h1v5h-1v1h-1v-2h1zM17 1h1v1h-1zM20 1h3v1h-3zM24 1h1v1h-1zM27 1h7v7h-7zM2 2v5h5v-5zM16 2h1v2h-2v-1h1zM19 2h1v1h-1zM23 2h1v1h-1zM28 2v5h5v-5zM3 3h3v3h-3zM20 3h3v1h-2v1h-2v-1h1zM24 3h2v2h-1v1h-2v-2h1zM29 3h3v3h-3zM15 5h3v1h-3zM21 5h1v1h-1zM14 6h1v1h-1zM19 6h2v1h-1v1h1v-1h1v1h1v1h-2v1h2v1h1v1h-1v1h-1v-1h-1v-1h-1v-2h-1zM22 6h1v1h-1zM11 7h1v1h-1zM13 7h1v1h-1zM15 7h1v1h-1zM17 7h1v2h-1zM23 7h1v1h-1zM25 7h1v3h-1v-1h-1v-1h1zM12 8h1v1h3v2h1v1h-2v1h-1v-2h-1v2h-1zM1 9h1v1h-1zM3 9h5v1h-1v1h3v-1h1v3h1v1h2v1h-4v-1h-1v1h1v1h-3v-1h1v-1h-1v-1h2v-1h-2v1h-1v5h-1v1h-1v-1h-1v1h-1v-2h1v-1h2v-2h-1v1h-1v-2h-1v1h-1v-3h1v1h2v1h1v-2h-2zM18 9h1v3h1v1h-2v1h-1v1h1v1h-1v2h-1v-2h-2v-1h2v-1h-1v-1h2v-1h1v-1h-1v-1h1zM23 9h1v1h-1zM27 9h5v2h1v2h1v2h-1v1h-1v1h-2v-1h1v-1h1v-2h-1v2h-1v-1h-1v-3h1v1h1v-1h-1v-1h-2v1h-1v1h1v1h-1v1h1v2h1v1h1v1h-1v1h-2v1h-1v-2h-1v-1h2v1h1v-1h-1v-2h-1v-5h1zM24 10h1v1h-1zM33 10h1v1h-1zM20 13h1v1h-1zM23 13h1v1h-1zM19 14h1v3h-1zM22 14h1v1h-1zM24 14h1v1h-1zM1 15h2v1h-1v1h-1zM21 15h1v1h3v1h-1v1h-1v-1h-1v2h2v1h-1v1h-1v-1h-1v-1h-1v-2h1zM25 15h1v1h-1zM29 15h1v1h-1zM10 16h1v1h1v-1h2v1h-1v1h-1v2h-1v-2h-1zM7 17h2v1h-2zM18 17h1v1h-1zM33 17h1v2h-1zM9 18h1v2h-1v2h2v-1h1v1h1v-2h1v-2h1v4h-1v1h2v2h-1v-1h-1v2h1v3h-2v1h2v1h-2v1h2v1h-2v1h-1v-1h-1v-2h-1v1h-1v-4h1v2h1v-2h-1v-1h1v-3h1v-1h-1v1h-4v1h-2v1h-1v-3h2v-2h-4v-1h1v-1h1v1h3v1h1v-1h-1v-1h2zM17 18h1v2h-1v1h-1v-2h1zM24 18h1v1h-1zM30 18h2v1h1v1h-1v1h-1v1h-3v-1h1v-2h1v1h1v-1h-1zM1 19h1v1h-1zM19 19h1v1h-1zM20 20h1v1h-1zM25 20h1v1h-1zM19 21h1v1h-1zM26 21h1v1h1v1h1v1h-1v1h2v4h1v2h1v2h-1v1h-4v-1h1v-1h-1v-1h1v-1h-1v1h-1v-1h-1v-1h-1v-1h-1v-1h2v-3h1v1h1v-2h-1zM1 22h1v4h-1zM3 22h1v1h-1zM7 22v1h1v-1zM16 22h3v1h1v1h1v-1h-1v-1h3v1h1v3h-1v-1h-1v2h-3v1h2v1h-3v-1h-2v-1h1v-1h1v-1h1v1h1v-1h-1v-1h-1v-1h-2zM24 22h1v1h-1zM33 22h1v1h-1zM31 23h2v1h1v1h-4v-1h1zM17 24h1v1h-1zM7 25h3v2h-1v-1h-2zM12 26v2h2v-1h-1v-1zM26 26v3h3v-3zM31 26h3v1h-1v1h-1v1h-1zM1 27h7v7h-7zM27 27h1v1h-1zM2 28v5h5v-5zM22 28h1v1h-1zM3 29h3v3h-3zM15 29h3v1h-1v1h1v1h-1v1h2v1h-4v-1h1v-3h-1zM23 29h1v1h-1zM18 30h4v1h1v1h2v1h1v1h-3v-1h-1v-1h-1v-1h-3zM24 30h1v1h-1zM32 30h2v1h-2zM29 31v1h1v-1zM20 32h1v1h-1zM26 32h1v1h-1zM9 33h2v1h-2zM32 33h1v1h-1z"/></svg>