<svg xmlns="http://www.w3.org/2000/svg" viewBox="0 0 35 35"><path d="M1 1h7v7h-7zM15 1h1v1h-1zM17 1h1v1h-1zM20 1h3v2h2v-1h1v3h-1v-1h-1v1h-1v-1h-2v1h-2v-1h1v-1h1v-1h-1zM24 1h1v1h-1zM27 1h7v7h-7zM2 2v5h5v-5zM11 2h1v1h-1zM13 2h1v1h-1zM16 2h1v1h-1zM19 2h1v1h-1zM28 2v5h5v-5zM3 3h3v3h-3zM9 3h1v1h4v1h-2v1h3v1h-1v2h1v-2h1v4h1v2h-1v-1h-1v1h-2v2h1v-1h1v3h1v-3h1v1h1v1h-1v2h-2v1h2v1h-1v1h1v1h1v1h-2v-1h-1v-1h-1v-1h-1v-1h-1v-1h2v-1h-2v1h-1v-2h1v-1h-1v-1h-1v1h-1v-5h1v2h3v-1h-2v-1h-1v-1h-1zM15 3h1v1h-1zM29 3h3v3h-3zM15 5h3v1h-3zM21 5h1v1h-1zM24 5h1v1h-1zM10 6v2h1v-2zM18 6h3v1h-1v1h-1v-1h-1zM22 6h1v1h-1zM25 6h1v2h-1zM12 7v1h1v-1zM17 7h1v2h1v1h1v-2h1v-1h1v1h1v1h-2v1h1v1h-3v1h3v-1h2v1h1v1h-1v1h1v1h-2v1h2v3h-2v-2h-2v-2h1v-1h1v-1h-5v-2h-1zM23 7h1v1h-1zM24 8h1v3h-1v-1h-1v-1h1zM1 9h1v1h1v1h-2zM3 9h5v1h-3v1h1v1h-2v-2h-1zM12 9v1h1v-1zM27 9h5v2h1v2h-2v1h3v1h-1v1h-1v-1h-1v1h1v1h-1v1h1v1h1v1h-1v1h-1v1h-3v-1h1v-2h1v1h1v-1h-1v-1h-1v1h-2v-1h1v-1h2v-3h-2v-1h1v-2h1v1h1v-1h-1v-1h-2v1h-1zM33 10h1v1h-1zM7 11h1v1h-1zM25 11h2v1h1v1h-1v1h1v1h1v1h-2v2h-1v-2h-1v-1h1v-1h-1v-1h1v-1h-1zM6 12h1v1h-1zM1 13h4v2h-1v-1h-1v1h-1v-1h-1zM7 13h1v1h-1zM15 13h1v1h-1zM17 13h1v1h-1zM18 14h2v2h-1v-1h-1zM1 15h1v1h-1zM3 15h1v3h1v-2h1v1h2v1h-1v1h-1v1h-2v-1h-1zM6 15h3v1h-3zM9 16h1v3h-2v-1h1zM1 17h1v2h1v1h1v1h-1v2h-1v3h-1zM18 17h1v1h-1zM20 17h1v1h1v1h-2v1h-1v-2h1zM33 17h1v2h-1zM17 18h1v1h-1zM7 19h1v1h-1zM10 19h2v1h1v1h-3v1h2v1h3v1h-2v1h1v1h1v1h2v2h-1v-1h-1v1h1v1h1v1h2v-1h4v1h1v2h3v1h-4v-1h-1v-1h-1v-1h-1v1h-3v1h2v1h-4v-1h-1v-1h2v-1h-1v-1h-1v-1h-1v-3h-2v-1h-2v1h-2v-1h1v-1h1v-4h1zM25 19h1v1h-1zM17 20h1v1h-1zM21 20h2v1h-2zM24 20h1v1h1v-1h1v2h-2v1h-1zM33 20h1v1h-1zM7 21h1v1h-1zM13 21h1v1h-1zM19 21h1v1h-1zM32 21h1v1h-1zM4 22h2v1h2v1h-2v1h-1v-1h-2v-1h1zM20 22h3v1h-1v1h1v1h-1v2h-2v-3h1v-1h-1zM27 22h1v1h-1zM33 22h1v1h-1zM19 23h1v1h-1zM26 23h1v1h-1zM31 23h2v1h1v1h-3v1h-1v3h1v1h-1v1h-1v1h2v-2h1v-1h-1v-3h1v1h1v3h1v1h-2v2h-2v1h-2v-2h-1v-1h1v-1h-1v1h-3v-1h1v-1h-1v-1h-1v-1h2v-1h-2v-1h2v-1h1v1h2v-1h3zM15 24h1v2h-1zM17 24h1v1h-1zM18 25h1v3h1v1h-2v-2h-1v-1h1zM9 26h2v2h-1v-1h-1zM26 26v3h3v-3zM33 26h1v1h-1zM1 27h7v7h-7zM27 27h1v1h-1zM2 28v5h5v-5zM9 28h1v4h-1zM11 28h1v1h-1zM22 28h1v1h-1zM3 29h3v3h-3zM12 29h1v1h-1zM17 29h1v1h-1zM23 29h1v1h-1zM13 30h1v2h-1v2h-1v-1h-1v1h-2v-1h1v-1h2v-1h1zM20 32h1v1h-1zM21 33h1v1h-1zM32 33h1v1h-1z"/></svg>