<svg xmlns="http://www.w3.org/2000/svg" viewBox="0 0 35 35"><path d="M1 1h7v7h-7zM11 1h2v1h1v1h-1v1h-1v-1h-1v1h1v1h-1v1h1v2h1v1h-2v-2h-1v2h-1v-6h1v-1h1zM17 1h1v2h-2v-1h1zM19 1h6v1h-5v1h-1zM27 1h7v7h-7zM2 2v5h5v-5zM28 2v5h5v-5zM3 3h3v3h-3zM15 3h1v1h-1zM20 3h3v1h-3zM24 3h1v1h-1zM29 3h3v3h-3zM13 4h1v1h-1zM16 4h1v1h2v2h-1v-1h-4v-1h2zM19 4h1v1h-1zM23 4h1v1h-1zM25 4h1v1h-1zM21 5h2v2h-1v-1h-1zM24 5h1v1h-1zM13 6h1v2h-1zM20 6h1v1h-1zM25 6h1v3h-1zM15 7h1v1h-1zM17 7h1v2h1v1h1v-1h-1v-2h1v1h1v-1h1v1h1v-1h1v2h1v2h-2v-2h-2v1h1v1h-3v1h1v1h-2v1h-1v1h2v1h-2v1h2v1h-1v1h-1v-1h-1v1h-1v-2h1v-3h-1v-1h1v-1h-1v1h-1v-1h-1v-1h-1v-1h2v-1h2v1h-1v1h2v1h1v-1h-1zM1 9h1v1h1v-1h5v1h-4v1h-1v1h-2zM10 9h1v2h1v1h1v1h-3v-1h-1v1h-1v-1h-1v-1h1v-1h2zM27 9h5v2h1v3h1v1h-1v1h-1v1h-1v1h2v-1h1v2h-1v2h-2v1h-2v-3h1v1h1v-1h-1v-1h-1v1h-1v1h-1v-1h-1v-2h1v1h1v-2h1v1h1v-1h-1v-1h3v-2h-1v1h-2v-3h1v1h1v-1h-1v-1h-2v3h-1zM33 10h1v1h-1zM4 11h1v1h-1zM22 11h1v2h-1zM25 11h1v1h-1zM5 12h1v2h1v1h1v1h-1v1h1v-1h1v-1h1v2h1v-2h1v1h1v-1h1v1h1v1h-1v2h-1v1h-1v-1h-1v-1h-4v1h1v1h-2v3h2v1h-1v1h-2v-4h-2v1h1v2h-1v-1h-1v3h-1v-7h1v1h3v-1h1v-1h-1v1h-3v-1h1v-2h2v-1h-2v1h-1v-1h-1v-1h2v-1h2zM24 12h1v1h-1zM7 13h1v1h-1zM13 13h1v1h-1zM23 13h1v1h1v1h-2zM26 13h1v1h-1zM8 14h1v1h-1zM10 14h1v1h-1zM14 14h1v1h-1zM19 14h1v1h-1zM27 14h1v2h-2v-1h1zM21 15h1v1h1v1h-1v1h1v-1h1v1h1v1h-3v1h-1v-1h-1v1h-1v-2h1v-1h1zM24 16h2v1h-2zM9 19h2v1h-2zM16 19h1v1h-1zM25 19h1v2h1v1h1v1h1v2h1v4h1v1h-1v1h-1v1h1v-1h1v1h1v1h-1v1h-3v-2h-1v-1h1v-1h-1v1h-1v-1h-1v-1h-1v-1h-1v-1h2v-3h1v1h2v-1h-1v-1h-1v-1h-1v-1h-1v-1h1zM14 20h2v1h-2zM17 20h1v1h-1zM22 20h1v1h-1zM7 21h2v1h-2zM13 21h1v1h1v1h-2zM16 21h1v1h1v1h-2zM19 21h1v1h-1zM33 21h1v2h-1zM11 22h1v1h1v1h-1v2h2v1h-1v1h-1v-1h-1v1h1v1h-1v1h-1v1h1v1h-2v-4h1v-1h-1v-2h1v1h1v-2h-1v-1h1zM20 22h3v2h1v2h-1v-1h-1v3h1v1h-5v-1h-1v1h-1v-1h-1v-1h2v-3h1v1h1v3h2v-1h-1v-2h-1v-1h2v-1h-1zM24 22h1v1h-1zM31 22h1v1h-1zM18 23h1v1h-1zM32 23h1v1h1v1h-4v-1h2zM4 25h1v1h-1zM7 25h1v1h-1zM14 25h1v1h-1zM26 26v3h3v-3zM31 26h3v1h-1v1h1v1h-3zM1 27h7v7h-7zM27 27h1v1h-1zM2 28v5h5v-5zM3 29h3v3h-3zM14 29h2v1h-1v1h-1zM17 29h1v1h-1zM23 29h1v1h-1zM12 30h1v1h1v1h-2zM16 30h1v1h2v-1h4v1h-1v1h-1v-1h-1v1h1v1h-2v-1h-2v2h-2v-1h1v-1h-1v-1h1zM31 30h3v1h-3zM23 31h1v1h-1zM11 32h1v1h-1zM22 32h1v1h-1zM9 33h1v1h-1zM12 33h2v1h-2zM18 33h1v1h-1zM23 33h3v1h-3zM32 33h1v1h-1z"/></svg>