<svg xmlns="http://www.w3.org/2000/svg" viewBox="0 0 35 35"><path d="M1 1h7v7h-7zM10 1h1v1h-1zM14 1h2v1h-2zM18 1h2v2h-1v-1h-1zM22 1h1v1h-1zM27 1h7v7h-7zM2 2v5h5v-5zM9 2h1v1h1v1h-1v1h-1zM11 2h1v1h-1zM17 2h1v3h1v1h-2v1h-1v1h-1v-5h1v2h1zM21 2h1v1h-1zM23 2h1v1h1v-1h1v3h-1v-1h-2v3h-1v-1h-1v-2h1v-1h1zM28 2v5h5v-5zM3 3h3v3h-3zM29 3h3v3h-3zM11 4h1v1h1v-1h1v5h-1v3h-1v1h1v-1h1v-3h2v1h1v2h-2v2h-2v1h-1v-1h-1v-3h1v-2h-1zM19 4h1v1h-1zM24 5h1v1h-1zM19 6h2v1h-1v1h-1zM9 7h1v2h1v1h-2zM12 7v1h1v-1zM17 7h1v2h1v1h1v-2h1v-1h1v3h-1v1h-2v1h1v1h-1v1h-1v-4h-1v-1h-1v-1h1zM23 7h1v1h1v1h-1v1h1v1h-1v1h1v1h1v1h-1v1h-1v3h-1v-2h-2v-1h2v-1h1v-1h-1v-1h-1v-1h1zM25 7h1v1h-1zM1 9h1v1h-1zM7 9h1v1h-1zM25 9h3v1h-3zM30 9h3v5h1v1h-1v1h-1v-1h-1v-1h1v-1h-4v-1h1v-1h-1v-1h2zM2 10h1v1h-1zM4 10h1v1h-1zM8 10h1v1h-1zM3 11h1v1h1v1h-2zM5 11h1v1h-1zM7 11h1v1h-1zM9 11h1v1h-1zM26 11h1v1h-1zM30 11v1h1v-1zM1 12h1v1h-1zM6 12h1v1h-1zM8 12h1v2h-2v-1h1zM21 12h1v2h-2v-1h1zM5 13h1v3h-1v1h1v-1h1v1h1v1h-1v1h-1v-1h-2v-2h-1v-2h2zM27 13h1v1h1v1h-1v1h-2v-1h1zM1 14h1v1h-1zM10 14h1v1h-1zM19 14h1v1h-1zM7 15h1v1h-1zM15 15h4v1h-1v1h-1v-1h-1v1h-1zM29 15h2v1h1v1h-2v-1h-1zM2 16h1v2h1v1h2v1h-1v2h1v1h4v2h1v1h-1v1h-1v-2h-1v-1h-1v1h-1v-1h-1v-1h-1v-2h-1v-2h-1v-1h-1v-1h1zM10 16h2v1h-1v1h-2v-1h1zM25 16h1v1h1v1h1v2h-1v-1h-1v-1h-1zM28 16h1v1h1v1h-2zM33 16h1v5h-1v-2h-1v2h-1v1h-1v2h-2v-4h2v-2h3zM12 17h1v1h1v1h-1v1h-1zM14 17h1v1h-1zM16 17h1v1h1v1h1v-1h1v-1h1v1h1v3h-1v-1h-5zM18 17h1v1h-1zM24 18h1v1h1v1h1v2h-1v-1h-1v-1h-1v1h-1v-2h1zM1 19h1v6h2v-1h1v2h-4zM7 19h1v1h-1zM9 19h2v1h-1v1h-1zM14 19h1v1h-1zM6 20h1v1h-1zM11 20h1v2h-1zM13 20h1v1h-1zM7 21h1v1h-1zM14 21h1v3h-1v1h-1v1h1v1h1v1h1v2h-1v-1h-1v-1h-1v1h-1v-2h-1v-1h1v-4h1v1h1zM16 21h1v1h-1zM19 21h1v1h-1zM24 21h1v2h-3v-1h2zM32 21h1v1h-1zM10 22h1v1h-1zM18 22h1v1h1v1h1v-1h1v3h1v1h-3v-1h1v-1h-2v-1h-1zM20 22h1v1h-1zM3 23h1v1h-1zM32 23h1v1h1v3h-1v1h-1v1h-1v-3h1v-1h-1v1h-1v3h1v1h1v-1h1v1h1v2h-2v-1h-2v1h2v1h-2v1h-3v-1h2v-1h-1v-1h1v-1h-2v2h-2v1h1v1h-3v-2h1v-2h1v1h1v-1h-1v-1h-1v1h-1v-3h2v-1h-1v-1h-1v-1h2v1h2v-1h1v1h2v-1h2zM15 24h3v1h-2v1h-1zM7 25h1v1h-1zM16 26h3v2h3v1h-4v-2h-1v1h-1zM26 26v3h3v-3zM1 27h7v7h-7zM27 27h1v1h-1zM2 28v5h5v-5zM10 28h1v1h-1zM3 29h3v3h-3zM11 29h1v2h-1zM17 29h1v1h-1zM14 30h1v1h2v1h-1v1h1v1h-4v-1h-1v-1h2v1h1v-1h-1zM18 30h5v1h-2v2h-1v-1h-2zM10 31h1v2h1v1h-3v-1h1zM18 33h1v1h-1zM21 33h1v1h-1zM32 33h1v1h-1z"/></svg>