<svg xmlns="http://www.w3.org/2000/svg" viewBox="0 0 35 35"><path d="M1 1h7v7h-7zM12 1h1v1h-1zM15 1h2v1h2v4h-2v-1h1v-1h-1v-1h-1v-1h-1zM19 1h2v1h-2zM22 1h1v1h1v-1h1v1h1v3h-1v1h-1v-1h-1v-1h2v-1h-3v1h-1v2h-1v-3h1v-1h1zM27 1h7v7h-7zM2 2v5h5v-5zM10 2h2v1h-1v2h3v1h2v3h1v1h-1v1h-1v-1h-1v-1h1v-2h-1v2h-1v-3h-1v2h-1v-1h-1v1h-1v-2h1zM28 2v5h5v-5zM3 3h3v3h-3zM12 3h1v1h-1zM15 3h1v1h-1zM29 3h3v3h-3zM14 4h1v1h-1zM16 4h1v1h-1zM21 6h3v3h-1v2h-2v-1h-1v-1h-2v-1h1v-1h1v1h1zM25 6h1v2h-1zM17 7h1v1h-1zM22 7v1h1v-1zM10 8h1v2h-2v-1h1zM1 9h1v2h-1zM4 9h1v1h1v1h-1v1h-2v-2h1zM6 9h2v1h-2zM24 9h1v1h-1zM26 9h1v1h1v1h2v1h1v2h-1v-1h-1v-1h-1v3h-1v-1h-1v1h-1v-2h1v-1h1v-1h-2v-1h1zM28 9h1v1h-1zM8 10h1v1h-1zM11 10h3v2h-1v1h-1v-1h-1zM17 10h1v1h-1zM32 10h2v5h-1v4h1v2h-1v-1h-2v-1h1v-4h-1v-1h2v-3h-1zM7 11h1v1h-1zM9 11h1v2h-1zM18 11h1v2h-4v-1h3zM20 11h1v1h-1zM23 11h1v2h-1v2h2v1h-2v1h1v1h1v-1h1v1h1v1h1v-1h1v2h-1v1h-1v-1h-1v-1h-2v1h1v1h-1v1h-2v-2h-1v-1h2v-1h-2v-1h-1v-1h1v-1h1v-1h-2v-1h2v-1h1zM31 11h1v1h-1zM5 12h1v1h3v1h-2v1h-1v-1h-2v-1h1zM11 13h1v2h-1zM13 13h1v2h2v1h1v1h-2v1h-1v-1h-1v1h-3v-2h-1v1h-1v-1h-1v-1h2v-1h1v1h1v1h2zM3 14h1v1h2v4h2v1h-1v1h1v1h-1v1h2v1h1v-1h-1v-1h1v-1h1v1h1v1h-1v2h2v-1h1v2h-4v-1h-1v1h-2v-1h1v-1h-1v1h-1v1h-3v-1h2v-1h1v-1h-1v-1h1v-2h-2v-1h1v-2h-2zM16 14h2v1h-2zM29 14h1v2h-1zM18 15h2v1h-1v2h-1zM26 15h1v2h-1zM28 16h1v1h-1zM1 17h2v1h1v1h-2v-1h-1zM7 17h1v1h-1zM27 17h1v1h-1zM29 17h2v2h-1v-1h-1zM8 18h1v1h-1zM17 18h1v1h-1zM19 18h1v3h1v1h-1v1h1v1h-3v-1h1v-1h-1v1h-1v1h-1v1h1v-1h1v1h1v1h-4v-2h-1v-3h1v2h1v-2h1v-1h2zM10 19h2v1h-2zM13 19h1v1h-1zM3 20h1v1h1v1h-1v2h-1v1h-1v-1h-1v-1h2zM8 20h1v1h-1zM15 20h1v1h-1zM25 21h2v1h1v1h-1v1h-1v-1h-1zM28 21h1v1h-1zM32 21h1v1h1v2h-1v-1h-3v-1h2zM21 22h1v1h-1zM12 23h1v1h-1zM22 23h1v3h-1zM28 23h1v2h1v-1h1v3h1v-1h1v-1h1v2h-1v3h-1v-2h-1v2h-1v2h-1v-1h-2v-1h-2v-3h-1v-3h2v1h2zM1 25h1v1h-1zM20 25h1v1h1v1h1v2h1v1h-1v1h-1v-1h-2v-2h1v1h1v-1h-1v-1h-2v-1h1zM9 26h1v1h-1zM14 26h1v1h-1zM26 26v3h3v-3zM1 27h7v7h-7zM10 27h3v2h-1v-1h-2zM17 27h1v1h-1zM27 27h1v1h-1zM2 28v5h5v-5zM9 28h1v1h-1zM14 28h1v1h3v1h-1v1h-1v-1h-2zM3 29h3v3h-3zM10 29h2v1h-1v1h1v1h1v1h-2v-1h-1v-1h-1v-1h1zM13 30h1v1h-1zM31 30h1v1h-1zM23 31h1v1h2v-1h1v1h2v1h-1v1h-1v-1h-1v1h-1v-1h-2v1h-2v-1h1v-1h1zM33 31h1v1h-1zM16 32h5v1h-3v1h-1v-1h-1zM9 33h1v1h-1zM13 33h2v1h-2zM30 33h1v1h-1zM32 33h1v1h-1z"/></svg>