<svg xmlns="http://www.w3.org/2000/svg" viewBox="0 0 35 35"><path d="M1 1h7v7h-7zM10 1h2v3h1v-2h1v3h4v1h-4v3h2v1h-1v1h2v-1h1v-1h1v3h1v1h-2v1h-1v1h1v1h-1v2h-1v-1h-1v-1h1v-2h-1v-1h2v-1h-2v1h-1v-3h-1v-5h-1v3h-1v-3h-1v3h1v2h-1v-1h-1v-6h1v1h1v-2h-1zM17 1h1v1h-1zM20 1h5v1h-1v1h1v1h-1v1h-1v-1h-1v-1h1v-1h-1v1h-1v-1h-1zM27 1h7v7h-7zM2 2v5h5v-5zM16 2h1v1h1v1h-3v-1h1zM19 2h1v1h-1zM28 2v5h5v-5zM3 3h3v3h-3zM20 3h1v1h-1zM29 3h3v3h-3zM19 4h1v1h-1zM21 5h2v1h-2zM24 5h1v1h-1zM18 6h3v1h-1v1h-1v-1h-1zM15 7h1v1h-1zM17 7h1v2h-1zM21 7h1v1h1v1h-1v3h2v2h-1v-1h-2v-2h-1v-3h1zM23 7h1v1h-1zM25 7h1v1h-1zM24 8h1v1h-1zM1 9h1v2h1v1h1v2h-1v-1h-2zM3 9h5v1h-1v1h1v-1h1v1h2v1h-1v2h-1v-2h-4v-1h1v-1h-2v1h-1zM23 9h1v1h-1zM27 9h5v1h2v1h-1v1h1v3h-1v1h-1v1h-2v-1h1v-2h1v-1h-1v1h-2v-3h1v1h1v-1h-1v-1h-2v1h-1v3h-2v-2h1v-2h1zM11 10h2v1h-2zM24 10h1v1h-1zM7 13h1v1h-1zM11 13h1v1h-1zM20 13h1v1h-1zM2 14h1v1h-1zM14 14h1v1h-1zM18 14h2v2h-1v-1h-1zM24 14h1v1h-1zM27 14h1v1h-1zM3 15h2v1h-2zM7 15h2v1h-2zM10 15h1v1h-1zM12 15h2v2h1v1h-1v1h-1v-3h-1zM21 15h3v1h1v1h-1v1h1v1h-1v1h-1v-3h-2zM25 15h2v1h2v1h1v1h-1v1h-1v1h-1v-2h1v-1h-1v1h-1v-2h-1zM29 15h1v1h-1zM6 16h1v1h-1zM9 16h1v1h2v2h-3v-1h-2v-1h2zM1 17h3v1h-3zM5 17h1v3h-3v1h1v1h-1v1h-1v3h-1v-5h1v-1h-1v-1h3v-1h1zM18 17h1v1h-1zM20 17h1v1h1v2h-1v-1h-1zM33 17h1v2h-1zM17 18h1v3h-1v-1h-1v-1h1zM30 18h2v1h1v1h-1v1h-1v1h1v1h-2v-1h-1v-3h1v1h1v-1h-1zM7 19h2v1h-2zM12 19h1v1h-1zM14 19h1v1h1v2h2v1h-2v2h-1v1h1v1h-7v-2h-1v-1h-1v-1h2v1h1v1h1v-1h-1v-1h2v1h1v1h-1v1h2v-2h-1v-1h2v-1h-2v1h-1v-2h2zM19 19h1v1h-1zM25 19h1v1h-1zM9 20h1v1h-1zM11 20h1v1h-1zM22 20h1v1h-1zM26 20h1v2h-1zM33 20h1v3h-1zM5 21h3v1h-1v1h-1v-1h-1zM19 21h2v1h2v1h-1v1h1v-1h1v2h1v-1h1v1h1v-1h1v1h2v4h1v3h1v1h-2v1h-2v-2h-1v-1h1v-1h-1v1h-2v-2h-1v-1h-1v-3h-2v1h1v2h-1v-1h-1v-3h1v-1h-1v-1h-1zM24 21h1v2h-1zM9 22h1v1h-1zM27 22h1v1h-1zM3 23h3v1h-1v1h-1v-1h-1zM18 23h2v1h-2zM26 23h1v1h-1zM29 23h1v1h-1zM32 23h1v1h1v1h-4v-1h2zM17 24h1v1h-1zM3 25h1v1h-1zM6 25h2v1h-2zM18 25h1v3h1v1h-2v-1h-2v-1h1v-1h1zM24 26v1h1v-1zM26 26v3h3v-3zM31 26h1v1h1v1h1v3h-2v-2h-1zM33 26h1v1h-1zM1 27h7v7h-7zM27 27h1v1h-1zM2 28v5h5v-5zM9 28h1v3h1v-1h1v1h1v2h-3v-1h-1zM12 28h1v1h-1zM22 28h1v1h-1zM3 29h3v3h-3zM14 29h1v1h-1zM17 29h1v1h-1zM23 29h1v1h-1zM15 30h2v1h1v1h-1v2h-1v-1h-1zM19 30h4v1h-1v1h-1v-1h-1v1h1v1h-2zM23 31h1v2h3v1h-4v-1h-1v-1h1zM29 31v1h1v-1zM9 33h1v1h-1zM13 33h1v1h-1zM18 33h1v1h-1zM21 33h1v1h-1zM32 33h1v1h-1z"/></svg>