<svg xmlns="http://www.w3.org/2000/svg" viewBox="0 0 35 35"><path d="M1 1h7v7h-7zM11 1h1v1h-1zM17 1h1v3h-3v-1h1v-1h1zM20 1h2v1h-2zM24 1h1v1h-1zM27 1h7v7h-7zM2 2v5h5v-5zM12 2h2v3h-1v-2h-1zM19 2h1v1h-1zM28 2v5h5v-5zM3 3h3v3h-3zM9 3h1v1h2v2h-1v-1h-1v1h1v1h-1v1h1v-1h1v1h1v-1h-1v-1h3v1h-1v2h-1v1h-2v1h-1v-2h-1zM22 3h1v1h-1zM25 3h1v1h-1zM29 3h3v3h-3zM19 4h2v1h-2zM23 4h2v2h-1v-1h-1zM15 5h3v1h-3zM21 5h2v1h-2zM18 6h3v1h-1v1h1v-1h1v1h1v1h-2v1h1v2h-1v-1h-1v-2h-1v-2h-1zM23 6h1v2h-1zM15 7h1v1h-1zM17 7h1v2h-1zM25 7h1v2h-1zM1 9h1v1h-1zM3 9h5v1h-2v1h-1v2h-1v-1h-1v-1h1v-1h-1zM14 9h2v1h-1v1h2v1h1v-1h-1v-1h1v-1h1v3h2v1h-3v1h-1v1h1v-1h2v3h-1v-1h-2v1h2v1h-1v1h-1v-1h-3v-1h2v-1h-2v-1h2v-1h-1v-1h1v-1h-1v1h-2v-1h1v-1h-1v-1h1zM23 9h2v2h-1v1h-1zM27 9h5v1h2v1h-1v1h-1v1h-1v1h2v-1h1v2h-1v1h-1v-1h-2v-1h-2v-1h1v-2h1v1h1v-1h-1v-1h-2v1h-1v1h-1v-2h1zM2 10h1v1h-1zM1 11h1v1h-1zM6 11h2v1h-2zM9 11h1v2h1v1h-1v1h-1v1h-2v-1h1v-1h-2v1h-1v2h3v1h-3v1h-1v-5h1v-1h3v-1h1zM11 11h1v1h-1zM2 12h1v2h-1zM22 12h1v1h-1zM27 12h1v1h-1zM12 13h1v2h-1zM23 13h4v1h1v1h-1v3h1v-1h1v-1h3v1h-2v1h-1v1h-3v-1h-1v-1h1v-3h-1v1h-1v3h-1v-1h-2v-2h1v-1h1zM1 14h1v3h1v1h-2zM11 15h1v1h-1zM10 16h1v1h-1zM12 16h1v1h-1zM9 17h1v2h2v3h-1v-2h-1v2h-1v-2h-2v-1h2zM20 17h1v1h2v1h-3v1h-1v-2h1zM33 17h1v2h-1zM12 18h1v1h-1zM24 18h1v1h-1zM30 18h2v1h1v3h-1v-1h-1v1h-3v-1h1v-2h1v1h1v-1h-1zM1 19h1v1h-1zM3 19h1v1h-1zM5 19h1v1h1v1h1v1h-1v1h-1v-1h-1v-1h-1v-1h1zM16 19h1v1h1v1h-1v1h1v1h-2v-1h-2v-1h1v-1h1zM23 19h1v1h-1zM25 19h1v1h-1zM13 20h1v1h-1zM20 20h1v1h-1zM22 20h1v1h-1zM24 20h1v3h-1zM27 20h1v1h-1zM3 21h1v2h-1zM19 21h1v1h-1zM26 21h1v1h1v1h-1v2h3v-1h2v-1h1v1h1v1h-3v1h-1v3h1v1h-1v1h-1v1h2v-2h2v-1h1v2h-2v2h-2v1h-3v-1h1v-1h-1v1h-1v-1h-1v-3h-1v-1h-1v-1h2v-3h1zM1 22h1v4h-1zM8 22h1v2h-2v-1h1zM10 22h1v1h-1zM20 22h2v1h2v3h-1v-1h-2v1h1v1h-3v1h2v2h2v1h1v1h-1v1h-1v-1h-1v-1h-1v1h1v1h-2v-1h-2v1h2v1h-3v-3h-1v-1h1v-3h1v1h1v-1h-1v-1h1v-1h1v1h1v-2h1v-1h-1zM31 22h1v1h-1zM33 22h1v1h-1zM12 23h1v2h1v2h1v1h-2v2h-1v-1h-1v-1h1v-2h-2v1h-1v-1h-2v-1h3v-1h1v1h1zM18 23h1v1h-1zM28 23h2v1h-2zM3 24h3v1h-2v1h-1zM14 24h1v1h-1zM17 24h1v1h-1zM15 26h1v1h-1zM26 26v3h3v-3zM31 26h1v1h1v1h-1v1h-1zM33 26h1v1h-1zM1 27h7v7h-7zM27 27h1v1h-1zM2 28v5h5v-5zM9 28h1v3h3v3h-1v-2h-3zM22 28h1v1h-1zM3 29h3v3h-3zM14 29h1v1h-1zM18 29v1h-1v1h2v-1h1v-1zM23 29h1v1h-1zM13 30h1v1h-1zM27 30v1h1v-1zM14 31h1v1h-1zM9 33h1v1h-1zM21 33h1v1h-1zM23 33h3v1h-3zM32 33h1v1h-1z"/></svg>