<svg xmlns="http://www.w3.org/2000/svg" viewBox="0 0 35 35"><path d="M1 1h7v7h-7zM11 1h1v1h2v3h-2v1h-1v1h-1v2h-1v-6h1v1h2v-1h-2v-1h1zM17 1h1v2h-2v-1h1zM19 1h6v1h-1v1h1v1h-1v1h-1v-1h-1v-1h1v-1h-1v1h-1v-1h-1v1h-1zM27 1h7v7h-7zM2 2v5h5v-5zM25 2h1v1h-1zM28 2v5h5v-5zM3 3h3v3h-3zM15 3h1v1h-1zM20 3h1v1h-1zM29 3h3v3h-3zM16 4h1v1h1v1h-3v-1h1zM19 4h1v1h-1zM25 4h1v1h-1zM21 5h2v1h1v2h-1v-1h-1v-1h-1zM24 5h1v1h-1zM14 6h1v1h-1zM18 6h3v1h-1v1h-1v-1h-1zM25 6h1v2h-1zM11 7h1v1h1v4h-1v-1h-2v2h-2v-1h1v-1h-1v-1h3zM13 7h1v1h-1zM15 7h1v3h-1v1h2v1h-2v1h-1v3h1v-1h1v-1h1v1h2v1h-2v1h2v1h-1v1h-1v-1h-1v-1h-1v2h2v1h-4v-1h1v-1h-1v1h-3v-1h2v-2h1v-1h-1v-1h-1v-1h2v-1h1v-3h1zM17 7h1v2h-1zM21 7h1v1h1v1h-2v1h2v-1h1v1h1v1h-1v1h-1v-1h-1v1h-1v-1h-2v1h1v1h-2v-2h-1v-1h1v-1h1v1h1v-2h1zM24 8h1v1h-1zM1 9h1v1h-1zM3 9h5v1h-3v2h-1v-1h-2v-1h1zM25 9h1v1h-1zM27 9h5v2h1v1h-1v1h-1v1h1v-1h1v1h1v1h-1v1h-1v1h-1v1h1v1h1v1h-1v1h-1v1h1v1h-2v-1h-1v-3h1v1h1v-1h-1v-1h-1v1h-3v-2h-1v-2h2v3h1v-1h2v-1h1v-1h-1v-1h-2v-1h1v-2h1v1h1v-1h-1v-1h-2v3h-1v1h-1v-1h-2v-1h2v-1h1zM33 10h1v1h-1zM7 11h1v1h-1zM1 12h1v1h-1zM3 12h1v1h-1zM22 12h1v1h-1zM4 13h1v1h1v1h2v1h-2v1h-1v-1h-1v3h-1v-2h-2v-2h1v-1h1v1h1zM7 13h1v1h-1zM15 13h1v1h-1zM17 13h1v1h-1zM20 13h1v1h-1zM23 13h1v1h-1zM8 14h1v1h-1zM10 14h1v1h1v1h-2v2h-1v-3h1zM19 14h1v1h-1zM24 14h1v1h-1zM27 14h1v1h-1zM21 15h1v1h1v1h-2zM29 15h1v1h-1zM19 16h1v1h-1zM7 17h1v1h-1zM20 17h1v1h1v2h-1v-1h-1zM23 17h1v1h-1zM33 17h1v2h-1zM1 18h1v1h-1zM6 18h1v1h2v2h1v3h1v-4h1v1h4v1h2v1h-2v2h-1v-1h-1v-1h1v-1h-3v2h2v1h-5v-1h-2v-1h1v-1h-1v-1h1v-1h-1v1h-2v-1h1zM24 18h1v1h-1zM2 19h1v1h-1zM19 19h1v1h-1zM25 19h1v2h-1zM1 20h1v2h1v1h-1v3h-1zM3 20h1v1h-1zM17 20h1v1h-1zM20 20h1v1h-1zM22 20h2v1h-2zM27 20h1v1h-1zM33 20h1v1h-1zM4 21h1v1h-1zM19 21h1v1h-1zM26 21h1v1h-1zM32 21h1v1h-1zM5 22h2v1h-2zM20 22h3v1h1v1h1v1h1v-1h1v1h1v-1h1v-1h1v1h2v-1h1v1h1v1h-4v4h1v3h1v1h-2v1h-3v-1h-1v-1h-3v1h-1v-1h-1v-1h-2v-1h1v-1h1v1h2v1h1v-1h1v1h1v-1h-1v-1h-1v-1h-1v-3h-1v2h-2v-3h1v-1h-1zM24 22h1v1h-1zM27 22h1v2h-1zM33 22h1v1h-1zM3 24h2v1h-2zM17 24h1v1h-1zM5 25h1v1h-1zM7 25h1v1h-1zM14 25h1v2h-1zM18 25h1v3h1v1h-2v1h-1v1h2v1h-2v2h-2v-1h-1v-1h-1v-1h-1v-1h-2v2h-1v-4h1v-1h-1v-1h2v3h1v-3h1v2h1v1h-1v1h1v1h1v1h1v-1h-1v-1h1v-1h-1v-2h2v-1h1zM26 26v3h3v-3zM31 26h1v1h1v1h1v3h-2v-2h-1zM33 26h1v1h-1zM1 27h7v7h-7zM27 27h1v1h-1zM2 28v5h5v-5zM22 28h1v1h-1zM3 29h3v3h-3zM23 29h1v1h-1zM27 30v1h1v-1zM29 31v1h1v-1zM11 32h2v2h-1v-1h-1zM20 32h1v1h-1zM9 33h1v1h-1zM18 33h1v1h-1zM21 33h1v1h-1zM23 33h3v1h-3zM32 33h1v1h-1z"/></svg>