<svg xmlns="http://www.w3.org/2000/svg" viewBox="0 0 35 35"><path d="M1 1h7v7h-7zM10 1h1v1h-1zM13 1h1v1h-1zM15 1h1v1h-1zM17 1h1v3h-1v-1h-1v-1h1zM19 1h3v1h-2v1h-1zM23 1h2v1h-2zM27 1h7v7h-7zM2 2v5h5v-5zM12 2h1v1h-1zM22 2h1v2h-1zM25 2h1v1h-1zM28 2v5h5v-5zM3 3h3v3h-3zM9 3h3v1h-1v1h-1v4h-1zM15 3h1v1h-1zM29 3h3v3h-3zM12 4h1v1h1v1h-2zM16 4h1v1h2v1h2v1h-1v1h-1v-1h-1v-1h-3v-1h1zM19 4h2v1h-2zM23 4h1v1h-1zM21 5h2v1h-2zM24 5h1v1h-1zM11 6h1v2h1v2h-1v-1h-1zM14 6h1v1h-1zM25 6h1v4h-1v1h-1v2h1v2h-1v1h-1v-1h-1v-1h1v-1h-1v-1h1v-1h-1v1h-1v-1h-2v1h1v1h-2v1h-1v1h1v1h-1v2h-1v-1h-1v-1h1v-2h-1v-1h2v-1h1v-1h-1v-4h1v2h1v1h1v-2h1v-1h1v1h1v1h-1v1h1v-1h2zM13 7h1v1h-1zM15 7h1v1h-1zM23 7h1v1h-1zM1 9h1v1h1v-1h5v1h-2v1h-1v2h5v1h-4v1h-2v1h-1v-1h-2v-1h2v-1h1v-1h-1v1h-1v-2h-1zM10 9h1v1h-1zM14 9h2v2h1v1h-2v1h-1v-1h-2v1h-1v-1h-5v-1h2v-1h2v1h1v-1h1v1h1v-1h1zM27 9h5v1h2v1h-1v1h1v3h-1v1h-1v-1h-1v-1h1v-1h-1v1h-3v-1h1v-2h1v1h1v-1h-1v-1h-2v2h-2v-2h1zM12 13h2v1h-1v1h1v1h-1v1h-1v-1h-1v1h1v1h-1v1h-1v1h-1v1h-1v-1h-1v-1h2v-1h-5v1h2v1h-1v1h-1v1h-1v-1h-1v-1h1v-2h-2v-2h2v1h1v-1h2v1h4v-1h-1v-1h1v-1h2zM20 13h1v1h-1zM26 13h1v1h1v1h2v1h2v1h-2v1h-1v1h-3v-1h-1v-1h-1v-1h1v-1h1v2h1v1h1v-1h-1v-2h-1zM19 14h1v1h-1zM7 15h1v1h-1zM21 15h1v1h1v1h-2zM13 17h2v1h-2zM18 17h1v1h-1zM20 17h1v1h1v2h1v1h-2v-2h-1zM23 17h1v1h-1zM33 17h1v2h-1zM12 18h1v1h-1zM15 18h1v1h1v-1h1v3h-1v-1h-1v1h-1v-1h-1v2h-1v-1h-1v1h-1v-1h-1v-1h3v-1h2zM24 18h1v1h-1zM30 18h2v1h1v3h-1v-1h-1v1h-2v-3h1v1h1v-1h-1zM1 19h1v1h-1zM19 19h1v1h-1zM6 20h1v1h-1zM24 20h3v2h-2v-1h-1zM7 21h1v1h-1zM9 21h1v1h-1zM16 21h1v1h1v1h-2zM19 21h2v1h1v2h4v1h1v-1h1v1h2v4h1v1h3v1h-5v1h3v1h-1v1h-8v-1h4v-2h1v-1h-1v1h-1v1h-2v-1h1v-2h-1v-1h-1v-1h1v-1h1v-1h-1v1h-1v-1h-2v1h1v1h-3v1h4v1h-5v-2h-1v-3h1v1h1v1h1v-2h1v-1h-1v-1h-1zM1 22h1v4h-1zM8 22h1v1h1v1h1v3h-2v-2h-1v-1h-1v1h1v1h-5v-3h5zM24 22h1v1h-1zM27 22h1v1h-1zM31 22h1v1h1v1h1v1h-4v-1h-2v-1h3zM33 22h1v1h-1zM12 23h2v1h-1v1h-1zM15 23h1v4h1v1h-2v-3h-1v-1h1zM19 23h1v1h-1zM26 23h1v1h-1zM4 24v1h1v-1zM12 26h2v1h-1v1h-2v-1h1zM26 26v3h3v-3zM31 26h3v1h-1v1h1v1h-3zM1 27h7v7h-7zM27 27h1v1h-1zM2 28v5h5v-5zM9 28h2v1h-1v2h3v1h1v1h1v1h-4v-1h1v-1h-3zM13 28h2v1h-1v1h-1zM3 29h3v3h-3zM11 29h1v1h-1zM17 29h1v1h-1zM23 29h1v1h-1zM14 30h3v1h1v-1h4v2h-1v-1h-2v1h-2v1h2v1h-3v-1h-1v-1h1v-1h-2zM20 32h1v1h-1zM22 32h1v1h-1zM9 33h1v1h-1zM21 33h1v1h-1zM32 33h1v1h-1z"/></svg>