<svg xmlns="http://www.w3.org/2000/svg" viewBox="0 0 35 35"><path d="M1 1h7v7h-7zM9 1h2v1h-1v1h-1zM12 1h2v1h-1v2h1v1h-2v-1h-1v-1h1zM17 1h1v1h1v1h-1v1h-1zM19 1h4v1h-4zM24 1h1v1h1v4h-1v-1h-2v-1h1v-1h-1v-1h1zM27 1h7v7h-7zM2 2v5h5v-5zM15 2h1v2h-2v-1h1zM28 2v5h5v-5zM3 3h3v3h-3zM19 3h1v1h1v1h-1v1h-1v1h-1v1h1v1h1v1h2v1h-2v1h-1v-1h-1v1h-1v-2h-2v-1h1v-1h1v-1h-1v1h-1v-2h2v-1h2zM29 3h3v3h-3zM9 4h2v3h-1v-2h-1zM16 4h1v1h-1zM14 5h1v1h-1zM22 5h1v1h-1zM12 6h2v4h-1v1h-1v-2h1v-2h-1zM9 7h1v1h1v3h-1v-2h-1zM11 7h1v1h-1zM19 7h1v1h-1zM21 7h1v1h-1zM23 7h1v1h-1zM25 7h1v1h-1zM20 8h1v1h-1zM1 9h1v1h-1zM3 9h2v2h4v1h-4v1h-3v-1h1v-1h-1v-1h1zM6 9h3v1h-3zM22 9h1v1h-1zM24 9h1v3h-1v-1h-1v-1h1zM27 9h1v2h2v-2h1v1h1v1h-1v3h-2v1h-1v-3h-1zM32 9h2v3h-1v1h-1v-2h1v-1h-1zM14 10h1v2h-1v2h1v-1h1v-1h1v1h1v1h-2v1h-3v2h-3v-1h2v-1h-2v1h-1v-4h1v2h3v-1h-2v-2h1v1h1v-1h1zM22 11h1v1h-1zM18 12h1v1h-1zM20 12h1v1h-1zM23 12h1v2h-1zM25 12h1v1h-1zM29 12v1h1v-1zM7 13h1v1h-1zM26 13h1v2h-1v1h1v1h1v3h-1v-1h-3v1h-1v-1h-1v2h-4v-1h1v-1h1v1h1v-2h1v-1h-1v-1h-1v-1h1v-1h1v1h2v1h-1v1h2v1h1v-1h-1v-3h1zM33 13h1v1h-1zM3 14h1v1h1v1h-2v1h-2v-1h1v-1h1zM5 14h2v1h1v1h-1v1h1v1h-2v-3h-1zM32 14h1v1h-1zM18 15h1v1h-1zM30 15h2v3h-1v-1h-1v1h1v1h-1v2h-1v1h-1v-2h1v-3h-1v-1h2zM14 16h3v1h-2v1h2v3h-2v-1h-2v-1h1zM3 17h1v1h-1zM9 17h1v1h-1zM17 17h1v1h-1zM19 17h2v1h-2zM2 18h1v1h-1zM11 18h2v1h-1v1h-1v2h-1v-2h-1v-1h2zM33 18h1v1h-1zM3 19h1v1h-1zM6 19h2v1h-2zM31 19h2v1h-2zM5 20h1v1h2v-1h1v2h1v1h-1v1h1v-1h1v1h1v3h-1v-1h-1v-1h-2v-1h-2v-2h-1zM24 20h2v2h-1v2h-3v-1h-2v-1h2v-1h2zM33 20h1v1h-1zM1 21h1v2h-1zM3 21h1v2h-1zM12 21h1v2h-2v-1h1zM14 21h1v1h2v-1h1v1h1v1h-2v2h-1v-2h-1v1h-1v2h1v2h-1v-1h-1v-4h1zM30 21h3v1h-1v1h-1v-1h-1zM7 22v1h1v-1zM23 22v1h1v-1zM26 22h2v2h-1v1h2v-2h1v1h1v1h-1v1h1v1h-1v3h-4v1h-1v-1h-1v3h-1v-3h-1v3h-1v1h-4v-1h1v-1h-4v-1h1v-1h1v1h1v-1h-1v-1h2v-2h2v-2h1v2h1v-1h1v-1h1v1h1v-1h1zM33 22h1v3h-1v-1h-1v-1h1zM4 23h1v1h-1zM19 23h1v2h-1zM2 24h1v1h-1zM21 24h1v1h-1zM1 25h1v1h-1zM3 25h5v1h-5zM15 25h1v1h-1zM17 25h2v1h-1v1h-2v-1h1zM9 26h1v1h1v1h3v1h1v1h-2v-1h-1v2h-2v1h-1v-2h1v-1h-1zM26 26v3h3v-3zM32 26h1v1h-1zM1 27h7v7h-7zM23 27v2h1v-2zM27 27h1v1h-1zM2 28v5h5v-5zM15 28h1v1h-1zM20 28v1h1v-1zM31 28h3v3h-1v-1h-2zM3 29h3v3h-3zM19 30v1h1v1h1v-2zM30 30h1v2h-1zM26 31h3v1h-1v2h-1v-1h-2v-1h1zM11 32h1v1h1v1h-2zM13 32h1v1h-1zM29 32h1v1h-1zM33 32h1v1h-1zM9 33h1v1h-1zM15 33h1v1h-1zM22 33h1v1h-1zM24 33h1v1h-1zM31 33h1v1h-1z"/></svg>