<svg xmlns="http://www.w3.org/2000/svg" viewBox="0 0 35 35"><path d="M1 1h7v7h-7zM9 1h1v1h1v2h1v-2h2v-1h2v2h2v2h1v1h-1v3h-2v-1h1v-1h-1v-2h1v-1h-1v1h-1v-1h-1v-1h-1v2h2v2h-1v-1h-2v-1h-2v-1h-1zM18 1h1v1h-1zM22 1h1v1h1v1h-1v2h1v1h-2v-1h-1v-2h1zM27 1h7v7h-7zM2 2v5h5v-5zM19 2h2v1h-2zM28 2v5h5v-5zM3 3h3v3h-3zM24 3h1v1h1v1h-2zM29 3h3v3h-3zM19 4h1v1h-1zM9 5h1v1h-1zM10 6h2v2h-1v-1h-1zM20 6h1v1h-1zM24 6h1v1h-1zM9 7h1v1h-1zM13 7h1v1h1v1h-2zM15 7h1v1h-1zM19 7h1v2h-1zM21 7h1v1h-1zM23 7h1v2h-1zM25 7h1v2h1v2h1v1h1v1h-1v1h-1v-2h-1v2h-1v-1h-2v-1h1v-1h-1v-1h1v-1h1zM10 8h1v2h-2v1h-1v-1h-1v1h-1v1h-1v-1h-1v-2h6zM1 9h1v1h1v4h-2v-2h1v-1h-1zM12 9h1v3h-1zM15 9h1v1h-1zM18 9h1v2h-1zM21 9h1v1h-1zM29 9h1v1h1v-1h3v1h-2v1h2v3h-1v-1h-2v-1h-2v-1h-1v-1h1zM14 10h1v4h-1v3h-2v1h-1v-3h1v-1h-1v-1h3zM16 10h1v1h1v1h-2zM20 10h1v1h-1zM25 10v1h1v-1zM7 11h1v1h-1zM21 11h2v1h-1v2h1v1h-1v1h-4v-1h1v-1h2zM4 12h1v4h-2v-1h1zM6 12h1v1h-1zM8 12h1v1h1v5h-1v-4h-2v-1h1zM10 12h1v1h-1zM19 12h1v1h-1zM16 13h1v1h-1zM18 13h1v1h-1zM15 14h1v1h1v1h-1v1h1v-1h1v2h-1v1h1v-1h2v-1h2v1h1v-2h1v3h-1v1h-1v1h-1v-1h-4v1h1v1h-3zM24 14h1v1h-1zM26 14h1v3h1v-1h1v1h1v2h-1v-1h-1v1h-1v2h-2v-1h1v-2h-1v-2h1zM28 14h1v1h-1zM31 14h1v1h-1zM1 15h1v1h1v1h-2zM6 15h2v1h-2zM30 16h2v1h-2zM33 16h1v1h-1zM6 17h2v1h-2zM2 18h2v1h2v1h1v1h-1v1h1v1h1v1h-1v1h1v1h-3v-1h-1v-1h2v-1h-4v2h2v1h-3v-4h1v-1h-1v-1h1zM8 18h1v1h2v2h-1v-1h-3v-1h1zM12 18h2v2h-1v-1h-1zM31 18h1v2h1v1h1v1h-2v-1h-1v1h-1v-1h-1v1h1v1h4v3h-2v-1h-1v-1h-1v1h1v1h-1v4h-3v2h-1v-2h-2v1h-1v-3h1v-1h1v-1h-1v-1h1v-1h-2v-1h-1v-1h1v-1h2v2h1v2h1v-1h2v-1h-1v-3h2v-1h1zM33 18h1v2h-1zM24 19h1v1h-1zM3 21v1h1v-1zM7 21h1v1h-1zM9 21h1v1h-1zM12 21h1v1h2v1h-1v1h1v1h1v1h1v-1h1v1h2v1h-1v1h1v1h-1v1h1v-1h1v-1h-1v-1h2v4h-1v1h-1v-1h-3v-1h-1v-3h-1v3h1v1h1v1h-3v-2h-1v-1h1v-1h-1v-1h1v-2h-1v1h-1v1h-1v-3h2v-1h-1zM19 21h2v2h-1v-1h-1zM8 22h1v1h-1zM9 23h2v1h-1v1h-2v-1h1zM15 23h1v1h-1zM19 23h1v1h-1zM16 24h1v1h-1zM18 24h1v1h-1zM20 24h2v2h-1v-1h-1zM9 26h1v2h2v2h-1v-1h-1v2h-1zM22 26h2v1h-2zM26 26v3h3v-3zM31 26h1v3h-1zM1 27h7v7h-7zM27 27h1v1h-1zM2 28v5h5v-5zM17 28v1h1v-1zM3 29h3v3h-3zM30 30h1v1h-1zM32 30h2v3h-3v1h-1v-1h-1v-1h-1v-1h2v1h1v-1h1zM10 31h2v1h-1v1h1v-1h1v2h-4v-1h1zM24 31h1v2h2v1h-3zM19 32h1v1h-1zM21 32h1v2h-2v-1h1zM27 32h1v1h-1zM15 33h4v1h-4zM28 33h1v1h-1z"/></svg>