<svg xmlns="http://www.w3.org/2000/svg" viewBox="0 0 35 35"><path d="M1 1h7v7h-7zM11 1h1v2h2v1h-3v2h-1v3h-1v-6h2zM13 1h1v1h-1zM17 1h1v2h-1v2h2v2h-1v-1h-2v2h-1v-2h-2v-1h3v-1h-1v-1h1v-1h1zM19 1h4v1h-3v1h-1zM24 1h1v1h-1zM27 1h7v7h-7zM2 2v5h5v-5zM28 2v5h5v-5zM3 3h3v3h-3zM22 3h2v2h1v1h-2v-2h-1zM29 3h3v3h-3zM19 4h2v1h-2zM21 5h1v1h-1zM20 6h1v1h-1zM11 7h1v1h1v-1h1v2h2v1h-1v1h2v-4h1v2h1v1h1v-2h1v-1h1v1h1v1h-1v1h1v-1h1v1h1v1h-2v2h-1v-2h-3v1h1v1h-2v1h-1v-2h-2v1h-1v1h-1v-2h1v-1h-1v-2h-2zM19 7h1v1h-1zM23 7h1v1h-1zM25 7h1v1h-1zM24 8h1v1h-1zM1 9h1v1h-1zM3 9h5v1h-1v1h2v-1h1v-1h1v2h-1v1h1v1h-1v1h3v1h-1v1h-1v-1h-3v-1h1v-1h-1v-1h-3v-1h1v-1h-3zM27 9h5v1h2v1h-1v1h-1v1h-1v1h-3v-1h1v-2h1v1h1v-1h-1v-1h-2v3h-1v-1h-1v-1h1zM12 11h1v1h-1zM1 12h1v2h2v1h-1v1h-1v-1h-1zM3 12h2v1h1v1h1v1h-2v-1h-1v-1h-1zM24 12h1v1h-1zM33 12h1v3h-1v1h-1v1h-2v1h-1v1h-1v2h-1v-3h1v-1h1v-1h-1v1h-1v-1h-1v1h1v1h-2v-1h-1v1h-1v-1h-1v1h1v1h1v1h-1v1h-3v-1h2v-1h-2v-2h1v-2h1v-1h1v2h2v-1h2v-1h1v1h4v-2h1zM7 13h1v1h-1zM15 13h1v1h-1zM23 13h1v1h-1zM25 13h2v1h-2zM14 14h1v2h1v-2h1v1h2v1h-2v2h-1v1h-1v1h-1v-1h-2v-2h2v-1h-1v-1h1zM19 14h1v1h-1zM24 14h1v1h-1zM4 15h1v1h-1zM7 15h1v1h-1zM1 16h1v1h1v1h-2zM5 16h1v1h2v-1h1v1h1v-1h1v2h-1v1h-1v1h-2v-1h1v-1h-3zM19 16h1v1h-1zM18 17h1v1h-1zM33 17h1v2h-1zM17 18h1v3h-1v1h1v1h-2v1h-1v-2h1v-1h-1v-1h1v-1h1zM24 18h1v1h-1zM30 18h2v1h1v2h1v2h-1v-1h-1v-1h-1v3h1v-1h1v1h1v1h-4v-3h-2v-1h1v-2h1v1h1v-1h-1zM2 19h2v2h-1v-1h-1zM5 19h1v4h-2v-2h1zM10 19h2v1h-2zM19 19h1v1h-1zM1 20h1v1h1v2h-1v3h-1zM12 20h1v1h-1zM7 21h3v1h-1v2h-2v1h-1v1h-3v-1h1v-1h2v-1h2v-1h-1zM14 21h1v1h-1zM19 21h1v1h-1zM24 21h3v1h-2v1h-1zM10 22h3v1h-1v1h-2zM20 22h3v1h-1v1h1v-1h1v3h-1v-1h-1v3h-1v-1h-2v1h1v1h-2v1h-1v1h1v1h-1v1h2v1h-3v-3h-1v-1h-1v-1h-1v-1h-1v-1h1v-1h2v-1h1v2h-1v1h1v1h1v-1h-1v-1h1v-1h1v-1h1v1h1v-1h-1v-2h1v1h1v-1h-1zM27 22h1v1h1v1h-2v1h3v4h1v1h-1v1h-1v1h1v-1h1v1h1v1h-1v1h-4v-3h1v-1h-1v1h-1v1h-2v-1h1v-2h-1v-1h-1v-1h2v-3h1v-1h1zM3 23h1v1h-1zM13 23h1v1h-1zM9 24h1v1h-1zM14 24h1v1h-1zM17 24h1v1h-1zM7 25h1v1h-1zM10 25h3v1h-1v1h-1v-1h-1zM9 26h1v1h-1zM26 26v3h3v-3zM31 26h1v1h1v1h1v3h-3v-1h1v-1h-1zM33 26h1v1h-1zM1 27h7v7h-7zM27 27h1v1h-1zM2 28v5h5v-5zM9 28h1v1h2v1h2v1h-3v-1h-1v2h-1zM22 28h1v1h-1zM3 29h3v3h-3zM23 29h1v1h-1zM19 30h3v2h-1v-1h-2zM10 32h5v1h-2v1h-2v-1h-1zM20 32h1v1h-1zM22 32h1v1h-1zM9 33h1v1h-1zM23 33h3v1h-3zM32 33h1v1h-1z"/></svg>