<svg xmlns="http://www.w3.org/2000/svg" viewBox="0 0 35 35"><path d="M1 1h7v7h-7zM9 1h6v1h1v2h-1v-1h-1v-1h-1v1h-2v-1h-2zM16 1h2v1h-2zM22 1h3v1h-2v1h3v2h-1v1h-2v-1h1v-1h-2zM27 1h7v7h-7zM2 2v5h5v-5zM19 2h2v1h-1v1h-1v2h-2v-1h-1v-1h2v-1h1zM28 2v5h5v-5zM3 3h3v3h-3zM10 3h1v1h-1zM29 3h3v3h-3zM9 4h1v2h2v2h-1v-1h-1v2h1v1h1v2h1v1h1v-1h-1v-1h3v-2h1v1h1v-2h1v2h1v2h-1v-1h-1v1h-3v2h1v1h1v1h2v2h-1v-1h-2v1h-2v-1h1v-2h-2v-1h-1v-1h-1v1h-1v-2h1v-1h-2v-1h-2v-1h2zM12 4h2v1h-1v1h-1zM14 5h1v1h2v1h-1v2h-1v-2h-1v3h-2v-1h1v-3h1zM20 5h1v1h-1zM19 6h1v2h-1zM21 6h1v2h1v-1h1v1h1v-1h1v2h5v1h1v1h-1v1h-1v-2h-1v1h-1v-1h-3v1h2v2h-1v1h-1v-1h-1v-2h-1v-1h-1v-1h-2v-1h1zM17 7h1v1h-1zM1 9h1v1h-1zM5 9h1v2h-1v1h-1v-1h-1v1h-1v-2h3zM33 9h1v1h-1zM7 11h1v1h-1zM21 11h1v1h1v1h1v1h-2v1h2v-1h1v1h2v1h-4v1h3v1h-1v2h-1v-1h-1v-1h-2v-3h-1v1h-1v-2h2v-1h-1v-1h1zM32 11h1v1h-1zM3 12h1v1h-1zM5 12h1v1h-1zM8 12h1v1h-1zM33 12h1v2h-1zM1 13h1v1h-1zM4 13h1v1h-1zM6 13h2v1h-2zM16 13h2v1h-2zM27 13h4v1h-2v2h-1v-2h-1zM3 14h1v1h-1zM5 14h1v1h3v3h-4v2h2v1h1v1h-1v1h-1v-1h-2v-2h-1v-1h-1v-1h2v-2h1v1h3v-1h-3zM9 14h1v1h-1zM11 14h1v1h-1zM31 14h1v1h1v1h-2zM10 15h1v1h-1zM2 16h1v1h-1zM11 16h1v1h1v1h1v1h-4v-1h1zM1 17h1v1h-1zM27 17h1v1h-1zM29 17h2v1h1v1h-1v1h-1v-2h-1zM32 17h1v1h-1zM16 18h2v1h-1v1h-1zM19 18h1v1h-1zM26 18h1v1h-1zM7 19h1v1h-1zM9 19h1v1h2v1h-2v1h-1zM18 19h1v1h1v2h-1v-1h-2v-1h1zM22 19h1v3h-2v-1h1zM27 19h1v3h-1zM32 19h1v1h-1zM2 20h1v1h-1zM14 20h2v1h-1v2h-2v-2h1zM33 20h1v2h-1v2h1v2h-1v3h1v1h-2v-3h-1v-1h1v-2h-1v-1h-1v-1h-1v-1h2v1h1v-1h1zM1 21h1v1h1v1h-2zM24 21h2v1h-1v2h-2v1h2v-1h2v-1h1v-1h1v1h1v1h-2v1h2v2h1v3h1v2h-3v1h-1v1h-8v-2h1v1h1v-1h-1v-1h3v1h-1v1h1v-1h1v-1h-1v-1h1v-3h-3v-2h-2v-1h1v-1h3zM10 22h2v1h-2zM17 22h2v5h-2v2h-1v1h-1v-2h1v-2h-1v-2h1v1h2v-1h-1zM26 22h1v1h-1zM3 23h3v2h-1v1h-4v-1h3v-1h-1zM7 23h2v1h2v1h-1v3h-1v-2h-3v-1h2v-1h-1zM12 23h1v2h1v3h-2v1h-2v-1h1v-3h1zM12 26v1h1v-1zM26 26v3h3v-3zM1 27h7v7h-7zM19 27h1v1h-1zM21 27h1v1h-1zM27 27h1v1h-1zM2 28v5h5v-5zM20 28h1v1h1v-1h2v2h-4zM3 29h3v3h-3zM9 29h1v1h-1zM12 29h1v1h-1zM17 29h1v1h-1zM11 30h1v3h-2v-2h1zM19 30h1v2h-1v2h-1v-1h-4v1h-2v-1h1v-1h1v-1h1v1h1v-1h1v1h1v-1h1zM26 30v2h1v-2zM28 30v1h1v-1zM9 33h1v1h-1zM29 33h1v1h-1zM33 33h1v1h-1z"/></svg>