<svg xmlns="http://www.w3.org/2000/svg" viewBox="0 0 35 35"><path d="M1 1h7v7h-7zM11 1h3v1h-1v1h1v2h2v-1h-1v-1h1v-1h1v3h2v1h-4v1h-1v2h-1v-3h-1v-1h1v-1h-1v1h-1v1h-1v3h-1v-6h1v1h1v-1h1v-1h-1zM17 1h1v1h-1zM19 1h6v1h-1v1h-1v-1h-3v1h-1zM27 1h7v7h-7zM2 2v5h5v-5zM10 2h1v1h-1zM28 2v5h5v-5zM3 3h3v3h-3zM20 3h1v1h-1zM22 3h1v1h-1zM25 3h1v1h-1zM29 3h3v3h-3zM19 4h1v1h-1zM23 4h1v1h-1zM21 5h1v1h-1zM24 5h1v1h-1zM11 6h1v3h-1zM19 6h2v1h-1v1h1v-1h1v1h1v1h-2v1h1v1h-2v-2h-1zM25 6h1v2h-1zM15 7h1v3h-1v1h2v1h-2v1h-1v-4h1zM17 7h1v2h1v3h2v1h-3v-2h-1zM23 7h1v1h-1zM1 9h1v1h-1zM3 9h5v1h-2v1h-1v1h-1v-1h-1zM23 9h3v1h-1v1h-1v-1h-1zM27 9h5v1h2v1h-1v1h1v1h-3v1h-2v-3h1v1h1v-1h-1v-1h-2v1h-1zM8 10h1v1h1v-1h1v2h-4v1h5v1h-1v1h1v-1h1v2h2v1h-1v2h-2v-3h-1v1h-2v-1h1v-2h-1v2h-2v1h2v2h1v2h-1v-1h-4v-1h3v-1h-3v1h-2v-2h-1v-3h-1v-3h1v2h1v2h1v-2h1v1h1v1h2v-1h-2v-1h-1v-1h1v-1h2zM12 11h1v1h-1zM22 11h1v2h-1zM25 11h2v1h-2zM15 13h1v1h-1zM17 13h1v1h-1zM23 13h4v1h-2v1h-3v-1h1zM14 14h1v1h-1zM16 14h1v1h1v1h-1v1h2v1h-1v1h-1v-1h-1v1h-1v-2h1zM18 14h2v2h-1v-1h-1zM27 14h1v1h-1zM31 14h3v1h-1v1h-1v-1h-1zM21 15h1v1h4v1h1v1h-2v-1h-1v1h-1v-1h-1v1h1v1h1v1h-1v1h-2v1h1v2h1v1h-2v1h1v2h1v1h-2v-2h-1v-3h1v-1h-1v-1h-1v-1h1v-1h1v-1h-1v1h-1v-2h1v-1h1zM27 16h2v1h1v1h-1v1h-2v-1h1v-1h-1zM30 16h2v1h-2zM33 17h1v2h-1zM24 18h1v1h-1zM30 18h2v1h1v2h-2v1h-3v-1h1v-2h1v1h1v-1h-1zM1 19h2v1h-1v1h-1zM11 19h1v1h-1zM16 19h1v1h1v1h-1v1h1v1h-3v1h-1v-1h-1v2h2v1h-3v2h-1v1h-1v3h-1v-4h1v-1h1v-3h1v-1h-3v-1h2v-1h1v1h1v-1h-1v-1h3v1h-1v1h1v-1h1zM3 20h1v1h-1zM25 20h1v1h1v1h-2zM27 20h1v1h-1zM2 21h1v1h1v-1h1v2h-1v1h-1v-1h-1v3h-1v-4h1zM6 21h3v1h-2v1h-1zM24 22h1v1h-1zM27 22h1v1h-1zM31 22h1v1h-1zM33 22h1v1h-1zM5 23h1v1h1v1h2v1h-6v-1h2zM7 23h1v1h-1zM18 23h1v1h-1zM29 23h2v1h1v-1h1v1h1v1h-4v4h1v1h-1v1h-1v1h1v-1h1v1h1v1h-2v1h-2v-1h-1v1h-4v-1h3v-2h-1v-2h-1v-1h-1v-1h2v-2h2v-1h2zM15 24h1v1h-1zM17 24h1v1h-1zM24 24h1v1h-1zM18 25h1v3h1v1h-2v1h-1v-2h1v-1h-1v-1h1zM23 25h1v1h-1zM9 26h1v1h-1zM15 26h1v1h1v1h-1v1h-1zM26 26v3h3v-3zM31 26h3v1h-1v1h1v1h-3zM1 27h7v7h-7zM27 27h1v1h-1zM2 28v5h5v-5zM12 28h2v1h-1v1h1v-1h1v2h-1v2h-1v-2h-1v-1h-1v-1h1zM3 29h3v3h-3zM23 29h1v1h-1zM16 30h1v1h1v1h-1v2h-1v-2h-1v-1h1zM18 30h5v1h-1v1h-1v-1h-1v1h1v1h-2v-2h-1zM27 30v1h1v-1zM32 30h2v1h-2zM10 32h1v1h-1zM22 32h1v1h-1zM9 33h1v1h-1zM18 33h1v1h-1zM32 33h1v1h-1z"/></svg>