<svg xmlns="http://www.w3.org/2000/svg" viewBox="0 0 35 35"><path d="M1 1h7v7h-7zM12 1h1v1h-1zM15 1h1v1h-1zM17 1h1v2h-1v1h-2v-1h1v-1h1zM20 1h2v2h-1v-1h-1zM24 1h1v1h-1zM27 1h7v7h-7zM2 2v5h5v-5zM13 2h1v1h-1zM19 2h1v1h-1zM25 2h1v3h-1zM28 2v5h5v-5zM3 3h3v3h-3zM9 3h2v1h-1v2h1v1h-1v2h-1zM12 3h1v2h-1v1h-1v-2h1zM22 3h1v1h-1zM29 3h3v3h-3zM19 4h2v1h-2zM23 4h1v1h1v1h-1v2h-1v-1h-1v-1h1zM13 5h5v1h-3v1h-1v-1h-1zM21 5h1v1h-1zM20 6h1v1h-1zM25 6h1v3h-2v-1h1zM11 7h1v2h-1zM13 7h1v2h-1zM15 7h1v1h-1zM17 7h1v2h1v1h1v-1h-1v-2h1v1h1v-1h1v1h1v1h-1v1h1v1h1v3h-1v-1h-1v-1h-1v-1h-2v1h2v1h-3v-2h-1zM1 9h1v1h1v1h-1v1h-1zM3 9h5v1h-1v1h1v1h-2v-1h-1v-1h-2zM14 9h2v2h1v1h-2v1h-1v-2h-3v-1h3zM23 9h1v1h-1zM27 9h5v1h2v1h-1v1h1v1h-3v1h-3v-1h1v-2h1v1h1v-1h-1v-1h-2v2h-1v-1h-1v-1h1zM8 10h2v1h-2zM24 10h1v1h-1zM4 11h1v1h1v2h1v1h1v1h-1v1h1v1h-1v1h-1v1h1v1h1v-1h-1v-1h2v-1h1v1h1v1h-2v2h-2v1h-1v-1h-2v2h1v2h-1v-1h-1v-5h1v1h1v-1h-1v-1h1v-1h1v-1h-1v1h-4v-3h1v1h1v-1h2v1h1v-1h-1v-2h-1zM10 11h1v1h-1zM2 12h1v1h-1zM8 12h2v1h1v1h-1v1h-1v-2h-1zM11 12h2v1h-2zM25 12h1v1h-1zM1 13h1v1h-1zM3 13h1v1h-1zM7 13h1v1h-1zM13 13h1v1h1v5h-1v1h1v1h1v1h3v1h-4v-1h-1v-1h-1v-3h1v-3h-1zM15 13h1v1h-1zM17 13h1v1h-1zM26 13h1v1h-1zM2 14h1v1h-1zM11 14h1v1h1v3h-2v-2h-1v-1h1zM16 14h1v1h1v1h-1v1h2v1h-1v1h-1v-1h-1zM19 14h1v2h-1zM22 14h1v1h-1zM24 14h1v1h-1zM27 14h1v1h-1zM32 14h2v1h-1v1h-1zM21 15h1v1h1v1h-2zM25 15h2v3h-2v-1h1v-1h-1zM28 15h2v1h-2zM9 16h1v1h-1zM24 16h1v1h-1zM30 16h2v1h-2zM20 17h1v1h2v-1h1v1h1v1h-1v1h1v1h-3v-1h1v-1h-1v1h-1v-1h-1v1h-1v-2h1zM28 17h2v1h-1v1h-2v-1h1zM33 17h1v2h-1v1h1v1h-1v1h-1v-1h-1v1h-3v-1h1v-2h1v1h1v-1h-1v-1h3zM1 19h1v1h-1zM15 19h2v1h-2zM25 19h2v1h-2zM11 20h1v1h1v1h-1v1h-1zM17 20h1v1h-1zM27 20h1v1h-1zM19 21h2v1h1v1h1v2h-1v2h-2v-2h-1v-1h2v-1h-1v-1h-1zM25 21h2v1h-2zM1 22h1v4h-1zM13 22h1v1h1v1h1v1h-1v1h-1v-1h-2v1h-2v-1h1v-1h1v-1h1zM24 22h1v1h-1zM27 22h1v2h1v1h1v4h1v1h3v1h-2v2h-1v1h-8v-1h3v-1h1v1h1v-1h-1v-1h1v-1h-1v1h-1v-1h-1v-1h-1v-1h-1v-3h2v-2h2zM31 22h1v1h1v1h1v1h-4v-2h1zM33 22h1v1h-1zM5 23h1v1h-1zM7 23h1v1h-1zM9 23h2v1h-1v1h-2v-1h1zM6 24h1v1h-1zM17 24h1v1h-1zM7 25h1v1h-1zM18 25h1v3h1v1h-2v-1h-1v1h-1v1h-2v-1h-1v-1h2v-2h1v1h1v-1h1zM9 26h1v1h-1zM12 26h2v1h-2zM26 26v3h3v-3zM31 26h3v1h-1v2h-2zM1 27h7v7h-7zM10 27h2v1h-1v2h-1v1h1v1h1v1h-2v-1h-1v-4h1zM27 27h1v1h-1zM2 28v5h5v-5zM22 28h1v1h-1zM3 29h3v3h-3zM12 29h1v1h-1zM17 29h1v1h-1zM20 29h1v1h2v1h-1v1h-1v-1h-2v-1h1zM23 29h1v1h-1zM11 30h1v1h-1zM16 30h1v1h2v1h-2v2h-3v-1h-1v-1h3zM24 30h1v1h-1zM23 31h1v1h-1zM29 31v1h2v-1zM20 32h1v1h-1zM22 32h1v1h-1zM9 33h1v1h-1zM12 33h1v1h-1zM18 33h1v1h-1zM21 33h1v1h-1zM32 33h1v1h-1z"/></svg>