<svg xmlns="http://www.w3.org/2000/svg" viewBox="0 0 35 35"><path d="M1 1h7v7h-7zM9 1h2v1h1v-1h1v2h-1v1h-1v-1h-1v1h-1zM14 1h2v4h-1v-1h-2v-1h1zM18 1h2v1h2v-1h1v2h1v1h-1v1h1v1h1v1h-1v1h-1v-1h-1v-2h-1v-2h-2v-1h-1zM27 1h7v7h-7zM2 2v5h5v-5zM17 2h1v1h-1zM28 2v5h5v-5zM3 3h3v3h-3zM25 3h1v1h-1zM29 3h3v3h-3zM10 4h1v1h-1zM17 4h1v1h1v1h-1v3h1v2h-1v-1h-1v-1h-1v-1h1v-1h-1v1h-1v-2h1v-1h1zM19 4h1v1h-1zM24 4h1v1h-1zM9 5h1v1h-1zM12 6h2v2h1v1h-2v-2h-1zM19 6h2v1h-1v2h-1zM9 7h1v1h-1zM11 7h1v2h-1zM21 7h1v1h-1zM25 7h1v1h-1zM1 9h1v2h-1zM4 9h7v1h-1v1h-2v-1h-1v1h-2v1h-1v-1h-1v-1h1zM12 9h1v1h-1zM15 9h1v1h1v2h1v1h-1v1h-1v-3h-1v3h-1v-4h1zM26 9h1v1h-1zM29 9h1v1h1v-1h3v1h-1v1h1v1h-1v2h-1v-1h-1v-1h-2v-1h-1v-1h1zM20 10h1v1h-1zM22 10h3v1h1v1h-1v1h1v1h-1v1h-2v-1h1v-1h-1v-1h1v-1h-1v1h-1zM2 11h1v1h-1zM7 11h1v1h-1zM10 11h1v1h-1zM12 11h1v2h-2v-1h1zM1 12h1v1h3v1h1v-2h1v1h1v1h-1v1h-1v2h2v1h-3v-3h-1v-1h-1v1h1v3h1v2h-1v1h-1v-2h-2v-1h2v-2h-1v-2h-1zM19 12h3v3h1v1h-3v1h-1v-1h-1v-1h1v-1h1v-1h-1zM26 12h3v3h-1v-1h-1v-1h-1zM9 13h2v1h2v2h1v1h1v1h-1v1h-1v1h1v-1h1v-1h1v-1h1v-1h1v2h-1v3h1v1h-2v-1h-2v1h-1v2h1v1h2v1h-3v1h-2v-1h1v-1h-1v1h-1v-2h2v-1h-1v-1h-1v-1h2v-1h-2v-2h1v-1h1v-1h-1v-1h-3v-1h1zM18 13h1v1h-1zM15 14h1v1h-1zM31 14h1v3h-1v1h-1v1h-1v-1h-1v1h-1v-1h-2v-2h1v-1h2v1h-1v1h2v-2h1v1h1zM7 15h1v1h-1zM16 15h1v1h-1zM1 16h1v1h-1zM10 16h1v1h-1zM33 16h1v1h-1zM9 17h1v1h-1zM20 17h2v1h1v-1h1v2h1v4h1v2h1v-1h1v1h1v-2h-1v-3h2v-1h1v-1h3v2h-1v-1h-1v1h1v2h-1v-1h-1v1h-1v-1h-1v1h1v8h-3v1h-2v1h-1v-1h-1v-3h1v-1h1v-2h-1v-1h-2v-1h1v-2h1v-1h-1v-1h-2v1h1v1h-2v-1h-2v-2h1v1h1zM6 19h3v1h1v1h-2v-1h-1v1h1v1h-1v1h1v1h-3v1h1v1h-2v-5h1v-1h1zM26 19h1v2h-1zM1 20h1v1h-1zM2 21h1v2h-1v2h1v1h-2v-4h1zM19 21h1v1h-1zM5 22v1h1v-1zM8 22h2v1h-2zM14 22h1v1h-1zM20 22h1v1h-1zM31 22h1v1h-1zM32 23h2v3h-2v-1h-1v-1h1zM8 24h1v1h-1zM16 24h1v1h-1zM18 24h1v1h-1zM20 24h2v2h-1v-1h-1zM7 25h1v1h-1zM9 26h1v2h1v1h-1v1h1v1h1v-1h-1v-1h1v-1h1v4h-3v-1h-1zM16 26h4v1h-1v1h1v1h-1v1h2v-2h1v3h-1v1h-1v-1h-1v1h-1v-1h-1v-1h-1v-1h1v-1h1v-1h-1v1h-1zM22 26h2v1h-2zM26 26v3h3v-3zM31 26h1v3h-1zM1 27h7v7h-7zM13 27h2v1h-2zM20 27h1v1h-1zM27 27h1v1h-1zM2 28v5h5v-5zM15 28h1v1h-1zM3 29h3v3h-3zM14 29h1v1h-1zM33 29h1v4h-3v1h-1v-1h-1v-1h-1v-1h3v-1h2zM14 31h3v1h-1v1h-1v-1h-1zM21 32h1v2h-2v-1h1zM23 32h1v1h-1zM27 32h1v1h-1zM9 33h1v1h-1zM11 33h1v1h-1zM13 33h2v1h-2zM16 33h1v1h-1zM18 33h1v1h-1zM24 33h2v1h-2zM28 33h1v1h-1z"/></svg>