<svg xmlns="http://www.w3.org/2000/svg" viewBox="0 0 35 35"><path d="M1 1h7v7h-7zM10 1h1v3h-1v1h1v1h-1v2h1v2h-1v-1h-1v-6h1zM15 1h1v1h-1zM17 1h1v3h-3v-1h1v-1h1zM19 1h4v1h1v1h-1v1h-1v-2h-2v1h-1zM24 1h1v1h-1zM27 1h7v7h-7zM2 2v5h5v-5zM28 2v5h5v-5zM3 3h3v3h-3zM12 3h1v1h-1zM20 3h1v1h-1zM24 3h2v1h-1v2h-1v-1h-1v-1h1zM29 3h3v3h-3zM13 4h1v4h-1zM19 4h1v1h-1zM15 5h3v1h-2v5h1v-1h1v-1h1v3h2v1h-3v-1h-3v1h-2v-1h1v-1h-1v-1h1v-1h1zM21 5h2v1h-2zM18 6h1v1h-1zM20 6h1v1h-1zM25 6h1v4h-1zM11 7h1v1h-1zM17 7h1v2h-1zM19 7h1v1h-1zM21 7h1v1h1v1h-2v1h1v1h-2v-3h1zM23 7h1v1h-1zM1 9h1v1h1v-1h5v1h-2v2h-3v2h-2v-1h1v-1h-1zM12 9h1v1h-1zM23 9h1v1h-1zM27 9h5v1h2v1h-1v3h1v1h-1v1h-1v1h-1v1h1v1h1v1h-1v1h-1v1h-2v-3h1v1h1v-1h-1v-1h-1v1h-2v-1h1v-1h-1v-1h2v1h1v-1h-1v-1h1v-1h-1v-3h1v1h1v-1h-1v-1h-2v2h-1v-1h-1v-1h1zM9 10h1v2h-3v-1h2zM24 10h1v1h-1zM11 11h2v1h-2zM6 12h1v1h-1zM22 12h1v1h-1zM25 12h2v2h1v1h-2v-2h-1zM4 13h2v2h-2zM7 13h1v1h-1zM15 13h3v1h-1v1h1v1h-1v2h-2v-1h1v-1h-2v3h3v1h1v1h-1v1h1v1h-2v-1h-1v-1h1v-1h-4v-1h1v-4h1v-1h1v1h1v-1h-1zM23 13h1v1h-1zM31 13v1h1v-1zM10 14h1v1h1v1h-2zM12 14h1v1h-1zM19 14h1v3h-1zM24 14h1v1h-1zM2 15h2v1h-2zM6 15h3v2h1v1h1v-1h1v2h-1v1h-2v1h1v1h-3v-1h1v-1h-2v-1h2v-1h-2zM21 15h2v2h-1v2h-2v-2h1zM4 16h1v2h1v1h-1v1h-2v-1h-1v2h-1v-3h1v-1h1v1h1zM7 16v1h1v-1zM18 17h1v1h-1zM23 17h1v1h-1zM25 17h2v1h-2zM33 17h1v2h-1zM17 18h1v1h-1zM24 18h1v1h-1zM19 19h1v1h-1zM25 19h1v1h-1zM5 20h1v2h-3v1h-1v3h-1v-4h1v-1h3zM11 20h1v1h-1zM20 20h4v1h-4zM27 20h1v1h-1zM33 20h1v1h-1zM12 21h1v1h1v1h-1v1h1v1h2v2h-3v-2h-1v1h-2v-1h-1v-2h2v1h1zM19 21h1v1h-1zM25 21h2v1h-2zM20 22h2v2h1v1h-2v1h1v1h-3v1h1v1h-2v-1h-1v1h-1v-2h1v-1h1v-1h1v1h1v-1h-1v-2h1v1h1v-1h-1zM24 22h1v1h-1zM27 22h1v1h2v1h-1v1h1v4h1v1h-1v1h-1v1h1v-1h1v-1h2v-1h1v2h-2v2h-1v1h-3v-1h-1v-1h-2v-1h1v-1h-1v-1h-1v-1h-1v-3h1v1h1v-1h-1v-1h3v1h1v-1h-1zM33 22h1v1h-1zM3 23h1v1h2v-1h2v1h-1v1h1v1h-4v-1h-1zM14 23h1v1h-1zM31 23h2v1h1v1h-4v-1h1zM17 24h1v1h-1zM9 26h1v1h-1zM26 26v3h3v-3zM31 26h3v1h-1v2h-2zM1 27h7v7h-7zM11 27h1v1h1v1h-2zM27 27h1v1h-1zM2 28v5h5v-5zM9 28h1v1h1v1h-1v1h1v-1h1v1h2v-1h1v-1h1v1h1v1h1v-1h5v1h-1v1h-1v-1h-2v1h-2v2h-4v-1h-1v-1h-1v1h1v1h-3v-1h1v-1h-1zM21 28h2v1h-2zM3 29h3v3h-3zM13 29h1v1h-1zM17 29h1v1h-1zM23 29h1v1h-1zM24 30h1v1h-1zM27 30v1h1v-1zM23 31h1v2h3v1h-4v-1h-1v-1h1zM15 32v1h1v-1zM20 32h1v1h-1zM18 33h1v1h-1zM32 33h1v1h-1z"/></svg>