<svg xmlns="http://www.w3.org/2000/svg" viewBox="0 0 35 35"><path d="M1 1h7v7h-7zM12 1h1v1h-1zM17 1h1v1h-1zM19 1h6v1h-5v1h-1zM27 1h7v7h-7zM2 2v5h5v-5zM10 2h2v2h-1v-1h-1zM13 2h1v1h-1zM16 2h1v2h-2v-1h1zM28 2v5h5v-5zM3 3h3v3h-3zM9 3h1v6h-1zM20 3h1v2h-2v-1h1zM22 3h4v2h-1v-1h-1v1h1v1h-1v2h-1v-1h-1v-1h-1v-1h2v-1h-1zM29 3h3v3h-3zM13 4h1v1h-1zM11 5h1v3h1v-1h1v2h-3zM14 5h5v2h-1v-1h-3v1h-1zM20 6h1v1h-1zM25 6h1v4h-1v-1h-1v-1h1zM15 7h1v3h-1v1h2v-1h1v-1h1v1h1v-2h1v-1h1v1h1v1h-1v3h1v1h-2v-2h-2v1h1v1h-2v1h-1v-1h-1v-1h-1v1h-1v-1h-1v-1h-3v-1h4v-1h1zM17 7h1v2h-1zM19 7h1v1h-1zM1 9h1v2h-1zM3 9h5v1h-5zM23 9h1v1h1v1h-2zM27 9h5v2h1v1h-1v1h-1v1h2v-2h1v3h-1v1h-1v-1h-1v1h1v1h-2v-1h-1v1h1v1h-1v1h-2v-1h1v-1h-1v1h-1v-2h1v-2h1v1h2v-1h-2v-1h1v-2h1v1h1v-1h-1v-1h-2v3h-1v1h-1v-1h-2v-1h1v-1h2zM33 10h1v1h-1zM3 11h1v1h1v1h-1v1h-2v-1h-1v-1h2zM6 11h3v3h1v2h-1v2h-4v-1h3v-1h-2v-2h1v1h1v-1h-1v-1h1v-1h-1v1h-1zM11 12h2v2h-1v-1h-1zM5 13h1v1h-1zM10 13h1v1h-1zM15 13h1v1h-1zM23 13h1v1h-1zM1 14h1v1h-1zM13 14h1v2h1v-1h1v-1h1v1h1v1h-1v2h-1v-1h-1v1h-1v-1h-1v-1h-1v-1h1zM19 14h1v1h-1zM22 14h1v1h-1zM24 14h1v1h-1zM3 15h2v2h-1v1h-1v-1h-1v-1h1zM21 15h1v1h1v1h-1v1h1v1h1v1h-1v1h-1v-1h-1v-1h-1v1h-1v-2h1v-1h1zM23 15h1v1h-1zM25 15h1v1h-1zM10 17h2v1h-2zM18 17h1v1h-1zM23 17h1v1h-1zM33 17h1v2h-1zM17 18h1v1h-1zM24 18h1v1h-1zM30 18h2v1h1v1h-1v1h-1v2h2v1h1v1h-3v1h-1v3h1v1h-1v1h-1v1h1v-1h1v1h1v1h-2v1h-3v-1h-1v-1h1v-1h1v-1h-1v1h-1v-1h-1v-1h-1v-1h-1v-1h2v-2h-1v-1h1v-1h2v1h1v-1h2v-1h-1v-3h1v1h1v-1h-1zM2 19h1v1h1v1h-2v1h2v2h-1v-1h-1v3h-1v-6h1zM5 19h1v2h2v1h-1v1h-2v-1h-1v-1h1zM7 19h1v1h-1zM14 19h3v1h-1v1h-1v-1h-1zM26 19h1v1h1v1h-1v1h-2v-1h1zM10 20h1v1h-1zM12 20h1v2h-1zM17 20h1v1h-1zM24 20h1v1h-1zM14 21h1v1h1v-1h1v1h2v1h-3v2h-1v1h-1v-1h-1v-1h1zM19 21h1v1h-1zM32 21h1v1h-1zM10 22h1v1h2v1h-1v1h1v1h1v1h-1v1h-1v-1h-1v-2h-1v2h-1v-1h-4v-1h1v-1h1v1h1v-1h2zM20 22h2v2h1v1h-1v3h-1v-1h-2v1h1v1h-2v-2h-1v-3h1v1h1v1h1v-2h1v-1h-1zM24 22h1v1h-1zM27 22h1v1h-1zM33 22h1v1h-1zM7 23h1v1h-1zM19 23h1v1h-1zM23 23h1v1h-1zM4 24h1v1h-1zM29 24v1h1v-1zM3 25h1v1h-1zM23 25h1v1h-1zM26 26v3h3v-3zM31 26h1v1h1v1h-1v1h-1zM33 26h1v1h-1zM1 27h7v7h-7zM10 27h1v1h-1zM14 27h1v1h-1zM16 27h1v2h-2v-1h1zM27 27h1v1h-1zM2 28v5h5v-5zM9 28h1v1h1v1h2v-2h1v1h1v1h-1v1h-1v2h2v1h-3v-3h-2v1h-1zM22 28h1v1h-1zM33 28h1v1h-1zM3 29h3v3h-3zM17 29h1v1h-1zM23 29h1v1h-1zM32 29h1v1h1v1h-3v-1h1zM15 30h2v1h1v-1h4v1h1v1h2v1h1v1h-3v-1h-1v-1h-1v-1h-1v1h-3v2h-1v-3h-1zM24 30h1v1h-1zM14 31h1v1h-1zM10 32h1v1h-1zM20 32h1v1h-1zM9 33h1v1h-1zM18 33h1v1h-1zM32 33h1v1h-1z"/></svg>