<svg xmlns="http://www.w3.org/2000/svg" viewBox="0 0 35 35"><path d="M1 1h7v7h-7zM10 1h2v3h1v1h-1v1h1v-1h1v1h1v1h-1v2h2v1h-1v1h2v1h-2v1h-2v-1h1v-1h-1v-1h-2v-3h-1v2h-1v-6h1v1h1v-2h-1zM13 1h1v1h-1zM17 1h1v1h-1zM19 1h4v1h-1v1h1v-1h1v3h-1v-1h-2v-2h-1v1h-1zM24 1h1v1h-1zM27 1h7v7h-7zM2 2v5h5v-5zM16 2h1v1h1v1h-1v1h1v1h-3v-1h1v-1h-1v-1h1zM28 2v5h5v-5zM3 3h3v3h-3zM29 3h3v3h-3zM19 4h1v1h-1zM25 4h1v1h-1zM21 5h2v1h1v2h-1v-1h-1v-1h-1zM24 5h1v1h-1zM20 6h1v1h-1zM25 6h1v4h-1v1h-1v-1h-1v-1h1v-1h1zM12 7v1h1v-1zM15 7h1v1h-1zM17 7h1v2h-1zM19 7h1v1h-1zM21 7h1v1h1v1h-1v2h-3v1h4v-1h1v1h1v-1h2v1h-1v1h-2v1h-1v-1h-5v-2h-1v-1h1v-1h1v1h1v-2h1zM1 9h1v1h-1zM3 9h5v1h-1v1h1v-1h1v1h1v1h-1v1h1v-1h2v1h-1v2h-2v2h1v2h-1v-1h-2v-1h1v-1h-2v2h-1v2h-1v-3h1v-2h-1v-2h-1zM27 9h5v1h2v1h-1v1h-1v1h-1v1h-3v-1h1v-2h1v1h1v-1h-1v-1h-2v1h-1zM5 10v4h2v1h1v-1h-1v-1h1v-1h-2v-2zM10 10h1v1h-1zM33 12h1v3h-1v1h-1v-1h-1v-1h2zM15 13h1v1h-1zM17 13h1v1h-1zM26 13h1v1h1v1h3v1h1v1h-2v1h-1v1h-2v-1h1v-2h-1v-1h-1zM1 14h2v1h-2zM12 14h1v1h-1zM14 14h1v1h-1zM16 14h1v1h2v1h-2v2h-1v-2h-1v-1h1zM19 14h1v1h-1zM22 14h1v1h-1zM24 14h1v1h-1zM11 15h1v3h-1zM13 15h1v3h1v1h-1v1h-1v2h1v1h-1v1h1v-1h1v2h-1v2h1v1h1v1h-3v-1h-2v-1h-2v-1h1v-1h2v1h1v-1h-1v-4h-1v2h-1v-3h2v-1h1zM21 15h1v1h1v-1h1v1h1v1h1v-1h1v2h-2v1h-1v2h-2v-2h-2v-2h1v1h2v-1h-2zM25 15h1v1h-1zM19 16h1v1h-1zM1 17h1v1h-1zM18 17h1v1h-1zM33 17h1v2h-1zM6 18h1v1h-1zM17 18h1v1h-1zM30 18h2v1h1v1h-1v1h-1v1h1v1h-1v1h1v-1h1v1h1v1h-4v-3h-2v-1h1v-2h1v1h1v-1h-1zM1 19h1v1h-1zM7 19h2v3h-3v-2h1v1h1v-1h-1zM15 19h2v2h-1v-1h-1zM19 19h1v1h-1zM25 19h2v1h1v1h-1v1h-2v1h-1v-2h2v-1h-1zM2 20h2v1h-1v1h1v1h-2v3h-1v-5h1zM14 20h1v1h-1zM20 20h1v2h2v3h-2v1h1v2h1v1h-2v-2h-1v-2h-1v-1h-1v-1h2v1h1v-1h-1v-1h-1v-1h1zM33 20h1v1h-1zM4 21h1v1h-1zM15 22h3v1h-3zM27 22h1v2h-3v-1h2zM33 22h1v1h-1zM7 23h3v2h-1v1h-2v-1h1v-1h-1zM4 24h1v1h1v1h-3v-1h1zM6 24h1v1h-1zM17 24h1v1h-1zM24 24h1v1h-1zM15 25h1v1h-1zM18 25h1v3h1v1h-2v1h-1v1h2v-1h4v1h-1v1h-1v-1h-1v1h-3v2h-2v-3h1v-2h1v-1h-1v-1h1v-1h1zM23 25h1v1h-1zM25 25h5v4h1v1h-1v1h-1v1h2v-1h1v2h-1v1h-8v-1h5v-1h-1v-1h1v-1h-1v1h-2v1h-1v-2h1v-1h-1v-1h-1v-1h2zM26 26v3h3v-3zM31 26h3v1h-1v1h1v1h-1v1h1v1h-2v-2h-1zM1 27h7v7h-7zM27 27h1v1h-1zM2 28v5h5v-5zM9 28h1v2h1v1h-1v1h-1zM3 29h3v3h-3zM12 29h1v1h-1zM23 29h1v1h-1zM11 32h1v1h-1zM20 32h1v1h-1zM22 32h1v1h-1zM9 33h1v1h-1zM12 33h1v1h-1zM18 33h1v1h-1zM21 33h1v1h-1zM32 33h1v1h-1z"/></svg>