<svg xmlns="http://www.w3.org/2000/svg" viewBox="0 0 35 35"><path d="M1 1h7v7h-7zM11 1h3v5h-1v-2h-1v1h-2v4h-1v-6h1v1h1v-1h1v-1h-1zM17 1h1v3h-1v-1h-1v-1h1zM19 1h4v1h-3v1h-1zM24 1h1v1h-1zM27 1h7v7h-7zM2 2v5h5v-5zM10 2h1v1h-1zM23 2h1v3h1v1h-2v-2h-2v-1h2zM25 2h1v3h-1zM28 2v5h5v-5zM3 3h3v3h-3zM15 3h1v1h-1zM29 3h3v3h-3zM16 4h1v1h1v1h-3v-1h1zM19 4h2v1h-2zM21 5h1v1h-1zM11 6h2v1h-1v1h1v2h1v-1h2v2h1v1h-2v1h-1v1h-1v-2h1v-1h-2v1h-2v1h2v2h-1v-1h-1v2h-1v-1h-1v-1h-1v-1h2v-1h-3v2h-1v-1h-1v-1h-1v-3h5v1h-1v1h4v-1h1v-1h-1zM14 6h1v1h-1zM18 6h1v1h-1zM20 6h1v1h-1zM22 6h1v1h-1zM25 6h1v2h-1zM13 7h1v1h-1zM15 7h1v1h-1zM17 7h1v2h1v3h2v-1h-1v-3h1v-1h1v1h1v1h-2v1h2v1h1v1h-1v1h-2v1h-1v-1h-2v-2h-1zM19 7h1v1h-1zM23 7h1v1h-1zM24 8h1v1h-1zM1 9h1v1h-1zM10 9h1v1h-1zM23 9h1v1h-1zM27 9h5v2h1v1h-1v1h-1v1h2v-1h1v2h-1v1h-1v1h-1v1h1v1h1v1h1v1h-1v1h-1v-1h-1v1h1v1h-2v-1h-1v-3h1v1h1v-1h-1v-1h-1v1h-3v-2h-1v-2h2v-1h1v1h2v-1h-2v-1h1v-2h1v1h1v-1h-1v-1h-2v1h-1zM5 10v1h1v-1zM24 10h1v1h-1zM33 10h1v1h-1zM25 12h3v1h-1v1h-1v-1h-1zM2 13h2v1h-2zM15 13h3v1h-1v1h2v1h-2v1h2v1h-1v1h-1v-1h-1v-2h-1v-1h1v-1h-1zM23 13h2v2h-2v1h1v2h1v1h-3v1h3v-1h1v1h2v1h-1v1h-1v-1h-5v-2h-1v-2h1v1h2v-1h-2v-2h1v-1h1zM4 14h1v1h-1zM6 14h1v1h-1zM14 14h1v1h-1zM19 14h1v1h-1zM1 15h3v2h-3zM7 15h1v1h-1zM12 15h2v2h-1v-1h-1zM6 16h1v1h-1zM8 16h1v4h-2v1h2v-1h1v1h1v1h1v-1h-1v-2h1v1h1v3h-1v2h-1v-1h-5v1h-2v1h-1v-2h2v-1h1v-1h-1v-1h-2v-1h1v-1h1v1h1v-2h1v1h1v-1h-1v-1h1zM11 16h1v1h-1zM27 16v2h1v-1h2v-1zM4 17h2v1h-2zM33 17h1v2h-1zM1 18h2v1h-1v1h-1zM10 18h1v1h-1zM12 18h1v1h-1zM14 18h2v1h-1v1h-2v-1h1zM16 19h1v1h1v1h-1v1h1v1h-2v1h-1v-2h1v-1h-1v-1h1zM19 19h1v1h-1zM1 21h2v1h-1v4h-1zM14 21h1v1h-1zM19 21h1v1h-1zM3 22h1v1h-1zM7 22v1h3v-1zM20 22h3v1h-1v1h1v1h-2v1h1v2h-1v-1h-2v1h1v1h-2v-2h-1v-3h1v1h1v1h1v-2h1v-1h-1zM24 22h1v1h-1zM27 22h1v1h-1zM33 22h1v1h-1zM18 23h1v1h-1zM25 23h1v1h-1zM32 23h1v1h1v1h-4v-1h2zM27 24h1v1h2v4h1v1h-1v1h-1v1h3v1h-1v1h-4v-1h1v-1h-1v1h-1v-1h-1v-3h-1v-1h-1v-3h4zM6 25h2v1h-2zM10 25h1v1h1v-1h4v2h-2v2h-2v-1h-1v-1h-2v-1h1zM26 26v3h3v-3zM31 26h3v1h-1v2h-2zM1 27h7v7h-7zM16 27h1v1h-1zM27 27h1v1h-1zM2 28v5h5v-5zM9 28h2v1h-1v1h1v1h-1v1h-1zM22 28h1v1h-1zM3 29h3v3h-3zM16 29h2v1h-1v1h2v1h-2v2h-1zM23 29h1v1h-1zM33 29h1v2h-3v-1h2zM13 30h2v1h-1v1h-2v1h-2v-1h1v-1h2zM19 30h4v1h1v2h2v1h-3v-1h-1v-1h-1v-1h-2zM27 30v1h1v-1zM14 32h1v2h-1zM19 32h2v1h-2zM9 33h1v1h-1zM12 33h1v1h-1zM18 33h1v1h-1zM32 33h1v1h-1z"/></svg>