<svg xmlns="http://www.w3.org/2000/svg" viewBox="0 0 35 35"><path d="M1 1h7v7h-7zM9 1h2v1h-1v2h-1zM12 1h1v1h-1zM14 1h1v1h1v1h1v1h-1v1h-1v-1h-1v2h1v1h-1v1h-1v-1h-1v-1h1v-1h-1v-2h2zM18 1h2v1h2v1h-1v1h-1v-1h-1v-1h-1zM23 1h1v2h1v1h-2v2h2v1h-1v1h1v-1h1v2h1v4h-1v1h-1v-1h-1v-1h-1v-1h1v-2h-1v-2h-1v-2h-1v-1h1v-1h1zM27 1h7v7h-7zM2 2v5h5v-5zM17 2h1v1h-1zM28 2v5h5v-5zM3 3h3v3h-3zM29 3h3v3h-3zM17 4h1v1h1v1h-1v3h-2v1h1v1h1v2h-1v1h-1v-3h-1v3h-2v1h-1v1h-2v-1h-1v1h1v1h-1v1h-2v-1h1v-1h-1v-1h1v-1h-1v-1h2v-1h-2v-1h3v1h1v1h-1v1h1v-1h3v-3h1v-1h-1v-1h1v-1h1v1h1v-1h-1v-2h1zM19 4h1v1h-1zM25 4h1v1h-1zM9 5h1v1h-1zM19 6h2v1h-1v2h-1zM9 7h1v1h-1zM11 7h1v3h-1v1h-1v-1h-6v-1h6v-1h1zM21 7h1v1h-1zM1 9h1v1h-1zM13 9h1v1h-1zM18 9h1v2h-1zM21 9h1v1h-1zM29 9h1v1h1v-1h3v1h-1v1h1v3h-2v-1h-1v-1h-2v-1h-1v-1h1zM2 10h2v3h-2v1h-1v-2h1zM20 10h1v1h-1zM25 10v1h1v-1zM5 11h1v1h1v1h-2zM11 11h2v1h-2zM21 11h1v1h-1zM19 12h1v1h-1zM28 12h1v4h-1v-2h-1v-1h1zM18 13h1v1h-1zM21 13h1v2h1v1h-3v-1h-1v-1h2zM3 14h1v1h-1zM6 14h1v1h-1zM15 14h1v1h-1zM23 14h2v1h-2zM26 14h1v2h-1zM5 15h1v1h-1zM16 15h1v1h-1zM18 15h1v1h-1zM30 15h2v2h-2v2h-1v-1h-1v2h-1v-2h-1v-1h1v-1h1v1h1v-1h1zM1 16h4v1h-3v2h1v-1h1v1h1v1h-3v2h1v1h-1v2h1v-1h1v-2h1v1h1v1h1v1h-3v1h-3zM12 16h1v1h-1zM14 16h1v1h-1zM17 16h1v2h-1v2h-1v-1h-1v-2h2zM24 16h1v2h-2v-1h1zM33 16h1v1h-1zM10 17h1v1h-1zM13 17h1v1h-1zM20 17h1v1h2v1h2v2h-1v-1h-2v1h-2v-1h-2v-2h1v1h1zM6 18h1v1h1v1h-2zM11 18h2v1h-1v1h-2v1h-1v-2h2zM31 18h3v2h-1v-1h-1v2h-1v1h-1v-1h-2v-1h2v-1h1zM13 19h1v2h-2v-1h1zM5 20h1v2h-1zM15 20h1v3h-1v-1h-1v-1h1zM17 20h1v2h-1zM26 20h1v1h-1zM3 21h1v1h-1zM7 21h1v1h-1zM10 21h1v1h-1zM19 21h1v1h-1zM23 21h1v1h1v2h1v-2h1v3h1v-1h2v1h1v1h-1v4h-3v2h-1v-2h-1v1h-2v-3h1v-1h-2v-1h3v-1h-2zM33 21h1v1h-1zM9 22h1v1h-1zM12 22h2v2h-1v-1h-1zM20 22h1v1h-1zM28 22h2v1h-2zM7 23h1v1h-1zM11 23h1v1h-1zM19 23h1v1h2v1h-4v-1h1zM30 23h1v1h-1zM32 23h2v3h-1v1h-1v1h1v1h-2v-3h1v-1h-1v-1h1zM8 24h2v2h1v1h-1v1h1v1h-1v1h1v2h-1v-1h-1v-6h-1zM12 24h1v1h-1zM15 24h2v1h-2zM7 25h1v1h-1zM13 25h2v1h-2zM17 25h1v1h1v2h1v-1h2v1h-1v1h-2v1h2v-1h1v2h-1v1h-1v-1h-1v1h-1v-1h-1v-1h-1v-1h1v-1h1v-1h-1v1h-1v1h-3v-2h2v-1h2zM26 26v3h3v-3zM1 27h7v7h-7zM11 27h1v1h-1zM27 27h1v1h-1zM2 28v5h5v-5zM3 29h3v3h-3zM11 29h1v1h-1zM33 29h1v4h-5v-1h-1v-1h2v1h2v-1h-1v-1h2zM14 30h1v2h1v1h3v1h-4v-1h-1v-1h-1v1h-1v-2h2zM16 31h1v1h-1zM21 32h1v2h-2v-1h1zM27 32h1v1h-1zM9 33h3v1h-3zM13 33h1v1h-1zM24 33h2v1h-2zM28 33h1v1h-1z"/></svg>