<svg xmlns="http://www.w3.org/2000/svg" viewBox="0 0 35 35"><path d="M1 1h7v7h-7zM9 1h2v1h-1v1h1v1h-2zM14 1h2v3h1v-2h1v4h3v1h-1v2h-1v-2h-1v2h1v1h2v1h-3v-1h-1v-1h-1v1h-1v-1h-1v-1h1v-1h1v1h1v-1h-1v-2h-1v-1h-1v-1h-1v1h1v2h-1v-1h-1v-3h2zM18 1h2v1h1v1h1v-2h2v1h-1v1h2v2h-1v-1h-1v1h-2v-1h-1v-1h-1v-1h-1zM27 1h7v7h-7zM2 2v5h5v-5zM28 2v5h5v-5zM3 3h3v3h-3zM29 3h3v3h-3zM19 4h1v1h-1zM9 5h1v1h-1zM11 5h1v1h-1zM10 6h1v1h-1zM14 6h1v1h-1zM22 6h1v1h-1zM24 6h2v2h-1v-1h-1zM9 7h1v1h-1zM11 7h1v1h-1zM13 7h1v1h-1zM21 7h1v1h-1zM23 7h1v1h-1zM10 8h1v1h-1zM24 8h1v1h-1zM1 9h1v1h-1zM4 9h6v2h1v1h-2v-2h-2v1h-1v1h1v1h1v1h-1v1h-1v-1h-1v1h-1v-2h1v-3h-1zM11 9h1v1h-1zM13 9h1v1h-1zM21 9h1v1h-1zM25 9h2v1h-2zM29 9h1v1h1v-1h3v1h-1v1h1v3h-1v-1h-2v-1h-2v-1h-1v-1h1zM2 10h2v2h-1v1h-1v-1h-1v-1h1zM12 10h1v1h1v-1h1v4h-2v1h1v1h-1v1h1v-1h1v-2h1v1h1v1h-1v1h-1v2h1v-2h1v-1h1v2h-1v1h1v-1h1v1h1v-2h2v4h-1v-1h-4v1h1v1h-3v-1h1v-1h-1v1h-1v-1h-2v-1h2v-1h-3v-1h1v-1h-1v-2h1v-1h2v-1h-2zM16 10h1v2h1v1h-2zM23 10h2v2h-2zM7 11h1v1h-1zM21 11h1v1h-1zM19 12h1v1h-1zM25 12h4v3h1v1h1v-1h1v2h-2v2h-1v-1h-1v2h2v-1h1v-1h1v3h-1v1h-1v-1h-3v-1h-1v-1h1v-1h-4v-2h2v1h4v-1h-4v-1h3v-1h-1v-1h-2zM9 13h2v1h-1v2h-1v-1h-1v-1h1zM18 13h1v1h-1zM21 13h1v3h-2v-1h-1v-1h2zM24 13h1v2h-1zM1 14h2v2h-1v-1h-1zM5 15h1v3h1v1h1v-1h3v2h-1v-1h-1v1h1v1h-2v-1h-1v1h1v1h-2v-2h-1v-1h-1v-1h1v-1h-2v-1h2zM7 15h1v1h-1zM10 16h1v1h-1zM19 16h1v1h-1zM33 16h1v1h-1zM1 17h1v2h-1zM7 17h1v1h-1zM33 18h1v2h-1zM2 19h1v2h-1zM23 19h2v1h-2zM4 20h1v1h-1zM11 21h3v1h-1v1h-1v-1h-1zM19 21h2v2h-1v-1h-1zM23 21h1v1h1v1h1v1h1v1h2v-1h1v6h-3v2h1v1h1v1h-2v-1h-1v-3h-2v1h-1v-3h1v-1h1v-1h-1v-1h1v-1h-3v-1h1zM32 21h2v1h-2zM1 22h1v3h2v1h-3zM4 22h1v1h-1zM14 22h1v1h-1zM26 22h1v1h-1zM28 22h2v1h-2zM31 22h1v1h-1zM5 23h3v1h-2v1h-2v-1h1zM10 23h2v1h-1v1h-1v1h1v-1h1v-1h1v1h1v-1h3v1h-2v1h2v-1h1v1h1v2h1v1h-1v1h2v-1h1v2h-1v1h-1v-1h-1v1h-1v-1h-1v-1h-1v-1h2v-1h-2v1h-1v-1h-1v-2h-2v1h1v1h-1v3h-1v-4h-1v4h-1v-6h-1v-1h2zM19 23h1v1h2v1h-4v-1h1zM27 23h1v1h-1zM32 23h2v3h-1v1h-1v2h-1v-3h1v-1h-1v-1h1zM7 25h1v1h-1zM22 26h2v1h-2zM26 26v3h3v-3zM1 27h7v7h-7zM20 27h2v1h-2zM27 27h1v1h-1zM2 28v5h5v-5zM33 28h1v5h-5v-1h-1v-1h2v-1h1v2h1v-2h1zM3 29h3v3h-3zM13 29h1v2h-1zM15 30h1v1h-1zM10 31h1v1h-1zM14 31h1v1h-1zM16 31h1v1h-1zM22 31h1v1h-1zM11 32h1v1h1v1h-4v-1h2zM13 32h1v1h-1zM19 32h1v1h-1zM21 32h1v1h-1zM24 32h1v1h1v1h-2zM14 33h3v1h-3zM18 33h1v1h-1zM20 33h1v1h-1z"/></svg>