<svg xmlns="http://www.w3.org/2000/svg" viewBox="0 0 35 35"><path d="M1 1h7v7h-7zM9 1h1v1h1v1h-1v1h-1zM11 1h5v3h2v1h1v1h2v1h-1v1h-1v-1h-1v2h1v1h2v1h-3v-1h-1v-1h-1v-1h1v-1h-1v-2h-1v-1h-1v-2h-3zM18 1h1v1h-1zM23 1h1v3h-1v1h-4v-1h1v-1h-1v-1h2v2h1v-1h1zM27 1h7v7h-7zM2 2v5h5v-5zM28 2v5h5v-5zM3 3h3v3h-3zM11 3h1v1h2v1h1v2h-1v-1h-2v2h-1zM29 3h3v3h-3zM25 4h1v1h-1zM9 5h1v1h-1zM24 6h1v1h-1zM9 7h1v1h-1zM13 7h1v1h1v1h-1v1h-1zM15 7h1v1h-1zM21 7h1v1h-1zM23 7h1v1h1v4h-1v-1h-1v-1h1v-1h-1zM25 7h1v1h-1zM1 9h1v1h-1zM4 9h8v1h1v1h-2v-1h-1v1h-1v1h1v3h-1v-2h-1v-1h-1v1h1v1h-3v-1h1v-3h-1v3h-1v1h1v2h-1v-1h-1v-2h-2v-1h1v-2h2zM15 9h1v1h1v1h1v1h-2v-1h-1v3h1v1h-2v1h-2v2h1v1h1v-1h-1v-1h2v1h1v-1h1v2h1v-1h2v-1h1v1h1v1h-1v1h-3v2h-2v-1h1v-1h-1v-1h-1v1h-3v-1h-1v1h1v1h-2v-1h-1v-1h1v-1h-1v-1h1v-2h2v-1h1v-1h1v-1h-1v-1h1v-1h1zM21 9h1v1h-1zM26 9h1v2h-1zM29 9h1v1h1v-1h3v1h-1v1h1v1h-2v1h-1v-1h-2v-1h-1v-1h1zM7 10v1h1v-1zM3 11v1h1v-1zM27 11h1v1h-1zM19 12h2v1h1v1h3v1h-3v1h-2v-1h-1v-1h1v-1h-1zM26 12h1v1h-1zM28 12h1v3h1v-1h2v1h-1v1h1v1h-2v-1h-2v-2h-1v-1h1zM11 13h1v1h-1zM18 13h1v1h-1zM25 13h1v1h-1zM33 13h1v1h-1zM1 14h1v1h-1zM26 14h1v1h-1zM2 15h1v1h-1zM6 15h2v1h-2zM16 15h1v1h-1zM25 15h1v2h4v2h-1v-1h-1v2h2v-1h1v-1h3v2h-1v-1h-1v2h-1v1h1v1h-4v-1h2v-1h-3v-1h-1v-2h-1zM5 16h1v1h2v1h-1v1h-1v-1h-1zM15 16h1v1h-1zM17 16h1v1h-1zM19 16h1v1h-1zM23 16h1v3h1v2h-1v-1h-2v-1h1zM33 16h1v1h-1zM1 17h2v1h1v1h-1v1h-2v-1h1v-1h-1zM4 19h1v1h-1zM7 19h1v1h-1zM15 20h1v1h-1zM2 21h1v1h-1zM5 21h1v1h1v1h-1v1h1v1h-2v1h-4v-4h1v3h1v-1h2v-1h-2v-1h2zM7 21h1v1h-1zM9 21h1v2h1v1h3v1h-3v1h-1v-2h-3v-1h1v-1h1zM12 21h1v1h-1zM14 21h1v1h-1zM19 21h2v2h-1v-1h-1zM23 21h1v1h1v2h-2v-1h-1v-1h1zM25 21h1v1h-1zM32 21h1v1h-1zM13 22h1v1h-1zM18 22h1v2h3v2h-1v-1h-3zM14 23h1v1h-1zM27 23h1v1h2v6h-3v1h-1v-1h-1v1h-1v2h-1v-1h-1v-1h-1v1h-1v-1h-1v-1h2v-1h-2v1h-1v1h-1v-2h1v-1h-2v-1h-1v-1h2v-1h1v1h2v1h-1v1h1v-1h1v1h1v2h1v-2h1v-1h1v-2h2zM32 23h2v3h-1v1h-1v2h-1v-3h1v-1h-1v-1h1zM15 24h2v1h-2zM7 25h2v1h-2zM14 25h1v1h-1zM9 26h1v2h1v1h-1v2h-1zM22 26h2v1h-2zM26 26v3h3v-3zM1 27h7v7h-7zM12 27h3v1h1v3h-2v-1h1v-1h-1v-1h-2zM27 27h1v1h-1zM2 28v5h5v-5zM3 29h3v3h-3zM32 29h2v4h-3v1h-1v-1h-1v-1h-1v-1h2v1h2v-1h-1v-1h1zM12 30h1v1h-1zM10 31h2v1h-1v2h-2v-1h1zM16 31h1v1h-1zM25 31h1v1h-1zM14 32h1v1h4v1h-6v-1h1zM21 32h1v1h-1zM20 33h1v1h-1zM24 33h2v1h-2zM28 33h1v1h-1z"/></svg>